<svg xmlns="http://www.w3.org/2000/svg" width="190.3528mm" height="150.3528mm" viewBox="0 0 539.5827 426.1969"><defs><style>.cls-1,.cls-10,.cls-11,.cls-6,.cls-7,.cls-8,.cls-9{fill:none;stroke-linecap:round;}.cls-1,.cls-10,.cls-11,.cls-2,.cls-6,.cls-7,.cls-8,.cls-9{stroke:#808285;stroke-miterlimit:10;}.cls-2{fill:#fff;}.cls-3{fill:#bad9b9;}.cls-4{fill:#c7eafb;}.cls-5{fill:#d8cba2;}.cls-10,.cls-11,.cls-6,.cls-7,.cls-8,.cls-9{stroke-width:2px;}.cls-7{stroke-dasharray:0 9.9435;}.cls-8{stroke-dasharray:0 9.9296;}.cls-9{stroke-dasharray:0 11.3274;}.cls-10{stroke-dasharray:0 10.2725;}.cls-11{stroke-dasharray:0 9.8181;}.cls-12,.cls-13{font-size:21px;fill:#58595b;}.cls-12{font-family:AgencyFB-Bold, Agency FB;font-weight:700;}.cls-13{font-family:AgencyFB-Reg, Agency FB;}</style></defs><title>8. Connexion Box a GTB</title><g id="Layer_2" data-name="Layer 2"><g id="_8._Connexion_Box_a_GTB" data-name="8. Connexion Box a GTB"><g id="Expanded"><rect class="cls-1" x="0.5" y="0.5" width="538.5827" height="425.1969" rx="5.6693" ry="5.6693"/><rect class="cls-2" x="184.7518" y="121.1617" width="170.0787" height="85.0394" rx="42.5196" ry="42.5196"/><rect class="cls-3" x="383.1706" y="18.3106" width="141.7323" height="56.6929" rx="2.8346" ry="2.8346"/><rect class="cls-4" x="198.9251" y="18.3106" width="141.7323" height="56.6929" rx="2.8346" ry="2.8346"/><rect class="cls-4" x="14.6796" y="18.4058" width="141.7323" height="56.6929" rx="2.8346" ry="2.8346"/><rect class="cls-5" x="383.1706" y="252.2637" width="141.7323" height="56.6929" rx="2.8346" ry="2.8346"/><rect class="cls-5" x="198.9252" y="252.264" width="141.7323" height="56.6929" rx="2.8346" ry="2.8346"/><rect class="cls-5" x="91.5882" y="351.0982" width="170.0787" height="56.6929" rx="3.1052" ry="3.1052"/><rect class="cls-5" x="277.1522" y="351.0982" width="170.0787" height="56.6929" rx="3.1052" ry="3.1052"/><rect class="cls-5" x="14.6798" y="252.5943" width="141.7323" height="56.6929" rx="2.8346" ry="2.8346"/><line class="cls-6" x1="291.972" y1="117.5079" x2="291.972" y2="117.5079"/><path class="cls-7" d="M294.433,107.9847a18.7278,18.7278,0,0,1,16.2737-9.4462H436.0284c6.8835,0,12.714-5.1326,15.3382-9.83"/><line class="cls-6" x1="452.8539" y1="84.0136" x2="452.8539" y2="84.0136"/><line class="cls-6" x1="84.5458" y1="81.5306" x2="84.5458" y2="81.5306"/><path class="cls-8" d="M87.1,91.0027c3.0012,4.8017,8.3522,7.5358,14.4536,7.5358H233.6a18.743,18.743,0,0,1,18.1439,14.0475"/><line class="cls-6" x1="252.3328" y1="117.5079" x2="252.3328" y2="117.5079"/><line class="cls-6" x1="291.9628" y1="210.3027" x2="291.9628" y2="210.3027"/><path class="cls-7" d="M294.4238,219.8257a18.7277,18.7277,0,0,0,16.2736,9.4463H436.0192c6.8834,0,12.7139,5.1326,15.3381,9.83"/><line class="cls-6" x1="452.8447" y1="243.7969" x2="452.8447" y2="243.7969"/><line class="cls-6" x1="84.5365" y1="246.2798" x2="84.5365" y2="246.2798"/><path class="cls-8" d="M87.0908,236.8077c3.0011-4.8015,8.3522-7.5357,14.4536-7.5357H233.59a18.7429,18.7429,0,0,0,18.1439-14.0476"/><line class="cls-6" x1="252.3235" y1="210.3027" x2="252.3235" y2="210.3027"/><line class="cls-6" x1="271.8869" y1="83.5258" x2="271.8869" y2="83.5258"/><line class="cls-9" x1="271.8869" y1="94.8531" x2="271.8869" y2="111.8442"/><line class="cls-6" x1="271.8869" y1="117.5079" x2="271.8869" y2="117.5079"/><line class="cls-6" x1="271.8869" y1="244.2847" x2="271.8869" y2="244.2847"/><line class="cls-9" x1="271.8869" y1="232.9573" x2="271.8869" y2="215.9664"/><line class="cls-6" x1="271.8869" y1="210.3027" x2="271.8869" y2="210.3027"/><line class="cls-6" x1="287.3959" y1="312.3535" x2="287.3959" y2="312.3535"/><path class="cls-10" d="M289.9549,322.1537a16.9951,16.9951,0,0,0,14.44,8.0174h40.97c7.9674.0141,12.6954,5.4839,15.0229,9.7449"/><line class="cls-6" x1="362.1906" y1="344.696" x2="362.1906" y2="344.696"/><line class="cls-6" x1="175.6276" y1="347.1789" x2="175.6276" y2="347.1789"/><path class="cls-11" d="M177.2653,337.56c2.383-5.3345,7.4105-7.3889,15.37-7.3889h42.6816a17.0147,17.0147,0,0,0,16.519-12.9429"/><line class="cls-6" x1="252.325" y1="312.3535" x2="252.325" y2="312.3535"/><text class="cls-12" transform="translate(32.1487 53.7206)">PC supervision</text><text class="cls-12" transform="translate(224.2894 53.8158)">Serveur GTB</text><text class="cls-12" transform="translate(401.3517 53.8158)">Box Wattsense</text><text class="cls-13" transform="translate(224.047 171.6734)">Switch central</text><text class="cls-13" transform="translate(68.1504 288.0991)">HVAC</text><text class="cls-13" transform="translate(221.5161 287.7689)">Concentrateur</text><text class="cls-13" transform="translate(423.444 287.7688)">Eclairage</text><text class="cls-13" transform="translate(130.2027 386.6031)">Compteur eau</text><text class="cls-13" transform="translate(293.6642 386.6031)">Compteur électricité</text></g></g></g></svg>