<svg xmlns="http://www.w3.org/2000/svg" xmlns:xlink="http://www.w3.org/1999/xlink" width="196.3494mm" height="101.9132mm" viewBox="0 0 556.5811 288.8877"><defs><style>.cls-1{fill:none;}.cls-2{fill:#808285;}.cls-3{fill:#fff;}.cls-4{fill:#bcbec0;}.cls-5{fill:#3d723a;}.cls-6{clip-path:url(#clip-path);}</style><clipPath id="clip-path"><path class="cls-1" d="M312.4118,130.8038a108.1243,108.1243,0,0,0,14.2656,54.6243,8.4317,8.4317,0,0,1-1.8181,10.5883l-51.1,43.9957L342.6609,216.2a14.0219,14.0219,0,0,1,13.0246,2.0808,108.175,108.175,0,0,0,71.62,21.5471c54.4206-3.1222,99.0968-46.9393,103.2048-101.3A108.3492,108.3492,0,0,0,422.3625,21.5955C360.1189,21.5955,312.4118,59.8777,312.4118,130.8038Z"/></clipPath></defs><title>5. Power allumée</title><g id="Layer_2" data-name="Layer 2"><g id="_5._Power_allumée" data-name="5. Power allumée"><g id="Expanded"><path class="cls-2" d="M546.1875,288.8877H10.3936A10.4061,10.4061,0,0,1,0,278.4941v-268.1A10.4061,10.4061,0,0,1,10.3936,0H546.1875a10.4061,10.4061,0,0,1,10.3936,10.3936V278.4941A10.4061,10.4061,0,0,1,546.1875,288.8877ZM10.3936.99A9.4133,9.4133,0,0,0,.99,10.3936V278.4941a9.4133,9.4133,0,0,0,9.4034,9.4034H546.1875a9.4133,9.4133,0,0,0,9.4033-9.4034v-268.1A9.4133,9.4133,0,0,0,546.1875.99Z"/><g id="WattSense_box" data-name="WattSense box"><rect class="cls-3" x="258.4335" y="263.9996" width="23.4339" height="14.0624"/><path class="cls-4" d="M281.8672,278.5146H258.4336a.4531.4531,0,0,1-.4522-.4521V264a.4531.4531,0,0,1,.4522-.4521h23.4336a.453.453,0,0,1,.4521.4521v14.0625A.453.453,0,0,1,281.8672,278.5146Zm-22.9815-.9042H281.415V264.4521H258.8857Z"/><rect class="cls-4" x="262.6592" y="275.2373" width="3.835" height="1.1699"/><rect class="cls-4" x="273.7588" y="275.2373" width="3.835" height="1.1699"/><path class="cls-4" d="M264.624,273.6572a3.8613,3.8613,0,1,1,3.8623-3.8613A3.866,3.866,0,0,1,264.624,273.6572Zm0-6.8711a3.01,3.01,0,1,0,3.0108,3.01A3.0136,3.0136,0,0,0,264.624,266.7861Z"/><path class="cls-4" d="M275.6768,273.6572a3.8613,3.8613,0,1,1,3.8613-3.8613A3.8662,3.8662,0,0,1,275.6768,273.6572Zm0-6.8711a3.01,3.01,0,1,0,3.01,3.01A3.0139,3.0139,0,0,0,275.6768,266.7861Z"/><polygon class="cls-4" points="262.491 272.517 261.884 271.919 266.696 267.017 267.304 267.614 262.491 272.517"/><rect class="cls-4" x="272.2239" y="269.3649" width="6.8706" height="0.8531" transform="translate(-59.4812 460.727) rotate(-74.0546)"/><rect class="cls-3" x="222.7051" y="263.9996" width="23.4339" height="14.0624"/><path class="cls-4" d="M246.1387,278.5146H222.7051a.4531.4531,0,0,1-.4522-.4521V264a.4531.4531,0,0,1,.4522-.4521h23.4336a.453.453,0,0,1,.4521.4521v14.0625A.453.453,0,0,1,246.1387,278.5146Zm-22.9815-.9042h22.5293V264.4521H223.1572Z"/><rect class="cls-4" x="226.9307" y="275.2373" width="3.835" height="1.1699"/><rect class="cls-4" x="238.0303" y="275.2373" width="3.835" height="1.1699"/><path class="cls-4" d="M228.8965,273.6572a3.8613,3.8613,0,1,1,3.8613-3.8613A3.8662,3.8662,0,0,1,228.8965,273.6572Zm0-6.8711a3.01,3.01,0,1,0,3.01,3.01A3.0139,3.0139,0,0,0,228.8965,266.7861Z"/><path class="cls-4" d="M239.9482,273.6572a3.8613,3.8613,0,1,1,3.8614-3.8613A3.866,3.866,0,0,1,239.9482,273.6572Zm0-6.8711a3.01,3.01,0,1,0,3.01,3.01A3.0137,3.0137,0,0,0,239.9482,266.7861Z"/><polygon class="cls-4" points="226.763 272.517 226.155 271.919 230.968 267.017 231.575 267.614 226.763 272.517"/><rect class="cls-4" x="236.4954" y="269.3649" width="6.8706" height="0.8531" transform="translate(-85.3944 426.3732) rotate(-74.0546)"/><rect class="cls-3" x="212.0568" y="68.9951" width="23.4339" height="14.0624"/><path class="cls-4" d="M235.49,83.5029H212.0566a.4451.4451,0,0,1-.4453-.4453V68.9951a.4451.4451,0,0,1,.4453-.4453H235.49a.4451.4451,0,0,1,.4453.4453V83.0576A.4451.4451,0,0,1,235.49,83.5029Zm-22.9882-.8906h22.5429V69.44H212.502Z"/><rect class="cls-4" x="227.4297" y="70.79" width="3.835" height="0.8906"/><rect class="cls-4" x="216.3301" y="70.79" width="3.835" height="0.8906"/><path class="cls-4" d="M229.3,81.1426a3.8814,3.8814,0,1,1,3.8809-3.8819A3.8859,3.8859,0,0,1,229.3,81.1426Zm0-6.8721a2.9908,2.9908,0,1,0,2.99,2.99A2.9941,2.9941,0,0,0,229.3,74.2705Z"/><path class="cls-4" d="M218.248,81.1426a3.8814,3.8814,0,1,1,3.8809-3.8819A3.8858,3.8858,0,0,1,218.248,81.1426Zm0-6.8721a2.9908,2.9908,0,1,0,2.99,2.99A2.9941,2.9941,0,0,0,218.248,74.2705Z"/><polygon class="cls-4" points="227.242 80.054 226.607 79.429 231.42 74.527 232.055 75.152 227.242 80.054"/><rect class="cls-4" x="214.8298" y="76.8199" width="6.8696" height="0.8915" transform="translate(84.1803 266.0269) rotate(-74.1063)"/><rect class="cls-3" x="176.7106" y="68.9951" width="23.4339" height="14.0624"/><path class="cls-4" d="M200.1445,83.5029H176.7109a.4451.4451,0,0,1-.4453-.4453V68.9951a.4451.4451,0,0,1,.4453-.4453h23.4336a.4451.4451,0,0,1,.4453.4453V83.0576A.4451.4451,0,0,1,200.1445,83.5029Zm-22.9882-.8906h22.5429V69.44H177.1563Z"/><rect class="cls-4" x="192.084" y="70.79" width="3.835" height="0.8906"/><rect class="cls-4" x="180.9844" y="70.79" width="3.835" height="0.8906"/><path class="cls-4" d="M193.9531,81.1426a3.8814,3.8814,0,1,1,3.8819-3.8819A3.8858,3.8858,0,0,1,193.9531,81.1426Zm0-6.8721a2.9908,2.9908,0,1,0,2.9912,2.99A2.9941,2.9941,0,0,0,193.9531,74.2705Z"/><path class="cls-4" d="M182.9014,81.1426a3.8814,3.8814,0,1,1,3.8808-3.8819A3.8858,3.8858,0,0,1,182.9014,81.1426Zm0-6.8721a2.9908,2.9908,0,1,0,2.99,2.99A2.9941,2.9941,0,0,0,182.9014,74.2705Z"/><polygon class="cls-4" points="191.896 80.054 191.261 79.429 196.073 74.527 196.708 75.152 191.896 80.054"/><rect class="cls-4" x="179.4838" y="76.8199" width="6.8694" height="0.8915" transform="translate(58.5138 232.032) rotate(-74.1063)"/><rect class="cls-3" x="48.7352" y="68.9949" width="35.2564" height="14.0624"/><path class="cls-4" d="M83.9912,83.5029H48.7354a.4452.4452,0,0,1-.4454-.4453V68.9951a.4452.4452,0,0,1,.4454-.4453H83.9912a.4451.4451,0,0,1,.4453.4453V83.0576A.4451.4451,0,0,1,83.9912,83.5029Zm-34.8105-.8906H83.5459V69.44H49.1807Z"/><rect class="cls-4" x="64.4941" y="70.79" width="3.834" height="0.8906"/><rect class="cls-4" x="53.0088" y="70.79" width="3.835" height="0.8906"/><path class="cls-4" d="M66.3633,81.1426a3.8814,3.8814,0,1,1,3.8808-3.8819A3.8858,3.8858,0,0,1,66.3633,81.1426Zm0-6.8721a2.9908,2.9908,0,1,0,2.99,2.99A2.9941,2.9941,0,0,0,66.3633,74.2705Z"/><path class="cls-4" d="M54.9258,81.1426a3.8814,3.8814,0,1,1,3.8818-3.8819A3.8858,3.8858,0,0,1,54.9258,81.1426Zm0-6.8721a2.9908,2.9908,0,1,0,2.9912,2.99A2.9941,2.9941,0,0,0,54.9258,74.2705Z"/><polygon class="cls-4" points="64.306 80.054 63.671 79.429 68.483 74.527 69.118 75.152 64.306 80.054"/><rect class="cls-4" x="51.5085" y="76.8199" width="6.8696" height="0.8915" transform="translate(-34.4149 108.9492) rotate(-74.1063)"/><rect class="cls-4" x="76.2256" y="70.79" width="3.835" height="0.8906"/><path class="cls-4" d="M78.1436,81.1426a3.8814,3.8814,0,1,1,3.8808-3.8819A3.886,3.886,0,0,1,78.1436,81.1426Zm0-6.8721a2.9908,2.9908,0,1,0,2.99,2.99A2.9943,2.9943,0,0,0,78.1436,74.2705Z"/><rect class="cls-4" x="77.6836" y="73.8365" width="0.8906" height="6.87" transform="translate(-29.874 57.0137) rotate(-34.0605)"/><rect class="cls-3" x="106.9777" y="68.9949" width="35.2564" height="14.0624"/><path class="cls-4" d="M142.2344,83.5029H106.9775a.4451.4451,0,0,1-.4453-.4453V68.9951a.4451.4451,0,0,1,.4453-.4453h35.2569a.4451.4451,0,0,1,.4453.4453V83.0576A.4451.4451,0,0,1,142.2344,83.5029Zm-34.8115-.8906h34.3662V69.44H107.4229Z"/><rect class="cls-4" x="122.7363" y="70.79" width="3.835" height="0.8906"/><rect class="cls-4" x="111.251" y="70.79" width="3.835" height="0.8906"/><path class="cls-4" d="M124.6055,81.1426a3.8814,3.8814,0,1,1,3.8818-3.8819A3.8858,3.8858,0,0,1,124.6055,81.1426Zm0-6.8721a2.9908,2.9908,0,1,0,2.9912,2.99A2.9941,2.9941,0,0,0,124.6055,74.2705Z"/><path class="cls-4" d="M113.1689,81.1426a3.8814,3.8814,0,1,1,3.8809-3.8819A3.8858,3.8858,0,0,1,113.1689,81.1426Zm0-6.8721a2.9908,2.9908,0,1,0,2.99,2.99A2.9941,2.9941,0,0,0,113.1689,74.2705Z"/><polygon class="cls-4" points="122.548 80.054 121.913 79.429 126.726 74.527 127.36 75.152 122.548 80.054"/><rect class="cls-4" x="109.7507" y="76.8199" width="6.8696" height="0.8915" transform="translate(7.8775 164.9648) rotate(-74.1063)"/><rect class="cls-4" x="134.4688" y="70.79" width="3.834" height="0.8906"/><path class="cls-4" d="M136.3857,81.1426a3.8814,3.8814,0,1,1,3.8809-3.8819A3.8858,3.8858,0,0,1,136.3857,81.1426Zm0-6.8721a2.9908,2.9908,0,1,0,2.99,2.99A2.9941,2.9941,0,0,0,136.3857,74.2705Z"/><rect class="cls-4" x="135.9258" y="73.8365" width="0.8906" height="6.87" transform="translate(-19.8824 89.6333) rotate(-34.0605)"/><rect class="cls-3" x="187.8615" y="263.9996" width="23.4339" height="14.0624"/><path class="cls-4" d="M211.2949,278.5146H187.8613a.453.453,0,0,1-.4521-.4521V264a.453.453,0,0,1,.4521-.4521h23.4336a.4531.4531,0,0,1,.4522.4521v14.0625A.4531.4531,0,0,1,211.2949,278.5146Zm-22.9814-.9042h22.5293V264.4521H188.3135Z"/><rect class="cls-4" x="192.0879" y="275.2373" width="3.834" height="1.1699"/><rect class="cls-4" x="203.1875" y="275.2373" width="3.834" height="1.1699"/><path class="cls-4" d="M194.0527,273.6572a3.8613,3.8613,0,1,1,3.8614-3.8613A3.866,3.866,0,0,1,194.0527,273.6572Zm0-6.8711a3.01,3.01,0,1,0,3.01,3.01A3.0137,3.0137,0,0,0,194.0527,266.7861Z"/><path class="cls-4" d="M205.1045,273.6572a3.8613,3.8613,0,1,1,3.8613-3.8613A3.866,3.866,0,0,1,205.1045,273.6572Zm0-6.8711a3.01,3.01,0,1,0,3.01,3.01A3.0137,3.0137,0,0,0,205.1045,266.7861Z"/><polygon class="cls-4" points="191.919 272.517 191.312 271.919 196.124 267.017 196.731 267.614 191.919 272.517"/><rect class="cls-4" x="201.6526" y="269.3649" width="6.8706" height="0.8531" transform="translate(-110.6651 392.871) rotate(-74.0546)"/><rect class="cls-3" x="25.7492" y="83.7147" width="269.4415" height="179.6278" rx="1.7963" ry="1.7963"/><path class="cls-4" d="M293.3945,264.2334H27.5459a2.69,2.69,0,0,1-2.6875-2.6875V85.5107a2.69,2.69,0,0,1,2.6865-2.6865h265.85a2.69,2.69,0,0,1,2.6866,2.6865V261.5459A2.69,2.69,0,0,1,293.3945,264.2334ZM27.5449,84.6055a.9065.9065,0,0,0-.9053.9052V261.5459a.9069.9069,0,0,0,.9063.9062H293.3945a.9066.9066,0,0,0,.9053-.9062V85.5107a.9064.9064,0,0,0-.9053-.9052Z"/><path class="cls-4" d="M289.8018,259.3008H31.1377a1.3487,1.3487,0,0,1-1.3467-1.3467V89.1035a1.3489,1.3489,0,0,1,1.3467-1.3476H289.8018a1.3491,1.3491,0,0,1,1.3476,1.3476V257.9541A1.3489,1.3489,0,0,1,289.8018,259.3008ZM31.1377,88.6543a.449.449,0,0,0-.4482.4492V257.9541a.4488.4488,0,0,0,.4482.4482H289.8018a.449.449,0,0,0,.4492-.4482V89.1035a.4493.4493,0,0,0-.4492-.4492Z"/><path class="cls-2" d="M259.999,242.09a9.0135,9.0135,0,0,1,1.501-.1171,2.49,2.49,0,0,1,1.6992.5029,1.6318,1.6318,0,0,1,.53,1.2676,1.7826,1.7826,0,0,1-.4678,1.2939,2.5084,2.5084,0,0,1-1.8515.665,2.6874,2.6874,0,0,1-.6289-.0537v2.4268h-.7823Zm.7823,2.9209a2.6239,2.6239,0,0,0,.6474.0625c.9434,0,1.5186-.458,1.5186-1.2939,0-.8-.5664-1.1865-1.4287-1.1865a3.2579,3.2579,0,0,0-.7373.0635Z"/><path class="cls-2" d="M268.4629,245.8643a2.1258,2.1258,0,0,1-2.166,2.31,2.0673,2.0673,0,0,1-2.085-2.2373,2.1242,2.1242,0,0,1,2.1563-2.31A2.06,2.06,0,0,1,268.4629,245.8643Zm-3.4512.0449c0,.9531.5479,1.6719,1.3213,1.6719.7549,0,1.3213-.71,1.3213-1.6895,0-.7373-.3691-1.6719-1.3037-1.6719S265.0117,245.082,265.0117,245.9092Z"/><path class="cls-2" d="M269.709,243.7256l.5752,2.2109c.126.4854.2422.9346.3232,1.3838h.0274c.0986-.44.2422-.9082.3867-1.375l.71-2.22h.6651L273.07,245.9c.1621.5215.2871.98.3867,1.42h.0264a13.2814,13.2814,0,0,1,.333-1.4111l.62-2.1836h.7813l-1.4014,4.35h-.7187l-.6661-2.0762a14.5418,14.5418,0,0,1-.3857-1.4287h-.0186a12.5935,12.5935,0,0,1-.3955,1.4375l-.7,2.0674h-.72l-1.3115-4.35Z"/><path class="cls-2" d="M276.3555,246.0439a1.3934,1.3934,0,0,0,1.4922,1.51,2.86,2.86,0,0,0,1.2041-.2246l.1347.5664a3.5236,3.5236,0,0,1-1.4472.2695,2.02,2.02,0,0,1-2.1387-2.1933,2.1117,2.1117,0,0,1,2.04-2.3457,1.8431,1.8431,0,0,1,1.7969,2.05,3.051,3.051,0,0,1-.0264.3681Zm2.3183-.5664a1.1259,1.1259,0,0,0-1.0967-1.2851,1.31,1.31,0,0,0-1.2128,1.2851Z"/><path class="cls-2" d="M280.4141,245.082c0-.5117-.0088-.9521-.0362-1.3564h.6924l.0264.8535h.0361a1.306,1.306,0,0,1,1.2041-.9531.8667.8667,0,0,1,.2246.0273v.7461a1.1986,1.1986,0,0,0-.27-.0273,1.1107,1.1107,0,0,0-1.0606,1.0156,2.2931,2.2931,0,0,0-.0361.3691v2.3184h-.7812Z"/><path class="cls-2" d="M267.667,249.5811v2.1123h2.0312v.539H267.667v2.13h-.5752v-2.13h-2.0313v-.539h2.0313v-2.1123Z"/><path class="cls-2" d="M278.8584,251.6934v.539h-4.6377v-.539Z"/><circle class="cls-5" cx="252.6841" cy="248.0738" r="2.7771"/><path class="cls-3" d="M203.459,77.699h15.4531a3.4227,3.4227,0,0,1,3.4227,3.4227v35.1823a3.4228,3.4228,0,0,1-3.4228,3.4228H203.4591a3.4228,3.4228,0,0,1-3.4228-3.4228V81.1218A3.4227,3.4227,0,0,1,203.459,77.699Z"/><path class="cls-4" d="M218.9121,120.3945H203.459a4.0951,4.0951,0,0,1-4.0908-4.0908V81.1221a4.0951,4.0951,0,0,1,4.0908-4.0908h15.4531a4.0951,4.0951,0,0,1,4.0908,4.0908v35.1816A4.0951,4.0951,0,0,1,218.9121,120.3945ZM203.459,78.3672a2.7586,2.7586,0,0,0-2.7549,2.7549v35.1816a2.7586,2.7586,0,0,0,2.7549,2.7549h15.4531a2.7586,2.7586,0,0,0,2.7549-2.7549V81.1221a2.7586,2.7586,0,0,0-2.7549-2.7549Z"/><path class="cls-3" d="M220.4241,27.8034a14.55,14.55,0,0,0-8.5507,2.5629,14.0745,14.0745,0,0,1-8.3666,2.512,15.6818,15.6818,0,0,1-3.47-.36V75.1215a2.5776,2.5776,0,0,0,2.5777,2.5775h17.1431a2.5776,2.5776,0,0,0,2.5778-2.5775v-47.21A17.7108,17.7108,0,0,0,220.4241,27.8034Z"/><path class="cls-4" d="M219.7568,78.3672H202.6143a3.25,3.25,0,0,1-3.2461-3.2461V32.5186a.6677.6677,0,0,1,.25-.5215.6746.6746,0,0,1,.5634-.1309,15.1109,15.1109,0,0,0,3.3252.3438,13.3556,13.3556,0,0,0,8.0215-2.4161,15.1194,15.1194,0,0,1,8.8955-2.6582,18.4183,18.4183,0,0,1,1.9815.1114.667.667,0,0,1,.5976.664v47.21A3.25,3.25,0,0,1,219.7568,78.3672ZM200.7041,33.3281v41.793a1.9131,1.9131,0,0,0,1.91,1.91h17.1425a1.9131,1.9131,0,0,0,1.91-1.91V28.5205c-.4336-.0332-.8389-.0488-1.2432-.0488a13.8242,13.8242,0,0,0-8.207,2.4668,14.8063,14.8063,0,0,1-8.71,2.6074A17.0975,17.0975,0,0,1,200.7041,33.3281Z"/><path class="cls-4" d="M203.5068,27.04a14.4478,14.4478,0,0,1-8.5976-2.5761.449.449,0,0,1,.4629-.77,14.7418,14.7418,0,0,0,16.2685,0,15.9937,15.9937,0,0,1,17.5615-.0019.4491.4491,0,1,1-.46.7715l-.002-.001a15.0994,15.0994,0,0,0-16.6357.001A14.4506,14.4506,0,0,1,203.5068,27.04Z"/><g id="GSM"><path class="cls-3" d="M278.6384,55.526V74.269a3.43,3.43,0,0,1-3.43,3.43h-14.777a3.43,3.43,0,0,1-3.43-3.43V55.6966"/><path class="cls-4" d="M275.208,78.3672H260.4316A4.1019,4.1019,0,0,1,256.334,74.27V55.6963a.668.668,0,1,1,1.3359,0V74.27a2.7654,2.7654,0,0,0,2.7617,2.7618H275.208a2.7656,2.7656,0,0,0,2.7627-2.7618V55.5264a.668.668,0,1,1,1.3359,0V74.27A4.1027,4.1027,0,0,1,275.208,78.3672Z"/><path class="cls-3" d="M278.6374,116.4266l.0009-35.2976a3.43,3.43,0,0,0-3.43-3.43H260.4315a3.43,3.43,0,0,0-3.43,3.43V116.31a3.43,3.43,0,0,0,3.4028,3.43l14.7761.1165A3.43,3.43,0,0,0,278.6374,116.4266Z"/><path class="cls-4" d="M275.208,120.5244h-.0322l-14.7764-.1162a4.1106,4.1106,0,0,1-4.0654-4.0986V81.1289a4.1018,4.1018,0,0,1,4.0976-4.0976H275.208a4.1026,4.1026,0,0,1,4.0986,4.0976l-.0009,35.2979a4.0992,4.0992,0,0,1-4.0977,4.0976ZM260.4316,78.3672a2.7653,2.7653,0,0,0-2.7617,2.7617V116.31a2.7712,2.7712,0,0,0,2.74,2.7627l14.7753.1162a2.711,2.711,0,0,0,1.9678-.8018,2.7427,2.7427,0,0,0,.8164-1.96h0l.001-35.2979a2.7655,2.7655,0,0,0-2.7627-2.7617Z"/><path class="cls-3" d="M267.49,30.3663a14.0736,14.0736,0,0,1-8.3664,2.5119A13.6922,13.6922,0,0,1,253.5,31.831V49.1291c1.3215,2.3429,2.4164,4.5743,3.5016,6.5674,2.6116,4.7966,5.1647,8.1805,10.6715,8.1805,5.7124,0,8.2466-3.1763,10.9642-8.3511.9911-1.887,2.006-4.0322,3.2091-6.3968V28.9028a14.1287,14.1287,0,0,0-5.8059-1.0994A14.9846,14.9846,0,0,0,267.49,30.3663Z"/><path class="cls-4" d="M267.6729,64.5449c-6.1084,0-8.8106-4.0342-11.2579-8.5293-.4433-.8135-.8877-1.667-1.3486-2.5508-.6728-1.291-1.3691-2.6269-2.1484-4.0078a.666.666,0,0,1-.086-.3281V31.8311a.6678.6678,0,0,1,.9307-.6143,13.0552,13.0552,0,0,0,5.36.9932,13.3562,13.3562,0,0,0,8.0235-2.417h.001a15.7131,15.7131,0,0,1,8.8935-2.6573,14.9086,14.9086,0,0,1,6.0694,1.1524.6694.6694,0,0,1,.4042.6142V49.1289a.6649.6649,0,0,1-.0722.3027c-.5215,1.0254-1.0078,2.0079-1.4717,2.9473-.6074,1.23-1.1787,2.3857-1.7412,3.458C276.2627,61.4844,273.543,64.5449,267.6729,64.5449ZM254.168,48.9541c.7549,1.3447,1.43,2.64,2.083,3.8936.457.8759.8984,1.7226,1.3379,2.5293,2.7646,5.0791,5.1914,7.832,10.084,7.832,5.2207,0,7.5888-2.6914,10.373-7.9932.5586-1.0635,1.124-2.209,1.7275-3.4287.4444-.8994.9092-1.84,1.4053-2.8183V29.3506a13.8433,13.8433,0,0,0-5.1377-.8789,14.3564,14.3564,0,0,0-8.208,2.4678,14.8088,14.8088,0,0,1-8.71,2.6064,15.1256,15.1256,0,0,1-4.955-.7441Z"/><line class="cls-3" x1="267.6731" y1="46.0928" x2="267.7381" y2="30.2264"/><path class="cls-4" d="M267.6731,46.0928,267.07,30.2236a.6686.6686,0,0,1,1.3362-.0507c.0007.0184,0,.0381,0,.0562Z"/><path class="cls-4" d="M259.123,27.04a14.4481,14.4481,0,0,1-8.5976-2.5761.449.449,0,0,1,.4629-.77,14.7451,14.7451,0,0,0,16.27,0,15.9905,15.9905,0,0,1,17.5625,0,.449.449,0,0,1-.4629.77,15.0979,15.0979,0,0,0-16.6348-.001A14.453,14.453,0,0,1,259.123,27.04Z"/></g></g><g class="cls-6"><path class="cls-3" d="M312.4118,130.8038a108.1243,108.1243,0,0,0,14.2656,54.6243,8.4317,8.4317,0,0,1-1.8181,10.5883l-51.1,43.9957L342.6609,216.2a14.0219,14.0219,0,0,1,13.0246,2.0808,108.175,108.175,0,0,0,71.62,21.5471c54.4206-3.1222,99.0968-46.9393,103.2048-101.3A108.3492,108.3492,0,0,0,422.3625,21.5955C360.1189,21.5955,312.4118,59.8777,312.4118,130.8038Z"/><rect class="cls-3" x="396.7894" y="183.7958" width="88.8311" height="53.3065"/><path class="cls-4" d="M485.62,237.7705h-88.831a.6676.6676,0,0,1-.668-.668V183.7959a.6677.6677,0,0,1,.668-.668H485.62a.6677.6677,0,0,1,.668.668v53.3066A.6676.6676,0,0,1,485.62,237.7705Zm-88.1631-1.3359h87.4951V184.4639H397.457Z"/><rect class="cls-4" x="412.8086" y="227.9434" width="14.5361" height="1.3359"/><rect class="cls-4" x="454.8838" y="227.9434" width="14.5361" height="1.3359"/><path class="cls-4" d="M420.2578,219.46a13.6919,13.6919,0,1,1,13.6914-13.6914A13.7073,13.7073,0,0,1,420.2578,219.46Zm0-26.0479a12.356,12.356,0,1,0,12.3555,12.3565A12.37,12.37,0,0,0,420.2578,193.4121Z"/><path class="cls-4" d="M462.1523,219.46a13.6919,13.6919,0,1,1,13.6915-13.6914A13.7065,13.7065,0,0,1,462.1523,219.46Zm0-26.0479a12.356,12.356,0,1,0,12.3555,12.3565A12.37,12.37,0,0,0,462.1523,193.4121Z"/><rect class="cls-4" x="407.1209" y="204.988" width="26.0384" height="1.3356" transform="translate(-20.9337 361.4308) rotate(-45.5332)"/><rect class="cls-4" x="449.0678" y="205.0832" width="26.0412" height="1.3366" transform="translate(137.308 593.5362) rotate(-74.0546)"/><path class="cls-2" d="M390.4541,105.8086a40.6321,40.6321,0,0,1,6.7217-.5234c3.4619,0,5.998.8056,7.6074,2.2548a7.29,7.29,0,0,1,2.375,5.6758,7.9876,7.9876,0,0,1-2.0928,5.7959c-1.8515,1.9727-4.87,2.9785-8.292,2.9785a12.0516,12.0516,0,0,1-2.8173-.2412v10.8682h-3.502Zm3.502,13.082a11.738,11.738,0,0,0,2.8974.2823c4.2266,0,6.8028-2.0528,6.8028-5.7969,0-3.5821-2.5352-5.3125-6.3995-5.3125a14.6934,14.6934,0,0,0-3.3007.2812Z"/><path class="cls-2" d="M428.373,122.7148c0,7.2051-4.9912,10.3448-9.7011,10.3448-5.2735,0-9.3389-3.8643-9.3389-10.0225,0-6.5215,4.2666-10.3447,9.6611-10.3447C424.5889,112.6924,428.373,116.7578,428.373,122.7148Zm-15.457.2012c0,4.2666,2.4551,7.4873,5.917,7.4873,3.3809,0,5.917-3.18,5.917-7.5674,0-3.3007-1.65-7.4873-5.8369-7.4873S412.916,119.2129,412.916,122.916Z"/><path class="cls-2" d="M433.9688,113.1348l2.5761,9.9023c.5635,2.1738,1.0869,4.1865,1.4492,6.1992h.12c.4433-1.9726,1.0869-4.0654,1.7314-6.1592l3.18-9.9423h2.9785l3.0186,9.7412c.7246,2.3349,1.288,4.3877,1.7314,6.36h.1211a58.3047,58.3047,0,0,1,1.4893-6.32l2.7773-9.7812h3.502l-6.2793,19.4824h-3.2207l-2.9786-9.2988a64.9364,64.9364,0,0,1-1.7314-6.4h-.08a57.7391,57.7391,0,0,1-1.7715,6.4405l-3.14,9.2578h-3.22l-5.877-19.4824Z"/><path class="cls-2" d="M463.7568,123.5205c.08,4.79,3.14,6.7617,6.6817,6.7617a12.8093,12.8093,0,0,0,5.3935-1.0058l.6045,2.5361a15.7866,15.7866,0,0,1-6.4814,1.207c-5.9971,0-9.58-3.9443-9.58-9.8213s3.4619-10.5058,9.1377-10.5058c6.36,0,8.0508,5.5947,8.0508,9.1777a13.3967,13.3967,0,0,1-.1211,1.65Zm10.3848-2.5361c.04-2.2539-.9258-5.7559-4.9111-5.7559-3.5821,0-5.1524,3.3-5.4336,5.7559Z"/><path class="cls-2" d="M481.9512,119.2129c0-2.294-.04-4.2666-.1612-6.0781h3.1l.1211,3.8242h.16a5.8461,5.8461,0,0,1,5.3945-4.2666,3.8434,3.8434,0,0,1,1.0059.12v3.3418a5.2846,5.2846,0,0,0-1.207-.1211c-2.4961,0-4.2666,1.8916-4.75,4.5488a9.8925,9.8925,0,0,0-.1612,1.65v10.3848h-3.5019Z"/><path class="cls-2" d="M424.8105,139.3809V148.84h9.0977v2.4151h-9.0977v9.54h-2.5761v-9.54h-9.0967V148.84h9.0967v-9.4589Z"/><path class="cls-2" d="M474.9668,148.84v2.4151h-20.77V148.84Z"/><circle class="cls-5" cx="357.6524" cy="132.5854" r="12.4467"/><path class="cls-2" d="M503.0811,174.1406H320.8125a.6123.6123,0,0,1,0-1.2246H503.0811a4.4436,4.4436,0,0,0,4.4384-4.4385V63.57a.6123.6123,0,1,1,1.2246,0V168.4775A5.6689,5.6689,0,0,1,503.0811,174.1406Z"/><path class="cls-2" d="M513.7715,184.8877H326.6777a.668.668,0,0,1,0-1.3359H513.7715a4.3874,4.3874,0,0,0,4.3828-4.3829V80.5684a.668.668,0,1,1,1.3359,0v98.6005A5.7252,5.7252,0,0,1,513.7715,184.8877Z"/></g><path class="cls-2" d="M270.9326,241.6367l7.9961-6.8828a.6121.6121,0,1,1,.7988.9277l-3.1425,2.7051,3.9189-1.3545a.6127.6127,0,1,1,.4,1.1582Z"/><path class="cls-2" d="M420.877,240.625c-1.97,0-3.9541-.0527-5.8965-.1562a.6118.6118,0,0,1-.5791-.6436.64.64,0,0,1,.6435-.5791,111.0211,111.0211,0,0,0,12.2256-.03q1.2583-.0732,2.5108-.1738a.6219.6219,0,0,1,.6591.5615.6124.6124,0,0,1-.5615.6592q-1.2642.1011-2.5381.1758C425.1885,240.5625,423.0137,240.625,420.877,240.625Zm-10.7911-.5293c-.02,0-.041-.001-.06-.0029a109.3572,109.3572,0,0,1-14.6924-2.4668.6125.6125,0,0,1,.2852-1.1914,108.1651,108.1651,0,0,0,14.5263,2.4394.6123.6123,0,0,1-.0586,1.2217Zm24.6582-.3418a.6123.6123,0,0,1-.0761-1.22,107.7115,107.7115,0,0,0,14.4619-2.86.6122.6122,0,1,1,.32,1.1817,108.7768,108.7768,0,0,1-14.6279,2.8935A.684.684,0,0,1,434.7441,239.7539ZM285.377,236.6094a.6125.6125,0,0,1-.2-1.1914l14.0175-4.8448a.6127.6127,0,1,1,.4,1.1582l-14.0176,4.8448A.6246.6246,0,0,1,285.377,236.6094Zm105.32-.2266a.6436.6436,0,0,1-.17-.0234,108.7025,108.7025,0,0,1-13.998-5.1045.6125.6125,0,0,1,.498-1.1192,107.4048,107.4048,0,0,0,13.84,5.0459.6126.6126,0,0,1-.17,1.2012Zm63.3427-.9082a.6122.6122,0,0,1-.1865-1.1953,109.0531,109.0531,0,0,0,13.7-5.4385.6124.6124,0,0,1,.5274,1.1055,110.1472,110.1472,0,0,1-13.8545,5.499A.5909.5909,0,0,1,454.04,235.4746Zm-170.792-3.02a.6123.6123,0,0,1-.3994-1.0762l11.2393-9.6767a.6121.6121,0,1,1,.7988.9277l-11.2392,9.6768A.61.61,0,0,1,283.248,232.4541Zm20.8184-2.3037a.6125.6125,0,0,1-.2-1.1914l14.0176-4.8447a.6127.6127,0,1,1,.4,1.1582l-14.0176,4.8447A.6252.6252,0,0,1,304.0664,230.15Zm68.2412-.9561a.6108.6108,0,0,1-.2734-.0644,109.3665,109.3665,0,0,1-12.834-7.5694.6124.6124,0,1,1,.6934-1.01,107.9556,107.9556,0,0,0,12.6894,7.4834.6124.6124,0,0,1-.2754,1.16Zm99.9258-1.4218a.6123.6123,0,0,1-.2891-1.1524,110.8462,110.8462,0,0,0,12.5069-7.7988.6122.6122,0,1,1,.7148.9941A111.9224,111.9224,0,0,1,472.5205,227.7.6111.6111,0,0,1,472.2334,227.7725ZM322.7568,223.69a.6125.6125,0,0,1-.2-1.1914l14.0166-4.8437a.6127.6127,0,0,1,.4,1.1582l-14.0166,4.8437A.6225.6225,0,0,1,322.7568,223.69Zm-24.5224-4.1386a.6123.6123,0,0,1-.3994-1.0762L309.0742,208.8a.6121.6121,0,1,1,.7988.9277l-11.2392,9.6758A.6092.6092,0,0,1,298.2344,219.5518Zm57.3-.77a.605.605,0,0,1-.36-.1182,13.3987,13.3987,0,0,0-7.9638-2.6162,13.2624,13.2624,0,0,0-4.3487.7314l-1.2148.42a.6127.6127,0,1,1-.4-1.1582l1.2148-.42a14.6123,14.6123,0,0,1,13.4356,2.0547.6123.6123,0,0,1-.3623,1.1065Zm133.2187-1.8292a.6123.6123,0,0,1-.38-1.0927,111.8216,111.8216,0,0,0,10.9356-9.88.6119.6119,0,1,1,.8789.8516,112.953,112.953,0,0,1-11.0547,9.9892A.611.611,0,0,1,488.7529,216.9521ZM313.22,206.65a.6123.6123,0,0,1-.3994-1.0762l11.2393-9.6767a.6121.6121,0,1,1,.7988.9277l-11.2393,9.6768A.6091.6091,0,0,1,313.22,206.65Zm189.89-3.2559a.6123.6123,0,0,1-.458-1.0185,111.6419,111.6419,0,0,0,9.0273-11.6455.6121.6121,0,0,1,1.0156.6836,112.7006,112.7006,0,0,1-9.1269,11.7744A.61.61,0,0,1,503.1094,203.3945ZM327.32,193.0244a.6116.6116,0,0,1-.5781-.8154,7.8211,7.8211,0,0,0-.5957-6.4776c-1.2608-2.2011-2.458-4.4755-3.5586-6.7578a.6123.6123,0,0,1,1.1035-.5312c1.0879,2.2558,2.2715,4.5039,3.5176,6.6806a9.0507,9.0507,0,0,1,.6894,7.4922A.6127.6127,0,0,1,327.32,193.0244Zm187.5313-5.4961a.6122.6122,0,0,1-.5215-.9316,109.4772,109.4772,0,0,0,6.8135-13.0567.6121.6121,0,0,1,1.121.4922,110.6263,110.6263,0,0,1-6.89,13.2032A.6122.6122,0,0,1,514.8516,187.5283Zm-193.7578-12.71a.6121.6121,0,0,1-.5635-.3721,108.5037,108.5037,0,0,1-4.8985-14.0752.6124.6124,0,1,1,1.1817-.3223,107.2322,107.2322,0,0,0,4.8437,13.917.6121.6121,0,0,1-.5634.8526Zm202.4912-4.9825a.6121.6121,0,0,1-.5713-.833,107.8788,107.8788,0,0,0,4.3476-14.0752.6119.6119,0,0,1,1.1914.2793,108.9128,108.9128,0,0,1-4.3964,14.2373A.6114.6114,0,0,1,523.585,169.8359ZM315.0332,156.0225a.6117.6117,0,0,1-.5967-.4786,109.4517,109.4517,0,0,1-2.2529-14.7324.6127.6127,0,0,1,.56-.6611.631.631,0,0,1,.6611.56,108.3388,108.3388,0,0,0,2.2275,14.5664.6123.6123,0,0,1-.4638.7314A.6316.6316,0,0,1,315.0332,156.0225Zm213.9443-5.1768a.5564.5564,0,0,1-.1132-.0107.611.611,0,0,1-.4893-.7139,107.575,107.575,0,0,0,1.5244-11.64q.1128-1.5014.1865-2.9941a.6121.6121,0,0,1,1.2227.0606q-.0732,1.5087-.1885,3.0253a108.4934,108.4934,0,0,1-1.542,11.7725A.6111.6111,0,0,1,528.9775,150.8457ZM312.4912,136.4365a.6125.6125,0,0,1-.6123-.5888c-.0537-1.4229-.081-2.8643-.081-4.2852l.0019-.7637c.001-3.3213.1074-6.6318.3154-9.8349a.627.627,0,0,1,.6514-.5713.6136.6136,0,0,1,.5713.6513c-.207,3.1758-.3125,6.46-.3135,9.76l-.0019.7588c0,1.4053.0273,2.8311.081,4.2383a.6137.6137,0,0,1-.5889.6357Zm218.3379-5.248h-.0029a.6121.6121,0,0,1-.6094-.6153l.002-.5312A109.834,109.834,0,0,0,529.3,115.87a.6125.6125,0,0,1,.5283-.6865.6231.6231,0,0,1,.6865.5283,111.0524,111.0524,0,0,1,.9288,14.333l-.002.5342A.612.612,0,0,1,530.8291,131.1885ZM313.1328,116.6914c-.02,0-.041-.001-.0625-.0029a.6127.6127,0,0,1-.5478-.6709,129.3409,129.3409,0,0,1,2.3242-14.7012.6216.6216,0,0,1,.7295-.4678.6132.6132,0,0,1,.4677.73,127.853,127.853,0,0,0-2.3027,14.5625A.6125.6125,0,0,1,313.1328,116.6914Zm216.0225-5.1728a.6117.6117,0,0,1-.6016-.5059,107.655,107.655,0,0,0-3.5605-14.2939.6127.6127,0,0,1,1.166-.377,108.8361,108.8361,0,0,1,3.6,14.458.6109.6109,0,0,1-.4961.709A.5738.5738,0,0,1,529.1553,111.5186ZM316.6045,97.2578a.6181.6181,0,0,1-.1563-.02.611.611,0,0,1-.4355-.748,109.7441,109.7441,0,0,1,4.7549-14.1143.6124.6124,0,1,1,1.1308.4707,108.4531,108.4531,0,0,0-4.7021,13.9561A.6124.6124,0,0,1,316.6045,97.2578Zm207.3379-4.793a.6114.6114,0,0,1-.5733-.3974,107.8616,107.8616,0,0,0-6.1113-13.4121.6118.6118,0,0,1,1.0762-.5821,108.9268,108.9268,0,0,1,6.1816,13.5645.6123.6123,0,0,1-.5732.8271ZM323.3408,78.709a.6118.6118,0,0,1-.5537-.875,97.6007,97.6007,0,0,1,7.3877-12.9385.6124.6124,0,0,1,1.0137.6875,96.3318,96.3318,0,0,0-7.294,12.7764A.6136.6136,0,0,1,323.3408,78.709Zm192-4.0283a.6129.6129,0,0,1-.5254-.2959,107.9893,107.9893,0,0,0-8.4492-12.0723.6125.6125,0,1,1,.9531-.77,109.2625,109.2625,0,0,1,8.545,12.209.6122.6122,0,0,1-.5235.9287ZM333.5635,61.84a.6122.6122,0,0,1-.4883-.9824,93.0742,93.0742,0,0,1,9.9287-11.1133.6127.6127,0,0,1,.8457.8868,91.7341,91.7341,0,0,0-9.7978,10.9668A.6119.6119,0,0,1,333.5635,61.84Zm170.0879-3.0761a.6091.6091,0,0,1-.459-.2071,108.2292,108.2292,0,0,0-10.4912-10.3408.6129.6129,0,1,1,.7988-.93,109.6772,109.6772,0,0,1,10.61,10.459.6123.6123,0,0,1-.459,1.0186Zm-156.5645-11.27a.6123.6123,0,0,1-.3984-1.0772,96.3285,96.3285,0,0,1,12.0429-8.7793.6125.6125,0,0,1,.6426,1.043,95.0362,95.0362,0,0,0-11.8886,8.666A.606.606,0,0,1,347.0869,47.4932Zm142.1963-2.2647a.6156.6156,0,0,1-.3779-.13,107.8133,107.8133,0,0,0-12.1846-8.2695.6127.6127,0,0,1,.6172-1.0586,109.3626,109.3626,0,0,1,12.3232,8.3633.6124.6124,0,0,1-.3779,1.0947ZM363.334,36.2754a.6122.6122,0,0,1-.2959-1.1484,105.7865,105.7865,0,0,1,13.5332-6.2305.6119.6119,0,1,1,.4336,1.1445,104.9341,104.9341,0,0,0-13.377,6.1582A.6047.6047,0,0,1,363.334,36.2754Zm109.3769-1.75a.6166.6166,0,0,1-.2832-.0693,107.4274,107.4274,0,0,0-13.49-5.919.6122.6122,0,0,1,.4141-1.1523A108.915,108.915,0,0,1,472.9961,33.37a.6125.6125,0,0,1-.2852,1.1553Zm-91.2646-6.09a.6124.6124,0,0,1-.1914-1.1943,120.4248,120.4248,0,0,1,14.4131-3.748.6121.6121,0,0,1,.2363,1.2011,119.152,119.152,0,0,0-14.2666,3.711A.6218.6218,0,0,1,381.4463,28.4355ZM454.457,27.01a.6131.6131,0,0,1-.1806-.0274,107.6806,107.6806,0,0,0-14.3428-3.3584.6123.6123,0,0,1-.5059-.7031.6207.6207,0,0,1,.7032-.5059,108.8929,108.8929,0,0,1,14.5068,3.3975.6123.6123,0,0,1-.1807,1.1973Zm-53.8047-3.16a.6126.6126,0,0,1-.0937-1.2178,138.8194,138.8194,0,0,1,14.8135-1.4853.58.58,0,0,1,.64.583.6115.6115,0,0,1-.583.64,137.369,137.369,0,0,0-14.6807,1.4737A.6369.6369,0,0,1,400.6523,23.85Zm34.4873-.9014a.5929.5929,0,0,1-.0722-.0039,114.94,114.94,0,0,0-14.7188-.7226.6448.6448,0,0,1-.62-.6045.6127.6127,0,0,1,.6045-.62,115.8288,115.8288,0,0,1,14.877.73.6124.6124,0,0,1-.07,1.2207Z"/><image width="1754" height="1240" transform="translate(97.3489 149.1923) scale(0.0692)" xlink:href="../Materials/wattsense-logo-print-page-001.jpg"/></g></g></g></svg>