<svg xmlns="http://www.w3.org/2000/svg" xmlns:xlink="http://www.w3.org/1999/xlink" width="180.3442mm" height="130.9557mm" viewBox="0 0 511.2119 371.2129"><defs><style>.cls-1{fill:#27aae1;}.cls-2{fill:#00aeef;}.cls-3{fill:#d1d3d4;}.cls-4{fill:#bcbec0;}.cls-5{fill:#e6e7e8;}.cls-6{fill:#414042;}.cls-7{fill:#973e54;}.cls-8{fill:#808285;}.cls-9{fill:#fff;}.cls-10{fill:#3d723a;}.cls-11{fill:#4d4d4d;}</style></defs><title>2.3 Connection</title><g id="Слой_2" data-name="Слой 2"><g id="_2._Alimentation_electrique" data-name="2. Alimentation electrique"><g id="_2.3_Exp" data-name="2.3 Exp"><path class="cls-1" d="M164.4009,340.4678a7.4615,7.4615,0,1,1,7.4614-7.461A7.4694,7.4694,0,0,1,164.4009,340.4678Zm0-14.1729a6.7115,6.7115,0,1,0,6.7114,6.7119A6.7191,6.7191,0,0,0,164.4009,326.2949Z"/><path class="cls-2" d="M163.1382,329.4424h1.874a.2311.2311,0,0,0,.1758-.0586.3663.3663,0,0,1,.1-.084.4514.4514,0,0,1,.1387-.0137.4987.4987,0,0,1,.2031.0254.105.105,0,0,1,.043.1q0,.0162-.0118.1407l-.07.8359a.291.291,0,0,1-.041.1523.2135.2135,0,0,1-.1426.0313h-1.8359l-.0664,1.2031a1.4979,1.4979,0,0,1,.8555-.2578,1.5855,1.5855,0,0,1,1.2656.5781,2.4626,2.4626,0,0,1-.0762,3.0508,1.8625,1.8625,0,0,1-1.4121.6016,1.344,1.344,0,0,1-1.0781-.4414,1.4017,1.4017,0,0,1-.3789-.9219.81.81,0,0,1,.1445-.4785.5241.5241,0,0,1,.793-.0449.6328.6328,0,0,1,.1406.4335,1.1712,1.1712,0,0,1-.0312.2618,1.8567,1.8567,0,0,0-.0508.3007.4005.4005,0,0,0,.1035.2579.3854.3854,0,0,0,.3144.125.4951.4951,0,0,0,.3086-.0957.4491.4491,0,0,0,.1641-.2715,4.032,4.032,0,0,0,.0391-.7071l-.0079-.6992a3.3334,3.3334,0,0,0-.121-1.0976.4246.4246,0,0,0-.418-.2969q-.4182,0-.586.5351a.3687.3687,0,0,1-.08.16.2389.2389,0,0,1-.1426.0391l-.1758.0078c-.0937,0-.1406-.0381-.1406-.1133,0-.0234.0014-.0586.0039-.1055Z"/><path class="cls-1" d="M120.6626,340.4678a7.4615,7.4615,0,1,1,7.4619-7.461A7.4694,7.4694,0,0,1,120.6626,340.4678Zm0-14.1729a6.7115,6.7115,0,1,0,6.7119,6.7119A6.7191,6.7191,0,0,0,120.6626,326.2949Z"/><path class="cls-2" d="M121.95,333.4219h.332a.2267.2267,0,0,1,.1641.0429.2679.2679,0,0,1,.0391.1719v.2305a.2135.2135,0,0,1-.0313.1367.21.21,0,0,1-.1484.0352H121.95v.7343a.3969.3969,0,0,0,.2227.3789.2255.2255,0,0,1,.1211.2188v.1758c0,.0576-.01.0937-.0313.1094a.28.28,0,0,1-.1445.0234h-1.6446c-.0781,0-.1264-.0137-.1445-.041a.7409.7409,0,0,1-.0273-.2754.2209.2209,0,0,1,.1172-.207.2647.2647,0,0,0,.1484-.2383v-.8789H119.02c-.0835,0-.1328-.01-.1484-.0293a.247.247,0,0,1-.0235-.1348l-.0009-.4541a.421.421,0,0,1,.0117-.1113,2.3834,2.3834,0,0,1,.168-.291l2.1943-3.5118a.296.296,0,0,1,.1431-.1259.9464.9464,0,0,1,.3076-.0332.62.62,0,0,1,.2466.0253c.021.0166.0312.0635.0312.1387Zm-1.3828-1.9141-1.1992,1.9141h1.1992Z"/><path class="cls-3" d="M503.3662,371.2129H7.8457A7.8545,7.8545,0,0,1,0,363.3672V7.8467A7.8554,7.8554,0,0,1,7.8457,0h495.52a7.8554,7.8554,0,0,1,7.8457,7.8467V363.3672A7.8545,7.8545,0,0,1,503.3662,371.2129Zm-495.52-370A6.6412,6.6412,0,0,0,1.2119,7.8467V363.3672A6.641,6.641,0,0,0,7.8457,370h495.52a6.64,6.64,0,0,0,6.6328-6.6328V7.8467a6.6407,6.6407,0,0,0-6.6328-6.6338Z"/><path class="cls-4" d="M413.9531,360.9346c-26.626,0-34.73-28.7647-40.0927-47.7989-.5088-1.8066-.9913-3.5195-1.461-5.1015-1.668-5.62-5.3525-19.0215-10.0166-35.9883-10.8916-39.6172-27.3506-99.4873-33.7344-116.6416C322.1465,137.93,307.5059,130.98,283.9033,134.17a.475.475,0,1,1-.1269-.9414c24.1123-3.251,39.081,3.8926,45.7617,21.8457,6.3984,17.1924,22.8642,77.0869,33.76,116.72,4.663,16.962,8.3457,30.3594,10.0117,35.9707.4707,1.586.9541,3.3028,1.4648,5.1143,5.2852,18.7578,13.2715,47.1065,39.1787,47.1065a.4746.4746,0,1,1,0,.9492Z"/><path class="cls-5" d="M487.3076,251.0713H178.1255a.375.375,0,0,1,0-.75H487.3076a.375.375,0,0,1,0,.75Z"/><path class="cls-5" d="M481.6953,215.5146H173.3306a.375.375,0,0,1,0-.75H481.6953a.375.375,0,0,1,0,.75Z"/><g id="WattSense_box" data-name="WattSense box"><path class="cls-6" d="M451.4274,329.6643a.2176.2176,0,0,1-.2292-.2111c-.0284-.9739-.0422-4.8342,1.3885-7.3275.3959-.69.8485-1.3508,1.286-1.99,1.179-1.7228.5541-3.3532.69-5.5708a.2169.2169,0,0,1,.2219-.2063l2.0219.0652a.22.22,0,0,1,.2121.23c-.16,2.9265.1485,5.0186-1.1179,6.87-.43.6277-.8353,1.2209-1.1826,1.8261-.9828,1.7124-1.1051,4.72-1.0664,5.9868a.2151.2151,0,0,1-.2057.2212Z"/><path class="cls-7" d="M448.7062,330.0345a.22.22,0,0,1-.2485-.1827,25.3611,25.3611,0,0,0-1.7386-6.1564c-.2261-.5684-.46-1.1559-.6963-1.8241-.9247-2.6122.0758-5.222.1791-6.7352a.2172.2172,0,0,1,.2323-.2016l2.0167.1411a.2163.2163,0,0,1,.2019.2305c-.0957,1.4011-1.0739,3.5987-.3142,5.7459.22.6229.4457,1.1879.6631,1.7346a27.7909,27.7909,0,0,1,1.8826,6.68.22.22,0,0,1-.1811.2521Z"/><path class="cls-3" d="M420.56,364.4648a.1411.1411,0,0,1-.1221-.2148,4.6746,4.6746,0,0,0,.001-5.1553,5.0667,5.0667,0,0,1-.001-5.5683.1423.1423,0,1,1,.2441.1465,4.785,4.785,0,0,0,0,5.2734,4.9572,4.9572,0,0,1,.001,5.4492A.143.143,0,0,1,420.56,364.4648Z"/><path class="cls-3" d="M416.34,364.918a.1413.1413,0,0,1-.122-.2149,4.6761,4.6761,0,0,0,.001-5.1562,5.0635,5.0635,0,0,1-.001-5.5664.1368.1368,0,0,1,.1953-.0489.1415.1415,0,0,1,.0488.1944,4.7844,4.7844,0,0,0-.001,5.2715,4.9578,4.9578,0,0,1,.002,5.4511A.1431.1431,0,0,1,416.34,364.918Z"/><path class="cls-8" d="M453.5029,329.9839a32.8879,32.8879,0,0,1-29.6159,31.6144,5.4741,5.4741,0,0,0-.9475-3.1266,3.5724,3.5724,0,0,1-.6575-1.9776,27.6078,27.6078,0,0,0,25.98-26.51h5.2408m.02-1.064h-5.261a1.044,1.044,0,0,0-1.0366,1.0178A26.5936,26.5936,0,0,1,421.278,355.47a5.4049,5.4049,0,0,0-.0631.84,4.6117,4.6117,0,0,0,.8123,2.71,4.4615,4.4615,0,0,1,.7962,2.6518,4.9836,4.9836,0,0,1-.1112,1.0864,33.9468,33.9468,0,0,0,31.8552-32.776,1.0406,1.0406,0,0,0-1.0443-1.0615Z"/><rect class="cls-9" x="444.1833" y="305.7082" width="15.487" height="9.2936"/><path class="cls-10" d="M459.67,315.3008H444.1836a.2988.2988,0,0,1-.2988-.2988v-9.294a.2988.2988,0,0,1,.2988-.2988H459.67a.2989.2989,0,0,1,.2989.2988v9.294A.2989.2989,0,0,1,459.67,315.3008Zm-15.1875-.5977h14.8887v-8.6963H444.4824Z"/><rect class="cls-10" x="446.9766" y="313.1348" width="2.5342" height="0.7734"/><rect class="cls-10" x="454.3115" y="313.1348" width="2.5342" height="0.7734"/><path class="cls-10" d="M448.2744,312.0908a2.5518,2.5518,0,1,1,2.5518-2.5517A2.5543,2.5543,0,0,1,448.2744,312.0908Zm0-4.541a1.9893,1.9893,0,1,0,1.9893,1.9893A1.9917,1.9917,0,0,0,448.2744,307.55Z"/><path class="cls-10" d="M455.5791,312.0908a2.5518,2.5518,0,1,1,2.5518-2.5517A2.5544,2.5544,0,0,1,455.5791,312.0908Zm0-4.541a1.9893,1.9893,0,1,0,1.9893,1.9893A1.9918,1.9918,0,0,0,455.5791,307.55Z"/><rect class="cls-10" x="445.9845" y="309.2373" width="4.5398" height="0.5635" transform="translate(-86.5849 412.868) rotate(-45.5617)"/><rect class="cls-10" x="453.2979" y="309.2548" width="4.5399" height="0.5626" transform="matrix(0.2743, -0.9617, 0.9617, 0.2743, 32.9557, 662.741)"/><path class="cls-10" d="M457.9268,298.9639h-5a.25.25,0,0,1,0-.5h5a.25.25,0,0,1,0,.5Z"/><path class="cls-10" d="M450.9268,298.9639h-5a.25.25,0,0,1,0-.5h5a.25.25,0,0,1,0,.5Z"/><path class="cls-10" d="M445.9268,298.9639a.25.25,0,0,1-.25-.25v-.7h-.5v.7a.25.25,0,0,1-.5,0v-.95a.25.25,0,0,1,.25-.25h1a.25.25,0,0,1,.25.25v.95A.25.25,0,0,1,445.9268,298.9639Z"/><path class="cls-10" d="M445.9268,305.9639a.25.25,0,0,1-.25-.25v-7a.25.25,0,0,1,.5,0v7A.25.25,0,0,1,445.9268,305.9639Z"/><path class="cls-10" d="M444.9268,305.9639a.25.25,0,0,1-.25-.25v-7a.25.25,0,0,1,.5,0v7A.25.25,0,0,1,444.9268,305.9639Z"/><path class="cls-10" d="M457.9268,305.9639a.25.25,0,0,1-.25-.25v-7a.25.25,0,0,1,.5,0v7A.25.25,0,0,1,457.9268,305.9639Z"/><path class="cls-10" d="M458.9268,298.9639a.25.25,0,0,1-.25-.25v-.7h-.5v.7a.25.25,0,0,1-.5,0v-.95a.25.25,0,0,1,.25-.25h1a.25.25,0,0,1,.25.25v.95A.25.25,0,0,1,458.9268,298.9639Z"/><path class="cls-10" d="M458.9268,305.9639a.25.25,0,0,1-.25-.25v-7a.25.25,0,0,1,.5,0v7A.25.25,0,0,1,458.9268,305.9639Z"/><path class="cls-10" d="M450.9268,305.9639a.25.25,0,0,1-.25-.25v-7a.25.25,0,0,1,.5,0v7A.25.25,0,0,1,450.9268,305.9639Z"/><path class="cls-10" d="M452.9268,305.9639a.25.25,0,0,1-.25-.25v-7a.25.25,0,0,1,.5,0v7A.25.25,0,0,1,452.9268,305.9639Z"/><path class="cls-10" d="M452.9268,298.9639a.25.25,0,0,1-.25-.25v-.7h-1.5v.7a.25.25,0,0,1-.5,0v-.95a.25.25,0,0,1,.25-.25h2a.25.25,0,0,1,.25.25v.95A.25.25,0,0,1,452.9268,298.9639Z"/><path class="cls-8" d="M436.0586,302.3008H420.5713a.2988.2988,0,0,1-.2988-.2988v-9.294a.2988.2988,0,0,1,.2988-.2988h15.4873a.2988.2988,0,0,1,.2988.2988v9.294A.2988.2988,0,0,1,436.0586,302.3008Zm-15.1885-.5977h14.89v-8.6963H420.87Z"/><rect class="cls-8" x="423.3643" y="300.1348" width="2.5342" height="0.7734"/><rect class="cls-8" x="430.6992" y="300.1348" width="2.5342" height="0.7734"/><path class="cls-8" d="M424.6621,299.0908a2.5518,2.5518,0,1,1,2.5527-2.5517A2.5543,2.5543,0,0,1,424.6621,299.0908Zm0-4.541a1.9893,1.9893,0,1,0,1.99,1.9893A1.9917,1.9917,0,0,0,424.6621,294.55Z"/><path class="cls-8" d="M431.9668,299.0908a2.5518,2.5518,0,1,1,2.5518-2.5517A2.5544,2.5544,0,0,1,431.9668,299.0908Zm0-4.541a1.9893,1.9893,0,1,0,1.9893,1.9893A1.9918,1.9918,0,0,0,431.9668,294.55Z"/><rect class="cls-8" x="422.3722" y="296.2373" width="4.5398" height="0.5635" transform="translate(-84.3832 392.1105) rotate(-45.5617)"/><rect class="cls-8" x="429.6856" y="296.2548" width="4.5399" height="0.5626" transform="matrix(0.2743, -0.9617, 0.9617, 0.2743, 28.3209, 630.5995)"/><path class="cls-8" d="M428.4277,173.4258H412.94a.2988.2988,0,0,1-.2988-.2988v-9.293a.2988.2988,0,0,1,.2988-.2988h15.4873a.2988.2988,0,0,1,.2989.2988v9.293A.2989.2989,0,0,1,428.4277,173.4258Zm-15.1884-.5977h14.89v-8.6953h-14.89Z"/><rect class="cls-8" x="423.1006" y="164.9268" width="2.5342" height="0.7734"/><rect class="cls-10" x="415.7646" y="164.9268" width="2.5342" height="0.7734"/><path class="cls-8" d="M424.3359,171.8486a2.5523,2.5523,0,1,1,2.5518-2.5527A2.5546,2.5546,0,0,1,424.3359,171.8486Zm0-4.542a1.99,1.99,0,1,0,1.9893,1.9893A1.9918,1.9918,0,0,0,424.3359,167.3066Z"/><path class="cls-10" d="M417.0322,171.8486a2.5523,2.5523,0,1,1,2.5518-2.5527A2.5548,2.5548,0,0,1,417.0322,171.8486Zm0-4.542a1.99,1.99,0,1,0,1.9893,1.9893A1.992,1.992,0,0,0,417.0322,167.3066Z"/><rect class="cls-8" x="422.0869" y="169.0342" width="4.5391" height="0.5635" transform="translate(6.3548 353.7635) rotate(-45.5617)"/><rect class="cls-10" x="414.7727" y="169.018" width="4.5405" height="0.5626" transform="matrix(0.2743, -0.9617, 0.9617, 0.2743, 139.8562, 523.9182)"/><path class="cls-8" d="M405.9375,173.4258H390.4512a.2989.2989,0,0,1-.2989-.2988v-9.293a.2988.2988,0,0,1,.2989-.2988h15.4863a.2988.2988,0,0,1,.2988.2988v9.293A.2988.2988,0,0,1,405.9375,173.4258Zm-15.1875-.5977h14.8887v-8.6953H390.75Z"/><rect class="cls-8" x="400.6104" y="164.9268" width="2.5352" height="0.7734"/><rect class="cls-8" x="393.2754" y="164.9268" width="2.5342" height="0.7734"/><path class="cls-8" d="M401.8467,171.8486a2.5523,2.5523,0,1,1,2.5517-2.5527A2.5546,2.5546,0,0,1,401.8467,171.8486Zm0-4.542a1.99,1.99,0,1,0,1.9892,1.9893A1.9918,1.9918,0,0,0,401.8467,167.3066Z"/><path class="cls-8" d="M394.542,171.8486a2.5523,2.5523,0,1,1,2.5518-2.5527A2.5546,2.5546,0,0,1,394.542,171.8486Zm0-4.542a1.99,1.99,0,1,0,1.9893,1.9893A1.9918,1.9918,0,0,0,394.542,167.3066Z"/><rect class="cls-8" x="399.5968" y="169.0342" width="4.5398" height="0.5635" transform="translate(-0.3889 337.7057) rotate(-45.5617)"/><rect class="cls-8" x="392.2828" y="169.018" width="4.5408" height="0.5626" transform="matrix(0.2743, -0.9617, 0.9617, 0.2743, 123.5345, 502.2909)"/><path class="cls-8" d="M328.3047,173.4932H305.0039a.3664.3664,0,0,1-.3662-.3662v-9.294a.3664.3664,0,0,1,.3662-.3662h23.3008a.3664.3664,0,0,1,.3662.3662v9.294A.3664.3664,0,0,1,328.3047,173.4932Zm-22.9346-.7325h22.5684v-8.5615H305.37Z"/><rect class="cls-8" x="315.4189" y="164.9268" width="2.5342" height="0.7734"/><rect class="cls-8" x="307.8291" y="164.9268" width="2.5342" height="0.7734"/><path class="cls-8" d="M316.6543,171.8486a2.5523,2.5523,0,1,1,2.5518-2.5527A2.5546,2.5546,0,0,1,316.6543,171.8486Zm0-4.542a1.99,1.99,0,1,0,1.9893,1.9893A1.9918,1.9918,0,0,0,316.6543,167.3066Z"/><path class="cls-8" d="M309.0957,171.8486a2.5523,2.5523,0,1,1,2.5518-2.5527A2.5546,2.5546,0,0,1,309.0957,171.8486Zm0-4.542a1.99,1.99,0,1,0,1.9893,1.9893A1.9918,1.9918,0,0,0,309.0957,167.3066Z"/><rect class="cls-8" x="314.4053" y="169.0342" width="4.5391" height="0.5635" transform="translate(-25.9345 276.8783) rotate(-45.5617)"/><rect class="cls-8" x="306.8365" y="169.018" width="4.5408" height="0.5626" transform="matrix(0.2743, -0.9617, 0.9617, 0.2743, 61.523, 420.121)"/><rect class="cls-8" x="323.1719" y="164.9268" width="2.5342" height="0.7734"/><path class="cls-8" d="M324.44,171.8486a2.5523,2.5523,0,1,1,2.5517-2.5527A2.5546,2.5546,0,0,1,324.44,171.8486Zm0-4.542a1.99,1.99,0,1,0,1.9892,1.9893A1.9918,1.9918,0,0,0,324.44,167.3066Z"/><polygon class="cls-8" points="325.468 171.342 322.925 167.581 323.392 167.265 325.935 171.025 325.468 171.342"/><path class="cls-8" d="M366.7959,173.4932H343.4951a.3664.3664,0,0,1-.3662-.3662v-9.294a.3664.3664,0,0,1,.3662-.3662h23.3008a.3664.3664,0,0,1,.3662.3662v9.294A.3664.3664,0,0,1,366.7959,173.4932Zm-22.9346-.7325H366.43v-8.5615H343.8613Z"/><rect class="cls-8" x="353.9102" y="164.9268" width="2.5342" height="0.7734"/><rect class="cls-8" x="346.3203" y="164.9268" width="2.5342" height="0.7734"/><path class="cls-8" d="M355.1455,171.8486a2.5523,2.5523,0,1,1,2.5518-2.5527A2.5546,2.5546,0,0,1,355.1455,171.8486Zm0-4.542a1.99,1.99,0,1,0,1.9893,1.9893A1.9917,1.9917,0,0,0,355.1455,167.3066Z"/><path class="cls-8" d="M347.5869,171.8486a2.5523,2.5523,0,1,1,2.5518-2.5527A2.5546,2.5546,0,0,1,347.5869,171.8486Zm0-4.542a1.99,1.99,0,1,0,1.9893,1.9893A1.9917,1.9917,0,0,0,347.5869,167.3066Z"/><rect class="cls-8" x="352.8966" y="169.0342" width="4.5398" height="0.5635" transform="translate(-14.3924 304.3616) rotate(-45.5617)"/><rect class="cls-8" x="345.3277" y="169.018" width="4.5408" height="0.5626" transform="matrix(0.2743, -0.9617, 0.9617, 0.2743, 89.4575, 457.1363)"/><rect class="cls-8" x="361.6641" y="164.9268" width="2.5342" height="0.7734"/><path class="cls-8" d="M362.9307,171.8486a2.5523,2.5523,0,1,1,2.5517-2.5527A2.5546,2.5546,0,0,1,362.9307,171.8486Zm0-4.542a1.99,1.99,0,1,0,1.9892,1.9893A1.9918,1.9918,0,0,0,362.9307,167.3066Z"/><polygon class="cls-8" points="363.959 171.341 361.417 167.58 361.884 167.266 364.426 171.026 363.959 171.341"/><path class="cls-10" d="M459.67,294.6016h-3.1054a.25.25,0,0,1-.25-.25.7247.7247,0,0,0-1.4493,0,.25.25,0,0,1-.25.25H449.249a.25.25,0,0,1-.25-.25.7246.7246,0,1,0-1.4492,0,.25.25,0,0,1-.25.25h-3.1162a.25.25,0,0,1-.25-.25V292.59a.25.25,0,0,1,.25-.25H459.67a.25.25,0,0,1,.25.25v1.7618A.25.25,0,0,1,459.67,294.6016Zm-2.8808-.5H459.42V292.84H444.4336v1.2618h2.6416a1.2251,1.2251,0,0,1,2.3984,0h4.917a1.2251,1.2251,0,0,1,2.3985,0Z"/><path class="cls-8" d="M413.03,302.3008H397.5439a.2988.2988,0,0,1-.2988-.2988v-9.294a.2988.2988,0,0,1,.2988-.2988H413.03a.2988.2988,0,0,1,.2988.2988v9.294A.2988.2988,0,0,1,413.03,302.3008Zm-15.1875-.5977h14.8886v-8.6963H397.8428Z"/><rect class="cls-8" x="400.3369" y="300.1348" width="2.5342" height="0.7734"/><rect class="cls-8" x="407.6719" y="300.1348" width="2.5342" height="0.7734"/><path class="cls-8" d="M401.6348,299.0908a2.5518,2.5518,0,1,1,2.5517-2.5517A2.5544,2.5544,0,0,1,401.6348,299.0908Zm0-4.541a1.9893,1.9893,0,1,0,1.9892,1.9893A1.9918,1.9918,0,0,0,401.6348,294.55Z"/><path class="cls-8" d="M408.94,299.0908a2.5518,2.5518,0,1,1,2.5517-2.5517A2.5544,2.5544,0,0,1,408.94,299.0908Zm0-4.541a1.9893,1.9893,0,1,0,1.9892,1.9893A1.9918,1.9918,0,0,0,408.94,294.55Z"/><rect class="cls-8" x="399.3449" y="296.2373" width="4.5398" height="0.5635" transform="translate(-91.2881 375.6689) rotate(-45.5617)"/><rect class="cls-8" x="406.6583" y="296.2548" width="4.5399" height="0.5626" transform="matrix(0.2743, -0.9617, 0.9617, 0.2743, 11.6091, 608.4552)"/><rect class="cls-9" x="289.8133" y="173.5614" width="178.0686" height="118.7125" rx="1.7404" ry="1.7404"/><path class="cls-8" d="M466.1416,292.7734H291.5537a2.2426,2.2426,0,0,1-2.24-2.24V175.3018a2.2427,2.2427,0,0,1,2.24-2.24H466.1416a2.2426,2.2426,0,0,1,2.24,2.24V290.5332A2.2425,2.2425,0,0,1,466.1416,292.7734ZM291.5537,174.0615a1.242,1.242,0,0,0-1.24,1.24V290.5332a1.2419,1.2419,0,0,0,1.24,1.24H466.1416a1.2419,1.2419,0,0,0,1.24-1.24V175.3018a1.242,1.242,0,0,0-1.24-1.24Z"/><rect class="cls-9" x="292.7811" y="176.5292" width="172.133" height="112.7769" rx="1.7404" ry="1.7404"/><path class="cls-8" d="M463.1738,289.5557H294.5215a1.9922,1.9922,0,0,1-1.99-1.99V178.27a1.9921,1.9921,0,0,1,1.99-1.99H463.1738a1.9922,1.9922,0,0,1,1.99,1.99V287.5654A1.9922,1.9922,0,0,1,463.1738,289.5557ZM294.5215,176.7793a1.4924,1.4924,0,0,0-1.49,1.49V287.5654a1.4925,1.4925,0,0,0,1.49,1.49H463.1738a1.4926,1.4926,0,0,0,1.49-1.49V178.27a1.4925,1.4925,0,0,0-1.49-1.49Z"/><g id="LoRa_front" data-name="LoRa front"><path class="cls-9" d="M420.3264,167.8823V93.6584c0-6.9282-3.7057-31.5969-4.4766-36.2987a10.5607,10.5607,0,0,1-.1388-1.6854L415.62,24.1456V19.39c0-5.3093-1.1979-5.66-2.662-5.66s-2.6621.3509-2.6621,5.66v4.7557l-.0893,31.549a10.5118,10.5118,0,0,1-.13,1.6306c-.7524,4.7195-4.4866,30.37-4.4866,36.3332v74.2239a1.7034,1.7034,0,0,0,1.7035,1.7034h.5584a2.2621,2.2621,0,0,0-2.262,2.2622v23.2512a2.262,2.262,0,0,0,2.262,2.262h10.2127a2.262,2.262,0,0,0,2.262-2.262V171.8479a2.2621,2.2621,0,0,0-2.262-2.2622h.5585A1.7034,1.7034,0,0,0,420.3264,167.8823Z"/><path class="cls-8" d="M420.8262,167.8818V93.6582c0-7.2568-3.9248-32.9746-4.4834-36.38a10.03,10.03,0,0,1-.1319-1.6054L416.12,24.1445V19.39c0-5.1787-1.1113-6.16-3.1621-6.16s-3.1621.9814-3.1621,6.16v4.7549l-.0889,31.5479a10.015,10.015,0,0,1-.125,1.5537C408.82,62.03,405.09,87.6816,405.09,93.6582v74.2236a2.2,2.2,0,0,0,1.0108,1.8483,2.7453,2.7453,0,0,0-1.0108,2.1176V195.1a2.7653,2.7653,0,0,0,2.7618,2.7617h10.2129a2.7653,2.7653,0,0,0,2.7617-2.7617V171.8477a2.7453,2.7453,0,0,0-1.0108-2.1176A2.2,2.2,0,0,0,420.8262,167.8818ZM410.7959,19.39c0-5.16,1.1-5.16,2.1621-5.16s2.1621,0,2.1621,5.16v4.2559h-4.3242Zm9.03,175.71a1.7634,1.7634,0,0,1-1.7617,1.7617H407.8516A1.7634,1.7634,0,0,1,406.09,195.1V171.8477a1.7635,1.7635,0,0,1,1.7618-1.7618h10.2129a1.7635,1.7635,0,0,1,1.7617,1.7618Zm0-27.2178a1.2051,1.2051,0,0,1-1.2032,1.2041h-11.33a1.2051,1.2051,0,0,1-1.2032-1.2041V93.6582c0-5.9189,3.72-31.4834,4.48-36.2539a11.0361,11.0361,0,0,0,.1367-1.709l.0875-31.05h4.3271l.0893,31.03a11.1064,11.1064,0,0,0,.1455,1.7646c.5567,3.3955,4.47,29.0264,4.47,36.2178Z"/></g><rect class="cls-10" x="463.3174" y="309.002" width="0.75" height="4"/><rect class="cls-10" x="463.3174" y="301.6133" width="0.75" height="6.5674"/><polygon class="cls-10" points="465.218 297.29 463.692 295.764 462.167 297.29 462.167 298.585 463.317 297.434 463.317 300.793 464.067 300.793 464.067 297.434 465.218 298.585 465.218 297.29"/><path class="cls-8" d="M443.959,275.6016a6.1985,6.1985,0,0,1,1.0371-.0811,1.7181,1.7181,0,0,1,1.1738.3477,1.1235,1.1235,0,0,1,.3662.8759,1.2342,1.2342,0,0,1-.3222.8946,1.7381,1.7381,0,0,1-1.2793.459,1.8414,1.8414,0,0,1-.4346-.0372v1.6768h-.541Zm.541,2.0175a1.7878,1.7878,0,0,0,.4463.044c.6523,0,1.05-.3164,1.05-.8945,0-.5528-.3906-.8194-.9873-.8194a2.2929,2.2929,0,0,0-.5088.043Z"/><path class="cls-8" d="M449.8105,278.21a1.4692,1.4692,0,0,1-1.497,1.5957,1.4293,1.4293,0,0,1-1.44-1.5469,1.4675,1.4675,0,0,1,1.49-1.5957A1.4235,1.4235,0,0,1,449.8105,278.21Zm-2.3847.03c0,.6582.3789,1.1553.9121,1.1553.5225,0,.9131-.49.9131-1.167,0-.51-.2539-1.1553-.9-1.1553S447.4258,277.6689,447.4258,278.24Z"/><path class="cls-8" d="M450.6748,276.7314l.3975,1.5274c.0869.3359.1679.6465.2236.957h.0186c.0683-.3047.1679-.6269.2666-.95l.4912-1.5342h.459l.4658,1.503c.1123.36.1992.6767.2675.9814h.0186a9.02,9.02,0,0,1,.2295-.9756l.4287-1.5088h.54l-.9687,3.0059h-.4971l-.459-1.4346c-.1054-.3349-.1923-.6338-.2675-.9873h-.0118a8.9985,8.9985,0,0,1-.2734.9932l-.4844,1.4287h-.497l-.9073-3.0059Z"/><path class="cls-8" d="M455.2715,278.334a.9625.9625,0,0,0,1.03,1.043,1.98,1.98,0,0,0,.833-.1553l.0927.3916a2.433,2.433,0,0,1-1,.1865,1.3961,1.3961,0,0,1-1.4775-1.5156,1.4591,1.4591,0,0,1,1.4092-1.6211,1.2735,1.2735,0,0,1,1.2422,1.416,2.12,2.12,0,0,1-.0186.2549Zm1.6025-.3916a.7784.7784,0,0,0-.7578-.8877.9062.9062,0,0,0-.8389.8877Z"/><path class="cls-8" d="M458.0791,277.6689c0-.3535-.0059-.6582-.0244-.9375h.4775l.02.59h.0244a.9023.9023,0,0,1,.832-.6582.5787.5787,0,0,1,.1553.0185v.5157a.8026.8026,0,0,0-.1865-.0186.7665.7665,0,0,0-.7325.7022,1.5027,1.5027,0,0,0-.0244.2539v1.6025h-.541Z"/><path class="cls-8" d="M449.2617,280.7822v1.459h1.4033v.3731h-1.4033v1.4716h-.3974v-1.4716H447.46v-.3731h1.4043v-1.459Z"/><path class="cls-8" d="M457.001,282.2412v.3731h-3.2051v-.3731Z"/><circle class="cls-8" cx="438.9" cy="279.7364" r="1.9208"/><g id="GSM"><path class="cls-9" d="M461.3033,147.9648V42.8279a9.8343,9.8343,0,1,0-19.6531,0V147.9648c.9163,1.6246,1.6754,3.1714,2.4277,4.5534v16.3425a.9827.9827,0,0,0,.9827.9827.9827.9827,0,0,0-.9827.9826v25.1009a.9825.9825,0,0,0,.975.9825l13.0351.1028a.9825.9825,0,0,0,.99-.9825l.0007-25.2037a.9825.9825,0,0,0-.9826-.9826h0a.9827.9827,0,0,0,.9827-.9827V152.4h-.0007C459.7654,151.0916,460.4692,149.6042,461.3033,147.9648Z"/><path class="cls-8" d="M451.3831,145.86c-.5364-8.5859-.6717-17.172-.8424-25.7579-.1226-8.5859.0861-17.172.1872-25.7579l.2808-25.758.3744-25.758a.0936.0936,0,0,1,.1872,0l.3745,25.758.2808,25.758c.1012,8.5859.31,17.172.1872,25.7579-.1707,8.5859-.306,17.172-.8425,25.7579a.0938.0938,0,0,1-.1872,0ZM461.8037,42.8281V147.9648a.4932.4932,0,0,1-.0547.2266c-.3642.7158-.7031,1.4024-1.0273,2.0576-.3982.8064-.7727,1.5615-1.1426,2.2693V168.86a1.4723,1.4723,0,0,1-.3809.9834,1.47,1.47,0,0,1,.3809.9824l-.001,25.2031a1.4838,1.4838,0,0,1-1.4834,1.4834h-.0107l-13.0352-.1035a1.4862,1.4862,0,0,1-1.4707-1.4824V170.8262a1.47,1.47,0,0,1,.3809-.9824,1.4728,1.4728,0,0,1-.3809-.9834V152.6433c-.2879-.532-.5763-1.0825-.876-1.657-.4619-.8867-.9472-1.8174-1.4873-2.7754a.5066.5066,0,0,1-.0644-.2461V42.8281a10.3341,10.3341,0,1,1,20.6533,0ZM458.5791,168.86V154.2869c-1.7511,2.8581-3.6376,4.4026-7.1025,4.4026-3.4973,0-5.39-1.8965-6.8985-4.3074V168.86a.4837.4837,0,0,0,.4824.4834h13.0362A.4837.4837,0,0,0,458.5791,168.86Zm0,1.9658a.4834.4834,0,0,0-.4824-.4824H445.0605a.4834.4834,0,0,0-.4824.4824v25.1006a.484.484,0,0,0,.4785.4824l13.0352.1035a.7976.7976,0,0,0,.3437-.1406.4792.4792,0,0,0,.1426-.3428Zm2.2246-127.9981a9.3348,9.3348,0,1,0-18.6533,0V147.834c.5205.9277.99,1.83,1.4385,2.69.3174.6084.623,1.1953.9287,1.7549,1.91,3.5088,3.5849,5.41,6.959,5.41,3.6,0,5.2353-1.8594,7.1591-5.5215.3848-.7325.7745-1.5215,1.19-2.3614.31-.6259.6328-1.28.9785-1.9619Z"/></g></g><g id="Alimentation_box" data-name="Alimentation box"><path class="cls-6" d="M247.685,164.5742a.2175.2175,0,0,1,.2291.2111c.0285.9739.0423,4.8342-1.3885,7.3275-.3959.69-.8484,1.3508-1.286,1.99-1.1789,1.7228-.5541,3.3532-.69,5.5708a.2168.2168,0,0,1-.2218.2063l-2.022-.0652a.22.22,0,0,1-.212-.23c.16-2.9265-.1485-5.0186,1.1179-6.8695.4294-.6277.8352-1.2209,1.1825-1.8261.9828-1.7124,1.1052-4.72,1.0664-5.9868a.2152.2152,0,0,1,.2057-.2212Z"/><path class="cls-7" d="M250.4061,164.204a.2194.2194,0,0,1,.2485.1827,25.3611,25.3611,0,0,0,1.7386,6.1564c.2261.5684.46,1.1559.6964,1.8241.9246,2.6122-.0759,5.222-.1792,6.7352a.2171.2171,0,0,1-.2323.2016l-2.0166-.1411a.2163.2163,0,0,1-.202-.2305c.0958-1.4011,1.0739-3.5987.3142-5.7459-.22-.6229-.4456-1.1879-.663-1.7346a27.7862,27.7862,0,0,1-1.8826-6.68.22.22,0,0,1,.181-.2521Z"/><path class="cls-3" d="M278.5527,140.7813a.1406.1406,0,0,1-.0732-.0206.1428.1428,0,0,1-.0488-.1953,4.7833,4.7833,0,0,0,0-5.2724,4.9566,4.9566,0,0,1-.002-5.4473.1453.1453,0,0,1,.1963-.0508.1421.1421,0,0,1,.05.1944,4.6761,4.6761,0,0,0-.001,5.1562,5.0635,5.0635,0,0,1,.001,5.5664A.1417.1417,0,0,1,278.5527,140.7813Z"/><path class="cls-3" d="M282.5264,140.7813a.1409.1409,0,0,1-.0733-.0206.1429.1429,0,0,1-.0488-.1953,4.7833,4.7833,0,0,0,0-5.2724,4.9566,4.9566,0,0,1-.002-5.4473.1453.1453,0,0,1,.1963-.0508.142.142,0,0,1,.05.1944,4.6759,4.6759,0,0,0-.0009,5.1562,5.0638,5.0638,0,0,1,.0009,5.5664A.1415.1415,0,0,1,282.5264,140.7813Z"/><path class="cls-8" d="M275.2254,132.64a5.4732,5.4732,0,0,0,.9475,3.1265,3.5738,3.5738,0,0,1,.6575,1.9776,27.6078,27.6078,0,0,0-25.98,26.51l-5.242.0352a32.8878,32.8878,0,0,1,29.6171-31.65m1.1747-1.1592a33.9469,33.9469,0,0,0-31.8552,32.7759,1.0407,1.0407,0,0,0,1.0443,1.0616H250.85a1.0439,1.0439,0,0,0,1.0365-1.0178,26.5937,26.5937,0,0,1,25.9476-25.5318,5.4043,5.4043,0,0,0,.0631-.84,4.6117,4.6117,0,0,0-.8123-2.71,4.4609,4.4609,0,0,1-.7962-2.6519,4.99,4.99,0,0,1,.1111-1.0864Z"/><rect class="cls-9" x="197.4339" y="179.5825" width="61.5861" height="106.6703" rx="1.7404" ry="1.7404"/><path class="cls-8" d="M259.3945,181.3232a2.1183,2.1183,0,0,0-2.1152-2.1162h-58.105a2.118,2.118,0,0,0-2.1152,2.1162V284.5127a2.1177,2.1177,0,0,0,2.1152,2.1152h58.105a2.1182,2.1182,0,0,0,2.1162-2.1152ZM197.8091,264.28h60.8362v8.3886H197.8091Zm0-.5V202.0557h60.8356l.0006,61.7246Zm60.8356-62.2246H197.8091v-8.39h60.8356Zm-59.47-21.5987h58.105a1.3674,1.3674,0,0,1,1.3652,1.3662l0,11.3428H197.8091V181.3232A1.3674,1.3674,0,0,1,199.1743,179.957Zm58.105,105.9209h-58.105a1.3666,1.3666,0,0,1-1.3652-1.3652V273.1689h60.8363v11.3438A1.3674,1.3674,0,0,1,257.2793,285.8779Z"/><path class="cls-8" d="M242.6462,183.196h0a3.4814,3.4814,0,0,1,2.7618,1.38,1.7006,1.7006,0,0,0,1.37.6765,1.9486,1.9486,0,0,0,1.51-.74,3.4423,3.4423,0,0,1,5.3355-.0967,3.41,3.41,0,0,1,.7535,2.82,3.4473,3.4473,0,0,1-2.6266,2.737,3.6288,3.6288,0,0,1-.7488.0794,3.4825,3.4825,0,0,1-2.7626-1.38,1.7,1.7,0,0,0-1.37-.6762,1.9484,1.9484,0,0,0-1.51.7408,3.4415,3.4415,0,0,1-5.3349.0959,3.4107,3.4107,0,0,1-.7531-2.8208,3.4471,3.4471,0,0,1,2.6276-2.7361,3.6173,3.6173,0,0,1,.7475-.079m0-.75a4.362,4.362,0,0,0-.9023.0951,4.1809,4.1809,0,1,0,4.2029,6.6608,1.1938,1.1938,0,0,1,.9228-.4567.9467.9467,0,0,1,.7712.3783,4.2123,4.2123,0,0,0,3.361,1.6783,4.3654,4.3654,0,0,0,.904-.0956,4.1809,4.1809,0,1,0-4.2052-6.66,1.1933,1.1933,0,0,1-.9225.4563.9473.9473,0,0,1-.7716-.3785,4.21,4.21,0,0,0-3.36-1.6778Z"/></g><path class="cls-5" d="M173.3,262.7383a.1429.1429,0,0,1-.0493-.0088.1492.1492,0,0,1-.0913-.19,42.0631,42.0631,0,0,0,3.0337-15.4834c0-6.8438-1.5357-9.418-3.021-11.9073-1.5445-2.5888-3.002-5.0322-3.002-11.7988,0-6.751,1.4517-10.8808,2.9883-15.2529a.1493.1493,0,0,1,.2822.0976c-1.5288,4.3487-2.9726,8.4551-2.9726,15.1553,0,6.6846,1.4375,9.0938,2.9589,11.6445,1.5069,2.5264,3.064,5.1358,3.064,12.0616a42.3232,42.3232,0,0,1-3.05,15.583A.15.15,0,0,1,173.3,262.7383Z"/><path class="cls-5" d="M487.2773,262.7373a.1381.1381,0,0,1-.0488-.0088.1481.1481,0,0,1-.0918-.1894v-.001a42.0751,42.0751,0,0,0,3.0332-15.4824c0-6.8418-1.5351-9.4161-3.0195-11.9053-1.5459-2.5918-3.0039-5.0352-3.0039-11.8008,0-6.75,1.4521-10.8789,2.9883-15.25a.1541.1541,0,0,1,.1914-.0937.1479.1479,0,0,1,.0918.1884c-1.5293,4.3506-2.9727,8.4571-2.9727,15.1553,0,6.6836,1.4365,9.0928,2.959,11.6436,1.5078,2.5283,3.0645,5.1386,3.0645,12.0625a42.3335,42.3335,0,0,1-3.05,15.581A.1517.1517,0,0,1,487.2773,262.7373Z"/><image width="1754" height="1240" transform="translate(331.9581 208.6309) scale(0.0527)" xlink:href="../Materials/wattsense-logo-print-page-001.jpg"/><rect class="cls-3" x="142.894" y="20.4053" width="1.1875" height="320"/><path class="cls-5" d="M92.7773,142.0068a.5.5,0,0,1-.25-.9326l23.5136-13.5752a.5.5,0,1,1,.5.8653L93.0269,141.94A.4932.4932,0,0,1,92.7773,142.0068Z"/><path class="cls-5" d="M108.4976,165.8447a.5.5,0,0,1-.2505-.9326l7.7934-4.5a.5.5,0,1,1,.5.8652l-7.7934,4.5A.493.493,0,0,1,108.4976,165.8447Z"/><path class="cls-8" d="M51.7393,135.771l.4679.2839,4.2661,2.5887.4673.2834.1829.1111a.2516.2516,0,0,0,.253.0039L86.98,122.3037a.2506.2506,0,0,0,.0088-.4307l-3.702-2.2972-.453-.2811-3.7662-2.3372-.453-.281-.1869-.116a.2545.2545,0,0,0-.2568-.0039L48.7661,133.5332a.2505.2505,0,0,0-.0049.4307Zm30.4573-16.2827,1.3112.8138,2.8584,1.7741-1.9769,1.1176-.8815-2.8917-1.4663-.91Zm-.4529-.2811.1162.3836,1.3087,4.2932-1.6973.96-2.183-7.16ZM77.7618,117.37l2.4888,8.1639-1.9044,1.0768L75.7,118.56ZM74.4889,119.26l2.5834,7.8606.0617.1759-1.7364.9818-2.6361-8.021ZM71.55,120.9563l2.5833,7.86.05.1477-1.7774,1.0051L69.78,121.9785Zm-2.9819,1.7216,2.5838,7.86.0338.1212-1.7287.9774-2.6162-7.9615Zm-2.9388,1.6966,2.5831,7.8609.0286.0888-1.7751,1.0037-2.6067-7.9314Zm-2.9816,1.7214,2.5833,7.86.0206.0583-1.7346.9807L60.92,127.0934Zm-2.9391,1.6968,2.5834,7.8606.0112.0281-1.7776,1.0051-2.5868-7.8719Zm-2.9812,1.7213,2.5827,7.86-1.5287.8642-2.5784-7.844Zm-2.7358,1.5795,2.2414,6.8189L53.3282,136.15l-.1583-.4114-1.1521-3.5053Zm-3.1853,1.839.6926,2.1071-2.1171-1.2847Z"/><path class="cls-8" d="M116.57,173.5457a.8111.8111,0,0,0,.0674-.1375.8261.8261,0,0,0-.0854-.6338L114,168.4053a1.8122,1.8122,0,0,1-1.0488-.9229l-7.916-4.5693c-.0152-.0089-.0337-.0055-.0493-.0133.0014-.02.0078-.0382.0078-.058V150.2227a.8231.8231,0,0,0-.4161-.7207c-.015-.0087-.0327-.0054-.048-.0131.0014-.02.0076-.0382.0075-.0582a.8215.8215,0,0,0-.4155-.7188l-10.9277-6.3086c-.0152-.0089-.0337-.0055-.0493-.0133.0014-.02.0078-.0382.0078-.058V122.877a.8231.8231,0,0,0-.4161-.7207c-.015-.0087-.0326-.0054-.0479-.013.0013-.0195.0074-.0376.0074-.0574a.824.824,0,0,0-.4155-.7207L69.5112,108.2207a.8359.8359,0,0,0-.8335,0l.001-.001L34.0679,128.2031a.8212.8212,0,0,0-.4156.72c0,.0168.0054.0323.0064.049-.016.0078-.0332.0113-.0488.02a.82.82,0,0,0-.4141.7178v46.8027a.8073.8073,0,0,0,.4414.7275,2.0442,2.0442,0,0,0,2.0669.1416,2.5463,2.5463,0,0,0,.876-2.0732v-3.0557l.1225-.0693,2.4136,1.4394v33.0909l-.125.0683-4.52-2.8554a.8313.8313,0,0,0-1.2749.7031v40.25a.8369.8369,0,0,0,.4155.7207l22.77,13.1445a.8189.8189,0,0,0,.416.1133.8307.8307,0,0,0,.416-.1123c.0148-.0086.0257-.0212.04-.0305.0146.01.0259.0227.0412.0315a.825.825,0,0,0,.8311,0l34.6118-19.9834a.8353.8353,0,0,0,.4146-.72V231.687l23.2661-13.4331a.8309.8309,0,0,0,.417-.72V174.15A.8185.8185,0,0,0,116.57,173.5457Zm-11.9111-9.9832,7.917,4.57.1875-.3252-.1875.4658-1.9395,1.1225-3.5586-2.2083-.453-.2811-3.7411-2.3215Zm4.3718,6.7627-.85.4805-.8815-2.8918-1.4663-.91.1551.0962,1.3112.8138,2.8459,1.7663ZM75.29,182.6514l-1.8375-1.115,1.2369-.7124Zm2.5858-3.6629,2.1483,6.5357L77.12,183.7615l-.1583-.4114-1.06-3.2242Zm1.2119-.698,1.5249-.8781,2.4886,7.5732-1.5286.8643Zm4.5073-2.596,2.4881,7.5706.0112.0281-1.7775,1.0051-2.4922-7.5841Zm2.94-1.6935,2.4869,7.5669.0207.0583-1.7347.9807-2.5012-7.61Zm2.9827-1.7179,2.4856,7.5641.0286.0888L90.2572,180.94l-2.51-7.6367Zm2.94-1.6934,2.4851,7.56.0338.1212-1.7286.9774L90.73,171.585Zm2.983-1.7181,2.4835,7.5566.05.1477-1.7774,1.0052L93.67,169.8917Zm2.94-1.6934,2.4825,7.5537.0618.1759-1.7364.9818-2.5359-7.716Zm8.5789,4.3176-1.6974.96-2.1829-7.16,2.4553,1.5238.1162.3836Zm-2.9181,1.65-1.9044,1.0767L99.593,166.48l2.0559-1.1841Zm-31.0843,8.6757,2.573,1.5613.4679.2839,4.2661,2.5887.4673.2834.1381.0839-3.1122,1.8011-3.6268-2.1966-4.15-2.5133-.0322-.02.001-.1406.0118-.0068.0048-.002.5589-.3227Zm31.2856-31.5988-.0406,12.6894-2.125,1.2268a.2483.2483,0,0,0-.1159.03L72.5574,181.145a.2542.2542,0,0,0-.0883.0884l-2.8774,1.6611-.1225-.07V170.2051l.0411-.07,34.6108-19.9825Zm-11.4253-7.17,10.9282,6.31v.14L69.0537,169.4844l-10.9282-6.31-.1875.3252.1875-.4648,2.9427-1.695a.2462.2462,0,0,0,.07.0728l2.978,1.8071.4679.2839,4.2662,2.5887.4672.2834.183.1111a.2514.2514,0,0,0,.2529.0039l29.603-16.7383a.25.25,0,0,0,.0088-.4307l-3.702-2.2972-.453-.2811-3.7662-2.3372-.453-.281-.0172-.0106Zm2.7276,8.28-1.6974.96-2.1829-7.16,2.4553,1.5239.1162.3836Zm-1.1272-4.4919.1551.0962,1.3112.8138,2.8584,1.7741-1.9769,1.1176-.8815-2.8917Zm-1.7909,6.1418L90.723,154.06l-2.6458-8.0506,2.0614-1.19ZM65.5468,163.1874l-1.1522-3.5053,1.9738-1.1395,2.2414,6.8189-3.4-2.0633-1.3341-.81-2.117-1.2846,1.4245-.8224.6925,2.107,1.8293,1.11Zm2.033-5.3443,1.5244-.88,2.5828,7.86-1.5287.8642Zm2.7359-1.5794,1.77-1.0219,2.5834,7.8606.0113.0281-1.7776,1.0051Zm2.9812-1.7212,1.7276-.9975,2.5833,7.86.0207.0583-1.7346.9807Zm2.9391-1.6969,1.77-1.022,2.5831,7.8608.0287.0889-1.7752,1.0037Zm2.9816-1.7213,1.7273-.9973,2.5838,7.86.0338.1212-1.7286.9774Zm2.9388-1.6967,1.77-1.0222,2.5832,7.86.05.1477-1.7774,1.0051Zm2.982-1.7217,1.7273-.9973,2.5834,7.8606.0618.1759-1.7364.9818Zm7.2635-24.8289-.0406,19.5253L57.7505,162.3848l-.1221-.07V142.8594l.0405-.07L92.28,122.8066Zm-57.959,5.9755L69.0537,108.87h.0816l22.7695,13.1455.1875-.3252-.1875.4659L57.2124,142.1387,45.6,135.4341l-.0006,0-1.7314-1-9.4253-5.4419-.0005.0007c-.0154-.009-.0323-.0122-.0481-.02Zm22.435,110.2452,0,6.342,0,.0007v12.586c0,.0177.0056.0339.0067.0514l-.1287.0179L33.9458,244.88V204.63l.125-.0684,4.52,2.8555a.8313.8313,0,0,0,1.2754-.7031V173.623a.8328.8328,0,0,0-.4155-.72l-2.3731-1.37a.8324.8324,0,0,0-1.2475.72v3.0645c.0068.2812-.0747,1.1455-.5259,1.43-.2915.1855-.7378.124-1.3584-.2344V129.71l.1221-.0674,22.77,13.1465c.0148.0085.0329.0053.0482.0128-.0014.0194-.0077.0378-.0077.0575v19.4551a.8235.8235,0,0,0,.416.7207c.0151.0087.0318.0119.0472.0195-.0011.0173-.0066.0333-.0066.0508a.8205.8205,0,0,0,.4155.7187v.001l10.9272,6.3086c.0154.009.0326.0122.0484.02-.0011.0173-.0069.0338-.0069.0513v12.6191a.8243.8243,0,0,0,.4161.7207c.01.006.0219.008.0324.0134-.0015.02-.0078.038-.008.0579a.8224.8224,0,0,0,.4008.7188l.033.02,4.1495,2.5134,3.6271,2.197a.3662.3662,0,0,1,.36.42l2.6543,4.2109a.8026.8026,0,0,0,.2129.2009.8242.8242,0,0,0-.0367.2356v43.3838a.819.819,0,0,0,.16.4814l-2.92,1.6856-7.8154-4.7813a.8306.8306,0,0,0-1.2657.709v8.7412l-.122.07-10.4717-6.045a.831.831,0,0,0-1.2476.72Zm12.9014,5.65-.31-.3955v-8.7412l.1241-.0693,7.4671,4.5688-7.4686,4.3121Zm22.5815-6.6337L57.75,258.0967l-.1216-.07v0l-.0005-18.9287h-.375l.4976-.07,10.4717,6.045a.8172.8172,0,0,0,.831.0009c.0152-.0087.0263-.0216.0408-.0312.0145.01.0256.0225.0408.0312a.8267.8267,0,0,0,.832,0l8.0156-4.6279,3.5279-2.0361a.3725.3725,0,0,0,.1054-.093.8415.8415,0,0,0,.1924-.08l10.5893-6.114Zm23.6827-20.5108-34.61,19.9824.1144.1985a.378.378,0,0,0-.0429-.0209l-.1941-.2469V194.1328l.0411-.07,34.61-19.9824v0l.0464-.0267.0763.0973Zm-.169-44.34-.2874.166h0L81.1277,193.3252a.0805.0805,0,0,1-.1087-.0283l-2.665-4.2754a.0834.0834,0,0,1,.0381-.0508l34.8491-20.2158a.0789.0789,0,0,1,.1109.0293l2.5522,4.3691.3237-.1894Z"/><path class="cls-8" d="M68.9692,118.8848a.2519.2519,0,0,0,.25,0l5.9209-3.419a.2505.2505,0,0,0,0-.4336l-5.9209-3.4179a.2484.2484,0,0,0-.25,0l-5.92,3.4179a.2505.2505,0,0,0,0,.4336Zm.375-6.62,5.1709,2.9846-2.46,1.4206-2.7107-1.5651Zm-.25,3.2737,2.46,1.42-2.46,1.42-2.46-1.42Zm-.25-3.2737v2.84l-2.71,1.5652-2.46-1.4207Z"/><path class="cls-8" d="M60.11,123.999a.2519.2519,0,0,0,.25,0l5.92-3.4179a.2505.2505,0,0,0,0-.4336l-5.92-3.418a.2488.2488,0,0,0-.25,0l-5.9209,3.418a.2505.2505,0,0,0,0,.4336Zm.375-6.6194,5.17,2.9847-2.4809,1.4321-2.6895-1.5757Zm-.2508,3.2741,2.4417,1.43-2.4409,1.4091-2.46-1.42Zm-.2492-3.2741v2.84l-2.71,1.565-2.4608-1.42Z"/><polygon class="cls-9" points="13.877 219.948 37.649 206.224 37.649 193.002 13.877 219.948"/><path class="cls-5" d="M13.8779,220.4482a.5.5,0,0,1-.2505-.9326l25.3611-14.6427c0,.238.0033.9421.0033,1.1521L14.1274,220.3809A.4926.4926,0,0,1,13.8779,220.4482Z"/><polygon class="cls-9" points="14.397 186.548 37.862 173 38.168 185.182 14.397 186.548"/><path class="cls-5" d="M14.3975,187.0479a.5.5,0,0,1-.2505-.9327l23.2175-13.41c.2716.1537.7739.441,1.0017.5809L14.647,186.9805A.493.493,0,0,1,14.3975,187.0479Z"/><polygon class="cls-6" points="60.457 99.083 60.435 93.969 59.795 93.971 59.817 99.085 60.457 99.083"/><polygon class="cls-6" points="59.881 113.621 60.521 113.619 60.464 100.698 59.824 100.7 59.881 113.621"/><polygon class="cls-6" points="61.524 118.815 60.547 119.8 60.527 115.233 59.888 115.235 59.908 119.803 58.923 118.826 58.928 119.93 60.234 121.225 61.528 119.919 61.524 118.815"/><rect class="cls-7" x="68.8604" y="88.2637" width="0.6396" height="5.1133"/><rect class="cls-7" x="68.8604" y="95.0498" width="0.6396" height="13.3838"/><polygon class="cls-7" points="69.5 114.674 69.5 110.107 68.86 110.107 68.86 114.674 67.88 113.693 67.88 114.797 69.18 116.098 70.481 114.797 70.481 113.693 69.5 114.674"/><path class="cls-8" d="M87.9022,131.5251a1.2282,1.2282,0,0,1,.9274.3891,2.5019,2.5019,0,0,1,.5088,1.8657,5.7686,5.7686,0,0,1-1.892,3.785,2.8064,2.8064,0,0,1-1.7175.7637,1.2566,1.2566,0,0,1-.8279-.2877.8882.8882,0,0,0-.5759-.2074,1.7552,1.7552,0,0,0-1.4189,1.1742,5.3619,5.3619,0,0,1-2.0531,2.4879,2.3091,2.3091,0,0,1-1.137.3523,1.2283,1.2283,0,0,1-.9276-.3892,2.5034,2.5034,0,0,1-.5087-1.8668,5.7687,5.7687,0,0,1,1.893-3.7846,2.8058,2.8058,0,0,1,1.7162-.7627,1.256,1.256,0,0,1,.8276.2877.8885.8885,0,0,0,.5759.2075,1.7551,1.7551,0,0,0,1.4189-1.174,5.3655,5.3655,0,0,1,2.0538-2.4884,2.31,2.31,0,0,1,1.137-.3523m0-.5a2.7786,2.7786,0,0,0-1.3894.4207,5.8321,5.8321,0,0,0-2.2612,2.7239c-.2136.5-.625.87-.9591.87a.3892.3892,0,0,1-.2557-.0916,1.76,1.76,0,0,0-1.1477-.4036,3.2471,3.2471,0,0,0-2.04.8812,6.2655,6.2655,0,0,0-2.069,4.1384c-.097,1.7506.7508,2.7837,1.9355,2.7837a2.7792,2.7792,0,0,0,1.3894-.4207,5.83,5.83,0,0,0,2.2606-2.7233c.2135-.5007.6249-.87.9591-.87a.39.39,0,0,1,.2557.0915,1.76,1.76,0,0,0,1.148.4037,3.2482,3.2482,0,0,0,2.0408-.8822,6.2656,6.2656,0,0,0,2.068-4.1389c.0965-1.75-.7512-2.7824-1.9355-2.7824Z"/><path class="cls-8" d="M55.5215,96.5586H55.519a.1075.1075,0,0,1-.1044-.1094l.0014-.0986a.1061.1061,0,0,1,.0591-.0938l.002-.0009a.1023.1023,0,0,1,.1054.0058.106.106,0,0,1,.0493.0928l-.0034.1A.107.107,0,0,1,55.5215,96.5586Z"/><path class="cls-8" d="M55.585,96.2607a.1119.1119,0,0,0-.1079-.0048l-.0013.0019h-.0017l-.123.0635h-.0005l-.3794.1963,0,.0005-.5445.2807h0l-.32.166,0,0-.0867.0446h-.0025a.1088.1088,0,0,0-.062.0937l-.0087.2509h0l-.001.0293c-.0034.0908-.0063.1787-.01.2656L53.8917,98.85v0l-.001.03c-.0029.0839-.0063.166-.0088.247l-.0454,1.253c-.082,2.28-.12,3.32.5865,4.8271a5.8022,5.8022,0,0,1,.53,2.0137.1075.1075,0,0,0,.1065.0976l.0028-.0007c.0269.3577.0366.72.0293,1.1021.0149-.398.0316-.7677.0434-1.1268l.0534-.0273c.0046-.0024.0036-.0093.0077-.0124.006-.004.014-.003.0191-.0081l.001-.001a.1041.1041,0,0,0,.0313-.0713l.3886-10.82A.1064.1064,0,0,0,55.585,96.2607Zm-.6314,8.1a5.81,5.81,0,0,0-.2832-.7393c-.1-.2142-.1805-.4172-.2519-.6179-.02-.0573-.0378-.114-.056-.1707q-.0735-.2283-.126-.4551c-.0123-.0527-.0261-.1055-.0367-.1586-.04-.1991-.072-.4-.093-.6095-.0017-.0168-.0021-.0351-.0037-.0519-.0183-.1959-.0287-.4008-.0345-.6153l-.001-.0629c.0069.0311.0188.0623.0262.0933.0335.1405.0744.2829.1195.4242.02.0633.0385.1275.0612.1913.0727.2042.1549.4115.2563.6278a5.6124,5.6124,0,0,1,.2791.73c.0246.0793.0412.1588.0619.238.0431.1643.0821.3289.1105.4944.0158.0923.0283.1853.04.2783.02.1578.036.3171.0463.4788.0062.0952.0126.19.0158.2874.0013.038,0,.078.0012.1164-.019-.0855-.0478-.1709-.0708-.2563C54.9951,104.5089,54.9768,104.4343,54.9536,104.36ZM55.123,97.31c.0107.0438.0168.088.0264.1318.035.1606.0642.3213.086.4831.01.0761.0184.1532.0262.23q.02.2018.0306.4082c.0041.082.0094.1633.0114.2471,0,.0179,0,.0369,0,.055-.02-.0886-.05-.1772-.0736-.2657-.02-.0756-.0392-.1521-.063-.2278a5.9037,5.9037,0,0,0-.282-.7368,6.4436,6.4436,0,0,1-.2749-.691l.3454-.1782A5.6368,5.6368,0,0,1,55.123,97.31Zm-.1163,5.5516a5.8149,5.8149,0,0,0-.275-.7175l-.0076-.02-.01-.0239c-.0943-.2035-.1719-.3977-.24-.589-.021-.0587-.0389-.1168-.0576-.175q-.0723-.2244-.1241-.4472c-.0127-.0544-.0269-.109-.0379-.1638-.04-.1978-.072-.397-.0931-.6052l-.0029-.042c-.019-.1985-.03-.4063-.0356-.6238l-.001-.0588c.0222.0993.0572.1994.0851.2987.0216.0768.0412.1563.0665.2337a6.7471,6.7471,0,0,0,.3113.79,5.6313,5.6313,0,0,1,.2787.73c.0249.08.0418.1606.0628.2409.0427.1636.0816.3274.11.4922.0158.0924.0283.1856.04.2788.02.1581.0361.3176.0465.48.006.0947.0125.19.0157.2864.0013.0378,0,.0779.0012.1162-.0187-.0844-.0472-.1685-.07-.2524C55.0493,103.0137,55.0305,102.937,55.0067,102.8613Zm-.3148-5.1357a5.6322,5.6322,0,0,1,.2788.73c.0248.08.0416.16.0625.24.0429.164.0819.3281.11.4933.0157.0918.0282.1846.04.2774.02.1586.0363.3188.0466.4812.006.0942.0125.1884.0156.2844.0013.0381,0,.0781.0012.1164-.0191-.0859-.0481-.1721-.0714-.258-.02-.073-.0379-.147-.0609-.22a5.8615,5.8615,0,0,0-.2831-.7393,6.3561,6.3561,0,0,1-.3636-.961c-.004-.0139-.01-.0278-.0136-.0418a5.8839,5.8839,0,0,1-.1777-.9606c-.0017-.0163-.0046-.0313-.0062-.0476l.1432-.074A6.6571,6.6571,0,0,0,54.6919,97.7256Zm-.3666.6973c.02.0614.0382.1242.06.1857.0725.2007.1539.4032.2525.6131a5.6322,5.6322,0,0,1,.2788.73c.0248.08.0416.16.0625.24.0429.164.0819.3281.11.4933.0157.0918.0282.1846.04.2773.02.1587.0363.3189.0466.4812.006.0943.0124.1885.0156.2845.0013.0381,0,.0781.0012.1164-.0189-.0849-.0476-.17-.07-.2545-.02-.0746-.0386-.15-.0621-.2247a5.8652,5.8652,0,0,0-.2829-.7385,6.5517,6.5517,0,0,1-.3031-.7714c-.0261-.08-.0443-.16-.0663-.2389-.048-.1736-.09-.3474-.1209-.5233-.016-.09-.03-.1818-.042-.2741-.0235-.1784-.04-.3629-.0512-.5539-.0052-.09-.0125-.1765-.0153-.27-.0009-.0272,0-.06-.0005-.0871.0066.0293.0178.0579.0249.0872C54.2379,98.1384,54.2794,98.2817,54.3253,98.4229Zm.982-1.8382c.0075.0672.0122.14.018.21.0129.1541.0243.3116.0293.4849.0008.0284,0,.0624.0007.0914l-.0028-.01c-.0244-.1089-.0632-.22-.0944-.33-.0347-.1221-.06-.2428-.1048-.3662Zm-.6911,8.5325a6.1905,6.1905,0,0,1-.605-2.7354c.0072.0323.02.065.0278.0972.0342.1412.0759.2845.1223.4273.02.06.0372.121.059.1818.0727.2019.155.4076.2563.6238a5.631,5.631,0,0,1,.2793.73c.0246.08.0412.1593.0621.2388.043.1643.0821.3286.1105.4941.0158.0918.0282.1847.04.2773.02.1585.0363.3184.0466.48.006.0947.0125.19.0157.2862.0012.0379,0,.0781.0012.1163A5.8035,5.8035,0,0,0,54.6162,105.1172Z"/><path class="cls-6" d="M60.0385,76.2719c.1045-.0686.1927-.01.1958.13a29.9077,29.9077,0,0,1-1.1862,9.18c-.3382.9961-.7248,1.9879-1.0987,2.9472a24.207,24.207,0,0,0-2.076,7.6651.4476.4476,0,0,1-.1895.35l-1.7274.9333c-.104.0562-.1868-.0162-.1811-.16a28.9367,28.9367,0,0,1,2.4418-9.383c.3669-.9414.7136-1.8309,1.01-2.7052a25.2389,25.2389,0,0,0,.9111-7.4666.4537.4537,0,0,1,.1757-.3589Z"/><path class="cls-8" d="M63.5059,91.0527l-.0069-.0009a.1065.1065,0,0,1-.1-.1123l.0054-.1a.1077.1077,0,0,1,.0591-.09.1053.1053,0,0,1,.1084.0059.1094.1094,0,0,1,.0483.0966l-.0073.1006A.1075.1075,0,0,1,63.5059,91.0527Z"/><path class="cls-8" d="M63.42,92.5654l-.0068-.0009a.1066.1066,0,0,1-.1-.1124l.0249-.4726c.019-.3613.0366-.7041.061-1.042l.0005-.002.0069-.0986a.1086.1086,0,0,1,.06-.0889l.1226-.0585a.1069.1069,0,0,1,.1513.1171,13.1212,13.1212,0,0,0-.2138,1.6592A.1075.1075,0,0,1,63.42,92.5654Z"/><path class="cls-8" d="M65.0239,90.06c-.0154-.0094-.034.0017-.0523.0013s-.0348-.0118-.0517-.0043l-.0869.0411-.3193.1523-.5449.2588-.379.1807a.088.088,0,0,1-.13.0625.1088.1088,0,0,0-.0591.09l-.6211,10.9355a.1063.1063,0,0,0,.03.0791c.0035.0038.01.0029.0138.0061l.0047.01a.1117.1117,0,0,0,.0538.0167c-.0222.37-.04.7461-.0627,1.1542.0285-.3891.0731-.7754.1342-1.1734l.0613-.03a.1042.1042,0,0,0,.0586-.0781,13.4214,13.4214,0,0,1,.7543-2.6738,14.97,14.97,0,0,0,1.064-5.6191l.0752-1.3233c.0034-.0615.0068-.125.0108-.1885l.0781-1.375c.0024-.0459.0049-.0918.0078-.1377l.0161-.289A.1066.1066,0,0,0,65.0239,90.06Zm-.5523,4.8886c-.0159.0843-.0337.17-.0518.2548q-.0457.2154-.1027.438c-.0224.0878-.0446.1755-.07.2657-.0453.1626-.0979.3332-.1535.5069-.0262.082-.0492.16-.078.2456-.089.2637-.1875.5393-.3035.8408-.1421.37-.2555.7083-.3569,1.0344-.0278.0894-.0536.1775-.0787.2642s-.055.176-.0772.2589c.0348-.2524.0785-.5092.1332-.7741.015-.073.0342-.1494.0511-.2238q.0761-.3366.1807-.6988c.0255-.0888.05-.177.0788-.2685.1006-.3242.2135-.6607.3551-1.0288.1187-.3085.22-.5916.3108-.8611.0276-.082.05-.1577.0748-.2371.0577-.18.1133-.3591.16-.5276.0064-.0229.0155-.049.0217-.0717-.0061.0442-.0131.0883-.02.1323C64.5242,94.6484,64.5,94.7983,64.4716,94.9482Zm-.8137-2.6261q.06-.3045.1443-.6294c.0176-.0683.0351-.1367.0544-.2069.07-.2551.15-.52.2465-.8039l.2751-.1309-.0286.0855c-.0867.2571-.1809.5224-.2934.8147-.1423.37-.2555.7077-.3569,1.0339-.0282.09-.0543.18-.08.2673-.0236.0815-.0522.168-.0736.2474.025-.1814.05-.3626.0851-.55C63.6389,92.4082,63.65,92.3643,63.6579,92.3221Zm.8148-1.3812c.0266-.0752.0487-.1448.0734-.2175.0342-.1006.0705-.2036.1014-.3l.0853-.04q-.0223.12-.0474.24c-.0191.0915-.0372.1829-.0589.2752-.0288.1225-.0628.248-.0965.3734-.024.0891-.0458.1769-.0725.2681-.0413.1408-.09.2887-.138.4364-.0268.0817-.05.16-.0788.2441-.081.2358-.17.4808-.2705.7422-.1423.37-.2557.7086-.3572,1.0349-.0276.0886-.0532.1763-.0782.2622s-.0553.177-.0776.26c.0346-.2515.0781-.5074.1325-.7713.0152-.074.0348-.1513.0518-.2268q.0759-.3348.18-.6953c.0259-.09.051-.179.08-.2715.1007-.324.2134-.66.355-1.0281C64.335,91.3223,64.4066,91.1279,64.4727,90.9409Zm.0883,2.4754c-.0169.091-.0358.1828-.0553.2747-.03.1388-.063.28-.0993.4235-.0231.0916-.0462.1831-.0724.2775-.0441.1585-.0957.325-.15.4941-.0277.0869-.052.17-.0825.26-.0891.2639-.1876.5394-.3036.8408-.1417.3689-.2548.7064-.3561,1.0317-.0282.0906-.0543.18-.08.2677-.0249.0857-.0553.1769-.0776.26.0344-.25.078-.5054.132-.7681.0163-.0788.037-.1614.0553-.2417q.0743-.3267.1752-.6772c.027-.0942.0534-.1877.0837-.2849.1-.3226.2124-.6569.3534-1.0232.1121-.2918.2066-.5583.2938-.8152.0237-.07.0464-.14.0685-.2075q.0992-.3053.1782-.5884c.0079-.0282.0191-.06.0267-.088-.0069.05-.0146.1-.0221.1505C64.6091,93.1411,64.5867,93.2788,64.561,93.4163Zm.1783-2.0838-.0113.0774c-.025.1751-.054.349-.087.5237-.01.0535-.02.1067-.0306.16-.0435.213-.0931.4287-.1528.6529-.0092.0348-.021.0721-.0307.1073q-.0807.2925-.1842.61c-.0221.0681-.0444.1364-.0683.2068-.0861.2539-.1792.5164-.29.8049-.1417.3689-.2548.706-.3562,1.0315-.0287.0924-.0554.1835-.0813.2729-.0244.0845-.0544.1743-.0764.2566.0344-.2507.0781-.506.1322-.769.0164-.08.0375-.1636.0561-.2454q.0739-.3252.1745-.6745c.0271-.0943.0535-.188.0839-.2857.1-.3225.2124-.6566.3533-1.0229.1147-.2986.2141-.5762.304-.8428.0307-.0906.0554-.1765.0835-.2643.0548-.172.1081-.344.1536-.5078C64.72,91.3945,64.7313,91.3621,64.7393,91.3325Zm-1.0088-.4731.103-.0489q-.1222.378-.2129.7208C63.6514,91.3,63.6875,91.0791,63.7305,90.8594Zm.7549,5.0029a13.2265,13.2265,0,0,1-.8584,3.1494,15.6652,15.6652,0,0,0-.5122,1.5525c.0346-.2505.0778-.5051.132-.7682.0149-.0724.0341-.1485.0508-.2224q.076-.3363.1807-.6986c.0257-.0892.0507-.178.0793-.27.1006-.3242.2135-.66.355-1.0288.1177-.3059.2184-.5871.3087-.8546.0311-.0921.0557-.1772.0839-.2657.0541-.17.1071-.34.1515-.4991C64.4651,95.9265,64.4772,95.8923,64.4854,95.8623Z"/><path class="cls-7" d="M62.3632,74.4853c.101-.0806.1958-.0395.2123.0877a25.7793,25.7793,0,0,0,1.4853,6.2635c.1932.5455.393,1.1093.5949,1.7654a22.868,22.868,0,0,1,.59,7.4567.44.44,0,0,1-.1984.3493l-1.7228.8427c-.1024.05-.18-.0232-.1726-.1661a19.6489,19.6489,0,0,0-.4749-6.3781c-.1884-.6116-.3808-1.1537-.5665-1.6784a28.2564,28.2564,0,0,1-1.6083-6.7986.47.47,0,0,1,.1546-.3824Z"/><path class="cls-11" d="M76.9888,51.8516a.1546.1546,0,0,1-.0547-.01.1643.1643,0,0,1-.1006-.21,9.49,9.49,0,0,0,.6846-3.4892,4.3187,4.3187,0,0,0-.6709-2.6485,4.4723,4.4723,0,0,1-.7036-2.76,9.4516,9.4516,0,0,1,.6884-3.52.168.168,0,0,1,.211-.1026.1642.1642,0,0,1,.1015.209,9.1757,9.1757,0,0,0-.6709,3.4141,4.1885,4.1885,0,0,0,.6553,2.5879,4.6031,4.6031,0,0,1,.7192,2.82,9.749,9.749,0,0,1-.7041,3.5986A.165.165,0,0,1,76.9888,51.8516Z"/><path class="cls-5" d="M120.6372,165.47a.1228.1228,0,0,1-.0415-.0068.126.126,0,0,1-.0767-.1592,35.2612,35.2612,0,0,0,2.5435-12.98c0-5.7373-1.2876-7.8945-2.5327-9.9814-1.294-2.1689-2.5166-4.2168-2.5166-9.8906a34.3261,34.3261,0,0,1,2.5058-12.7871.125.125,0,0,1,.16-.0762.1238.1238,0,0,1,.0762.1582,34.1235,34.1235,0,0,0-2.4917,12.7051c0,5.6045,1.2051,7.624,2.4814,9.7617,1.2622,2.1162,2.5679,4.3047,2.5679,10.11a35.4629,35.4629,0,0,1-2.5576,13.0625A.1244.1244,0,0,1,120.6372,165.47Z"/><path class="cls-8" d="M73.9218,44.0491a3.5815,3.5815,0,0,0,.7563,2.2129,3.0208,3.0208,0,0,1,.7415,2.2718C66.8242,52.7446,62.8728,60.5808,62.6284,73.84a1.2227,1.2227,0,0,1-.39.8511L58.357,76.958C58.44,57.4921,63.2687,50.59,73.9218,44.0491M75.15,42.153C62.078,49.7357,57.3559,57.1766,57.3559,77.4711c0,.5112.2207.8166.54.8166a.7061.7061,0,0,0,.3521-.108l4.4946-2.6249a2.16,2.16,0,0,0,.8855-1.6962C63.88,60.22,68.1016,53.0117,76.3751,49.1865a4.2822,4.2822,0,0,0-.99-3.6316A4.2029,4.2029,0,0,1,75.15,42.153Z"/></g></g></g></svg>