<svg xmlns="http://www.w3.org/2000/svg" width="180.3347mm" height="80.3348mm" viewBox="0 0 511.1851 227.7207"><defs><style>.cls-1{fill:#d1d3d4;}.cls-2{fill:#808285;}.cls-3{fill:#fff;}.cls-4{fill:#973e54;}.cls-5{fill:#414042;}.cls-6{fill:#3d723a;}.cls-7{fill:#00aeef;}.cls-8{fill:#27aae1;}</style></defs><title>2.1 cable et connecteur</title><g id="Слой_2" data-name="Слой 2"><g id="_2._Alimentation_electrique" data-name="2. Alimentation electrique"><g id="_2.1_Exp" data-name="2.1 Exp"><path class="cls-1" d="M505.0415,227.7207H6.1436A6.1512,6.1512,0,0,1,0,221.5762V6.1436A6.15,6.15,0,0,1,6.1436,0H505.0415a6.15,6.15,0,0,1,6.1436,6.1436V221.5762A6.1512,6.1512,0,0,1,505.0415,227.7207ZM6.1436.9492A5.2,5.2,0,0,0,.9492,6.1436V221.5762a5.201,5.201,0,0,0,5.1944,5.1953H505.0415a5.2009,5.2009,0,0,0,5.1943-5.1953V6.1436A5.2,5.2,0,0,0,505.0415.9492Z"/><path class="cls-2" d="M22.3984,205.4443a.4447.4447,0,0,1-.2309-.0644.45.45,0,0,1-.1543-.6172,14.7615,14.7615,0,0,0,.001-16.2891,16.008,16.008,0,0,1-.0015-17.5859.45.45,0,1,1,.7715.4629,15.1126,15.1126,0,0,0-.0015,16.6562,15.6567,15.6567,0,0,1,.002,17.2188A.45.45,0,0,1,22.3984,205.4443Z"/><path class="cls-2" d="M117.322,75.4077a5.54,5.54,0,0,0-.4443-2.5229,9.35,9.35,0,0,0-.01-2.3848l-.6075.0742a9.3353,9.3353,0,0,1-.3813,4.0381c-.0962.3643-.1953.7383-.2847,1.1455-.041.1872-.0873.3614-.13.5433-.074-.488-.146-.977-.2255-1.4619.0272-.11.0536-.22.0813-.3294a11.0462,11.0462,0,0,0,.4956-3.7217l-.6094.0566a7.9853,7.9853,0,0,1-.228,2.4528c-.0647-.3766-.128-.7566-.1929-1.13l-.3905.0671q.0879-.4647.1767-.9265l-.6006-.1152a37.26,37.26,0,0,0-.97,8.75c.0166.3472.0635.6924.097,1.0389a17.5674,17.5674,0,0,0-.27,3.805,20.7513,20.7513,0,0,1-.361-2.5451,42.086,42.086,0,0,1,.8784-10.0146l-.6035-.1016a42.5827,42.5827,0,0,0-.8853,10.1611,21.3812,21.3812,0,0,0,.7971,4.3686q-.0441.5713-.0552,1.1431a36.4393,36.4393,0,0,1-.382-16.1738l-.6-.123a36.8759,36.8759,0,0,0-.7334,7.3407l-.0811-.0155a34.195,34.195,0,0,0-.0029,11.23l.6064-.0821a39.6875,39.6875,0,0,1-.387-7.9245,36.8735,36.8735,0,0,0,1.3743,7.3679l.2358-.07a18.9919,18.9919,0,0,0,.2,1.9176l.6035-.0976c-.043-.2651-.0692-.5335-.1-.801l.5185.01c.0016-.0854.0136-.1694.016-.2547.0985.27.1891.5442.3014.8084l.5625-.24a16.1992,16.1992,0,0,1-.7565-2.2715c.025-.2656.0567-.53.09-.794l.2516,1.5928.0869-.0137a4.8712,4.8712,0,0,0,.5308,1.31l.52-.3223c-.0539-.0869-.0865-.19-.134-.2825l.3293.06a33.7917,33.7917,0,0,0,.4744-7.0743c.0363-.082.0719-.1654.1081-.247.1975-.4456.3924-.9.579-1.3588a36.9654,36.9654,0,0,1-.5477,7.91l.6015.1093a37.5689,37.5689,0,0,0,.5-9.4306l-.0482.0035a10.0685,10.0685,0,0,0,.2855-1.1686A6.0472,6.0472,0,0,0,117.322,75.4077Zm-1.13.481c.0869-.3975.1841-.7637.2783-1.1192.0557-.21.11-.42.1616-.63a9.3071,9.3071,0,0,1-.2661,3.6966c-.1457.4736-.3256.9421-.5126,1.4063q-.0761-.686-.1671-1.3692C115.8688,77.2374,116.04,76.5854,116.1924,75.8887Zm-2.1,7.9922c-.0512-.3247-.0968-.6575-.1464-.9867a18.4529,18.4529,0,0,1,.7079-2.0524c.2146-.5131.4063-1.033.5885-1.5593.0435.3907.08.7808.1149,1.1718-.094.2266-.1893.4528-.2791.68a26.6006,26.6006,0,0,0-.9494,2.9765Zm-.0029-3.2754c-.12.2872-.2238.5821-.33.8758-.019-.1619-.0294-.3236-.0455-.4856a16.028,16.028,0,0,1,.3748-1.5816c.3076-1.0349.5331-1.9682.7747-2.9963.0708.4684.1375.9363.2006,1.4066A26.0155,26.0155,0,0,1,114.0894,80.6055Zm.1923-7.7568c.1126.6518.2256,1.3046.3342,1.9634-.0226.0923-.0463.1844-.068.2768l-.1846.7851c-.2514,1.0737-.4758,2.02-.7691,3.0443A34.5739,34.5739,0,0,1,114.2817,72.8487Zm-1.079,15.452c.0493.13.0905.2626.1423.3918-.032.3925-.06.7856-.0743,1.1805C113.2239,89.3513,113.2058,88.8264,113.2027,88.3007Zm.3975-1.6821c-.0715-.4886-.1234-.98-.1526-1.4735.0367-.23.0715-.46.1164-.6881l.1875,1.187C113.6871,85.9663,113.6526,86.2941,113.6,86.6186Zm1.8635-4.7235c.01.1792.0318.3584.04.5375.0051.114.0024.2243.0064.3377a17.5125,17.5125,0,0,0-1.1033,3.099l-.0317-.2008A25.8989,25.8989,0,0,1,115.4637,81.8951Zm-.3562,7.5646a5.8069,5.8069,0,0,1-.2066-3.0222,11.4553,11.4553,0,0,1,.6376-2.1487A32.3771,32.3771,0,0,1,115.1075,89.46Zm.9429-7.9257c-.0213-.3271-.0442-.654-.0724-.9807.0345-.0823.067-.1655.1016-.2476.3091-.7393.6294-1.5039.8716-2.29.0449-.146.0909-.3345.1357-.5425a6.3784,6.3784,0,0,1-.0879,1.1324A13.3575,13.3575,0,0,1,116.05,81.534Z"/><path class="cls-2" d="M126.1752,78.7379c.0009-.0243.0067-.0465.0074-.0709l-.01,0q-.0387-1.2829-.0967-2.5637a16.1113,16.1113,0,0,0-.0753-1.6889l-.0086.0007c-.0677-1.2211-.14-2.4415-.2346-3.656l-.6094.0469c.0345.4441.0549.8917.0858,1.3368L125.15,72.13c-.1791,1.19-.2606,1.6448-.3534,2.066-.0861-.4017-.1756-.8029-.2909-1.1983a7.8234,7.8234,0,0,0,.1536-2.21l-.6094.0566a5.7908,5.7908,0,0,1,.0124.8728c-.0223-.0569-.0367-.1159-.06-.1726l-.5664.2305c.1687.4148.3089.8385.4373,1.2654-.0894.4416-.193.8817-.302,1.3156-.0615.2442-.1226.4883-.18.7325l-.1846.7851c-.1662.71-.3212,1.3632-.49,2.02-.0429-.5574-.09-1.1157-.138-1.6695.1472-1.302.39-2.5842.6782-4.0858l-.6-.1153c-.1023.5332-.1967,1.0332-.2861,1.5222-.0488-.8009-.0794-1.59-.0694-2.34l-.6113-.0078c-.0043.3092.0029.628.01.9468l-.1134-.0191c-.154.9113-.3076,1.8318-.4468,2.7581l.0049-4.346h-.6113l-.0032,2.81c-.1583-.5836-.3188-1.1666-.4934-1.7461l-.5859.1758q.3388,1.125.6349,2.2609l-.1222-.0227a44.6152,44.6152,0,0,0-.2525,14.9288l.6045-.0918a44.0508,44.0508,0,0,1-.4444-8.72,63.8136,63.8136,0,0,0,.6236,9.4665l.6055-.086a63.2278,63.2278,0,0,1-.5744-11.13h.2023a26.3033,26.3033,0,0,0-.0273,3.9043,21.373,21.373,0,0,0,.7975,4.3689,19.4484,19.4484,0,0,0,.1751,4.61l.6036-.0976c-.0431-.2651-.0693-.5335-.1006-.801l.5185.01c.0016-.0854.0136-.1694.0161-.2547.0985.27.189.5442.3013.8084l.5625-.24a16.1992,16.1992,0,0,1-.7565-2.2715c.025-.2656.0567-.53.09-.794l.2516,1.5928.0868-.0137a4.8745,4.8745,0,0,0,.5308,1.31l.4709-.2918-.0124.2576.6114.0293.3315-6.9414c.02-.4272.04-.8627.059-1.3011.1357-.3146.2608-.6324.3783-.9519.0348,2.3919.0323,4.7836-.0349,7.1632l.6113.0175C126.2842,85.2538,126.272,81.9932,126.1752,78.7379Zm-.8891-3.942c.0343-.1449.0639-.2709.0923-.3967q.0487.8757.0874,1.752a6.3719,6.3719,0,0,1-.2162,1.5055c-.0357-.6369-.0984-1.2729-.1826-1.907C125.16,75.33,125.23,75.0339,125.2861,74.7959Zm-2.35,9.085c-.0511-.3247-.0968-.6575-.1464-.9867a18.4534,18.4534,0,0,1,.708-2.0524,26.8919,26.8919,0,0,0,1.13-3.3115c.0358.5794.0546,1.1586.06,1.7361-.1091.27-.2187.54-.3294.8049-.1479.3535-.2959.707-.436,1.0635a26.58,26.58,0,0,0-.9494,2.9765Zm-.0034-4.4668c.3482-1.1709.59-2.2041.87-3.4014l.1836-.7832c.0572-.2412.1182-.4824.1787-.7236.0132-.0524.0255-.1059.0387-.1584.0974.4582.1765.92.24,1.3849l-.0056.0254a27.6074,27.6074,0,0,1-1.5054,4.8477c-.0279.0667-.0494.1362-.0765.2033-.0018-.3173-.017-.6446-.0294-.97C122.8647,79.698,122.8912,79.5537,122.9326,79.4141Zm-1.1109-4.9457c.044.584.092,1.1684.1424,1.7475a23.0023,23.0023,0,0,0-.1392,2.948q-.1726-.9807-.3748-1.9559C121.5493,76.2906,121.68,75.3768,121.8217,74.4684Zm-.547,5.1011c.1723,1.0065.3286,2.0155.4534,3.0291a17.7506,17.7506,0,0,0-.0556,2.1895,20.77,20.77,0,0,1-.3615-2.5469A23.9826,23.9826,0,0,1,121.2747,79.57Zm.7717,8.7312c.047.1237.0862.25.1355.3729.0008.0274.0022.0547.0029.0821-.0293.3717-.0566.7436-.07,1.1173C122.0676,89.3514,122.05,88.8264,122.0464,88.3007Zm2.4448-6.9413c.0576-.1464.1195-.2912.1791-.4369-.01.4043-.0225.8077-.0389,1.2052-.0392.09-.0753.1806-.1153.2707a19.4517,19.4517,0,0,0-1.2659,3.4709l-.0316-.2008A25.9141,25.9141,0,0,1,124.4912,81.3594Zm-.7466,5.0781a12.49,12.49,0,0,1,.807-2.5692l-.2976,6.2306A5.4026,5.4026,0,0,1,123.7446,86.4375Zm1.549-6.1146q.0072-.4658.0046-.935c.0936-.2344.1765-.4723.2627-.7109l.0019.0513A6.9521,6.9521,0,0,1,125.2936,80.3229Z"/><rect class="cls-3" x="110.1602" y="86.8418" width="7.3335" height="7.2598"/><path class="cls-4" d="M116.5235,87.8128v5.3184H111.13V87.8128h5.3932m1.2831-1.94h-7.9594a.6572.6572,0,0,0-.6572.6572v7.8846a.6572.6572,0,0,0,.6572.6572h7.9594a.6572.6572,0,0,0,.6572-.6572V86.53a.6572.6572,0,0,0-.6572-.6572Z"/><rect class="cls-3" x="119.4341" y="86.8418" width="7.333" height="7.2598"/><path class="cls-5" d="M125.7972,87.8128v5.3184h-5.3931V87.8128h5.3931m1.2831-1.94H119.121a.6572.6572,0,0,0-.6572.6572v7.8846a.6572.6572,0,0,0,.6572.6572H127.08a.6572.6572,0,0,0,.6572-.6572V86.53a.6572.6572,0,0,0-.6572-.6572Z"/><path class="cls-2" d="M126.5316,95.1561a1.311,1.311,0,0,1,.9482.403,1.2235,1.2235,0,0,1,.3519.8888,104.7244,104.7244,0,0,1-29.7768,69.9739A104.8143,104.8143,0,0,1,31.512,197.88q.0384-.6162.0384-1.2626a15.96,15.96,0,0,0-2.8007-9.4069,12.5713,12.5713,0,0,1-2.28-7.5317c0-.241.0049-.4772.0149-.71a85.99,85.99,0,0,0,82.1518-82.5217,1.3054,1.3054,0,0,1,1.2759-1.2912h16.62m0-2h-16.62a3.2979,3.2979,0,0,0-3.2745,3.2155A84.01,84.01,0,0,1,24.6684,177.027a17.0593,17.0593,0,0,0-.1992,2.652,14.57,14.57,0,0,0,2.566,8.5615,14.0919,14.0919,0,0,1,2.5152,8.3771,15.7573,15.7573,0,0,1-.3511,3.432A107.239,107.239,0,0,0,129.8307,96.51a3.2876,3.2876,0,0,0-3.2991-3.3536Z"/><path class="cls-2" d="M302.3208,64.0566h-.0068a.2605.2605,0,0,1-.19-.082.2572.2572,0,0,1-.07-.1943l.0127-.2334a.2558.2558,0,0,1,.27-.2481.2622.2622,0,0,1,.251.2676l-.0059.2363A.2611.2611,0,0,1,302.3208,64.0566Z"/><path class="cls-2" d="M303.6006,37.7471l-.0086.0009-.0046-.0019h-.0029l-.01.0038a.2389.2389,0,0,0-.1633.0646l-.0006.0012a.2573.2573,0,0,0-.0863.1784l-1.21,24.3355-.0032.0649-.069,1.3877a.27.27,0,0,0,.25.2735l.0215.0009.0016-.0006.3988.02.0127.0009.0006,0,1.2386.0619.0127.0009.0012,0,1.7879.0882.0127.001.0012,0,1.0416.052h.003l.0108.0009.0006,0,.2738.0139.0137.001.0041-.0016.0037.0016.0127.001a.2605.2605,0,0,0,.26-.2471l.0351-.6836c.013-.2624.0253-.5138.0374-.7638l.1384-2.7928.0053-.1072.1724-3.4592c.2637-5.2764.3955-7.9239-1.9287-12.5821a16.5928,16.5928,0,0,1-1.7539-5.67.26.26,0,0,0-.2451-.23l-.0327-.0017m1.5649,6.1346a16.5323,16.5323,0,0,1,2.0157,8.0908c-.0031-.0149-.0079-.03-.011-.0452-.0666-.321-.1466-.645-.237-.9723-.02-.0716-.0417-.1446-.0627-.2167-.0913-.3136-.1923-.6312-.3082-.9564-.01-.0279-.0182-.0552-.0283-.0832-.1258-.3474-.2707-.7064-.4274-1.0733-.0354-.0829-.0726-.1676-.11-.2517-.1653-.3746-.3411-.7566-.5413-1.1581-.196-.3927-.37-.7733-.5291-1.1461-.0519-.1214-.0937-.2379-.1418-.3574-.1-.2473-.1976-.4937-.2823-.7338-.0495-.14-.091-.2772-.1357-.4155-.0689-.2132-.1365-.4259-.1945-.6346-.04-.1432-.0745-.2844-.1095-.4258-.0493-.199-.096-.3972-.1364-.5932q-.0436-.213-.0807-.4242-.051-.2889-.0905-.5752c-.0192-.139-.0379-.2778-.0533-.4162-.0214-.192-.0382-.3836-.0529-.575-.01-.1352-.022-.27-.0294-.4055-.0108-.1975-.0165-.3955-.0214-.5937-.0033-.1286-.0086-.257-.01-.3862,0-.0233.0008-.0472.0006-.0706A17.9427,17.9427,0,0,0,305.3989,43.8936Zm1.3945,18.4014q-.1211-.5234-.282-1.0528c-.0444-.1447-.0945-.2935-.1438-.44-.1086-.3223-.231-.6522-.3645-.9855-.0566-.1413-.1107-.283-.172-.427-.201-.472-.42-.9551-.6744-1.4653-.1959-.3926-.37-.7731-.529-1.1459-.052-.122-.094-.2389-.1423-.359-.1-.247-.1976-.4934-.2822-.7333-.0494-.14-.0908-.2769-.1355-.415-.0689-.2131-.1363-.4257-.1943-.6343-.04-.1439-.0749-.2857-.11-.4277-.0491-.1981-.0956-.3954-.1358-.5906-.0295-.1433-.0562-.2859-.0813-.4279q-.05-.2862-.09-.57c-.0195-.1411-.0385-.2822-.0541-.4226-.0211-.1893-.0376-.3783-.0522-.5671-.0106-.1375-.0223-.2751-.03-.4126-.0106-.1954-.0163-.3912-.0212-.5871-.0033-.13-.0088-.2606-.01-.3916,0-.0237.0007-.0477.0006-.0713.0327.1587.0781.3218.1165.4825.0377.1573.0707.3132.1142.4727.0594.2182.1329.4425.2038.6654.0466.1465.0866.29.1385.4391.0878.2522.1931.5127.297.7725.0509.1274.0931.2506.148.38.167.3933.3518.7958.5585,1.21.213.4266.4008.8318.5732,1.2258.0564.1289.103.2511.1554.3772.1081.26.2126.5177.3042.7672.0528.1435.0989.2835.1465.4241.0759.2245.1475.447.2111.6657q.0623.2139.1167.4252c.0556.2142.1051.4271.15.6389.029.1365.0586.2733.0834.4094.0405.2229.0733.4462.1036.67.0166.1224.0364.2442.05.3674.0319.2859.055.5757.0731.869.0038.0613.011.1206.0143.1823.0174.3307.0247.6711.0282,1.0182-.0038-.0181-.01-.0362-.0133-.0543C306.8433,62.4839,306.8151,62.3887,306.7934,62.295Zm-.829,1.4208c-.0791-.208-.1744-.4259-.264-.64-.0556-.1332-.1042-.2623-.1641-.3984-.1681-.3814-.3522-.7746-.5573-1.187-.1959-.3924-.37-.7727-.5288-1.1454-.0526-.1234-.0952-.2417-.144-.3632-.0988-.2453-.1962-.49-.28-.7284-.05-.1421-.092-.28-.1371-.42-.0682-.2111-.1351-.4218-.1927-.6284-.0405-.1458-.0758-.29-.1114-.4335-.0484-.1959-.0945-.391-.1342-.584-.03-.1454-.0571-.29-.0825-.4341q-.05-.2827-.0886-.563c-.02-.143-.039-.286-.0548-.4284-.0208-.1875-.0372-.3744-.0516-.5612-.0108-.1392-.0227-.2784-.03-.4176-.0105-.194-.0162-.3886-.0211-.5832-.0034-.1314-.0088-.2625-.01-.3944,0-.0237.0007-.0478.0006-.0715.0312.1512.0747.3065.1111.4594.04.1673.0753.3334.1216.5031.0549.2014.1236.4086.1882.614.0514.163.0964.3234.1543.4894.0816.2337.18.4758.2755.7161.0576.1452.1063.2862.1691.434.1667.3923.3512.7938.5576,1.2076.2677.5365.5013,1.0453.7084,1.5383.067.16.1152.31.1763.466.1279.3271.2566.6544.36.9709.06.1828.1015.3617.1532.5424.0808.282.1641.5646.2269.8449.0443.1979.0737.398.11.5966.0377.2084.075.4174.104.6282Zm-1.8035-.0887c-.106-.2594-.2057-.5152-.2952-.7653-.0111-.0309-.025-.0633-.0358-.0941-.1072-.305-.2007-.6027-.2855-.8964-.0284-.0986-.0511-.1947-.0771-.2921-.0521-.195-.1026-.3893-.1458-.58-.0256-.1137-.0473-.2259-.07-.3385-.0347-.1725-.0675-.3444-.0957-.5148q-.0286-.1737-.0528-.3462-.0354-.2505-.0624-.4993c-.0123-.1134-.0247-.2268-.0347-.34-.015-.1708-.0262-.3415-.0361-.5122-.0061-.1054-.0139-.2108-.0182-.3163-.0085-.2042-.0125-.4094-.015-.615-.0009-.07-.0039-.14-.0041-.2112l0-.0153c.0317.154.0761.3124.1131.4681.04.1673.0754.3334.1217.5031.0549.2014.1235.4087.1882.614.0514.163.0964.3235.1543.4894.0816.2337.18.4759.2755.7162.0576.1452.1063.2861.1691.4339.1667.3923.3512.7938.5576,1.2077.1956.3924.3691.7653.53,1.1287.0475.1075.0884.21.1331.3156.075.1764.1434.3486.211.52Zm-.2835-19.6283c.055.2014.1236.4087.1883.614.0514.163.0963.3235.1543.4894.0815.2337.18.4759.2754.7162.0576.1452.1063.2861.1692.4339.1666.3923.3511.7938.5576,1.2077.1753.3514.3314.6864.4792,1.015.0423.094.0821.1862.1222.2787q.1644.3784.3054.7406c.03.0767.0622.1549.0907.2307q.17.4534.307.8886c.02.0647.037.128.0562.1922q.1041.3474.1888.6881c.0218.0874.0432.1748.0631.2618q.0843.3677.1488.7331c.0071.04.0163.0809.0231.1213.0464.2783.0828.5576.1138.8391.01.0891.0177.1792.0262.2689q.03.3138.0484.6345c.0055.0921.0118.1834.016.2766.0128.2829.0213.57.0243.8659,0,.0149,0,.0306,0,.0455-.0032-.0155-.0082-.0314-.0115-.0469-.0656-.3152-.1442-.6335-.2328-.9548-.0216-.078-.0454-.1575-.0683-.236-.0888-.3036-.1869-.6113-.2986-.9258-.0129-.0363-.0236-.0716-.0368-.1079-.1243-.3432-.2675-.6975-.422-1.0595-.0376-.0879-.0769-.1777-.1163-.267-.1643-.3719-.339-.7513-.5378-1.15-.1958-.3925-.37-.7728-.5288-1.1455-.0526-.1234-.0951-.2417-.144-.3631-.0988-.2454-.1962-.49-.28-.7285-.05-.142-.0921-.28-.1372-.42-.0682-.2111-.1351-.4218-.1927-.6285-.0405-.1457-.0758-.29-.1114-.4335-.0484-.1959-.0944-.391-.1342-.584-.03-.1453-.0571-.29-.0825-.434q-.05-.2829-.0886-.5631c-.02-.143-.039-.286-.0548-.4284-.0208-.1874-.0371-.3744-.0516-.5612-.0107-.1392-.0226-.2784-.03-.4176-.01-.194-.0162-.3886-.0211-.5831-.0033-.1315-.0088-.2626-.01-.3945,0-.0237.0006-.0478,0-.0715.0313.1512.0747.3065.1111.4594C303.7956,43.663,303.8311,43.8291,303.8774,43.9988Zm2.929,14.0547c-.0623-.2216-.1407-.4511-.2153-.6781-.0523-.16-.0971-.3157-.1559-.4787-.0936-.2592-.2072-.5315-.318-.8016-.0578-.1407-.1055-.2749-.1682-.4191-.1833-.4217-.3869-.8583-.6155-1.3166-.1961-.3933-.37-.7744-.53-1.1477-.05-.1173-.09-.23-.1369-.3452-.1017-.2522-.2014-.5033-.2876-.748-.0477-.1355-.0877-.2675-.1309-.401-.0708-.2188-.14-.4368-.1993-.6508-.0385-.1384-.0719-.275-.1059-.4117-.0506-.204-.0984-.4071-.14-.6079-.0284-.138-.0541-.2755-.0784-.4123q-.052-.2944-.0922-.5862c-.0187-.1364-.0372-.2729-.0522-.4087-.0217-.1942-.0387-.3879-.0535-.5814-.01-.1332-.0216-.2666-.0289-.4-.0108-.199-.0167-.3985-.0216-.5981-.0032-.1277-.0085-.2551-.01-.3834,0-.0234.0008-.0472.0007-.0707.0312.1512.0747.3067.1112.46.04.1662.0749.3312.1209.5.0551.2018.1238.41.1888.6155.0512.1625.096.3222.1537.4875.0812.2326.1794.4736.2742.7128.058.1462.1073.2883.1706.4373.1665.392.3509.7931.557,1.2065.1744.3493.33.6822.4767,1.0089.0408.0907.0795.18.1184.2691q.171.3933.3175.769c.0247.0636.0522.129.0759.1919.1136.3014.215.5954.3064.8849.0223.0705.0415.14.0625.21q.1039.3459.1887.6851c.0191.0762.039.1527.0566.2285.0654.2808.1237.56.1715.8394.0064.0373.0107.075.0168.1123.0405.2473.0739.4956.1022.7455q.014.1233.0262.2474c.0239.2438.0433.49.0575.74.0026.046.0067.0907.009.137.0147.2918.0224.59.0262.8954l0,.08c-.0365-.1755-.0875-.3545-.1311-.5314C306.8863,58.3768,306.8522,58.2165,306.8064,58.0535Zm-3.8514,5.5132c-.008-.0515-.0143-.1041-.0218-.1558-.0459-.3168-.082-.6407-.1094-.9744-.0074-.09-.0166-.1772-.0227-.2686-.0263-.396-.0408-.81-.0437-1.25,0-.0225.0007-.0474.0006-.07.0792.3822.1815.7777.2972,1.1808.0359.1255.0785.2544.1184.382q.1414.4525.3189.9242c.0336.09.0554.1729.091.2636Z"/><path class="cls-5" d="M302.5934,64.6271l3.9326.1268c-.6671,7.372-4.4128,12.8467-7.734,17.7008-1.2275,1.794-2.3868,3.4885-3.3973,5.2493-2.9928,5.2147-3.2329,13.7662-3.22,16.7308l-3.9406-.0846c-.0393-3.645.2629-12.5182,3.7535-18.6011,1.0833-1.8867,2.3381-3.7213,3.5631-5.5122,3.2985-4.82,6.422-9.3847,7.0428-15.61m-.8228-1.527a.6121.6121,0,0,0-.6059.5821c-.3823,6.2528-3.5278,10.85-6.852,15.7076-1.2338,1.8037-2.51,3.6683-3.626,5.6124-4.0343,7.03-4.0157,17.4889-3.9354,20.2351a.613.613,0,0,0,.6127.5961l.0334-.0009,5.7113.1226a.6067.6067,0,0,0,.58-.6236c-.1094-3.5711.2357-12.0523,3.0069-16.8808.9792-1.7065,2.1233-3.3792,3.3343-5.149,3.5708-5.2189,7.6074-11.1177,8.0594-19.37a.62.62,0,0,0-.5979-.6479L301.79,63.1l-.02,0Z"/><path class="cls-2" d="M275.9556,66.1055a.2683.2683,0,0,1-.1963-.086.2634.2634,0,0,1-.0684-.2011l.0049.0009.002-.0195-.0049-.001.0224-.2187a.2606.2606,0,0,1,.5186.0517l-.0186.2354A.2611.2611,0,0,1,275.9556,66.1055Zm-.0469-.2647.041.0039Z"/><path class="cls-2" d="M277.8035,39.8287l-.0306-.0025a.25.25,0,0,0-.2744.1972,16.6273,16.6273,0,0,1-2.47,5.3975c-2.9053,4.3184-3.1152,6.9609-3.5342,12.2256l-.29,3.64,0,.0008-.2766,3.47v.0069l-.0068.081,0,.0008-.0481.5949a.2809.2809,0,0,0,.2578.2823l.0063,0,.2838.0222,1.0547.084,1.7978.1436,1.25.1.4053.0322.0176.001.001-.0005.0009.0005.02.0009a.2606.2606,0,0,0,.26-.24l2.05-25.7383c.0025-.03-.0208-.0534-.0288-.0819a.249.249,0,0,0-.0337-.1065l-.0045-.0024-.0023-.0064a.2275.2275,0,0,0-.1426-.0685c-.0106-.0023-.0174-.0136-.0283-.0145l-.0013,0m-2.0395,20.601c-.0326.1727-.0667.345-.1046.5171-.0242.1091-.0508.2182-.0772.3273q-.0592.2445-.1268.49-.0463.1674-.0967.3352c-.05.1667-.1053.3341-.1625.502-.0364.1071-.072.214-.1114.3219-.0692.1888-.146.38-.225.571-.0361.0877-.0688.1744-.1071.2626-.1232.2836-.2559.57-.4035.8623l-.0021.0039c-.1321.2612-.28.5288-.4339.7987l-1.2224-.0976c.0844-.1529.17-.3066.2611-.4623.0657-.1124.1274-.2232.1968-.3375.2045-.3363.4212-.6787.661-1.0359.2593-.3853.4949-.7613.7117-1.13.0631-.1074.114-.2109.1737-.3172.1456-.2591.2909-.518.4176-.7708.0618-.1234.1124-.2437.17-.3658.109-.2309.2188-.4623.3135-.6893.0533-.1281.0973-.2543.1464-.3813.069-.1786.1445-.3585.2056-.5354l-.0026.0217c-.007.0518-.0159.1025-.0231.1541-.0312.2212-.0646.4412-.1024.66C276.0358,60.2513,276.0155,60.35,275.9968,60.4485Zm-3.0951,3.8781c-.0666.11-.1226.2162-.1858.3248-.1255.2157-.2555.4333-.3687.6445l-.5626-.0449c.0588-.2165.1255-.43.1937-.6425.0575-.18.1086-.3613.1733-.5392.1011-.2779.2233-.5551.3436-.8325.0716-.165.1332-.33.2121-.4954.1465-.3081.32-.6237.4942-.94.077-.14.14-.2755.2234-.4178.2691-.4627.5667-.9376.9018-1.4358.2592-.3853.4946-.7611.7113-1.13.0654-.1115.1183-.2188.18-.329.1425-.254.2854-.508.41-.756.0674-.1344.1226-.2656.185-.3985.1026-.2189.2076-.4386.2974-.6541.0585-.14.1069-.2787.16-.4178.0636-.1656.1339-.3325.1907-.4967-.0034.0249-.0057.05-.0091.075-.0171.1232-.0381.2449-.0571.3673-.0311.2006-.0632.4009-.1.6-.0242.13-.0525.2594-.0794.3889-.04.1913-.0821.3826-.1289.5737-.0324.1321-.068.2644-.104.3966q-.0775.2847-.1675.5707c-.0416.1325-.0849.2654-.1308.3986-.0668.1939-.14.3891-.2169.5849-.0513.1311-.102.2623-.158.3945-.0865.2048-.1833.4123-.2819.62-.06.1265-.1165.2521-.1812.38-.1173.232-.2488.4687-.3825.7061-.0608.108-.115.2139-.1794.3232-.2061.35-.4281.7052-.6734,1.07C273.3532,63.5984,273.1193,63.9666,272.9017,64.3266Zm-1.1909-.5545c-.035.0937-.0768.1882-.11.2822-.0061.0172-.0141.0342-.02.0514.0476-.3409.0985-.6744.1577-.9975.0163-.09.0377-.1749.0552-.2633.0512-.26.1049-.5181.1668-.771.0314-.1285.0691-.2548.1036-.3821.0572-.2107.1163-.4211.183-.63.0429-.1345.0908-.269.1381-.4034.0711-.2023.1467-.4049.2286-.6082q.0821-.2037.1716-.4093c.0912-.2088.1909-.42.2952-.6331.0651-.1328.1286-.2652.199-.4.1242-.2377.2622-.4821.4043-.7285.0669-.1158.1273-.2285.1984-.3466.2221-.3692.4609-.7475.7275-1.144.2589-.3849.4941-.76.7105-1.1289.07-.12.1275-.2353.1937-.3537.1372-.2453.2758-.4912.396-.731.07-.1406.1285-.2776.1934-.4166.0995-.2127.2017-.4265.2891-.6359.06-.1448.1105-.2876.1655-.4312.0619-.1616.1307-.3248.1862-.4852-.0033.0245-.0056.0495-.0089.074-.0174.1254-.0389.2494-.0582.374-.0308.198-.0624.3958-.099.5925-.0246.1325-.0534.2647-.0809.3969-.0394.1879-.0807.3758-.1266.5636-.0333.1358-.07.2719-.107.4079q-.0759.2783-.1636.5578-.0641.2043-.1343.41c-.0657.19-.1379.382-.2129.5742-.0523.1341-.1043.2683-.1615.4037-.0854.2019-.1809.4066-.2779.6116-.0611.1291-.1189.2572-.1848.3878-.1158.2292-.2458.463-.3776.6975-.0621.1106-.1177.219-.1836.331-.2059.3494-.4275.7045-.6725,1.0689-.3193.4745-.5993.9263-.86,1.3694-.078.1325-.1486.2638-.2217.3943-.1766.3152-.3416.6283-.4916.9355-.0676.1385-.1364.2795-.199.417Q271.8957,63.2724,271.7108,63.7721Zm.5724-7.6613c.0141-.0795.03-.1573.0447-.2359q.0636-.3364.138-.6633c.0179-.0784.0352-.1573.0541-.2351.0682-.2807.1416-.5585.2252-.8338.0084-.0278.0187-.0553.0272-.0829.0771-.2489.1626-.4968.2546-.7451.0287-.0777.0589-.1556.0893-.2335q.1312-.3361.2835-.6764c.0257-.0574.0488-.1141.0754-.1717q.1932-.4182.4226-.8491c.0352-.0666.0745-.135.1112-.2021q.19-.3483.4065-.71c.05-.0844.1005-.1686.1532-.2542.1893-.3077.3878-.6206.6076-.9475.2581-.3838.4929-.7582.709-1.1259.076-.1294.138-.2541.2091-.3817.1317-.2362.2658-.4732.3816-.7042.0709-.1413.1293-.2791.1946-.4187.0994-.2124.2014-.4257.2887-.6348.06-.1451.1108-.2882.1659-.4321.0618-.1611.13-.3235.1857-.4834-.0032.0238-.0055.0481-.0088.0719-.0173.1257-.0388.25-.0581.3748-.0308.1985-.0624.3968-.0991.594-.0242.13-.0524.26-.0795.39-.04.1909-.0818.3816-.1285.5722-.0325.1327-.0682.2655-.1044.3984q-.0771.2831-.1663.5672c-.0421.134-.0859.2683-.1323.4031-.0659.1912-.1384.3836-.2138.5767-.0523.1342-.1043.2683-.1616.4037-.0851.2012-.18.4051-.277.6094-.0614.13-.12.2588-.1859.39-.1149.2275-.2441.46-.3748.6923-.0633.1127-.12.223-.1871.3371-.2058.3493-.4274.7043-.6723,1.0687-.2487.37-.471.7238-.682,1.0717-.05.083-.1008.1665-.1491.2484-.2.34-.3881.6731-.5559.9979-.0175.0339-.0324.0669-.05.1007-.1527.3-.2906.595-.4186.887-.0312.0712-.0635.1434-.0933.2143-.1315.3122-.2522.6225-.3593.9317-.0044.0126-.01.0254-.0147.038l.0043-.0334C272.1854,56.6924,272.2322,56.399,272.2832,56.1108Zm4.5015-6.0451c-.0412.1981-.0849.3961-.1335.5939-.0313.1276-.0658.2554-.1005.3832q-.0791.2908-.1709.5829c-.0407.1292-.0829.2588-.1277.3887-.0678.197-.1425.3955-.22.5945-.05.1286-.1.2571-.1547.3868-.0876.207-.1853.4168-.285.6272-.0592.1247-.1149.2485-.1787.3747-.1175.2326-.2493.47-.3833.7081-.0606.1077-.1145.2131-.1787.3219-.206.35-.4279.7054-.6731,1.07-.2864.4259-.545.8333-.7815,1.2285-.0707.1181-.1269.2291-.1934.345-.1562.2719-.3127.5443-.4476.8062-.07.1365-.127.2687-.1919.4032-.1124.233-.2274.4675-.3248.6961-.0629.1478-.1144.2945-.1716.4412-.0689.1772-.1457.3553-.2068.532l.0017-.0135c.0428-.3058.0908-.6013.1426-.8921.0141-.08.03-.1577.0447-.2363q.0643-.3383.14-.6669c.017-.074.0332-.1487.0511-.2222.0683-.28.1423-.5563.2259-.8307.0117-.0384.0256-.0766.0377-.1151q.1117-.3564.2444-.7117c.0291-.0784.0594-.157.09-.2355q.1323-.3383.286-.68c.0242-.054.0459-.1074.071-.1616q.1925-.4161.4212-.8449c.0372-.07.0785-.1422.1173-.213q.1875-.3423.4-.6971c.0508-.0847.1009-.1694.154-.2555.1885-.3063.3863-.6179.6051-.9433.2594-.3857.495-.7619.7119-1.1312.0635-.1081.1147-.2121.1748-.319.1448-.2578.2895-.5155.4155-.767.0651-.13.1185-.2566.1789-.3852.1051-.2236.212-.4479.3037-.6679.0567-.1358.1035-.27.1554-.4045.0647-.1682.1361-.3379.1939-.5047-.0036.0268-.0062.0542-.01.081-.0155.1122-.0349.223-.052.3345-.0326.2115-.0665.4225-.1057.6324C276.8368,49.8212,276.81,49.9434,276.7847,50.0657ZM275.46,45.7119a17.93,17.93,0,0,0,2.1343-4.1805l-.0074.061c-.0194.1412-.0435.2807-.0655.4208-.0288.1832-.0577.3661-.0915.5481-.0262.1412-.0568.282-.0864.4228-.0378.18-.0773.36-.1212.5393-.0345.1412-.0726.2826-.1112.4239q-.0741.2708-.1592.5425-.0657.21-.1382.4211c-.0645.1866-.1353.3744-.2088.5628-.0535.1371-.1066.2743-.1652.4128-.0841.1985-.178.4-.2733.6012-.0624.1322-.1217.2633-.1893.397-.1145.2264-.2431.4574-.3732.689-.0635.1128-.12.2235-.1875.3378-.2058.3491-.4274.7039-.6722,1.068-.2473.368-.4687.72-.6787,1.0666-.0527.0867-.1052.1738-.1556.2594-.1977.3356-.3836.6653-.55.9864-.0218.0422-.04.0834-.0616.1254-.1468.2894-.28.5743-.4041.8561-.0343.078-.07.157-.1022.2346-.129.3069-.2478.6121-.3533.9161-.0057.0165-.0134.0331-.0191.0495A16.5228,16.5228,0,0,1,275.46,45.7119Zm-.6289,19.5536q.2509-.47.46-.925c.0509-.1108.1045-.2224.152-.3318.1689-.3892.3233-.7729.4525-1.1459-.0044.0327-.0079.0691-.0124.1015-.0134.0977-.0281.191-.0423.2859q-.0469.313-.1.6087c-.016.0887-.0318.178-.0487.2648-.0492.2519-.1014.4976-.1591.7359l-.0114.0507c-.0523.2131-.1119.4192-.1719.6255l-.6283-.05C274.7636,65.41,274.7918,65.34,274.8315,65.2655Z"/><path class="cls-4" d="M271.6674,66.2841l3.9178.2742c-.2249,3.5466-.443,9.834,1.7092,15.917.62,1.7521,1.2488,3.3332,1.857,4.8622l.0332.0835a72.8058,72.8058,0,0,1,4.8565,17.0222l-3.8869-.1479A54.44,54.44,0,0,0,276.24,90.61c-.2289-.5591-.4635-1.1318-.7147-1.7626-.629-1.5809-1.2795-3.2158-1.9326-5.0624-2.4161-6.8256-2.1691-13.68-1.9252-17.5005m-.826-1.56a.6122.6122,0,0,0-.6113.57c-.2913,4.2668-.6587,11.6255,1.9485,18.9912.6663,1.884,1.3259,3.54,1.9635,5.143,1.8011,4.5227,3.2539,7.2687,4.6515,15.8277a.6214.6214,0,0,0,.6069.5227.5986.5986,0,0,0,.0938-.0074l5.6969.2169a.62.62,0,0,0,.51-.711,75.3,75.3,0,0,0-5.1235-18.4111c-.6131-1.5416-1.2481-3.1347-1.87-4.8911-2.1421-6.0545-1.8376-12.2508-1.5676-16.2015a.61.61,0,0,0-.57-.65l-5.6862-.3981c-.0147-.001-.0292-.0015-.0437-.0015Z"/><path class="cls-2" d="M200.38,204.3828a.3936.3936,0,0,1-.2051-.0566.4.4,0,0,1-.1387-.5489,13.1776,13.1776,0,0,0,0-14.5419,14.2886,14.2886,0,0,1,0-15.6934.4012.4012,0,1,1,.688.4131,13.4906,13.4906,0,0,0,0,14.8652,13.9751,13.9751,0,0,1,.003,15.3672A.404.404,0,0,1,200.38,204.3828Z"/><path class="cls-2" d="M293.3269,106.16a.96.96,0,0,1,.6921.2944.8792.8792,0,0,1,.2536.6372,93.7271,93.7271,0,0,1-85.5292,90.3072q.021-.4377.021-.8923a14.602,14.602,0,0,0-2.53-8.5066,11.0417,11.0417,0,0,1-2.0051-6.6122q0-.2166.0061-.4278a76.9691,76.9691,0,0,0,73.3334-73.8542.94.94,0,0,1,.9241-.9457h14.8343m0-2H278.4926a2.9436,2.9436,0,0,0-2.9227,2.87,74.9848,74.9848,0,0,1-73.163,71.9906,15.2293,15.2293,0,0,0-.1779,2.367,13.0044,13.0044,0,0,0,2.29,7.6418,12.5775,12.5775,0,0,1,2.245,7.477,14.0628,14.0628,0,0,1-.3134,3.0635,95.7184,95.7184,0,0,0,89.8206-92.4166,2.9344,2.9344,0,0,0-2.9447-2.9934Z"/><path class="cls-2" d="M420.0021,116.1467l-.1344-.0686a.2114.2114,0,0,0-.1817-.0029,21.3638,21.3638,0,0,1-4.3652,1.459c-3.9941.9267-5.4355,1.8213-8.5957,3.78l-1.8627,1.1555-.2125.1316-1.6382,1.0166c-.1441.0891-.2884.1785-.44.2724l-.3955.2461c-.0132.0081-.0086.028-.019.0387a.2.2,0,0,0-.0614.1253c-.0006.0093-.0118.0141-.0114.0235a.213.213,0,0,0,.1.16c.0066.0044.01.0121.0173.0158l.0017.0009.0012.0011.0016,0,.1506.0777.0011.0011.57.2919.9727.4981.6767.3467.2188.1123.0035.0008.0023.0021.0111.0026.0065.0052a.2139.2139,0,0,0,.0811.0166.2054.2054,0,0,0,.1084-.0312l15.0176-9.3155.0039-.0062a.2012.2012,0,0,0,.0814-.1288c.0014-.0066.01-.01.01-.0163,0-.0041-.0041-.0071-.0039-.0112,0-.0073.0051-.0136.0048-.0211a.2047.2047,0,0,0-.0315-.1m-15.5378,9.0163c.0729-.0216.1374-.0441.2085-.0658.127-.0388.25-.078.3719-.1175.0579-.0187.12-.037.1772-.0559-.2115.1021-.4238.2083-.6366.3006Zm2.1877-1.2209c-.0609.0264-.1254.0519-.1875.0779-.179.0752-.3626.1493-.5528.2218-.0844.0322-.1712.064-.2579.0957q-.2782.1016-.5758.2c-.0868.0288-.1725.0578-.262.0861-.2575.0816-.5261.1617-.8081.24-.0279.0078-.0532.0159-.0814.0236l-.4325-.2215c.093-.0259.1821-.0522.2782-.0779.0835-.0222.1663-.0446.2522-.0668.2918-.0754.5926-.1505.9174-.2262.4175-.0967.8048-.1973,1.177-.3.111-.0307.2151-.0626.3225-.0938.2542-.0738.5016-.1489.7372-.2259.0539-.0176.1156-.034.1686-.0517l-.0065.0033Q407.0974,123.8687,406.7419,124.0223Zm2.1716-3.3693q.1111-.051.2238-.1.1313-.0579.2652-.1141.1184-.05.2387-.0984c.0906-.0366.183-.0725.2759-.1081.0807-.0309.1618-.0619.2445-.0922.0991-.0363.2008-.072.303-.1076.0812-.0282.1619-.0566.2454-.0844.1115-.0372.2273-.0738.3432-.11.08-.025.1579-.05.24-.0751.1323-.04.2706-.08.4094-.1192.0725-.0206.1424-.0415.2168-.062.1622-.0447.3324-.0892.5043-.1335.0594-.0153.1153-.0307.1759-.0461.2367-.06.482-.1193.739-.179.4152-.0963.8008-.1963,1.1712-.2984.115-.0317.2226-.0647.3338-.097.2463-.0715.4867-.1443.7155-.2188.05-.0162.1064-.0313.1556-.0476-.029.0139-.0573.0283-.0865.0422-.2407.1149-.4887.2267-.7465.3356-.0421.0177-.0813.0363-.1239.054-.2993.1236-.6157.2428-.9462.359-.0872.0307-.18.06-.27.0905q-.3952.1329-.8266.26c-.1051.0309-.2089.0619-.3176.0923-.3879.1083-.7913.2143-1.23.3163-.2525.0585-.4945.117-.7277.1756-.1034.026-.1988.0522-.2986.0782-.1253.0327-.2537.0653-.3739.0982-.1123.0308-.2174.0621-.3255.0931-.1.0287-.2032.0572-.3.0862-.0986.03-.1917.06-.287.09-.1015.0319-.2051.0636-.3032.096l-.0221.0069.11-.0532C408.7305,120.7379,408.8217,120.6949,408.9135,120.653Zm1.8146.8618c-.0421.0178-.0812.0364-.1238.054-.2993.1237-.6157.2428-.9462.3591-.0872.0307-.18.06-.27.0905q-.3952.1329-.8266.26c-.1051.0308-.209.0619-.3176.0922-.3879.1084-.7913.2144-1.23.3163-.4928.1145-.9491.2294-1.3786.3471-.1723.0471-.3247.0977-.4885.146-.2485.0731-.5032.1456-.7353.2223l-.0253.0076c.0537-.026.1069-.054.161-.0795q.0766-.0364.154-.0723c.225-.104.4524-.2051.688-.3018l.0079-.003c.23-.0943.47-.1847.7164-.2735q.0861-.0311.1737-.0618c.2554-.09.5179-.1771.7974-.2627l.012-.0035c.2732-.0835.5646-.1651.8666-.2463q.1141-.0306.2311-.0612c.3144-.082.6392-.1635.99-.2451.4155-.0963.8012-.1963,1.172-.2985.114-.0314.2207-.0641.3308-.0961.2475-.0719.489-.145.7188-.22.05-.0161.1057-.031.1545-.0473-.029.014-.0574.0283-.0865.0423C411.234,121.2941,410.986,121.406,410.7281,121.5148Zm-4.1724.5576q.14-.0672.2823-.1323c.0672-.0308.1351-.061.2031-.0911q.1464-.0645.2955-.1272.1023-.0429.2062-.0851c.1037-.0419.2094-.0831.3161-.1239.0683-.0261.1367-.0522.2065-.0779.111-.0409.225-.081.34-.1209.0712-.0248.142-.05.2149-.0739.12-.04.2434-.0793.368-.1184.0735-.0231.1456-.0464.221-.0693.1331-.04.2721-.08.4116-.12.0738-.0211.145-.0422.2207-.0631.1575-.0435.323-.0865.49-.13.0646-.0167.1254-.0335.1914-.05.2366-.06.4818-.1192.7386-.1789.4141-.0959.7986-.1955,1.1681-.2972.115-.0316.2228-.0647.3339-.0969.2549-.074.5029-.1494.7391-.2266.0436-.0143.0935-.0274.1365-.0418-.0261.0126-.0516.0255-.0779.038-.2491.1192-.5059.2351-.7734.3478-.0357.015-.0687.0308-.1048.0457-.3.124-.6168.2433-.9478.36-.0891.0314-.1838.0617-.2755.0926q-.3888.1308-.8127.2554c-.11.0323-.2188.0648-.3326.0966-.3859.1077-.7868.2131-1.2228.3143-.3558.0826-.6853.1653-1.0039.2483-.0757.02-.152.04-.2258.0595-.306.0821-.6.1649-.8772.2492-.0337.01-.065.0209-.0983.0312-.1506.0466-.3007.0932-.444.1408Zm-3.5132,2.3964-.1073-.0555c.118-.0517.2359-.104.3563-.1536.1224-.05.2442-.1016.37-.15.2122-.0819.434-.16.658-.2367.1228-.0421.2419-.0856.369-.1267.2612-.0843.5394-.1653.8227-.2458.1047-.03.2012-.0606.3094-.09.403-.1094.8279-.2167,1.2875-.3237.4109-.0953.793-.1941,1.16-.2952.125-.0343.2423-.07.3628-.1054.2424-.0706.4791-.1424.7045-.2159.0481-.0157.1029-.03.15-.046-.0261.0126-.0517.0254-.078.038-.2491.1191-.5058.2351-.7733.3478-.0358.015-.0687.0308-.1048.0457-.3.124-.6169.2433-.9478.36-.0891.0314-.1838.0617-.2755.0925q-.3888.1308-.8127.2555c-.11.0323-.2188.0648-.3326.0966-.386.1076-.7868.2131-1.2228.3143-.3629.0841-.7025.1679-1.0258.2525-.1057.0277-.2.0561-.302.0839C403.4186,124.3633,403.2226,124.4153,403.0425,124.4688Zm7.5508-4.918a21.575,21.575,0,0,1,4.8213-1.6162c.8641-.2,1.6469-.4183,2.3776-.6626-.0261.0126-.0517.0255-.078.0381-.2491.1191-.5059.2351-.7734.3477-.0357.0151-.0687.0309-.1047.0458-.3.124-.6169.2432-.9479.36-.0891.0313-.1837.0617-.2755.0925q-.3888.1308-.8127.2554c-.11.0324-.2188.0648-.3326.0966-.3859.1077-.7867.2132-1.2228.3144-.2524.0585-.4942.1168-.7273.1754-.0964.0242-.1854.0486-.2787.0729-.1336.0347-.27.0694-.3974.1044-.0838.0229-.1619.0464-.2434.07-.1315.0373-.2644.0745-.39.1123-.06.018-.116.0365-.1747.0547-.1433.0443-.2861.0886-.4228.1339Z"/><path class="cls-4" d="M402.2877,125.3531l.9479.5062a17.5579,17.5579,0,0,0-5.8711,6.7473c-.1947.4116-.3727.8641-.5613,1.3431a13.6984,13.6984,0,0,1-.89,1.9722c-1.8607,3.0418-6.9875,6.3867-9.1038,7.5853l-.733-.48c2.3087-1.3742,6.4028-4.0748,7.8661-6.4671a29.8688,29.8688,0,0,0,1.5-2.8951c1.3-2.75,2.6431-5.5909,6.8459-8.3121m-.0052-1.4642a.81.81,0,0,0-.4156.1095,18.6516,18.6516,0,0,0-7.6631,9.0828,28.8475,28.8475,0,0,1-1.4294,2.7647c-1.5219,2.4882-6.5,5.53-8.7263,6.7352-.2075.1123-.2421.2827-.0833.3866l2.7168,1.7778a.5726.5726,0,0,0,.3069.0763.8267.8267,0,0,0,.3842-.0927c1.71-.9283,7.4918-4.47,9.7078-8.0929a37.2207,37.2207,0,0,0,1.5215-3.4443c1.2575-2.6608,3.3417-4.9652,6.9469-7.2449.1915-.1211.2107-.2915.0346-.3855l-3.0181-1.612a.6135.6135,0,0,0-.2829-.0606Z"/><path class="cls-2" d="M431.88,124.4478l-.1137-.0542c-.0074-.0036-.0153.0042-.0229.0016a.1951.1951,0,0,0-.1792.01L416.9663,133.93a.2088.2088,0,0,0-.09.1924.202.202,0,0,0,.0329.0847l.0047.0122a.2064.2064,0,0,0,.0437.0389.1947.1947,0,0,0,.0359.0321l.0039.002.0023,0,.0006.0005.0037.0017,0,0h0l.2224.1065.6972.332,1.0039.48.5879.28.1611.0771.0126.0029.0089.0069a.205.205,0,0,0,.0791.0156.2116.2116,0,0,0,.1123-.0332l.3362-.2192.0017,0,.044-.0293q.2388-.1552.4648-.3037l1.5508-1.0118.0137-.009,2.0136-1.3132c2.9893-1.9512,4.4893-2.93,5.6436-5.3a7.9147,7.9147,0,0,1,2.0019-2.5713.2065.2065,0,0,0,.0684-.1836c-.0053-.0371-.04-.0568-.0626-.0853m-3.8281,2.9991c-.0441.0656-.0883.132-.1309.2a8.1944,8.1944,0,0,0-.4384.778,9.3117,9.3117,0,0,1-.5017.897c-.0552.0876-.1146.1682-.172.2519-.128.187-.2612.3672-.402.5381-.0692.0841-.14.1676-.2125.2488-.1524.17-.3149.3342-.4854.4953-.0675.0638-.13.1292-.201.1923-.2431.2168-.5026.4308-.7887.6478l-.0194.0142c.0276-.0333.05-.0728.0774-.1064.1313-.1639.2556-.34.3767-.5181.06-.0879.1234-.172.1811-.2642a9.6683,9.6683,0,0,0,.5-.9,7.6644,7.6644,0,0,1,.4833-.8412c.0343-.0525.0678-.1059.1031-.1571a7.7121,7.7121,0,0,1,.5487-.7074c.0358-.0409.0739-.08.11-.12.19-.2082.3885-.4082.5994-.6.023-.021.0444-.0431.0676-.0639.2314-.2064.4769-.4045.7324-.5993l.0539-.0408c-.02.024-.0364.052-.056.0761Q428.34,127.2324,428.1381,127.5349Zm-6.9181,6.2516c.0576-.0857.12-.1686.1749-.2577a9.9035,9.9035,0,0,0,.4894-.8852,7.6644,7.6644,0,0,1,.4833-.8412c.0343-.0525.0678-.1059.1031-.1571a7.6835,7.6835,0,0,1,.5487-.7073c.0358-.041.0739-.08.1105-.12.19-.2083.3885-.4082.5993-.6.0231-.0208.0445-.0431.0677-.0638.2314-.2064.4768-.4045.7324-.5994l.0539-.0407c-.02.0239-.0364.052-.056.0761q-.2239.2758-.4262.5784c-.0441.0657-.0883.1321-.1309.2a8.1744,8.1744,0,0,0-.4384.7781,9.2507,9.2507,0,0,1-.4926.88c-.0382.061-.0765.1224-.1157.1815a7.6317,7.6317,0,0,1-.5469.7312c-.0307.0362-.0647.07-.0962.1057-.18.204-.373.4-.5786.5909-.0455.0422-.0888.0854-.1357.1274-.2314.207-.4806.4109-.7495.6167l-.0537.04c.0282-.0341.0506-.0736.0782-.1084C420.9742,134.1438,421.0994,133.9661,421.22,133.7865Zm-1.1582-.9807c-.0423.0631-.0847.1268-.1256.1918a8.1811,8.1811,0,0,0-.4416.7827,9.1039,9.1039,0,0,1-.5014.8962c-.018.0286-.0354.0579-.0537.0861l-.6171-.2958a7.7839,7.7839,0,0,1,.4952-.7011c.0346-.0424.0735-.08.1089-.1218q.2681-.3147.5645-.6c.0729-.07.1477-.1394.2232-.2078q.28-.2535.5844-.4936c.0647-.0512.1261-.1038.1924-.1542.0178-.0135.038-.0267.0559-.04-.0172.0207-.0315.0448-.0484.0657C420.3453,132.4016,420.2,132.6,420.0618,132.8058Zm6.0584-3.9551c-.0436.0651-.0874.1309-.13.198a8.2069,8.2069,0,0,0-.44.7814,9.286,9.286,0,0,1-.4945.8843c-.0524.0837-.1077.1622-.1621.2421q-.198.2919-.4157.5569c-.0584.0711-.1153.1438-.1761.2127a8.4645,8.4645,0,0,1-.6525.6665c-.0173.0156-.0379.031-.0553.0466-.2254.2019-.4707.4011-.7326.6023-.025.0192-.0526.0389-.078.0581.0087-.0105.0159-.0232.0245-.0339a8.0256,8.0256,0,0,0,.49-.6775c.0429-.0657.0865-.1337.1284-.2017.1646-.268.3244-.5482.4763-.86a7.8634,7.8634,0,0,1,.4818-.8421c.0343-.0529.0681-.1069.1034-.1584a7.549,7.549,0,0,1,.54-.7c.0393-.0452.0812-.0883.1215-.1325.1848-.2025.3785-.3976.5848-.5848.026-.0237.05-.0486.0762-.072.2249-.2.466-.3931.7171-.5846l.0746-.0564c-.0208.0251-.0381.0544-.0587.08Q426.3215,128.55,426.12,128.8507Zm-8.362,5.24c.07-.0622.1431-.1248.2176-.1875.0664-.0559.1342-.1122.2045-.1687.0814-.0655.1666-.132.2543-.1992.0345-.0265.0709-.0536.1064-.08a8.0894,8.0894,0,0,0-.6059.8276l-.2548-.1206C417.7064,134.1378,417.7315,134.114,417.7582,134.09Zm1.6157.7539a9.6558,9.6558,0,0,0,.4918-.8842,7.8412,7.8412,0,0,1,.48-.8384c.0356-.0549.0706-.111.1073-.1644a7.5255,7.5255,0,0,1,.5385-.6969c.039-.0448.08-.0874.12-.1314.1883-.2064.3855-.4053.5961-.5959.0209-.0191.04-.039.0611-.0578.2308-.2054.4779-.4037.7363-.6l.0617-.0465c-.0174.0209-.0317.0452-.0488.0662-.1531.1879-.298.3858-.4365.5919-.0431.0642-.0862.1291-.1278.1953a8.1735,8.1735,0,0,0-.4407.782c-.1312.27-.2674.5212-.4109.76-.0444.0738-.095.1394-.1411.2108-.1029.1594-.2052.3191-.3173.4679-.0591.0782-.1265.1507-.1885.2266-.1093.1336-.217.2682-.3369.3962-.0692.074-.1485.1453-.2216.2178-.1073.1065-.2153.2129-.332.3178l-.2461-.1173C419.3384,134.9126,419.3546,134.8755,419.3739,134.8442Zm10.2135-7.6479a8.4419,8.4419,0,0,1-2.79,3.293c.0283-.0342.0518-.0747.08-.1094.1317-.1641.2566-.34.378-.5186.0611-.09.1261-.1758.185-.27a9.6983,9.6983,0,0,0,.5-.8992,7.8556,7.8556,0,0,1,.4819-.8422c.0343-.0527.0678-.1065.103-.1579a7.5653,7.5653,0,0,1,.5422-.7018c.0376-.043.0774-.084.1159-.1262.1883-.2067.3858-.4056.5965-.5966.0221-.02.0424-.0412.0648-.0612.2271-.2022.4706-.3973.7244-.5908l.0706-.0534A8.0583,8.0583,0,0,0,429.5874,127.1963Z"/><path class="cls-5" d="M416.9631,135.0775l.9161.4472a46.6443,46.6443,0,0,1-10.4775,4.775c-1.4635.4505-2.7938.8275-4.0977,1.197a91.7533,91.7533,0,0,0-12.8618,4.4832l-.4824-.4064a97.9617,97.9617,0,0,1,12.3675-4.2228l.0637-.0181c1.2369-.3505,2.516-.7131,3.8914-1.1366a43.6728,43.6728,0,0,0,10.6807-5.1185m-.0219-1.4573a.7957.7957,0,0,0-.4161.1126,42.6979,42.6979,0,0,1-10.6454,5.155c-1.3843.4262-2.6763.7918-3.9257,1.1459A99.53,99.53,0,0,0,387.8,145.0028c-.2319.1-.3109.2793-.1719.3964l2.33,1.9632a.529.529,0,0,0,.3328.0952.8677.8677,0,0,0,.3376-.0678,90.8351,90.8351,0,0,1,13.0489-4.5763c1.2989-.3681,2.6419-.7484,4.1266-1.2056a50.2033,50.2033,0,0,0,12.535-6.01c.1939-.1241.1984-.2983.0115-.39l-3.1406-1.5332a.6242.6242,0,0,0-.2692-.0547Z"/><path class="cls-2" d="M371.6606,204.5176a.3112.3112,0,0,1-.1582-.043.3167.3167,0,0,1-.1162-.4336,7.7621,7.7621,0,0,1,3.5176-3.3672,16.2683,16.2683,0,0,1,5.7861-1.9687,16.2824,16.2824,0,0,0,5.7139-1.9395,7.46,7.46,0,0,0,3.3574-3.2041.3207.3207,0,0,1,.4336-.1162.3166.3166,0,0,1,.1162.4336,8.0022,8.0022,0,0,1-3.5927,3.4375,16.789,16.789,0,0,1-5.91,2.0117,15.7552,15.7552,0,0,0-5.59,1.8965,7.2371,7.2371,0,0,0-3.2832,3.1338A.3154.3154,0,0,1,371.6606,204.5176Z"/><path class="cls-2" d="M383.54,143.962h0a1.2841,1.2841,0,0,1,.4056.0518l5.92,3.4128C376.2431,154.25,367.62,165.2938,367.76,175.9093c.0735,5.5891,2.6042,13.2123,13.6446,19.1422a18.4707,18.4707,0,0,1-3.1331.7833,17.8979,17.8979,0,0,0-6.3112,2.1606q-.39.2226-.74.4469c-8.6028-6.084-13.04-13.7011-12.85-22.0981.2555-11.3283,9.1071-23.0564,24.2852-32.1766a1.8756,1.8756,0,0,1,.8859-.2056m0-2a3.833,3.833,0,0,0-1.9157.4912c-29.2561,17.58-33.6162,43.001-10.3756,58.4334a11.7138,11.7138,0,0,1,1.702-1.1539,16,16,0,0,1,5.6886-1.932,16.5578,16.5578,0,0,0,5.8118-1.9757,13.2582,13.2582,0,0,0,1.3479-.8727c-27.0938-11.736-16.4032-35.835,6.4538-46.4573.995-.4624,1.0671-1.3853.2543-1.8539l-7.5625-4.36a2.8742,2.8742,0,0,0-1.4046-.3191Z"/><path class="cls-6" d="M438.6127,103.8635a.37.37,0,0,0-.5546.3207V117.64a.3715.3715,0,0,0,.1849.3207l9.5913,5.5265a.375.375,0,0,0,.1849.0491.3705.3705,0,0,0,.37-.37V109.7108a.3714.3714,0,0,0-.185-.3207Zm.185.9606,2.3053,1.3284v9.5166L438.7977,117Zm8.8517,17.7028-8.4816-4.8872,2.3052-1.3308,6.1764,3.5605Zm0-3.5121-5.8068-3.3471v-9.0891l5.8068,3.346Z"/><path class="cls-6" d="M419.0965,91.8109a.37.37,0,0,0-.5547.3206v13.4553a.3717.3717,0,0,0,.1849.3207l9.5913,5.5265a.375.375,0,0,0,.1849.0491.37.37,0,0,0,.37-.37V97.6573a.3715.3715,0,0,0-.1849-.3206Zm.1849.96,2.1754,1.2533v9.6766l-2.1754,1.2472Zm8.8517,17.702-8.4794-4.8859,2.1705-1.2444,6.3089,3.7135Zm0-3.2749-5.9367-3.4946V94.4508l5.9367,3.42Z"/><path class="cls-6" d="M501.0259,78.9272l.0011-.0018-2.5915-1.5484a.3713.3713,0,0,0-.3755-.0022l-1.7549,1.0172-2.6392-1.4065V74.89h-.0007l.0007-.0029a.3688.3688,0,0,0-.1849-.3171L489.25,72.127a.3649.3649,0,0,0-.3771.0043l-1.41.8584-5.07-2.6784v-13.22a.74.74,0,0,0-.37-.6407L443.6547,34.2992a.7431.7431,0,0,0-.74,0L414.14,50.9128a.7394.7394,0,0,0-.37.6406v55.3789a.7393.7393,0,0,0,.37.6406l38.3673,22.1517a.74.74,0,0,0,.74,0l28.7761-16.6136a.7394.7394,0,0,0,.37-.6406v-5.5383l18.6287-10.7553a.37.37,0,0,0,.1849-.32l.0007-16.6136A.3691.3691,0,0,0,501.0259,78.9272Zm-57.741-43.1337,36.8887,21.2981L452.8769,72.851,415.989,51.5534Zm8.8524,38.3385v32.5463L415.2491,85.3317V52.8347Zm-36.8882,32.3735V86.4862l36.8882,21.3466v19.97Zm65.6643,5.5381-27.2969,15.7593V74.1323l27.2969-15.76Zm1.4791-40.8955,4.3336,2.29-4.3336,2.6371Zm0,5.7917,6.6771-4.0631,3.4964,2.018-10.1735,6.0734Zm10.5338-1.3987v1.05l-.9294-.4953ZM482.3925,81.83l8.8623-5.2908,4.2967,2.29-13.159,7.6267Zm0,5.4807,15.85-9.1866,1.8641,1.1143L482.3925,89.465Zm18.074,8.3327-18.074,10.4355v-15.76l18.0747-10.4345Z"/><polygon class="cls-6" points="424.897 53.868 430.706 57.376 432.491 56.318 426.681 52.81 424.897 53.868"/><polygon class="cls-6" points="442.694 64.615 448.503 68.123 450.288 67.065 444.478 63.557 442.694 64.615"/><path class="cls-6" d="M448.6749,48.078c-.005-1.4763-.9555-2.8521-2.6758-3.874a12.84,12.84,0,0,0-11.9783-.0528,4.47,4.47,0,0,0-2.5018,3.7268c.0043,1.4755.9548,2.8514,2.6758,3.874a12.1657,12.1657,0,0,0,6.0863,1.5081,11.6446,11.6446,0,0,0,5.8921-1.4561A4.4714,4.4714,0,0,0,448.6749,48.078Zm-14.2482-3.2537a10.8293,10.8293,0,0,1,5.4846-1.3556,11.3648,11.3648,0,0,1,5.6862,1.41,4.3575,4.3575,0,0,1,2.222,2.638l-15.488.0144A3.9316,3.9316,0,0,1,434.4267,44.8243Zm.17,6.2532a4.2742,4.2742,0,0,1-2.2534-2.7608l15.5291-.0144a3.8507,3.8507,0,0,1-2.1049,2.8286A11.9764,11.9764,0,0,1,434.5964,51.0775Z"/><path class="cls-6" d="M459.1734,64.4865a11.6452,11.6452,0,0,0,5.892-1.456,4.47,4.47,0,0,0,2.5018-3.7268c-.0043-1.4755-.9548-2.8514-2.6752-3.8733a12.8389,12.8389,0,0,0-11.979-.052,4.47,4.47,0,0,0-2.5018,3.726c.0051,1.4756.9555,2.8514,2.6759,3.8741A12.1666,12.1666,0,0,0,459.1734,64.4865Zm-7.9764-5.385a3.7285,3.7285,0,0,1,2.1219-3.0507,10.8292,10.8292,0,0,1,5.4854-1.3557,11.3654,11.3654,0,0,1,5.6862,1.41,6.73,6.73,0,0,1,.8116.57l-13.3038,4.3988A3.0776,3.0776,0,0,1,451.197,59.1015ZM465.944,57.29a3.0978,3.0978,0,0,1,.8381,2.017,3.7278,3.7278,0,0,1-2.1226,3.0508,11.9763,11.9763,0,0,1-11.1709-.0535,6.7122,6.7122,0,0,1-.8629-.6105Z"/><rect class="cls-5" x="418.5048" y="125.4865" width="5.1134" height="0.6393" transform="translate(-7.4254 223.3713) rotate(-29.4626)"/><rect class="cls-5" x="423.6624" y="121.6027" width="8.5296" height="0.6393" transform="translate(-4.6272 226.246) rotate(-29.4626)"/><rect class="cls-5" x="432.015" y="116.8781" width="8.5296" height="0.6393" transform="translate(-1.2232 229.7432) rotate(-29.4626)"/><polygon class="cls-5" points="444.361 111.131 443.4 111.675 444.737 112.045 440.762 114.294 441.077 114.851 445.052 112.602 444.681 113.939 445.642 113.395 446.133 111.623 444.361 111.131"/><rect class="cls-4" x="399.0781" y="113.2687" width="5.1143" height="0.6393" transform="translate(-3.9283 212.2363) rotate(-29.4626)"/><rect class="cls-4" x="404.2357" y="109.3849" width="8.5296" height="0.6393" transform="translate(-1.1302 215.1107) rotate(-29.4626)"/><rect class="cls-4" x="412.5882" y="104.6603" width="8.5296" height="0.6393" transform="translate(2.2738 218.608) rotate(-29.4626)"/><polygon class="cls-4" points="424.935 98.913 423.974 99.457 425.311 99.828 421.335 102.076 421.65 102.633 425.625 100.384 425.254 101.721 426.215 101.177 426.707 99.405 424.935 98.913"/><rect class="cls-1" x="170.0171" y="18.8604" width="0.915" height="190"/><rect class="cls-1" x="340.0161" y="18.8604" width="0.916" height="190"/><path class="cls-3" d="M463.9372,43.2558l-1.5833-2.1275a6.5871,6.5871,0,0,1-1.2084-3.9755V4.68s-1.2169-.402-2.3389,1.26-2.9743.4718-2.9743.4718V38.8848a10.7648,10.7648,0,0,1-1.2083,4.7633l-1.5833,3.16c-.7908,1.578-.2084,2.8983-.2084,4.4373l1,9.216,9.3132-3.0358,1-9.8681C464.1455,46.0183,464.7279,44.3184,463.9372,43.2558Z"/><path class="cls-2" d="M453.8325,60.9609a.5.5,0,0,1-.4971-.4463l-.3134-2.8886-.0039-.0332-.6827-6.294a11.3833,11.3833,0,0,0-.1054-1.3437,5.4315,5.4315,0,0,1,.3633-3.3711l1.583-3.1592a10.2607,10.2607,0,0,0,1.1562-4.54V6.4121a.5008.5008,0,0,1,.7705-.4209,1.6353,1.6353,0,0,0,2.2891-.33h0c1.3174-1.9521,2.8476-1.4785,2.91-1.456a.5.5,0,0,1,.3438.4746V37.1533a6.09,6.09,0,0,0,1.1094,3.6758l1.583,2.1279a4.4745,4.4745,0,0,1,.41,3.2383,12.6238,12.6238,0,0,0-.1025,1.3623l-.6875,6.7979-.001.0185-.3144,3.1026a.5007.5007,0,0,1-.3418.4248l-9.3135,3.0351A.5007.5007,0,0,1,453.8325,60.9609Zm.2246-3.0556.2061,1.89,8.418-2.7431.205-2.0245Zm2.2754-50.7188V38.8848a11.2668,11.2668,0,0,1-1.2617,4.9873l-1.583,3.1592a4.5089,4.5089,0,0,0-.2647,2.8046,11.6507,11.6507,0,0,1,.1094,1.4092l.6143,5.6445,9.05-2.95.6523-6.4327a12.8956,12.8956,0,0,1,.1055-1.4218,3.775,3.775,0,0,0-.2188-2.53l-1.583-2.1279a7.083,7.083,0,0,1-1.3066-4.2735V5.1465A2.1521,2.1521,0,0,0,459.22,6.22,2.4106,2.4106,0,0,1,456.3325,7.1865Z"/><path class="cls-7" d="M456.43,35.3379a29.705,29.705,0,0,1-6.4444-1.5469A.7235.7235,0,0,0,449.49,35.15a31.1261,31.1261,0,0,0,6.7588,1.625.7245.7245,0,0,0,.1817-1.4375Z"/><path class="cls-7" d="M445.5679,31.6357c-2.9219-1.8857-4.5313-4.1611-4.5313-6.4052a7.2876,7.2876,0,0,1,2.3643-5.1006.7244.7244,0,0,0-1.0274-1.0215,8.6979,8.6979,0,0,0-2.7861,6.1221c0,2.7529,1.8457,5.46,5.1953,7.622a.7241.7241,0,0,0,.7852-1.2168Z"/><path class="cls-7" d="M446.7153,16.0762a.7245.7245,0,1,0,.6426,1.2988,24.9981,24.9981,0,0,1,7.9746-2.2618V13.6526A26.5836,26.5836,0,0,0,446.7153,16.0762Z"/><path class="cls-7" d="M467.09,14.4893a.7242.7242,0,1,0-.3847,1.3964c6.0117,1.6573,9.9433,5.0479,10.2607,8.8487a.7245.7245,0,0,0,.7207.664c.02,0,.041-.0009.0615-.0029a.7244.7244,0,0,0,.6612-.7822C478.0405,20.1924,473.7026,16.3135,467.09,14.4893Z"/><path class="cls-7" d="M461.9683,13.5693c-.1064-.01-.2154-.0135-.3223-.0222v1.4507c.0627.0054.1269.0072.1894.0129a.707.707,0,0,0,.7872-.6543A.7227.7227,0,0,0,461.9683,13.5693Z"/><path class="cls-7" d="M475.4624,28.917a14.3864,14.3864,0,0,1-3.9767,3.1958l1.0857-2.81-2.2874,1.0131-1.5007,3.887,3.887,1.5008,2.2873-1.0131-3.0239-1.1665a16.09,16.09,0,0,0,4.6478-3.6874.7243.7243,0,0,0-1.1191-.92Z"/><path class="cls-8" d="M490.479,207.0313a7.462,7.462,0,1,1,7.4619-7.462A7.4707,7.4707,0,0,1,490.479,207.0313Zm0-14.1739a6.712,6.712,0,1,0,6.7119,6.7119A6.7193,6.7193,0,0,0,490.479,192.8574Z"/><path class="cls-7" d="M490.8374,198.8564a1.6074,1.6074,0,0,1,1.3984,1.6407,1.7518,1.7518,0,0,1-.2578.9531,1.7258,1.7258,0,0,1-.709.6348,2.1293,2.1293,0,0,1-.9589.2246,1.4634,1.4634,0,0,1-1.0957-.42,1.3522,1.3522,0,0,1-.4122-.9785.7936.7936,0,0,1,.1446-.48.4751.4751,0,0,1,.41-.1993.4811.4811,0,0,1,.3985.1758.6724.6724,0,0,1,.1406.4336,2.4841,2.4841,0,0,1-.043.3555.9637.9637,0,0,0-.0234.1992.4167.4167,0,0,0,.1055.2871.3719.3719,0,0,0,.2929.1192.3949.3949,0,0,0,.3653-.2051,1.3738,1.3738,0,0,0,.1191-.6582c0-.0781-.0029-.1563-.0078-.2344l-.0469-.9648a.8176.8176,0,0,0-.1914-.418.55.55,0,0,0-.2793-.1621,2.6371,2.6371,0,0,0-.4668-.0293l-.1133.0039a.11.11,0,0,1-.125-.1133l-.0078-.1719a.3462.3462,0,0,1-.0039-.0547.1554.1554,0,0,1,.1758-.1757,1.9058,1.9058,0,0,0,.6387-.0762.4383.4383,0,0,0,.26-.2324,2.1764,2.1764,0,0,0,.0664-.6836,4.0029,4.0029,0,0,0-.0781-.9922.3139.3139,0,0,0-.32-.2461.3789.3789,0,0,0-.26.0977.318.318,0,0,0-.1113.25,1.7587,1.7587,0,0,0,.0352.2929,2.479,2.479,0,0,1,.0507.4063.4521.4521,0,0,1-.1523.3593.533.533,0,0,1-.3633.1329.4724.4724,0,0,1-.4082-.2071.8694.8694,0,0,1-.1465-.5156,1.2761,1.2761,0,0,1,.418-.9453,1.7931,1.7931,0,0,1,2.3789.0937,1.653,1.653,0,0,1,.43,1.1016,1.3248,1.3248,0,0,1-.2891.8379,1.5931,1.5931,0,0,1-.84.5293Z"/><path class="cls-8" d="M319.9028,207.0313a7.4615,7.4615,0,1,1,7.4619-7.462A7.47,7.47,0,0,1,319.9028,207.0313Zm0-14.1729a6.7115,6.7115,0,1,0,6.7119,6.7109A6.7188,6.7188,0,0,0,319.9028,192.8584Z"/><path class="cls-7" d="M318.8931,201.0713h1.957a.2483.2483,0,0,0,.209-.1.9665.9665,0,0,0,.1308-.3731.2465.2465,0,0,1,.0743-.15.4125.4125,0,0,1,.2148-.0371c.1621,0,.2422.0352.2422.1055a.3445.3445,0,0,1-.0117.082q-.019.1054-.0821.5039-.07.4337-.1386.7559a1.1975,1.1975,0,0,1-.1016.3535.3154.3154,0,0,1-.1816.0313h-3.0821v-.9141q0-.1919.3282-.4844a10.6114,10.6114,0,0,0,.76-.8945,4.8683,4.8683,0,0,0,.7715-1.2188,3.7054,3.7054,0,0,0,.1758-1.2617,1.7844,1.7844,0,0,0-.127-.85.4124.4124,0,0,0-.3652-.1894.3832.3832,0,0,0-.2812.1015.36.36,0,0,0-.1016.2657,1.6467,1.6467,0,0,0,.0195.2265,2.5772,2.5772,0,0,1,.0235.34.8365.8365,0,0,1-.1621.5507.5123.5123,0,0,1-.4122.1954.4988.4988,0,0,1-.4218-.211.8329.8329,0,0,1-.1563-.5078,1.3865,1.3865,0,0,1,.461-1.0488,1.7319,1.7319,0,0,1,1.2343-.4317,1.7652,1.7652,0,0,1,1.291.4961,1.7185,1.7185,0,0,1,.5059,1.2852,2.0171,2.0171,0,0,1-.18.8379,2.36,2.36,0,0,1-.49.7109,10.5258,10.5258,0,0,1-.9082.7793A9.7713,9.7713,0,0,0,318.8931,201.0713Z"/><path class="cls-8" d="M149.3,207.0313a7.4615,7.4615,0,1,1,7.4619-7.462A7.47,7.47,0,0,1,149.3,207.0313Zm0-14.1729a6.7115,6.7115,0,1,0,6.7119,6.7109A6.7189,6.7189,0,0,0,149.3,192.8584Z"/><path class="cls-7" d="M148.6167,197.6182a1.8866,1.8866,0,0,1-.5977.1211c-.0805,0-.1211-.044-.1211-.1329V197.45a.218.218,0,0,1,.0352-.1348.4415.4415,0,0,1,.1758-.1,2.71,2.71,0,0,0,.5117-.3164,3.2545,3.2545,0,0,0,.6328-.6367,2.3724,2.3724,0,0,1,.2813-.334.3165.3165,0,0,1,.1484-.0254h.3242v5.6524c0,.0576.0445.1084.1328.1523a.2676.2676,0,0,1,.1387.1152,1.1265,1.1265,0,0,1,.0254.3184c0,.0674-.0454.1016-.1367.1016h-1.7891c-.0757,0-.1216-.0118-.1387-.0352a.3544.3544,0,0,1-.0253-.1719.7952.7952,0,0,1,.0214-.2422c.0142-.0312.0684-.0615.1621-.09.146-.0439.2188-.1084.2188-.1914Z"/></g></g></g></svg>