<svg xmlns="http://www.w3.org/2000/svg" xmlns:xlink="http://www.w3.org/1999/xlink" width="196.3494mm" height="101.9132mm" viewBox="0 0 556.5811 288.8877"><defs><style>.cls-1{fill:#808285;}.cls-2{fill:#fff;}.cls-3{fill:#bcbec0;}.cls-4{fill:#3d723a;}.cls-5{fill:#00aeef;}</style></defs><title>6. Heartbeat clignote</title><g id="Layer_2" data-name="Layer 2"><g id="_6._Heartbeat_clignote" data-name="6. Heartbeat clignote"><g id="Expanded"><path class="cls-1" d="M546.1875,288.8877H10.3936A10.4061,10.4061,0,0,1,0,278.4941v-268.1A10.4061,10.4061,0,0,1,10.3936,0H546.1875a10.4061,10.4061,0,0,1,10.3936,10.3936V278.4941A10.4061,10.4061,0,0,1,546.1875,288.8877ZM10.3936.99A9.4133,9.4133,0,0,0,.99,10.3936V278.4941a9.4133,9.4133,0,0,0,9.4034,9.4034H546.1875a9.4133,9.4133,0,0,0,9.4033-9.4034v-268.1A9.4133,9.4133,0,0,0,546.1875.99Z"/><g id="WattSense_box" data-name="WattSense box"><rect class="cls-2" x="493.6335" y="258.6542" width="23.4339" height="14.0624"/><path class="cls-3" d="M517.0674,273.1689H493.6338a.4531.4531,0,0,1-.4522-.4521V258.6543a.4532.4532,0,0,1,.4522-.4522h23.4336a.4531.4531,0,0,1,.4521.4522v14.0625A.453.453,0,0,1,517.0674,273.1689Zm-22.9815-.9043h22.5293V259.1064H494.0859Z"/><rect class="cls-3" x="497.8594" y="269.8916" width="3.835" height="1.1699"/><rect class="cls-3" x="508.959" y="269.8916" width="3.835" height="1.1699"/><path class="cls-3" d="M499.8242,268.3125a3.8618,3.8618,0,1,1,3.8613-3.8623A3.8662,3.8662,0,0,1,499.8242,268.3125Zm0-6.8721a3.01,3.01,0,1,0,3.01,3.01A3.0136,3.0136,0,0,0,499.8242,261.44Z"/><path class="cls-3" d="M510.876,268.3125a3.8618,3.8618,0,1,1,3.8623-3.8623A3.8663,3.8663,0,0,1,510.876,268.3125Zm0-6.8721a3.01,3.01,0,1,0,3.0107,3.01A3.0137,3.0137,0,0,0,510.876,261.44Z"/><polygon class="cls-3" points="497.691 267.171 497.084 266.573 501.896 261.671 502.503 262.269 497.691 267.171"/><rect class="cls-3" x="507.4246" y="264.0197" width="6.8696" height="0.8531" transform="translate(116.2441 683.0008) rotate(-74.0546)"/><rect class="cls-2" x="457.9051" y="258.6542" width="23.4339" height="14.0624"/><path class="cls-3" d="M481.3389,273.1689H457.9053a.4531.4531,0,0,1-.4522-.4521V258.6543a.4532.4532,0,0,1,.4522-.4522h23.4336a.4531.4531,0,0,1,.4521.4522v14.0625A.453.453,0,0,1,481.3389,273.1689Zm-22.9815-.9043h22.5293V259.1064H458.3574Z"/><rect class="cls-3" x="462.1309" y="269.8916" width="3.835" height="1.1699"/><rect class="cls-3" x="473.2305" y="269.8916" width="3.835" height="1.1699"/><path class="cls-3" d="M464.0957,268.3125a3.8618,3.8618,0,1,1,3.8623-3.8623A3.8662,3.8662,0,0,1,464.0957,268.3125Zm0-6.8721a3.01,3.01,0,1,0,3.0107,3.01A3.0137,3.0137,0,0,0,464.0957,261.44Z"/><path class="cls-3" d="M475.1484,268.3125A3.8618,3.8618,0,1,1,479.01,264.45,3.8665,3.8665,0,0,1,475.1484,268.3125Zm0-6.8721a3.01,3.01,0,1,0,3.01,3.01A3.0139,3.0139,0,0,0,475.1484,261.44Z"/><polygon class="cls-3" points="461.963 267.171 461.355 266.573 466.167 261.671 466.774 262.269 461.963 267.171"/><rect class="cls-3" x="471.696" y="264.0197" width="6.8696" height="0.8531" transform="translate(90.3309 648.647) rotate(-74.0546)"/><rect class="cls-2" x="447.2568" y="63.6497" width="23.4339" height="14.0624"/><path class="cls-3" d="M470.69,78.1572H447.2568a.4451.4451,0,0,1-.4453-.4453V63.6494a.4451.4451,0,0,1,.4453-.4453H470.69a.4451.4451,0,0,1,.4453.4453V77.7119A.4451.4451,0,0,1,470.69,78.1572Zm-22.9883-.8906h22.543V64.0947h-22.543Z"/><rect class="cls-3" x="462.6299" y="65.4443" width="3.835" height="0.8906"/><rect class="cls-3" x="451.5303" y="65.4443" width="3.835" height="0.8906"/><path class="cls-3" d="M464.5,75.7969a3.8809,3.8809,0,1,1,3.8809-3.8809A3.8857,3.8857,0,0,1,464.5,75.7969Zm0-6.8711a2.99,2.99,0,1,0,2.99,2.99A2.9941,2.9941,0,0,0,464.5,68.9258Z"/><path class="cls-3" d="M453.4473,75.7969a3.8809,3.8809,0,1,1,3.8818-3.8809A3.8856,3.8856,0,0,1,453.4473,75.7969Zm0-6.8711a2.99,2.99,0,1,0,2.9912,2.99A2.9941,2.9941,0,0,0,453.4473,68.9258Z"/><rect class="cls-3" x="461.0962" y="71.4992" width="6.869" height="0.8922" transform="translate(87.7795 353.0564) rotate(-45.5321)"/><rect class="cls-3" x="450.03" y="71.4742" width="6.8696" height="0.8915" transform="translate(260.1116 488.354) rotate(-74.1063)"/><rect class="cls-2" x="411.9106" y="63.6497" width="23.4339" height="14.0624"/><path class="cls-3" d="M435.3447,78.1572H411.91a.4452.4452,0,0,1-.4454-.4453V63.6494a.4452.4452,0,0,1,.4454-.4453h23.4345a.4451.4451,0,0,1,.4453.4453V77.7119A.4451.4451,0,0,1,435.3447,78.1572Zm-22.9892-.8906h22.5439V64.0947H412.3555Z"/><rect class="cls-3" x="427.2842" y="65.4443" width="3.834" height="0.8906"/><rect class="cls-3" x="416.1846" y="65.4443" width="3.834" height="0.8906"/><path class="cls-3" d="M429.1533,75.7969a3.8809,3.8809,0,1,1,3.8809-3.8809A3.8856,3.8856,0,0,1,429.1533,75.7969Zm0-6.8711a2.99,2.99,0,1,0,2.99,2.99A2.9941,2.9941,0,0,0,429.1533,68.9258Z"/><path class="cls-3" d="M418.1016,75.7969a3.8809,3.8809,0,1,1,3.8808-3.8809A3.8856,3.8856,0,0,1,418.1016,75.7969Zm0-6.8711a2.99,2.99,0,1,0,2.99,2.99A2.9941,2.9941,0,0,0,418.1016,68.9258Z"/><rect class="cls-3" x="425.7497" y="71.4992" width="6.8697" height="0.8922" transform="translate(77.1936 327.8318) rotate(-45.5321)"/><rect class="cls-3" x="414.6833" y="71.4742" width="6.8696" height="0.8915" transform="translate(234.4447 454.3586) rotate(-74.1063)"/><rect class="cls-2" x="283.9352" y="63.6495" width="35.2564" height="14.0624"/><path class="cls-3" d="M319.1914,78.1572H283.9355a.4451.4451,0,0,1-.4453-.4453V63.6494a.4451.4451,0,0,1,.4453-.4453h35.2559a.4451.4451,0,0,1,.4453.4453V77.7119A.4451.4451,0,0,1,319.1914,78.1572Zm-34.81-.8906h34.3652V64.0947H284.3809Z"/><rect class="cls-3" x="299.6934" y="65.4443" width="3.835" height="0.8906"/><rect class="cls-3" x="288.209" y="65.4443" width="3.835" height="0.8906"/><path class="cls-3" d="M301.5635,75.7969a3.8809,3.8809,0,1,1,3.8808-3.8809A3.8856,3.8856,0,0,1,301.5635,75.7969Zm0-6.8711a2.99,2.99,0,1,0,2.99,2.99A2.9941,2.9941,0,0,0,301.5635,68.9258Z"/><path class="cls-3" d="M290.126,75.7969a3.8809,3.8809,0,1,1,3.8808-3.8809A3.8856,3.8856,0,0,1,290.126,75.7969Zm0-6.8711a2.99,2.99,0,1,0,2.99,2.99A2.9941,2.9941,0,0,0,290.126,68.9258Z"/><rect class="cls-3" x="298.1597" y="71.4992" width="6.869" height="0.8922" transform="translate(38.9814 236.7778) rotate(-45.5321)"/><rect class="cls-3" x="286.7087" y="71.4742" width="6.8696" height="0.8915" transform="translate(141.5163 331.2763) rotate(-74.1063)"/><rect class="cls-3" x="311.4258" y="65.4443" width="3.835" height="0.8906"/><path class="cls-3" d="M313.3428,75.7969a3.8809,3.8809,0,1,1,3.8818-3.8809A3.8856,3.8856,0,0,1,313.3428,75.7969Zm0-6.8711a2.99,2.99,0,1,0,2.9912,2.99A2.9941,2.9941,0,0,0,313.3428,68.9258Z"/><rect class="cls-3" x="312.8838" y="68.4908" width="0.8906" height="6.87" transform="translate(13.4694 187.8249) rotate(-34.0605)"/><rect class="cls-2" x="342.1777" y="63.6495" width="35.2564" height="14.0624"/><path class="cls-3" d="M377.4336,78.1572H342.1777a.4451.4451,0,0,1-.4453-.4453V63.6494a.4451.4451,0,0,1,.4453-.4453h35.2559a.4451.4451,0,0,1,.4453.4453V77.7119A.4451.4451,0,0,1,377.4336,78.1572Zm-34.8106-.8906h34.3653V64.0947H342.623Z"/><rect class="cls-3" x="357.9365" y="65.4443" width="3.834" height="0.8906"/><rect class="cls-3" x="346.4512" y="65.4443" width="3.835" height="0.8906"/><path class="cls-3" d="M359.8057,75.7969a3.8809,3.8809,0,1,1,3.8808-3.8809A3.8856,3.8856,0,0,1,359.8057,75.7969Zm0-6.8711a2.99,2.99,0,1,0,2.99,2.99A2.9941,2.9941,0,0,0,359.8057,68.9258Z"/><path class="cls-3" d="M348.3691,75.7969A3.8809,3.8809,0,1,1,352.25,71.916,3.8858,3.8858,0,0,1,348.3691,75.7969Zm0-6.8711a2.99,2.99,0,1,0,2.99,2.99A2.9943,2.9943,0,0,0,348.3691,68.9258Z"/><rect class="cls-3" x="356.4021" y="71.4992" width="6.8697" height="0.8922" transform="translate(56.4246 278.3423) rotate(-45.5321)"/><rect class="cls-3" x="344.9509" y="71.4742" width="6.8696" height="0.8915" transform="translate(183.8087 387.2919) rotate(-74.1063)"/><rect class="cls-3" x="369.668" y="65.4443" width="3.835" height="0.8906"/><path class="cls-3" d="M371.5859,75.7969a3.8809,3.8809,0,1,1,3.8809-3.8809A3.8856,3.8856,0,0,1,371.5859,75.7969Zm0-6.8711a2.99,2.99,0,1,0,2.99,2.99A2.9941,2.9941,0,0,0,371.5859,68.9258Z"/><rect class="cls-3" x="371.126" y="68.4908" width="0.8906" height="6.87" transform="translate(23.461 220.4445) rotate(-34.0605)"/><rect class="cls-2" x="423.0615" y="258.6542" width="23.4339" height="14.0624"/><path class="cls-3" d="M446.4951,273.1689H423.0615a.453.453,0,0,1-.4521-.4521V258.6543a.4531.4531,0,0,1,.4521-.4522h23.4336a.4532.4532,0,0,1,.4522.4522v14.0625A.4531.4531,0,0,1,446.4951,273.1689Zm-22.9814-.9043H446.043V259.1064H423.5137Z"/><rect class="cls-3" x="427.2871" y="269.8916" width="3.835" height="1.1699"/><rect class="cls-3" x="438.3867" y="269.8916" width="3.835" height="1.1699"/><path class="cls-3" d="M429.252,268.3125a3.8618,3.8618,0,1,1,3.8623-3.8623A3.8662,3.8662,0,0,1,429.252,268.3125Zm0-6.8721a3.01,3.01,0,1,0,3.0107,3.01A3.0137,3.0137,0,0,0,429.252,261.44Z"/><path class="cls-3" d="M440.3047,268.3125a3.8618,3.8618,0,1,1,3.8613-3.8623A3.8662,3.8662,0,0,1,440.3047,268.3125Zm0-6.8721a3.01,3.01,0,1,0,3.01,3.01A3.0137,3.0137,0,0,0,440.3047,261.44Z"/><polygon class="cls-3" points="427.119 267.171 426.512 266.573 431.324 261.671 431.932 262.269 427.119 267.171"/><rect class="cls-3" x="436.8523" y="264.0197" width="6.8696" height="0.8531" transform="translate(65.0595 615.1439) rotate(-74.0546)"/><rect class="cls-2" x="260.9492" y="78.3692" width="269.4415" height="179.6278" rx="1.7963" ry="1.7963"/><path class="cls-3" d="M528.5947,258.8877h-265.85a2.69,2.69,0,0,1-2.6865-2.6865V80.165a2.69,2.69,0,0,1,2.6865-2.6865h265.85a2.69,2.69,0,0,1,2.6866,2.6865V256.2012A2.69,2.69,0,0,1,528.5947,258.8877ZM262.7451,79.26a.9065.9065,0,0,0-.9053.9052V256.2012a.9065.9065,0,0,0,.9053.9052h265.85a.9064.9064,0,0,0,.9053-.9052V80.165a.9064.9064,0,0,0-.9053-.9052Z"/><path class="cls-3" d="M266.3379,253.9561a1.3489,1.3489,0,0,1-1.3467-1.3477L264.99,83.7578a1.3489,1.3489,0,0,1,1.3477-1.3467H525.002a1.3489,1.3489,0,0,1,1.3476,1.3467V252.6084a1.3489,1.3489,0,0,1-1.3476,1.3467Zm-.4492-170.1983.0009,168.8506a.4491.4491,0,0,0,.4483.4492l258.6641-.001a.449.449,0,0,0,.4492-.4482V83.7578a.449.449,0,0,0-.4492-.4482H266.3379a.449.449,0,0,0-.4492.4482Z"/><path class="cls-2" d="M438.659,72.3536h15.453a3.4228,3.4228,0,0,1,3.4228,3.4228v35.1822a3.4228,3.4228,0,0,1-3.4228,3.4228H438.6591a3.4228,3.4228,0,0,1-3.4228-3.4228V75.7763A3.4227,3.4227,0,0,1,438.659,72.3536Z"/><path class="cls-3" d="M454.1123,115.05H438.6592a4.0952,4.0952,0,0,1-4.0908-4.0908V75.7764a4.0952,4.0952,0,0,1,4.0908-4.0909h15.4531a4.0952,4.0952,0,0,1,4.0908,4.0909V110.959A4.0952,4.0952,0,0,1,454.1123,115.05ZM438.6592,73.0215a2.7586,2.7586,0,0,0-2.7549,2.7549V110.959a2.7587,2.7587,0,0,0,2.7549,2.7549h15.4531a2.7587,2.7587,0,0,0,2.7549-2.7549V75.7764a2.7586,2.7586,0,0,0-2.7549-2.7549Z"/><path class="cls-2" d="M455.6241,22.458a14.551,14.551,0,0,0-8.5507,2.5628,14.0738,14.0738,0,0,1-8.3666,2.512,15.6883,15.6883,0,0,1-3.47-.36V69.7761a2.5776,2.5776,0,0,0,2.5777,2.5775h17.1431a2.5776,2.5776,0,0,0,2.5778-2.5775v-47.21A17.7108,17.7108,0,0,0,455.6241,22.458Z"/><path class="cls-3" d="M454.957,73.0215H437.8135a3.2492,3.2492,0,0,1-3.2451-3.2451V27.1729a.6677.6677,0,0,1,.25-.5215.6746.6746,0,0,1,.5634-.1309,15.0842,15.0842,0,0,0,3.3252.3447,13.3592,13.3592,0,0,0,8.0205-2.416A15.1179,15.1179,0,0,1,455.624,21.79a18.4183,18.4183,0,0,1,1.9815.1114.667.667,0,0,1,.5976.664v47.211A3.2494,3.2494,0,0,1,454.957,73.0215ZM435.9043,27.9834v41.793a1.9113,1.9113,0,0,0,1.9092,1.9091H454.957a1.9121,1.9121,0,0,0,1.91-1.9091V23.1748c-.4336-.0332-.8389-.0488-1.2432-.0488a13.8242,13.8242,0,0,0-8.207,2.4668,14.8062,14.8062,0,0,1-8.71,2.6084A17.0808,17.0808,0,0,1,435.9043,27.9834Z"/><path class="cls-3" d="M438.707,21.6953A14.454,14.454,0,0,1,430.11,19.12a.4493.4493,0,0,1,.4609-.7715,14.7393,14.7393,0,0,0,16.2685.001,15.9913,15.9913,0,0,1,17.5645-.001.449.449,0,0,1-.4629.77,15.0986,15.0986,0,0,0-16.6367,0A14.451,14.451,0,0,1,438.707,21.6953Z"/><g id="GSM"><path class="cls-2" d="M513.8384,50.1806v18.743a3.43,3.43,0,0,1-3.43,3.43h-14.777a3.43,3.43,0,0,1-3.43-3.43V50.3511"/><path class="cls-3" d="M510.4082,73.0215H495.6318a4.1028,4.1028,0,0,1-4.0986-4.0977V50.3516a.668.668,0,1,1,1.3359,0V68.9238a2.7655,2.7655,0,0,0,2.7627,2.7617h14.7764a2.7655,2.7655,0,0,0,2.7627-2.7617V50.1807a.668.668,0,1,1,1.3359,0V68.9238A4.1027,4.1027,0,0,1,510.4082,73.0215Z"/><path class="cls-2" d="M513.8375,111.0812l.0008-35.2976a3.43,3.43,0,0,0-3.43-3.43H495.6315a3.43,3.43,0,0,0-3.43,3.43v35.1811a3.43,3.43,0,0,0,3.4029,3.43l14.776.1165A3.43,3.43,0,0,0,513.8375,111.0812Z"/><path class="cls-3" d="M510.41,115.1787h-.0352L495.6,115.0625a4.1093,4.1093,0,0,1-4.0664-4.0977V75.7832a4.1028,4.1028,0,0,1,4.0986-4.0977h14.7764a4.0962,4.0962,0,0,1,4.0977,4.0977v35.2979h0a4.0976,4.0976,0,0,1-4.0957,4.0976ZM495.6318,73.0215a2.7655,2.7655,0,0,0-2.7627,2.7617v35.1816a2.77,2.77,0,0,0,2.74,2.7618l14.7763.1162a2.6342,2.6342,0,0,0,1.9659-.8,2.744,2.744,0,0,0,.8183-1.9619V75.7832a2.7624,2.7624,0,0,0-2.7617-2.7617Zm18.2061,38.06h0Z"/><path class="cls-2" d="M502.69,25.0209a14.074,14.074,0,0,1-8.3665,2.5119A13.6926,13.6926,0,0,1,488.7,26.4856V43.7837c1.3216,2.3429,2.4164,4.5742,3.5016,6.5674,2.6116,4.7966,5.1647,8.18,10.6715,8.18,5.7124,0,8.2466-3.1763,10.9642-8.3511.9911-1.887,2.006-4.0323,3.2092-6.3968V23.5574a14.1276,14.1276,0,0,0-5.806-1.0994A14.9832,14.9832,0,0,0,502.69,25.0209Z"/><path class="cls-3" d="M502.873,59.1992c-6.1074,0-8.81-4.0342-11.2587-8.5283-.4414-.8105-.8838-1.6611-1.3428-2.541-.6748-1.2949-1.3721-2.6338-2.1533-4.0186a.666.666,0,0,1-.086-.3281V26.4854a.6678.6678,0,0,1,.9307-.6143,13.0323,13.0323,0,0,0,5.36.9941,13.3486,13.3486,0,0,0,8.0186-2.415l.0049-.0029A15.7211,15.7211,0,0,1,511.24,21.79a14.8682,14.8682,0,0,1,6.07,1.1543.6681.6681,0,0,1,.4043.6133V43.7832a.6649.6649,0,0,1-.0722.3027c-.52,1.02-1.0039,2.001-1.4658,2.9366-.6114,1.2353-1.1836,2.3935-1.7481,3.4687C511.4629,56.1387,508.7441,59.1992,502.873,59.1992ZM489.3682,43.6084c.7568,1.3486,1.4326,2.6465,2.0879,3.9033.455.874.8945,1.7168,1.332,2.5205,2.7666,5.0791,5.1924,7.8311,10.0849,7.8311,5.2208,0,7.5889-2.6914,10.3721-7.9932.5606-1.0664,1.1279-2.2148,1.7334-3.4394.4434-.8965.9063-1.833,1.4-2.8077V24.0059a13.8173,13.8173,0,0,0-5.1387-.88,14.3645,14.3645,0,0,0-8.208,2.4678l-.3427-.5733.3437.5733-.3437-.5733.34.5752a14.8,14.8,0,0,1-8.7061,2.6055,15.1145,15.1145,0,0,1-4.955-.7442Z"/><line class="cls-2" x1="502.8731" y1="40.7473" x2="502.9382" y2="24.8809"/><path class="cls-3" d="M502.8732,40.7473,502.27,24.8782a.6686.6686,0,0,1,1.3363-.0508c.0007.0185,0,.0382,0,.0563Z"/><path class="cls-3" d="M494.3232,21.6953A14.4441,14.4441,0,0,1,485.73,19.12a.4489.4489,0,1,1,.459-.7715,14.7387,14.7387,0,0,0,16.2666.002,15.9909,15.9909,0,0,1,17.5644-.0029.4492.4492,0,0,1-.4619.7705,15.0986,15.0986,0,0,0-16.6367,0A14.4531,14.4531,0,0,1,494.3232,21.6953Z"/></g><image width="1754" height="1240" transform="translate(327.6953 139.7396) scale(0.0758)" xlink:href="../Materials/wattsense-logo-print-page-001.jpg"/><path class="cls-1" d="M284.19,114.6143v2.5341h2.93v-2.5341h.7911v6.0576h-.7911v-2.84h-2.93v2.84h-.7823v-6.0576Z"/><path class="cls-1" d="M289.6768,118.6406a1.3931,1.3931,0,0,0,1.4912,1.51,2.8611,2.8611,0,0,0,1.205-.2246l.1348.5664a3.5238,3.5238,0,0,1-1.4473.27,2.02,2.02,0,0,1-2.1386-2.1933,2.1117,2.1117,0,0,1,2.04-2.3457,1.8431,1.8431,0,0,1,1.7969,2.05,3.051,3.051,0,0,1-.0264.3681Zm2.3183-.5664a1.1259,1.1259,0,0,0-1.0967-1.2851,1.31,1.31,0,0,0-1.2129,1.2851Z"/><path class="cls-1" d="M296.1445,120.6719l-.0625-.5479h-.0273a1.6211,1.6211,0,0,1-1.33.6465,1.2392,1.2392,0,0,1-1.33-1.249c0-1.0518.9346-1.627,2.6153-1.6182v-.09a.8961.8961,0,0,0-.9883-1.0059,2.1729,2.1729,0,0,0-1.1328.3233l-.18-.5215a2.7028,2.7028,0,0,1,1.43-.3867c1.33,0,1.6533.9082,1.6533,1.78v1.626a6.0483,6.0483,0,0,0,.0723,1.043Zm-.1162-2.22c-.8633-.0185-1.8428.1348-1.8428.98a.7.7,0,0,0,.7461.7549,1.0827,1.0827,0,0,0,1.0518-.7275.845.845,0,0,0,.0449-.252Z"/><path class="cls-1" d="M298.0654,117.6787c0-.5117-.0088-.9521-.0361-1.3564h.6924l.0263.8535h.0362a1.3059,1.3059,0,0,1,1.2041-.9531.8672.8672,0,0,1,.2246.0273v.7461a1.1986,1.1986,0,0,0-.2695-.0273,1.1107,1.1107,0,0,0-1.0606,1.0156,2.288,2.288,0,0,0-.0351.3691v2.3184h-.7823Z"/><path class="cls-1" d="M302.17,115.0723v1.25h1.1328v.6015H302.17V119.27c0,.5391.1533.8448.5938.8448a1.7416,1.7416,0,0,0,.458-.0538l.0361.5938a1.9494,1.9494,0,0,1-.7012.1074,1.0984,1.0984,0,0,1-.8535-.332,1.6151,1.6151,0,0,1-.3056-1.1328v-2.3731h-.6739v-.6015h.6739v-1.043Z"/><path class="cls-1" d="M304.1543,120.6719c.0176-.2969.0361-.7373.0361-1.1231V114.291h.7823v2.7324h.0175a1.6208,1.6208,0,0,1,1.4825-.8007,1.9526,1.9526,0,0,1,1.8339,2.2207,2.0665,2.0665,0,0,1-1.95,2.3271,1.5492,1.5492,0,0,1-1.456-.8174h-.0274l-.0361.7188Zm.8184-1.7432a1.5073,1.5073,0,0,0,.0351.2871,1.2214,1.2214,0,0,0,1.1865.9258c.8272,0,1.3213-.6738,1.3213-1.6719,0-.8711-.4492-1.6172-1.2939-1.6172a1.26,1.26,0,0,0-1.2041.9707,1.514,1.514,0,0,0-.0449.3233Z"/><path class="cls-1" d="M309.7412,118.6406a1.3932,1.3932,0,0,0,1.4912,1.51,2.8619,2.8619,0,0,0,1.2051-.2246l.1348.5664a3.5238,3.5238,0,0,1-1.4473.27,2.02,2.02,0,0,1-2.1387-2.1933,2.1117,2.1117,0,0,1,2.04-2.3457,1.843,1.843,0,0,1,1.7968,2.05,3.0553,3.0553,0,0,1-.0263.3681Zm2.3184-.5664a1.1259,1.1259,0,0,0-1.0967-1.2851,1.31,1.31,0,0,0-1.2129,1.2851Z"/><path class="cls-1" d="M316.208,120.6719l-.0625-.5479h-.0273a1.6211,1.6211,0,0,1-1.33.6465,1.2391,1.2391,0,0,1-1.33-1.249c0-1.0518.9346-1.627,2.6152-1.6182v-.09a.896.896,0,0,0-.9882-1.0059,2.1735,2.1735,0,0,0-1.1329.3233l-.18-.5215a2.7024,2.7024,0,0,1,1.43-.3867c1.33,0,1.6534.9082,1.6534,1.78v1.626a6.049,6.049,0,0,0,.0722,1.043Zm-.1162-2.22c-.8633-.0185-1.8428.1348-1.8428.98a.7.7,0,0,0,.7461.7549,1.0827,1.0827,0,0,0,1.0518-.7275.8482.8482,0,0,0,.0449-.252Z"/><path class="cls-1" d="M319.0449,115.0723v1.25h1.1328v.6015h-1.1328V119.27c0,.5391.1533.8448.5938.8448a1.7416,1.7416,0,0,0,.458-.0538l.0361.5938a1.9494,1.9494,0,0,1-.7012.1074,1.0984,1.0984,0,0,1-.8535-.332,1.6151,1.6151,0,0,1-.3056-1.1328v-2.3731h-.6739v-.6015h.6739v-1.043Z"/><path class="cls-4" d="M329.0358,124.5387s-5.3227-6.8564-5.3227-9.4119,1.5436-3.6775,2.5549-3.6775,1.4371.374,2.7678,2.8672c1.3306-2.4932,1.7564-2.8672,2.7678-2.8672s2.5548,1.1219,2.5548,3.6775S329.0358,124.5387,329.0358,124.5387Z"/><polygon class="cls-2" points="330.739 123.494 326.486 115.88 330.825 117.69 327.738 111.979 328.371 111.638 332.427 119.138 328.129 117.345 331.367 123.144 330.739 123.494"/><circle class="cls-3" cx="275.3385" cy="117.994" r="2.6779"/></g><path class="cls-2" d="M205.0729,190.6178A100.0954,100.0954,0,0,0,225.9407,142.7a7.8054,7.8054,0,0,1,7.3807-6.6661l62.3611-2.7862-63.77-22.0875a12.98,12.98,0,0,1-8.289-8.9658A100.1421,100.1421,0,0,0,183.8243,45.539C142.43,16.6775,84.8468,23.0088,50.7576,60.2227A100.3037,100.3037,0,0,0,62.572,207.1982C107.8735,242.8076,164.4963,242.2385,205.0729,190.6178Z"/><path class="cls-1" d="M288.8867,134.1191a.5671.5671,0,0,1-.0254-1.1337l3.836-.1709-3.6289-1.2569a.5673.5673,0,1,1,.3711-1.0722l9.2285,3.1962-9.7559.4366Z"/><path class="cls-1" d="M128.1777,232.5049a89.855,89.855,0,0,1-10.0869-.5742.5673.5673,0,0,1-.5-.627.5746.5746,0,0,1,.627-.5,87.3922,87.3922,0,0,0,13.6181.4893.5669.5669,0,1,1,.0469,1.1328C130.6465,232.4775,129.4,232.5049,128.1777,232.5049Zm8.2442-.3936a.5672.5672,0,0,1-.0528-1.1318,85.1636,85.1636,0,0,0,13.4053-2.3818.5673.5673,0,1,1,.2871,1.0976,86.39,86.39,0,0,1-13.5849,2.4131A.4894.4894,0,0,1,136.4219,232.1113Zm-22.8-.8056a.6042.6042,0,0,1-.0928-.0078,98.1474,98.1474,0,0,1-13.4219-3.2051.5671.5671,0,1,1,.34-1.0821,96.7709,96.7709,0,0,0,13.2656,3.168.5673.5673,0,0,1-.0908,1.127Zm40.6894-2.8672a.5671.5671,0,0,1-.1719-1.1074,89.1639,89.1639,0,0,0,12.6211-5.1348.5673.5673,0,1,1,.5059,1.0156,90.43,90.43,0,0,1-12.7832,5.1992A.5528.5528,0,0,1,154.3115,228.4385Zm-58.3681-1.7871a.5824.5824,0,0,1-.1934-.0342,111.53,111.53,0,0,1-12.6406-5.5156.5669.5669,0,0,1,.5156-1.01,110.3674,110.3674,0,0,0,12.5117,5.459.5673.5673,0,0,1-.1933,1.1006Zm75.1152-5.52a.5672.5672,0,0,1-.2783-1.0616,100.524,100.524,0,0,0,11.4062-7.4775.5668.5668,0,1,1,.6836.9043,101.5179,101.5179,0,0,1-11.5351,7.5615A.5584.5584,0,0,1,171.0586,221.1309Zm-91.7266-2.127a.5579.5579,0,0,1-.2763-.0732,128.182,128.182,0,0,1-11.6338-7.3916.5672.5672,0,0,1,.6582-.9239,127.0359,127.0359,0,0,0,11.53,7.3272.5672.5672,0,0,1-.2784,1.0615Zm106.7871-8.2285a.5673.5673,0,0,1-.36-1.0049,118.3481,118.3481,0,0,0,10.0039-9.291.567.567,0,0,1,.8184.7851,119.3949,119.3949,0,0,1-10.1016,9.3809A.5659.5659,0,0,1,186.1191,210.7754Zm-122.05-1.8486a.5613.5613,0,0,1-.3447-.1172q-.7529-.5772-1.5029-1.166a103.3094,103.3094,0,0,1-8.91-7.878.567.567,0,0,1,.7989-.8047,102.1115,102.1115,0,0,0,8.8125,7.792q.744.5845,1.4912,1.1563a.5674.5674,0,0,1-.3448,1.0176Zm135.2159-10.8409a.56.56,0,0,1-.378-.1455.5658.5658,0,0,1-.0439-.8c1.958-2.1855,3.8974-4.498,5.7646-6.873.97-1.2168,1.9258-2.4746,2.8438-3.7422a.567.567,0,1,1,.9179.666c-.9277,1.28-1.8945,2.5527-2.873,3.78-1.88,2.3906-3.835,4.7217-5.81,6.9248A.5644.5644,0,0,1,199.2852,198.0859ZM50.5391,196.6338a.5653.5653,0,0,1-.417-.1836,100.8016,100.8016,0,0,1-8.6172-10.7725.5669.5669,0,0,1,.9316-.6464,99.8016,99.8016,0,0,0,8.52,10.6513.5674.5674,0,0,1-.417.9512ZM210.5313,183.66a.5609.5609,0,0,1-.3106-.0938.5668.5668,0,0,1-.1621-.7851A100.14,100.14,0,0,0,216.7627,170.9a.567.567,0,1,1,1.0234.4883,101.2863,101.2863,0,0,1-6.78,12.0156A.5671.5671,0,0,1,210.5313,183.66ZM39.4541,182.1055a.5666.5666,0,0,1-.4814-.2666,100.8226,100.8226,0,0,1-6.5059-12.16.5665.5665,0,1,1,1.0332-.4648,99.9048,99.9048,0,0,0,6.4336,12.0234.5676.5676,0,0,1-.48.8682Zm179.6973-14.57a.5678.5678,0,0,1-.5225-.7881,99.1986,99.1986,0,0,0,4.4268-12.9014.5671.5671,0,1,1,1.0957.293,100.4463,100.4463,0,0,1-4.4776,13.05A.5689.5689,0,0,1,219.1514,167.5352ZM31.2031,165.8008a.5671.5671,0,0,1-.5273-.3584,101.3529,101.3529,0,0,1-4.1865-13.1436.567.567,0,0,1,1.1015-.2695,100.0577,100.0577,0,0,0,4.14,12.9951.5676.5676,0,0,1-.3184.7363A.5824.5824,0,0,1,31.2031,165.8008Zm193.4844-15.6875a.577.577,0,0,1-.1221-.0137.5668.5668,0,0,1-.4326-.6748c.4922-2.2461.9121-4.5361,1.2471-6.8076a8.3693,8.3693,0,0,1,3.8476-5.8858.5669.5669,0,0,1,.6016.961,7.2378,7.2378,0,0,0-3.3281,5.0908c-.3389,2.2969-.7627,4.6133-1.2608,6.8838A.5667.5667,0,0,1,224.6875,150.1133ZM26.0527,148.2627a.5683.5683,0,0,1-.5556-.458,101.7538,101.7538,0,0,1-1.7393-13.6836.5684.5684,0,0,1,.5332-.6.5935.5935,0,0,1,.6.5332,100.4445,100.4445,0,0,0,1.72,13.5312.5677.5677,0,0,1-.4473.6661A.6072.6072,0,0,1,26.0527,148.2627Zm207.8291-11.6865a.5672.5672,0,0,1-.0254-1.1338l13.7159-.6123h.0254a.5667.5667,0,0,1,.0253,1.1328l-13.7158.6123Zm18.2881-.8174a.5667.5667,0,0,1-.0254-1.1328l13.7159-.6123a.5743.5743,0,0,1,.5917.541.5674.5674,0,0,1-.541.5918l-13.7158.6123Zm18.2881-.8164a.5672.5672,0,0,1-.0254-1.1338l13.7158-.6123a.5433.5433,0,0,1,.5918.541.5674.5674,0,0,1-.541.5918l-13.7158.6123Zm14.4717-4.8516a.5882.5882,0,0,1-.1856-.0312l-12.9736-4.4932a.5684.5684,0,0,1-.3506-.7217.5741.5741,0,0,1,.7217-.3506l12.9736,4.4932a.5673.5673,0,0,1-.1855,1.1035Zm-260.7686-.01a.5655.5655,0,0,1-.5664-.56c-.0049-.43-.0088-.8594-.0088-1.2891a101.0925,101.0925,0,0,1,.7745-12.4863.5669.5669,0,1,1,1.125.1406,99.9368,99.9368,0,0,0-.7647,12.3457q0,.6387.0068,1.2754a.5656.5656,0,0,1-.5595.5733ZM267.6318,124.1a.5871.5871,0,0,1-.1855-.0312l-12.9736-4.4932a.5673.5673,0,1,1,.3711-1.0723l12.9736,4.4932a.5673.5673,0,0,1-.1856,1.1035Zm-17.2978-5.9912a.5855.5855,0,0,1-.1856-.0313l-12.9736-4.4941a.5673.5673,0,1,1,.3711-1.0723l12.9736,4.4942a.5673.5673,0,0,1-.1855,1.1035Zm-17.2979-5.9912a.5642.5642,0,0,1-.1855-.0322l-1.124-.39a13.5561,13.5561,0,0,1-8.6036-9.1807.5667.5667,0,0,1,1.0918-.3046,12.4231,12.4231,0,0,0,7.8829,8.414l1.124.3906a.567.567,0,0,1-.1856,1.1026Zm-207.4414-.2588a.5368.5368,0,0,1-.0967-.0088.5666.5666,0,0,1-.4628-.6543A100.6737,100.6737,0,0,1,28.293,97.7881a.5665.5665,0,0,1,1.08.3428,99.6729,99.6729,0,0,0-3.2207,13.2558A.5668.5668,0,0,1,25.5947,111.8584ZM222.4,98.5332a.5674.5674,0,0,1-.541-.3984,100.2567,100.2567,0,0,0-4.9531-12.708.5666.5666,0,1,1,1.0253-.4825,101.2612,101.2612,0,0,1,5.01,12.8526.5686.5686,0,0,1-.541.7363Zm-192.084-4.335a.58.58,0,0,1-.1963-.0351.5673.5673,0,0,1-.3359-.7285,100.7582,100.7582,0,0,1,5.6494-12.586.5669.5669,0,1,1,1,.5342,99.4764,99.4764,0,0,0-5.585,12.4443A.5689.5689,0,0,1,30.3164,94.1982ZM215.374,81.6592a.5666.5666,0,0,1-.501-.3028,99.4667,99.4667,0,0,0-7.1865-11.5908.5667.5667,0,1,1,.92-.6621,100.3746,100.3746,0,0,1,7.2686,11.7236.568.568,0,0,1-.501.8321ZM38.1807,77.6973a.5679.5679,0,0,1-.4864-.8565,102.7027,102.7027,0,0,1,7.8321-11.3584.5672.5672,0,1,1,.8886.7051,101.5559,101.5559,0,0,0-7.7461,11.2314A.5654.5654,0,0,1,38.1807,77.6973ZM205.3887,66.35a.566.566,0,0,1-.4444-.2158,100.072,100.072,0,0,0-9.18-10.0869.5671.5671,0,1,1,.7852-.8184,101.2513,101.2513,0,0,1,9.2832,10.2022.5659.5659,0,0,1-.0928.7959A.5589.5589,0,0,1,205.3887,66.35ZM48.8926,62.8809a.5675.5675,0,0,1-.4278-.9395q.9215-1.059,1.875-2.1016a100.6456,100.6456,0,0,1,7.85-7.6816.5674.5674,0,0,1,.748.8535,99.4,99.4,0,0,0-7.7617,7.5938q-.9448,1.0313-1.8555,2.08A.5657.5657,0,0,1,48.8926,62.8809Zm143.8916-9.7676a.5665.5665,0,0,1-.3731-.1406A102.9373,102.9373,0,0,0,183.5,46.0039q-.9609-.6694-1.9336-1.3144a.5672.5672,0,1,1,.627-.9454q.9828.6534,1.955,1.33a103.8526,103.8526,0,0,1,9.0088,7.0449.5674.5674,0,0,1-.373.9942ZM62.07,50.2178a.5674.5674,0,0,1-.3535-1.0108A101.1509,101.1509,0,0,1,73.06,41.3623a.5671.5671,0,1,1,.58.9746,99.89,99.89,0,0,0-11.2158,7.7569A.5675.5675,0,0,1,62.07,50.2178Zm115.9365-7.874a.5619.5619,0,0,1-.29-.0811,99.4441,99.4441,0,0,0-12.1582-6.1865.5667.5667,0,1,1,.4434-1.043A100.4636,100.4636,0,0,1,178.2988,41.29a.5673.5673,0,0,1-.292,1.0538ZM77.334,40.167A.5673.5673,0,0,1,77.0664,39.1,102.6092,102.6092,0,0,1,89.64,33.43a.5667.5667,0,1,1,.3946,1.0625A101.41,101.41,0,0,0,77.6016,40.1.5729.5729,0,0,1,77.334,40.167Zm84.1943-5.7412a.5658.5658,0,0,1-.1982-.0362,100.8544,100.8544,0,0,0-13.0791-3.88.5665.5665,0,0,1,.248-1.1055,101.8807,101.8807,0,0,1,13.2276,3.9228.5673.5673,0,0,1-.1983,1.0987ZM94.16,33.0293a.5674.5674,0,0,1-.1739-1.1074,104.464,104.464,0,0,1,13.3809-3.3477.5667.5667,0,0,1,.2012,1.1153A103.2118,103.2118,0,0,0,94.334,33.002.5679.5679,0,0,1,94.16,33.0293Zm49.7285-3.4053a.5681.5681,0,0,1-.1-.0088,102.5215,102.5215,0,0,0-13.5635-1.4814.5673.5673,0,0,1-.543-.59.5862.5862,0,0,1,.59-.5429,103.7633,103.7633,0,0,1,13.7138,1.497.5673.5673,0,0,1-.0976,1.126Zm-31.9033-.6406a.567.567,0,0,1-.0752-1.1289,105.0741,105.0741,0,0,1,13.7627-.9443h.0009a.5669.5669,0,0,1,.001,1.1337,103.814,103.814,0,0,0-13.6123.9336A.5245.5245,0,0,1,111.9854,28.9834Z"/><path class="cls-1" d="M75.1523,93.5186v6.5058h7.5215V93.5186h2.03v15.55h-2.03v-7.2911H75.1523v7.2911H73.1445v-15.55Z"/><path class="cls-1" d="M89.251,103.8545a3.5776,3.5776,0,0,0,3.83,3.876,7.34,7.34,0,0,0,3.0918-.5772l.3457,1.4541a9.0546,9.0546,0,0,1-3.7139.6914c-3.4385,0-5.4912-2.2607-5.4912-5.6289s1.9834-6.0215,5.2373-6.0215c3.6445,0,4.6142,3.2071,4.6142,5.26a7.7881,7.7881,0,0,1-.0693.9463ZM95.2031,102.4c.0235-1.292-.53-3.2988-2.8144-3.2988-2.0528,0-2.9532,1.8916-3.1143,3.2988Z"/><path class="cls-1" d="M105.8652,109.0684l-.1611-1.4073h-.0693a4.1585,4.1585,0,0,1-3.4151,1.6612,3.181,3.181,0,0,1-3.414-3.2071c0-2.6992,2.3994-4.1757,6.7138-4.1523v-.2315a2.302,2.302,0,0,0-2.5381-2.5839,5.5652,5.5652,0,0,0-2.9072.831l-.4609-1.3379a6.9222,6.9222,0,0,1,3.668-.9922c3.415,0,4.2451,2.33,4.2451,4.5674v4.1768a15.7052,15.7052,0,0,0,.1845,2.6758Zm-.3-5.6983c-2.2148-.0469-4.73.3457-4.73,2.5147a1.7968,1.7968,0,0,0,1.9151,1.9375,2.779,2.779,0,0,0,2.6992-1.8682,2.1193,2.1193,0,0,0,.1152-.6465Z"/><path class="cls-1" d="M110.8047,101.3857c0-1.3154-.0234-2.4453-.0928-3.4834h1.7764l.0693,2.1915h.0928a3.3489,3.3489,0,0,1,3.0908-2.4454,2.2072,2.2072,0,0,1,.5772.0684v1.915a3.0653,3.0653,0,0,0-.6924-.0693,2.8474,2.8474,0,0,0-2.7217,2.6074,5.6349,5.6349,0,0,0-.0928.9463v5.9522h-2.0068Z"/><path class="cls-1" d="M121.35,94.6953v3.207h2.9072v1.545H121.35v6.0215c0,1.3847.3926,2.1689,1.5225,2.1689a4.563,4.563,0,0,0,1.1767-.1377l.0918,1.5225a4.9745,4.9745,0,0,1-1.7988.2763,2.8157,2.8157,0,0,1-2.1924-.8535,4.1394,4.1394,0,0,1-.7842-2.9072V99.4473h-1.73v-1.545h1.73V95.2256Z"/><path class="cls-1" d="M126.4492,109.0684c.0459-.7618.0928-1.8916.0928-2.8838V92.6875h2.0068v7.0137h.0459a4.16,4.16,0,0,1,3.8067-2.0528c2.7685,0,4.73,2.3067,4.707,5.6983,0,3.9912-2.5146,5.9756-5.0068,5.9756a3.978,3.978,0,0,1-3.7373-2.1h-.0694l-.0918,1.8457Zm2.1-4.4756a3.8269,3.8269,0,0,0,.0918.7383,3.1334,3.1334,0,0,0,3.0459,2.3759c2.1221,0,3.3916-1.73,3.3916-4.291,0-2.2383-1.1533-4.1533-3.3222-4.1533a3.2368,3.2368,0,0,0-3.0918,2.4922,4.018,4.018,0,0,0-.1153.83Z"/><path class="cls-1" d="M140.8018,103.8545a3.5776,3.5776,0,0,0,3.83,3.876,7.34,7.34,0,0,0,3.0918-.5772l.3457,1.4541a9.054,9.054,0,0,1-3.7138.6914c-3.4385,0-5.4912-2.2607-5.4912-5.6289s1.9834-6.0215,5.2373-6.0215c3.6445,0,4.6142,3.2071,4.6142,5.26a7.8088,7.8088,0,0,1-.0693.9463Zm5.9521-1.4541c.0234-1.292-.53-3.2988-2.8144-3.2988-2.0528,0-2.9532,1.8916-3.1143,3.2988Z"/><path class="cls-1" d="M157.415,109.0684l-.1611-1.4073h-.0693a4.16,4.16,0,0,1-3.4151,1.6612,3.181,3.181,0,0,1-3.414-3.2071c0-2.6992,2.3994-4.1757,6.7138-4.1523v-.2315a2.302,2.302,0,0,0-2.538-2.5839,5.5626,5.5626,0,0,0-2.9073.831l-.4609-1.3379a6.9222,6.9222,0,0,1,3.668-.9922c3.415,0,4.2451,2.33,4.2451,4.5674v4.1768a15.7052,15.7052,0,0,0,.1845,2.6758Zm-.3-5.6983c-2.2148-.0469-4.7295.3457-4.7295,2.5147a1.7968,1.7968,0,0,0,1.9151,1.9375A2.779,2.779,0,0,0,157,105.9541a2.1193,2.1193,0,0,0,.1152-.6465Z"/><path class="cls-1" d="M164.708,94.6953v3.207h2.9072v1.545H164.708v6.0215c0,1.3847.3916,2.1689,1.5225,2.1689a4.5568,4.5568,0,0,0,1.1767-.1377l.0928,1.5225a4.9847,4.9847,0,0,1-1.8.2763,2.8142,2.8142,0,0,1-2.1924-.8535,4.1394,4.1394,0,0,1-.7842-2.9072V99.4473h-1.73v-1.545h1.73V95.2256Z"/><path class="cls-4" d="M185.9126,117.7119s-13.0382-16.7952-13.0382-23.0552,3.7811-9.0083,6.2584-9.0083,3.52.9161,6.78,7.0235c3.26-6.1074,4.3026-7.0235,6.78-7.0235s6.2583,2.7483,6.2583,9.0083S185.9126,117.7119,185.9126,117.7119Z"/><polygon class="cls-2" points="190.084 115.152 179.668 96.501 190.296 100.937 182.733 86.946 184.284 86.108 194.218 104.483 183.691 100.091 191.623 114.293 190.084 115.152"/><circle class="cls-1" cx="57.6083" cy="102.5144" r="6.554"/><g id="Hearts"><path class="cls-3" d="M98.27,162.4492h-4.99a.5235.5235,0,0,1,0-1.0469h4.99a.5235.5235,0,1,1,0,1.0469Z"/><polygon class="cls-3" points="95.769 164.055 97.899 161.926 95.769 159.797 97.577 159.797 99.705 161.926 97.577 164.055 95.769 164.055"/><path class="cls-3" d="M134.0381,162.4492h-4.99a.5235.5235,0,1,1,0-1.0469h4.99a.5235.5235,0,0,1,0,1.0469Z"/><polygon class="cls-3" points="131.537 164.055 133.667 161.926 131.537 159.797 133.345 159.797 135.473 161.926 133.345 164.055 131.537 164.055"/><path class="cls-3" d="M169.8057,162.4492h-4.99a.5235.5235,0,0,1,0-1.0469h4.99a.5235.5235,0,0,1,0,1.0469Z"/><polygon class="cls-3" points="167.305 164.055 169.435 161.926 167.305 159.797 169.113 159.797 171.241 161.926 169.113 164.055 167.305 164.055"/><path class="cls-5" d="M66.3154,162.4492H60.0332a.5235.5235,0,0,1,0-1.0469h6.2822a.5235.5235,0,1,1,0,1.0469Z"/><path class="cls-5" d="M57.5908,162.4492H50.2617a.5235.5235,0,0,1,0-1.0469h7.3291a.5235.5235,0,1,1,0,1.0469Z"/><path class="cls-5" d="M47.8213,162.4492H41.0137l.1054-6.8037a.5071.5071,0,0,1,.5313-.5156.5241.5241,0,0,1,.5156.5312l-.09,5.7412h5.7451a.5235.5235,0,0,1,0,1.0469Z"/><path class="cls-5" d="M41.6973,152.5742H41.69a.5242.5242,0,0,1-.5157-.5312c.0479-3.1465.1026-6.8516.1592-10.8194a.5237.5237,0,0,1,.5234-.5156h.0079a.5249.5249,0,0,1,.5156.5313c-.0567,3.9677-.1113,7.6728-.1592,10.8193A.5244.5244,0,0,1,41.6973,152.5742Zm.21-14.4267h-.0078a.5242.5242,0,0,1-.5156-.5313c.05-3.5381.1-7.208.1445-10.8193a.5239.5239,0,0,1,.5235-.5166h.0068a.5241.5241,0,0,1,.5166.53c-.0449,3.6114-.0947,7.2813-.1445,10.8213A.5231.5231,0,0,1,41.9072,138.1475Zm.1895-14.4248h-.0059a.5249.5249,0,0,1-.5176-.5293c.0459-3.8272.087-7.5118.1172-10.8194a.5235.5235,0,0,1,1.0469.01c-.03,3.3076-.0713,6.9941-.1172,10.8213A.5241.5241,0,0,1,42.0967,123.7227Z"/><path class="cls-5" d="M42.2451,109.3174h-.0039a.524.524,0,0,1-.52-.5274c.0185-2.4521.0293-4.5879.0293-6.2754v-.5234h5.3574a.5235.5235,0,0,1,0,1.0469H42.7969c-.002,1.6-.0117,3.5508-.0283,5.76A.524.524,0,0,1,42.2451,109.3174Z"/><polygon class="cls-5" points="63.809 159.797 65.939 161.926 63.809 164.055 65.617 164.055 67.745 161.926 65.617 159.797 63.809 159.797"/><circle class="cls-1" cx="78.6083" cy="161.5144" r="6.554"/><circle class="cls-4" cx="114.3764" cy="161.5144" r="6.554"/><circle class="cls-4" cx="185.9126" cy="161.5144" r="6.554"/><circle class="cls-1" cx="150.1445" cy="161.5144" r="6.554"/></g></g></g></g></svg>