<svg xmlns="http://www.w3.org/2000/svg" xmlns:xlink="http://www.w3.org/1999/xlink" width="190.3529mm" height="273.0028mm" viewBox="0 0 539.583 773.8662"><defs><style>.cls-1{fill:#808285;}.cls-2{fill:#fff;}.cls-3{fill:#00aeef;}</style></defs><title>19. LoRa l&amp;apos;antenne</title><g id="Layer_2" data-name="Layer 2"><g id="_19._LoRa_l_antenne" data-name="19. LoRa l&apos;antenne"><g id="Expanded"><path class="cls-1" d="M530.5791,773.8662H9.0049A9.0148,9.0148,0,0,1,0,764.8623V9.0039A9.0148,9.0148,0,0,1,9.0049,0H530.5791a9.0141,9.0141,0,0,1,9.0039,9.0039V764.8623A9.0141,9.0141,0,0,1,530.5791,773.8662ZM9.0049,1A8.0135,8.0135,0,0,0,1,9.0039V764.8623a8.0135,8.0135,0,0,0,8.0049,8.0039H530.5791a8.0133,8.0133,0,0,0,8.0039-8.0039V9.0039A8.0133,8.0133,0,0,0,530.5791,1Z"/><rect class="cls-2" x="437.7629" y="727.8231" width="39.8154" height="23.8928"/><path class="cls-1" d="M477.5781,752.5234H437.7627a.8072.8072,0,0,1-.8076-.8076V727.8232a.8073.8073,0,0,1,.8076-.8076h39.8154a.8073.8073,0,0,1,.8076.8076v23.8926A.8072.8072,0,0,1,477.5781,752.5234ZM438.57,750.9082h38.2V728.6309h-38.2Z"/><rect class="cls-1" x="444.9434" y="746.8643" width="6.5146" height="2.0918"/><rect class="cls-1" x="463.8018" y="746.8643" width="6.5156" height="2.0918"/><path class="cls-1" d="M448.2813,744.2705a6.5991,6.5991,0,1,1,6.6-6.5986A6.6059,6.6059,0,0,1,448.2813,744.2705Zm0-11.6748a5.0757,5.0757,0,1,0,5.0761,5.0762A5.0819,5.0819,0,0,0,448.2813,732.5957Z"/><path class="cls-1" d="M467.06,744.2705a6.5991,6.5991,0,1,1,6.6-6.5986A6.6061,6.6061,0,0,1,467.06,744.2705Zm0-11.6748a5.0757,5.0757,0,1,0,5.0761,5.0762A5.0821,5.0821,0,0,0,467.06,732.5957Z"/><rect class="cls-1" x="442.3934" y="736.8587" width="11.6712" height="1.5248" transform="translate(-392.1127 540.5934) rotate(-45.519)"/><rect class="cls-1" x="461.1945" y="736.9019" width="11.6726" height="1.5233" transform="translate(-370.4668 984.3681) rotate(-74.0748)"/><rect class="cls-2" x="377.0585" y="727.8231" width="39.8154" height="23.8928"/><path class="cls-1" d="M416.874,752.5234H377.0586a.8072.8072,0,0,1-.8076-.8076V727.8232a.8073.8073,0,0,1,.8076-.8076H416.874a.8073.8073,0,0,1,.8076.8076v23.8926A.8072.8072,0,0,1,416.874,752.5234Zm-39.0078-1.6152h38.2V728.6309h-38.2Z"/><rect class="cls-1" x="384.2383" y="746.8643" width="6.5156" height="2.0918"/><rect class="cls-1" x="403.0977" y="746.8643" width="6.5146" height="2.0918"/><path class="cls-1" d="M387.5771,744.2705a6.5991,6.5991,0,1,1,6.6-6.5986A6.6059,6.6059,0,0,1,387.5771,744.2705Zm0-11.6748a5.0757,5.0757,0,1,0,5.0762,5.0762A5.0819,5.0819,0,0,0,387.5771,732.5957Z"/><path class="cls-1" d="M406.3555,744.2705a6.5991,6.5991,0,1,1,6.5986-6.5986A6.6061,6.6061,0,0,1,406.3555,744.2705Zm0-11.6748a5.0757,5.0757,0,1,0,5.0752,5.0762A5.0821,5.0821,0,0,0,406.3555,732.5957Z"/><rect class="cls-1" x="381.6892" y="736.8587" width="11.6705" height="1.5248" transform="translate(-410.2832 497.2817) rotate(-45.519)"/><rect class="cls-1" x="400.49" y="736.9019" width="11.6723" height="1.5233" transform="translate(-414.5151 925.9933) rotate(-74.0748)"/><rect class="cls-2" x="357.4405" y="396.5003" width="39.8154" height="23.8928"/><path class="cls-1" d="M397.2559,421.2012H357.44a.8073.8073,0,0,1-.8076-.8076V396.5a.8072.8072,0,0,1,.8076-.8076h39.8155a.8073.8073,0,0,1,.8076.8076v23.8936A.8074.8074,0,0,1,397.2559,421.2012Zm-39.0079-1.6153h38.2V397.3076h-38.2Z"/><rect class="cls-1" x="383.5605" y="399.2598" width="6.5156" height="2.0918"/><rect class="cls-1" x="364.7021" y="399.2598" width="6.5146" height="2.0918"/><path class="cls-1" d="M386.7373,417.1436a6.5992,6.5992,0,1,1,6.5986-6.5987A6.6062,6.6062,0,0,1,386.7373,417.1436Zm0-11.6748a5.0757,5.0757,0,1,0,5.0752,5.0761A5.0822,5.0822,0,0,0,386.7373,405.4688Z"/><path class="cls-1" d="M367.959,417.1436a6.5992,6.5992,0,1,1,6.6-6.5987A6.6059,6.6059,0,0,1,367.959,417.1436Zm0-11.6748a5.0757,5.0757,0,1,0,5.0762,5.0761A5.0819,5.0819,0,0,0,367.959,405.4688Z"/><rect class="cls-1" x="380.9548" y="409.8323" width="11.6705" height="1.5248" transform="translate(-177.1755 398.87) rotate(-45.519)"/><rect class="cls-1" x="362.1521" y="409.7906" width="11.6723" height="1.5233" transform="translate(-127.7768 651.7691) rotate(-74.0748)"/><rect class="cls-2" x="297.3855" y="396.5003" width="39.8154" height="23.8928"/><path class="cls-1" d="M337.2012,421.2012H297.3857a.8074.8074,0,0,1-.8076-.8076V396.5a.8073.8073,0,0,1,.8076-.8076h39.8155a.8072.8072,0,0,1,.8076.8076v23.8936A.8073.8073,0,0,1,337.2012,421.2012Zm-39.0078-1.6153h38.2V397.3076h-38.2Z"/><rect class="cls-1" x="323.5059" y="399.2598" width="6.5146" height="2.0918"/><rect class="cls-1" x="304.6465" y="399.2598" width="6.5156" height="2.0918"/><path class="cls-1" d="M326.6826,417.1436a6.5992,6.5992,0,1,1,6.5987-6.5987A6.6062,6.6062,0,0,1,326.6826,417.1436Zm0-11.6748a5.0757,5.0757,0,1,0,5.0752,5.0761A5.0822,5.0822,0,0,0,326.6826,405.4688Z"/><path class="cls-1" d="M307.9043,417.1436a6.5992,6.5992,0,1,1,6.6-6.5987A6.6061,6.6061,0,0,1,307.9043,417.1436Zm0-11.6748a5.0757,5.0757,0,1,0,5.0762,5.0761A5.0822,5.0822,0,0,0,307.9043,405.4688Z"/><rect class="cls-1" x="320.8993" y="409.8323" width="11.6712" height="1.5248" transform="translate(-195.1516 356.0216) rotate(-45.519)"/><rect class="cls-1" x="302.0968" y="409.7906" width="11.6726" height="1.5233" transform="translate(-171.3538 594.0188) rotate(-74.0748)"/><rect class="cls-2" x="79.9488" y="396.5001" width="59.9024" height="23.8928"/><path class="cls-1" d="M139.8516,421.2H79.9482a.807.807,0,0,1-.8076-.8076l.001-23.8926a.8072.8072,0,0,1,.8076-.8076h59.9024a.8072.8072,0,0,1,.8076.8076v23.8926A.8072.8072,0,0,1,139.8516,421.2ZM80.7559,419.585h58.288V397.3076H80.7568Z"/><rect class="cls-1" x="106.7236" y="399.2598" width="6.5146" height="2.0918"/><rect class="cls-1" x="87.21" y="399.2598" width="6.5156" height="2.0918"/><path class="cls-1" d="M109.9,417.1436a6.5992,6.5992,0,1,1,6.5986-6.5987A6.6061,6.6061,0,0,1,109.9,417.1436Zm0-11.6748a5.0757,5.0757,0,1,0,5.0752,5.0761A5.0822,5.0822,0,0,0,109.9,405.4688Z"/><path class="cls-1" d="M90.4678,417.1436a6.5992,6.5992,0,1,1,6.5986-6.5987A6.6061,6.6061,0,0,1,90.4678,417.1436Zm0-11.6748a5.0757,5.0757,0,1,0,5.0752,5.0761A5.0821,5.0821,0,0,0,90.4678,405.4688Z"/><rect class="cls-1" x="104.117" y="409.8323" width="11.6712" height="1.5248" transform="translate(-260.0404 201.3513) rotate(-45.519)"/><rect class="cls-1" x="84.6603" y="409.7906" width="11.6726" height="1.5233" transform="translate(-329.1296 384.9273) rotate(-74.0748)"/><rect class="cls-1" x="126.6572" y="399.2598" width="6.5146" height="2.0918"/><path class="cls-1" d="M129.9141,417.1436a6.5992,6.5992,0,1,1,6.6-6.5987A6.606,6.606,0,0,1,129.9141,417.1436Zm0-11.6748a5.0757,5.0757,0,1,0,5.0761,5.0761A5.0819,5.0819,0,0,0,129.9141,405.4688Z"/><rect class="cls-1" x="129.129" y="404.7264" width="1.5233" height="11.6722" transform="translate(-207.6559 143.1761) rotate(-34.0597)"/><rect class="cls-2" x="178.9058" y="396.5001" width="59.9024" height="23.8928"/><path class="cls-1" d="M238.8086,421.2H178.9053a.8068.8068,0,0,1-.8076-.8076l.0009-23.8926a.8073.8073,0,0,1,.8077-.8076h59.9023a.8072.8072,0,0,1,.8076.8076v23.8926A.8072.8072,0,0,1,238.8086,421.2Zm-59.0957-1.6152H238.001V397.3076H179.7139Z"/><rect class="cls-1" x="205.6807" y="399.2598" width="6.5146" height="2.0918"/><rect class="cls-1" x="186.167" y="399.2598" width="6.5156" height="2.0918"/><path class="cls-1" d="M208.8574,417.1436a6.5992,6.5992,0,1,1,6.5987-6.5987A6.6062,6.6062,0,0,1,208.8574,417.1436Zm0-11.6748a5.0757,5.0757,0,1,0,5.0752,5.0761A5.0821,5.0821,0,0,0,208.8574,405.4688Z"/><path class="cls-1" d="M189.4248,417.1436a6.5992,6.5992,0,1,1,6.5986-6.5987A6.6062,6.6062,0,0,1,189.4248,417.1436Zm0-11.6748a5.0757,5.0757,0,1,0,5.0752,5.0761A5.0822,5.0822,0,0,0,189.4248,405.4688Z"/><rect class="cls-1" x="203.0741" y="409.8323" width="11.6712" height="1.5248" transform="translate(-230.4199 271.9554) rotate(-45.519)"/><rect class="cls-1" x="183.6173" y="409.7906" width="11.6726" height="1.5233" transform="translate(-257.3246 480.0864) rotate(-74.0748)"/><rect class="cls-1" x="225.6143" y="399.2598" width="6.5146" height="2.0918"/><path class="cls-1" d="M228.8711,417.1436a6.5992,6.5992,0,1,1,6.6-6.5987A6.6059,6.6059,0,0,1,228.8711,417.1436Zm0-11.6748a5.0757,5.0757,0,1,0,5.0762,5.0761A5.0819,5.0819,0,0,0,228.8711,405.4688Z"/><rect class="cls-1" x="228.086" y="404.7264" width="1.5233" height="11.6722" transform="translate(-190.6803 198.5976) rotate(-34.0597)"/><rect class="cls-2" x="317.8574" y="727.8231" width="39.8154" height="23.8928"/><path class="cls-1" d="M357.6729,752.5234H317.8574a.8072.8072,0,0,1-.8076-.8076V727.8232a.8073.8073,0,0,1,.8076-.8076h39.8155a.8074.8074,0,0,1,.8076.8076v23.8926A.8073.8073,0,0,1,357.6729,752.5234Zm-39.0079-1.6152h38.2V728.6309h-38.2Z"/><rect class="cls-1" x="325.0371" y="746.8643" width="6.5156" height="2.0918"/><rect class="cls-1" x="343.8965" y="746.8643" width="6.5156" height="2.0918"/><path class="cls-1" d="M328.376,744.2705a6.5991,6.5991,0,1,1,6.6-6.5986A6.6059,6.6059,0,0,1,328.376,744.2705Zm0-11.6748a5.0757,5.0757,0,1,0,5.0761,5.0762A5.0819,5.0819,0,0,0,328.376,732.5957Z"/><path class="cls-1" d="M347.1543,744.2705a6.5991,6.5991,0,1,1,6.5986-6.5986A6.6061,6.6061,0,0,1,347.1543,744.2705Zm0-11.6748a5.0757,5.0757,0,1,0,5.0752,5.0762A5.0822,5.0822,0,0,0,347.1543,732.5957Z"/><rect class="cls-1" x="322.488" y="736.8587" width="11.6705" height="1.5248" transform="translate(-428.0037 455.0427) rotate(-45.519)"/><rect class="cls-1" x="341.2892" y="736.9019" width="11.6726" height="1.5233" transform="translate(-457.4722 869.0647) rotate(-74.0748)"/><rect class="cls-2" x="40.8944" y="421.5097" width="457.7949" height="305.1968" rx="4.3256" ry="4.3256"/><path class="cls-1" d="M494.3643,728.3145H45.2207a5.941,5.941,0,0,1-5.9346-5.9336V425.835a5.9407,5.9407,0,0,1,5.9336-5.9336H494.3633a5.941,5.941,0,0,1,5.9346,5.9336V722.3809A5.9408,5.9408,0,0,1,494.3643,728.3145ZM45.22,423.1182a2.72,2.72,0,0,0-2.7168,2.7168V722.3809a2.72,2.72,0,0,0,2.7178,2.7168H494.3643a2.72,2.72,0,0,0,2.7168-2.7168V425.835a2.72,2.72,0,0,0-2.7178-2.7168Z"/><rect class="cls-2" x="48.5243" y="429.1396" width="442.5351" height="289.937" rx="4.3256" ry="4.3256"/><path class="cls-1" d="M486.7344,719.8789H52.8506a5.1338,5.1338,0,0,1-5.1289-5.1279V433.4648a5.133,5.133,0,0,1,5.1279-5.1279H486.7334a5.1338,5.1338,0,0,1,5.1289,5.1279V714.751A5.133,5.133,0,0,1,486.7344,719.8789ZM52.85,429.9424a3.5264,3.5264,0,0,0-3.5225,3.5224V714.751a3.5271,3.5271,0,0,0,3.5235,3.5224H486.7344a3.5262,3.5262,0,0,0,3.5224-3.5224V433.4648a3.5271,3.5271,0,0,0-3.5234-3.5224Z"/><image width="1754" height="1240" transform="translate(144.533 525.0779) scale(0.1387)" xlink:href="../Materials/wattsense-logo-print-page-001.jpg"/><path class="cls-1" d="M456.77,481.2773a16.9517,16.9517,0,1,1,16.9522-16.9521A16.9708,16.9708,0,0,1,456.77,481.2773Zm0-32.2978a15.3462,15.3462,0,1,0,15.3467,15.3457A15.364,15.364,0,0,0,456.77,448.98Z"/><circle class="cls-1" cx="456.954" cy="464.5096" r="2.1628"/><g id="LoRa_front" data-name="LoRa front"><rect class="cls-2" x="337.6575" y="443.8054" width="39.5659" height="56.0011" rx="5.9315" ry="5.9315" transform="translate(714.881 943.6119) rotate(-180)"/><path class="cls-1" d="M371.292,501.2168H343.5889a7.3494,7.3494,0,0,1-7.3418-7.3418V449.7373a7.3494,7.3494,0,0,1,7.3418-7.3418H371.292a7.3494,7.3494,0,0,1,7.3418,7.3418V493.875A7.3494,7.3494,0,0,1,371.292,501.2168Zm-27.7031-56.001a4.5266,4.5266,0,0,0-4.5215,4.5215V493.875a4.5266,4.5266,0,0,0,4.5215,4.5215H371.292a4.5266,4.5266,0,0,0,4.5215-4.5215V449.7373a4.5266,4.5266,0,0,0-4.5215-4.5215Z"/><path class="cls-2" d="M364.5877,40.551c0-14.2545-3.2164-15.1968-7.1472-15.1968s-7.1472.9423-7.1472,15.1968V53.32h14.2944Z"/><path class="cls-1" d="M365.998,54.73H348.8828V40.5508c0-13.96,3.0068-16.6065,8.5576-16.6065s8.5576,2.6465,8.5576,16.6065Zm-14.2949-2.82h11.4746V40.5508c0-13.7862-2.917-13.7862-5.7373-13.7862s-5.7373,0-5.7373,13.7862Z"/><path class="cls-2" d="M350.2933,53.32l-.24,84.7046a28.2489,28.2489,0,0,1-.35,4.3778c-2.02,12.6712-12.046,81.5384-12.046,97.55v199.28a4.5737,4.5737,0,0,0,4.5737,4.5737H372.65a4.5737,4.5737,0,0,0,4.5736-4.5737v-199.28c0-18.6014-9.9492-84.8333-12.019-97.4568a28.3591,28.3591,0,0,1-.3727-4.5253l-.2439-84.65"/><path class="cls-1" d="M372.6494,445.2158h-30.418a5.991,5.991,0,0,1-5.9843-5.9844v-199.28c0-16.0684,10.0166-84.9307,12.0634-97.77a26.9387,26.9387,0,0,0,.3321-4.16l.24-84.7051,2.82.0078-.2392,84.7051a29.76,29.76,0,0,1-.3682,4.5957c-2.04,12.8037-12.0283,81.4209-12.0283,97.3272v199.28a3.1683,3.1683,0,0,0,3.164,3.1641h30.418a3.1683,3.1683,0,0,0,3.1641-3.1641v-199.28c0-19.2783-10.5059-88.1084-12.001-97.2276a29.9514,29.9514,0,0,1-.3916-4.75l-.2432-84.65,2.82-.0078.2442,84.65a26.8255,26.8255,0,0,0,.3535,4.3008c1.501,9.1475,12.0381,78.2217,12.0381,97.6846v199.28A5.9911,5.9911,0,0,1,372.6494,445.2158Z"/><line class="cls-2" x1="364.5877" y1="53.3195" x2="350.2933" y2="53.3195"/><rect class="cls-1" x="350.293" y="51.9092" width="14.2949" height="2.8203"/></g><path class="cls-3" d="M368.6367,508.5742h1.0049v6.9424h3.3262v.8428h-4.3311Z"/><path class="cls-3" d="M378.9482,513.5176a2.7321,2.7321,0,0,1-2.7832,2.9687,2.6579,2.6579,0,0,1-2.6806-2.8759,2.73,2.73,0,0,1,2.7724-2.9688A2.6477,2.6477,0,0,1,378.9482,513.5176Zm-4.4355.0576c0,1.2246.7051,2.1484,1.6982,2.1484.97,0,1.6983-.9121,1.6983-2.1709,0-.9472-.4737-2.1484-1.6748-2.1484S374.5127,512.5127,374.5127,513.5752Z"/><path class="cls-3" d="M380.2617,508.6777a10.51,10.51,0,0,1,1.9287-.1611,3.1882,3.1882,0,0,1,2.253.6348,1.94,1.94,0,0,1,.6123,1.4785,2.0452,2.0452,0,0,1-1.4678,1.9873v.0342a1.9405,1.9405,0,0,1,1.1435,1.5713,12.5328,12.5328,0,0,0,.6006,2.1367h-1.039a10.0581,10.0581,0,0,1-.52-1.8594c-.2314-1.0742-.6474-1.4785-1.5595-1.5137h-.9473v3.3731h-1.0049Zm1.0049,3.5469h1.0283c1.0742,0,1.7559-.59,1.7559-1.4785,0-1.0059-.7285-1.4443-1.791-1.4561a4.1434,4.1434,0,0,0-.9932.0928Z"/><path class="cls-3" d="M389.6719,516.3594l-.08-.7051h-.0352a2.08,2.08,0,0,1-1.7089.832,1.5925,1.5925,0,0,1-1.71-1.6054c0-1.3516,1.2012-2.0909,3.3613-2.0791v-.1153a1.1526,1.1526,0,0,0-1.2705-1.2939,2.7777,2.7777,0,0,0-1.4551.416l-.2314-.67a3.4649,3.4649,0,0,1,1.8369-.4971c1.709,0,2.125,1.167,2.125,2.2871V515.02a7.8552,7.8552,0,0,0,.0928,1.34Zm-.1494-2.8535c-1.1094-.0225-2.3682.1738-2.3682,1.26a.8991.8991,0,0,0,.959.97,1.39,1.39,0,0,0,1.3506-.9356,1.0476,1.0476,0,0,0,.0586-.3232Z"/><path class="cls-3" d="M393.4463,516.3594l-1.9756-7.7852h1.0635l.9238,3.9385c.23.9707.4385,1.94.5772,2.6914h.0234c.1269-.7734.3691-1.6982.6348-2.7031l1.04-3.9268h1.0508l.9472,3.95c.22.9238.4278,1.8486.543,2.668h.0235c.1611-.8545.3808-1.7207.624-2.6914l1.0273-3.9268h1.0283l-2.206,7.7852H397.72l-.9814-4.0547a23.4157,23.4157,0,0,1-.5078-2.541h-.0235a24.2024,24.2024,0,0,1-.6006,2.541l-1.1093,4.0547Z"/><path class="cls-3" d="M402.543,513.91l-.8086,2.4492h-1.0391l2.6445-7.7852h1.2129l2.6573,7.7852h-1.0743l-.832-2.4492Zm2.5527-.7852-.7617-2.2412c-.1738-.5078-.2891-.97-.4043-1.42h-.0234c-.1153.4619-.2422.9355-.3926,1.4091l-.7627,2.252Z"/><path class="cls-3" d="M408.35,516.3594v-7.7852h1.0977l2.4941,3.9385a22.0177,22.0177,0,0,1,1.3984,2.53l.0225-.0117c-.0918-1.04-.1152-1.9874-.1152-3.2v-3.2569h.9472v7.7852h-1.0166l-2.4716-3.95a24.6113,24.6113,0,0,1-1.4551-2.6l-.0352.0117c.0576.9824.0811,1.918.0811,3.2109v3.3272Z"/><circle class="cls-1" cx="358.222" cy="512.9716" r="4.4164"/><path class="cls-3" d="M378.667,510.2393a5.4446,5.4446,0,0,0-2.4395-.4786,5.217,5.217,0,0,0-2.4306.4737l-.5147-.8574a6.01,6.01,0,0,1,2.9453-.6163,6.2967,6.2967,0,0,1,2.9356.6094Z"/><path class="cls-3" d="M372.9629,508.8213l-.4688-.8828a8.64,8.64,0,0,1,7.3809-.0645l-.458.89a7.6486,7.6486,0,0,0-6.4541.0576Z"/><path class="cls-3" d="M372.2031,507.3545l-.5205-.8535a9.46,9.46,0,0,1,4.6172-1.1338,10.0247,10.0247,0,0,1,4.3838,1.0879l-.4815.8769a9.1441,9.1441,0,0,0-3.9023-.9648A8.6244,8.6244,0,0,0,372.2031,507.3545Z"/><path class="cls-3" d="M376.2275,518.4346a6.0112,6.0112,0,0,1-2.9453-.6162l.5147-.8575a5.217,5.217,0,0,0,2.4306.4737,5.4559,5.4559,0,0,0,2.4424-.48l.4932.87A6.2967,6.2967,0,0,1,376.2275,518.4346Z"/><path class="cls-3" d="M376.2275,520.1182a8.638,8.638,0,0,1-3.7334-.8614l.4688-.8828a7.6438,7.6438,0,0,0,6.4541.0586l.458.8887A8.6131,8.6131,0,0,1,376.2275,520.1182Z"/><path class="cls-3" d="M376.3,521.8291a9.46,9.46,0,0,1-4.6172-1.1338l.5205-.8535a8.6244,8.6244,0,0,0,4.0967.9873,9.1441,9.1441,0,0,0,3.9023-.9648l.4815.8769A10.0247,10.0247,0,0,1,376.3,521.8291Z"/></g></g></g></svg>