<svg xmlns="http://www.w3.org/2000/svg" xmlns:xlink="http://www.w3.org/1999/xlink" width="200.3526mm" height="287.3527mm" viewBox="0 0 567.9287 814.543"><defs><style>.cls-1{fill:none;}.cls-2{fill:#808285;}.cls-3{fill:#fff;}</style></defs><title>7. GSM &amp;amp; Box</title><g id="Layer_2" data-name="Layer 2"><g id="_7._GSM_Box" data-name="7. GSM &amp; Box"><g id="Expanded"><rect class="cls-1" x="0.4997" y="0.4997" width="566.9291" height="813.5433" rx="8.5039" ry="8.5039"/><path class="cls-2" d="M558.9248,814.543H9.0039A9.0141,9.0141,0,0,1,0,805.5391V9.0039A9.0141,9.0141,0,0,1,9.0039,0H558.9248a9.0141,9.0141,0,0,1,9.0039,9.0039V805.5391A9.0141,9.0141,0,0,1,558.9248,814.543ZM9.0039,1A8.0133,8.0133,0,0,0,1,9.0039V805.5391a8.0134,8.0134,0,0,0,8.0039,8.0039H558.9248a8.0134,8.0134,0,0,0,8.0039-8.0039V9.0039A8.0133,8.0133,0,0,0,558.9248,1Z"/><rect class="cls-3" x="476.3894" y="763.8824" width="45.6119" height="27.3712"/><path class="cls-2" d="M522.001,792.1328H476.39a.879.879,0,0,1-.8789-.8789V763.8828a.879.879,0,0,1,.8789-.8789H522.001a.879.879,0,0,1,.8789.8789v27.3711A.879.879,0,0,1,522.001,792.1328Zm-44.7324-1.7578h43.8535V764.7617H477.2686Z"/><rect class="cls-2" x="484.6152" y="785.7549" width="7.4629" height="2.2773"/><rect class="cls-2" x="506.2188" y="785.7549" width="7.4639" height="2.2773"/><path class="cls-2" d="M488.44,782.6807a7.5162,7.5162,0,1,1,7.5166-7.5166A7.5253,7.5253,0,0,1,488.44,782.6807Zm0-13.3741a5.858,5.858,0,1,0,5.8584,5.8575A5.8647,5.8647,0,0,0,488.44,769.3066Z"/><path class="cls-2" d="M509.9512,782.6807a7.5162,7.5162,0,1,1,7.5166-7.5166A7.5253,7.5253,0,0,1,509.9512,782.6807Zm0-13.3741a5.858,5.858,0,1,0,5.8584,5.8575A5.8647,5.8647,0,0,0,509.9512,769.3066Z"/><rect class="cls-2" x="481.6947" y="774.2776" width="13.3693" height="1.6587" transform="translate(-406.8598 580.551) rotate(-45.5248)"/><rect class="cls-2" x="503.2322" y="774.3266" width="13.3715" height="1.6593" transform="translate(-375.3639 1052.9322) rotate(-74.0824)"/><rect class="cls-3" x="406.8474" y="763.8824" width="45.6119" height="27.3712"/><path class="cls-2" d="M452.459,792.1328H406.8477a.8789.8789,0,0,1-.8789-.8789V763.8828a.879.879,0,0,1,.8789-.8789H452.459a.879.879,0,0,1,.8789.8789v27.3711A.879.879,0,0,1,452.459,792.1328Zm-44.7324-1.7578H451.58V764.7617H407.7266Z"/><rect class="cls-2" x="415.0732" y="785.7549" width="7.4629" height="2.2773"/><rect class="cls-2" x="436.6768" y="785.7549" width="7.4639" height="2.2773"/><path class="cls-2" d="M418.8975,782.6807a7.5162,7.5162,0,1,1,7.5166-7.5166A7.5253,7.5253,0,0,1,418.8975,782.6807Zm0-13.3741a5.858,5.858,0,1,0,5.8584,5.8575A5.8647,5.8647,0,0,0,418.8975,769.3066Z"/><path class="cls-2" d="M440.4092,782.6807a7.5162,7.5162,0,1,1,7.5166-7.5166A7.5253,7.5253,0,0,1,440.4092,782.6807Zm0-13.3741a5.858,5.858,0,1,0,5.8584,5.8575A5.8647,5.8647,0,0,0,440.4092,769.3066Z"/><rect class="cls-2" x="412.1528" y="774.2776" width="13.3693" height="1.6587" transform="translate(-427.6806 530.9291) rotate(-45.5248)"/><rect class="cls-2" x="433.6902" y="774.3266" width="13.3715" height="1.6593" transform="translate(-425.8337 986.0567) rotate(-74.0824)"/><rect class="cls-3" x="384.3733" y="384.3242" width="45.6119" height="27.3712"/><path class="cls-2" d="M429.9854,412.5742H384.373a.879.879,0,0,1-.8789-.8789V384.3242a.879.879,0,0,1,.8789-.8789h45.6124a.879.879,0,0,1,.8789.8789v27.3711A.879.879,0,0,1,429.9854,412.5742Zm-44.7334-1.7578h43.8544V385.2031H385.252Z"/><rect class="cls-2" x="414.2959" y="387.5449" width="7.4639" height="2.2773"/><rect class="cls-2" x="392.6914" y="387.5449" width="7.4639" height="2.2773"/><path class="cls-2" d="M417.9355,407.93a7.5166,7.5166,0,1,1,7.5157-7.5166A7.5253,7.5253,0,0,1,417.9355,407.93Zm0-13.375a5.8584,5.8584,0,1,0,5.8575,5.8584A5.8649,5.8649,0,0,0,417.9355,394.5547Z"/><path class="cls-2" d="M396.4238,407.93a7.5166,7.5166,0,1,1,7.5157-7.5166A7.5253,7.5253,0,0,1,396.4238,407.93Zm0-13.375a5.8584,5.8584,0,1,0,5.8575,5.8584A5.8649,5.8649,0,0,0,396.4238,394.5547Z"/><rect class="cls-2" x="411.3106" y="399.6413" width="13.37" height="1.6587" transform="translate(-160.6097 418.1627) rotate(-45.5248)"/><rect class="cls-2" x="389.7707" y="399.5922" width="13.3717" height="1.6593" transform="translate(-97.3421 671.8595) rotate(-74.0824)"/><rect class="cls-3" x="315.5752" y="384.3242" width="45.6119" height="27.3712"/><path class="cls-2" d="M361.1875,412.5742H315.5752a.8789.8789,0,0,1-.8789-.8789V384.3242a.879.879,0,0,1,.8789-.8789h45.6123a.879.879,0,0,1,.8789.8789v27.3711A.8789.8789,0,0,1,361.1875,412.5742Zm-44.7334-1.7578h43.8545V385.2031H316.4541Z"/><rect class="cls-2" x="345.498" y="387.5449" width="7.4639" height="2.2773"/><rect class="cls-2" x="323.8936" y="387.5449" width="7.4639" height="2.2773"/><path class="cls-2" d="M349.1367,407.93a7.5166,7.5166,0,1,1,7.5166-7.5166A7.5253,7.5253,0,0,1,349.1367,407.93Zm0-13.375a5.8584,5.8584,0,1,0,5.8584,5.8584A5.8649,5.8649,0,0,0,349.1367,394.5547Z"/><path class="cls-2" d="M327.625,407.93a7.5166,7.5166,0,1,1,7.5166-7.5166A7.5245,7.5245,0,0,1,327.625,407.93Zm0-13.375a5.8584,5.8584,0,1,0,5.8584,5.8584A5.8646,5.8646,0,0,0,327.625,394.5547Z"/><rect class="cls-2" x="342.5119" y="399.6413" width="13.3707" height="1.6587" transform="translate(-181.2079 369.0714) rotate(-45.5248)"/><rect class="cls-2" x="320.9725" y="399.5922" width="13.3715" height="1.6593" transform="translate(-147.2721 605.6991) rotate(-74.0824)"/><rect class="cls-3" x="66.4831" y="384.324" width="68.6232" height="27.3712"/><path class="cls-2" d="M135.1064,412.5742H66.4834a.8789.8789,0,0,1-.8789-.8789V384.3242a.879.879,0,0,1,.8789-.8789h68.623a.8791.8791,0,0,1,.879.8789v27.3711A.879.879,0,0,1,135.1064,412.5742Zm-67.7441-1.7578h66.8652V385.2031H67.3623Z"/><rect class="cls-2" x="97.1553" y="387.5449" width="7.4639" height="2.2773"/><rect class="cls-2" x="74.8018" y="387.5449" width="7.4639" height="2.2773"/><path class="cls-2" d="M100.7949,407.93a7.5166,7.5166,0,1,1,7.5166-7.5166A7.5253,7.5253,0,0,1,100.7949,407.93Zm0-13.375a5.8584,5.8584,0,1,0,5.8584,5.8584A5.8649,5.8649,0,0,0,100.7949,394.5547Z"/><path class="cls-2" d="M78.5332,407.93a7.5166,7.5166,0,1,1,7.5166-7.5166A7.5253,7.5253,0,0,1,78.5332,407.93Zm0-13.375a5.8584,5.8584,0,1,0,5.8584,5.8584A5.8648,5.8648,0,0,0,78.5332,394.5547Z"/><rect class="cls-2" x="94.17" y="399.6413" width="13.37" height="1.6587" transform="translate(-255.5613 191.8659) rotate(-45.5248)"/><rect class="cls-2" x="71.8807" y="399.5922" width="13.3715" height="1.6593" transform="translate(-328.0493 366.1582) rotate(-74.0824)"/><rect class="cls-2" x="119.9912" y="387.5449" width="7.4639" height="2.2773"/><path class="cls-2" d="M123.7227,407.93a7.5166,7.5166,0,1,1,7.5166-7.5166A7.5253,7.5253,0,0,1,123.7227,407.93Zm0-13.375a5.8584,5.8584,0,1,0,5.8584,5.8584A5.8648,5.8648,0,0,0,123.7227,394.5547Z"/><rect class="cls-2" x="122.8654" y="393.7477" width="1.6598" height="13.3708" transform="matrix(0.8285, -0.56, 0.56, 0.8285, -203.0432, 137.9657)"/><rect class="cls-3" x="179.8467" y="384.324" width="68.6232" height="27.3712"/><path class="cls-2" d="M248.47,412.5742h-68.623a.8789.8789,0,0,1-.8789-.8789V384.3242a.879.879,0,0,1,.8789-.8789H248.47a.879.879,0,0,1,.8789.8789v27.3711A.8789.8789,0,0,1,248.47,412.5742Zm-67.7441-1.7578h66.8652V385.2031H180.7256Z"/><rect class="cls-2" x="210.5195" y="387.5449" width="7.4639" height="2.2773"/><rect class="cls-2" x="188.165" y="387.5449" width="7.4639" height="2.2773"/><path class="cls-2" d="M214.1582,407.93a7.5166,7.5166,0,1,1,7.5166-7.5166A7.5253,7.5253,0,0,1,214.1582,407.93Zm0-13.375a5.8584,5.8584,0,1,0,5.8584,5.8584A5.8648,5.8648,0,0,0,214.1582,394.5547Z"/><path class="cls-2" d="M191.8965,407.93a7.5166,7.5166,0,1,1,7.5166-7.5166A7.5245,7.5245,0,0,1,191.8965,407.93Zm0-13.375a5.8584,5.8584,0,1,0,5.8584,5.8584A5.8646,5.8646,0,0,0,191.8965,394.5547Z"/><rect class="cls-2" x="207.5334" y="399.6413" width="13.3707" height="1.6587" transform="translate(-221.6203 272.757) rotate(-45.5248)"/><rect class="cls-2" x="185.244" y="399.5922" width="13.3715" height="1.6593" transform="translate(-245.7765 475.1748) rotate(-74.0824)"/><rect class="cls-2" x="233.3545" y="387.5449" width="7.4639" height="2.2773"/><path class="cls-2" d="M237.0869,407.93a7.5166,7.5166,0,1,1,7.5156-7.5166A7.5253,7.5253,0,0,1,237.0869,407.93Zm0-13.375a5.8584,5.8584,0,1,0,5.8574,5.8584A5.8648,5.8648,0,0,0,237.0869,394.5547Z"/><rect class="cls-2" x="236.2292" y="393.7474" width="1.6598" height="13.3713" transform="translate(-183.6088 201.4804) rotate(-34.0626)"/><rect class="cls-3" x="339.0275" y="763.8824" width="45.6119" height="27.3712"/><path class="cls-2" d="M384.64,792.1328H339.0273a.879.879,0,0,1-.8789-.8789V763.8828a.879.879,0,0,1,.8789-.8789H384.64a.8791.8791,0,0,1,.879.8789v27.3711A.879.879,0,0,1,384.64,792.1328Zm-44.7333-1.7578h43.8544V764.7617H339.9063Z"/><rect class="cls-2" x="347.2529" y="785.7549" width="7.4639" height="2.2773"/><rect class="cls-2" x="368.8574" y="785.7549" width="7.4639" height="2.2773"/><path class="cls-2" d="M351.0781,782.6807a7.5162,7.5162,0,1,1,7.5157-7.5166A7.5253,7.5253,0,0,1,351.0781,782.6807Zm0-13.3741a5.858,5.858,0,1,0,5.8574,5.8575A5.8648,5.8648,0,0,0,351.0781,769.3066Z"/><path class="cls-2" d="M372.5889,782.6807a7.5162,7.5162,0,1,1,7.5166-7.5166A7.5245,7.5245,0,0,1,372.5889,782.6807Zm0-13.3741a5.858,5.858,0,1,0,5.8584,5.8575A5.8646,5.8646,0,0,0,372.5889,769.3066Z"/><rect class="cls-2" x="344.3324" y="774.2776" width="13.3693" height="1.6587" transform="translate(-447.9859 482.5356) rotate(-45.5248)"/><rect class="cls-2" x="365.8709" y="774.3266" width="13.3715" height="1.6593" transform="translate(-475.0533 920.8377) rotate(-74.0824)"/><rect class="cls-3" x="21.743" y="412.9745" width="524.4427" height="349.6287" rx="4.9554" ry="4.9554"/><path class="cls-2" d="M541.2305,764.3535H26.6982a6.7134,6.7134,0,0,1-6.705-6.706V417.93a6.7126,6.7126,0,0,1,6.705-6.7051H541.2305a6.7126,6.7126,0,0,1,6.705,6.7051V757.6475A6.7134,6.7134,0,0,1,541.2305,764.3535ZM26.6982,414.7246a3.2083,3.2083,0,0,0-3.205,3.2051V757.6475a3.2092,3.2092,0,0,0,3.205,3.206H541.2305a3.2092,3.2092,0,0,0,3.205-3.206V417.93a3.2083,3.2083,0,0,0-3.205-3.2051Z"/><rect class="cls-3" x="30.4837" y="421.7153" width="506.9613" height="332.1473" rx="4.9554" ry="4.9554"/><path class="cls-2" d="M532.49,754.7363H35.44a5.8361,5.8361,0,0,1-5.8291-5.8291l-.001-322.2363a5.8363,5.8363,0,0,1,5.8291-5.83H532.4893a5.8365,5.8365,0,0,1,5.83,5.83V748.9072A5.8361,5.8361,0,0,1,532.49,754.7363ZM30.4834,426.6709h.874l.001,322.2363a4.0861,4.0861,0,0,0,4.0811,4.0811H532.49a4.0861,4.0861,0,0,0,4.0811-4.0811V426.6709a4.0865,4.0865,0,0,0-4.082-4.082H35.4385a4.0863,4.0863,0,0,0-4.0811,4.082Z"/><image width="1754" height="1240" transform="translate(140.4698 531.6207) scale(0.1589)" xlink:href="../Materials/wattsense-logo-print-page-001.jpg"/><path class="cls-2" d="M384.373,481.3975a19.3741,19.3741,0,1,1,19.3741-19.3741A19.3963,19.3963,0,0,1,384.373,481.3975Zm0-37a17.626,17.626,0,1,0,17.626,17.6259A17.6462,17.6462,0,0,0,384.373,444.3975Z"/><circle class="cls-2" cx="384.5842" cy="462.2346" r="2.4777"/><g id="GSM"><path class="cls-3" d="M519.8,373.9774V433a2.8346,2.8346,0,0,1-2.8346,2.8347H479.3613A2.8346,2.8346,0,0,1,476.5267,433V374.3186"/><path class="cls-2" d="M516.9658,437.6348H479.3613A4.64,4.64,0,0,1,474.7266,433V374.3184a1.8,1.8,0,1,1,3.6,0V433a1.0369,1.0369,0,0,0,1.0351,1.0352h37.6045A1.037,1.037,0,0,0,518.001,433V373.9775a1.8,1.8,0,1,1,3.6,0V433A4.64,4.64,0,0,1,516.9658,437.6348Z"/><path class="cls-3" d="M519.7982,499.8356,519.8,438.67a2.8345,2.8345,0,0,0-2.8345-2.8346H479.3613a2.8346,2.8346,0,0,0-2.8346,2.8346V499.539a2.8347,2.8347,0,0,0,2.8122,2.8346l37.6024.2964A2.8345,2.8345,0,0,0,519.7982,499.8356Z"/><path class="cls-2" d="M516.9658,504.42h-.0381l-37.6025-.2959a4.5982,4.5982,0,0,1-4.5488-4.5849V438.67a4.59,4.59,0,0,1,4.5849-4.5849h37.6045a4.59,4.59,0,0,1,4.585,4.5849l-.0029,61.166a4.5828,4.5828,0,0,1-4.5821,4.584ZM479.3613,437.585a1.0856,1.0856,0,0,0-1.0849,1.0849v60.8692a1.0885,1.0885,0,0,0,1.0771,1.0849l37.6016.2959a1.0582,1.0582,0,0,0,.7724-.3144,1.0791,1.0791,0,0,0,.32-.77h0l.0029-61.166a1.0857,1.0857,0,0,0-1.085-1.0849Z"/><path class="cls-3" d="M476.5267,374.3186c-2.17-3.9864-4.36-8.449-7.0033-13.135V57.896c0-16.2226,12.756-29.4959,28.3465-29.4959s28.3464,13.2733,28.3464,29.4959V361.1836c-2.406,4.7292-4.4361,9.02-6.4182,12.7938C514.3629,384.3268,509.2944,390.68,497.87,390.68,486.8562,390.68,481.75,383.9117,476.5267,374.3186Z"/><path class="cls-2" d="M497.87,392.43c-12.4443,0-17.9238-8.1709-22.8808-17.2744h0c-.8809-1.6182-1.7647-3.3145-2.6807-5.0723-1.3506-2.5908-2.7471-5.2705-4.31-8.0391a1.7573,1.7573,0,0,1-.2256-.86V57.8965c0-17.2295,13.501-31.2461,30.0967-31.2461s30.0967,14.0166,30.0967,31.2461V361.1836a1.7546,1.7546,0,0,1-.19.7939c-1.041,2.0469-2.0118,4.0108-2.9395,5.8868-1.2119,2.4541-2.3584,4.7724-3.49,6.9267C516.4668,384.0859,510.998,392.43,497.87,392.43Zm-19.8066-18.9483C483.5186,383.5,488.291,388.93,497.87,388.93c10.2285,0,14.8877-5.31,20.3779-15.7656,1.1124-2.1172,2.2491-4.4161,3.4512-6.8506.876-1.7725,1.791-3.624,2.7676-5.5489V57.8965c0-15.2988-11.9316-27.7461-26.5967-27.7461s-26.5967,12.4473-26.5967,27.7461V360.7256c1.4991,2.6748,2.84,5.248,4.1387,7.74.9063,1.7383,1.78,3.416,2.6514,5.0156Z"/><line class="cls-3" x1="497.8699" y1="355.111" x2="497.8699" y2="57.8962"/><path class="cls-2" d="M497.6,355.111q-1.1-18.5758-1.6292-37.1519c-.2163-6.1919-.3235-12.3839-.4839-18.5759l-.3171-18.5759c-.0642-6.1919-.1172-12.384-.1106-18.576l.1377-18.5759.5129-37.1517.81-74.3038,1.08-74.3037a.27.27,0,0,1,.54,0L499.22,132.2l.81,74.3038.513,37.1517.1377,18.5759c.0066,6.192-.0464,12.3841-.1106,18.576l-.3172,18.5759c-.16,6.192-.2675,12.384-.4839,18.5759q-.5285,18.576-1.6291,37.1519a.27.27,0,0,1-.54,0Z"/></g></g></g></g></svg>