<svg xmlns="http://www.w3.org/2000/svg" width="200.2963mm" height="114.5996mm" viewBox="0 0 567.769 324.8491"><defs><style>.cls-1{fill:#6d6e71;}.cls-2{fill:#27aae1;}.cls-3{fill:#00aeef;}</style></defs><title>1. To the wall</title><g id="Слой_2" data-name="Слой 2"><g id="_1._To_the_wall" data-name="1. To the wall"><g id="Expanded"><path class="cls-1" d="M561.87,324.8491H5.8989A5.9053,5.9053,0,0,1,0,318.95V5.8989A5.9056,5.9056,0,0,1,5.8989,0H561.87a5.906,5.906,0,0,1,5.8994,5.8989V318.95A5.9056,5.9056,0,0,1,561.87,324.8491ZM5.8989.9561A4.9482,4.9482,0,0,0,.9561,5.8989V318.95a4.9483,4.9483,0,0,0,4.9428,4.9429H561.87a4.948,4.948,0,0,0,4.9424-4.9429V5.8989A4.9479,4.9479,0,0,0,561.87.9561Z"/><path class="cls-1" d="M118.3389,53.3564a1,1,0,0,0-1,1V69.5747H106.3833V43.3184a1,1,0,0,0-2,0V295.3877a1,1,0,0,0,2,0V283.9346h10.9556v23.4067a1,1,0,0,0,2,0V54.3564A1,1,0,0,0,118.3389,53.3564ZM106.3833,282.9346V70.5747h10.9556v212.36Z"/><path class="cls-1" d="M98.7114,225.8145a1.7655,1.7655,0,0,1-1.7636-1.7637v-5.6494a1.7654,1.7654,0,0,1,1.7636-1.7637h1.6836v-32.707l-1.73-.0069a1.7658,1.7658,0,0,1-1.7168-1.7568v-5.65a1.7634,1.7634,0,1,1,3.5268,0v3.8164h1.7085a1.7658,1.7658,0,0,1,1.7388,1.7637V218.46a1.807,1.807,0,0,1-1.7984,1.7749h-1.6489v3.8164A1.7654,1.7654,0,0,1,98.7114,225.8145Zm-.0468-8.4258a1.0148,1.0148,0,0,0-.9668,1.0127v5.6494a1.0134,1.0134,0,1,0,2.0268,0v-4.5664h2.3989a1.0325,1.0325,0,0,0,.4131-.0874,1.0137,1.0137,0,0,0,.6353-.9375V182.0972a1.0146,1.0146,0,0,0-.98-1.0132l-.0957.0078-.0269-.0083H99.7246v-4.5664a1.0134,1.0134,0,1,0-2.0268,0v5.65a1.0151,1.0151,0,0,0,.98,1.0132l.0933-.0083.0283.0088h2.3452v34.207Z"/><path class="cls-1" d="M328.06,53.3564a1,1,0,0,0-1,1V69.5747H316.104V43.3184a1,1,0,0,0-2,0V295.3877a1,1,0,0,0,2,0V283.9346H327.06v23.4067a1,1,0,0,0,2,0V54.3564A1,1,0,0,0,328.06,53.3564ZM316.104,282.9346V70.5747H327.06v212.36Z"/><path class="cls-1" d="M308.4321,226.13a1.7653,1.7653,0,0,1-1.7636-1.7632v-5.65a1.7654,1.7654,0,0,1,1.7636-1.7637h1.6836v-32.707h-1.708a1.7661,1.7661,0,0,1-1.7392-1.7637V176.833a1.7637,1.7637,0,1,1,3.5273,0v3.8164h1.7021a1.766,1.766,0,0,1,1.7452,1.7632v36.3628a1.8083,1.8083,0,0,1-1.7989,1.7749h-1.6484v3.8164A1.7653,1.7653,0,0,1,308.4321,226.13Zm-.0537-8.4253a1.0145,1.0145,0,0,0-.96,1.0122v5.65a1.0137,1.0137,0,0,0,2.0273,0V219.8h2.3984a1.0293,1.0293,0,0,0,.4121-.0874,1.0137,1.0137,0,0,0,.6368-.9375V182.4126a1.0151,1.0151,0,0,0-.9668-1.0122l-.1182.0024-.0117-.0034h-2.3506V176.833a1.0137,1.0137,0,1,0-2.0273,0v5.6494a1.0155,1.0155,0,0,0,.9648,1.0127l.125-.0024.0107.0034h2.3467v34.207Z"/><g id="Full_app" data-name="Full app"><g id="GSM"><path class="cls-1" d="M227.12,106.9146c.36-.5058.7326-1.0495,1.1291-1.63.3125-.4575.64-.937.9873-1.4346l.0425-.0615,17.9624-81.49a9.678,9.678,0,0,0-.6138-6.2353,5.77,5.77,0,0,0-9.32-2.0542,9.68,9.68,0,0,0-3.1782,5.4l-17.9463,81.417-.0176.08.0171.08c.1782.8237.3262,1.6181.4668,2.3735.0906.4863.1783.9538.269,1.4056l-6.4316,29.1823.3662.0805a8.0951,8.0951,0,0,0,1.7466.1905,9.4946,9.4946,0,0,0,6.0342-2.335,13.3828,13.3828,0,0,0,3-3.5647l-1.43,6.4876a1.2521,1.2521,0,0,0,.9541,1.4931l9.5566,2.1065a1.2566,1.2566,0,0,0,.2706.03,1.2305,1.2305,0,0,0,.5766-.1607,1.0262,1.0262,0,0,0,.6484.461l4.9654,1.0942a1.0285,1.0285,0,0,0,1.2256-.7832l1.7651-8.0083a1.0283,1.0283,0,0,0-.7832-1.2251l-4.9653-1.0947a1.0144,1.0144,0,0,0-.7744.1377l-.0064.0061a1.2371,1.2371,0,0,0-.7143-.4734l-9.5567-2.1065a1.2374,1.2374,0,0,0-.7887.1067,16.1786,16.1786,0,0,0,.8346-2.6511Zm6.8054,22.748a.2791.2791,0,0,1,.271-.2188.2835.2835,0,0,1,.06.0069l4.9654,1.0947a.2782.2782,0,0,1,.2119.3316l-1.7652,8.0083a.2782.2782,0,0,1-.332.2119l-4.9648-1.0943a.2789.2789,0,0,1-.2119-.332l.0482-.2192h0l.8342-3.785Zm-11.1-2.5806a.4993.4993,0,0,1,.2695-.08.5262.5262,0,0,1,.1094.0122l9.5571,2.1065a.5036.5036,0,0,1,.3828.6l-1.6684,7.5693a.5076.5076,0,0,1-.6.3829l-9.5572-2.1065a.5036.5036,0,0,1-.3828-.6l1.6685-7.5693A.5.5,0,0,1,222.8257,127.082ZM234.8618,19.57a8.9284,8.9284,0,0,1,2.9234-4.9829,5.025,5.025,0,0,1,8.166,1.8,8.9288,8.9288,0,0,1,.5576,5.75l-17.93,81.3442c-.333.4781-.6479.939-.9492,1.38-.4092.6-.7935,1.1621-1.1646,1.6807-1.83,2.56-3.1616,3.77-5.3906,3.28-2.082-.459-2.8032-2.1558-3.4053-5.1275h0c-.0957-.4717-.187-.9635-.2822-1.4731-.1372-.7378-.2812-1.5122-.4536-2.3145Zm-16.706,111.7349a8.42,8.42,0,0,1-6.774,2.0615l5.9321-26.912c.5474,1.9849,1.4369,3.624,3.5992,4.1a5.0444,5.0444,0,0,0,1.0893.1245c1.6934,0,2.9118-.9778,4.0353-2.3358l-3.358,15.2333A13.8448,13.8448,0,0,1,218.1558,131.3047Z"/><path class="cls-1" d="M223.0617,100.6322c1.2561-6.695,2.6681-13.3557,4.0671-20.0193l2.202-9.9726,2.268-9.958,9.05-39.8369.0733.0161-8.5372,39.95L230.0559,70.8l-2.1947,9.9741c-1.5321,6.6343-3.0513,13.2714-4.7263,19.8741Z"/></g><g id="App"><path class="cls-1" d="M273.0942,281.35a.5.5,0,0,1-.48-.3608l-8.1617-28.1431-45.2749-9.98a4.455,4.455,0,0,1-3.3877-5.3037l26.1875-118.8052a4.4566,4.4566,0,0,1,5.3033-3.3877l45.22,9.9673,19.3154-22.1933a.5.5,0,0,1,.8653.4355l-6.2315,28.27a.495.495,0,0,1-.1465.2574,3.8914,3.8914,0,0,1-.0888.81l-8.7452,39.6729a.4993.4993,0,0,1-.5957.3808,2.042,2.042,0,0,1-1.3291-.9179c-.8281-1.3008-.3838-3.5914-.0507-5.1021l-3.0967-.6826a.6589.6589,0,0,0-.7783.4971L280.9316,215.248a.6523.6523,0,0,0,.4971.7779h0s4.8189.98,5.6958,1.1733a.5.5,0,0,1,.3809.5957l-7.479,33.9268a3.8939,3.8939,0,0,1-.2271.7.503.503,0,0,1,.0142.2661l-6.231,28.2695a.5.5,0,0,1-.4721.3921Zm-26.7719-165.085a3.456,3.456,0,0,0-3.3682,2.7076L216.7666,237.7773a3.4541,3.4541,0,0,0,2.6265,4.1123l45.5644,10.0435a.5.5,0,0,1,.3726.3491l7.6982,26.5445,5.7334-26.0137c-.01-.0161-.0185-.0327-.0268-.05a.5.5,0,0,1,.0068-.4409,3.3538,3.3538,0,0,0,.3081-.8155l7.3706-33.4355c-1.5029-.3154-5.1987-1.0674-5.1987-1.0674a1.6518,1.6518,0,0,1-1.2666-1.9707l10.687-48.4844a1.6513,1.6513,0,0,1,1.97-1.2583l3.586.7906a.4991.4991,0,0,1,.3808.5961l-.0478.2149c-.2793,1.2549-.8008,3.59-.1426,4.6225a1.065,1.065,0,0,0,.2353.2662l8.6143-39.08a3.3506,3.3506,0,0,0,.0547-.9639.5012.5012,0,0,1,.1728-.4131.5328.5328,0,0,1,.09-.061l5.7275-25.9839L293.06,126.2173a.4985.4985,0,0,1-.4844.16l-45.51-10.0312A3.4709,3.4709,0,0,0,246.3223,116.2646Z"/></g></g><path class="cls-1" d="M554.5874,53.3564a1,1,0,0,0-1,1V69.5747H542.6313V43.3184a1,1,0,0,0-2,0V295.3877a1,1,0,0,0,2,0V283.9346h10.9561v23.4067a1,1,0,0,0,2,0V54.3564A1,1,0,0,0,554.5874,53.3564ZM542.6313,282.9346V70.5747h10.9561v212.36Z"/><path class="cls-1" d="M534.96,226.13a1.7653,1.7653,0,0,1-1.7637-1.7632v-5.65a1.7655,1.7655,0,0,1,1.7637-1.7637h1.6836v-32.707H534.938a1.7657,1.7657,0,0,1-1.7422-1.7637V176.833a1.7637,1.7637,0,1,1,3.5273,0v3.8164h1.7051a1.7654,1.7654,0,0,1,1.7422,1.7632v36.3628a1.8085,1.8085,0,0,1-1.7988,1.7749h-1.6485v3.8164A1.7653,1.7653,0,0,1,534.96,226.13Zm-.0518-8.4253a1.0146,1.0146,0,0,0-.9619,1.0122v5.65a1.0137,1.0137,0,0,0,2.0273,0V219.8h2.3985a1.0311,1.0311,0,0,0,.4131-.0874,1.0143,1.0143,0,0,0,.6357-.9375V182.4126a1.0154,1.0154,0,0,0-.9648-1.0122l-.1221.0024-.0117-.0034h-2.3487V176.833a1.0137,1.0137,0,1,0-2.0273,0v5.6494a1.0148,1.0148,0,0,0,.9668,1.0127l.12-.0024.0117.0034h2.3487v34.207Z"/><g id="Full_app-2" data-name="Full app"><g id="GSM-2" data-name="GSM"><path class="cls-1" d="M474.8921,152.0811v0a1.03,1.03,0,0,0-1.0283-1.024H473.86l-5.085.0181a1.0239,1.0239,0,0,0-.73.3118,1.2342,1.2342,0,0,0-.7951-.3059h-.0049l-9.7871.0351a1.23,1.23,0,0,0-.7459.276,16.1616,16.1616,0,0,0,.2342-2.7691l-.0623-17.2262c.24-.5716.484-1.1827.7439-1.8354.2051-.5156.42-1.0556.65-1.6186l.0284-.0689-.3-83.4458c-.0175-4.6694-3.0322-8.4589-6.7236-8.4589h-.0195c-3.7022.0136-6.7,3.8295-6.6836,8.5073l.3,83.3711.0352.1562c.3535.7632.6708,1.5044.9726,2.21.1951.4559.3837.8944.5716,1.3165l.1081,29.8822.375-.0015a9.063,9.063,0,0,0,7.123-3.7949,13.3885,13.3885,0,0,0,2.1485-4.1365l.0234,6.6453a1.2549,1.2549,0,0,0,1.2529,1.2485h.004l9.7871-.0356a1.2346,1.2346,0,0,0,.7984-.3114,1.0233,1.0233,0,0,0,.7289.306h.0039l5.085-.018a1.03,1.03,0,0,0,1.0244-1.0323Zm-27.716-20.7837c-.1972-.44-.3944-.9015-.5994-1.3794-.295-.6885-.6045-1.4117-.9473-2.1553l-.3-83.29c-.0147-4.2636,2.6475-7.7421,5.9355-7.7543h.0176c3.2793,0,5.958,3.455,5.9736,7.7119l.3,83.2964c-.2208.54-.4278,1.06-.626,1.5566-.2676.6738-.52,1.3061-.7676,1.8926-1.2256,2.8984-2.2647,4.3716-4.542,4.38h-.0166c-2.12,0-3.1934-1.4981-4.4277-4.2588Zm6.2961,25.8589a8.42,8.42,0,0,1-6.1582,3.4936l-.1-27.5581c.966,1.8119,2.1879,3.2144,4.39,3.2144h.0186c2.3286-.0085,3.5673-1.4435,4.5177-3.2977l.0555,15.617A13.8411,13.8411,0,0,1,453.4722,157.1563Zm14.1611,3.2832a.5013.5013,0,0,1-.3545.1479l-9.7871.0356h-.002a.5038.5038,0,0,1-.5029-.5014L456.96,152.37a.501.501,0,0,1,.5-.5044l9.7881-.0351h.0019a.5024.5024,0,0,1,.5018.5l.0139,3.8961.0136,3.8562A.502.502,0,0,1,467.6333,160.44Zm6.2607.1245-5.0849.018h-.001a.28.28,0,0,1-.2783-.2773l-.0146-4.081-.0137-3.8951,0-.0009-.0008-.2232a.2792.2792,0,0,1,.2773-.28l5.085-.0181h.001a.2793.2793,0,0,1,.2783.2774l.0293,8.2A.2793.2793,0,0,1,473.894,160.564Z"/><path class="cls-1" d="M451.5493,126.1537c-.239-6.8077-.3183-13.616-.411-20.4242l-.0329-10.2127.0345-10.213.1157-40.8518.075,0,.4093,40.85.108,10.2125.04,10.2127c-.0436,6.8087-.074,13.6173-.264,20.4266Z"/></g><g id="App-2" data-name="App"><path class="cls-1" d="M539.7954,291.56a.5019.5019,0,0,1-.4385-.2593l-14.12-25.6758-46.3613.167h-.0166a4.4547,4.4547,0,0,1-4.4492-4.4341l-.4375-121.6562a4.455,4.455,0,0,1,4.4336-4.4663l46.3115-.1666L539.36,109.18a.5.5,0,0,1,.9355.249l-.3994,70.6655a.5262.5262,0,0,1-.5068.4971,2.0377,2.0377,0,0,1-1.4883-.6045c-1.0928-1.0884-1.16-3.42-1.166-4.9673l-3.1709.0113a.6525.6525,0,0,0-.65.6543l.1777,49.6479a.6541.6541,0,0,0,.6524.65h.0029c-.0078,0,4.915-.0981,5.8144-.1011h.002a.5.5,0,0,1,.5.4981l.2324,64.6777a.5014.5014,0,0,1-.5.502ZM525.5317,264.624a.5.5,0,0,1,.4385.2593l13.3184,24.2173-.2237-62.2134c-1.5361.021-5.3066.0962-5.3066.0962h-.0068a1.657,1.657,0,0,1-1.66-1.646l-.1777-49.6479a1.652,1.652,0,0,1,1.6465-1.6587l3.6718-.0132a.5665.5665,0,0,1,.3545.145.5.5,0,0,1,.1475.3535v.22c.0019,1.2852.0049,3.6783.873,4.542a1.0867,1.0867,0,0,0,.292.211l.3858-68.1441-13.84,24.4693a.5006.5006,0,0,1-.4336.2539l-46.6015.1675a3.4537,3.4537,0,0,0-3.4375,3.4624L475.41,261.354a3.4536,3.4536,0,0,0,3.4492,3.438h.0127l46.6582-.168Z"/></g></g><g id="blue"><path class="cls-2" d="M81.4775,283.833a10.4966,10.4966,0,1,1,10.4966-10.4966A10.5087,10.5087,0,0,1,81.4775,283.833Zm0-20.2432a9.7466,9.7466,0,1,0,9.7466,9.7466A9.7573,9.7573,0,0,0,81.4775,263.59Z"/><path class="cls-3" d="M80.5015,270.5488a2.6917,2.6917,0,0,1-.8536.1734q-.1728,0-.1728-.19v-.2231a.31.31,0,0,1,.05-.1924.6413.6413,0,0,1,.2515-.1426,3.921,3.921,0,0,0,.7309-.4516,4.6613,4.6613,0,0,0,.9038-.91,3.4691,3.4691,0,0,1,.4014-.4766.4428.4428,0,0,1,.2119-.0366h.4634v8.0733c0,.082.063.1542.1894.2177a.3823.3823,0,0,1,.1983.1646,1.6329,1.6329,0,0,1,.0361.4546c0,.0966-.0649.145-.1953.145H80.1611c-.1079,0-.1738-.0166-.1982-.05a.5093.5093,0,0,1-.0361-.2456,1.1176,1.1176,0,0,1,.0307-.3457c.02-.0444.0977-.0874.2315-.1284q.3127-.0945.3125-.2735Z"/><path class="cls-2" d="M281.647,108.3564A10.4966,10.4966,0,1,1,292.144,97.86,10.5087,10.5087,0,0,1,281.647,108.3564Zm0-20.2431a9.7466,9.7466,0,1,0,9.747,9.7466A9.7574,9.7574,0,0,0,281.647,88.1133Z"/><path class="cls-3" d="M280.2046,100.0044H283a.355.355,0,0,0,.2984-.1421,1.393,1.393,0,0,0,.187-.5327.3467.3467,0,0,1,.1059-.2149.5816.5816,0,0,1,.3071-.0532q.3458,0,.3458.1509a.4927.4927,0,0,1-.0166.1172q-.0279.15-.1172.72-.1.6189-.1983,1.08a1.76,1.76,0,0,1-.145.5049.4514.4514,0,0,1-.2593.0444h-4.4018v-1.3056q0-.2733.4682-.6919a15.249,15.249,0,0,0,1.0855-1.2774,6.974,6.974,0,0,0,1.1015-1.7407,5.29,5.29,0,0,0,.2515-1.8022,2.5546,2.5546,0,0,0-.1816-1.2134.59.59,0,0,0-.5215-.2705.5429.5429,0,0,0-.4019.145.513.513,0,0,0-.145.3794,2.2919,2.2919,0,0,0,.0278.3237,3.6387,3.6387,0,0,1,.0337.4854,1.2,1.2,0,0,1-.2314.7866.7317.7317,0,0,1-.5889.2788.7116.7116,0,0,1-.6025-.3013,1.1827,1.1827,0,0,1-.2232-.7251,1.9765,1.9765,0,0,1,.6582-1.498,2.4754,2.4754,0,0,1,1.7632-.6167,2.5239,2.5239,0,0,1,1.8438.7085,2.4575,2.4575,0,0,1,.7226,1.8354,2.8915,2.8915,0,0,1-.2563,1.1968,3.3972,3.3972,0,0,1-.7,1.0156,15.0561,15.0561,0,0,1-1.2974,1.1128A13.9769,13.9769,0,0,0,280.2046,100.0044Z"/><path class="cls-2" d="M451.2935,211.0962A10.4966,10.4966,0,1,1,461.79,200.6,10.5089,10.5089,0,0,1,451.2935,211.0962Zm0-20.2432A9.7466,9.7466,0,1,0,461.04,200.6,9.7575,9.7575,0,0,0,451.2935,190.853Z"/><path class="cls-3" d="M451.8032,199.5811a2.2955,2.2955,0,0,1,1.9971,2.3432,2.5057,2.5057,0,0,1-.3682,1.3613,2.4644,2.4644,0,0,1-1.0127.9068,3.03,3.03,0,0,1-1.3691.3208,2.0936,2.0936,0,0,1-1.5654-.6,1.9332,1.9332,0,0,1-.5889-1.3975,1.1374,1.1374,0,0,1,.207-.6865.7561.7561,0,0,1,1.1543-.0332.9592.9592,0,0,1,.2012.6191,3.46,3.46,0,0,1-.0615.5078,1.3521,1.3521,0,0,0-.0332.2847.5955.5955,0,0,0,.15.41.53.53,0,0,0,.4189.17.5625.5625,0,0,0,.5215-.293,1.9574,1.9574,0,0,0,.17-.94c0-.1118-.0039-.2232-.0107-.335l-.0674-1.3779a1.1572,1.1572,0,0,0-.2735-.5972.786.786,0,0,0-.3984-.2314,3.7727,3.7727,0,0,0-.667-.042l-.1621.0058a.1578.1578,0,0,1-.1787-.1621l-.0107-.2451a.5316.5316,0,0,1-.0059-.0781.2223.2223,0,0,1,.251-.2515,2.7254,2.7254,0,0,0,.9121-.1084.6219.6219,0,0,0,.3711-.332,3.0775,3.0775,0,0,0,.0957-.9766,5.6909,5.6909,0,0,0-.1123-1.417.4469.4469,0,0,0-.4571-.3515.5426.5426,0,0,0-.371.14.4518.4518,0,0,0-.1592.357,2.5284,2.5284,0,0,0,.05.4184,3.41,3.41,0,0,1,.0732.58.6486.6486,0,0,1-.2178.5137.7644.7644,0,0,1-.5185.1894.672.672,0,0,1-.583-.2959,1.2408,1.2408,0,0,1-.21-.7363,1.8256,1.8256,0,0,1,.5977-1.35,2.5613,2.5613,0,0,1,3.3974.1338,2.3593,2.3593,0,0,1,.6133,1.5732,1.8922,1.8922,0,0,1-.4121,1.1968,2.28,2.28,0,0,1-1.2.7564Z"/><path class="cls-2" d="M484.5942,311.6782A10.4966,10.4966,0,1,1,495.09,301.1816,10.5089,10.5089,0,0,1,484.5942,311.6782Zm0-20.2431a9.7466,9.7466,0,1,0,9.7461,9.7465A9.7573,9.7573,0,0,0,484.5942,291.4351Z"/><path class="cls-3" d="M486.4331,301.7764h.4736a.3239.3239,0,0,1,.2344.061.3833.3833,0,0,1,.0557.2456v.3291a.3091.3091,0,0,1-.044.1953.3007.3007,0,0,1-.2129.05h-.5068v1.0488a.5664.5664,0,0,0,.3174.5411.3219.3219,0,0,1,.1728.3125v.2514c0,.0816-.0146.1338-.0439.1558a.4013.4013,0,0,1-.207.0337h-2.3487c-.1113,0-.1806-.02-.206-.0586a1.0439,1.0439,0,0,1-.0391-.3936.3165.3165,0,0,1,.167-.2954.3773.3773,0,0,0,.2119-.34v-1.2554h-2.209c-.1191,0-.1894-.0141-.2119-.042a.3485.3485,0,0,1-.0342-.1924l-.0009-.6479a.62.62,0,0,1,.0166-.1592,3.3792,3.3792,0,0,1,.24-.4155l3.1338-5.0166a.4314.4314,0,0,1,.2041-.18,1.3686,1.3686,0,0,1,.4394-.0474.8818.8818,0,0,1,.3526.0362c.0293.0244.0449.09.0449.1982Zm-1.9756-2.7339-1.7129,2.7339h1.7129Z"/><path class="cls-2" d="M428.0864,204.6475a23.7408,23.7408,0,0,1-.3476-4.0479h.75a23.0413,23.0413,0,0,0,.3359,3.92Z"/><path class="cls-2" d="M464.2212,224.1538h-7.2549v-.75h7.2549Zm-9.0693,0h-3.8584a23.8692,23.8692,0,0,1-3.4385-.249l.1094-.7422a23.0373,23.0373,0,0,0,3.3291.2412h3.8584Zm-9.1075-.5869a23.3839,23.3839,0,0,1-6.8144-2.7319l.3847-.6436a22.6217,22.6217,0,0,0,6.5957,2.644Zm-8.3564-3.7383a23.6152,23.6152,0,0,1-5.2578-5.1225l.6-.4493a22.884,22.884,0,0,0,5.0918,4.9595Zm-6.3047-6.6387a23.41,23.41,0,0,1-2.9121-6.74l.7266-.1856a22.6862,22.6862,0,0,0,2.8183,6.524Z"/><polygon class="cls-2" points="469.429 221.872 467.809 221.872 469.342 223.404 466.05 223.404 466.05 224.154 469.342 224.154 467.809 225.686 469.429 225.686 471.336 223.779 469.429 221.872"/><rect class="cls-2" x="512.5659" y="297.1816" width="0.75" height="4"/><path class="cls-2" d="M513.3159,295.521h-.75v-6.6431h.75Zm0-8.3037h-.75v-6.6431h.75Z"/><polygon class="cls-2" points="514.849 275.535 512.941 273.628 511.034 275.535 511.034 277.154 512.566 275.622 512.566 278.914 513.316 278.914 513.316 275.621 514.849 277.154 514.849 275.535"/></g></g></g></g></svg>