<svg xmlns="http://www.w3.org/2000/svg" xmlns:xlink="http://www.w3.org/1999/xlink" width="257.7595mm" height="209.5173mm" viewBox="0 0 730.6568 593.9074"><defs><style>.cls-1{fill:none;}.cls-2{fill:#fff;}.cls-3{clip-path:url(#clip-path);}.cls-4{fill:#808285;}.cls-5{fill:#d1d3d4;}.cls-6{fill:#ef4136;}.cls-7{fill:#00aeef;}.cls-8{fill:#f2a179;}.cls-9{fill:#3d723a;}</style><clipPath id="clip-path"><rect class="cls-1" x="160.4831" y="163.5336" width="517.3042" height="428.984" rx="6.7593" ry="6.7593"/></clipPath></defs><title>24. double cablage ETH 1 et 2</title><g id="Layer_2" data-name="Layer 2"><g id="_24._double_cablage_ETH_1_et_2" data-name="24. double cablage ETH 1 et 2"><g id="Exp"><rect class="cls-2" x="160.4831" y="164.9235" width="517.3042" height="428.984" rx="6.7593" ry="6.7593"/><g class="cls-3"><g id="La_Box_3_4" data-name="La Box 3/4"><path class="cls-4" d="M310.8714,358.1807a.3771.3771,0,0,1-.1875-.05L59.1136,212.8857a.3757.3757,0,0,1,0-.65L425.3821.7705a5.804,5.804,0,0,1,5.7793,0L680.03,144.4551a.3758.3758,0,0,1,0,.65L311.0589,358.1309A.3769.3769,0,0,1,310.8714,358.1807Zm-250.82-145.62,250.82,144.8125L679.0921,144.78,430.7864,1.4209a5.0385,5.0385,0,0,0-5.0293,0Z"/><path class="cls-4" d="M319.65,372.7109a.6067.6067,0,0,1-.5185-.29l-8.7774-14.2979a.6057.6057,0,0,1,.2139-.8427L679.5384,144.2549a.6039.6039,0,0,1,.81.19l9.26,14.0195a.6117.6117,0,0,1,.084.4747.6039.6039,0,0,1-.2871.3857L319.9525,372.6289A.6006.6006,0,0,1,319.65,372.7109ZM311.7152,358.02l8.1416,13.2627L688.24,158.5967l-8.5889-13.0049Z"/><path class="cls-4" d="M361.1859,542.2813a.4905.4905,0,0,1-.25-.0674L226.765,464.75a.5.5,0,0,1-.25-.4326V445.2412L110.1155,378.0371v18.5a.5.5,0,0,1-.75.4326L.25,333.9727a.5.5,0,0,1,.0869-.9053L42.03,318.7168V222.2441a.5.5,0,0,1,.25-.4326l16.7715-9.6836a.4977.4977,0,0,1,.5,0l251.57,145.2451a.4922.4922,0,0,1,.1758.1709l8.7773,14.2979a.4952.4952,0,0,1,.0742.2617V478.918l41.4541,62.5869a.5.5,0,0,1-.4169.7764ZM227.515,464.0283l132.081,76.2578-40.3642-60.9414a.5034.5034,0,0,1-.0831-.2763V372.2451l-8.6367-14.0693L59.3011,213.1377,43.03,222.5332v96.54a.5.5,0,0,1-.3369.4727L1.7005,333.6553l107.415,62.0156v-18.5a.5.5,0,0,1,.75-.4326L227.265,444.52a.5.5,0,0,1,.25.4326Z"/><path class="cls-4" d="M361.1859,542.2813a.5.5,0,0,1-.417-.2237l-41.5371-62.7129a.5008.5008,0,0,1,.1669-.709L688.6019,265.1641V159.666l-368.7032,212.87-.5-.8652L688.8519,158.3672a.5.5,0,0,1,.75.4326V265.3037l40.9746,63.1807a.5.5,0,0,1-.17.7051L361.4359,542.2139A.4937.4937,0,0,1,361.1859,542.2813Zm-40.8272-63.0459,40.9844,61.8779L729.4505,328.5869l-40.51-62.4639Z"/><rect class="cls-5" x="-2.7217" y="321.1749" width="48.4733" height="0.5809" transform="translate(-157.1042 53.3272) rotate(-29.8405)"/><path class="cls-4" d="M439.7757,64.4707l-.2285-.5332c3.7412-1.6074,5.8877-3.9053,5.8877-6.3037h.58C446.015,60.2754,443.7415,62.7676,439.7757,64.4707Z"/><path class="cls-4" d="M428.2718,66.6064a29.8832,29.8832,0,0,1-11.5068-2.1376l.2285-.5333a31.4692,31.4692,0,0,0,22.5537.002l.2285.5332A29.8876,29.8876,0,0,1,428.2718,66.6064Z"/><path class="cls-4" d="M416.765,64.4688c-3.9639-1.7022-6.2364-4.1934-6.2364-6.835h.58c0,2.3984,2.1455,4.6953,5.8848,6.3017Z"/><path class="cls-4" d="M428.2718,45.0742c-7.3828,0-13.3887-3.0527-13.3887-6.8066s6.0059-6.8067,13.3887-6.8067,13.3887,3.0528,13.3887,6.8067S435.6546,45.0742,428.2718,45.0742Zm0-13.0332c-7.0625,0-12.8086,2.794-12.8086,6.2266s5.7461,6.2265,12.8086,6.2265S441.08,41.7,441.08,38.2676,435.3343,32.041,428.2718,32.041Z"/><polygon class="cls-4" points="417.169 64.211 416.589 64.211 417.169 64.202 417.169 64.211"/><path class="cls-4" d="M411.1087,57.6338h-.58c0-6.0322,2.2686-19.4619,5.3731-21.98l.3652.4512C413.52,38.333,411.1087,51.1,411.1087,57.6338Z"/><polygon class="cls-4" points="439.951 64.21 439.371 64.21 439.951 64.204 439.951 64.21"/><path class="cls-4" d="M446.015,57.6338h-.58c0-6.6582-1.7725-18.0635-4.9756-21.2676l.41-.41C444.1829,39.2686,446.015,50.877,446.015,57.6338Z"/><path class="cls-6" d="M428.2716,38.9162c.72,0,1.3037-.29,1.3037-.6486s-.5837-.6486-1.3037-.6486-1.3037.29-1.3037.6486S427.5516,38.9162,428.2716,38.9162Z"/><path class="cls-4" d="M428.2718,39.2061c-.9092,0-1.5938-.4034-1.5938-.9385s.6846-.9385,1.5938-.9385,1.5937.4033,1.5937.9385S429.181,39.2061,428.2718,39.2061Zm0-1.2969c-.6582,0-1.0137.2549-1.0137.3584s.3555.3584,1.0137.3584,1.0137-.2549,1.0137-.3584S428.93,37.9092,428.2718,37.9092Z"/><path class="cls-4" d="M372.69,104.2021l-.2286-.5332c3.7413-1.6074,5.8877-3.9052,5.8877-6.3037h.58C378.929,100.0068,376.6556,102.499,372.69,104.2021Z"/><path class="cls-4" d="M361.1859,106.3389a29.9053,29.9053,0,0,1-11.5069-2.1377l.2285-.5332a31.4629,31.4629,0,0,0,22.5537.0009l.2286.5332A29.8928,29.8928,0,0,1,361.1859,106.3389Z"/><path class="cls-4" d="M349.679,104.2012c-3.9638-1.7032-6.2363-4.1944-6.2363-6.836h.58c0,2.3985,2.1455,4.6953,5.8847,6.3028Z"/><path class="cls-4" d="M361.1859,84.8057c-7.3829,0-13.3887-3.0528-13.3887-6.8067s6.0058-6.8066,13.3887-6.8066,13.3886,3.0527,13.3886,6.8066S368.5687,84.8057,361.1859,84.8057Zm0-13.0332c-7.0625,0-12.8086,2.7939-12.8086,6.2265s5.7461,6.2266,12.8086,6.2266,12.8086-2.794,12.8086-6.2266S368.2484,71.7725,361.1859,71.7725Z"/><polygon class="cls-4" points="350.083 103.942 349.503 103.942 350.083 103.935 350.083 103.942"/><path class="cls-4" d="M344.0228,97.3652h-.58c0-6.0322,2.2685-19.4619,5.373-21.98l.3653.4511C346.4339,78.0645,344.0228,90.8311,344.0228,97.3652Z"/><polygon class="cls-4" points="372.866 103.939 372.285 103.939 372.866 103.936 372.866 103.939"/><path class="cls-4" d="M378.929,97.3652h-.58c0-6.6582-1.7724-18.0634-4.9755-21.2675l.41-.41C377.097,79,378.929,90.6084,378.929,97.3652Z"/><path class="cls-6" d="M361.1857,78.6478c.72,0,1.3037-.29,1.3037-.6485s-.5837-.6487-1.3037-.6487-1.3037.29-1.3037.6487S360.4657,78.6478,361.1857,78.6478Z"/><path class="cls-4" d="M361.1859,78.9375c-.9092,0-1.5938-.4033-1.5938-.9385s.6846-.9385,1.5938-.9385,1.5937.4034,1.5937.9385S362.095,78.9375,361.1859,78.9375Zm0-1.2969c-.6582,0-1.0137.2549-1.0137.3584s.3555.3584,1.0137.3584,1.0136-.2549,1.0136-.3584S361.8441,77.6406,361.1859,77.6406Z"/><image width="1754" height="1240" transform="matrix(0.1126, -0.0644, 0.1257, 0.0734, 216.2469, 199.6412)" xlink:href="../Materials/wattsense-logo-print-page-001.jpg"/><path class="cls-4" d="M522.5413,348.47a3.1183,3.1183,0,0,1-3.1084-3.1133V321.9307a3.1193,3.1193,0,0,1,1.5537-2.6934l36.4385-21.0391a3.1089,3.1089,0,0,1,4.6631,2.6934v23.4258a3.1163,3.1163,0,0,1-1.5537,2.6924l-36.4385,21.039A3.1129,3.1129,0,0,1,522.5413,348.47Zm36.4385-50.11a2.5192,2.5192,0,0,0-1.2637.3427l-36.4384,21.0391a2.5346,2.5346,0,0,0-1.2647,2.19v23.4257a2.5275,2.5275,0,0,0,3.792,2.1885l36.4385-21.039a2.532,2.532,0,0,0,1.2646-2.1885V300.8916a2.5384,2.5384,0,0,0-2.5283-2.5322Z"/><path class="cls-4" d="M552.2073,320.99a.5771.5771,0,0,1-.289-.0781l-7.1817-4.1455a.5806.5806,0,1,1,.58-1.0059l7.1817,4.1456a.5809.5809,0,0,1-.2911,1.0839Z"/><path class="cls-4" d="M535.6966,330.8242a.575.575,0,0,1-.2891-.0781l-7.4423-4.2969a.5805.5805,0,0,1,.58-1.0058l7.4424,4.2968a.5809.5809,0,0,1-.291,1.084Z"/><path class="cls-4" d="M523.0111,344.8027a.2637.2637,0,0,1-.0674-.0088.2893.2893,0,0,1-.2227-.2822v-21.62a.29.29,0,0,1,.1406-.249L558.22,301.3457a.29.29,0,0,1,.4395.249v21.62a.2911.2911,0,0,1-.1826.2706.2965.2965,0,0,1-.3194-.0713l-.9228-.9834a31.3922,31.3922,0,0,1-6.3086,5.6064c-3.6045,2.3057-8.6826,2.5625-9.6279,2.5908-.6426.877-4.5733,6.1055-8.5811,8.377a24.6882,24.6882,0,0,1-8.0137,2.8125l-1.4336,2.8262A.2907.2907,0,0,1,523.0111,344.8027Zm.29-21.747v20.2412l.9531-1.878a.2881.2881,0,0,1,.2227-.1562,24.3185,24.3185,0,0,0,7.9531-2.7637c4.1777-2.3672,8.44-8.2685,8.4814-8.3271a.29.29,0,0,1,.2325-.1211c.0566-.001,5.707-.0967,9.47-2.5039a31.0273,31.0273,0,0,0,6.3838-5.7354.2881.2881,0,0,1,.2148-.1074.3129.3129,0,0,1,.2227.0908l.6445.6865v-20.373Z"/><path class="cls-4" d="M577.43,316.7813a3.1183,3.1183,0,0,1-3.1084-3.1133V290.2422a3.1192,3.1192,0,0,1,1.5537-2.6934l36.4385-21.039a3.1089,3.1089,0,0,1,4.6631,2.6933v23.4258a3.1165,3.1165,0,0,1-1.5537,2.6924L578.9847,316.36A3.1139,3.1139,0,0,1,577.43,316.7813Zm36.4385-50.11a2.5193,2.5193,0,0,0-1.2637.3428l-36.4385,21.039a2.5347,2.5347,0,0,0-1.2646,2.19V313.668a2.5274,2.5274,0,0,0,3.792,2.1884l36.4384-21.039a2.5317,2.5317,0,0,0,1.2647-2.1885V269.2031a2.5387,2.5387,0,0,0-2.5283-2.5322Z"/><path class="cls-4" d="M607.096,289.3018a.5762.5762,0,0,1-.289-.0782l-7.1817-4.1455a.5805.5805,0,1,1,.58-1.0058l7.1816,4.1455a.5809.5809,0,0,1-.291,1.084Z"/><path class="cls-4" d="M590.5853,299.1357a.5735.5735,0,0,1-.2891-.0781l-7.4424-4.2969a.5805.5805,0,1,1,.58-1.0058l7.4424,4.2969a.5809.5809,0,0,1-.291,1.0839Z"/><path class="cls-4" d="M577.9,313.1143a.2694.2694,0,0,1-.0674-.0088.29.29,0,0,1-.2226-.2823v-21.62a.29.29,0,0,1,.1406-.249l35.3584-21.2969a.29.29,0,0,1,.4395.2491v21.62a.29.29,0,0,1-.502.1992l-.9228-.9834a31.3951,31.3951,0,0,1-6.3086,5.6064c-3.6045,2.3047-8.6827,2.5625-9.628,2.5909-.6425.8769-4.5732,6.1044-8.581,8.3769a24.689,24.689,0,0,1-8.0137,2.8125l-1.4336,2.8262A.291.291,0,0,1,577.9,313.1143Zm.29-21.7471v20.2412l.9531-1.8779a.2878.2878,0,0,1,.2226-.1563,24.29,24.29,0,0,0,7.9532-2.7637c4.18-2.3691,8.4394-8.2685,8.4814-8.3271a.29.29,0,0,1,.2324-.1211c.0567-.001,5.7071-.0977,9.47-2.5039a31.03,31.03,0,0,0,6.3838-5.7354.2885.2885,0,0,1,.2148-.1074.3506.3506,0,0,1,.2227.0908l.6445.6866V270.42Z"/><path class="cls-4" d="M632.2913,285.0752a3.1183,3.1183,0,0,1-3.1084-3.1133V258.5361a3.1192,3.1192,0,0,1,1.5537-2.6933l36.4385-21.0391a3.1089,3.1089,0,0,1,4.6631,2.6934v23.4258a3.1162,3.1162,0,0,1-1.5537,2.6923L633.846,284.6543A3.1129,3.1129,0,0,1,632.2913,285.0752Zm36.4385-50.11a2.5193,2.5193,0,0,0-1.2637.3428l-36.4384,21.0391a2.5344,2.5344,0,0,0-1.2647,2.1894v23.4258a2.5275,2.5275,0,0,0,3.792,2.1885l36.4385-21.0391a2.5318,2.5318,0,0,0,1.2646-2.1884V237.4971a2.5386,2.5386,0,0,0-2.5283-2.5323Z"/><path class="cls-4" d="M661.9573,257.5957a.5771.5771,0,0,1-.289-.0781l-7.1817-4.1455a.5806.5806,0,1,1,.58-1.0059l7.1817,4.1455a.581.581,0,0,1-.2911,1.084Z"/><path class="cls-4" d="M645.4456,267.43a.5807.5807,0,0,1-.29-.0781l-7.4414-4.2969a.5811.5811,0,0,1,.582-1.0059l7.4414,4.2969a.5811.5811,0,0,1-.292,1.084Z"/><path class="cls-4" d="M632.7611,281.4082a.2637.2637,0,0,1-.0674-.0088.2893.2893,0,0,1-.2227-.2822v-21.62a.29.29,0,0,1,.1406-.2491L667.97,237.9512a.2938.2938,0,0,1,.292-.0039.29.29,0,0,1,.1475.2529v21.62a.2909.2909,0,0,1-.1826.2705.2957.2957,0,0,1-.3194-.0713l-.9228-.9834a31.3917,31.3917,0,0,1-6.3086,5.6065c-3.6045,2.3056-8.6826,2.5635-9.6279,2.5918-.6426.8769-4.5733,6.1045-8.5811,8.376a24.6882,24.6882,0,0,1-8.0137,2.8125L633.02,281.249A.2906.2906,0,0,1,632.7611,281.4082Zm.29-21.7471v20.2412l.9531-1.8779a.2881.2881,0,0,1,.2227-.1562,24.3213,24.3213,0,0,0,7.9531-2.7637c4.1777-2.3672,8.44-8.2676,8.4814-8.3262a.29.29,0,0,1,.2325-.1211c.0566-.0009,5.706-.0976,9.47-2.5049a31.0252,31.0252,0,0,0,6.3838-5.7353.2881.2881,0,0,1,.2148-.1074.2694.2694,0,0,1,.2227.0908l.6445.6865v-20.373Z"/><path class="cls-4" d="M422.2747,405.98a3.0026,3.0026,0,0,1-2.9912-2.9971V353.3535a5.7,5.7,0,0,1,2.8672-4.9433c5.9707-3.4034,22.5254-13.1231,40.0527-23.4141,18.4932-10.8584,37.6172-22.0859,45.292-26.4688a2.9768,2.9768,0,0,1,4.45,2.5987v49.0947c0,3.2236-.5537,4.1689-1.5107,4.7148l-86.6738,50.6456A2.9986,2.9986,0,0,1,422.2747,405.98Zm86.6944-107.2656a2.39,2.39,0,0,0-1.1856.3174c-7.6719,4.3818-26.7939,15.6083-45.2861,26.4658-17.5283,10.292-34.085,20.0127-40.06,23.417a5.1225,5.1225,0,0,0-2.5742,4.4394v49.6289a2.4127,2.4127,0,0,0,3.6074,2.0957l86.6738-50.6465c.6192-.3525,1.2207-.9658,1.2207-4.2109V301.126a2.4084,2.4084,0,0,0-2.3964-2.4121Z"/><path class="cls-4" d="M424.3236,370.6416a.2973.2973,0,0,1-.1456-.0381.2918.2918,0,0,1-.1445-.2519V353.4277a.29.29,0,0,1,.1455-.2519c1.6231-.9317,33.2237-19.1817,33.542-19.3662a.2969.2969,0,0,1,.291,0,.29.29,0,0,1,.1446.2519v16.9239a.2917.2917,0,0,1-.1446.2519l-33.5429,19.3662A.2972.2972,0,0,1,424.3236,370.6416Zm.29-17.0459v16.2529l32.9629-19.0312V334.5645C453.8284,336.73,427.2532,352.0771,424.6136,353.5957Z"/><path class="cls-4" d="M454.846,343.7973c-3.8395,2.218-25.5455,14.757-27.8922,16.1044a.371.371,0,0,0-.1884.33v5.2936a.3863.3863,0,0,0,.5819.3323l27.8838-16.0987a.3879.3879,0,0,0,.194-.3359v-5.2877A.3865.3865,0,0,0,454.846,343.7973Z"/><path class="cls-4" d="M474.097,342.3662a.2969.2969,0,0,1-.1455-.0381.2916.2916,0,0,1-.1445-.2519V325.1523a.29.29,0,0,1,.1455-.2519c1.623-.9307,33.2236-19.1807,33.542-19.3652a.2969.2969,0,0,1,.291,0,.2906.2906,0,0,1,.1445.2519v16.9238a.2919.2919,0,0,1-.1445.252l-33.543,19.3652A.2969.2969,0,0,1,474.097,342.3662Zm.29-17.0459v16.2529l32.9629-19.03V306.29C503.6019,308.4551,477.0267,323.8027,474.387,325.32Z"/><path class="cls-4" d="M504.6193,315.5222c-3.8395,2.218-25.5455,14.757-27.8922,16.1044a.3709.3709,0,0,0-.1884.33V337.25a.3863.3863,0,0,0,.5819.3323l27.8838-16.0987a.3878.3878,0,0,0,.1939-.3359V315.86A.3865.3865,0,0,0,504.6193,315.5222Z"/><path class="cls-4" d="M431.41,396.9629a3.4557,3.4557,0,0,1-3.4443-3.4385h0l-.0508-16.2773a6.5763,6.5763,0,0,1,3.4306-5.8076c13.8155-7.5235,60.1368-34.4825,69.2823-39.8106a3.4329,3.4329,0,0,1,5.17,2.959v16.9434a6.5956,6.5956,0,0,1-3.3486,5.7314l-69.335,39.2441A3.4413,3.4413,0,0,1,431.41,396.9629Zm-2.8643-3.44a2.8635,2.8635,0,0,0,4.2813,2.4785l69.3359-39.2442a6.016,6.016,0,0,0,3.0547-5.2255V334.5879a2.853,2.853,0,0,0-4.2969-2.457c-9.1465,5.3291-55.4746,32.292-69.2978,39.8183a6.0018,6.0018,0,0,0-3.1279,5.2959Z"/><path class="cls-4" d="M453.6214,381.0361a1.9663,1.9663,0,0,1-.7217-.13,1.7355,1.7355,0,0,1-1.0283-1.1573l-2.2207-7.1533c-.8262-2.6611,1.4834-7.0664,4.6611-8.8926l27.169-15.6172c1.5693-.9033,3.0381-.999,4.0273-.2675s1.3262,2.166.9219,3.9316l-2.22,9.6885a7.1314,7.1314,0,0,1-3.1553,4.2656L455.31,380.5215A3.4522,3.4522,0,0,1,453.6214,381.0361Zm30.3145-33.124a4.4739,4.4739,0,0,0-2.1661.6777h0L454.6009,364.207c-2.9746,1.709-5.1514,5.7793-4.3955,8.2168l2.2207,7.1533a1.1571,1.1571,0,0,0,.6855.7881,2.3253,2.3253,0,0,0,1.9092-.3476L480.7659,365.2a6.5089,6.5089,0,0,0,2.878-3.8906l2.22-9.6885c.3506-1.5313.0947-2.7471-.7012-3.3359A2.0181,2.0181,0,0,0,483.9359,347.9121Zm-2.3106.4258h0Z"/><path class="cls-4" d="M441.5677,382.3408a1.6119,1.6119,0,0,1-.8164-.2051,1.7636,1.7636,0,0,1-.7891-1.6211,5.8615,5.8615,0,0,1,2.81-4.4746,2.2927,2.2927,0,0,1,2.2715-.2363,1.7609,1.7609,0,0,1,.789,1.62,5.8614,5.8614,0,0,1-2.81,4.4756A2.9732,2.9732,0,0,1,441.5677,382.3408Zm2.6572-6.2441a2.4837,2.4837,0,0,0-1.2031.3769,5.3088,5.3088,0,0,0-2.56,4.041,1.2911,1.2911,0,0,0,.54,1.1885,1.84,1.84,0,0,0,1.7695-.2373,5.31,5.31,0,0,0,2.56-4.042,1.29,1.29,0,0,0-.539-1.1875A1.1229,1.1229,0,0,0,444.2249,376.0967Z"/><path class="cls-4" d="M491.3128,353.71a1.6059,1.6059,0,0,1-.8154-.2051,1.7626,1.7626,0,0,1-.7891-1.6211,5.8613,5.8613,0,0,1,2.81-4.4746,2.2905,2.2905,0,0,1,2.2705-.2363,1.7624,1.7624,0,0,1,.7891,1.621,5.8647,5.8647,0,0,1-2.81,4.4747A2.9807,2.9807,0,0,1,491.3128,353.71Zm2.6572-6.2442a2.4775,2.4775,0,0,0-1.2021.377,5.31,5.31,0,0,0-2.56,4.041,1.2907,1.2907,0,0,0,.5391,1.1885,1.8294,1.8294,0,0,0,1.77-.2373,5.3117,5.3117,0,0,0,2.56-4.0411,1.2888,1.2888,0,0,0-.54-1.1884A1.1155,1.1155,0,0,0,493.97,347.4658Z"/><ellipse class="cls-4" cx="455.3416" cy="368.5265" rx="2.0813" ry="1.1828" transform="translate(-111.7331 515.4075) rotate(-53.506)"/><ellipse class="cls-4" cx="461.7734" cy="364.8248" rx="2.0813" ry="1.1828" transform="translate(-106.1507 519.078) rotate(-53.506)"/><ellipse class="cls-4" cx="468.2052" cy="361.1231" rx="2.0813" ry="1.1828" transform="translate(-100.5682 522.7485) rotate(-53.506)"/><ellipse class="cls-4" cx="474.637" cy="357.4214" rx="2.0813" ry="1.1828" transform="translate(-94.9858 526.419) rotate(-53.506)"/><ellipse class="cls-4" cx="481.0688" cy="353.7196" rx="2.0813" ry="1.1828" transform="translate(-89.4033 530.0895) rotate(-53.506)"/><ellipse class="cls-4" cx="458.3898" cy="373.6829" rx="2.0813" ry="1.1828" transform="translate(-114.6431 519.9477) rotate(-53.506)"/><ellipse class="cls-4" cx="464.8216" cy="369.9812" rx="2.0813" ry="1.1828" transform="translate(-109.0606 523.6182) rotate(-53.506)"/><ellipse class="cls-4" cx="471.2534" cy="366.2794" rx="2.0813" ry="1.1828" transform="translate(-103.4782 527.2887) rotate(-53.506)"/><ellipse class="cls-4" cx="477.6852" cy="362.5777" rx="2.0813" ry="1.1828" transform="matrix(0.5947, -0.8039, 0.8039, 0.5947, -97.8957, 530.9592)"/><path class="cls-4" d="M339.6478,429.0576a.2392.2392,0,0,1-.1172-.0312.2337.2337,0,0,1-.1162-.2022V399.5625a.2321.2321,0,0,1,.1172-.2021l31.7129-18.2012a.2366.2366,0,0,1,.2333,0,.2336.2336,0,0,1,.1163.2021V410.623a.2324.2324,0,0,1-.1172.2022L339.764,429.0264A.236.236,0,0,1,339.6478,429.0576Zm.2334-29.36v28.7236l31.2461-17.9326V381.7646Z"/><path class="cls-7" d="M351.6068,420.2012a.2393.2393,0,0,1-.1172-.0313.2335.2335,0,0,1-.1162-.2021v-1.8l-2.4258,1.3916a.2368.2368,0,0,1-.2334,0,.2337.2337,0,0,1-.1162-.2022v-3.2695l-5.2032,2.9853a.2363.2363,0,0,1-.2334,0,.2336.2336,0,0,1-.1162-.2021V402.4658a.2323.2323,0,0,1,.1172-.2021l24.4522-14.0352a.2368.2368,0,0,1,.2334,0,.2339.2339,0,0,1,.1162.2022v16.4062a.2323.2323,0,0,1-.1172.2022l-5.4356,3.12v3.5381a.2322.2322,0,0,1-.1171.2021l-2.6592,1.5254v2.0693a.2322.2322,0,0,1-.1172.2022L351.723,420.17A.2361.2361,0,0,1,351.6068,420.2012Zm0-2.67a.2391.2391,0,0,1,.1171.0312.2336.2336,0,0,1,.1163.2021v1.8l7.3281-4.2051V413.29a.2322.2322,0,0,1,.1172-.2021l2.6591-1.5254v-3.5381a.2323.2323,0,0,1,.1172-.2021l5.4356-3.12V388.834L343.512,402.6006v15.8672l5.2032-2.9854a.2368.2368,0,0,1,.2334,0,.2339.2339,0,0,1,.1162.2022v3.2695l2.4257-1.3916A.2361.2361,0,0,1,351.6068,417.5313Zm7.7949-2.0372h0Z"/><path class="cls-4" d="M376.5384,407.8848a.24.24,0,0,1-.1172-.0313.2335.2335,0,0,1-.1162-.2021V378.39a.2322.2322,0,0,1,.1172-.2021l31.7129-18.2021a.2329.2329,0,0,1,.35.2021v29.2617a.2322.2322,0,0,1-.1172.2022l-31.7129,18.2021A.2359.2359,0,0,1,376.5384,407.8848Zm.2334-29.36V407.248l31.2461-17.9335V360.5908Z"/><path class="cls-8" d="M388.4974,399.0283a.2392.2392,0,0,1-.1172-.0312.2337.2337,0,0,1-.1162-.2022v-1.8008l-2.4258,1.3926a.2368.2368,0,0,1-.2334,0,.2335.2335,0,0,1-.1162-.2021v-3.27L380.2855,397.9a.2368.2368,0,0,1-.2334,0,.2336.2336,0,0,1-.1162-.2022V381.292a.2325.2325,0,0,1,.1171-.2022l24.4522-14.0341a.2363.2363,0,0,1,.2334,0,.2335.2335,0,0,1,.1162.2021v16.4063a.2322.2322,0,0,1-.1172.2021l-5.4355,3.1192v3.538a.2324.2324,0,0,1-.1172.2022l-2.6592,1.5264V394.32a.2323.2323,0,0,1-.1172.2022l-7.7949,4.4746A.2358.2358,0,0,1,388.4974,399.0283Zm0-2.6709a.24.24,0,0,1,.1172.0313.2338.2338,0,0,1,.1162.2021v1.8008l7.3281-4.2061v-2.0683a.2323.2323,0,0,1,.1172-.2022l2.6592-1.5263v-3.5381a.2323.2323,0,0,1,.1172-.2022l5.4355-3.1191V367.6611l-23.9853,13.7657v15.8681l5.2031-2.9863a.2368.2368,0,0,1,.2334,0,.2338.2338,0,0,1,.1162.2021v3.2706l2.4258-1.3926A.2356.2356,0,0,1,388.4974,396.3574Zm7.7949-2.0371h0Z"/><path class="cls-4" d="M337.348,434.1465a1.3453,1.3453,0,0,1-.6787-.1719,1.4336,1.4336,0,0,1-.65-1.3164V399.8955a4.5278,4.5278,0,0,1,2.2139-3.5068l71.0537-40.7823a1.87,1.87,0,0,1,1.8535-.1835,1.4333,1.4333,0,0,1,.6494,1.3164V389.502a4.5283,4.5283,0,0,1-2.2138,3.5078h0L338.5228,433.792A2.4026,2.4026,0,0,1,337.348,434.1465Zm73.1113-78.3154a1.8447,1.8447,0,0,0-.8828.2793l-71.0537,40.7822a4.0178,4.0178,0,0,0-1.9229,3.0029v32.7627a.8982.8982,0,0,0,.36.8135,1.3368,1.3368,0,0,0,1.2734-.1836l71.0537-40.7822a4.0231,4.0231,0,0,0,1.9229-3.0039V356.7393a.8981.8981,0,0,0-.36-.8135A.7737.7737,0,0,0,410.4593,355.8311Z"/><g id="Connecteur"><polygon class="cls-2" points="658.873 297.856 633.995 283.493 633.804 236.006 659.013 250.374 658.873 297.856"/><path class="cls-9" d="M658.8724,298.1426a.2874.2874,0,0,1-.1436-.0381l-24.8779-14.3633a.2866.2866,0,0,1-.1436-.248l-.19-47.4854a.2852.2852,0,0,1,.1426-.249.292.292,0,0,1,.2871-.002l25.209,14.3672a.2872.2872,0,0,1,.1445.251l-.1406,47.4814a.2855.2855,0,0,1-.1436.2481A.29.29,0,0,1,658.8724,298.1426Zm-24.5908-14.8164,24.3046,14.0322.1387-46.8174-24.6318-14.039Z"/><polygon class="cls-2" points="659.013 250.374 692.043 230.827 692.043 278.747 658.873 297.856 659.013 250.374"/><path class="cls-9" d="M658.8724,298.1426a.2872.2872,0,0,1-.2871-.2881l.1406-47.4815a.286.286,0,0,1,.1406-.246l33.03-19.5469a.2933.2933,0,0,1,.2891-.003.2877.2877,0,0,1,.1445.25v47.92a.2883.2883,0,0,1-.1436.249l-33.1709,19.1084A.29.29,0,0,1,658.8724,298.1426Zm.4277-47.6045-.1387,46.8193,32.5948-18.7763v-47.25Z"/><polygon class="cls-2" points="633.804 236.006 659.013 250.374 692.043 230.827 667.165 216.464 633.804 236.006"/><path class="cls-9" d="M659.013,250.6611a.2988.2988,0,0,1-.1426-.0371l-25.209-14.3672a.2882.2882,0,0,1-.0029-.498l33.3613-19.543a.2888.2888,0,0,1,.2891-.001l24.8779,14.3633a.2876.2876,0,0,1,.003.4961l-33.03,19.5469A.2808.2808,0,0,1,659.013,250.6611Zm-24.6348-14.6572L659.01,250.042,691.4739,230.83l-24.3076-14.0342Z"/><path class="cls-9" d="M663.0726,292.8828a.1388.1388,0,0,1-.0723-.0195.1429.1429,0,0,1-.0713-.124V281.1064a.1417.1417,0,0,1,.0723-.124l8.292-4.7773a.1355.1355,0,0,1,.1435,0,.1425.1425,0,0,1,.0713.124v11.6328a.1415.1415,0,0,1-.0722.124l-8.292,4.7774A.1329.1329,0,0,1,663.0726,292.8828Zm.1435-11.6933V292.49l8.0049-4.6113V276.5781Z"/><path class="cls-9" d="M679.9456,282.4629a.1391.1391,0,0,1-.0722-.0195.1427.1427,0,0,1-.0713-.1241V270.6865a.1416.1416,0,0,1,.0722-.124l8.291-4.7783a.1357.1357,0,0,1,.1436,0,.1428.1428,0,0,1,.0713.124V277.541a.1416.1416,0,0,1-.0723.124l-8.291,4.7784A.1338.1338,0,0,1,679.9456,282.4629Zm.1436-11.6934V282.07l8.0039-4.6123V266.1572Z"/><path class="cls-9" d="M679.9456,279.6377a.1437.1437,0,0,1-.0732-.2676l5.7012-3.3555v-8.4433a.1436.1436,0,1,1,.2871,0v8.5254a.1441.1441,0,0,1-.07.124l-5.7714,3.3975A.1458.1458,0,0,1,679.9456,279.6377Z"/><path class="cls-9" d="M663.0726,289.8477a.1434.1434,0,0,1-.0713-.2676l5.5869-3.2217v-8.5127a.1436.1436,0,1,1,.2871,0v8.5957a.1414.1414,0,0,1-.0723.124l-5.6591,3.2627A.1354.1354,0,0,1,663.0726,289.8477Z"/><path class="cls-9" d="M688.2366,277.6846a.1441.1441,0,0,1-.0713-.0186l-2.5195-1.4443a.1439.1439,0,0,1,.1426-.25l2.5195,1.4443a.1437.1437,0,0,1-.0713.2686Z"/><path class="cls-9" d="M671.3646,288.1055a.1412.1412,0,0,1-.0723-.02l-2.6328-1.52a.1435.1435,0,1,1,.1445-.248l2.6328,1.52a.1436.1436,0,0,1-.0722.2676Z"/><polygon class="cls-9" points="678.04 235.861 683.063 232.828 681.52 231.913 676.497 234.946 678.04 235.861"/><polygon class="cls-9" points="662.654 245.153 667.677 242.12 666.134 241.204 661.111 244.237 662.654 245.153"/><path class="cls-9" d="M669.763,232.1182a9.8872,9.8872,0,0,1-4.998-1.2344,3.687,3.687,0,0,1-2.0723-3.0606,3.89,3.89,0,0,1,2.2217-3.1894,10.8925,10.8925,0,0,1,10.164-.0459,3.6869,3.6869,0,0,1,2.0723,3.0605,3.8877,3.8877,0,0,1-2.2217,3.1895A10.32,10.32,0,0,1,669.763,232.1182Zm.3193-8.4649a10.0218,10.0218,0,0,0-5.0117,1.2422,3.606,3.606,0,0,0-2.0732,2.9287,3.3993,3.3993,0,0,0,1.9258,2.7979,10.5634,10.5634,0,0,0,9.85-.0459,3.6014,3.6014,0,0,0,2.0732-2.9287A3.3987,3.3987,0,0,0,674.92,224.85,9.5564,9.5564,0,0,0,670.0823,223.6533Z"/><path class="cls-9" d="M653.429,241.8242a9.88,9.88,0,0,1-4.997-1.2344h0a3.69,3.69,0,0,1-2.0723-3.0615,3.89,3.89,0,0,1,2.2217-3.1885,10.8928,10.8928,0,0,1,10.164-.0459,3.6893,3.6893,0,0,1,2.0723,3.0606,3.8922,3.8922,0,0,1-2.2217,3.1894A10.3227,10.3227,0,0,1,653.429,241.8242Zm-4.8388-1.4961a10.5577,10.5577,0,0,0,9.85-.0459,3.6045,3.6045,0,0,0,2.0722-2.9287,3.396,3.396,0,0,0-1.9248-2.7978,10.5519,10.5519,0,0,0-9.85.0459,3.6033,3.6033,0,0,0-2.0732,2.9277,3.4,3.4,0,0,0,1.9258,2.7988Z"/><rect class="cls-9" x="662.8528" y="227.5308" width="14.1445" height="0.3047"/><rect class="cls-9" x="653.4545" y="230.964" width="0.3045" height="12.9187" transform="matrix(0.3139, -0.9494, 0.9494, 0.3139, 222.9956, 783.4505)"/><rect class="cls-9" x="656.4697" y="270.3923" width="38.1168" height="0.5005" transform="translate(-44.8776 373.6051) rotate(-29.9667)"/></g><g id="Connecteur-2" data-name="Connecteur"><polygon class="cls-2" points="603.811 329.472 578.934 315.109 578.743 267.623 603.952 281.99 603.811 329.472"/><path class="cls-9" d="M603.8118,329.76a.2868.2868,0,0,1-.1435-.0381L578.79,315.3584a.2868.2868,0,0,1-.1435-.248l-.1914-47.4864a.2853.2853,0,0,1,.1426-.249.292.292,0,0,1,.2871-.002l25.209,14.3672a.2872.2872,0,0,1,.1445.251l-.14,47.4824a.2854.2854,0,0,1-.1435.2481A.29.29,0,0,1,603.8118,329.76ZM579.221,314.9434l24.3047,14.0322.1377-46.8184-24.6318-14.039Z"/><polygon class="cls-2" points="603.952 281.99 636.982 262.444 636.982 310.363 603.811 329.472 603.952 281.99"/><path class="cls-9" d="M603.8118,329.76a.2873.2873,0,0,1-.2871-.2881l.14-47.4824a.286.286,0,0,1,.1406-.2461l33.03-19.5469a.2931.2931,0,0,1,.289-.0029.2873.2873,0,0,1,.1446.25v47.92a.2883.2883,0,0,1-.1436.249l-33.17,19.1094A.29.29,0,0,1,603.8118,329.76Zm.4268-47.6055-.1377,46.82,32.5937-18.7773v-47.25Z"/><polygon class="cls-2" points="578.743 267.623 603.952 281.99 636.982 262.444 612.104 248.081 578.743 267.623"/><path class="cls-9" d="M603.9515,282.2773a.2988.2988,0,0,1-.1426-.0371L578.6,267.873a.2882.2882,0,0,1-.0029-.498l33.3613-19.542a.2888.2888,0,0,1,.2891-.001l24.8779,14.3623a.2875.2875,0,0,1,.0029.4961l-33.03,19.5469A.2811.2811,0,0,1,603.9515,282.2773ZM579.3167,267.62l24.6319,14.0381,32.4638-19.2119-24.3076-14.0332Z"/><path class="cls-9" d="M608.0111,324.5a.1392.1392,0,0,1-.0723-.0195.1427.1427,0,0,1-.0713-.1241V312.7236a.1415.1415,0,0,1,.0723-.124l8.292-4.7783a.1355.1355,0,0,1,.1435,0,.1427.1427,0,0,1,.0713.124v11.6328a.1413.1413,0,0,1-.0723.124l-8.292,4.7784A.1332.1332,0,0,1,608.0111,324.5Zm.1435-11.6934v11.3008l8.0049-4.6123V308.1943Z"/><path class="cls-9" d="M624.8841,314.0791a.14.14,0,0,1-.0723-.0195.1429.1429,0,0,1-.0713-.1241V302.3027a.1417.1417,0,0,1,.0723-.124l8.292-4.7783a.1357.1357,0,0,1,.1436,0,.1428.1428,0,0,1,.0712.124v11.6328a.1417.1417,0,0,1-.0722.1241l-8.292,4.7783A.1338.1338,0,0,1,624.8841,314.0791Zm.1436-11.6934v11.3008l8.0048-4.6123V297.7734Z"/><path class="cls-9" d="M624.8841,311.2539a.1437.1437,0,0,1-.0732-.2676l5.7011-3.3554v-8.4434a.1436.1436,0,1,1,.2871,0v8.5254a.1441.1441,0,0,1-.07.124l-5.7715,3.3975A.1452.1452,0,0,1,624.8841,311.2539Z"/><path class="cls-9" d="M608.0111,321.4639a.1434.1434,0,0,1-.0713-.2676l5.5869-3.2207v-8.5127a.1436.1436,0,1,1,.2871,0v8.5957a.1416.1416,0,0,1-.0723.124l-5.6592,3.2617A.1348.1348,0,0,1,608.0111,321.4639Z"/><path class="cls-9" d="M633.1761,309.3008a.1441.1441,0,0,1-.0713-.0186l-2.52-1.4443a.1439.1439,0,0,1,.1426-.25l2.52,1.4443a.1437.1437,0,0,1-.0713.2686Z"/><path class="cls-9" d="M616.303,319.7217a.1408.1408,0,0,1-.0722-.02l-2.6328-1.5195a.1432.1432,0,0,1-.0518-.1963.1417.1417,0,0,1,.1963-.0517l2.6328,1.5195a.1436.1436,0,0,1-.0723.2676Z"/><polygon class="cls-9" points="622.979 267.478 628.001 264.445 626.459 263.53 621.436 266.563 622.979 267.478"/><polygon class="cls-9" points="607.593 276.769 612.615 273.736 611.072 272.821 606.05 275.854 607.593 276.769"/><path class="cls-9" d="M614.7015,263.7354a9.8755,9.8755,0,0,1-4.9981-1.2354,3.6889,3.6889,0,0,1-2.0722-3.06,3.8921,3.8921,0,0,1,2.2216-3.19,10.9013,10.9013,0,0,1,10.1641-.0459,3.6869,3.6869,0,0,1,2.0723,3.06,3.8878,3.8878,0,0,1-2.2217,3.19A10.3205,10.3205,0,0,1,614.7015,263.7354Zm.3183-8.4659a10.018,10.018,0,0,0-5.0107,1.2422,3.605,3.605,0,0,0-2.0723,2.9287,3.3962,3.3962,0,0,0,1.9248,2.7979h0a10.5579,10.5579,0,0,0,9.85-.0459,3.6014,3.6014,0,0,0,2.0733-2.9287,3.3987,3.3987,0,0,0-1.9258-2.7979A9.5576,9.5576,0,0,0,615.02,255.27Z"/><path class="cls-9" d="M598.3675,273.44a9.8814,9.8814,0,0,1-4.9971-1.2343h0a3.6873,3.6873,0,0,1-2.0722-3.0606,3.8874,3.8874,0,0,1,2.2216-3.1894,10.8982,10.8982,0,0,1,10.1641-.0459,3.6892,3.6892,0,0,1,2.0723,3.0605,3.89,3.89,0,0,1-2.2217,3.1895A10.324,10.324,0,0,1,598.3675,273.44Zm.3193-8.4648a10.0169,10.0169,0,0,0-5.0107,1.2422,3.6016,3.6016,0,0,0-2.0733,2.9287,3.3986,3.3986,0,0,0,1.9258,2.7978h0a10.5548,10.5548,0,0,0,9.85-.0459,3.6022,3.6022,0,0,0,2.0723-2.9287,3.3973,3.3973,0,0,0-1.9248-2.7978A9.5566,9.5566,0,0,0,598.6868,264.9756Z"/><rect class="cls-9" x="607.7913" y="259.147" width="14.1445" height="0.3047"/><rect class="cls-9" x="598.393" y="262.5802" width="0.3045" height="12.9187" transform="matrix(0.3139, -0.9494, 0.9494, 0.3139, 155.2021, 752.8634)"/><rect class="cls-9" x="601.408" y="302.009" width="38.1173" height="0.5005" transform="translate(-68.0309 350.3287) rotate(-29.9667)"/></g><g id="Connecteur-3" data-name="Connecteur"><polygon class="cls-2" points="548.957 361.247 524.08 346.883 523.889 299.397 549.098 313.765 548.957 361.247"/><path class="cls-9" d="M548.9573,361.5342a.2868.2868,0,0,1-.1435-.0381l-24.8779-14.3633a.2866.2866,0,0,1-.1436-.248l-.19-47.4864a.2853.2853,0,0,1,.1426-.249.292.292,0,0,1,.2871-.0019l25.2089,14.3671a.2871.2871,0,0,1,.1446.251l-.1406,47.4824a.2855.2855,0,0,1-.1436.2481A.29.29,0,0,1,548.9573,361.5342Zm-24.5908-14.8164L548.6712,360.75l.1387-46.8184-24.6319-14.039Z"/><polygon class="cls-2" points="549.098 313.765 582.128 294.218 582.128 342.137 548.957 361.247 549.098 313.765"/><path class="cls-9" d="M548.9573,361.5342a.2873.2873,0,0,1-.2871-.2881l.1407-47.4824a.286.286,0,0,1,.1406-.2461l33.03-19.5469a.2931.2931,0,0,1,.289-.0029.2873.2873,0,0,1,.1445.25v47.92a.2881.2881,0,0,1-.1435.249l-33.1709,19.1094A.29.29,0,0,1,548.9573,361.5342Zm.4278-47.6055-.1387,46.82,32.5947-18.7773v-47.25Z"/><polygon class="cls-2" points="523.889 299.397 549.098 313.765 582.128 294.218 557.25 279.855 523.889 299.397"/><path class="cls-9" d="M549.098,314.0518a.2975.2975,0,0,1-.1426-.0372l-25.209-14.3671a.2883.2883,0,0,1-.0029-.4981l33.3613-19.542a.2888.2888,0,0,1,.2891-.001l24.8779,14.3624a.2875.2875,0,0,1,.0029.496l-33.03,19.5469A.2805.2805,0,0,1,549.098,314.0518Zm-24.6348-14.6573,24.6318,14.0381,32.4639-19.2119-24.3076-14.0332Z"/><path class="cls-9" d="M553.1575,356.2744a.1382.1382,0,0,1-.0722-.0195.1427.1427,0,0,1-.0713-.124V344.498a.1416.1416,0,0,1,.0722-.124l8.292-4.7783a.1361.1361,0,0,1,.1436,0,.1429.1429,0,0,1,.0713.124v11.6328a.1418.1418,0,0,1-.0723.1241l-8.292,4.7783A.1327.1327,0,0,1,553.1575,356.2744Zm.1436-11.6933v11.3007l8.0049-4.6123V339.9688Z"/><path class="cls-9" d="M570.03,345.8535a.1388.1388,0,0,1-.0723-.0195.1428.1428,0,0,1-.0712-.124V334.0771a.1416.1416,0,0,1,.0722-.124l8.292-4.7783a.1361.1361,0,0,1,.1436,0,.1429.1429,0,0,1,.0713.124v11.6328a.1418.1418,0,0,1-.0723.1241l-8.292,4.7783A.1329.1329,0,0,1,570.03,345.8535Zm.1436-11.6933v11.3007l8.0048-4.6123V329.5479Z"/><path class="cls-9" d="M570.03,343.0283a.1437.1437,0,0,1-.0732-.2676l5.7021-3.3554v-8.4434a.1436.1436,0,0,1,.2871,0v8.5254a.1439.1439,0,0,1-.07.124l-5.7725,3.3975A.1442.1442,0,0,1,570.03,343.0283Z"/><path class="cls-9" d="M553.1575,353.2383a.1434.1434,0,0,1-.0713-.2676l5.587-3.2207v-8.5127a.1436.1436,0,0,1,.2871,0v8.5957a.1416.1416,0,0,1-.0723.124l-5.6592,3.2618A.1357.1357,0,0,1,553.1575,353.2383Z"/><path class="cls-9" d="M578.3216,341.0752a.1441.1441,0,0,1-.0713-.0186l-2.5195-1.4443a.1439.1439,0,0,1,.1426-.25l2.52,1.4443a.1437.1437,0,0,1-.0713.2686Z"/><path class="cls-9" d="M561.45,351.4961a.1417.1417,0,0,1-.0722-.0195l-2.6328-1.52a.1435.1435,0,1,1,.1445-.248l2.6328,1.5195a.1436.1436,0,0,1-.0723.2676Z"/><polygon class="cls-9" points="568.125 299.252 573.148 296.219 571.605 295.304 566.582 298.337 568.125 299.252"/><polygon class="cls-9" points="552.739 308.543 557.761 305.51 556.218 304.595 551.196 307.628 552.739 308.543"/><path class="cls-9" d="M559.847,295.51a9.8717,9.8717,0,0,1-4.9971-1.2354h0a3.6868,3.6868,0,0,1-2.0722-3.06,3.8879,3.8879,0,0,1,2.2216-3.19,10.9013,10.9013,0,0,1,10.1641-.0459,3.6892,3.6892,0,0,1,2.0723,3.0606,3.89,3.89,0,0,1-2.2217,3.1894A10.3219,10.3219,0,0,1,559.847,295.51Zm.3193-8.4659a10.018,10.018,0,0,0-5.0107,1.2422,3.6043,3.6043,0,0,0-2.0733,2.9287,3.4,3.4,0,0,0,1.9258,2.7979h0a10.5692,10.5692,0,0,0,9.85-.0459,3.6022,3.6022,0,0,0,2.0723-2.9287,3.3974,3.3974,0,0,0-1.9248-2.7979A9.56,9.56,0,0,0,560.1663,287.0439Z"/><path class="cls-9" d="M543.514,305.2148a9.8878,9.8878,0,0,1-4.9981-1.2343h0a3.689,3.689,0,0,1-2.0722-3.0606,3.89,3.89,0,0,1,2.2216-3.1894,10.8982,10.8982,0,0,1,10.1641-.0459,3.6869,3.6869,0,0,1,2.0723,3.06,3.888,3.888,0,0,1-2.2217,3.19A10.32,10.32,0,0,1,543.514,305.2148Zm-4.84-1.496a10.5634,10.5634,0,0,0,9.85-.0459,3.6016,3.6016,0,0,0,2.0733-2.9288,3.3986,3.3986,0,0,0-1.9258-2.7978,10.5548,10.5548,0,0,0-9.85.0459,3.6024,3.6024,0,0,0-2.0723,2.9287,3.3974,3.3974,0,0,0,1.9248,2.7979Z"/><rect class="cls-9" x="552.9378" y="290.9214" width="14.1445" height="0.3047"/><rect class="cls-9" x="543.5395" y="294.3546" width="0.3045" height="12.9187" transform="matrix(0.3139, -0.9494, 0.9494, 0.3139, 87.4011, 722.5824)"/><rect class="cls-9" x="546.5545" y="333.7834" width="38.1173" height="0.5005" transform="translate(-91.2352 327.1773) rotate(-29.9667)"/></g></g><polygon class="cls-2" points="402.363 403.699 424.615 416.506 446.798 403.699 424.615 390.795 402.363 403.699"/><path class="cls-4" d="M424.6155,416.6982a.1912.1912,0,0,1-.0966-.0253l-22.252-12.8067a.1936.1936,0,0,1,0-.334l22.252-12.9043a.1906.1906,0,0,1,.1933,0l22.1826,12.9043a.1936.1936,0,0,1,0,.334l-22.1826,12.8067A.1916.1916,0,0,1,424.6155,416.6982Zm-21.8662-13,21.8662,12.585,21.7979-12.585-21.7979-12.6806Z"/><polygon class="cls-2" points="446.868 399.516 458.001 405.914 435.734 418.868 424.6 412.47 446.868 399.516"/><path class="cls-4" d="M435.7337,419.0605a.1857.1857,0,0,1-.0957-.0253l-11.1338-6.3985a.19.19,0,0,1-.0967-.166.1927.1927,0,0,1,.0957-.168L446.7708,399.35a.1889.1889,0,0,1,.1924,0l11.1338,6.3975a.19.19,0,0,1,.0967.166.1927.1927,0,0,1-.0957.168L435.83,419.0352A.1892.1892,0,0,1,435.7337,419.0605Zm-10.748-6.5917,10.747,6.1767,21.8828-12.7305-10.747-6.1757Z"/><polygon class="cls-2" points="424.6 412.47 435.734 418.868 435.734 440.442 424.6 433.989 424.6 412.47"/><path class="cls-4" d="M435.7337,440.6348a.1909.1909,0,0,1-.0967-.0254l-11.1338-6.4531a.1929.1929,0,0,1-.0957-.167V412.47a.1929.1929,0,0,1,.0957-.167.1889.1889,0,0,1,.1924,0l11.1338,6.3985a.19.19,0,0,1,.0967.167v21.5742a.1908.1908,0,0,1-.1924.1924Zm-10.9414-6.7569,10.749,6.2295V418.98l-10.749-6.1768Z"/><polygon class="cls-2" points="458.001 405.914 469.135 411.88 446.868 424.833 435.734 418.868 458.001 405.914"/><path class="cls-4" d="M446.8675,425.0254a.1857.1857,0,0,1-.0908-.0225l-11.1338-5.9648a.1932.1932,0,0,1-.0059-.3369l22.2676-12.9541a.189.189,0,0,1,.1875-.003l11.1338,5.9659a.1932.1932,0,0,1,.0059.3369L446.9642,425A.1883.1883,0,0,1,446.8675,425.0254Zm-10.7383-6.1641,10.7344,5.751,21.876-12.7256-10.7344-5.7519Z"/><polygon class="cls-2" points="435.734 418.868 446.868 424.833 446.868 446.357 435.734 440.442 435.734 418.868"/><path class="cls-4" d="M446.8675,446.55a.1857.1857,0,0,1-.0908-.0225l-11.1338-5.915a.1922.1922,0,0,1-.1016-.17V418.8682a.1928.1928,0,0,1,.2832-.17l11.1338,5.9649a.1922.1922,0,0,1,.1016.17v21.5244a.1913.1913,0,0,1-.1924.1924Zm-10.9414-6.2236,10.749,5.71V424.9482l-10.749-5.7578Z"/><polygon class="cls-2" points="469.135 411.88 446.868 424.833 473.271 438.412 487.174 430.705 469.135 411.88"/><path class="cls-4" d="M473.2708,438.6035a.1966.1966,0,0,1-.0879-.02L446.78,425.0049a.1935.1935,0,0,1-.0088-.3389l22.2676-12.9531a.1939.1939,0,0,1,.2363.0332l18.0391,18.8252a.1942.1942,0,0,1-.0459.3027L473.3646,438.58A.2.2,0,0,1,473.2708,438.6035Zm-26.0019-13.7812,25.999,13.37,13.5937-7.5342L469.1009,412.123Z"/><polygon class="cls-2" points="446.868 424.833 446.868 446.357 473.477 454.263 473.271 438.412 446.868 424.833"/><path class="cls-4" d="M473.4769,454.4551a.1741.1741,0,0,1-.0547-.0078l-26.6094-7.9053a.1925.1925,0,0,1-.1377-.1846V424.833a.1922.1922,0,0,1,.28-.1719l26.4033,13.5782a.1915.1915,0,0,1,.1045.1689l.2061,15.8516a.1906.1906,0,0,1-.1924.1953Zm-26.417-8.2412,26.2207,7.789-.2012-15.4736-26.0195-13.38Z"/><path class="cls-2" d="M487.6585,445.12V431.5462a.9733.9733,0,0,0-1.4627-.8413l-12.0807,7.0278a2.4332,2.4332,0,0,0-1.21,2.1033v13.5477a.9733.9733,0,0,0,1.4614.8421l12.0786-7.0007A2.4332,2.4332,0,0,0,487.6585,445.12Z"/><path class="cls-4" d="M473.8782,454.5518a1.1707,1.1707,0,0,1-1.165-1.168V439.8359a2.6352,2.6352,0,0,1,1.3057-2.27l12.08-7.0273a1.1655,1.1655,0,0,1,1.752,1.0078V445.12a2.6319,2.6319,0,0,1-1.3086,2.2715l-12.0791,7.001A1.1694,1.1694,0,0,1,473.8782,454.5518Zm12.8067-23.7872a.7717.7717,0,0,0-.3926.1075l-12.08,7.0273a2.2486,2.2486,0,0,0-1.1142,1.9365v13.5479a.7808.7808,0,0,0,1.1718.6748l12.0791-7.001a2.2451,2.2451,0,0,0,1.1172-1.9375V431.5459a.7742.7742,0,0,0-.3916-.6768A.7879.7879,0,0,0,486.6849,430.7646Z"/><polygon class="cls-2" points="446.111 403.124 450.244 405.631 435.224 414.387 431.092 411.88 446.111 403.124"/><path class="cls-4" d="M435.2239,414.4834a.0933.0933,0,0,1-.05-.0146l-4.1318-2.5069a.0955.0955,0,0,1,.001-.165l15.0185-8.7559a.0987.0987,0,0,1,.0987.001l4.1328,2.5068a.0956.0956,0,0,1-.001.1651L435.2728,414.47A.1.1,0,0,1,435.2239,414.4834Zm-3.9433-2.6016,3.9443,2.3926,14.83-8.6455-3.9453-2.3926Z"/><polygon class="cls-2" points="402.363 403.699 402.363 418.868 403.865 419.877 403.82 421.929 424.6 433.989 424.615 416.506 402.363 403.699"/><path class="cls-4" d="M424.6,434.1816a.1918.1918,0,0,1-.0967-.0253l-20.7793-12.0606a.192.192,0,0,1-.0957-.1709l.042-1.9463-1.414-.95a.1918.1918,0,0,1-.085-.16v-15.169a.1924.1924,0,0,1,.2891-.167l22.2519,12.8067a.1892.1892,0,0,1,.0957.167l-.0156,17.4834a.19.19,0,0,1-.0967.167A.1857.1857,0,0,1,424.6,434.1816Zm-20.584-12.3623,20.3916,11.835.0147-17.0371-21.8662-12.584v14.7324l1.417.9512a.1913.1913,0,0,1,.0849.1641Z"/><line class="cls-2" x1="405.814" y1="401.7131" x2="412.7153" y2="405.6851"/><path class="cls-4" d="M412.7152,405.9a.2136.2136,0,0,1-.1075-.0283l-6.9013-3.9727a.2152.2152,0,0,1,.2148-.373l6.9014,3.9726a.215.215,0,0,1-.1074.4014Z"/><line class="cls-2" x1="408.5569" y1="400.1253" x2="415.4581" y2="404.0973"/><path class="cls-4" d="M415.4583,404.3125a.2135.2135,0,0,1-.1074-.0283l-6.9014-3.9727a.2152.2152,0,1,1,.2149-.373l6.9013,3.9726a.215.215,0,0,1-.1074.4014Z"/><line class="cls-2" x1="411.2997" y1="398.5375" x2="418.201" y2="402.5095"/><path class="cls-4" d="M418.2005,402.7246a.2135.2135,0,0,1-.1074-.0283l-6.9-3.9727a.2152.2152,0,0,1,.2148-.373l6.9,3.9726a.215.215,0,0,1-.1074.4014Z"/><line class="cls-2" x1="414.0425" y1="396.9497" x2="420.9438" y2="400.9217"/><path class="cls-4" d="M420.9437,401.1367a.2138.2138,0,0,1-.1075-.0283l-6.9013-3.9717a.2152.2152,0,0,1,.2148-.373l6.9014,3.9717a.2149.2149,0,0,1-.1074.4013Z"/><line class="cls-2" x1="416.7854" y1="395.3619" x2="423.6866" y2="399.3339"/><path class="cls-4" d="M423.6868,399.5488a.2135.2135,0,0,1-.1074-.0283l-6.9014-3.9717a.2152.2152,0,1,1,.2149-.373l6.9014,3.9717a.2149.2149,0,0,1-.1075.4013Z"/><line class="cls-2" x1="419.5282" y1="393.7741" x2="426.4295" y2="397.7461"/><path class="cls-4" d="M426.429,397.9609a.2135.2135,0,0,1-.1074-.0283l-6.9-3.9717a.2152.2152,0,1,1,.2149-.373l6.9,3.9717a.2149.2149,0,0,1-.1074.4013Z"/><line class="cls-2" x1="422.2711" y1="392.1863" x2="429.1723" y2="396.1583"/><path class="cls-4" d="M429.1722,396.373a.2122.2122,0,0,1-.1074-.0283l-6.9014-3.9717a.2152.2152,0,0,1,.2148-.373l6.9014,3.9717a.2149.2149,0,0,1-.1074.4013Z"/><path class="cls-4" d="M481.0042,448.3213c-2.458,0-4.458-2.3818-4.458-5.3086s2-5.3086,4.458-5.3086,4.457,2.3818,4.457,5.3086S483.4622,448.3213,481.0042,448.3213Zm0-10.2363c-2.248,0-4.0771,2.2109-4.0771,4.9277s1.8291,4.9277,4.0771,4.9277,4.0762-2.2109,4.0762-4.9277S483.2513,438.085,481.0042,438.085Z"/><path class="cls-2" d="M597.5246,403.0607,537.6434,437.633c-18.9743,10.9548-32.4851,14.2428-44.533,6.9274s-10.8679-6.4682-10.8679-6.4682l-3.3039,9.3932s-1.18-.8473,10.868,6.4681,28.8625,4.8335,47.8368-6.1213,49.677-29.209,66.7995-39.0946C602.5627,406.877,600.1258,405.2982,597.5246,403.0607Z"/><path class="cls-4" d="M505.6458,458.3389a30.1636,30.1636,0,0,1-15.9394-4.2207c-8.63-5.24-10.417-6.2578-10.7754-6.4424-.044-.0225-.0723-.0108-.1045-.0342a.2409.2409,0,0,1-.08-.292c.0361-.0566.0684-.0976.2832-.0127l.0147-.0137a.1825.1825,0,0,1,.0293.0313c.6718.2832,2.8876,1.6094,10.833,6.4336,11.8095,7.1709,28.2812,5.0527,47.64-6.1231,9.7305-5.6181,22.5859-13.1787,35.0176-20.4912,10.05-5.91,19.5469-11.4961,27.3213-16.0166a6.9756,6.9756,0,0,0-3.0957-2.2842l-.0518-.0234a7.8756,7.8756,0,0,1-3.7285-2.959L537.74,437.8c-20.4366,11.8-33.3965,13.8066-44.7285,6.9258-8.6329-5.2412-10.419-6.2588-10.7774-6.4434h-.0019a.167.167,0,0,1-.1016-.0342.24.24,0,0,1-.08-.2919c.0352-.0567.0654-.1.2832-.0127l.0137-.0137a.1934.1934,0,0,1,.0312.0322c.6719.2842,2.89,1.6113,10.8321,6.4336,11.1943,6.7969,24.039,4.7891,44.3359-6.93l55.4268-32a.193.193,0,0,1,.2529.0537c.0137.02.0254.0381.0371.0576a7.568,7.568,0,0,0,3.6348,2.9209l.0508.0235a7.3871,7.3871,0,0,1,3.3769,2.5771.1878.1878,0,0,1,.0342.1534.1926.1926,0,0,1-.0918.1289c-7.8086,4.539-17.377,10.167-27.5088,16.1259-12.4326,7.3125-25.2881,14.8741-35.0195,20.4922C525.8314,454.875,514.9954,458.3389,505.6458,458.3389Z"/><path class="cls-4" d="M451.0237,447.3945a.3859.3859,0,0,1-.3857-.3857V426.748l9.3389-5.3925a.3856.3856,0,1,1,.3857.6679l-8.9531,5.17v19.8154A.3859.3859,0,0,1,451.0237,447.3945Z"/><path class="cls-4" d="M462.3919,450.5576a.3858.3858,0,0,1-.3857-.3857v-17.53l6.9443-4.1611a.3859.3859,0,1,1,.3965.6621l-6.5693,3.9365v17.0928A.3859.3859,0,0,1,462.3919,450.5576Z"/><path class="cls-4" d="M464.4114,419.6162a.3751.3751,0,0,1-.1875-.7l7.0655-4.0791a.38.38,0,0,1,.5127.1377.3753.3753,0,0,1-.1377.5127l-7.0655,4.0791A.3824.3824,0,0,1,464.4114,419.6162Z"/><path class="cls-4" d="M457.1028,438.0283a.3859.3859,0,0,1-.3857-.3857v-7.6621l19.0957-10.4092a.3859.3859,0,0,1,.3692.6777l-18.6934,10.19v7.2031A.3859.3859,0,0,1,457.1028,438.0283Z"/><path class="cls-4" d="M457.1028,449.31a.386.386,0,0,1-.3857-.3858v-7.3691a.3858.3858,0,1,1,.7715,0v7.3691A.386.386,0,0,1,457.1028,449.31Z"/><path class="cls-4" d="M468,441.94a.3858.3858,0,0,1-.3857-.3857V435.627a.3853.3853,0,0,1,.1943-.335l14.7568-8.4111a.3858.3858,0,0,1,.3829.67l-14.5625,8.3008v5.7031A.3859.3859,0,0,1,468,441.94Z"/><path class="cls-4" d="M468.012,452.5654a.3858.3858,0,0,1-.3857-.3857v-6.5108a.3858.3858,0,0,1,.7715,0V452.18A.3859.3859,0,0,1,468.012,452.5654Z"/><path class="cls-4" d="M472.9056,427.0762a.3858.3858,0,0,1-.1846-.7246l6.2481-3.4063a.3858.3858,0,0,1,.3691.6777l-6.248,3.4063A.3818.3818,0,0,1,472.9056,427.0762Z"/><path class="cls-4" d="M605.2933,414.4453a.193.193,0,0,1-.1924-.18c-.0127-.2011-.02-.4-.0273-.6a5.9788,5.9788,0,0,0-1.12-3.708,7.3747,7.3747,0,0,0-3.5058-2.7012l-.5381-.2422a7.9926,7.9926,0,0,1-3.7578-2.9042,6.6273,6.6273,0,0,1-1.2188-4.0245c-.0068-.1933-.0146-.3828-.0263-.5722a.1925.1925,0,0,1,.18-.2051h.0127a.193.193,0,0,1,.1924.18c.0127.1933.02.3867.0274.583a6.2314,6.2314,0,0,0,1.1494,3.82,7.57,7.57,0,0,0,3.5986,2.7715l.5381.2412a7.7,7.7,0,0,1,3.665,2.835,6.3649,6.3649,0,0,1,1.1885,3.9121c.0078.1963.0147.3916.0274.5888a.1926.1926,0,0,1-.18.2051Z"/><polygon class="cls-8" points="417.585 397.458 431.194 405.036 433.98 403.35 420.371 395.771 417.585 397.458"/><polygon class="cls-8" points="434.53 406.891 448.139 414.469 450.925 412.783 437.316 405.204 434.53 406.891"/><polygon class="cls-8" points="400.644 388.025 414.252 395.603 417.038 393.917 403.43 386.338 400.644 388.025"/><polygon class="cls-8" points="454.256 414.639 451.47 416.326 459.347 420.712 462.132 419.025 454.256 414.639"/><polygon class="cls-8" points="401.553 380.323 398.529 378.639 389.298 380.091 387.19 385.508 390.214 387.192 391.803 383.105 397.308 386.17 400.093 384.484 394.587 381.417 401.553 380.323"/><polygon class="cls-2" points="366.249 424.978 388.501 437.785 410.684 424.978 388.501 412.074 366.249 424.978"/><path class="cls-4" d="M388.5013,437.9775a.1909.1909,0,0,1-.0967-.0254l-22.2519-12.8076a.1936.1936,0,0,1,0-.334l22.2519-12.9033a.1908.1908,0,0,1,.1934,0l22.1826,12.9033a.1936.1936,0,0,1,0,.334L388.598,437.9521A.1909.1909,0,0,1,388.5013,437.9775Zm-21.8662-13.0009,21.8662,12.5859,21.7978-12.5859-21.7978-12.68Z"/><polygon class="cls-2" points="410.753 420.795 421.887 427.193 399.619 440.147 388.486 433.749 410.753 420.795"/><path class="cls-4" d="M399.62,440.3389a.1849.1849,0,0,1-.0958-.0254L388.39,433.916a.19.19,0,0,1-.0967-.166.1922.1922,0,0,1,.0957-.168l22.2676-12.9541a.1888.1888,0,0,1,.1923,0l11.1338,6.3985a.19.19,0,0,1,.0967.166.1922.1922,0,0,1-.0957.168l-22.2676,12.9531A.188.188,0,0,1,399.62,440.3389Zm-10.7481-6.5909,10.7471,6.1758,21.8828-12.73-10.7471-6.1767Z"/><polygon class="cls-2" points="388.486 433.749 399.619 440.147 399.619 461.721 388.486 455.268 388.486 433.749"/><path class="cls-4" d="M399.62,461.9131a.19.19,0,0,1-.0967-.0254l-11.1338-6.4531a.1927.1927,0,0,1-.0957-.167V433.749a.1927.1927,0,0,1,.0957-.167.1889.1889,0,0,1,.1924,0l11.1338,6.3975a.19.19,0,0,1,.0966.167v21.5742a.1908.1908,0,0,1-.1923.1924Zm-10.9415-6.7568,10.7491,6.2294V440.2578L388.678,434.082Z"/><polygon class="cls-2" points="421.887 427.193 433.02 433.158 410.753 446.112 399.619 440.147 421.887 427.193"/><path class="cls-4" d="M410.7532,446.3047a.186.186,0,0,1-.0908-.0225l-11.1338-5.9658a.1932.1932,0,0,1-.0058-.3369L421.79,427.0264a.1941.1941,0,0,1,.1875-.003l11.1329,5.9649a.1932.1932,0,0,1,.0058.3369L410.85,446.2793A.1883.1883,0,0,1,410.7532,446.3047ZM400.015,440.14l10.7343,5.752,21.875-12.7266-10.7334-5.7509Z"/><polygon class="cls-2" points="399.619 440.147 410.753 446.112 410.753 467.636 399.619 461.721 399.619 440.147"/><path class="cls-4" d="M410.7532,467.8281a.187.187,0,0,1-.0908-.0224l-11.1338-5.9151a.1921.1921,0,0,1-.1015-.17V440.1465a.1927.1927,0,0,1,.2832-.17l11.1338,5.9658a.1921.1921,0,0,1,.1015.17v21.5234a.1921.1921,0,0,1-.0928.1651A.1942.1942,0,0,1,410.7532,467.8281Zm-10.9414-6.2236,10.7491,5.71v-21.087l-10.7491-5.7587Z"/><polygon class="cls-2" points="433.02 433.158 410.753 446.112 437.157 459.69 451.06 451.984 433.02 433.158"/><path class="cls-4" d="M437.1566,459.8828a.1963.1963,0,0,1-.0879-.02l-26.4034-13.5781a.1936.1936,0,0,1-.0087-.3389l22.2666-12.9541a.1932.1932,0,0,1,.2363.0332L451.2,451.85a.1942.1942,0,0,1-.0459.3027L437.25,459.8594A.1993.1993,0,0,1,437.1566,459.8828Zm-26.002-13.7812,25.999,13.37,13.5938-7.5352-17.7617-18.5351Z"/><polygon class="cls-2" points="410.753 446.112 410.753 467.636 437.363 475.541 437.157 459.69 410.753 446.112"/><path class="cls-4" d="M437.3626,475.7334a.1745.1745,0,0,1-.0547-.0078L410.6986,467.82a.1924.1924,0,0,1-.1377-.1846V446.1123a.1921.1921,0,0,1,.28-.1719l26.4034,13.5782a.1916.1916,0,0,1,.1044.1689l.2061,15.8506a.1906.1906,0,0,1-.1924.1953Zm-26.417-8.2412,26.2207,7.7891-.2011-15.4727-26.02-13.38Z"/><path class="cls-2" d="M451.5441,466.3986V452.825a.9733.9733,0,0,0-1.4628-.8413l-12.0806,7.0277a2.4333,2.4333,0,0,0-1.21,2.1033v13.5478a.9733.9733,0,0,0,1.4614.8421l12.0787-7.0008A2.4333,2.4333,0,0,0,451.5441,466.3986Z"/><path class="cls-4" d="M437.765,475.8311a1.1721,1.1721,0,0,1-1.1661-1.169V461.1143a2.6348,2.6348,0,0,1,1.3047-2.27l12.0811-7.0283a1.1663,1.1663,0,0,1,1.7519,1.0088v13.5732a2.6356,2.6356,0,0,1-1.3086,2.2725l-12.0791,7.001A1.1681,1.1681,0,0,1,437.765,475.8311Zm12.8056-23.7881a.7821.7821,0,0,0-.3926.1074l-12.081,7.0283a2.2462,2.2462,0,0,0-1.1133,1.9356v13.5478a.7809.7809,0,0,0,1.1719.6758l12.0791-7.001a2.2492,2.2492,0,0,0,1.1172-1.9385V452.8252a.7843.7843,0,0,0-.7813-.7822Z"/><polygon class="cls-2" points="409.997 424.403 414.129 426.91 399.11 435.666 394.977 433.158 409.997 424.403"/><path class="cls-4" d="M399.11,435.7627a.092.092,0,0,1-.05-.0147l-4.1328-2.5078a.0955.0955,0,0,1,.0009-.165l15.02-8.7559a.0988.0988,0,0,1,.0986.001l4.1328,2.5078a.0956.0956,0,0,1-.001.1651l-15.0195,8.7558A.1.1,0,0,1,399.11,435.7627Zm-3.9444-2.6025,3.9454,2.3935,14.83-8.6455-3.9453-2.3936Z"/><polygon class="cls-2" points="366.249 424.978 366.249 440.147 367.751 441.156 367.706 443.207 388.486 455.268 388.501 437.785 366.249 424.978"/><path class="cls-4" d="M388.4857,455.46a.1919.1919,0,0,1-.0967-.0254l-20.78-12.0606a.1919.1919,0,0,1-.0957-.1709l.043-1.9453-1.4141-.9512a.1917.1917,0,0,1-.0849-.16v-15.169a.1924.1924,0,0,1,.289-.167l22.252,12.8077a.19.19,0,0,1,.0957.167l-.0157,17.4824a.19.19,0,0,1-.0966.167A.1858.1858,0,0,1,388.4857,455.46Zm-20.585-12.3623,20.3926,11.8349.0146-17.0361-21.8662-12.585v14.7324l1.417.9522a.1917.1917,0,0,1,.085.1641Z"/><line class="cls-2" x1="369.6996" y1="422.9919" x2="376.6008" y2="426.9639"/><path class="cls-4" d="M376.6009,427.1787a.2135.2135,0,0,1-.1074-.0283l-6.9014-3.9717a.2152.2152,0,1,1,.2149-.373l6.9013,3.9716a.215.215,0,0,1-.1074.4014Z"/><line class="cls-2" x1="372.4424" y1="421.4041" x2="379.3437" y2="425.3761"/><path class="cls-4" d="M379.3441,425.5908a.2138.2138,0,0,1-.1075-.0283l-6.9013-3.9717a.2152.2152,0,1,1,.2148-.373l6.9014,3.9717a.2149.2149,0,0,1-.1074.4013Z"/><line class="cls-2" x1="375.1853" y1="419.8163" x2="382.0865" y2="423.7883"/><path class="cls-4" d="M382.0862,424.0029a.2135.2135,0,0,1-.1074-.0283l-6.9013-3.9717a.2152.2152,0,0,1,.2148-.373l6.9014,3.9717a.2149.2149,0,0,1-.1075.4013Z"/><line class="cls-2" x1="377.9281" y1="418.2285" x2="384.8294" y2="422.2005"/><path class="cls-4" d="M384.8294,422.415a.2125.2125,0,0,1-.1074-.0283l-6.9014-3.9717a.2152.2152,0,1,1,.2149-.373l6.9013,3.9717a.2149.2149,0,0,1-.1074.4013Z"/><line class="cls-2" x1="380.671" y1="416.6407" x2="387.5722" y2="420.6127"/><path class="cls-4" d="M387.5726,420.8271a.2122.2122,0,0,1-.1074-.0283l-6.9014-3.9717a.2152.2152,0,0,1,.2148-.373l6.9014,3.9717a.2149.2149,0,0,1-.1074.4013Z"/><line class="cls-2" x1="383.4138" y1="415.0529" x2="390.315" y2="419.0249"/><path class="cls-4" d="M390.3148,419.2393a.2129.2129,0,0,1-.1075-.0284l-6.9013-3.9716a.2153.2153,0,0,1,.2148-.3731l6.9014,3.9717a.215.215,0,0,1-.1074.4014Z"/><line class="cls-2" x1="386.1566" y1="413.4651" x2="393.0579" y2="417.4371"/><path class="cls-4" d="M393.0579,417.6523a.2125.2125,0,0,1-.1074-.0283l-6.9014-3.9726a.2153.2153,0,1,1,.2149-.3731l6.9013,3.9727a.2149.2149,0,0,1-.1074.4013Z"/><path class="cls-4" d="M444.889,469.6006c-2.458,0-4.457-2.3818-4.457-5.3086s1.999-5.3086,4.457-5.3086,4.458,2.3818,4.458,5.3086S447.347,469.6006,444.889,469.6006Zm0-10.2363c-2.2471,0-4.0762,2.2109-4.0762,4.9277s1.8291,4.9277,4.0762,4.9277,4.0771-2.2109,4.0771-4.9277S447.137,459.3643,444.889,459.3643Z"/><path class="cls-2" d="M641.1124,436.8893c-14.0406-8.1063-27.8918-9.6077-45.0143.278L529.78,475.4559c-18.9742,10.9548-32.485,14.2427-44.5329,6.9273s-39.1191-23.0123-39.1191-23.0123l-3.3038,9.3932s27.0711,15.6969,39.119,23.0123,28.8626,4.8335,47.8368-6.1213,49.6771-29.209,66.8-39.0947,27.1884-8.3843,41.229-.2779S655.153,444.9957,641.1124,436.8893Z"/><path class="cls-4" d="M497.7825,496.1621a30.1742,30.1742,0,0,1-15.9384-4.2207c-11.9092-7.2305-38.8457-22.8535-39.1163-23.0107a.193.193,0,1,1,.1934-.334c.2705.1572,27.2109,15.7822,39.1221,23.0146,11.81,7.1719,28.2812,5.0537,47.64-6.123,9.7305-5.6182,22.586-13.1787,35.0176-20.4912,10.05-5.91,19.5469-11.4961,27.3213-16.0166a6.9743,6.9743,0,0,0-3.0957-2.2842l-.0518-.0234a7.8683,7.8683,0,0,1-3.7285-2.96l-55.2695,31.91c-20.4365,11.8-33.3945,13.8057-44.73,6.9249-11.9082-7.2315-38.8447-22.8526-39.1152-23.01a.193.193,0,1,1,.1933-.334c.2705.1572,27.211,15.7813,39.1231,23.0137,11.1943,6.7988,24.041,4.79,44.3349-6.9287l55.4268-32.001a.1943.1943,0,0,1,.2568.06l.0313.0488a7.5758,7.5758,0,0,0,3.6318,2.9228l.0557.0254a7.3874,7.3874,0,0,1,3.3769,2.5772.1876.1876,0,0,1,.0342.1533.1915.1915,0,0,1-.0918.1289c-7.8086,4.5391-17.3769,10.167-27.5088,16.126-12.4326,7.3125-25.2881,14.874-35.0195,20.4922C517.9681,492.6973,507.1312,496.1611,497.7825,496.1621Z"/><path class="cls-4" d="M414.91,468.6729a.386.386,0,0,1-.3858-.3858V448.0264l9.34-5.3916a.3854.3854,0,1,1,.3848.6679l-8.9532,5.169v19.8154A.3859.3859,0,0,1,414.91,468.6729Z"/><path class="cls-4" d="M426.2777,471.8359a.3859.3859,0,0,1-.3858-.3857V453.92l6.9434-4.1611a.3859.3859,0,1,1,.3965.6621l-6.5684,3.9365V471.45A.3859.3859,0,0,1,426.2777,471.8359Z"/><path class="cls-4" d="M428.2972,440.8945a.3751.3751,0,0,1-.1875-.7l7.0654-4.0791a.38.38,0,0,1,.5127.1377.3753.3753,0,0,1-.1377.5127l-7.0654,4.0791A.3824.3824,0,0,1,428.2972,440.8945Z"/><path class="cls-4" d="M420.9886,459.3066a.3859.3859,0,0,1-.3858-.3857v-7.6621l19.0958-10.4082a.3858.3858,0,0,1,.3691.6777l-18.6934,10.19v7.2031A.3858.3858,0,0,1,420.9886,459.3066Z"/><path class="cls-4" d="M420.9886,470.5889a.386.386,0,0,1-.3858-.3858v-7.37a.3858.3858,0,0,1,.7715,0v7.37A.3859.3859,0,0,1,420.9886,470.5889Z"/><path class="cls-4" d="M431.8851,463.2188a.386.386,0,0,1-.3858-.3858v-5.9277a.3854.3854,0,0,1,.1944-.335l14.7578-8.4111a.3858.3858,0,0,1,.3828.67l-14.5635,8.3v5.7041A.3859.3859,0,0,1,431.8851,463.2188Z"/><path class="cls-4" d="M431.8978,473.8438a.386.386,0,0,1-.3858-.3858v-6.5107a.3858.3858,0,1,1,.7715,0v6.5107A.3859.3859,0,0,1,431.8978,473.8438Z"/><path class="cls-4" d="M436.7913,448.3555a.3858.3858,0,0,1-.1845-.7246l6.248-3.4063a.3858.3858,0,1,1,.3691.6777l-6.248,3.4063A.3818.3818,0,0,1,436.7913,448.3555Z"/><path class="cls-4" d="M597.43,452.2686a.1932.1932,0,0,1-.1924-.18c-.0127-.2012-.0205-.4-.0273-.6a5.9835,5.9835,0,0,0-1.12-3.709,7.3773,7.3773,0,0,0-3.51-2.7022l-.5391-.2422a7.9868,7.9868,0,0,1-3.7529-2.9033,6.6348,6.6348,0,0,1-1.22-4.0283c-.0069-.1914-.0137-.3809-.0254-.5684a.1931.1931,0,0,1,.18-.205.18.18,0,0,1,.205.18c.0127.1924.02.3848.0264.58a6.2379,6.2379,0,0,0,1.15,3.8233,7.5615,7.5615,0,0,0,3.5938,2.7695l.539.2422a7.7029,7.7029,0,0,1,3.669,2.8359,6.3679,6.3679,0,0,1,1.1884,3.9131c.0078.1963.0147.3916.0274.5889a.1927.1927,0,0,1-.18.2051Z"/><polygon class="cls-7" points="380.971 418.538 394.58 426.117 397.366 424.431 383.757 416.852 380.971 418.538"/><polygon class="cls-7" points="397.916 427.972 411.524 435.55 414.31 433.864 400.702 426.285 397.916 427.972"/><polygon class="cls-7" points="364.029 409.105 377.638 416.684 380.424 414.998 366.815 407.419 364.029 409.105"/><polygon class="cls-7" points="417.642 435.72 414.856 437.406 422.732 441.793 425.518 440.106 417.642 435.72"/><polygon class="cls-7" points="364.939 401.404 361.915 399.72 352.684 401.172 350.575 406.589 353.599 408.273 355.188 404.185 360.693 407.251 363.479 405.564 357.973 402.498 364.939 401.404"/></g><path class="cls-4" d="M671.0277,593.0537H167.2425a7.3048,7.3048,0,0,1-7.2959-7.2959V170.293a7.3048,7.3048,0,0,1,7.2959-7.2959H671.0277a7.3048,7.3048,0,0,1,7.2959,7.2959V585.7578A7.3048,7.3048,0,0,1,671.0277,593.0537ZM167.2425,164.0693a6.2308,6.2308,0,0,0-6.2236,6.2237V585.7578a6.2307,6.2307,0,0,0,6.2236,6.2236H671.0277a6.2307,6.2307,0,0,0,6.2236-6.2236V170.293a6.2308,6.2308,0,0,0-6.2236-6.2237Z"/><path class="cls-8" d="M344.7318,305.9609l-2.6446,1.5684,7.7412,4.5176,2.9473-1.7481,2.3242,1.3565-3.8252,2.2685L329.806,301.3945l3.6738-2.1787,2.3242,1.3565-2.7959,1.6582,6.7852,3.96,2.6445-1.5683Z"/><path class="cls-8" d="M338.5843,298.9609l-2.0693,1.2276-2.3555-1.375,5.0361-2.9873,2.3565,1.375-2.0791,1.2334,19.1123,11.1543-.8887.5263Z"/><path class="cls-8" d="M340.8333,294.8555l8.9824,5.2422,3.29-1.9512-8.9824-5.2422.8886-.5264,21.4688,12.5293-.8887.5264-10.0654-5.8731-3.29,1.95,10.0655,5.8741-.8789.5215L339.9544,295.377Z"/><path class="cls-8" d="M367.6956,304.1865l-1.7207-1.0039-1.4365-1.6582c-3.3574-3.9306-5.2754-5.94-8.3867-7.7685-2.1035-1.2266-4.3692-2.17-5.3487-1.5889-.5957.3525-.1347,1.2041.3584,1.8486l-2.2558-.9853c-.7578-.9756-1.0039-1.88-.2471-2.3291,1.4131-.8369,5.0674.5947,8.0293,2.3232,3.8223,2.2305,6.0352,4.5547,8.8555,7.8281l1.0049,1.2041.0644.0372,2.9473-1.7471,2.3242,1.3564Z"/><path class="cls-7" d="M304.7015,329.0732l-2.6436,1.5674,7.74,4.5176,2.9463-1.7471,2.3251,1.3575-3.8251,2.2685-21.4688-12.53,3.6748-2.1787,2.3242,1.3574-2.7969,1.6583,6.7852,3.9589,2.6436-1.5683Z"/><path class="cls-7" d="M298.554,322.0742l-2.0683,1.2266-2.3565-1.375,5.0361-2.9863,2.3575,1.375-2.08,1.2334,19.1123,11.1542-.8877.5264Z"/><path class="cls-7" d="M300.803,317.9678l8.9825,5.2431,3.29-1.9511-8.9824-5.2422.8887-.5274,21.4687,12.53-.8887.5264-10.0644-5.875-3.291,1.9511,10.0654,5.875-.8779.5215-21.4688-12.5312Z"/><path class="cls-7" d="M311.5013,315.5986l-.0195.0118.8007,1.8085-2.3056-1.1425-.9873-2.2637.7568-.4482,20.7051,12.0839-.8584.5088Z"/></g></g></g></svg>