<svg xmlns="http://www.w3.org/2000/svg" xmlns:xlink="http://www.w3.org/1999/xlink" width="116.0138mm" height="94.2155mm" viewBox="0 0 328.858 267.0677"><defs><style>.cls-1{fill:none;}.cls-2{clip-path:url(#clip-path);}.cls-3{fill:#808285;}.cls-4{fill:#d1d3d4;}.cls-5{fill:#ef4136;}.cls-6{fill:#00aeef;}.cls-7{fill:#fff;}.cls-8{fill:#3d723a;}</style><clipPath id="clip-path"><rect class="cls-1" x="72.3857" y="73.6873" width="232.4409" height="192.7559" rx="3.0371" ry="3.0371"/></clipPath></defs><title>12. Câble ethernet</title><g id="Layer_2" data-name="Layer 2"><g id="_12._Câble_ethernet" data-name="12. Câble ethernet"><g id="Expanded"><rect class="cls-1" x="72.3857" y="74.3118" width="232.4409" height="192.7559" rx="3.0371" ry="3.0371"/><g class="cls-2"><g id="La_Box_3_4" data-name="La Box 3/4"><path class="cls-3" d="M139.96,161.355a.3769.3769,0,0,1-.1875-.05L26.7337,96.0415a.3758.3758,0,0,1,0-.65L191.31.3735a2.8175,2.8175,0,0,1,2.8037,0L305.9378,64.936a.3758.3758,0,0,1,0,.65l-165.79,95.7188A.3771.3771,0,0,1,139.96,161.355ZM27.6712,95.7163,139.96,160.5474,305,65.2612,193.7386,1.0239a2.05,2.05,0,0,0-2.0537,0Z"/><path class="cls-3" d="M143.9046,168.0122a.6067.6067,0,0,1-.5185-.29l-3.9434-6.4248a.6058.6058,0,0,1,.2139-.8428l165.79-95.7188a.6051.6051,0,0,1,.81.1905l4.16,6.2988a.6113.6113,0,0,1,.084.4746.6036.6036,0,0,1-.2871.3857L144.2073,167.93A.6015.6015,0,0,1,143.9046,168.0122Zm-3.1006-6.8184,3.3076,5.39L309.0482,71.3569l-3.4893-5.2841Z"/><path class="cls-3" d="M162.5677,244.146a.4908.4908,0,0,1-.25-.0674L102.0306,209.272a.5.5,0,0,1-.25-.4326v-8.4131L50.03,170.5474v7.8359a.5.5,0,0,1-.75.4326L.25,150.5093a.5.5,0,0,1,.0869-.9053L18.8861,143.22V100.0679a.5.5,0,0,1,.25-.4326l7.5351-4.3516a.4972.4972,0,0,1,.5,0L140.21,160.5474a.4914.4914,0,0,1,.1758.1709l3.9433,6.4248a.4961.4961,0,0,1,.0742.2617v47.9121L162.9847,243.37a.5.5,0,0,1-.417.7764ZM102.7806,208.55l58.1972,33.6006-17.4912-26.4072a.5047.5047,0,0,1-.083-.2764V167.5464l-3.8027-6.1973L26.9212,96.2935l-7.0351,4.0634v43.22a.5.5,0,0,1-.337.4726L1.7005,150.1919,49.03,177.5171v-7.8359a.5.5,0,0,1,.75-.4327l52.751,30.4561a.5.5,0,0,1,.25.4326Z"/><path class="cls-3" d="M162.5677,244.146a.5.5,0,0,1-.417-.2236l-18.6641-28.1787a.4983.4983,0,0,1-.0693-.3907.4932.4932,0,0,1,.2363-.3183l165.7569-95.8409V72.4263L144.1536,167.8374l-.5-.8652L309.6605,71.1274a.5.5,0,0,1,.75.4327v47.7734l18.3672,28.3213a.5.5,0,0,1-.17.7051l-165.79,95.7187A.4932.4932,0,0,1,162.5677,244.146Zm-17.9541-28.5117,18.1113,27.3437,164.9268-95.2207-17.9024-27.6045Z"/><rect class="cls-4" x="-0.9475" y="144.3604" width="21.7814" height="0.5809" transform="translate(-70.658 24.1262) rotate(-29.8405)"/><path class="cls-3" d="M197.9437,29.3218l-.2285-.5332c1.6191-.6963,2.5488-1.6748,2.5488-2.6856h.58C200.8441,27.3569,199.7874,28.53,197.9437,29.3218Z"/><path class="cls-3" d="M192.7112,30.2944a13.6005,13.6005,0,0,1-5.2334-.9726l.2286-.5332a13.9885,13.9885,0,0,0,10.0088,0l.2285.5332A13.5918,13.5918,0,0,1,192.7112,30.2944Z"/><path class="cls-3" d="M187.4769,29.3218c-1.8418-.792-2.8975-1.9649-2.8975-3.2188h.58c0,1.0108.9287,1.9893,2.5469,2.6856Z"/><path class="cls-3" d="M192.7112,20.62c-3.4628,0-6.1757-1.4131-6.1757-3.2187s2.7129-3.2178,6.1757-3.2178,6.1758,1.4131,6.1758,3.2178S196.1741,20.62,192.7112,20.62Zm0-5.8564c-3.0332,0-5.5957,1.208-5.5957,2.6377s2.5625,2.6387,5.5957,2.6387,5.5958-1.209,5.5958-2.6387S195.7445,14.7632,192.7112,14.7632Z"/><polygon class="cls-3" points="187.882 29.058 187.302 29.058 187.882 29.055 187.882 29.058"/><path class="cls-3" d="M185.16,26.103h-.58c0-2.8086,1.0195-8.8222,2.4736-10.0009l.3653.4511C186.2542,17.4976,185.16,23.2,185.16,26.103Z"/><polygon class="cls-3" points="198.119 29.058 197.539 29.058 198.119 29.055 198.119 29.058"/><path class="cls-3" d="M200.8441,26.103h-.58c0-3.4238-.9365-8.19-2.19-9.4433l.41-.41C200.0247,17.7886,200.8441,22.9614,200.8441,26.103Z"/><path class="cls-5" d="M192.7114,17.6928c.3235,0,.5858-.13.5858-.2914s-.2623-.2915-.5858-.2915-.5858.1305-.5858.2915S192.3879,17.6928,192.7114,17.6928Z"/><path class="cls-3" d="M192.7112,17.9829c-.5078,0-.8759-.2441-.8759-.582s.3681-.5811.8759-.5811.876.2442.876.5811S193.2191,17.9829,192.7112,17.9829Zm-.0429-.581h.0859A.6157.6157,0,0,0,192.6683,17.4019Z"/><path class="cls-3" d="M167.8,47.1743l-.2285-.5332c1.6191-.6953,2.5488-1.6748,2.5488-2.6855h.58C170.7005,45.21,169.6439,46.3833,167.8,47.1743Z"/><path class="cls-3" d="M162.5677,48.147a13.5925,13.5925,0,0,1-5.2334-.9727l.2285-.5332a13.9858,13.9858,0,0,0,10.0078,0l.23.5332A13.5822,13.5822,0,0,1,162.5677,48.147Z"/><path class="cls-3" d="M157.3343,47.1743c-1.8428-.792-2.8994-1.9648-2.8994-3.2187h.58c0,1.0107.9287,1.9892,2.5478,2.6855Z"/><path class="cls-3" d="M162.5677,38.4722c-3.4629,0-6.1758-1.4131-6.1758-3.2178s2.7129-3.2188,6.1758-3.2188,6.1758,1.4131,6.1758,3.2188S166.0306,38.4722,162.5677,38.4722Zm0-5.8565c-3.0332,0-5.5957,1.209-5.5957,2.6387s2.5625,2.6377,5.5957,2.6377,5.5957-1.208,5.5957-2.6377S165.6009,32.6157,162.5677,32.6157Z"/><polygon class="cls-3" points="157.739 46.912 157.159 46.912 157.739 46.908 157.739 46.912"/><path class="cls-3" d="M155.015,43.9556h-.58c0-2.8067,1.0195-8.82,2.4726-10.001l.3672.4512C156.11,35.3521,155.015,41.0532,155.015,43.9556Z"/><polygon class="cls-3" points="167.976 46.91 167.396 46.91 167.976 46.908 167.976 46.91"/><path class="cls-3" d="M170.7005,43.9556h-.58c0-3.4239-.9365-8.19-2.1894-9.4434l.41-.41C169.8812,35.6411,170.7005,40.814,170.7005,43.9556Z"/><path class="cls-5" d="M162.5676,35.5454c.3235,0,.5858-.13.5858-.2914s-.2623-.2914-.5858-.2914-.5858.13-.5858.2914S162.2441,35.5454,162.5676,35.5454Z"/><path class="cls-3" d="M162.5677,35.8354c-.5078,0-.876-.2441-.876-.581s.3682-.582.876-.582.876.2441.876.582S163.0755,35.8354,162.5677,35.8354Zm-.043-.582a.6171.6171,0,0,0,.086,0Z"/><image width="1754" height="1240" transform="matrix(0.0506, -0.0289, 0.0565, 0.033, 97.442, 89.9115)" xlink:href="../Materials/wattsense-logo-print-page-001.jpg"/><path class="cls-3" d="M235.07,156.9458a1.5632,1.5632,0,0,1-1.5566-1.56V144.86a1.5611,1.5611,0,0,1,.7783-1.3487l16.3721-9.4531a1.5571,1.5571,0,0,1,2.3359,1.3486v10.5254a1.5573,1.5573,0,0,1-.7793,1.3487l-16.3711,9.4541A1.5579,1.5579,0,0,1,235.07,156.9458Zm16.3731-22.5166a.9688.9688,0,0,0-.4883.1328l-16.3721,9.4531a.9777.9777,0,0,0-.4892.8448v10.5263a.9766.9766,0,0,0,1.4648.8448l16.3721-9.4541a.9763.9763,0,0,0,.4893-.8448V135.4067a.9667.9667,0,0,0-.4883-.8457A.9779.9779,0,0,0,251.4427,134.4292Z"/><path class="cls-3" d="M248.3987,144.7573a.5771.5771,0,0,1-.289-.0781l-3.2266-1.8623a.5806.5806,0,0,1,.58-1.0059l3.2266,1.8623a.5809.5809,0,0,1-.2911,1.084Z"/><path class="cls-3" d="M240.98,149.1763a.58.58,0,0,1-.29-.0782l-3.3438-1.9306a.5811.5811,0,0,1,.582-1.0059l3.3438,1.9307a.5811.5811,0,0,1-.292,1.084Z"/><path class="cls-3" d="M235.2806,155.2974a.2688.2688,0,0,1-.0674-.0088.29.29,0,0,1-.2227-.2823v-9.7148a.29.29,0,0,1,.1407-.249l15.8877-9.5694a.29.29,0,0,1,.4394.2491v9.7148a.2907.2907,0,0,1-.1826.27.2939.2939,0,0,1-.3193-.0713l-.292-.3115a13.98,13.98,0,0,1-2.7539,2.4141,9.5447,9.5447,0,0,1-4.33,1.1865,15.3057,15.3057,0,0,1-3.8594,3.7461,11.336,11.336,0,0,1-3.5742,1.2695l-.6074,1.1973A.291.291,0,0,1,235.2806,155.2974Zm.29-9.8418v8.3359l.126-.2471a.2881.2881,0,0,1,.2227-.1562,10.7787,10.7787,0,0,0,3.5146-1.2227,15.4528,15.4528,0,0,0,3.76-3.6953.29.29,0,0,1,.2324-.1211,9.3325,9.3325,0,0,0,4.1719-1.1006,13.7943,13.7943,0,0,0,2.83-2.542.2888.2888,0,0,1,.2149-.1074.3713.3713,0,0,1,.2226.0908l.0127.0137v-8.4678Z"/><path class="cls-3" d="M259.7327,142.7065a1.5622,1.5622,0,0,1-1.5566-1.56V130.6216a1.56,1.56,0,0,1,.7793-1.3487l16.3721-9.4541a1.5566,1.5566,0,0,1,2.3349,1.3487v10.5263a1.5609,1.5609,0,0,1-.7783,1.3487l-16.3721,9.4531A1.5579,1.5579,0,0,1,259.7327,142.7065ZM276.1058,120.19a.9627.9627,0,0,0-.4873.1329l-16.3731,9.4541a.9762.9762,0,0,0-.4892.8447V141.147a.9757.9757,0,0,0,1.4648.8447l16.3721-9.4531a.9777.9777,0,0,0,.4892-.8448V121.1675a.9814.9814,0,0,0-.9765-.9776Z"/><path class="cls-3" d="M273.0618,130.519a.58.58,0,0,1-.29-.0781l-3.2266-1.8633a.581.581,0,1,1,.5821-1.0058l3.2265,1.8633a.581.581,0,0,1-.292,1.0839Z"/><path class="cls-3" d="M265.6429,134.937a.5811.5811,0,0,1-.29-.0781l-3.3437-1.9307a.581.581,0,1,1,.582-1.0058l3.3438,1.9306a.5811.5811,0,0,1-.292,1.084Z"/><path class="cls-3" d="M259.9437,141.0591a.2637.2637,0,0,1-.0674-.0088.29.29,0,0,1-.2227-.2822v-9.7149a.29.29,0,0,1,.1407-.249l15.8877-9.5693a.29.29,0,0,1,.4394.249v9.7148a.29.29,0,0,1-.5019.1983l-.293-.3116a13.9326,13.9326,0,0,1-2.7529,2.4151,9.5609,9.5609,0,0,1-4.33,1.1865,15.3211,15.3211,0,0,1-3.8594,3.7461,11.36,11.36,0,0,1-3.5742,1.2695l-.6074,1.1973A.291.291,0,0,1,259.9437,141.0591Zm.29-9.8418v8.3349l.126-.247a.2878.2878,0,0,1,.2226-.1563,10.7589,10.7589,0,0,0,3.5147-1.2217,15.4933,15.4933,0,0,0,3.76-3.6953.29.29,0,0,1,.2324-.1211,9.3465,9.3465,0,0,0,4.1719-1.1005,13.8246,13.8246,0,0,0,2.83-2.543.2885.2885,0,0,1,.2149-.1074.2738.2738,0,0,1,.2226.0918l.0127.0127v-8.4668Z"/><path class="cls-3" d="M284.3841,128.46a1.5622,1.5622,0,0,1-1.5566-1.5595V116.3745a1.5643,1.5643,0,0,1,.7773-1.3486l16.373-9.4531a1.5569,1.5569,0,0,1,2.335,1.3486v10.5264a1.5643,1.5643,0,0,1-.7773,1.3486L285.1624,128.25A1.5543,1.5543,0,0,1,284.3841,128.46Zm16.3721-22.5166a.9654.9654,0,0,0-.4873.1329L283.8958,115.53a.9785.9785,0,0,0-.4883.8447v10.5264a.9761.9761,0,0,0,1.4639.8447l16.3731-9.4531a.9787.9787,0,0,0,.4882-.8447V106.9214a.9814.9814,0,0,0-.9765-.9776Z"/><path class="cls-3" d="M297.7132,116.272a.5766.5766,0,0,1-.2891-.0782l-3.2265-1.8623a.5805.5805,0,1,1,.58-1.0058l3.2265,1.8623a.5809.5809,0,0,1-.291,1.084Z"/><path class="cls-3" d="M290.2943,120.6909a.5808.5808,0,0,1-.29-.0781l-3.3437-1.9307a.581.581,0,1,1,.582-1.0058l3.3437,1.9306a.581.581,0,0,1-.2919,1.084Z"/><path class="cls-3" d="M284.595,126.812a.2636.2636,0,0,1-.0673-.0088.2893.2893,0,0,1-.2227-.2822v-9.7139a.29.29,0,0,1,.1406-.249l15.8877-9.5693a.2938.2938,0,0,1,.292-.0039.29.29,0,0,1,.1475.2529v9.7139a.2911.2911,0,0,1-.1826.27.2948.2948,0,0,1-.3194-.0713l-.293-.3115a13.945,13.945,0,0,1-2.7539,2.414,9.5409,9.5409,0,0,1-4.3291,1.1865,15.319,15.319,0,0,1-3.8593,3.7461,11.3454,11.3454,0,0,1-3.5743,1.27l-.6074,1.1963A.2907.2907,0,0,1,284.595,126.812Zm.29-9.8408v8.335l.126-.2471a.2879.2879,0,0,1,.2226-.1563,10.7492,10.7492,0,0,0,3.5147-1.2226,15.4751,15.4751,0,0,0,3.76-3.6953.29.29,0,0,1,.2324-.1211,9.3279,9.3279,0,0,0,4.1709-1.1006,13.7679,13.7679,0,0,0,2.83-2.542.2885.2885,0,0,1,.2149-.1074.3189.3189,0,0,1,.2226.0908l.0137.0146v-8.4677Z"/><path class="cls-3" d="M190.0169,182.7866a1.5117,1.5117,0,0,1-1.5039-1.5068V158.979a2.7207,2.7207,0,0,1,1.3691-2.36c2.6768-1.5254,10.1-5.8838,17.9571-10.4971,8.3261-4.8887,16.9365-9.9434,20.3906-11.916a1.4966,1.4966,0,0,1,2.2383,1.3066v22.06c0,1.3476-.1983,1.9385-.7588,2.2578l-38.9434,22.7558A1.5124,1.5124,0,0,1,190.0169,182.7866Zm38.9551-48.1992a.9118.9118,0,0,0-.4531.1221c-3.4522,1.9717-12.0606,7.0254-20.3848,11.9131-7.86,4.6142-15.2842,8.9736-17.9648,10.5009a2.1407,2.1407,0,0,0-1.0762,1.8555V181.28a.9247.9247,0,0,0,1.3828.8017l38.9434-22.7558c.2382-.1358.4687-.3819.4687-1.7539v-22.06a.9228.9228,0,0,0-.916-.9248Z"/><path class="cls-3" d="M190.9378,166.9067a.2979.2979,0,0,1-.1455-.038.2921.2921,0,0,1-.1445-.252v-7.6035a.29.29,0,0,1,.1455-.252c.7373-.4238,15.07-8.7021,15.07-8.7021a.2969.2969,0,0,1,.291,0,.29.29,0,0,1,.1445.2519v7.6045a.2919.2919,0,0,1-.1445.252l-15.0713,8.7012A.2979.2979,0,0,1,190.9378,166.9067Zm.29-7.7255v6.9326l14.4913-8.3662V150.814C203.4173,152.1431,192.7288,158.3159,191.2278,159.1812Z"/><path class="cls-3" d="M204.6521,154.6854c-1.7252.9966-11.4784,6.6308-12.5329,7.2362a.1669.1669,0,0,0-.0846.1481v2.3786a.1736.1736,0,0,0,.2615.1493l12.529-7.2336a.1743.1743,0,0,0,.0872-.151v-2.3759A.1736.1736,0,0,0,204.6521,154.6854Z"/><path class="cls-3" d="M213.3021,154.2026a.2979.2979,0,0,1-.1455-.038.292.292,0,0,1-.1446-.252v-7.6045a.2883.2883,0,0,1,.1455-.2519c.7383-.4239,15.0713-8.7022,15.0713-8.7022a.2969.2969,0,0,1,.291,0,.2906.2906,0,0,1,.1446.252V145.21a.2917.2917,0,0,1-.1446.252l-15.0722,8.7022A.2979.2979,0,0,1,213.3021,154.2026Zm.29-7.7265V153.41l14.4922-8.3672v-6.9336C225.7825,139.438,215.0941,145.6108,213.5921,146.4761Z"/><path class="cls-3" d="M227.0168,141.9805c-1.7252.9966-11.4784,6.6308-12.5329,7.2362a.1669.1669,0,0,0-.0846.1481v2.3786a.1736.1736,0,0,0,.2615.1493l12.529-7.2336a.1743.1743,0,0,0,.0872-.151v-2.3759A.1736.1736,0,0,0,227.0168,141.9805Z"/><path class="cls-3" d="M194.1214,178.7349a1.712,1.712,0,0,1-1.707-1.7051l-.0235-7.3135a3.1146,3.1146,0,0,1,1.625-2.751c6.1914-3.372,27.0157-15.49,31.127-17.8857a1.7017,1.7017,0,0,1,2.5625,1.4678v7.6132a3.1275,3.1275,0,0,1-1.585,2.7149l-31.1543,17.6338A1.7061,1.7061,0,0,1,194.1214,178.7349Zm31.8828-29.3086a1.1266,1.1266,0,0,0-.5683.1552c-4.1133,2.3956-24.9434,14.5186-31.1426,17.8936a2.54,2.54,0,0,0-1.3223,2.2393l.0235,7.3134h0a1.1269,1.1269,0,0,0,1.6845.9756L225.8333,160.37a2.5449,2.5449,0,0,0,1.292-2.209v-7.6132a1.1074,1.1074,0,0,0-.5615-.9707A1.122,1.122,0,0,0,226.0042,149.4263Z"/><path class="cls-3" d="M204.1009,171.5786a1.0468,1.0468,0,0,1-.3809-.0693.9485.9485,0,0,1-.5576-.6211l-.9971-3.2158c-.3974-1.28.6553-3.3125,2.167-4.1817l12.208-7.0176h0a1.5571,1.5571,0,0,1,2.459,1.8223l-.997,4.3525a3.3188,3.3188,0,0,1-1.4942,2.02L204.94,171.3257A1.7086,1.7086,0,0,1,204.1009,171.5786Zm12.7285-14.6015-12.208,7.0175c-1.2559.7227-2.2158,2.4922-1.9014,3.5059l.9971,3.2148a.3665.3665,0,0,0,.2139.253.9113.9113,0,0,0,.72-.1465l11.5684-6.6582a2.7829,2.7829,0,0,0,1.2168-1.6446l.997-4.3535c.1426-.623.0508-1.1093-.2539-1.3349s-.7959-.1709-1.35.1465Z"/><path class="cls-3" d="M198.6849,172.1411a.8576.8576,0,0,1-.4356-.11.924.924,0,0,1-.4228-.8467,2.7448,2.7448,0,0,1,1.332-2.1309,1.1611,1.1611,0,0,1,1.1582-.1054.9236.9236,0,0,1,.4229.8466,2.7478,2.7478,0,0,1-1.3311,2.1309A1.4805,1.4805,0,0,1,198.6849,172.1411Zm1.1953-2.8047a.9834.9834,0,0,0-.4717.15,2.2678,2.2678,0,0,0-1.082,1.6973.474.474,0,0,0,.1728.414.7138.7138,0,0,0,.66-.1064,2.2738,2.2738,0,0,0,1.08-1.6973.4725.4725,0,0,0-.1739-.414A.37.37,0,0,0,199.88,169.3364Z"/><path class="cls-3" d="M221.0364,159.2769a.8532.8532,0,0,1-.4336-.11.9232.9232,0,0,1-.4238-.8477,2.7475,2.7475,0,0,1,1.3311-2.13,1.168,1.168,0,0,1,1.1592-.1065.9246.9246,0,0,1,.4228.8477,2.7392,2.7392,0,0,1-1.333,2.13A1.4705,1.4705,0,0,1,221.0364,159.2769Zm1.1954-2.8057a.9878.9878,0,0,0-.4717.1514,2.27,2.27,0,0,0-1.0811,1.6962.4746.4746,0,0,0,.1738.4151.7089.7089,0,0,0,.6573-.1074,2.2661,2.2661,0,0,0,1.082-1.6963.4719.4719,0,0,0-.1738-.4141A.3614.3614,0,0,0,222.2318,156.4712Z"/><ellipse class="cls-3" cx="204.8748" cy="165.797" rx="0.9352" ry="0.5315" transform="translate(-50.2595 231.8939) rotate(-53.506)"/><ellipse class="cls-3" cx="207.7648" cy="164.1337" rx="0.9352" ry="0.5315" transform="translate(-47.7512 233.5432) rotate(-53.506)"/><ellipse class="cls-3" cx="210.6548" cy="162.4704" rx="0.9352" ry="0.5315" transform="translate(-45.2428 235.1925) rotate(-53.506)"/><ellipse class="cls-3" cx="213.5448" cy="160.8071" rx="0.9352" ry="0.5315" transform="matrix(0.5947, -0.8039, 0.8039, 0.5947, -42.7344, 236.8417)"/><ellipse class="cls-3" cx="216.4348" cy="159.1438" rx="0.9352" ry="0.5315" transform="matrix(0.5947, -0.8039, 0.8039, 0.5947, -40.2261, 238.491)"/><ellipse class="cls-3" cx="206.2444" cy="168.1139" rx="0.9352" ry="0.5315" transform="translate(-51.5671 233.934) rotate(-53.506)"/><ellipse class="cls-3" cx="209.1345" cy="166.4506" rx="0.9352" ry="0.5315" transform="translate(-49.0587 235.5833) rotate(-53.506)"/><ellipse class="cls-3" cx="212.0245" cy="164.7873" rx="0.9352" ry="0.5315" transform="translate(-46.5503 237.2325) rotate(-53.506)"/><ellipse class="cls-3" cx="214.9145" cy="163.124" rx="0.9352" ry="0.5315" transform="translate(-44.042 238.8818) rotate(-53.506)"/><path class="cls-3" d="M152.89,193.1245a.2392.2392,0,0,1-.1172-.0312.2337.2337,0,0,1-.1162-.2022V179.7427a.2323.2323,0,0,1,.1171-.2022l14.25-8.1787a.2368.2368,0,0,1,.2334,0,.2338.2338,0,0,1,.1163.2022v13.1484a.2325.2325,0,0,1-.1172.2022l-14.25,8.1787A.236.236,0,0,1,152.89,193.1245Zm.2334-13.2471v12.61l13.7832-7.91v-12.61Z"/><path class="cls-6" d="M158.264,189.145a.2392.2392,0,0,1-.1172-.0312.2337.2337,0,0,1-.1162-.2022v-.5869l-.8985.5147a.2329.2329,0,0,1-.35-.2022V187.39l-2.1445,1.2305a.2368.2368,0,0,1-.2334,0,.2335.2335,0,0,1-.1162-.2021v-7.3721a.2323.2323,0,0,1,.1172-.2022l10.9863-6.3056a.2368.2368,0,0,1,.2334,0,.2335.2335,0,0,1,.1162.2021v7.3721a.2321.2321,0,0,1-.1172.2021l-2.3769,1.3643v1.5156a.2322.2322,0,0,1-.1172.2022l-1.1309.6484v.8555a.2321.2321,0,0,1-.1172.2021l-3.5019,2.0108A.2358.2358,0,0,1,158.264,189.145Zm0-1.457a.24.24,0,0,1,.1172.0312.2339.2339,0,0,1,.1162.2022v.5869l3.0351-1.7422v-.8555a.2324.2324,0,0,1,.1172-.2021l1.1309-.6484v-1.5157a.2321.2321,0,0,1,.1172-.2021l2.3769-1.3643v-6.834l-10.5195,6.0372v6.8339l2.1445-1.23a.2368.2368,0,0,1,.2334,0,.2335.2335,0,0,1,.1162.2021v1.2471l.8985-.5147A.2264.2264,0,0,1,158.264,187.688Zm3.5019-.7871h0Z"/><path class="cls-3" d="M169.4661,183.61a.24.24,0,0,1-.1172-.0313.2338.2338,0,0,1-.1162-.2021V170.229a.2323.2323,0,0,1,.1172-.2021l14.25-8.1788a.2368.2368,0,0,1,.2334,0,.2337.2337,0,0,1,.1162.2022v13.1475a.2322.2322,0,0,1-.1172.2021l-14.25,8.1787A.2356.2356,0,0,1,169.4661,183.61Zm.2334-13.2461v12.6093l13.7832-7.91V162.4536Z"/><path class="cls-3" d="M174.84,179.63a.2393.2393,0,0,1-.1172-.0313.2335.2335,0,0,1-.1162-.2021V178.81l-.8985.5156a.2368.2368,0,0,1-.2334,0,.2339.2339,0,0,1-.1162-.2022v-1.247l-2.1455,1.23a.2329.2329,0,0,1-.35-.2021v-7.3721a.2321.2321,0,0,1,.1172-.2021l10.9873-6.3057a.2368.2368,0,0,1,.2334,0,.2338.2338,0,0,1,.1162.2022v7.371a.2322.2322,0,0,1-.1172.2022l-2.3779,1.3652v1.5157a.2322.2322,0,0,1-.1172.2021l-1.13.6484v.8555a.2323.2323,0,0,1-.1172.2022l-3.5019,2.01A.2361.2361,0,0,1,174.84,179.63Zm0-1.4571a.2392.2392,0,0,1,.1171.0313.2336.2336,0,0,1,.1163.2021v.587l3.0351-1.7413v-.8554a.2322.2322,0,0,1,.1172-.2022l1.13-.6484v-1.5156a.2322.2322,0,0,1,.1172-.2022l2.3779-1.3652V165.63l-10.52,6.0371v6.834l2.1455-1.2305a.2329.2329,0,0,1,.35.2021V178.72l.8984-.5156A.2362.2362,0,0,1,174.84,178.1733Zm3.5019-.7861h0Z"/><path class="cls-3" d="M151.8558,195.4419a.768.768,0,0,1-.3848-.0986.7976.7976,0,0,1-.3711-.73V179.8921a2.2087,2.2087,0,0,1,1.0752-1.7149l31.9268-18.3242a.983.983,0,0,1,.9912-.082.7952.7952,0,0,1,.3721.73v14.7217a2.21,2.21,0,0,1-1.0743,1.7148h0l-31.9267,18.3242A1.2357,1.2357,0,0,1,151.8558,195.4419Zm32.8515-35.1885a.6656.6656,0,0,0-.3164.1035l-31.9267,18.3243a1.63,1.63,0,0,0-.7842,1.2109v14.7217c0,.0537.0088.1836.082.2265.0645.0371.208.0342.4131-.083l31.9268-18.3242a1.6314,1.6314,0,0,0,.7832-1.2109V160.5005c0-.0537-.0088-.1836-.083-.2266A.1871.1871,0,0,0,184.7073,160.2534Z"/><g id="Connecteur"><polygon class="cls-7" points="296.328 134.042 285.149 127.589 285.064 106.252 296.391 112.707 296.328 134.042"/><path class="cls-8" d="M296.3275,134.33a.2872.2872,0,0,1-.1436-.0381l-11.1777-6.4541a.2867.2867,0,0,1-.1436-.248l-.0859-21.337a.2853.2853,0,0,1,.1426-.249.292.292,0,0,1,.2871-.0019l11.3271,6.456a.287.287,0,0,1,.1445.251l-.0634,21.335a.2855.2855,0,0,1-.1436.248A.29.29,0,0,1,296.3275,134.33Zm-10.8907-6.9072,10.6045,6.123.0615-20.6709-10.75-6.1279Z"/><polygon class="cls-7" points="296.391 112.707 311.232 103.924 311.232 125.456 296.328 134.042 296.391 112.707"/><path class="cls-8" d="M296.3275,134.33a.2873.2873,0,0,1-.2872-.2881l.0635-21.335a.2861.2861,0,0,1,.1407-.2461l14.8408-8.7832a.2866.2866,0,0,1,.4336.2471v21.5322a.2883.2883,0,0,1-.1436.2491l-14.9043,8.5859A.29.29,0,0,1,296.3275,134.33Zm.3505-21.458-.0615,20.6728,14.3281-8.2539V104.4282Z"/><polygon class="cls-7" points="285.064 106.252 296.391 112.707 311.232 103.924 300.054 97.471 285.064 106.252"/><path class="cls-8" d="M296.3909,112.9946a.2984.2984,0,0,1-.1425-.0371l-11.3272-6.456a.2883.2883,0,0,1-.0029-.4981l14.99-8.7812a.2884.2884,0,0,1,.2891-.001l11.1777,6.4541a.2875.2875,0,0,1,.0029.4961l-14.8408,8.7832A.29.29,0,0,1,296.3909,112.9946Zm-10.7529-6.7461,10.75,6.127,14.2744-8.4483-10.6074-6.125Z"/><path class="cls-8" d="M298.2152,131.8872a.1392.1392,0,0,1-.0723-.0195.1427.1427,0,0,1-.0713-.124v-5.2276a.1415.1415,0,0,1,.0723-.124l3.7256-2.1465a.1359.1359,0,0,1,.1435,0,.1427.1427,0,0,1,.0713.124v5.2276a.1415.1415,0,0,1-.0723.124l-3.7256,2.1465A.1332.1332,0,0,1,298.2152,131.8872Zm.1435-5.2881v4.8955l3.4385-1.98v-4.8955Z"/><path class="cls-8" d="M305.7962,127.2046a.14.14,0,0,1-.0723-.0195.1428.1428,0,0,1-.0712-.1241v-5.2265a.1417.1417,0,0,1,.0722-.1241l3.7256-2.1474a.1357.1357,0,0,1,.1436,0,.1428.1428,0,0,1,.0712.124v5.2276a.1416.1416,0,0,1-.0722.124l-3.7256,2.1465A.1338.1338,0,0,1,305.7962,127.2046Zm.1436-5.2871v4.8945l3.4384-1.98V119.936Z"/><path class="cls-8" d="M305.7962,125.9351a.1437.1437,0,0,1-.0732-.2676l2.5234-1.4844v-3.749a.1436.1436,0,1,1,.2871,0v3.831a.1444.1444,0,0,1-.07.1241l-2.5937,1.5263A.1449.1449,0,0,1,305.7962,125.9351Z"/><path class="cls-8" d="M298.2152,130.5229a.1433.1433,0,0,1-.0713-.2675l2.4707-1.4248v-3.7793a.1436.1436,0,1,1,.2871,0v3.8623a.1417.1417,0,0,1-.0723.124l-2.543,1.4658A.1347.1347,0,0,1,298.2152,130.5229Z"/><path class="cls-8" d="M309.5218,125.0581a.1451.1451,0,0,1-.0713-.0185l-1.1318-.6495a.1439.1439,0,0,1,.1425-.25l1.1319.6495a.1436.1436,0,0,1-.0713.2685Z"/><path class="cls-8" d="M301.9407,129.7407a.1407.1407,0,0,1-.0722-.0195l-1.1826-.6836a.1432.1432,0,0,1-.0518-.1963.14.14,0,0,1,.1963-.0517l1.1826.6835a.1436.1436,0,0,1-.0723.2676Z"/><polygon class="cls-8" points="304.94 106.186 307.197 104.824 306.504 104.412 304.247 105.775 304.94 106.186"/><polygon class="cls-8" points="298.027 110.361 300.284 108.998 299.59 108.587 297.333 109.95 298.027 110.361"/><path class="cls-8" d="M301.22,104.5874a4.5256,4.5256,0,0,1-2.288-.5654,1.7379,1.7379,0,0,1-.9717-1.4483,1.8257,1.8257,0,0,1,1.039-1.5039,4.9931,4.9931,0,0,1,4.6534-.0215,1.7366,1.7366,0,0,1,.9716,1.4473,1.8284,1.8284,0,0,1-1.039,1.5059A4.7265,4.7265,0,0,1,301.22,104.5874Zm.1455-3.8037a4.4132,4.4132,0,0,0-2.21.5478,1.5408,1.5408,0,0,0-.8906,1.2432,1.45,1.45,0,0,0,.8252,1.1856h0a4.6464,4.6464,0,0,0,4.3388-.0206,1.5432,1.5432,0,0,0,.8906-1.2451,1.45,1.45,0,0,0-.8251-1.1845A4.2,4.2,0,0,0,301.3655,100.7837Z"/><path class="cls-8" d="M293.8812,108.9487a4.5249,4.5249,0,0,1-2.2881-.5654,1.74,1.74,0,0,1-.9727-1.4482,1.8274,1.8274,0,0,1,1.04-1.5049,4.9869,4.9869,0,0,1,4.6533-.02,1.7368,1.7368,0,0,1,.9717,1.4472,1.8284,1.8284,0,0,1-1.0391,1.5059A4.7258,4.7258,0,0,1,293.8812,108.9487Zm.1435-3.8037a4.4151,4.4151,0,0,0-2.208.5469,1.54,1.54,0,0,0-.8906,1.2441,1.4462,1.4462,0,0,0,.8252,1.1856h0a4.6466,4.6466,0,0,0,4.3389-.02,1.5436,1.5436,0,0,0,.8906-1.2451,1.45,1.45,0,0,0-.8252-1.1846A4.2045,4.2045,0,0,0,294.0247,105.145Z"/><rect class="cls-8" x="298.1165" y="102.3589" width="6.3555" height="0.3047"/><rect class="cls-8" x="293.8095" y="103.9861" width="0.3045" height="5.8042" transform="translate(100.1872 352.4284) rotate(-71.7022)"/><rect class="cls-8" x="295.2481" y="121.5642" width="17.1265" height="0.5005" transform="translate(-20.2311 168.0376) rotate(-29.9667)"/></g><g id="Connecteur-2" data-name="Connecteur"><polygon class="cls-7" points="271.587 148.249 260.408 141.795 260.323 120.458 271.65 126.914 271.587 148.249"/><path class="cls-8" d="M271.5872,148.5356a.2877.2877,0,0,1-.1435-.038l-11.1787-6.4541a.2868.2868,0,0,1-.1436-.2481l-.0859-21.3369a.2853.2853,0,0,1,.1425-.249.2922.2922,0,0,1,.2872-.002l11.3271,6.4561a.287.287,0,0,1,.1445.251l-.0625,21.3349a.2856.2856,0,0,1-.1435.2481A.2909.2909,0,0,1,271.5872,148.5356Zm-10.8916-6.9072,10.6055,6.1231.06-20.6709-10.75-6.128Z"/><polygon class="cls-7" points="271.65 126.914 286.491 118.131 286.491 139.662 271.587 148.249 271.65 126.914"/><path class="cls-8" d="M271.5872,148.5356a.2871.2871,0,0,1-.2871-.288l.0625-21.335a.2861.2861,0,0,1,.1406-.2461l14.8418-8.7832a.2933.2933,0,0,1,.2891-.0029.2875.2875,0,0,1,.1445.25v21.5322a.2883.2883,0,0,1-.1435.249l-14.9043,8.586A.2909.2909,0,0,1,271.5872,148.5356Zm.35-21.458-.06,20.6729,14.3281-8.2539V118.6343Z"/><polygon class="cls-7" points="260.323 120.458 271.65 126.914 286.491 118.131 275.313 111.677 260.323 120.458"/><path class="cls-8" d="M271.65,127.2007a.2991.2991,0,0,1-.1426-.0371L260.18,120.7075a.2882.2882,0,0,1-.0029-.498l14.99-8.78a.2886.2886,0,0,1,.2891-.001l11.1787,6.4531a.2876.2876,0,0,1,.0029.4961l-14.8418,8.7832A.28.28,0,0,1,271.65,127.2007Zm-10.7529-6.7461,10.75,6.1269,14.2754-8.4482-10.6084-6.124Z"/><path class="cls-8" d="M273.4739,146.0933a.1383.1383,0,0,1-.0722-.02.1425.1425,0,0,1-.0713-.124v-5.2266a.1415.1415,0,0,1,.0723-.124l3.7255-2.1474a.1357.1357,0,0,1,.1436,0,.1428.1428,0,0,1,.0713.124v5.2275a.1415.1415,0,0,1-.0723.124l-3.7256,2.1465A.1328.1328,0,0,1,273.4739,146.0933Zm.1436-5.2871v4.8945l3.4385-1.9805v-4.8955Z"/><path class="cls-8" d="M281.055,141.4106a.1388.1388,0,0,1-.0723-.0195.1429.1429,0,0,1-.0713-.124v-5.2266a.1417.1417,0,0,1,.0723-.124L284.71,133.77a.1359.1359,0,0,1,.1435,0,.1427.1427,0,0,1,.0713.124v5.2266a.1414.1414,0,0,1-.0723.124l-3.7265,2.1465A.1329.1329,0,0,1,281.055,141.4106Zm.1436-5.2871v4.8955l3.4394-1.9814v-4.8955Z"/><path class="cls-8" d="M281.055,140.1421a.1437.1437,0,0,1-.0732-.2676l2.5234-1.4853v-3.7481a.1436.1436,0,0,1,.2871,0v3.83a.1443.1443,0,0,1-.07.124l-2.5938,1.5274A.1452.1452,0,0,1,281.055,140.1421Z"/><path class="cls-8" d="M273.4739,144.729a.1434.1434,0,0,1-.0712-.2676l2.4707-1.4248v-3.7793a.1436.1436,0,0,1,.2871,0V143.12a.1418.1418,0,0,1-.0723.1241l-2.543,1.4658A.1357.1357,0,0,1,273.4739,144.729Z"/><path class="cls-8" d="M284.7816,139.2642a.1436.1436,0,0,1-.0713-.0186l-1.1328-.6494a.1439.1439,0,1,1,.1425-.25l1.1328.6494a.1437.1437,0,0,1-.0712.2686Z"/><path class="cls-8" d="M277.2,143.9468a.1408.1408,0,0,1-.0722-.02l-1.1827-.6835a.1436.1436,0,0,1,.1446-.2481l1.1826.6836a.1436.1436,0,0,1-.0723.2676Z"/><polygon class="cls-8" points="280.199 120.393 282.456 119.03 281.763 118.619 279.506 119.981 280.199 120.393"/><polygon class="cls-8" points="273.286 124.567 275.543 123.205 274.85 122.793 272.593 124.156 273.286 124.567"/><path class="cls-8" d="M276.4808,118.7935a4.5326,4.5326,0,0,1-2.29-.5655h0a1.7377,1.7377,0,0,1-.9716-1.4472,1.8281,1.8281,0,0,1,1.039-1.5049,4.9972,4.9972,0,0,1,4.6543-.02,1.7378,1.7378,0,0,1,.9717,1.4472,1.8282,1.8282,0,0,1-1.0391,1.5049A4.7248,4.7248,0,0,1,276.4808,118.7935Zm-2.1319-.8272a4.6543,4.6543,0,0,0,4.34-.02,1.54,1.54,0,0,0,.89-1.2441,1.4469,1.4469,0,0,0-.8242-1.1846,4.657,4.657,0,0,0-4.34.02,1.5408,1.5408,0,0,0-.89,1.2441,1.4471,1.4471,0,0,0,.8242,1.1846Z"/><path class="cls-8" d="M269.1409,123.1548a4.5294,4.5294,0,0,1-2.289-.5654,1.738,1.738,0,0,1-.9717-1.4483,1.8256,1.8256,0,0,1,1.0391-1.5039,4.99,4.99,0,0,1,4.6533-.0215,1.7392,1.7392,0,0,1,.9726,1.4483,1.8273,1.8273,0,0,1-1.04,1.5048A4.7214,4.7214,0,0,1,269.1409,123.1548Zm.1446-3.8037a4.4136,4.4136,0,0,0-2.21.5478,1.541,1.541,0,0,0-.8906,1.2432,1.45,1.45,0,0,0,.8252,1.1855,4.6489,4.6489,0,0,0,4.3388-.02,1.54,1.54,0,0,0,.8907-1.2441,1.4465,1.4465,0,0,0-.8252-1.1856A4.201,4.201,0,0,0,269.2855,119.3511Z"/><rect class="cls-8" x="273.3753" y="116.5659" width="6.3555" height="0.3047"/><rect class="cls-8" x="269.0688" y="118.1917" width="0.3045" height="5.8051" transform="translate(69.7377 338.6952) rotate(-71.7053)"/><rect class="cls-8" x="270.5067" y="135.7707" width="17.1278" height="0.5005" transform="translate(-30.6347 157.5789) rotate(-29.9667)"/></g><g id="Connecteur-3" data-name="Connecteur"><polygon class="cls-7" points="246.939 162.526 235.761 156.072 235.675 134.735 247.002 141.191 246.939 162.526"/><path class="cls-8" d="M246.94,162.813a.2874.2874,0,0,1-.1436-.0381l-11.1787-6.4541a.2867.2867,0,0,1-.1436-.248l-.0859-21.337a.2853.2853,0,0,1,.1426-.249.2943.2943,0,0,1,.2871-.0019l11.3271,6.456a.2892.2892,0,0,1,.1446.251l-.0625,21.335a.2855.2855,0,0,1-.1436.248A.29.29,0,0,1,246.94,162.813Zm-10.8916-6.9072,10.6054,6.123.0606-20.6709-10.75-6.1279Z"/><polygon class="cls-7" points="247.002 141.191 261.844 132.408 261.844 153.94 246.939 162.526 247.002 141.191"/><path class="cls-8" d="M246.94,162.813a.2872.2872,0,0,1-.2871-.2881l.0625-21.335a.2863.2863,0,0,1,.1406-.2461l14.8418-8.7832a.2866.2866,0,0,1,.4336.2471V153.94a.2883.2883,0,0,1-.1436.2491l-14.9043,8.5859A.29.29,0,0,1,246.94,162.813Zm.35-21.458-.0606,20.6728,14.3282-8.2539V132.9116Z"/><polygon class="cls-7" points="235.675 134.735 247.002 141.191 261.844 132.408 250.665 125.954 235.675 134.735"/><path class="cls-8" d="M247.0023,141.478a.2956.2956,0,0,1-.1426-.0371l-11.3272-6.456a.2883.2883,0,0,1-.0029-.4981l14.99-8.78a.2886.2886,0,0,1,.2891-.0009l11.1787,6.4531a.2875.2875,0,0,1,.0029.4961l-14.8418,8.7832A.2808.2808,0,0,1,247.0023,141.478Zm-10.753-6.7461,10.75,6.127,14.2754-8.4483-10.6084-6.124Z"/><path class="cls-8" d="M248.8265,160.3706a.14.14,0,0,1-.0723-.0195.1429.1429,0,0,1-.0713-.124v-5.2266a.1416.1416,0,0,1,.0723-.124l3.7256-2.1475a.1359.1359,0,0,1,.1435,0,.1427.1427,0,0,1,.0713.124v5.2276a.1416.1416,0,0,1-.0722.124l-3.7256,2.1465A.1338.1338,0,0,1,248.8265,160.3706Zm.1435-5.2871v4.8945l3.4385-1.98v-4.8955Z"/><path class="cls-8" d="M256.4075,155.688a.1391.1391,0,0,1-.0722-.0195.1427.1427,0,0,1-.0713-.1241v-5.2265a.1417.1417,0,0,1,.0722-.1241l3.7266-2.1464a.1357.1357,0,0,1,.1436,0,.1428.1428,0,0,1,.0713.124l-.001,5.2265a.1418.1418,0,0,1-.0723.1241l-3.7256,2.1465A.1335.1335,0,0,1,256.4075,155.688Zm.1436-5.2871v4.8945l3.4385-1.9805.0009-4.8945Z"/><path class="cls-8" d="M256.4075,154.4185a.1437.1437,0,0,1-.0732-.2676l2.5234-1.4844v-3.749a.1436.1436,0,1,1,.2871,0v3.831a.1442.1442,0,0,1-.07.1241l-2.5937,1.5263A.1447.1447,0,0,1,256.4075,154.4185Z"/><path class="cls-8" d="M248.8265,159.0063a.1434.1434,0,0,1-.0713-.2675l2.4707-1.4248v-3.7793a.1436.1436,0,1,1,.2871,0v3.8623a.1415.1415,0,0,1-.0723.124l-2.5429,1.4658A.1353.1353,0,0,1,248.8265,159.0063Z"/><path class="cls-8" d="M260.1331,153.5415a.1441.1441,0,0,1-.0713-.0186l-1.1318-.6494a.1439.1439,0,1,1,.1426-.25l1.1318.6494a.1437.1437,0,0,1-.0713.2686Z"/><path class="cls-8" d="M252.5521,158.2241a.141.141,0,0,1-.0723-.0195l-1.1826-.6836a.1432.1432,0,0,1-.0518-.1963.1409.1409,0,0,1,.1963-.0518l1.1826.6836a.1436.1436,0,0,1-.0722.2676Z"/><polygon class="cls-8" points="255.552 134.67 257.809 133.307 257.115 132.896 254.859 134.259 255.552 134.67"/><polygon class="cls-8" points="248.638 138.845 250.895 137.482 250.202 137.071 247.945 138.434 248.638 138.845"/><path class="cls-8" d="M251.8323,133.0708a4.532,4.532,0,0,1-2.289-.5654h0a1.7379,1.7379,0,0,1-.9717-1.4483,1.8258,1.8258,0,0,1,1.0391-1.5039,4.9892,4.9892,0,0,1,4.6543-.02,1.7378,1.7378,0,0,1,.9716,1.4473,1.8276,1.8276,0,0,1-1.04,1.5049A4.72,4.72,0,0,1,251.8323,133.0708Zm-2.1308-.8271a4.6464,4.6464,0,0,0,4.3388-.0206,1.54,1.54,0,0,0,.8907-1.2441,1.4471,1.4471,0,0,0-.8242-1.1846,4.66,4.66,0,0,0-4.34.02,1.5381,1.5381,0,0,0-.89,1.2432,1.447,1.447,0,0,0,.8242,1.1856Z"/><path class="cls-8" d="M244.4925,137.4321a4.5249,4.5249,0,0,1-2.2881-.5654h0a1.7369,1.7369,0,0,1-.9717-1.4473,1.8283,1.8283,0,0,1,1.0391-1.5058,4.99,4.99,0,0,1,4.6533-.02,1.7368,1.7368,0,0,1,.9717,1.4472,1.8284,1.8284,0,0,1-1.0391,1.5059A4.7258,4.7258,0,0,1,244.4925,137.4321Zm.1445-3.8037a4.4216,4.4216,0,0,0-2.209.5469,1.5436,1.5436,0,0,0-.8906,1.2451,1.45,1.45,0,0,0,.8252,1.1846h0a4.6494,4.6494,0,0,0,4.3389-.02,1.5434,1.5434,0,0,0,.8906-1.2451,1.45,1.45,0,0,0-.8252-1.1846A4.2007,4.2007,0,0,0,244.637,133.6284Z"/><rect class="cls-8" x="248.7278" y="130.8423" width="6.3555" height="0.3047"/><rect class="cls-8" x="244.4208" y="132.4695" width="0.3045" height="5.8042" transform="translate(39.2611 325.0778) rotate(-71.7022)"/><rect class="cls-8" x="245.8595" y="150.0476" width="17.1273" height="0.5005" transform="translate(-41.0609 147.1762) rotate(-29.9667)"/></g></g><polygon class="cls-7" points="164.843 191.162 174.841 196.917 184.809 191.162 174.841 185.364 164.843 191.162"/><path class="cls-3" d="M174.8411,197.11a.19.19,0,0,1-.0966-.0254l-9.9981-5.7549a.1936.1936,0,0,1,0-.334l9.9981-5.7988a.19.19,0,0,1,.1933,0l9.9678,5.7988a.1936.1936,0,0,1,0,.334l-9.9678,5.7549A.1909.1909,0,0,1,174.8411,197.11Zm-9.6123-5.9483,9.6123,5.5332,9.583-5.5332-9.583-5.5752Z"/><polygon class="cls-7" points="184.84 189.283 189.842 192.158 179.837 197.978 174.834 195.103 184.84 189.283"/><path class="cls-3" d="M179.8372,198.17a.1848.1848,0,0,1-.0957-.0254l-5.0029-2.875a.19.19,0,0,1-.0967-.166.1922.1922,0,0,1,.0957-.168l10.0059-5.82a.1889.1889,0,0,1,.1924,0l5.0019,2.875a.19.19,0,0,1,.0967.166.192.192,0,0,1-.0957.168l-10.0049,5.82A.1883.1883,0,0,1,179.8372,198.17Zm-4.6172-3.0683,4.6162,2.6533,9.62-5.5967-4.6153-2.6533Z"/><polygon class="cls-7" points="174.834 195.103 179.837 197.978 179.837 207.672 174.834 204.773 174.834 195.103"/><path class="cls-3" d="M179.8372,207.8647a.1918.1918,0,0,1-.0967-.0253l-5.0029-2.9a.1925.1925,0,0,1-.0957-.167v-9.67a.1927.1927,0,0,1,.0957-.167.1889.1889,0,0,1,.1924,0l5.0029,2.875a.19.19,0,0,1,.0967.167v9.6944a.1906.1906,0,0,1-.1924.1923Zm-4.81-3.2031,4.6181,2.6758v-9.248l-4.6181-2.6534Z"/><polygon class="cls-7" points="189.842 192.158 194.845 194.838 184.84 200.659 179.837 197.978 189.842 192.158"/><path class="cls-3" d="M184.84,200.8511a.1875.1875,0,0,1-.0909-.0225l-5.0029-2.6807a.1932.1932,0,0,1-.0059-.3369l10.0049-5.82a.1938.1938,0,0,1,.1875-.0029l5.003,2.6807a.1932.1932,0,0,1,.0058.3369l-10.0049,5.82A.188.188,0,0,1,184.84,200.8511Zm-4.6075-2.88,4.6035,2.4668,9.6133-5.5928-4.6035-2.4668Z"/><polygon class="cls-7" points="179.837 197.978 184.84 200.659 184.84 210.33 179.837 207.672 179.837 197.978"/><path class="cls-3" d="M184.84,210.522a.1875.1875,0,0,1-.0909-.0225l-5.0029-2.6572a.1922.1922,0,0,1-.1016-.17V197.978a.1928.1928,0,0,1,.2832-.17l5.003,2.6807a.1921.1921,0,0,1,.1015.17V210.33a.1914.1914,0,0,1-.1923.1924Zm-4.8106-2.9658,4.6182,2.4521v-9.2344L180.03,198.3Z"/><polygon class="cls-7" points="194.845 194.838 184.84 200.659 196.704 206.76 202.951 203.297 194.845 194.838"/><path class="cls-3" d="M196.7034,206.9517a.1982.1982,0,0,1-.0879-.02l-11.8632-6.1006a.1935.1935,0,0,1-.0088-.3389l10.0049-5.82a.1941.1941,0,0,1,.2363.0332l8.1055,8.459a.1944.1944,0,0,1-.0459.3027l-6.2471,3.4619A.2.2,0,0,1,196.7034,206.9517Zm-11.4619-6.3038,11.459,5.8926,5.9375-3.29-7.8271-8.169Z"/><polygon class="cls-7" points="184.84 200.659 184.84 210.33 196.796 213.882 196.704 206.76 184.84 200.659"/><path class="cls-3" d="M196.7962,214.0747a.1716.1716,0,0,1-.0547-.0078l-11.956-3.5527a.1925.1925,0,0,1-.1377-.1846v-9.6709a.1921.1921,0,0,1,.28-.1719l11.8633,6.1006a.1916.1916,0,0,1,.1045.1689l.0928,7.1231a.1906.1906,0,0,1-.1924.1953Zm-11.7637-3.8887L196.6,213.6226l-.0879-6.7452-11.48-5.9023Z"/><path class="cls-7" d="M203.1684,209.774v-6.0991a.4373.4373,0,0,0-.6572-.378l-5.4282,3.1578a1.0932,1.0932,0,0,0-.5436.9451v6.0874a.4373.4373,0,0,0,.6566.3784l5.4274-3.1457A1.0934,1.0934,0,0,0,203.1684,209.774Z"/><path class="cls-3" d="M196.9769,214.1187a.6322.6322,0,0,1-.3145-.085.6257.6257,0,0,1-.3154-.5469V207.4a1.2927,1.2927,0,0,1,.64-1.1123l5.4278-3.1572a.6292.6292,0,0,1,.9463.5449v6.0986a1.2933,1.2933,0,0,1-.6407,1.1133l-5.4277,3.1455A.6326.6326,0,0,1,196.9769,214.1187ZM202.73,203.43a.2425.2425,0,0,0-.1221.0342l-5.4277,3.1572a.904.904,0,0,0-.4482.7783v6.0869a.2427.2427,0,0,0,.123.2119.2357.2357,0,0,0,.2441,0l5.4278-3.1455a.9067.9067,0,0,0,.4492-.7793v-6.0986a.2383.2383,0,0,0-.1231-.2119A.2519.2519,0,0,0,202.73,203.43Z"/><polygon class="cls-7" points="184.5 190.904 186.357 192.03 179.608 195.965 177.751 194.838 184.5 190.904"/><path class="cls-3" d="M179.6077,196.061a.0924.0924,0,0,1-.05-.0146l-1.8564-1.126a.0955.0955,0,0,1,.001-.165l6.749-3.9346a.096.096,0,0,1,.0986.001l1.8565,1.1269a.0957.0957,0,0,1-.001.1651l-6.749,3.9336A.1.1,0,0,1,179.6077,196.061ZM177.94,194.84l1.6689,1.0118,6.56-3.8233-1.669-1.0127Z"/><polygon class="cls-7" points="164.843 191.162 164.843 197.978 165.518 198.432 165.497 199.353 174.834 204.773 174.841 196.917 164.843 191.162"/><path class="cls-3" d="M174.8343,204.9653a.1909.1909,0,0,1-.0967-.0254l-9.3369-5.42a.1917.1917,0,0,1-.0957-.1709l.0176-.8154-.5869-.3955a.1919.1919,0,0,1-.085-.16v-6.8154a.1924.1924,0,0,1,.2891-.167l9.998,5.7549a.1894.1894,0,0,1,.0957.167l-.0068,7.8554a.19.19,0,0,1-.0967.167A.1848.1848,0,0,1,174.8343,204.9653Zm-9.1416-5.7216,8.9492,5.1943.0059-7.4092-9.6123-5.5322v6.3789l.59.3965a.1916.1916,0,0,1,.085.164Z"/><line class="cls-7" x1="166.3932" y1="190.27" x2="169.4941" y2="192.0547"/><path class="cls-3" d="M169.4945,192.27a.2136.2136,0,0,1-.1075-.0283l-3.1015-1.7852a.2152.2152,0,0,1,.2148-.373l3.1016,1.7852a.2149.2149,0,0,1-.1074.4013Z"/><line class="cls-7" x1="167.6256" y1="189.5565" x2="170.7265" y2="191.3413"/><path class="cls-3" d="M170.7269,191.5562a.2123.2123,0,0,1-.1074-.0284l-3.1016-1.7851a.2153.2153,0,0,1,.2148-.3731l3.1016,1.7852a.215.215,0,0,1-.1074.4014Z"/><line class="cls-7" x1="168.858" y1="188.8431" x2="171.959" y2="190.6278"/><path class="cls-3" d="M171.9593,190.8423a.2161.2161,0,0,1-.1074-.0283L168.75,189.03a.2153.2153,0,1,1,.2149-.3731l3.1015,1.7842a.215.215,0,0,1-.1074.4014Z"/><line class="cls-7" x1="170.0905" y1="188.1296" x2="173.1914" y2="189.9144"/><path class="cls-3" d="M173.1917,190.1294a.2135.2135,0,0,1-.1074-.0283l-3.1016-1.7852a.2152.2152,0,1,1,.2149-.373l3.1015,1.7851a.215.215,0,0,1-.1074.4014Z"/><line class="cls-7" x1="171.3229" y1="187.4162" x2="174.4239" y2="189.2009"/><path class="cls-3" d="M174.4241,189.4155a.2161.2161,0,0,1-.1074-.0283l-3.1015-1.7842a.2152.2152,0,0,1,.2148-.373l3.1016,1.7842a.2149.2149,0,0,1-.1075.4013Z"/><line class="cls-7" x1="172.5554" y1="186.7027" x2="175.6563" y2="188.4875"/><path class="cls-3" d="M175.6566,188.7026a.2138.2138,0,0,1-.1075-.0283l-3.1015-1.7851a.2153.2153,0,0,1,.2148-.3731l3.1016,1.7852a.2149.2149,0,0,1-.1074.4013Z"/><line class="cls-7" x1="173.7878" y1="185.9893" x2="176.8888" y2="187.774"/><path class="cls-3" d="M176.889,187.9888a.2147.2147,0,0,1-.1074-.0284l-3.1016-1.7841a.2153.2153,0,0,1,.2148-.3731l3.1016,1.7842a.215.215,0,0,1-.1074.4014Z"/><path class="cls-3" d="M200.178,211.3179a2.5248,2.5248,0,1,1,2.1084-2.49A2.3256,2.3256,0,0,1,200.178,211.3179Zm0-4.6a2.1515,2.1515,0,1,0,1.7276,2.1093A1.9491,1.9491,0,0,0,200.178,206.7183Z"/><path class="cls-7" d="M288.3474,196.5145c-6.3089-3.6424-12.5326-4.317-20.2263.1249l-29.7988,17.2043c-8.5257,4.9223-14.5965,6.4-20.01,3.1127s-17.5775-10.34-17.5775-10.34l-1.4845,4.2207s12.1639,7.0531,17.5774,10.34,12.9689,2.1718,21.4946-2.75,22.3215-13.1245,30.0151-17.5664,12.2166-3.7674,18.5255-.1249S294.6563,200.157,288.3474,196.5145Z"/><path class="cls-3" d="M223.9437,223.2534a13.6549,13.6549,0,0,1-7.2159-1.9111c-5.35-3.249-17.4531-10.2686-17.5742-10.3389a.193.193,0,1,1,.1934-.334c.1221.07,12.2275,7.0928,17.58,10.3428,5.2724,3.2,12.6367,2.2481,21.2988-2.7529,4.3574-2.5156,10.1133-5.9014,15.6787-9.1748,4.49-2.6407,8.7363-5.1377,12.2246-7.166a3.073,3.073,0,0,0-1.2754-.9014,3.7053,3.7053,0,0,1-1.6845-1.2959l-24.75,14.2891c-9.2237,5.3251-15.0791,6.2236-20.2071,3.1113-5.35-3.249-17.4531-10.2686-17.5742-10.3389a.193.193,0,1,1,.1934-.334c.122.07,12.2275,7.0928,17.581,10.3428,4.9883,3.0293,10.73,2.1289,19.8135-3.1152l24.9043-14.378a.1944.1944,0,0,1,.2549.0577l.0283.0429a3.2538,3.2538,0,0,0,1.5762,1.2559,3.4518,3.4518,0,0,1,1.583,1.2031.1914.1914,0,0,1,.0351.1533.1963.1963,0,0,1-.0927.1289c-3.5225,2.0479-7.8418,4.5879-12.4151,7.2774-5.5664,3.2734-11.3222,6.6592-15.6806,9.1758C233.0511,221.6929,228.1644,223.2534,223.9437,223.2534Z"/><path class="cls-3" d="M186.7073,211.0083a.386.386,0,0,1-.3857-.3857V201.396l4.3037-2.4844a.3855.3855,0,1,1,.3848.668l-3.917,2.2617v8.7813A.386.386,0,0,1,186.7073,211.0083Z"/><path class="cls-3" d="M191.8157,212.43a.3859.3859,0,0,1-.3857-.3858v-7.998l3.2227-1.9317a.3859.3859,0,1,1,.3964.6622l-2.8476,1.707v7.56A.386.386,0,0,1,191.8157,212.43Z"/><path class="cls-3" d="M192.723,198.521a.3751.3751,0,0,1-.1875-.7l3.1748-1.833a.3807.3807,0,0,1,.5127.1377.3753.3753,0,0,1-.1377.5127l-3.1748,1.833A.3827.3827,0,0,1,192.723,198.521Z"/><path class="cls-3" d="M189.4388,206.8a.386.386,0,0,1-.3858-.3857v-3.5694l8.6915-4.7373a.3858.3858,0,1,1,.3691.6777l-8.2891,4.5186v3.11A.3859.3859,0,0,1,189.4388,206.8Z"/><path class="cls-3" d="M189.4388,211.8687a.386.386,0,0,1-.3858-.3858v-3.3115a.3858.3858,0,1,1,.7715,0v3.3115A.3859.3859,0,0,1,189.4388,211.8687Z"/><path class="cls-3" d="M194.3353,208.5571a.3859.3859,0,0,1-.3858-.3857v-2.6631a.3852.3852,0,0,1,.1944-.335l6.6308-3.7793a.3858.3858,0,0,1,.3828.67l-6.4365,3.6689v2.4385A.3858.3858,0,0,1,194.3353,208.5571Z"/><path class="cls-3" d="M194.3411,213.3315a.3858.3858,0,0,1-.3857-.3857V210.021a.3858.3858,0,0,1,.7715,0v2.9248A.3859.3859,0,0,1,194.3411,213.3315Z"/><path class="cls-3" d="M196.5394,201.8794a.3858.3858,0,0,1-.1846-.7246l2.8076-1.5313a.3859.3859,0,1,1,.3692.6778l-2.8077,1.5312A.3918.3918,0,0,1,196.5394,201.8794Z"/><path class="cls-3" d="M268.7191,203.5308a.1924.1924,0,0,1-.1924-.18c-.0059-.0908-.0088-.1807-.0127-.2715a2.5914,2.5914,0,0,0-.4844-1.6113,3.1954,3.1954,0,0,0-1.53-1.1768l-.2441-.1094a3.685,3.685,0,0,1-1.7305-1.3408,3.0686,3.0686,0,0,1-.5664-1.8672c-.0039-.0849-.0068-.1689-.0117-.2519a.1932.1932,0,0,1,.18-.2051h.0127a.1925.1925,0,0,1,.1924.18c.0058.0869.0088.1748.0117.2627a2.7118,2.7118,0,0,0,.499,1.6631,3.3082,3.3082,0,0,0,1.57,1.207l.2442.11a3.5578,3.5578,0,0,1,1.69,1.31,2.9547,2.9547,0,0,1,.5527,1.8164c.003.0869.0059.1729.0117.26a.1933.1933,0,0,1-.18.2051Z"/><polygon class="cls-6" points="171.458 188.269 177.573 191.674 178.824 190.916 172.71 187.511 171.458 188.269"/><polygon class="cls-6" points="179.072 192.508 185.186 195.913 186.438 195.155 180.323 191.75 179.072 192.508"/><polygon class="cls-6" points="163.845 184.03 169.96 187.436 171.212 186.678 165.097 183.272 163.845 184.03"/><polygon class="cls-6" points="187.935 195.989 186.683 196.747 190.222 198.718 191.474 197.96 187.935 195.989"/><polygon class="cls-6" points="164.254 180.57 162.895 179.813 158.747 180.466 157.8 182.9 159.159 183.656 159.873 181.82 162.346 183.197 163.598 182.439 161.124 181.062 164.254 180.57"/><path class="cls-3" d="M155.2073,137.6948l-1.19.7051,3.4776,2.03,1.3261-.7862,1.0449.6094-1.7207,1.02-9.6464-5.63,1.6533-.98,1.0449.61-1.2588.7461,3.0488,1.7793,1.19-.706Z"/><path class="cls-3" d="M152.4437,134.55l-.9307.5527-1.06-.6181,2.2666-1.3438,1.06.6182-.9355.5547,8.5859,5.0117-.3984.2363Z"/><path class="cls-3" d="M153.4534,132.7065l4.0362,2.3555,1.48-.8789-4.0361-2.3555.4-.2363,9.6465,5.63-.4.2373-4.5225-2.6406-1.48.8789,4.5224,2.6386-.3945.2344-9.6465-5.63Z"/><path class="cls-3" d="M165.5237,136.8989l-.7724-.4511-.6455-.7452a14.1927,14.1927,0,0,0-3.77-3.4922c-.9433-.5507-1.9619-.9746-2.4023-.7128-.2676.1582-.06.541.1611.831l-1.0146-.4424c-.34-.4384-.4492-.8447-.1094-1.0468.6367-.377,2.2783.2656,3.6094,1.0429a14.6093,14.6093,0,0,1,3.9775,3.5176l.4512.541.0283.0166,1.3262-.7861,1.0449.61Z"/><path class="cls-6" d="M137.221,148.08l-1.19.7051,3.4775,2.03,1.3262-.7861,1.0449.6094-1.7207,1.02-9.6465-5.63,1.6533-.98,1.045.61-1.2588.7461L135,148.1841l1.19-.7061Z"/><path class="cls-6" d="M134.4573,144.9351l-.9306.5527-1.06-.6182,2.2666-1.3437,1.06.6181-.9356.5547,8.586,5.0117-.3985.2364Z"/><path class="cls-6" d="M135.4671,143.0913l4.0361,2.3555,1.4805-.8789-4.0361-2.3555.4-.2363,9.6465,5.63-.4.2373-4.5225-2.6407-1.48.8789,4.5225,2.6387-.3945.2344-9.6465-5.63Z"/><path class="cls-6" d="M140.2757,142.0249l-.01.0059.36.8134-1.0361-.5136-.4434-1.0176.3408-.2022,9.3027,5.43-.3857.2285Z"/></g><path class="cls-3" d="M301.7894,266.979H75.4232a3.578,3.578,0,0,1-3.5733-3.5732V76.7241a3.578,3.578,0,0,1,3.5733-3.5732H301.7894a3.578,3.578,0,0,1,3.5732,3.5732V263.4058A3.578,3.578,0,0,1,301.7894,266.979ZM75.4232,74.2231a2.504,2.504,0,0,0-2.501,2.501V263.4058a2.5039,2.5039,0,0,0,2.501,2.5009H301.7894a2.5039,2.5039,0,0,0,2.5009-2.5009V76.7241a2.5039,2.5039,0,0,0-2.5009-2.501Z"/></g></g></g></svg>