<svg xmlns="http://www.w3.org/2000/svg" xmlns:xlink="http://www.w3.org/1999/xlink" width="230.7054mm" height="108.8497mm" viewBox="0 0 653.9682 308.5504"><defs><style>.cls-1{fill:none;}.cls-2{clip-path:url(#clip-path);}.cls-3{fill:#808285;}.cls-4{fill:#f27994;}.cls-5{fill:#7e94cb;}.cls-6{fill:#f3797e;}.cls-7{fill:#f2a179;}.cls-8{fill:#ef4136;}.cls-9{fill:#00aeef;}.cls-10{fill:#fff;}</style><clipPath id="clip-path"><rect class="cls-1" x="116.0627" y="0.6768" width="537.2275" height="307.1959" rx="2.8068" ry="2.8068"/></clipPath></defs><title>13. switch ethernet</title><g id="Layer_2" data-name="Layer 2"><g id="_13._switch_ethernet" data-name="13. switch ethernet"><g id="Expanded"><rect class="cls-1" x="116.0627" y="0.6768" width="537.2275" height="307.1959" rx="2.8068" ry="2.8068"/><g class="cls-2"><path class="cls-3" d="M460.5894,206.961a.3017.3017,0,0,1-.1494-.04.2984.2984,0,0,1-.1495-.2593V195.9928a.2983.2983,0,0,1,.1495-.2593l3.4435-1.99V192.335a.2991.2991,0,0,1,.1428-.2553l1.2052-.7382v-1.3877a.2983.2983,0,0,1,.1495-.2593l2.8786-1.6616a.3015.3015,0,0,1,.299,0,.2984.2984,0,0,1,.1495.2593v1.13l.8678-.5464a.299.299,0,0,1,.459.2527v1.0649l4.2862-2.4751a.3015.3015,0,0,1,.299,0,.2983.2983,0,0,1,.15.2593l.0013,10.5951a.2985.2985,0,0,1-.1481.2592l-13.8825,8.09A.3069.3069,0,0,1,460.5894,206.961Zm.299-10.7949v9.9747l13.2846-7.74-.0013-9.9046-4.2862,2.4752a.3015.3015,0,0,1-.299,0,.2984.2984,0,0,1-.1495-.2593v-1.04l-.8678.5463a.2929.2929,0,0,1-.3043.0093.2977.2977,0,0,1-.1548-.2619v-1.1549l-2.2807,1.3163V191.51a.2991.2991,0,0,1-.1428.2553l-1.2052.7382v1.4142a.2986.2986,0,0,1-.1495.2593Z"/><path class="cls-3" d="M476.7,197.6186a.3017.3017,0,0,1-.1495-.04.2986.2986,0,0,1-.15-.2593V186.6492a.2983.2983,0,0,1,.15-.2593l3.4435-1.9883v-1.4089a.2992.2992,0,0,1,.1429-.2553l1.2052-.7382v-1.3877a.2981.2981,0,0,1,.15-.2593l2.8786-1.6616a.3015.3015,0,0,1,.299,0,.2982.2982,0,0,1,.1494.2593v1.13l.8679-.5463a.299.299,0,0,1,.459.2527v1.0649l4.2875-2.4751a.299.299,0,0,1,.4485.2592V189.23a.2987.2987,0,0,1-.1482.2593l-13.8825,8.09A.3065.3065,0,0,1,476.7,197.6186Zm.299-10.7961v9.9759l13.2845-7.74v-9.9046l-4.2875,2.4752a.3015.3015,0,0,1-.299,0,.2985.2985,0,0,1-.1494-.2593v-1.04l-.8679.5463a.299.299,0,0,1-.459-.2526v-1.1549l-2.2807,1.3163v1.3824a.2989.2989,0,0,1-.1429.2553l-1.2051.7382v1.4142a.2983.2983,0,0,1-.1495.2592Z"/><path class="cls-3" d="M492.9542,188.275a.2982.2982,0,0,1-.299-.299V177.3055a.2986.2986,0,0,1,.15-.2593l3.4448-1.9883V173.649a.2993.2993,0,0,1,.1429-.2553s.8586-.5265,1.2038-.7368v-1.3891a.2984.2984,0,0,1,.1495-.2593l2.8786-1.6629a.299.299,0,0,1,.4485.2593v1.1311l.8678-.5463a.2991.2991,0,0,1,.4591.2526v1.065l4.2875-2.4752a.3015.3015,0,0,1,.299,0,.2984.2984,0,0,1,.1495.2593v10.5951a.2987.2987,0,0,1-.1482.2593l-13.8825,8.0895A.3055.3055,0,0,1,492.9542,188.275Zm.2989-10.7962v9.976l13.2846-7.74V169.81l-4.2875,2.4751a.3015.3015,0,0,1-.299,0,.2983.2983,0,0,1-.1495-.2593v-1.04l-.8678.5464a.299.299,0,0,1-.459-.2527v-1.1562l-2.2807,1.3176v1.3428c.0423.1759-.0463.2368-1.3467,1.0331v1.4142a.2983.2983,0,0,1-.15.2593Z"/><path class="cls-3" d="M509.0658,178.9327a.2982.2982,0,0,1-.299-.299V167.9632a.2984.2984,0,0,1,.1495-.2593l3.4435-1.9883v-1.41a.2989.2989,0,0,1,.1429-.2553l1.2051-.7369v-1.3877a.2983.2983,0,0,1,.1495-.2593l2.8786-1.6629a.3015.3015,0,0,1,.299,0,.2984.2984,0,0,1,.1495.2593v1.1311l.8678-.5464a.293.293,0,0,1,.3043-.0092.2977.2977,0,0,1,.1548.2619v1.0649l4.2875-2.4751a.3015.3015,0,0,1,.299,0,.2982.2982,0,0,1,.1494.2593v10.5951a.2988.2988,0,0,1-.1481.2593l-13.8825,8.0895A.3055.3055,0,0,1,509.0658,178.9327Zm.2989-10.7962v9.976l13.2846-7.74v-9.9045l-4.2875,2.4751a.3015.3015,0,0,1-.299,0,.2983.2983,0,0,1-.1495-.2593v-1.04l-.8678.5464a.2992.2992,0,0,1-.4591-.2527v-1.1562l-2.2806,1.3176v1.3824a.3.3,0,0,1-.1429.2554l-1.2052.7368v1.4155a.2983.2983,0,0,1-.1495.2593Z"/><path class="cls-3" d="M527.41,168.3535a.3018.3018,0,0,1-.1495-.04.2983.2983,0,0,1-.1495-.2593V157.3853a.2984.2984,0,0,1,.1495-.2593l3.4435-1.99v-1.4089a.2992.2992,0,0,1,.1429-.2553l1.2052-.7382v-1.3877a.2982.2982,0,0,1,.1494-.2593l2.8787-1.6616a.3015.3015,0,0,1,.299,0,.2983.2983,0,0,1,.1494.2593v1.13l.8679-.5464a.2991.2991,0,0,1,.459.2527v1.0649l4.2875-2.4751a.3015.3015,0,0,1,.299,0,.2983.2983,0,0,1,.1495.2593V159.965a.2989.2989,0,0,1-.1482.2593l-13.8825,8.0895A.3066.3066,0,0,1,527.41,168.3535Zm.299-10.7949v9.9747l13.2845-7.74v-9.9046l-4.2875,2.4752a.3015.3015,0,0,1-.299,0,.2982.2982,0,0,1-.1494-.2593v-1.04l-.8679.5464a.2991.2991,0,0,1-.459-.2527v-1.1549L532.65,151.52v1.3824a.2989.2989,0,0,1-.1429.2553l-1.2051.7382V155.31a.2984.2984,0,0,1-.1495.2593Z"/><path class="cls-3" d="M543.5207,159.0112a.3018.3018,0,0,1-.1495-.04.2984.2984,0,0,1-.1495-.2593V148.0417a.2983.2983,0,0,1,.1495-.2593l3.4448-1.9883v-1.4089a.2992.2992,0,0,1,.1429-.2553l1.2038-.7382V142.004a.2983.2983,0,0,1,.1495-.2593l2.8786-1.6616a.3015.3015,0,0,1,.299,0,.2983.2983,0,0,1,.15.2593v1.13l.8678-.5464a.2929.2929,0,0,1,.3043-.0093.298.298,0,0,1,.1548.262v1.0649l4.2875-2.4751a.299.299,0,0,1,.4485.2593v10.5951a.2986.2986,0,0,1-.1482.2592l-13.8825,8.09A.3066.3066,0,0,1,543.5207,159.0112Zm.2989-10.7962v9.976l13.2846-7.74v-9.9046l-4.2875,2.4752a.3015.3015,0,0,1-.299,0,.2984.2984,0,0,1-.1495-.2593v-1.04l-.8678.5463a.2928.2928,0,0,1-.3043.0093.2979.2979,0,0,1-.1547-.2619V140.861l-2.2807,1.3163V143.56a.2992.2992,0,0,1-.1429.2553l-1.2038.7382v1.4142a.2986.2986,0,0,1-.1495.2593Z"/><path class="cls-3" d="M559.7765,149.6675a.2982.2982,0,0,1-.299-.299V138.698a.2983.2983,0,0,1,.1495-.2592l3.4435-1.9884v-1.4089a.2992.2992,0,0,1,.1428-.2553l1.2052-.7382V132.66a.2986.2986,0,0,1,.1495-.2593l2.8786-1.6628a.299.299,0,0,1,.4485.2592v1.1311l.8665-.5463a.2929.2929,0,0,1,.3043-.0093.3005.3005,0,0,1,.1547.2619V132.9l4.2876-2.4752a.299.299,0,0,1,.4484.2593V141.279a.2985.2985,0,0,1-.1482.2593l-13.8811,8.09A.3058.3058,0,0,1,559.7765,149.6675Zm.2989-10.7962v9.976l13.2833-7.74v-9.9045l-4.2876,2.4751a.299.299,0,0,1-.4484-.2593v-1.04l-.8665.5463a.2928.2928,0,0,1-.3043.0093.3007.3007,0,0,1-.1548-.262V131.516l-2.2806,1.3176v1.3825a.2993.2993,0,0,1-.1429.2553l-1.2052.7382v1.4141a.2983.2983,0,0,1-.1495.2593Z"/><path class="cls-3" d="M575.8867,140.3252a.2982.2982,0,0,1-.299-.299v-10.67a.2986.2986,0,0,1,.1495-.2593l3.4435-1.9883v-1.4089a.2993.2993,0,0,1,.1429-.2553l1.2052-.7382V123.318a.2984.2984,0,0,1,.1495-.2593l2.8786-1.6629a.299.299,0,0,1,.4485.2593v1.1311l.8678-.5463a.2927.2927,0,0,1,.3042-.0093.2977.2977,0,0,1,.1548.2619v1.065l4.2875-2.4752a.3015.3015,0,0,1,.299,0,.2983.2983,0,0,1,.15.2593v10.5951a.2987.2987,0,0,1-.1482.2593l-13.8825,8.09A.3055.3055,0,0,1,575.8867,140.3252Zm.299-10.7962v9.976l13.2846-7.74V121.86l-4.2876,2.4751a.299.299,0,0,1-.4484-.2593v-1.04l-.8678.5464a.293.293,0,0,1-.3043.0093.298.298,0,0,1-.1548-.262v-1.1562l-2.2807,1.3176v1.3824a.2992.2992,0,0,1-.1428.2554l-1.2052.7381v1.4142a.2983.2983,0,0,1-.1495.2593Z"/><path class="cls-3" d="M460.23,209.17a1.766,1.766,0,0,1-1.7608-1.7409l-.19-15.2054a3.2284,3.2284,0,0,1,1.5888-2.8191l62.929-36.9288a1.76,1.76,0,0,1,2.6511,1.5174v15.7293a3.23,3.23,0,0,1-1.6033,2.786l-62.7306,36.4221h0A1.758,1.758,0,0,1,460.23,209.17Zm63.4582-56.34a1.1591,1.1591,0,0,0-.5874.1614l-62.929,36.9287a2.6291,2.6291,0,0,0-1.2951,2.2952l.19,15.2054a1.1629,1.1629,0,0,0,1.7449.9909L523.5422,171.99a2.63,2.63,0,0,0,1.3071-2.2674V153.9934a1.1681,1.1681,0,0,0-1.1615-1.1628Z"/><path class="cls-3" d="M526.8111,170.2532a1.7586,1.7586,0,0,1-.8691-.2329,1.7385,1.7385,0,0,1-.89-1.5081l-.1918-15.2067a3.2228,3.2228,0,0,1,1.59-2.8178l62.548-36.7091a1.76,1.76,0,0,1,2.6511,1.5187v15.7292a3.23,3.23,0,0,1-1.6034,2.7861l-62.3509,36.2A1.7586,1.7586,0,0,1,526.8111,170.2532Zm63.0785-56.12a1.16,1.16,0,0,0-.5874.1614l-62.5493,36.7091a2.6256,2.6256,0,0,0-1.2951,2.294l.1918,15.2067a1.161,1.161,0,0,0,1.7436.9895h0l62.3509-36.2a2.63,2.63,0,0,0,1.307-2.2675V115.2973a1.1681,1.1681,0,0,0-1.1615-1.1642Z"/><path class="cls-3" d="M472.0034,199.2511a.2878.2878,0,0,1-.1495-.04l-2.6233-1.5147a.2993.2993,0,1,1,.299-.5186l2.6233,1.5147a.2991.2991,0,0,1-.1495.5583Z"/><path class="cls-3" d="M470.47,200.1269a.2878.2878,0,0,1-.1495-.04l-2.6233-1.5147a.2993.2993,0,0,1,.299-.5186l2.6233,1.5147a.2991.2991,0,0,1-.15.5583Z"/><path class="cls-3" d="M468.9369,201.0026a.2874.2874,0,0,1-.1494-.04l-2.6234-1.5147a.2993.2993,0,0,1,.299-.5186l2.6233,1.5148a.299.299,0,0,1-.15.5582Z"/><path class="cls-3" d="M467.4024,201.8784a.2878.2878,0,0,1-.1495-.04L464.63,200.324a.2993.2993,0,1,1,.299-.5186l2.6233,1.5147a.2991.2991,0,0,1-.1495.5583Z"/><path class="cls-3" d="M465.8691,202.7541a.2889.2889,0,0,1-.1495-.04L463.0963,201.2a.2993.2993,0,1,1,.299-.5185l2.6233,1.5147a.299.299,0,0,1-.1495.5582Z"/><path class="cls-3" d="M464.3359,203.63a.2878.2878,0,0,1-.1495-.04l-2.6233-1.5147a.2993.2993,0,1,1,.299-.5186l2.6233,1.5147a.2991.2991,0,0,1-.15.5583Z"/><path class="cls-3" d="M462.8013,204.5057a.2878.2878,0,0,1-.15-.04l-2.229-1.2885a.2993.2993,0,0,1,.2989-.5186l2.2291,1.2885a.2991.2991,0,0,1-.1495.5583Z"/><path class="cls-3" d="M488.2089,189.8109a.2878.2878,0,0,1-.15-.04l-2.6233-1.5147a.2993.2993,0,0,1,.299-.5186l2.6233,1.5147a.2991.2991,0,0,1-.1495.5583Z"/><path class="cls-3" d="M486.6744,190.6867a.2887.2887,0,0,1-.1495-.04l-2.6233-1.5148a.2993.2993,0,1,1,.299-.5185l2.6233,1.5147a.2991.2991,0,0,1-.1495.5583Z"/><path class="cls-3" d="M485.1411,191.5624a.2878.2878,0,0,1-.1495-.04l-2.6233-1.5147a.2993.2993,0,0,1,.299-.5186l2.6233,1.5148a.299.299,0,0,1-.1495.5582Z"/><path class="cls-3" d="M483.6066,192.4382a.2878.2878,0,0,1-.1495-.04l-2.6233-1.5147a.2993.2993,0,0,1,.2989-.5186l2.6234,1.5147a.2991.2991,0,0,1-.1495.5583Z"/><path class="cls-3" d="M482.0733,193.3139a.2878.2878,0,0,1-.1495-.04l-2.6233-1.5147a.2993.2993,0,1,1,.299-.5186l2.6233,1.5148a.299.299,0,0,1-.1495.5582Z"/><path class="cls-3" d="M480.54,194.19a.2878.2878,0,0,1-.1495-.04l-2.6233-1.5147a.2993.2993,0,1,1,.299-.5186l2.6233,1.5147a.2991.2991,0,0,1-.1495.5583Z"/><path class="cls-3" d="M479.0055,195.0655a.2887.2887,0,0,1-.1495-.04l-2.229-1.2885a.2993.2993,0,0,1,.2989-.5186l2.2291,1.2885a.2991.2991,0,0,1-.1495.5583Z"/><polygon class="cls-3" points="474.408 198.684 464.118 192.774 464.246 192.552 474.537 198.461 474.408 198.684"/><polygon class="cls-3" points="490.519 189.282 480.228 183.372 480.356 183.15 490.647 189.059 490.519 189.282"/><path class="cls-3" d="M520.5353,171.0958a.2886.2886,0,0,1-.1495-.04l-2.6233-1.5148a.2993.2993,0,1,1,.299-.5185l2.6233,1.5147a.299.299,0,0,1-.1495.5582Z"/><path class="cls-3" d="M519.0021,171.9716a.2878.2878,0,0,1-.1495-.04l-2.6233-1.5147a.2993.2993,0,0,1,.2989-.5186l2.6233,1.5147a.2991.2991,0,0,1-.1494.5583Z"/><path class="cls-3" d="M517.4688,172.8474a.2878.2878,0,0,1-.1495-.04l-2.6233-1.5147a.2993.2993,0,0,1,.299-.5186l2.6233,1.5147a.2991.2991,0,0,1-.1495.5583Z"/><path class="cls-3" d="M515.9343,173.7231a.2878.2878,0,0,1-.1495-.04l-2.6233-1.5147a.2993.2993,0,0,1,.2989-.5186l2.6233,1.5148a.299.299,0,0,1-.1494.5582Z"/><path class="cls-3" d="M514.401,174.5989a.2878.2878,0,0,1-.1495-.04l-2.6233-1.5147a.2993.2993,0,1,1,.299-.5186l2.6233,1.5147a.2991.2991,0,0,1-.15.5583Z"/><path class="cls-3" d="M512.8678,175.4746a.2886.2886,0,0,1-.1495-.04L510.095,173.92a.2993.2993,0,1,1,.299-.5185l2.6233,1.5147a.299.299,0,0,1-.1495.5582Z"/><path class="cls-3" d="M511.3332,176.35a.2878.2878,0,0,1-.1495-.04l-2.2291-1.2885a.2993.2993,0,0,1,.299-.5186l2.2291,1.2885a.2991.2991,0,0,1-.15.5583Z"/><polygon class="cls-3" points="522.845 170.567 512.556 164.656 512.685 164.434 522.975 170.344 522.845 170.567"/><path class="cls-3" d="M447.2044,230.3392a.5183.5183,0,0,1-.516-.5159V183.5165a.5157.5157,0,0,1,.258-.4458L607.3585,90.4559a.516.516,0,0,1,.7739.4458v46.3068a.5157.5157,0,0,1-.258.4458L447.4623,230.2691A.5144.5144,0,0,1,447.2044,230.3392Zm.5159-46.525V228.93l159.38-92.0195V91.7947Z"/><path class="cls-3" d="M447.2044,230.3392a.5145.5145,0,0,1-.258-.07l-120.31-69.4614a.5158.5158,0,0,1-.2579-.4459V114.0551a.5159.5159,0,0,1,.7739-.4458l120.31,69.4614a.5157.5157,0,0,1,.258.4458v46.3068a.5183.5183,0,0,1-.5159.5159Zm-119.7939-70.275L446.6884,228.93V183.8142L327.4105,114.948Z"/><path class="cls-3" d="M447.2044,184.0325a.5145.5145,0,0,1-.258-.07l-120.31-69.4615a.5142.5142,0,0,1,0-.8916L487.05,20.9944a.5138.5138,0,0,1,.5159,0L607.8744,90.4559a.5142.5142,0,0,1,0,.8916L447.4623,183.9624A.5144.5144,0,0,1,447.2044,184.0325ZM327.9251,114.0551l119.2793,68.8661L606.5859,90.9017,487.308,22.0355Z"/><polygon class="cls-3" points="406.598 206.662 406.586 159.651 406.845 159.502 567.257 67.3 567.771 68.194 407.618 160.247 407.63 206.662 406.598 206.662"/><path class="cls-3" d="M420.2754,153.5608a1.0305,1.0305,0,0,1-.5225-1.9195l12.9644-7.604a1.03,1.03,0,1,1,1.0424,1.7779l-12.9644,7.6041A1.02,1.02,0,0,1,420.2754,153.5608Z"/><path class="cls-3" d="M540.7809,84.2131a1.0308,1.0308,0,0,1-.5172-1.9235l13.3679-7.7178a1.0313,1.0313,0,0,1,1.0319,1.7859l-13.3679,7.7178A1.0251,1.0251,0,0,1,540.7809,84.2131Z"/><path class="cls-3" d="M500.6773,107.1945a1.03,1.03,0,0,1-.508-1.9274l13.3679-7.5459a1.03,1.03,0,1,1,1.0133,1.7939l-13.3679,7.5458A1.0179,1.0179,0,0,1,500.6773,107.1945Z"/><path class="cls-3" d="M460.3354,130.3823a1.0306,1.0306,0,0,1-.5384-1.91l12.4207-7.5789a1.0307,1.0307,0,1,1,1.0742,1.76l-12.4207,7.5789A1.0318,1.0318,0,0,1,460.3354,130.3823Z"/><path class="cls-3" d="M407.0491,192.294h-.0159a1.03,1.03,0,0,1-1.0147-1.0464l.2461-15.3549a1.0307,1.0307,0,0,1,2.0611.0317l-.2461,15.3549A1.0311,1.0311,0,0,1,407.0491,192.294Z"/><g id="USB_up" data-name="USB up"><polygon class="cls-4" points="576.415 129.649 582.571 133.187 582.571 145.115 576.415 141.547 576.415 129.649"/><path class="cls-3" d="M582.5713,145.3522a.24.24,0,0,1-.119-.0317l-6.1568-3.5679a.237.237,0,0,1-.1177-.205V129.6494a.2369.2369,0,0,1,.1177-.205.2434.2434,0,0,1,.2368-.0014l6.1568,3.5375a.2376.2376,0,0,1,.119.2063v11.9286a.2372.2372,0,0,1-.1177.2051A.24.24,0,0,1,582.5713,145.3522Zm-5.92-3.9409,5.6831,3.2927v-11.38l-5.6831-3.2649Z"/><path class="cls-4" d="M601.0387,129.3229c-1.3912-4.5264-9.2339-18.5025-9.2339-5.0671C596.6253,126.9456,601.0387,129.3229,601.0387,129.3229Z"/><path class="cls-3" d="M601.039,129.56a.2436.2436,0,0,1-.1124-.0278c-.0437-.0238-4.47-2.409-9.2365-5.0681a.238.238,0,0,1-.1217-.2077c0-3.79.6111-5.7241,1.87-5.9133a1.3181,1.3181,0,0,1,.1919-.0146c2.7159,0,6.7983,8.2047,7.6344,10.9245a.2354.2354,0,0,1-.2262.307Zm-8.9957-5.4425c3.7583,2.0955,7.2826,4.01,8.5816,4.7122-1.3242-3.7292-5.1553-10.3292-7.1158-10.017C592.968,118.8942,592.0618,119.6946,592.0433,124.117Z"/><polygon class="cls-4" points="579.944 127.597 579.944 125.965 581.354 125.16 581.309 123.66 590.217 124.209 592.244 123.041 583.481 122.383 583.531 123.797 584.854 123.022 584.918 124.703 588.727 122.487 594.883 126.025 582.571 133.187 576.415 129.649 579.944 127.597"/><path class="cls-3" d="M582.5713,133.4236a.2308.2308,0,0,1-.1177-.0317l-6.1568-3.5374a.2368.2368,0,0,1-.0013-.41l3.4118-1.9844v-1.4949a.2376.2376,0,0,1,.119-.2063l1.2872-.7329-.041-1.3586a.2353.2353,0,0,1,.0714-.1773.2984.2984,0,0,1,.18-.0662l1.9619.12-.041-1.1535a.2381.2381,0,0,1,.254-.2448l4.732.3559.377-.22a.2368.2368,0,0,1,.2368,0l.5318.3056,2.8853.2156a.2393.2393,0,0,1,.2143.1839.2364.2364,0,0,1-.1138.258l-.9181.53L595,125.82a.2368.2368,0,0,1,.0013.41L582.69,133.3919A.2393.2393,0,0,1,582.5713,133.4236Zm-5.6831-3.7755,5.6818,3.2649,11.8386-6.887-3.4395-1.9764-.6337.3638a.2639.2639,0,0,1-.1323.0317l-3.9528-.2434-1.2131.7064a.2323.2323,0,0,1-.2328.0027.2353.2353,0,0,1-.123-.1984l-.0239-.6086-3.1035-.1905.0371,1.2409a.2389.2389,0,0,1-.1191.213l-1.2911.7355v1.4936a.2371.2371,0,0,1-.1178.205Zm3.0559-2.0518h0Zm5.19-3.4634.0066.1667.258-.15Zm1.856-.3611,3.171.1958.3321-.1919-1.2594-.7236-.8917-.0675Zm-1.8745-.1151,1.0212.0635,1.3706-.7977-3.78-.2831.0265.7514.9789-.5742a.2417.2417,0,0,1,.2342-.0026.2353.2353,0,0,1,.123.1984Zm-.7938-.049.3175.02-.0079-.2011Zm6.0073-.4736.639.3678.4921-.2831Z"/><polygon class="cls-4" points="591.918 124.322 581.309 123.66 583.481 122.383 593.945 123.154 591.918 124.322"/><path class="cls-3" d="M591.9176,124.5589h-.0145l-10.6084-.6615a.2378.2378,0,0,1-.1058-.4418l2.1722-1.2779a.2442.2442,0,0,1,.1376-.0318l10.4641.7713a.2372.2372,0,0,1,.1019.4418l-2.028,1.1681A.24.24,0,0,1,591.9176,124.5589Zm-9.82-1.0874,9.763.61,1.2965-.7474-9.6188-.7091Z"/><polygon class="cls-4" points="594.883 126.025 601.039 129.323 588.727 136.485 582.571 133.187 594.883 126.025"/><path class="cls-3" d="M588.7268,136.7216a.2431.2431,0,0,1-.1125-.0278l-6.1554-3.2979a.2376.2376,0,0,1-.0066-.4141l12.3109-7.1622a.24.24,0,0,1,.2315-.004l6.1568,3.298a.2377.2377,0,0,1,.0066.4141L588.8458,136.69A.24.24,0,0,1,588.7268,136.7216Zm-5.6686-3.5427,5.6633,3.0347,11.8307-6.883-5.6647-3.0347Z"/><polygon class="cls-4" points="582.571 133.187 588.727 136.485 588.727 148.386 582.571 145.115 582.571 133.187"/><path class="cls-3" d="M588.7268,148.6224a.2335.2335,0,0,1-.1111-.0278l-6.1555-3.27a.2356.2356,0,0,1-.1257-.209V133.1868a.2371.2371,0,0,1,.1151-.2037.2318.2318,0,0,1,.2342-.0053l6.1554,3.298a.2367.2367,0,0,1,.1244.209v11.9008a.2388.2388,0,0,1-.1151.2038A.2349.2349,0,0,1,588.7268,148.6224Zm-5.9187-3.65,5.6819,3.0188v-11.365l-5.6819-3.0427Z"/><polygon class="cls-4" points="601.039 129.323 588.727 136.485 603.326 143.993 611.013 139.732 601.039 129.323"/><path class="cls-3" d="M603.3263,144.2291a.2417.2417,0,0,1-.1085-.0252l-14.6-7.5074a.238.238,0,0,1-.0106-.4167l12.3122-7.1622a.2372.2372,0,0,1,.2911.041l9.9746,10.4086a.2387.2387,0,0,1-.0568.3717L603.4414,144.2A.2366.2366,0,0,1,603.3263,144.2291ZM589.22,136.4716l14.1021,7.2521,7.3064-4.0507-9.632-10.0514Z"/><polygon class="cls-4" points="588.727 136.485 588.727 148.386 603.44 152.757 603.326 143.993 588.727 136.485"/><path class="cls-3" d="M603.44,152.9933a.2379.2379,0,0,1-.0675-.0093l-14.7133-4.3708a.2383.2383,0,0,1-.1693-.2276V136.4848a.2336.2336,0,0,1,.1138-.2024.23.23,0,0,1,.2315-.0092l14.6,7.5074a.2365.2365,0,0,1,.1283.209l.1138,8.7642a.2362.2362,0,0,1-.2368.2395Zm-14.4765-4.7849,14.2344,4.2293-.1072-8.3-14.1272-7.264Z"/><path class="cls-4" d="M611.2807,147.7018v-7.505a.5381.5381,0,0,0-.8087-.4652l-6.68,3.8857a1.3455,1.3455,0,0,0-.6689,1.1629v7.4908a.5382.5382,0,0,0,.8081.4656l6.6784-3.8708A1.3453,1.3453,0,0,0,611.2807,147.7018Z"/><path class="cls-3" d="M603.6623,153.0475a.7819.7819,0,0,1-.3876-.1045.7668.7668,0,0,1-.3876-.672v-7.49a1.5844,1.5844,0,0,1,.7858-1.3678l6.6806-3.8867a.7748.7748,0,0,1,1.1642.6707v7.5048a1.5864,1.5864,0,0,1-.7885,1.3692l-6.678,3.8708A.7783.7783,0,0,1,603.6623,153.0475Zm7.08-13.1522a.3107.3107,0,0,0-.1508.041l-6.6807,3.8867a1.1131,1.1131,0,0,0-.55.9577v7.49a.2978.2978,0,0,0,.1508.2606.3013.3013,0,0,0,.3016,0l6.678-3.8708a1.1105,1.1105,0,0,0,.553-.9591v-7.5048a.303.303,0,0,0-.3016-.3016Z"/><path class="cls-4" d="M588.7269,136.4851c-1.3912-4.5264-9.2339-18.5025-9.2339-5.0671C584.3135,134.1078,588.7269,136.4851,588.7269,136.4851Z"/><path class="cls-3" d="M588.7268,136.7216a.2431.2431,0,0,1-.1125-.0278c-.0436-.0238-4.47-2.409-9.2364-5.068a.2379.2379,0,0,1-.1218-.2077c0-3.79.6112-5.7242,1.8706-5.9133a1.3178,1.3178,0,0,1,.1918-.0146c2.716,0,6.7984,8.2046,7.6345,10.9245a.2352.2352,0,0,1-.2262.3069Zm-8.9957-5.4424c3.7583,2.0955,7.2825,4.01,8.5816,4.7122-1.2964-3.6486-5.0138-10.0263-6.9875-10.0263a.8286.8286,0,0,0-.1284.0093C580.6558,126.0564,579.75,126.8568,579.7311,131.2792Z"/><path class="cls-3" d="M607.6019,149.6014a3.1074,3.1074,0,1,1,2.5929-3.0652A2.8626,2.8626,0,0,1,607.6019,149.6014Zm0-5.6607a2.6485,2.6485,0,1,0,2.1246,2.5955A2.3989,2.3989,0,0,0,607.6019,143.9407Z"/><path class="cls-4" d="M629.9156,156.54c-6.6615-4.0448-21.63-12.7238-21.63-12.7238l-1.8267,5.1936s14.968,8.679,21.6294,12.7238S636.577,160.5847,629.9156,156.54Z"/><path class="cls-3" d="M646.384,165.4471c-8.1993,0-14.2211-1.147-18.4121-3.507-3.2226-1.8151-21.4508-12.6165-21.6334-12.7263a.2367.2367,0,0,1,.2408-.4075c.1839.1085,18.4081,10.9086,21.6254,12.721,4.1182,2.3191,10.0647,3.4462,18.1793,3.4462a.2368.2368,0,1,1,0,.4736Z"/><path class="cls-3" d="M646.384,160.4756c-9.1835,0-13.4009-1.7938-16.5918-3.7332-3.4527-2.0981-21.4442-12.6152-21.6267-12.721a.2378.2378,0,0,1,.2407-.41c.1813.1058,18.1767,10.6255,21.6321,12.7263,3.6194,2.1986,7.7839,3.6644,16.3457,3.6644a.2368.2368,0,1,1,0,.4736Z"/><path class="cls-3" d="M591.0247,149.22a.4754.4754,0,0,1-.475-.4749V137.3937l5.2956-3.0586a.4747.4747,0,0,1,.4736.8229L591.5,137.9413v10.8042A.4754.4754,0,0,1,591.0247,149.22Z"/><path class="cls-3" d="M597.3111,150.9706a.4753.4753,0,0,1-.4749-.4749v-9.8411l3.966-2.3772a.4746.4746,0,1,1,.4868.8149l-3.503,2.0994v9.304A.4754.4754,0,0,1,597.3111,150.9706Z"/><path class="cls-3" d="M598.4276,133.8549a.4615.4615,0,0,1-.23-.8612l3.9065-2.2555a.4611.4611,0,1,1,.46.799l-3.9065,2.2555A.4557.4557,0,0,1,598.4276,133.8549Z"/><path class="cls-3" d="M594.3861,144.0426a.4754.4754,0,0,1-.4749-.475v-4.392l10.6943-5.8287a.4748.4748,0,1,1,.4551.8334l-10.2,5.5589v3.8284A.4754.4754,0,0,1,594.3861,144.0426Z"/><path class="cls-3" d="M594.3861,150.28a.4754.4754,0,0,1-.4749-.4749v-4.0745a.475.475,0,0,1,.95,0v4.0745A.4754.4754,0,0,1,594.3861,150.28Z"/><path class="cls-3" d="M600.4106,146.2055a.4754.4754,0,0,1-.4749-.4749v-3.2782a.4751.4751,0,0,1,.24-.4127l8.16-4.65a.4752.4752,0,1,1,.4709.8255l-7.92,4.5124v3.003A.4753.4753,0,0,1,600.4106,146.2055Z"/><path class="cls-3" d="M600.4186,152.0805a.4754.4754,0,0,1-.475-.4749v-3.601a.475.475,0,0,1,.95,0v3.601A.4754.4754,0,0,1,600.4186,152.0805Z"/><path class="cls-3" d="M603.1239,137.9876a.4748.4748,0,0,1-.2275-.8916l3.454-1.8838a.4748.4748,0,1,1,.4551.8334l-3.4541,1.8838A.4731.4731,0,0,1,603.1239,137.9876Z"/></g><g id="USB_up-2" data-name="USB up"><polygon class="cls-5" points="560.279 138.946 566.435 142.483 566.435 154.412 560.279 150.844 560.279 138.946"/><path class="cls-3" d="M566.4346,154.6482a.24.24,0,0,1-.1191-.0317l-6.1554-3.5679a.237.237,0,0,1-.1177-.205V138.9454a.237.237,0,0,1,.1177-.205.2431.2431,0,0,1,.2368-.0013l6.1554,3.5374a.2377.2377,0,0,1,.1191.2064v11.9285a.2358.2358,0,0,1-.2368.2368Zm-5.9186-3.9409L566.1978,154V142.62l-5.6818-3.2649Z"/><path class="cls-5" d="M584.9025,138.6192c-1.3912-4.5264-9.2339-18.5025-9.2339-5.0671C580.4891,136.2419,584.9025,138.6192,584.9025,138.6192Z"/><path class="cls-3" d="M584.9023,138.8555a.2443.2443,0,0,1-.1125-.0278c-.0436-.0238-4.47-2.409-9.2364-5.068a.238.238,0,0,1-.1218-.2077c0-3.79.6112-5.7242,1.8706-5.9134a1.3177,1.3177,0,0,1,.1918-.0145c2.7173,0,6.8,8.2046,7.6345,10.9245a.2353.2353,0,0,1-.2262.3069Zm-8.9957-5.4424c3.7583,2.0954,7.2825,4.01,8.5816,4.7121-1.2951-3.6485-5.0111-10.0262-6.9875-10.0262a.7985.7985,0,0,0-.127.0092C576.8313,128.1889,575.9251,128.9906,575.9066,133.4131Z"/><polygon class="cls-5" points="563.807 136.893 563.807 135.261 565.218 134.457 565.172 132.957 574.081 133.505 576.108 132.337 567.345 131.68 567.395 133.093 568.717 132.318 568.781 133.999 572.591 131.783 578.747 135.321 566.435 142.483 560.279 138.946 563.807 136.893"/><path class="cls-3" d="M566.4346,142.72a.2309.2309,0,0,1-.1177-.0318l-6.1555-3.5374a.2357.2357,0,0,1-.119-.2051.2386.2386,0,0,1,.1177-.205l3.41-1.9844v-1.4949a.2377.2377,0,0,1,.1191-.2063l1.2872-.7329-.041-1.3586a.2353.2353,0,0,1,.0714-.1773.2763.2763,0,0,1,.18-.0661l1.9619.12-.041-1.1522a.2326.2326,0,0,1,.0727-.1786.2733.2733,0,0,1,.1813-.0661l4.7306.3558.3784-.2209a.2368.2368,0,0,1,.2368,0l.5344.3069,2.8826.2156a.24.24,0,0,1,.2144.1839.2365.2365,0,0,1-.1138.258l-.9168.5292,3.556,2.0438a.2368.2368,0,0,1,.0013.41l-12.3122,7.1622A.24.24,0,0,1,566.4346,142.72Zm-5.6818-3.7756,5.6805,3.2649,11.84-6.887-3.4408-1.9764-.6337.3638a.2607.2607,0,0,1-.1323.0317l-3.9528-.2434-1.2131.7065a.2374.2374,0,0,1-.3559-.1958l-.0225-.6086-3.1048-.19.037,1.2409a.2386.2386,0,0,1-.119.213l-1.2912.7355v1.4936a.237.237,0,0,1-.1177.205Zm3.0545-2.0518h0Zm5.19-3.4634.0066.1667.2579-.1495Zm1.856-.3611,3.171.1958.3334-.1918-1.2581-.7224-.8956-.0674Zm-1.8746-.1151,1.0213.0635,1.3692-.7964-3.7782-.2831.0265.7514.98-.5755a.2417.2417,0,0,1,.2342-.0026.2353.2353,0,0,1,.123.1984Zm-.7924-.049.3175.02-.0079-.2011Zm6.0086-.4722.6377.3664.4894-.2818Z"/><polygon class="cls-5" points="575.782 133.618 565.172 132.957 567.345 131.68 577.809 132.45 575.782 133.618"/><path class="cls-3" d="M575.7822,133.8549h-.0145l-10.61-.6614a.2378.2378,0,0,1-.1058-.4419l2.1722-1.2766a.2659.2659,0,0,1,.1376-.0317l10.4641.77a.2372.2372,0,0,1,.1019.4418l-2.0267,1.1682A.2407.2407,0,0,1,575.7822,133.8549Zm-9.82-1.0874,9.763.61,1.2965-.7474-9.62-.7077Z"/><polygon class="cls-5" points="578.747 135.321 584.902 138.619 572.591 145.781 566.435 142.483 578.747 135.321"/><path class="cls-3" d="M572.59,146.0176a.2439.2439,0,0,1-.1125-.0277l-6.1554-3.298a.2376.2376,0,0,1-.0067-.4141l12.3123-7.1622a.2435.2435,0,0,1,.2315-.0039l6.1554,3.2979a.2376.2376,0,0,1,.0066.4141l-12.3122,7.1622A.239.239,0,0,1,572.59,146.0176Zm-5.6687-3.5427,5.6634,3.0347,11.8307-6.883-5.6634-3.0347Z"/><polygon class="cls-5" points="566.435 142.483 572.591 145.781 572.591 157.682 566.435 154.412 566.435 142.483"/><path class="cls-3" d="M572.59,157.9184a.2349.2349,0,0,1-.1112-.0277l-6.1554-3.27a.2357.2357,0,0,1-.1257-.2091V142.4829a.2369.2369,0,0,1,.3493-.2091l6.1554,3.298a.2369.2369,0,0,1,.1244.209v11.9008a.2388.2388,0,0,1-.1151.2038A.234.234,0,0,1,572.59,157.9184Zm-5.9187-3.65,5.6819,3.0188v-11.365l-5.6819-3.0427Z"/><polygon class="cls-5" points="584.902 138.619 572.591 145.781 587.189 153.289 594.877 149.028 584.902 138.619"/><path class="cls-3" d="M587.19,153.5264a.2413.2413,0,0,1-.1085-.0251l-14.6-7.5088a.238.238,0,0,1-.0106-.4167l12.3122-7.1622a.2377.2377,0,0,1,.2911.041l9.9746,10.4086a.2386.2386,0,0,1-.0569.3717l-7.6873,4.2624A.2358.2358,0,0,1,587.19,153.5264Zm-14.1061-7.7588,14.1021,7.2535,7.3064-4.0521L584.86,138.9176Z"/><polygon class="cls-5" points="572.591 145.781 572.591 157.682 587.304 162.053 587.189 153.289 572.591 145.781"/><path class="cls-3" d="M587.3033,162.2906a.2376.2376,0,0,1-.0674-.0092l-14.7133-4.3722a.238.238,0,0,1-.1693-.2276V145.7808a.2377.2377,0,0,1,.3452-.2116l14.6,7.5088a.2364.2364,0,0,1,.1283.209l.1137,8.7642a.2361.2361,0,0,1-.2368.2394Zm-14.4764-4.7862,14.2344,4.2306-.1072-8.3L572.8269,146.17Z"/><path class="cls-5" d="M595.1445,156.9981v-7.505a.5381.5381,0,0,0-.8087-.4652l-6.68,3.8857a1.3455,1.3455,0,0,0-.6689,1.163v7.4907a.5382.5382,0,0,0,.808.4656l6.6785-3.8708A1.3455,1.3455,0,0,0,595.1445,156.9981Z"/><path class="cls-3" d="M587.5256,162.3435a.7767.7767,0,0,1-.7752-.7765v-7.49a1.5872,1.5872,0,0,1,.7871-1.3678l6.6793-3.8867a.7748.7748,0,0,1,1.1642.6707v7.5048a1.5866,1.5866,0,0,1-.7885,1.3692l-6.678,3.8708A.7652.7652,0,0,1,587.5256,162.3435Zm7.08-13.1522a.3113.3113,0,0,0-.1508.041l-6.6793,3.8867a1.1129,1.1129,0,0,0-.5516.9577v7.49a.2958.2958,0,0,0,.1508.2606.3.3,0,0,0,.3016,0l6.678-3.8708a1.1105,1.1105,0,0,0,.553-.9591v-7.5048a.303.303,0,0,0-.3017-.3016Z"/><path class="cls-5" d="M572.5907,145.7814c-1.3912-4.5264-9.2339-18.5024-9.2339-5.0671C568.1773,143.4041,572.5907,145.7814,572.5907,145.7814Z"/><path class="cls-3" d="M572.59,146.0176a.2439.2439,0,0,1-.1125-.0277c-.0436-.0239-4.47-2.409-9.2365-5.0681a.238.238,0,0,1-.1217-.2077c0-3.79.6112-5.7241,1.8706-5.9133,2.7133-.38,6.9717,8.1252,7.8263,10.91a.2352.2352,0,0,1-.2262.3069Zm-8.9958-5.4424c3.7584,2.0955,7.2826,4.01,8.5817,4.7122-1.3242-3.7306-5.203-10.316-7.1146-10.017C564.5191,135.3511,563.6129,136.1528,563.5943,140.5752Z"/><path class="cls-3" d="M591.4652,158.8974a3.1074,3.1074,0,1,1,2.5929-3.0638A2.8621,2.8621,0,0,1,591.4652,158.8974Zm0-5.6607a2.6485,2.6485,0,1,0,2.1246,2.5969A2.4,2.4,0,0,0,591.4652,153.2367Z"/><path class="cls-5" d="M611.9526,171.03c-6.673-4.0257-21.6294-12.7238-21.6294-12.7238l1.8267-5.1936s14.968,8.679,21.6294,12.7238c0,0,7.0419,4.7234,11.4748,6.3146a53.443,53.443,0,0,0,6.5425,2.19c1.887.4544,6.5168,6.8518-3.678,3.9869S613.5285,171.9805,611.9526,171.03Z"/><path class="cls-3" d="M646.384,180.7623c-18.8632,0-28.3061-5.7348-34.5541-9.53-6.5841-3.9978-21.476-12.6337-21.6254-12.721a.2371.2371,0,0,1,.2381-.41c.1495.086,15.0453,8.7258,21.6334,12.7263,6.203,3.7676,15.5784,9.4614,34.308,9.4614a.2368.2368,0,1,1,0,.4736Z"/><path class="cls-3" d="M646.384,176.3663a53.5993,53.5993,0,0,1-31.1543-9.341c-.5807-.37-1.1046-.7038-1.5729-.9856-6.5946-3.9793-21.4759-12.635-21.6254-12.7223a.2371.2371,0,0,1,.2381-.41c.1495.0873,15.0348,8.7444,21.6334,12.725.4709.2844.9974.62,1.5808.9921a53.1712,53.1712,0,0,0,30.9,9.2683.2368.2368,0,1,1,0,.4736Z"/><path class="cls-3" d="M574.8879,158.5177a.4754.4754,0,0,1-.4749-.4749V146.69l5.2969-3.0586a.4747.4747,0,0,1,.4736.8229l-4.8206,2.7834v10.8054A.4754.4754,0,0,1,574.8879,158.5177Z"/><path class="cls-3" d="M581.1744,160.2666a.4754.4754,0,0,1-.475-.4749v-9.8411l3.9674-2.3772a.4746.4746,0,1,1,.4868.8149l-3.5043,2.0994v9.304A.4754.4754,0,0,1,581.1744,160.2666Z"/><path class="cls-3" d="M582.2909,143.1509a.4615.4615,0,0,1-.23-.8612l3.9065-2.2555a.4611.4611,0,0,1,.46.799l-3.9065,2.2555A.456.456,0,0,1,582.2909,143.1509Z"/><path class="cls-3" d="M578.2494,153.3386a.4754.4754,0,0,1-.4749-.475v-4.3907l10.6943-5.83a.4748.4748,0,0,1,.4551.8335l-10.2,5.56v3.8271A.4753.4753,0,0,1,578.2494,153.3386Z"/><path class="cls-3" d="M578.2494,159.576a.4754.4754,0,0,1-.4749-.4749v-4.0745a.4749.4749,0,1,1,.95,0v4.0745A.4753.4753,0,0,1,578.2494,159.576Z"/><path class="cls-3" d="M584.2752,155.5015a.4754.4754,0,0,1-.4749-.4749V151.75a.4752.4752,0,0,1,.24-.4128l8.16-4.6513a.4752.4752,0,0,1,.4709.8255l-7.92,4.5137v3.0017A.4753.4753,0,0,1,584.2752,155.5015Z"/><path class="cls-3" d="M584.2818,161.3765a.4754.4754,0,0,1-.4749-.4749v-3.6a.475.475,0,0,1,.95,0v3.6A.4754.4754,0,0,1,584.2818,161.3765Z"/><path class="cls-3" d="M586.9872,147.2837a.4749.4749,0,0,1-.2276-.8917l3.4554-1.8838a.4748.4748,0,1,1,.4551.8334l-3.4554,1.8838A.4735.4735,0,0,1,586.9872,147.2837Z"/></g><g id="USB_up-3" data-name="USB up"><polygon class="cls-6" points="544.024 148.323 550.18 151.86 550.18 163.789 544.024 160.221 544.024 148.323"/><path class="cls-3" d="M550.18,164.0249a.239.239,0,0,1-.119-.0317l-6.1555-3.5679a.2371.2371,0,0,1-.1177-.205V148.3221a.2372.2372,0,0,1,.1177-.205.2431.2431,0,0,1,.2368-.0013l6.1555,3.5374a.2376.2376,0,0,1,.119.2064v11.9285a.2358.2358,0,0,1-.2368.2368Zm-5.9186-3.9409,5.6818,3.2927v-11.38l-5.6818-3.2649Z"/><path class="cls-6" d="M568.6481,147.9963c-1.3912-4.5264-9.2339-18.5025-9.2339-5.0671C564.2347,145.619,568.6481,147.9963,568.6481,147.9963Z"/><path class="cls-3" d="M568.6478,148.2335a.2439.2439,0,0,1-.1124-.0278c-.0437-.0238-4.47-2.409-9.2365-5.0693a.2381.2381,0,0,1-.1217-.2077c0-3.79.6112-5.7242,1.8706-5.9134,2.73-.3889,6.9716,8.1266,7.8262,10.9113a.2352.2352,0,0,1-.2262.3069Zm-8.9957-5.4437c3.7584,2.0968,7.2826,4.011,8.5817,4.7135-1.2938-3.6486-5.0112-10.0276-6.9876-10.0276a.7985.7985,0,0,0-.127.0092C560.5768,137.567,559.6706,138.3673,559.6521,142.79Z"/><polygon class="cls-6" points="547.553 146.27 547.553 144.638 548.964 143.834 548.918 142.334 557.827 142.882 559.854 141.714 551.091 141.057 551.141 142.47 552.463 141.695 552.527 143.376 556.336 141.16 562.492 144.698 550.18 151.86 544.024 148.323 547.553 146.27"/><path class="cls-3" d="M550.18,152.0964a.2309.2309,0,0,1-.1177-.0318l-6.1554-3.5374a.2368.2368,0,0,1-.0014-.41l3.41-1.983v-1.4962a.2376.2376,0,0,1,.119-.2064l1.2872-.7329-.041-1.3586a.2356.2356,0,0,1,.0714-.1773.27.27,0,0,1,.18-.0661l1.9618.1217-.041-1.1536a.2327.2327,0,0,1,.0728-.1786.2705.2705,0,0,1,.1812-.0661l4.732.3558.3784-.2209a.2368.2368,0,0,1,.2368,0l.5344.3069,2.8813.2157a.2393.2393,0,0,1,.2143.1838.2364.2364,0,0,1-.1138.258l-.9167.5292,3.5559,2.0438a.2367.2367,0,0,1,.0013.41l-12.3122,7.1622A.2392.2392,0,0,1,550.18,152.0964Zm-5.6818-3.7756,5.6805,3.2649,11.84-6.887-3.44-1.9764-.635.3651a.2956.2956,0,0,1-.1322.0318l-3.9515-.2434-1.2145.7064a.2373.2373,0,0,1-.3558-.1958l-.0225-.6085-1.1245-.07c-.0092-.0039-.0225,0-.0344-.0013l-1.946-.12.0371,1.2409a.2388.2388,0,0,1-.1191.213l-1.2911.7355V146.27a.2373.2373,0,0,1-.1178.2051Zm3.0546-2.05h0Zm5.19-3.4633.0066.1667.2593-.1509Zm1.856-.3612,3.171.1958.3347-.1931-1.2581-.7223-.8956-.0675Zm-1.8745-.1151,1.0226.0622,1.3692-.7964-3.7795-.2831.0264.7527.98-.5754a.2416.2416,0,0,1,.2341-.0027.2356.2356,0,0,1,.1231.1985Zm-.7911-.0489.3162.02-.008-.2011Zm6.0086-.4736.6376.3664.49-.2818Z"/><polygon class="cls-6" points="559.528 142.995 548.918 142.334 551.091 141.057 561.555 141.827 559.528 142.995"/><path class="cls-3" d="M559.5278,143.2316h-.0146l-10.61-.6614a.2378.2378,0,0,1-.1058-.4419l2.1722-1.2766a.3409.3409,0,0,1,.1376-.0317l10.4641.7712a.2372.2372,0,0,1,.1019.4419l-2.028,1.1668A.2318.2318,0,0,1,559.5278,143.2316Zm-9.82-1.0874,9.763.61,1.2951-.7461-9.6188-.709Z"/><polygon class="cls-6" points="562.492 144.698 568.648 147.996 556.336 155.159 550.18 151.86 562.492 144.698"/><path class="cls-3" d="M556.3369,155.3957a.2439.2439,0,0,1-.1124-.0278l-6.1568-3.2993a.2376.2376,0,0,1-.0066-.4141l12.3122-7.1622a.24.24,0,0,1,.2315-.0039l6.1555,3.2993a.2376.2376,0,0,1,.0066.414l-12.3109,7.1622A.24.24,0,0,1,556.3369,155.3957Zm-5.67-3.5441,5.6646,3.0361,11.8294-6.8831-5.6633-3.036Z"/><polygon class="cls-6" points="550.18 151.86 556.336 155.159 556.336 167.059 550.18 163.789 550.18 151.86"/><path class="cls-3" d="M556.3369,167.2965a.2349.2349,0,0,1-.1111-.0278l-6.1568-3.2715a.2356.2356,0,0,1-.1257-.2091V151.86a.2369.2369,0,0,1,.3493-.2091l6.1568,3.2994a.2368.2368,0,0,1,.1243.209V167.06a.2386.2386,0,0,1-.1151.2037A.2336.2336,0,0,1,556.3369,167.2965Zm-5.92-3.6512,5.6832,3.02V155.3l-5.6832-3.044Z"/><polygon class="cls-6" points="568.648 147.996 556.336 155.159 570.935 162.666 578.622 158.405 568.648 147.996"/><path class="cls-3" d="M570.9351,162.9031a.2416.2416,0,0,1-.1085-.0251l-14.5982-7.5075a.238.238,0,0,1-.01-.4167l12.3109-7.1622a.2411.2411,0,0,1,.291.0411l9.9747,10.4085a.2388.2388,0,0,1-.0569.3718l-7.6874,4.261A.2355.2355,0,0,1,570.9351,162.9031ZM556.83,155.1456l14.1007,7.2522,7.3064-4.0507-9.632-10.0514Z"/><polygon class="cls-6" points="556.336 155.159 556.336 167.059 571.049 171.43 570.935 162.666 556.336 155.159"/><path class="cls-3" d="M571.0489,171.6673a.2378.2378,0,0,1-.0675-.0092L556.27,167.2872a.2381.2381,0,0,1-.1694-.2275V155.1589a.2336.2336,0,0,1,.1138-.2024.23.23,0,0,1,.2315-.0093l14.5982,7.5075a.2364.2364,0,0,1,.1283.209l.1138,8.7642a.2361.2361,0,0,1-.2368.2394Zm-14.4752-4.7849,14.2331,4.2293-.1072-8.3-14.1259-7.264Z"/><path class="cls-6" d="M578.89,166.3752V158.87a.5381.5381,0,0,0-.8087-.4652l-6.68,3.8857a1.3455,1.3455,0,0,0-.6689,1.1629v7.4908a.5382.5382,0,0,0,.808.4656l6.6785-3.8708A1.3455,1.3455,0,0,0,578.89,166.3752Z"/><path class="cls-3" d="M571.2711,171.7216a.7772.7772,0,0,1-.3863-.1045.7682.7682,0,0,1-.3889-.6721v-7.4915a1.5874,1.5874,0,0,1,.7871-1.3679l6.6794-3.8854a.7743.7743,0,0,1,1.1641.6694v7.5061a1.581,1.581,0,0,1-.7884,1.3679l-6.678,3.8708A.7662.7662,0,0,1,571.2711,171.7216ZM578.35,158.568a.2907.2907,0,0,0-.1495.0423l-6.6793,3.8854a1.1131,1.1131,0,0,0-.5517.9578v7.4915a.2989.2989,0,0,0,.1508.2606.2943.2943,0,0,0,.3016-.0013l6.678-3.8708a1.1083,1.1083,0,0,0,.553-.9578V158.87a.2989.2989,0,0,0-.1508-.2606A.314.314,0,0,0,578.35,158.568Z"/><path class="cls-6" d="M556.3363,155.1585c-1.3912-4.5264-9.2339-18.5025-9.2339-5.0671C551.9229,152.7812,556.3363,155.1585,556.3363,155.1585Z"/><path class="cls-3" d="M556.3369,155.3957a.2439.2439,0,0,1-.1124-.0278c-.0437-.0238-4.4714-2.409-9.2378-5.0694a.238.238,0,0,1-.1217-.2077c0-3.79.6111-5.7241,1.87-5.9133,2.7305-.3889,6.9717,8.1266,7.8276,10.9113a.2352.2352,0,0,1-.2262.3069Zm-8.997-5.4438c3.7583,2.0968,7.2839,4.0111,8.583,4.7135-1.2952-3.6485-5.0138-10.0275-6.9889-10.0275a.7985.7985,0,0,0-.127.0092C548.2646,144.7291,547.3584,145.53,547.34,149.9519Z"/><path class="cls-3" d="M575.2107,168.2741a3.1064,3.1064,0,1,1,2.5942-3.0638A2.8621,2.8621,0,0,1,575.2107,168.2741Zm0-5.6594a2.6474,2.6474,0,1,0,2.1259,2.5956A2.399,2.399,0,0,0,575.2107,162.6147Z"/><path class="cls-6" d="M595.6982,180.4069c-6.7477-3.8993-21.6294-12.7238-21.6294-12.7238l1.8267-5.1936s14.968,8.679,21.63,12.7238c0,0,9.7686,5.893,13.2193,7.6445s12.801,6.6515,20.7646,7.9776c2.3234.4882,5.7663,6.393-1.6065,4.4923s-12.4609-3.1834-18.4549-6.24S599.4989,182.6032,595.6982,180.4069Z"/><path class="cls-3" d="M645.4223,197.1265c-21.771,0-36.7515-8.8224-46.7142-14.6894-1.1007-.6483-2.1431-1.2621-3.1274-1.8243-6.6912-3.8245-21.4839-12.6377-21.6333-12.7263a.2373.2373,0,1,1,.2434-.4075c.1481.0887,14.9381,8.8992,21.6254,12.721.9856.5636,2.0293,1.1787,3.1326,1.8283,9.9178,5.8406,24.8322,14.6233,46.4748,14.6233q.4782,0,.9578-.0053h.0026a.2368.2368,0,0,1,.0027.4736Q645.9025,197.1259,645.4223,197.1265Z"/><path class="cls-3" d="M646.384,192.761c-19.9784,0-34.69-8.8079-45.4323-15.24-1.2462-.7475-2.4275-1.4539-3.5454-2.1034-6.6634-3.8669-21.4825-12.6364-21.6307-12.725a.2367.2367,0,0,1,.2408-.4075c.1495.0873,14.9659,8.8555,21.628,12.7224,1.1192.6495,2.3032,1.3586,3.5507,2.106,10.6956,6.4028,25.3428,15.1737,45.1889,15.1737a.2368.2368,0,1,1,0,.4736Z"/><path class="cls-3" d="M558.6348,167.8944a.4754.4754,0,0,1-.4749-.4749V156.0664l5.2955-3.0572a.4747.4747,0,1,1,.4736.8228l-4.8193,2.7821V167.42A.4754.4754,0,0,1,558.6348,167.8944Z"/><path class="cls-3" d="M564.92,169.6433a.4754.4754,0,0,1-.4749-.4749v-9.84l3.9673-2.3786a.4746.4746,0,1,1,.4869.8149l-3.5044,2.1007v9.3027A.4754.4754,0,0,1,564.92,169.6433Z"/><path class="cls-3" d="M566.0364,152.5276a.4615.4615,0,0,1-.23-.8612l3.9066-2.2555a.4611.4611,0,1,1,.46.799l-3.9065,2.2556A.4566.4566,0,0,1,566.0364,152.5276Z"/><path class="cls-3" d="M561.995,162.7153a.4754.4754,0,0,1-.475-.4749V157.85l10.6944-5.83a.4748.4748,0,0,1,.455.8335l-10.1995,5.56V162.24A.4754.4754,0,0,1,561.995,162.7153Z"/><path class="cls-3" d="M561.995,168.9541a.4754.4754,0,0,1-.475-.475v-4.0758a.475.475,0,0,1,.95,0v4.0758A.4754.4754,0,0,1,561.995,168.9541Z"/><path class="cls-3" d="M568.0208,164.8782a.4754.4754,0,0,1-.475-.4749v-3.2768a.4752.4752,0,0,1,.24-.4128l8.16-4.6513a.4752.4752,0,1,1,.471.8255l-7.92,4.5137v3.0017A.4754.4754,0,0,1,568.0208,164.8782Z"/><path class="cls-3" d="M568.0274,170.7532a.4753.4753,0,0,1-.4749-.4749v-3.6a.4749.4749,0,0,1,.95,0v3.6A.4754.4754,0,0,1,568.0274,170.7532Z"/><path class="cls-3" d="M570.7327,156.66a.4749.4749,0,0,1-.2275-.8917l3.4554-1.8838a.4748.4748,0,0,1,.4551.8334l-3.4555,1.8839A.4743.4743,0,0,1,570.7327,156.66Z"/></g><g id="USB_up-4" data-name="USB up"><polygon class="cls-7" points="527.815 157.623 533.97 161.16 533.97 173.089 527.815 169.521 527.815 157.623"/><path class="cls-3" d="M533.9707,173.3249a.24.24,0,0,1-.1191-.0317l-6.1554-3.5679a.2371.2371,0,0,1-.1178-.205V157.6221a.237.237,0,0,1,.1178-.205.2434.2434,0,0,1,.2368-.0014l6.1554,3.5375a.2377.2377,0,0,1,.1191.2063v11.9286a.2373.2373,0,0,1-.1178.2051A.24.24,0,0,1,533.9707,173.3249Zm-5.9187-3.9409,5.6819,3.2927v-11.38l-5.6819-3.2649Z"/><path class="cls-7" d="M552.4382,157.2962c-1.3912-4.5264-9.2338-18.5025-9.2338-5.0671C548.0249,154.9189,552.4382,157.2962,552.4382,157.2962Z"/><path class="cls-3" d="M552.4383,157.5335a.2439.2439,0,0,1-.1124-.0278c-.0437-.0238-4.47-2.409-9.2365-5.0694a.238.238,0,0,1-.1217-.2076c0-3.79.6112-5.7242,1.8706-5.9134a1.317,1.317,0,0,1,.1918-.0132c2.7159,0,6.7984,8.2046,7.6345,10.9245a.2353.2353,0,0,1-.2263.3069Zm-8.9957-5.4438c3.7584,2.0968,7.2826,4.0111,8.5817,4.7135-1.3243-3.7305-5.1567-10.304-7.1159-10.0183C544.3673,146.8669,543.4611,147.6673,543.4426,152.09Z"/><polygon class="cls-7" points="531.343 155.57 531.343 153.938 532.754 153.134 532.708 151.634 541.617 152.182 543.644 151.014 534.881 150.357 534.931 151.77 536.253 150.995 536.317 152.676 540.126 150.46 546.282 153.998 533.97 161.16 527.815 157.623 531.343 155.57"/><path class="cls-3" d="M533.9707,161.3963a.2311.2311,0,0,1-.1178-.0317l-6.1554-3.5374a.2367.2367,0,0,1-.0013-.41l3.41-1.9831v-1.4962a.2378.2378,0,0,1,.119-.2063l1.2872-.7329-.041-1.3586a.2354.2354,0,0,1,.0715-.1773.2465.2465,0,0,1,.18-.0662l1.9618.1218-.041-1.1536a.2327.2327,0,0,1,.0728-.1786.25.25,0,0,1,.1812-.0661l4.7307.3558.3784-.2209a.2368.2368,0,0,1,.2368,0l.5344.3069,2.8826.2156a.24.24,0,0,1,.2143.1839.2364.2364,0,0,1-.1138.258l-.9167.5291,3.5559,2.0439a.2367.2367,0,0,1,.0013.41L534.09,161.3646A.239.239,0,0,1,533.9707,161.3963Zm-5.6819-3.7755,5.68,3.2649,11.84-6.887-3.44-1.9764-.6349.3651a.2221.2221,0,0,1-.1323.0318l-3.9529-.2435-1.2131.7051a.2322.2322,0,0,1-.2328.0027.2355.2355,0,0,1-.123-.1984l-.0238-.6073-1.1232-.07c-.0158-.0053-.0225,0-.0344-.0013l-1.9459-.12.037,1.2409a.2389.2389,0,0,1-.1191.213l-1.2911.7355V155.57a.237.237,0,0,1-.1178.205Zm3.0546-2.05h0Zm5.19-3.4634.0066.1654.2567-.1495Zm1.8547-.3611,3.1723.1958.3334-.1932-1.2581-.7223-.8956-.0674Zm-1.8732-.1151,1.02.0622,1.37-.7964-3.7782-.2831.0264.7514.979-.5741a.2416.2416,0,0,1,.2341-.0027.2356.2356,0,0,1,.1231.1985Zm-.7924-.0489.3162.02-.008-.2011Zm6.0086-.4736.6389.3664.49-.2818Z"/><polygon class="cls-7" points="543.318 152.295 532.708 151.634 534.881 150.357 545.345 151.127 543.318 152.295"/><path class="cls-3" d="M543.3183,152.5316h-.0146l-10.61-.6615a.2378.2378,0,0,1-.1059-.4418l2.1722-1.2766a.2812.2812,0,0,1,.1376-.0317l10.4641.77a.2371.2371,0,0,1,.1019.4418L543.4373,152.5A.2391.2391,0,0,1,543.3183,152.5316Zm-9.82-1.0874,9.763.61,1.2964-.7474-9.62-.7078Z"/><polygon class="cls-7" points="546.282 153.998 552.438 157.296 540.126 164.458 533.97 161.16 546.282 153.998"/><path class="cls-3" d="M540.1261,164.6957a.2436.2436,0,0,1-.1124-.0278l-6.1555-3.2993a.2377.2377,0,0,1-.0066-.4141l12.3122-7.1622a.24.24,0,0,1,.2315-.0039l6.1555,3.2993a.2376.2376,0,0,1,.0066.414l-12.3122,7.1622A.24.24,0,0,1,540.1261,164.6957Zm-5.6686-3.5441,5.6633,3.0361,11.8307-6.8831-5.6633-3.036Z"/><polygon class="cls-7" points="533.97 161.16 540.126 164.458 540.126 176.359 533.97 173.089 533.97 161.16"/><path class="cls-3" d="M540.1261,176.5965a.2347.2347,0,0,1-.1111-.0278l-6.1555-3.2716a.2355.2355,0,0,1-.1256-.209V161.16a.237.237,0,0,1,.1151-.2037.2316.2316,0,0,1,.2341-.0053l6.1555,3.2993a.2368.2368,0,0,1,.1243.2091V176.36a.2386.2386,0,0,1-.1151.2037A.2338.2338,0,0,1,540.1261,176.5965Zm-5.9186-3.6512,5.6818,3.02V164.6l-5.6818-3.044Z"/><polygon class="cls-7" points="552.438 157.296 540.126 164.458 554.725 171.966 562.413 167.705 552.438 157.296"/><path class="cls-3" d="M554.7256,172.2031a.2416.2416,0,0,1-.1085-.0251l-14.6-7.5075a.238.238,0,0,1-.01-.4167l12.3122-7.1622a.2394.2394,0,0,1,.291.041l9.9747,10.4086a.2387.2387,0,0,1-.0569.3717l-7.6874,4.2611A.2366.2366,0,0,1,554.7256,172.2031Zm-14.106-7.7575,14.1021,7.2522,7.3063-4.0508-9.632-10.0513Z"/><polygon class="cls-7" points="540.126 164.458 540.126 176.359 554.839 180.73 554.725 171.966 540.126 164.458"/><path class="cls-3" d="M554.8394,180.9673a.2378.2378,0,0,1-.0675-.0092l-14.7133-4.3709a.2381.2381,0,0,1-.1693-.2275V164.4589a.2334.2334,0,0,1,.1138-.2024.23.23,0,0,1,.2315-.0093l14.6,7.5074a.2365.2365,0,0,1,.1283.2091l.1138,8.7642a.2361.2361,0,0,1-.2368.2394Zm-14.4765-4.7849,14.2344,4.2293-.1071-8.3-14.1273-7.264Z"/><path class="cls-7" d="M562.68,175.6751V168.17a.5382.5382,0,0,0-.8088-.4652l-6.68,3.8857a1.3454,1.3454,0,0,0-.6688,1.163v7.4907a.5381.5381,0,0,0,.808.4656l6.6784-3.8708A1.3453,1.3453,0,0,0,562.68,175.6751Z"/><path class="cls-3" d="M555.06,181.0216a.7846.7846,0,0,1-.3863-.1046.7673.7673,0,0,1-.3876-.6733v-7.49a1.5844,1.5844,0,0,1,.7858-1.3678l6.6807-3.8854a.7743.7743,0,0,1,1.1641.6694v7.5061a1.5811,1.5811,0,0,1-.7884,1.3679l-6.678,3.8708A.7718.7718,0,0,1,555.06,181.0216Zm7.08-13.1536a.29.29,0,0,0-.1495.0423l-6.6807,3.8854a1.1131,1.1131,0,0,0-.55.9577v7.49a.2985.2985,0,0,0,.1508.2619.2914.2914,0,0,0,.3017-.0013l6.6779-3.8708a1.1082,1.1082,0,0,0,.553-.9578V168.17a.2989.2989,0,0,0-.1508-.2606A.314.314,0,0,0,562.1405,167.868Z"/><path class="cls-7" d="M540.1264,164.4585c-1.3912-4.5265-9.2339-18.5025-9.2339-5.0672C535.713,162.0811,540.1264,164.4585,540.1264,164.4585Z"/><path class="cls-3" d="M540.1261,164.6957a.2436.2436,0,0,1-.1124-.0278c-.0437-.0238-4.47-2.409-9.2365-5.0694a.238.238,0,0,1-.1217-.2077c0-3.79.6112-5.7242,1.8706-5.9133a1.3171,1.3171,0,0,1,.1918-.0133c2.7185,0,6.8,8.2047,7.6344,10.9245a.2376.2376,0,0,1-.0754.254A.2352.2352,0,0,1,540.1261,164.6957Zm-8.9957-5.4438c3.7584,2.0968,7.2826,4.0111,8.5816,4.7135-1.2938-3.6485-5.0111-10.0276-6.9875-10.0276a.7984.7984,0,0,0-.127.0093C532.0551,154.0291,531.1489,154.83,531.13,159.2519Z"/><path class="cls-3" d="M559.0012,177.5741a3.1066,3.1066,0,1,1,2.5929-3.0639A2.8622,2.8622,0,0,1,559.0012,177.5741Zm0-5.6594a2.6477,2.6477,0,1,0,2.1246,2.5955A2.3989,2.3989,0,0,0,559.0012,171.9147Z"/><path class="cls-7" d="M581.3151,184.5132c-6.6615-4.0448-21.6294-12.7238-21.6294-12.7238l-1.8268,5.1936s14.968,8.679,21.6294,12.7238"/><path class="cls-7" d="M581.315,184.5132c4.5443,2.8771,20.5268,12.3643,26.9711,15.1477a97.5941,97.5941,0,0,0,23.0718,6.7418c3.1549.3847,5.8677,4.9593-1.1237,4.4925s-19.384-4.0967-26.7944-7.7209-23.9514-13.4675-23.9514-13.4675"/><path class="cls-3" d="M646.5309,212.2645c-31.1993,0-49.7675-11.5516-63.3259-19.9864-1.3282-.8255-2.6048-1.6192-3.8391-2.3693-6.584-3.9952-21.4772-12.6337-21.6267-12.721a.2371.2371,0,1,1,.2381-.41c.1495.086,15.0467,8.7285,21.6347,12.7263,1.2356.75,2.5148,1.5451,3.843,2.3719,13.51,8.4044,32.0129,19.915,63.0759,19.915a.2368.2368,0,1,1,0,.4736Z"/><path class="cls-3" d="M646.5309,207.7812h0c-29.2864-.0635-49.4659-12.9525-61.5241-20.6531-1.3613-.87-2.6326-1.6828-3.8166-2.413-6.5523-4.0468-21.4733-12.6337-21.6228-12.721a.2353.2353,0,0,1-.0873-.3228.2329.2329,0,0,1,.3228-.0873c.1508.086,15.0784,8.6769,21.636,12.7263,1.1867.7329,2.4593,1.5464,3.8245,2.4169,12.0133,7.6742,32.12,20.5155,61.2675,20.58a.2368.2368,0,1,1,0,.4736Z"/><path class="cls-3" d="M542.424,177.1944a.4754.4754,0,0,1-.4749-.4749V165.3664l5.2955-3.0573a.4747.4747,0,1,1,.4736.8229l-4.8193,2.782V176.72A.4754.4754,0,0,1,542.424,177.1944Z"/><path class="cls-3" d="M548.71,178.9433a.4754.4754,0,0,1-.4749-.4749v-9.8411l3.9674-2.3772a.4746.4746,0,0,1,.4868.8149l-3.5044,2.0994v9.304A.4754.4754,0,0,1,548.71,178.9433Z"/><path class="cls-3" d="M549.8269,161.8276a.4615.4615,0,0,1-.23-.8612l3.9066-2.2555a.4611.4611,0,1,1,.46.799l-3.9065,2.2555A.4554.4554,0,0,1,549.8269,161.8276Z"/><path class="cls-3" d="M545.7855,172.0153a.4753.4753,0,0,1-.4749-.475V167.15l10.6943-5.83a.4748.4748,0,0,1,.455.8334l-10.1995,5.56V171.54A.4754.4754,0,0,1,545.7855,172.0153Z"/><path class="cls-3" d="M545.7855,178.2527a.4753.4753,0,0,1-.4749-.4749v-4.0745a.4749.4749,0,1,1,.95,0v4.0745A.4754.4754,0,0,1,545.7855,178.2527Z"/><path class="cls-3" d="M551.8113,174.1782a.4753.4753,0,0,1-.4749-.4749v-3.2768a.4751.4751,0,0,1,.2394-.4128l8.16-4.6513a.4752.4752,0,1,1,.471.8255l-7.92,4.5137v3.0017A.4754.4754,0,0,1,551.8113,174.1782Z"/><path class="cls-3" d="M551.8179,180.0532a.4754.4754,0,0,1-.4749-.4749v-3.6a.4749.4749,0,1,1,.95,0v3.6A.4754.4754,0,0,1,551.8179,180.0532Z"/><path class="cls-3" d="M554.5232,165.96a.4748.4748,0,0,1-.2275-.8916l3.4541-1.8838a.4748.4748,0,0,1,.4551.8334l-3.4541,1.8838A.4735.4735,0,0,1,554.5232,165.96Z"/></g><g id="La_Box_3_4" data-name="La Box 3/4"><path class="cls-3" d="M139.3366,192.02a.3625.3625,0,0,1-.1865-.05L26.615,126.997a.3726.3726,0,0,1,0-.6456L190.4574,31.7575a2.7948,2.7948,0,0,1,2.79,0L304.5733,96.0319a.3725.3725,0,0,1,0,.6456L139.5231,191.97A.3625.3625,0,0,1,139.3366,192.02ZM27.5477,126.6742l111.7889,64.5416L303.6407,96.3547,192.8743,32.4031a2.0533,2.0533,0,0,0-2.0438,0Z"/><path class="cls-3" d="M143.263,198.6479a.6043.6043,0,0,1-.5146-.2884l-3.9264-6.3962a.6038.6038,0,0,1,.213-.84l165.05-95.2924a.6085.6085,0,0,1,.8056.1905l4.142,6.2719a.6033.6033,0,0,1-.2024.8572L143.5646,198.5672A.6035.6035,0,0,1,143.263,198.6479Zm-3.0863-6.7878,3.294,5.3656,164.2-94.8016-3.4739-5.2611Z"/><path class="cls-3" d="M161.8431,274.442a.4931.4931,0,0,1-.2487-.0661l-60.0186-34.652a.4967.4967,0,0,1-.2487-.4313v-8.3753L49.8054,201.172v7.8011a.4967.4967,0,0,1-.2487.4313.5051.5051,0,0,1-.4974,0L.25,181.224a.4976.4976,0,0,1,.0874-.9023l18.465-6.3552v-42.96a.4967.4967,0,0,1,.2487-.4313l7.5021-4.3325a.5053.5053,0,0,1,.4975,0l112.535,64.9729a.5055.5055,0,0,1,.176.1707l3.9263,6.3962a.5021.5021,0,0,1,.0728.2606v47.6984L162.2585,273.67a.4976.4976,0,0,1-.4154.7725Zm-59.5212-35.4365L160.26,272.4564l-17.412-26.29a.4964.4964,0,0,1-.082-.2752V198.1835l-3.7875-6.1687L26.8015,127.2483l-7.0047,4.0455v43.0273a.4972.4972,0,0,1-.336.4709L1.6929,180.9078l47.1177,27.2028v-7.8012a.4965.4965,0,0,1,.2487-.4312.5046.5046,0,0,1,.4974,0l52.5165,30.3208a.4966.4966,0,0,1,.2487.4313Z"/><path class="cls-3" d="M161.8431,274.442a.4968.4968,0,0,1-.4154-.2222l-18.58-28.0534a.4995.4995,0,0,1,.1667-.7064l165.0171-95.4128V103.4891l-164.52,94.9855-.4974-.8626L308.28,102.1953a.5051.5051,0,0,1,.4974,0,.4965.4965,0,0,1,.2487.4312v47.5609l18.2864,28.1936a.4982.4982,0,0,1-.1693.7025L162.0918,274.3759A.4969.4969,0,0,1,161.8431,274.442Zm-17.8724-28.3841,18.0285,27.2213,164.193-94.7963-17.8235-27.4806Z"/><rect class="cls-3" x="-0.9429" y="175.1015" width="21.6836" height="0.5796" transform="translate(-85.9644 28.1829) rotate(-29.8422)"/><path class="cls-3" d="M197.0613,60.5769l-.2275-.5318c1.6113-.6932,2.536-1.6669,2.536-2.6736h.5794C199.9492,58.62,198.8962,59.7884,197.0613,60.5769Z"/><path class="cls-3" d="M191.8531,61.5452a13.5442,13.5442,0,0,1-5.2109-.97l.2275-.5319a13.93,13.93,0,0,0,9.9641.0014l.2275.5318A13.5356,13.5356,0,0,1,191.8531,61.5452Z"/><path class="cls-3" d="M186.6422,60.5756c-1.8349-.7872-2.8866-1.9553-2.8866-3.2041h.5794c0,1.0067.9234,1.98,2.5347,2.6722Z"/><path class="cls-3" d="M191.8531,51.9132c-3.4488,0-6.15-1.4076-6.15-3.2041s2.7014-3.2053,6.15-3.2053,6.1488,1.4089,6.1488,3.2053S195.3005,51.9132,191.8531,51.9132Zm0-5.83c-3.02,0-5.5708,1.2025-5.5708,2.6259s2.5506,2.6247,5.5708,2.6247,5.5694-1.2012,5.5694-2.6247S194.8719,46.0832,191.8531,46.0832Z"/><polygon class="cls-3" points="187.046 60.314 186.466 60.314 187.046 60.31 187.046 60.314"/><path class="cls-3" d="M184.335,57.3715h-.5794c0-2.7953,1.016-8.7814,2.4632-9.9561l.3652.45C185.4238,48.8057,184.335,54.4823,184.335,57.3715Z"/><path class="cls-1" d="M196.9476,60.3105v.0017"/><path class="cls-3" d="M199.9492,57.3715H199.37c0-3.4091-.9313-8.1544-2.1788-9.4005l.41-.41C199.133,49.0941,199.9492,54.2428,199.9492,57.3715Z"/><path class="cls-8" d="M191.8524,48.9986c.3221,0,.5832-.13.5832-.29s-.2611-.29-.5832-.29-.5831.13-.5831.29S191.53,48.9986,191.8524,48.9986Z"/><path class="cls-3" d="M191.8531,49.2886c-.5054,0-.8731-.2434-.8731-.58s.3677-.5807.8731-.5807.8718.2447.8718.5807S192.3584,49.2886,191.8531,49.2886Zm-.0463-.58h.0926A.5506.5506,0,0,0,191.8068,48.7091Z"/><path class="cls-3" d="M167.0513,78.35l-.2275-.5318c1.6126-.6932,2.5373-1.6682,2.5373-2.6736h.5795C169.9406,76.3921,168.8875,77.56,167.0513,78.35Z"/><path class="cls-3" d="M161.8431,79.3184a13.5283,13.5283,0,0,1-5.21-.97l.2276-.5318a13.9253,13.9253,0,0,0,9.9627.0013l.2275.5318A13.5352,13.5352,0,0,1,161.8431,79.3184Z"/><path class="cls-3" d="M156.6335,78.3487c-1.8348-.7884-2.8879-1.9552-2.8879-3.2041h.5795c0,1.0068.9247,1.98,2.536,2.6723Z"/><path class="cls-3" d="M161.8431,69.6864c-3.4475,0-6.1488-1.4089-6.1488-3.2054s2.7013-3.2041,6.1488-3.2041,6.1488,1.4076,6.1488,3.2041S165.2906,69.6864,161.8431,69.6864Zm0-5.83c-3.0189,0-5.5694,1.2012-5.5694,2.6247s2.55,2.6259,5.5694,2.6259,5.5694-1.2025,5.5694-2.6259S164.862,63.8563,161.8431,63.8563Z"/><polygon class="cls-3" points="157.037 78.087 156.458 78.087 157.037 78.083 157.037 78.087"/><path class="cls-3" d="M154.3251,75.1446h-.5795c0-2.7966,1.016-8.7827,2.4633-9.9561l.3651.45C155.4138,66.5775,154.3251,72.2541,154.3251,75.1446Z"/><path class="cls-1" d="M166.9382,78.0835v.0018"/><path class="cls-3" d="M169.9406,75.1446h-.5795c0-3.4091-.9313-8.1543-2.18-9.4l.41-.41C169.123,66.8659,169.9406,72.016,169.9406,75.1446Z"/><path class="cls-8" d="M161.843,66.7717c.3221,0,.5832-.13.5832-.29s-.2611-.29-.5832-.29-.5832.13-.5832.29S161.5209,66.7717,161.843,66.7717Z"/><path class="cls-3" d="M161.8431,67.0617c-.5054,0-.8731-.2447-.8731-.5807s.3677-.5795.8731-.5795.8731.2435.8731.5795S162.3484,67.0617,161.8431,67.0617Zm-.0463-.5807a.5506.5506,0,0,0,.0926,0Z"/><image width="1754" height="1240" transform="matrix(0.0504, -0.0288, 0.0562, 0.0328, 97.0078, 120.8955)" xlink:href="../Materials/wattsense-logo-print-page-001.jpg"/><path class="cls-3" d="M234.756,188.8849a1.6361,1.6361,0,0,1-1.63-1.6325V176.234a1.6335,1.6335,0,0,1,.8149-1.4116l17.14-9.8952a1.63,1.63,0,0,1,2.4447,1.4115v11.0184a1.6335,1.6335,0,0,1-.8149,1.4116l-17.1382,9.8952A1.6206,1.6206,0,0,1,234.756,188.8849Zm17.14-23.57a1.02,1.02,0,0,0-.5107.1389l-17.1394,9.8953a1.0259,1.0259,0,0,0-.5107.885v11.0184a1.022,1.022,0,0,0,1.5333.885l17.1381-9.8953a1.0259,1.0259,0,0,0,.5107-.885V166.3387a1.0263,1.0263,0,0,0-1.0213-1.0239Z"/><path class="cls-3" d="M248.71,176.1268a.6077.6077,0,0,1-.3042-.082l-3.3774-1.95a.6082.6082,0,0,1,.6086-1.0531l3.3773,1.95a.6084.6084,0,0,1-.3043,1.135Z"/><path class="cls-3" d="M240.9445,180.753a.6082.6082,0,0,1-.3042-.082l-3.5-2.0214a.6081.6081,0,1,1,.6085-1.053l3.5,2.0214a.6084.6084,0,0,1-.3043,1.135Z"/><path class="cls-3" d="M234.9769,187.16a.3028.3028,0,0,1-.3042-.3043V176.6864a.3041.3041,0,0,1,.1468-.2606l16.6315-10.017a.3048.3048,0,0,1,.4617.2606v10.1691a.3063.3063,0,0,1-.1918.2831.3017.3017,0,0,1-.3334-.0754l-.3082-.3267a14.5017,14.5017,0,0,1-2.8813,2.528,9.9836,9.9836,0,0,1-4.5323,1.2422,15.9921,15.9921,0,0,1-4.0414,3.9211,11.8743,11.8743,0,0,1-3.7412,1.3295l-.635,1.2528A.3059.3059,0,0,1,234.9769,187.16Zm.3043-10.3014v8.7245l.131-.258a.3022.3022,0,0,1,.2328-.164,11.2912,11.2912,0,0,0,3.68-1.2792,16.1721,16.1721,0,0,0,3.9356-3.8682.3072.3072,0,0,1,.2434-.127,9.7483,9.7483,0,0,0,4.3656-1.1522,14.3538,14.3538,0,0,0,2.962-2.6617.3106.3106,0,0,1,.2262-.1125.4462.4462,0,0,1,.2315.0966l.0146.0146v-8.8635Z"/><path class="cls-3" d="M260.5737,173.98a1.6361,1.6361,0,0,1-1.63-1.6312v-11.02a1.6327,1.6327,0,0,1,.8149-1.41l17.1382-9.8966a1.6311,1.6311,0,0,1,2.446,1.4115V162.452a1.6347,1.6347,0,0,1-.8162,1.4116l-17.1382,9.8952A1.62,1.62,0,0,1,260.5737,173.98Zm17.1382-23.57a1.0157,1.0157,0,0,0-.5107.1389l-17.1381,9.8966a1.0254,1.0254,0,0,0-.5107.8837v11.02a1.0213,1.0213,0,0,0,1.5319.8837l17.1382-9.8953a1.0244,1.0244,0,0,0,.512-.885V151.4336a1.0281,1.0281,0,0,0-1.0226-1.0239Z"/><path class="cls-3" d="M274.5276,161.223a.6077.6077,0,0,1-.3042-.082l-3.3787-1.95a.6081.6081,0,1,1,.6085-1.0531l3.3787,1.95a.6084.6084,0,0,1-.3043,1.135Z"/><path class="cls-3" d="M266.7609,165.8479a.6053.6053,0,0,1-.3043-.082l-3.499-2.0214a.6081.6081,0,1,1,.6085-1.053l3.4991,2.0214a.6084.6084,0,0,1-.3043,1.135Z"/><path class="cls-3" d="M260.7946,172.2547a.3028.3028,0,0,1-.3042-.3043V161.7813a.3041.3041,0,0,1,.1468-.2606l16.63-10.017a.3048.3048,0,0,1,.4617.2606v10.1691a.3064.3064,0,0,1-.1919.2831.2988.2988,0,0,1-.3347-.0754l-.3055-.3254a14.6274,14.6274,0,0,1-2.8813,2.5281,9.9869,9.9869,0,0,1-4.5336,1.2408,15.96,15.96,0,0,1-4.04,3.9211,11.8682,11.8682,0,0,1-3.7412,1.3309l-.635,1.2514A.3035.3035,0,0,1,260.7946,172.2547Zm.3043-10.3014v8.7258l.131-.2579a.3077.3077,0,0,1,.2328-.1641,11.3127,11.3127,0,0,0,3.68-1.2805,16.2113,16.2113,0,0,0,3.9343-3.8682.3068.3068,0,0,1,.2434-.127,9.7464,9.7464,0,0,0,4.3669-1.1509,14.3007,14.3007,0,0,0,2.962-2.663.3106.3106,0,0,1,.2262-.1125.5029.5029,0,0,1,.2328.0966l.0119.0132v-8.8621Z"/><path class="cls-3" d="M286.3782,159.0667a1.6359,1.6359,0,0,1-1.63-1.6311V146.4172a1.6334,1.6334,0,0,1,.8149-1.4116l17.1381-9.8966a1.6309,1.6309,0,0,1,2.4447,1.4115V147.539a1.6333,1.6333,0,0,1-.8149,1.4115l-17.1381,9.8953A1.62,1.62,0,0,1,286.3782,159.0667Zm17.1381-23.5688a1.0274,1.0274,0,0,0-.5106.1376l-17.1382,9.8966a1.0263,1.0263,0,0,0-.5106.8851v11.0184a1.0213,1.0213,0,0,0,1.5319.8837l17.1382-9.8953a1.0261,1.0261,0,0,0,.5106-.885V136.5205a1.0081,1.0081,0,0,0-.5106-.8836A1.0183,1.0183,0,0,0,303.5163,135.4979Z"/><path class="cls-3" d="M300.3321,146.31a.6082.6082,0,0,1-.3042-.082l-3.3787-1.95a.6081.6081,0,1,1,.6085-1.053l3.3787,1.95a.6084.6084,0,0,1-.3043,1.135Z"/><path class="cls-3" d="M292.5654,150.9349a.6079.6079,0,0,1-.3043-.0821l-3.5-2.0214a.6081.6081,0,0,1,.6086-1.053l3.5,2.0214a.6084.6084,0,0,1-.3042,1.1351Z"/><path class="cls-3" d="M286.5991,157.3417a.3034.3034,0,0,1-.3043-.3043V146.8683a.304.304,0,0,1,.1469-.2606l16.63-10.017a.3048.3048,0,0,1,.4617.2606V147.02a.3063.3063,0,0,1-.1918.2831.3011.3011,0,0,1-.3347-.0754l-.3056-.3254a14.5958,14.5958,0,0,1-2.8826,2.528,9.9787,9.9787,0,0,1-4.5322,1.2409,16.0093,16.0093,0,0,1-4.04,3.9211,11.8553,11.8553,0,0,1-3.7411,1.3308l-.635,1.2515A.3036.3036,0,0,1,286.5991,157.3417Zm.3043-10.3015v8.7259l.1309-.258a.3045.3045,0,0,1,.2329-.164,11.2785,11.2785,0,0,0,3.68-1.2806,16.1873,16.1873,0,0,0,3.9343-3.8681.3068.3068,0,0,1,.2434-.127,9.7387,9.7387,0,0,0,4.3656-1.151,14.3216,14.3216,0,0,0,2.9632-2.663.311.311,0,0,1,.2263-.1124.3485.3485,0,0,1,.2328.0966l.0119.0132V137.39Z"/><path class="cls-3" d="M187.596,215.9355a1.5818,1.5818,0,0,1-1.5743-1.5782V191.0147a2.85,2.85,0,0,1,1.4327-2.4711c2.8019-1.5968,10.5673-6.1555,18.7878-10.9828,8.7193-5.12,17.7361-10.4138,21.3543-12.48a1.5688,1.5688,0,0,1,2.3442,1.3679V189.541c0,1.3917-.2157,2.032-.7951,2.3627l-40.7665,23.82A1.5651,1.5651,0,0,1,187.596,215.9355Zm40.777-50.454a.9624.9624,0,0,0-.4749.1283c-3.6142,2.0637-12.63,7.3566-21.3476,12.4749-8.2232,4.8286-15.99,9.3886-18.7945,10.988a2.2386,2.2386,0,0,0-1.1257,1.942v23.3426a.9664.9664,0,0,0,1.4446.84l40.7664-23.82c.25-.1429.4908-.4008.4908-1.8362V166.4485a.9639.9639,0,0,0-.9591-.967Z"/><path class="cls-3" d="M188.559,199.3133a.2984.2984,0,0,1-.1521-.041.3046.3046,0,0,1-.1521-.2633v-7.96a.3029.3029,0,0,1,.1534-.2632c.7726-.4432,15.7756-9.1082,15.7756-9.1082a.2984.2984,0,0,1,.3043,0,.3046.3046,0,0,1,.1521.2633v7.96a.3044.3044,0,0,1-.1521.2632l-15.7769,9.1082A.2985.2985,0,0,1,188.559,199.3133Zm.3043-8.0882v7.2574l15.1684-8.7576v-7.2574C201.624,183.8592,190.4362,190.3189,188.8633,191.2251Z"/><path class="cls-3" d="M202.9158,186.5194c-1.8059,1.0433-12.0154,6.9411-13.1192,7.5748a.1745.1745,0,0,0-.0886.1551c0,.24,0,2.21,0,2.49a.1817.1817,0,0,0,.2737.1563l13.1153-7.5721a.1824.1824,0,0,0,.0912-.158v-2.487A.1819.1819,0,0,0,202.9158,186.5194Z"/><path class="cls-3" d="M211.97,186.0142a.2994.2994,0,0,1-.1521-.041.3045.3045,0,0,1-.1522-.2633v-7.96a.3027.3027,0,0,1,.1535-.2632c.7726-.4432,15.7756-9.1095,15.7756-9.1095a.2982.2982,0,0,1,.3042,0,.3045.3045,0,0,1,.1522.2632v7.9612a.3046.3046,0,0,1-.1522.2633l-15.7769,9.1082A.2994.2994,0,0,1,211.97,186.0142Zm.3043-8.0882v7.2574l15.1683-8.7576v-7.2587C225.0353,170.5587,213.8476,177.02,212.2747,177.926Z"/><path class="cls-3" d="M226.3269,173.22c-1.806,1.0432-12.0155,6.941-13.1193,7.5747a.1748.1748,0,0,0-.0885.1551v2.49a.1817.1817,0,0,0,.2737.1563l13.1152-7.572a.1826.1826,0,0,0,.0912-.158V173.379A.1817.1817,0,0,0,226.3269,173.22Z"/><path class="cls-3" d="M191.8914,211.6943a1.7916,1.7916,0,0,1-.8956-.2434,1.7737,1.7737,0,0,1-.8916-1.5412h0l-.0238-7.6556a3.2654,3.2654,0,0,1,1.7012-2.88c6.2825-3.421,26.5281-15.1948,32.583-18.723a1.7829,1.7829,0,0,1,2.6842,1.5373v7.4082a3.272,3.272,0,0,1-1.66,2.8416L192.78,211.4562A1.7963,1.7963,0,0,1,191.8914,211.6943Zm-1.1787-1.7872a1.1795,1.1795,0,0,0,1.7634,1.0212l32.6095-19.018a2.6633,2.6633,0,0,0,1.3547-2.3137v-7.4082a1.1736,1.1736,0,0,0-1.7688-1.0107c-6.0575,3.5281-26.31,15.3059-32.5988,18.7309a2.6546,2.6546,0,0,0-1.3838,2.3428Z"/><path class="cls-3" d="M202.34,204.2027a1.0855,1.0855,0,0,1-.4009-.0727.9908.9908,0,0,1-.582-.6509l-1.0451-3.3655c-.4154-1.34.6879-3.4673,2.2688-4.3761l12.7792-7.3461h0a1.63,1.63,0,0,1,2.5743,1.9063l-1.0437,4.5561a3.4747,3.4747,0,0,1-1.5624,2.114l-12.11,6.97A1.7965,1.7965,0,0,1,202.34,204.2027Zm13.3242-15.2848-12.7792,7.3461c-1.3163.7567-2.32,2.6088-1.9909,3.67l1.0437,3.3655a.3793.3793,0,0,0,.2236.2646.9329.9329,0,0,0,.7527-.1522l12.11-6.97a2.8781,2.8781,0,0,0,1.274-1.7224l1.0438-4.5561c.1494-.6522.0529-1.1615-.2659-1.3983a1.3209,1.3209,0,0,0-1.4116.1534Z"/><path class="cls-3" d="M196.67,204.7927a.9011.9011,0,0,1-.4564-.1164.9658.9658,0,0,1-.4431-.8863,2.8692,2.8692,0,0,1,1.3943-2.2291,1.2163,1.2163,0,0,1,1.2118-.1125.9652.9652,0,0,1,.4445.8877,2.8755,2.8755,0,0,1-1.3944,2.2291A1.5406,1.5406,0,0,1,196.67,204.7927Zm1.25-2.9368a1.0433,1.0433,0,0,0-.4935.1574,2.3767,2.3767,0,0,0-1.1324,1.7767.4941.4941,0,0,0,.1813.4326.7365.7365,0,0,0,.6892-.11,2.3814,2.3814,0,0,0,1.1324-1.7767.4966.4966,0,0,0-.1812-.4339A.3827.3827,0,0,0,197.92,201.8559Z"/><path class="cls-3" d="M220.0679,191.3256a.9047.9047,0,0,1-.4551-.1151.9647.9647,0,0,1-.4445-.8876,2.8755,2.8755,0,0,1,1.3943-2.2291,1.2173,1.2173,0,0,1,1.2131-.1112.9659.9659,0,0,1,.4432.8864,2.87,2.87,0,0,1-1.3943,2.2291A1.5314,1.5314,0,0,1,220.0679,191.3256Zm1.25-2.9368a1.0381,1.0381,0,0,0-.4934.1574,2.3808,2.3808,0,0,0-1.1324,1.7767.4966.4966,0,0,0,.1812.4339.7461.7461,0,0,0,.6892-.1112,2.3767,2.3767,0,0,0,1.1324-1.7766.4942.4942,0,0,0-.1812-.4326A.384.384,0,0,0,221.318,188.3888Z"/><ellipse class="cls-3" cx="203.1489" cy="198.1509" rx="0.9789" ry="0.5563" transform="matrix(0.5947, -0.8039, 0.8039, 0.5947, -76.9689, 243.6183)"/><ellipse class="cls-3" cx="206.1742" cy="196.4098" rx="0.9789" ry="0.5563" transform="translate(-74.3432 245.3447) rotate(-53.506)"/><ellipse class="cls-3" cx="209.1994" cy="194.6687" rx="0.9789" ry="0.5563" transform="translate(-71.7175 247.0712) rotate(-53.506)"/><ellipse class="cls-3" cx="212.2246" cy="192.9276" rx="0.9789" ry="0.5563" transform="translate(-69.0917 248.7976) rotate(-53.506)"/><ellipse class="cls-3" cx="215.2498" cy="191.1865" rx="0.9789" ry="0.5563" transform="translate(-66.466 250.524) rotate(-53.506)"/><ellipse class="cls-3" cx="204.5827" cy="200.5762" rx="0.9789" ry="0.5563" transform="translate(-78.3376 245.7538) rotate(-53.506)"/><ellipse class="cls-3" cx="207.6079" cy="198.8351" rx="0.9789" ry="0.5563" transform="translate(-75.7119 247.4802) rotate(-53.506)"/><ellipse class="cls-3" cx="210.6331" cy="197.094" rx="0.9789" ry="0.5563" transform="translate(-73.0862 249.2066) rotate(-53.506)"/><ellipse class="cls-3" cx="213.6583" cy="195.3529" rx="0.9789" ry="0.5563" transform="translate(-70.4604 250.9331) rotate(-53.506)"/><path class="cls-3" d="M148.7318,226.8494a.2567.2567,0,0,1-.123-.033.2445.2445,0,0,1-.1217-.2117V212.8412a.2455.2455,0,0,1,.123-.2116l14.917-8.5618a.2441.2441,0,0,1,.3665.2116v13.7635a.2457.2457,0,0,1-.123.2117l-14.9171,8.5618A.2378.2378,0,0,1,148.7318,226.8494Zm.2448-13.8666v13.2l14.4275-8.2814v-13.2Z"/><path class="cls-3" d="M154.3568,222.6836a.2554.2554,0,0,1-.123-.0331.2442.2442,0,0,1-.1217-.2116v-.6152l-.9393.54a.2441.2441,0,0,1-.3664-.2117v-1.3057l-2.245,1.2885a.2441.2441,0,0,1-.3664-.2117v-7.7164a.2457.2457,0,0,1,.123-.2117l11.5013-6.6013a.2441.2441,0,0,1,.3664.2117v7.7165a.2455.2455,0,0,1-.123.2116l-2.4884,1.4288v1.5861a.2457.2457,0,0,1-.123.2117l-1.1827.6786v.8956a.2455.2455,0,0,1-.123.2117l-3.6671,2.1047A.2372.2372,0,0,1,154.3568,222.6836Zm0-1.5266a.2554.2554,0,0,1,.123.0331.2442.2442,0,0,1,.1217.2116v.6152l3.1776-1.8243v-.8956a.2458.2458,0,0,1,.1231-.2117l1.1827-.6786v-1.5862a.2455.2455,0,0,1,.123-.2116l2.4884-1.4288v-7.1529l-11.0119,6.3208v7.1529l2.245-1.2885a.2441.2441,0,0,1,.3664.2117V221.73l.9393-.54A.2338.2338,0,0,1,154.3568,221.157Zm3.6671-.8229h0Z"/><path class="cls-3" d="M166.0843,216.8893a.2554.2554,0,0,1-.123-.0331.2442.2442,0,0,1-.1217-.2116V202.8811a.2455.2455,0,0,1,.123-.2116l14.9157-8.56a.2441.2441,0,0,1,.3664.2117v13.7634a.2457.2457,0,0,1-.123.2117l-14.9157,8.56A.2372.2372,0,0,1,166.0843,216.8893Zm.2447-13.8666v13.2l14.4263-8.28v-13.2Z"/><path class="cls-3" d="M171.7093,212.7235a.2558.2558,0,0,1-.1231-.0331.2442.2442,0,0,1-.1217-.2116v-.6139l-.9392.5385a.2441.2441,0,0,1-.3665-.2117V210.886l-2.2462,1.29a.2441.2441,0,0,1-.3665-.2116v-7.7178a.2457.2457,0,0,1,.123-.2117l11.5013-6.6a.2441.2441,0,0,1,.3665.2116v7.7165a.2458.2458,0,0,1-.1231.2117l-2.4883,1.4287v1.5861a.2456.2456,0,0,1-.1231.2117l-1.1826.6787v.8956a.2456.2456,0,0,1-.1231.2116L171.831,212.69A.2374.2374,0,0,1,171.7093,212.7235Zm0-1.5253a.2557.2557,0,0,1,.123.0331.2442.2442,0,0,1,.1217.2116v.6139l3.1763-1.823v-.8956a.2457.2457,0,0,1,.123-.2117l1.1827-.6786v-1.5862a.2455.2455,0,0,1,.123-.2116l2.4884-1.4288v-7.1529l-11.0118,6.32v7.1543l2.2463-1.29a.2441.2441,0,0,1,.3664.2117V211.77l.9393-.5384A.2369.2369,0,0,1,171.7093,211.1982Zm3.6657-.8228h0Z"/><path class="cls-3" d="M147.651,229.183a.8.8,0,0,1-.4035-.1032.8361.8361,0,0,1-.39-.7646V212.9061a2.3115,2.3115,0,0,1,1.1271-1.7952l33.42-19.182a1.04,1.04,0,0,1,1.0385-.086.8356.8356,0,0,1,.3889.7633v15.41a2.3191,2.3191,0,0,1-1.1245,1.7952h-.0013l-33.42,19.182A1.2835,1.2835,0,0,1,147.651,229.183Zm34.3875-36.8361a.708.708,0,0,0-.3321.1085l-33.42,19.182a1.7052,1.7052,0,0,0-.82,1.2687v15.4091c0,.07.0106.1945.086.2381.0675.0384.217.0384.4326-.086l33.42-19.182h-.0013a1.71,1.71,0,0,0,.82-1.2687v-15.41c0-.0569-.008-.1918-.086-.2368A.1967.1967,0,0,0,182.0385,192.3469Z"/><path class="cls-3" d="M155.69,167.7979l-1.1827.7011,3.462,2.0214,1.3177-.7832,1.04.6072-1.7119,1.0147-9.6016-5.6038,1.6431-.975,1.04.6072-1.25.7409,3.0348,1.7726,1.1826-.7024Z"/><path class="cls-3" d="M152.94,164.6679l-.9247.549-1.0544-.6165,2.2529-1.3361,1.0544.6164-.93.5517,8.5486,4.9873-.3982.2355Z"/><path class="cls-3" d="M153.9467,162.83l4.0177,2.3455,1.471-.8731-4.0176-2.3455.3982-.2355,9.6029,5.6038-.3982.2355-4.5018-2.6273-1.4711.8731,4.5018,2.6273-.3942.2328-9.6016-5.6038Z"/><path class="cls-3" d="M165.9613,167.0041l-.77-.4484-.643-.7422a14.06,14.06,0,0,0-3.75-3.4753c-.9406-.549-1.9539-.971-2.3918-.71-.2672.1574-.0608.5384.16.8268l-1.0094-.4406c-.3387-.4365-.4485-.8413-.11-1.0424.6323-.3744,2.2661.2659,3.5917,1.04a14.5362,14.5362,0,0,1,3.9607,3.5l.45.54.0291.0159,1.3176-.7818,1.04.6072Z"/><path class="cls-9" d="M137.7835,178.1376l-1.1826.7012,3.462,2.02,1.3189-.7818,1.04.6059-1.7118,1.016-9.6029-5.6038,1.6443-.9763,1.04.6085-1.2514.7408,3.0347,1.7714,1.1827-.7025Z"/><path class="cls-9" d="M135.0359,175.0063l-.9261.549-1.0556-.6164,2.2542-1.3362,1.0557.6165-.9314.5517,8.5486,4.9886-.3982.2355Z"/><path class="cls-9" d="M136.04,173.1688l4.0177,2.3455,1.4724-.8731-4.0177-2.3455.3969-.2355,9.6043,5.6038-.3982.2355-4.5019-2.6259-1.4724.8731,4.5019,2.6259-.3929.2329-9.603-5.6038Z"/><path class="cls-9" d="M140.8262,172.1092l-.0093.0053.3585.81-1.03-.512-.4418-1.012.3386-.2011,9.26,5.4041-.3836.2275Z"/></g><g id="USB_up-5" data-name="USB up"><polygon class="cls-10" points="493.448 177.584 499.604 181.121 499.604 193.05 493.448 189.482 493.448 177.584"/><path class="cls-9" d="M499.6044,193.2862a.24.24,0,0,1-.1191-.0318l-6.1567-3.5679a.237.237,0,0,1-.1178-.205V177.5833a.2371.2371,0,0,1,.1178-.205.2433.2433,0,0,1,.2368-.0013l6.1567,3.5374a.2377.2377,0,0,1,.1191.2064v11.9286a.2362.2362,0,0,1-.2368.2368Zm-5.92-3.941,5.6832,3.2927v-11.38l-5.6832-3.265Z"/><path class="cls-10" d="M518.0719,177.2573c-1.3912-4.5264-9.2339-18.5025-9.2339-5.0671C513.6585,174.88,518.0719,177.2573,518.0719,177.2573Z"/><path class="cls-9" d="M518.0721,177.4947a.244.244,0,0,1-.1125-.0278c-.0436-.0238-4.47-2.41-9.2365-5.0693a.2381.2381,0,0,1-.1217-.2077c0-3.79.6112-5.7242,1.8706-5.9134a1.3312,1.3312,0,0,1,.1918-.0132c2.7159,0,6.7984,8.2046,7.6345,10.9245a.2352.2352,0,0,1-.2262.3069Zm-8.9958-5.4437c3.7584,2.0954,7.2826,4.01,8.5817,4.7135-1.2964-3.6486-5.0138-10.0276-6.9876-10.0276a.8282.8282,0,0,0-.1283.0092C510.0011,166.8282,509.0949,167.6285,509.0763,172.051Z"/><polygon class="cls-10" points="496.977 175.531 496.977 173.899 498.387 173.095 498.342 171.595 507.25 172.143 509.277 170.975 500.514 170.318 500.564 171.731 501.887 170.956 501.951 172.637 505.76 170.421 511.916 173.959 499.604 181.121 493.448 177.584 496.977 175.531"/><path class="cls-9" d="M499.6044,181.3576a.2309.2309,0,0,1-.1177-.0318l-6.1568-3.5374a.2367.2367,0,0,1-.0013-.41l3.4117-1.983v-1.4962a.2377.2377,0,0,1,.1191-.2064l1.2872-.7329-.0411-1.3586a.2357.2357,0,0,1,.0715-.1773.2277.2277,0,0,1,.18-.0661l1.9619.12-.0411-1.1523a.2331.2331,0,0,1,.0728-.1786.2447.2447,0,0,1,.1812-.0661l4.7307.3558.3784-.2209a.2368.2368,0,0,1,.2368,0l.5344.3069,2.8826.2157a.2393.2393,0,0,1,.2143.1838.2364.2364,0,0,1-.1137.258l-.9168.5292,3.5559,2.0438a.2368.2368,0,0,1,.0014.41l-12.3123,7.1622A.2391.2391,0,0,1,499.6044,181.3576Zm-5.6832-3.7756,5.6819,3.2649,11.84-6.887-3.4408-1.9764-.6337.3638a.2588.2588,0,0,1-.1323.0318l-3.9528-.2435-1.2131.7065a.2327.2327,0,0,1-.2329.0026.2357.2357,0,0,1-.123-.1984l-.0238-.6086-3.1035-.1905.037,1.2409a.2385.2385,0,0,1-.119.213l-1.2912.7355v1.4949a.2374.2374,0,0,1-.1177.2051Zm3.0559-2.05h0Zm5.19-3.4647.0067.1667.2579-.1495Zm1.8561-.3611,3.171.1958.3333-.1918-1.258-.7223-.8956-.0675Zm-1.8746-.1151,1.0213.0635,1.3692-.7964-3.7782-.2831.0265.75.9789-.5741a.2417.2417,0,0,1,.2342-.0027.2357.2357,0,0,1,.123.1985Zm-.7937-.0489.3175.02-.008-.2011Zm6.01-.4723.6377.3664.4894-.2818Z"/><polygon class="cls-10" points="508.951 172.256 498.342 171.595 500.514 170.318 510.978 171.088 508.951 172.256"/><path class="cls-9" d="M508.952,172.4928h-.0146l-10.61-.6614a.2378.2378,0,0,1-.1058-.4419l2.1722-1.2766a.2449.2449,0,0,1,.1375-.0317l10.4642.77a.2372.2372,0,0,1,.1018.4419l-2.0266,1.1681A.2407.2407,0,0,1,508.952,172.4928Zm-9.82-1.0874,9.763.61,1.2965-.7475-9.62-.7077Z"/><polygon class="cls-10" points="511.916 173.959 518.072 177.257 505.76 184.42 499.604 181.121 511.916 173.959"/><path class="cls-9" d="M505.76,184.6569a.2439.2439,0,0,1-.1124-.0278l-6.1555-3.2993a.2377.2377,0,0,1-.0066-.4141l12.3122-7.1622a.24.24,0,0,1,.2316-.0039l6.1554,3.2993a.2376.2376,0,0,1,.0066.4141l-12.3122,7.1621A.24.24,0,0,1,505.76,184.6569Zm-5.6686-3.5441,5.6633,3.0361,11.8307-6.8831-5.6633-3.036Z"/><polygon class="cls-10" points="499.604 181.121 505.76 184.42 505.76 196.32 499.604 193.05 499.604 181.121"/><path class="cls-9" d="M505.76,196.5577a.2349.2349,0,0,1-.1111-.0278l-6.1554-3.2715a.2354.2354,0,0,1-.1257-.209V181.1208a.237.237,0,0,1,.1151-.2038.2314.2314,0,0,1,.2341-.0052l6.1555,3.2993a.2368.2368,0,0,1,.1243.209v11.9008a.2385.2385,0,0,1-.1151.2037A.2336.2336,0,0,1,505.76,196.5577Zm-5.9186-3.6512,5.6818,3.02V184.5616l-5.6818-3.044Z"/><polygon class="cls-10" points="518.072 177.257 505.76 184.42 520.359 191.927 528.046 187.666 518.072 177.257"/><path class="cls-9" d="M520.3594,192.1643a.2413.2413,0,0,1-.1085-.0251l-14.5995-7.5075a.2379.2379,0,0,1-.0106-.4167l12.3122-7.1621a.2391.2391,0,0,1,.291.041l9.9747,10.4085a.2387.2387,0,0,1-.0569.3718l-7.6874,4.261A.2354.2354,0,0,1,520.3594,192.1643Zm-14.1061-7.7574,14.1021,7.2521,7.3064-4.0507L518.03,177.5569Z"/><polygon class="cls-10" points="505.76 184.42 505.76 196.32 520.473 200.691 520.359 191.927 505.76 184.42"/><path class="cls-9" d="M520.4731,200.9285a.2366.2366,0,0,1-.0674-.0092l-14.7133-4.3709a.2381.2381,0,0,1-.1694-.2275V184.42a.2336.2336,0,0,1,.1138-.2024.23.23,0,0,1,.2315-.0093l14.6,7.5075a.2364.2364,0,0,1,.1284.209l.1137,8.7642a.2361.2361,0,0,1-.2368.2394Zm-14.4765-4.7849,14.2344,4.2293-.1071-8.3-14.1273-7.2641Z"/><path class="cls-10" d="M528.3139,195.6362v-7.5051a.5381.5381,0,0,0-.8087-.4651l-6.68,3.8857a1.3454,1.3454,0,0,0-.6689,1.1629v7.4908a.5382.5382,0,0,0,.808.4656l6.6785-3.8708A1.3455,1.3455,0,0,0,528.3139,195.6362Z"/><path class="cls-9" d="M520.694,200.9815a.775.775,0,0,1-.7738-.7766v-7.49a1.5844,1.5844,0,0,1,.7858-1.3679l6.6806-3.8854a.7736.7736,0,0,1,1.1641.6694v7.5048a1.5864,1.5864,0,0,1-.7884,1.3692l-6.678,3.8708A.7832.7832,0,0,1,520.694,200.9815Zm7.0815-13.1523a.2952.2952,0,0,0-.1508.0423l-6.6806,3.8854a1.1131,1.1131,0,0,0-.55.9578v7.49a.2958.2958,0,0,0,.1509.2606.3.3,0,0,0,.3016,0l6.678-3.8708a1.11,1.11,0,0,0,.5529-.9591v-7.5048a.2959.2959,0,0,0-.1508-.2606A.3077.3077,0,0,0,527.7755,187.8292Z"/><path class="cls-10" d="M505.76,184.42c-1.3912-4.5264-9.2339-18.5025-9.2339-5.0671C501.3467,182.0422,505.76,184.42,505.76,184.42Z"/><path class="cls-9" d="M505.76,184.6569a.2439.2439,0,0,1-.1124-.0278c-.0437-.0238-4.47-2.409-9.2365-5.0694a.238.238,0,0,1-.1217-.2076c0-3.79.6112-5.7242,1.8706-5.9134,2.7371-.4008,6.97,8.1266,7.8263,10.9113a.2353.2353,0,0,1-.2263.3069Zm-8.9957-5.4437c3.7584,2.0967,7.2826,4.011,8.5817,4.7134-1.2938-3.6485-5.0112-10.0275-6.9876-10.0275a.7994.7994,0,0,0-.127.0092C497.6888,173.989,496.7826,174.7907,496.7641,179.2132Z"/><path class="cls-9" d="M508.0577,197.1556a.4754.4754,0,0,1-.4749-.4749V185.3276l5.2956-3.0572a.4747.4747,0,1,1,.4736.8228l-4.8194,2.7821v10.8054A.4754.4754,0,0,1,508.0577,197.1556Z"/><path class="cls-9" d="M514.3441,198.9045a.4754.4754,0,0,1-.4749-.4749v-9.8411l3.9674-2.3772a.4746.4746,0,1,1,.4868.8149l-3.5043,2.0994v9.304A.4754.4754,0,0,1,514.3441,198.9045Z"/><path class="cls-9" d="M515.4607,181.7888a.4615.4615,0,0,1-.23-.8612l3.9065-2.2555a.4611.4611,0,1,1,.46.799l-3.9066,2.2556A.4562.4562,0,0,1,515.4607,181.7888Z"/><path class="cls-9" d="M511.4192,191.9765a.4754.4754,0,0,1-.4749-.4749v-4.3907l10.6943-5.83a.4748.4748,0,0,1,.4551.8335l-10.2,5.56v3.8272A.4754.4754,0,0,1,511.4192,191.9765Z"/><path class="cls-9" d="M511.4192,198.214a.4754.4754,0,0,1-.4749-.475v-4.0745a.4749.4749,0,0,1,.95,0v4.0745A.4754.4754,0,0,1,511.4192,198.214Z"/><path class="cls-9" d="M517.445,194.1394a.4754.4754,0,0,1-.4749-.4749v-3.2768a.4753.4753,0,0,1,.2394-.4128l8.16-4.6513a.4752.4752,0,1,1,.4709.8255l-7.92,4.5137v3.0017A.4754.4754,0,0,1,517.445,194.1394Z"/><path class="cls-9" d="M517.4516,200.0144a.4754.4754,0,0,1-.4749-.4749v-3.6a.4749.4749,0,0,1,.95,0v3.6A.4753.4753,0,0,1,517.4516,200.0144Z"/><path class="cls-9" d="M520.1569,185.9216a.4749.4749,0,0,1-.2275-.8917l3.4541-1.8838a.4748.4748,0,0,1,.4551.8335l-3.4541,1.8838A.4735.4735,0,0,1,520.1569,185.9216Z"/><path class="cls-9" d="M524.635,197.5353a3.1066,3.1066,0,1,1,2.5928-3.0638A2.8621,2.8621,0,0,1,524.635,197.5353Zm0-5.6594a2.6478,2.6478,0,1,0,2.1245,2.5956A2.399,2.399,0,0,0,524.635,191.8759Z"/><path class="cls-10" d="M546.9488,204.4743c-6.6615-4.0448-21.63-12.7238-21.63-12.7238l-1.8267,5.1936s14.968,8.679,21.6294,12.7238S553.61,208.519,546.9488,204.4743Z"/><polygon class="cls-10" points="161.764 207.715 167.36 210.931 156.167 217.443 150.571 214.227 161.764 207.715"/><path class="cls-9" d="M156.1679,217.6579a.2069.2069,0,0,1-.1072-.0291l-5.5972-3.2159a.213.213,0,0,1-.1085-.1866.216.216,0,0,1,.1072-.1865l11.193-6.5113a.21.21,0,0,1,.2157,0l5.5958,3.216a.2127.2127,0,0,1,.1085.1865.2161.2161,0,0,1-.1071.1865l-11.1918,6.5113A.2111.2111,0,0,1,156.1679,217.6579Zm-5.166-3.4329,5.1646,2.9686,10.7618-6.2613-5.1646-2.9686Z"/><polygon class="cls-10" points="150.571 214.227 156.167 217.443 156.167 228.287 150.571 225.043 150.571 214.227"/><path class="cls-9" d="M156.1679,228.5031a.215.215,0,0,1-.1085-.0292l-5.5972-3.2437a.216.216,0,0,1-.1072-.1865V214.2263a.216.216,0,0,1,.1072-.1865.21.21,0,0,1,.2156,0l5.5972,3.216a.2144.2144,0,0,1,.1085.1865v10.8451a.2144.2144,0,0,1-.1085.1865A.2069.2069,0,0,1,156.1679,228.5031Zm-5.3816-3.5838,5.1659,2.9937V217.5666l-5.1659-2.9672Z"/><polygon class="cls-10" points="167.36 210.931 172.957 213.93 161.764 220.441 156.167 217.443 167.36 210.931"/><path class="cls-9" d="M161.7637,220.6569a.2145.2145,0,0,1-.1018-.0251l-5.5959-2.999a.2161.2161,0,0,1-.0066-.377l11.1917-6.5113a.2128.2128,0,0,1,.21-.004l5.5972,2.999a.2161.2161,0,0,1,.0066.377l-11.193,6.5113A.2114.2114,0,0,1,161.7637,220.6569Zm-5.154-3.2225,5.15,2.76,10.7551-6.256-5.1513-2.76Z"/><polygon class="cls-10" points="156.167 217.443 161.764 220.441 161.764 231.26 156.167 228.287 156.167 217.443"/><path class="cls-9" d="M161.7637,231.4756a.2145.2145,0,0,1-.1018-.0251l-5.5959-2.9726a.2157.2157,0,0,1-.1138-.1905V217.4423a.2176.2176,0,0,1,.1045-.1852.2146.2146,0,0,1,.213-.0053l5.5959,2.999a.2173.2173,0,0,1,.1138.1905V231.26a.2175.2175,0,0,1-.1046.1852A.2229.2229,0,0,1,161.7637,231.4756Zm-5.38-3.3178,5.1646,2.7437V220.5709l-5.1646-2.7688Z"/><polygon class="cls-10" points="172.957 213.93 161.764 220.441 175.036 227.266 182.024 223.393 172.957 213.93"/><path class="cls-9" d="M175.0364,227.4818a.22.22,0,0,1-.0992-.0238l-13.2727-6.8249a.216.216,0,0,1-.0093-.3783l11.1931-6.5113a.2147.2147,0,0,1,.2646.037l9.0671,9.4627a.2135.2135,0,0,1,.0569.1812.2176.2176,0,0,1-.1085.1575l-6.9875,3.8734A.223.223,0,0,1,175.0364,227.4818Zm-12.8242-7.0524,12.82,6.592,6.6423-3.6816-8.7563-9.1373Z"/><polygon class="cls-10" points="161.764 220.441 161.764 231.26 175.139 235.234 175.036 227.266 161.764 220.441"/><path class="cls-9" d="M175.14,235.45a.1891.1891,0,0,1-.0609-.0093l-13.3758-3.974a.2138.2138,0,0,1-.1548-.2063V220.4413a.2155.2155,0,0,1,.1032-.1839.2122.2122,0,0,1,.2116-.0079l13.2727,6.8248a.2188.2188,0,0,1,.1164.1892l.1032,7.9678a.2164.2164,0,0,1-.2156.2183Zm-13.16-4.351,12.9406,3.8456-.0979-7.5458-12.8427-6.6039Z"/><path class="cls-10" d="M182.2678,230.6385v-6.8229a.4892.4892,0,0,0-.7352-.4229l-6.0726,3.5326a1.2232,1.2232,0,0,0-.608,1.0572v6.81a.4892.4892,0,0,0,.7345.4233l6.0715-3.5191A1.2228,1.2228,0,0,0,182.2678,230.6385Z"/><path class="cls-9" d="M175.3406,235.4985a.7078.7078,0,0,1-.7037-.7064v-6.8089a1.4474,1.4474,0,0,1,.7143-1.2449l6.0734-3.5321a.7046.7046,0,0,1,1.0584.61v6.8222a1.4407,1.4407,0,0,1-.717,1.2449l-6.0708,3.5189A.7017.7017,0,0,1,175.3406,235.4985Zm6.4373-11.9576a.2745.2745,0,0,0-.1363.0383l-6.0734,3.5322a1.0134,1.0134,0,0,0-.5.8718v6.8089a.2732.2732,0,0,0,.41.2368l6.0708-3.5189a1.0072,1.0072,0,0,0,.5027-.8718V223.816a.2642.2642,0,0,0-.1376-.2368A.2708.2708,0,0,0,181.7779,223.5409Z"/><polygon class="cls-10" points="161.383 209.529 163.461 210.789 155.911 215.19 153.834 213.93 161.383 209.529"/><path class="cls-9" d="M155.9112,215.2992a.1039.1039,0,0,1-.0555-.0159l-2.077-1.2607a.1068.1068,0,0,1,.0013-.1852l7.55-4.4013a.1056.1056,0,0,1,.11,0l2.077,1.2607a.1068.1068,0,0,1-.0014.1852l-7.55,4.4013A.1032.1032,0,0,1,155.9112,215.2992Zm-1.8666-1.3679,1.8679,1.1337,7.3382-4.2769-1.868-1.1337Z"/><path class="cls-9" d="M163.8526,232.0193a.4313.4313,0,0,1-.4313-.4312V221.2668l4.814-2.7794a.4309.4309,0,1,1,.4313.7461l-4.3828,2.5307v9.8239A.4313.4313,0,0,1,163.8526,232.0193Z"/><path class="cls-9" d="M169.5675,233.6094a.4313.4313,0,0,1-.4313-.4312v-8.9468l3.6049-2.1616a.432.432,0,1,1,.4445.7408l-3.1868,1.91v8.4573A.4313.4313,0,0,1,169.5675,233.6094Z"/><path class="cls-9" d="M170.5822,218.0614a.4312.4312,0,0,1-.2157-.8043l3.8113-2.2a.4309.4309,0,1,1,.4313.7461l-3.8113,2.2A.4225.4225,0,0,1,170.5822,218.0614Z"/><path class="cls-9" d="M166.9085,227.3111a.4313.4313,0,0,1-.4313-.4312v-3.9926l9.722-5.3a.431.431,0,0,1,.4127.7567l-9.2722,5.0561V226.88A.4313.4313,0,0,1,166.9085,227.3111Z"/><path class="cls-9" d="M166.9085,232.9824a.4314.4314,0,0,1-.4313-.4313v-3.7054a.4313.4313,0,1,1,.8625,0v3.7054A.4313.4313,0,0,1,166.9085,232.9824Z"/><path class="cls-9" d="M172.3866,229.2769a.4313.4313,0,0,1-.4313-.4312v-2.9792a.4325.4325,0,0,1,.217-.3744l7.4175-4.228a.4314.4314,0,1,1,.4286.7488l-7.2005,4.105v2.7278A.4313.4313,0,0,1,172.3866,229.2769Z"/><path class="cls-9" d="M172.3919,234.6188a.4314.4314,0,0,1-.4313-.4313v-3.2728a.4313.4313,0,0,1,.8626,0v3.2728A.4314.4314,0,0,1,172.3919,234.6188Z"/><path class="cls-9" d="M174.8525,221.8065a.4312.4312,0,0,1-.2064-.81l3.1406-1.7131a.431.431,0,1,1,.4127.7567l-3.1405,1.7131A.4285.4285,0,0,1,174.8525,221.8065Z"/><path class="cls-9" d="M178.923,232.3884a2.8476,2.8476,0,1,1,2.3813-2.8085A2.6247,2.6247,0,0,1,178.923,232.3884Zm0-5.1447a2.3835,2.3835,0,1,0,1.9077,2.3362A2.1572,2.1572,0,0,0,178.923,227.2437Z"/><path class="cls-10" d="M267.4194,227.6955c-8.6068,4.9691-24.04,14.1449-33.5776,19.6514s-17.99,6.7541-24.0458,3.077c-.8419-.5112-2.6-.7058-4.0846-1.5812-9.194-5.4218-27.8268-17.0151-27.8268-17.0151l1.6608-4.7216s26.0648,14.7095,32.1209,18.3867,12.6378,2.234,22.1755-3.2725,24.8931-14.0028,33.3356-19.2463Z"/><path class="cls-9" d="M453.4074,287.339a6.2416,6.2416,0,0,1-3.679-1.1483c-1.2832-.7448-131.4009-76.662-136.3207-79.32-4.7889-2.5863-8.0962-.0476-8.1306-.0225l-39.888,22.3c-3.9185,2.2767-8.7232,5.1024-13.8111,8.0948-6.2534,3.679-12.721,7.4824-17.6171,10.3081-9.8436,5.6845-18.2414,6.7481-24.2884,3.0744-5.9848-3.6327-31.6477-18.4439-31.907-18.5934a.2372.2372,0,0,1-.086-.3241.2344.2344,0,0,1,.3241-.086c.258.1482,25.9262,14.962,31.915,18.5987,5.8882,3.5745,14.1219,2.51,23.8042-3.08,4.8947-2.8257,11.3611-6.6291,17.6157-10.3067,5.0866-2.9924,9.8927-5.82,13.8151-8.0988l39.86-22.2816c.0039-.0053,3.5612-2.73,8.6186-.0013,4.9278,2.6616,135.0522,78.5828,136.3658,79.3488.1508.1177,2.9871,2.3627,7.0815,0,.9049-.5226,6.0867-3.5322,13.7224-7.9678,29.8539-17.3406,91.9746-53.4227,93.4073-54.0868a6.388,6.388,0,0,0,2.8667-4.8458c.0794-1.7726-.844-3.2291-2.7437-4.3258l-13.9539-8.0565c-6.5854-3.9978-24.9922-14.458-25.1774-14.5625a.2376.2376,0,1,1,.2354-.4127c.1852.1058,18.596,10.5673,25.1841,14.5678l13.95,8.0538c2.5718,1.4843,3.04,3.4064,2.9792,4.7571a6.9342,6.9342,0,0,1-3.1406,5.2559c-1.4128.6548-65.8525,38.0836-93.3689,54.0656-7.637,4.4356-12.8188,7.4466-13.7224,7.9678A7.7505,7.7505,0,0,1,453.4074,287.339Z"/><path class="cls-9" d="M453.5172,281.6a6.66,6.66,0,0,1-3.7874-1.3269c-1.3137-.7475-134.5-76.9835-136.7759-78.3276a7.7314,7.7314,0,0,0-6.9995-.1336l-44.1372,24.5306c-4.44,2.5637-9.669,5.71-14.7252,8.7523-4.8629,2.9262-9.4574,5.6911-13.221,7.8646-10.3252,5.9623-16.8829,6.9677-22.6269,3.4792-5.9861-3.6353-31.563-18.9743-31.821-19.1291a.2372.2372,0,0,1-.082-.3254.2416.2416,0,0,1,.3254-.0821c.258.1548,25.8362,15.4952,31.8237,19.1318,5.576,3.3827,11.9921,2.3733,22.1427-3.4845,3.761-2.1722,8.3528-4.9357,13.2144-7.8607,5.0588-3.044,10.29-6.1911,14.7358-8.7589l44.1451-24.5358a8.0838,8.0838,0,0,1,7.4665.1442c2.2727,1.3414,135.4569,77.5761,136.8023,78.3447.06.045,2.8694,2.2781,5.7784.6443,5.9914-3.3668,100.5337-57.357,102.3461-58.5674,1.147-.766,2.6617-1.905,2.585-2.9421-.0424-.5755-.5808-1.1113-1.6021-1.5941-2.6894-1.4367-13.99-8.0684-14.1034-8.1345-6.5828-3.9992-21.472-12.0556-21.6215-12.1363a.2377.2377,0,0,1-.0965-.3215.2407.2407,0,0,1,.3214-.0966c.1495.0821,15.0506,8.1451,21.64,12.1469.1111.0648,11.4021,6.6912,14.073,8.1186,1.1761.5557,1.8071,1.2237,1.8627,1.9817.0939,1.2714-1.4447,2.47-2.794,3.3721-2.1286,1.4221-101.4531,58.066-102.3779,58.5859A5.0219,5.0219,0,0,1,453.5172,281.6Z"/></g></g><path class="cls-3" d="M649.4875,308.55H119.8649a4.4845,4.4845,0,0,1-4.4794-4.4794V4.4793A4.4845,4.4845,0,0,1,119.8649,0H649.4875a4.4848,4.4848,0,0,1,4.4807,4.4793V304.071A4.4848,4.4848,0,0,1,649.4875,308.55ZM119.8649,1.3546A3.1289,3.1289,0,0,0,116.74,4.4793V304.071a3.1289,3.1289,0,0,0,3.1247,3.1247H649.4875a3.1293,3.1293,0,0,0,3.1261-3.1247V4.4793a3.1293,3.1293,0,0,0-3.1261-3.1247Z"/></g></g></g></svg>