<svg xmlns="http://www.w3.org/2000/svg" xmlns:xlink="http://www.w3.org/1999/xlink" width="190.3529mm" height="100.3529mm" viewBox="0 0 539.583 284.4648"><defs><style>.cls-1{fill:none;}.cls-2{clip-path:url(#clip-path);}.cls-3{fill:#fff;}.cls-4{fill:#808285;}.cls-5{fill:#00aeef;}.cls-6{fill:#d1d3d4;}</style><clipPath id="clip-path"><rect class="cls-1" x="7.3055" y="0.5002" width="531.7774" height="283.4646" rx="5.6334" ry="5.6334"/></clipPath></defs><title>10. Echelon à réseau LON</title><g id="Layer_2" data-name="Layer 2"><g id="_10._Echelon_à_réseau_LON" data-name="10. Echelon à réseau LON"><g id="Expanded"><rect class="cls-1" x="0.5002" y="0.5002" width="538.5827" height="283.4646" rx="5.6693" ry="5.6693"/><g class="cls-2"><path class="cls-3" d="M299.5944,176.6053c0,29.8052,39.4441,53.9671,88.1008,53.9671s88.1008-24.1619,88.1008-53.9671v-80c0,29.8052-39.4441,53.9671-88.1008,53.9671s-88.1008-24.1619-88.1008-53.9671Z"/><path class="cls-4" d="M387.6953,231.0723c-48.8545,0-88.6006-24.4336-88.6006-54.4668v-80h1c0,29.4814,39.2979,53.4668,87.6006,53.4668s87.6006-23.9854,87.6006-53.4668h1v80C476.2959,206.6387,436.55,231.0723,387.6953,231.0723ZM300.0947,104.7969v71.8086c0,29.4814,39.2979,53.4668,87.6006,53.4668s87.6006-23.9854,87.6006-53.4668V104.7969c-6.4473,26.16-43.2754,46.2754-87.6006,46.2754S306.542,130.957,300.0947,104.7969Z"/><ellipse class="cls-3" cx="387.6952" cy="96.6053" rx="88.1008" ry="53.967"/><path class="cls-4" d="M387.6953,151.0723c-48.8545,0-88.6006-24.4336-88.6006-54.4668s39.7461-54.4668,88.6006-54.4668,88.6006,24.4336,88.6006,54.4668S436.55,151.0723,387.6953,151.0723Zm0-107.9336c-48.3027,0-87.6006,23.9853-87.6006,53.4668s39.2979,53.4668,87.6006,53.4668,87.6006-23.9854,87.6006-53.4668S435.998,43.1387,387.6953,43.1387Z"/><path class="cls-4" d="M387.6953,136.0322c-1.7295,0-3.0849-.873-3.0849-1.9873s1.3554-1.9863,3.0849-1.9863,3.085.8721,3.085,1.9863S389.4248,136.0322,387.6953,136.0322Zm0-3.4736c-1.4014,0-2.5849.6807-2.5849,1.4863s1.1835,1.4873,2.5849,1.4873,2.585-.6806,2.585-1.4873S389.0967,132.5586,387.6953,132.5586Z"/><path class="cls-4" d="M446.3721,102.4707c-1.7295,0-3.084-.8721-3.084-1.9863s1.3545-1.9864,3.084-1.9864,3.0849.8721,3.0849,1.9864S448.1016,102.4707,446.3721,102.4707Zm0-3.4727c-1.4,0-2.584.6807-2.584,1.4864s1.1836,1.4863,2.584,1.4863,2.5849-.6807,2.5849-1.4863S447.7734,98.998,446.3721,98.998Z"/><path class="cls-4" d="M387.6953,149.0693c-47.1387,0-85.4892-23.5351-85.4892-52.4638s38.3505-52.4639,85.4892-52.4639,85.4893,23.5352,85.4893,52.4639S434.834,149.0693,387.6953,149.0693Zm0-104.4277c-46.8633,0-84.9892,23.3105-84.9892,51.9639s38.1259,51.9638,84.9892,51.9638,84.9893-23.3105,84.9893-51.9638S434.5586,44.6416,387.6953,44.6416Z"/><path class="cls-4" d="M446.3721,212.0117a.2493.2493,0,0,1-.25-.25v-14.25a.2511.2511,0,0,1,.1279-.2187l13.0645-7.2832a.2567.2567,0,0,1,.249.0029.25.25,0,0,1,.123.2158v14.7168a.25.25,0,0,1-.1347.2217l-13.0645,6.8164A.2505.2505,0,0,1,446.3721,212.0117Zm.25-14.3535V211.35l12.5644-6.5557v-14.14Z"/><path class="cls-4" d="M459.4365,205.1953a.2484.2484,0,0,1-.124-.0332l-6.8936-3.95a.2493.2493,0,0,1-.1259-.2168v-6.9238a.25.25,0,1,1,.5,0v6.7793l6.7675,3.8779a.25.25,0,0,1-.124.4668Z"/><line class="cls-3" x1="452.5432" y1="200.995" x2="446.3724" y2="204.3953"/><polygon class="cls-4" points="446.493 204.614 446.251 204.177 452.422 200.776 452.664 201.214 446.493 204.614"/><path class="cls-4" d="M387.6436,128.9316c-29.8018,0-54.0479-14.6679-54.0479-32.6982s24.2461-32.6982,54.0479-32.6982,54.0478,14.6679,54.0478,32.6982S417.4453,128.9316,387.6436,128.9316Zm0-64.6464c-29.3887,0-53.2979,14.332-53.2979,31.9482s23.9092,31.9482,53.2979,31.9482,53.2978-14.332,53.2978-31.9482S417.0322,64.2852,387.6436,64.2852Z"/><path class="cls-3" d="M441.3162,96.2335c-.001-30.5857-23.9784-48.7128-53.621-48.7128S333.97,65.5869,333.9709,96.2335Z"/><path class="cls-4" d="M440.9414,96.2334c-.001-28.4609-21.8965-48.3379-53.2461-48.3379-14.7363,0-28.1367,4.5361-37.7344,12.7734-10.2158,8.7686-15.6152,21.0665-15.6152,35.5645h-.75c0-14.7236,5.4893-27.2188,15.877-36.1338,9.7334-8.3535,23.3076-12.9541,38.2226-12.9541,31.791,0,53.9951,20.1856,53.9961,49.0879Z"/><path class="cls-4" d="M347.02,109.5928a1.7135,1.7135,0,0,1-.7724-.2149c-5.9522-3.06-7.4053-5.1963-7.4053-10.8818-.627-20.9824,12.6807-34.2188,18.4316-38.9356a1.5973,1.5973,0,0,1,2.169.0606A1.6314,1.6314,0,0,1,359.66,61.8h0c-9.6211,13.6211-10.2627,29.6152-10.6465,39.1709-.1953,4.87-.3135,7.81-1.4639,8.4805A1.04,1.04,0,0,1,347.02,109.5928ZM358.32,59.666a1.1409,1.1409,0,0,0-.73.2813c-5.6933,4.67-18.8691,17.7734-18.248,38.541,0,5.5117,1.333,7.4619,7.1338,10.4443a.8433.8433,0,0,0,.8223.0869c.914-.5332,1.0478-3.8584,1.2167-8.0693.3858-9.6113,1.0313-25.6973,10.7374-39.4395h0a1.1276,1.1276,0,0,0-.1495-1.5234A1.1689,1.1689,0,0,0,358.32,59.666Z"/><path class="cls-5" d="M426.6045,277.0674c-7.8574,0-34.6445-.6641-49.4453-9.21-6.5811-3.8-10.8692-8.3613-15.0166-12.7724-4.0733-4.3321-8.2842-8.8116-14.6729-12.5-6.4023-3.6954-16.0049-6.3633-25.292-8.9434-9.3789-2.6045-19.0771-5.2988-25.6445-9.0908-6.418-3.7051-12.8965-9.8936-19.1621-15.877-6.4834-6.1924-13.1875-12.5957-19.73-16.1416-7.2334-3.92-18.2812-7.5478-27.1582-10.4629-7.3447-2.4121-13.1455-4.3173-15.5557-5.8681a.75.75,0,1,1,.8125-1.2617c2.2481,1.4472,8.2549,3.4209,15.2119,5.705,8.9336,2.9336,20.0518,6.585,27.4043,10.5694,6.7178,3.6406,13.4961,10.1142,20.0508,16.375,6.2012,5.9228,12.6143,12.0478,18.876,15.6631,6.4023,3.6962,16.0078,6.3642,25.2959,8.9443,9.377,2.6055,19.0732,5.2988,25.6406,9.09,6.58,3.7989,10.8682,8.36,15.0157,12.7715,4.0722,4.332,8.2841,8.8115,14.6738,12.501,14.4785,8.3594,40.9326,9.0088,48.6953,9.0088,12.7656,0,25.8623-7.5606,38.5283-14.8721,12.6-7.2744,12.6-17.8408,12.6-21.8183,0-3.9229-5.4482-22.9991-30.62-37.917a.7505.7505,0,0,1,.7656-1.2911c25.7754,15.2764,31.3545,35.1163,31.3545,39.2081,0,3.8115,0,15.4091-13.3447,23.1142C453.0459,269.4043,439.7725,277.0674,426.6045,277.0674Z"/><path class="cls-5" d="M432.6973,273.4863c-12.6944,0-39.11,0-52.2539-7.5888-6.4825-3.7422-12.7159-7.1661-18.7442-10.4776s-12.26-6.7334-18.7471-10.4785c-6.4628-3.7314-14.1533-7.4687-21.59-11.083-7.458-3.624-15.1689-7.3711-21.6758-11.1279-5.8554-3.3809-12.4072-7.6338-19.3427-12.1377-8.1924-5.3194-16.6631-10.8184-23.7686-14.67-9.4619-5.129-21.12-13.2608-28.835-18.6426-2.9189-2.0352-5.2246-3.6436-6.667-4.5723a.75.75,0,1,1,.8125-1.2617c1.4659.9443,3.7813,2.56,6.7129,4.6045,7.6866,5.3613,19.3037,13.4648,28.6914,18.5537,7.1573,3.8789,15.6534,9.3955,23.87,14.7305,6.92,4.4921,13.455,8.7353,19.2763,12.0966,6.46,3.73,14.1475,7.4649,21.5811,11.0782,7.4609,3.625,15.1748,7.374,21.6845,11.1328,6.4737,3.7373,12.6993,7.1562,18.72,10.4629,6.0351,3.3144,12.2754,6.7422,18.7715,10.4931,12.7959,7.3877,38.9394,7.3877,51.5039,7.3877,11.9941,0,22.5742-4.5615,34.3056-14.792,7.8174-6.8154,8.043-17.9658,8.043-19.2148,0-5.4248-1.873-24.2334-25.9707-38.5147a.75.75,0,1,1,.7656-1.291C474.62,212.86,476.5459,232.3545,476.5459,237.98c0,1.3193-.24,13.0947-8.5566,20.3457C455.9648,268.8105,445.08,273.4863,432.6973,273.4863Z"/><path class="cls-3" d="M180.2643,186.6647l0-20.45a1.2979,1.2979,0,0,0-.649-1.124l-11.6144-6.7054a1.4128,1.4128,0,0,1-.7064-1.2235V139.02a1.7222,1.7222,0,0,0-.8612-1.4916l-11.3714-6.5653a1.474,1.474,0,0,1-.737-1.2766l0-19.101Q128.7436,87.95,103.1612,80.83a.5663.5663,0,0,0-.7143.5471v19.2092l-12.644-7.3a.2171.2171,0,0,0-.3256.188l0,19.5761-12.5444-7.2427a.2834.2834,0,0,0-.425.2454l0,28.8909a11.3387,11.3387,0,0,0,5.6693,9.82l85.3316,49.2662A8.504,8.504,0,0,0,180.2643,186.6647Z"/><path class="cls-4" d="M171.7607,195.6826a8.9743,8.9743,0,0,1-4.5019-1.2207l-85.332-49.2666a11.8692,11.8692,0,0,1-5.919-10.2519V106.0527a.7833.7833,0,0,1,1.1758-.6777l11.7939,6.8086v-18.71a.7169.7169,0,0,1,1.0762-.62L101.9473,99.72V81.377a1.06,1.06,0,0,1,.4238-.8516,1.0476,1.0476,0,0,1,.9248-.1768c17.0479,4.7442,34.3281,14.791,51.36,29.8633a.498.498,0,0,1,.1689.374v19.1006a.979.979,0,0,0,.4873.8448l11.3711,6.5644a2.2278,2.2278,0,0,1,1.1113,1.9248v18.1416a.9168.9168,0,0,0,.4561.791l11.6142,6.7051a1.8057,1.8057,0,0,1,.8994,1.5566v20.45a9.0357,9.0357,0,0,1-9.0039,9.0176ZM77.0078,106.4287v28.5147a10.87,10.87,0,0,0,5.419,9.3867l85.332,49.2666a8.0039,8.0039,0,0,0,12.0058-6.9317v-20.45a.8019.8019,0,0,0-.4-.6914l-11.6133-6.705a1.9161,1.9161,0,0,1-.9561-1.6563V139.0205a1.2276,1.2276,0,0,0-.6113-1.06l-11.3711-6.5644a1.9793,1.9793,0,0,1-.9873-1.71v-18.875C136.9609,95.9238,119.8721,86,103.0273,81.3115l-.08.0655v19.2089a.5.5,0,0,1-.75.4327l-12.22-7.0538V113.05a.5.5,0,0,1-.75.4326Zm12.5449-12.71.001.0009Z"/><rect class="cls-4" x="150.3124" y="95.1102" width="59.9045" height="0.9993" transform="translate(-23.6511 103.0223) rotate(-30.0227)"/><path class="cls-4" d="M89.6475,93.7686a.5.5,0,0,1-.2569-.9288L102.19,85.1816a.5.5,0,0,1,.5136.8575L89.9043,93.6973A.4912.4912,0,0,1,89.6475,93.7686Z"/><path class="cls-4" d="M76.6289,106.3271a.5.5,0,0,1-.2588-.9277l12.8487-7.7529a.5.5,0,1,1,.5175.8555l-12.8486,7.7529A.4992.4992,0,0,1,76.6289,106.3271Z"/><rect class="cls-4" x="150.3123" y="115.1866" width="59.9037" height="0.7508" transform="translate(-33.6244 105.4903) rotate(-29.9667)"/><rect class="cls-4" x="163.2823" y="142.6266" width="59.9032" height="0.7508" transform="translate(-45.5967 115.6369) rotate(-29.9667)"/><rect class="cls-4" x="163.2823" y="122.6744" width="59.9032" height="0.7508" transform="translate(-35.6307 112.9696) rotate(-29.9667)"/><rect class="cls-4" x="176.2518" y="150.1144" width="59.9037" height="0.7508" transform="translate(-47.603 123.1163) rotate(-29.9667)"/><path class="cls-4" d="M176.7051,193.9541a.3751.3751,0,0,1-.1875-.7l51.5254-29.709a8.077,8.077,0,0,0,3.7246-6.832V136.6592a1.6149,1.6149,0,0,0-.8037-1.3936l-11.0547-6.3818a2.2272,2.2272,0,0,1-1.1113-1.9238V109.1416a1.48,1.48,0,0,0-.7364-1.2773l-11.1592-6.4414a2.1549,2.1549,0,0,1-1.0742-1.86l.001-17.9355a1.8238,1.8238,0,0,0-.6221-1.3711c-16.5576-14.5049-33.3437-24.2315-49.8916-28.9112a2.3274,2.3274,0,0,0-1.7851.2295l-50.7227,29.58a.375.375,0,1,1-.3769-.6484l50.7236-29.5811a3.08,3.08,0,0,1,2.3643-.3027c16.6572,4.7109,33.54,14.4912,50.1826,29.0693a2.5755,2.5755,0,0,1,.8779,1.9356l-.001,17.9355a1.3988,1.3988,0,0,0,.6992,1.21l11.1592,6.4423a2.2321,2.2321,0,0,1,1.1114,1.9268V126.96a1.4731,1.4731,0,0,0,.7363,1.2734l11.0547,6.3828a2.3663,2.3663,0,0,1,1.1787,2.043v20.0537a8.8315,8.8315,0,0,1-4.085,7.4726l-51.54,29.7188A.3852.3852,0,0,1,176.7051,193.9541Z"/><path class="cls-4" d="M146.72,87.1553a9.6347,9.6347,0,0,1-5.06-1.377l-.6953-.4433a3.9713,3.9713,0,0,1-2.126-3.2539,3.139,3.139,0,0,1,1.7627-2.6114l17.5869-10.1533c2.3232-1.3418,6.2734-1.1172,8.8047.5l.6943.4453a3.9659,3.9659,0,0,1,2.126,3.2529,3.1375,3.1375,0,0,1-1.7627,2.61L150.4629,86.2793A7.6014,7.6014,0,0,1,146.72,87.1553Zm15.2012-17.792a6.6643,6.6643,0,0,0-3.2725.7519L141.0615,80.2686a2.261,2.261,0,0,0-1.3027,1.833,3.1012,3.1012,0,0,0,1.7012,2.457l.6953.4434c2.2314,1.4277,5.8261,1.6474,7.8467.4785l17.5869-10.1543h0a2.2586,2.2586,0,0,0,1.3027-1.833,3.0971,3.0971,0,0,0-1.7012-2.4551l-.6943-.4453A8.7659,8.7659,0,0,0,161.9209,69.3633Z"/><path class="cls-4" d="M148.6807,92.0664a18.7646,18.7646,0,0,1-9.5176-2.3457c-2.4785-1.5-3.832-3.5186-3.8125-5.6855.0215-2.294,1.5537-4.44,4.3144-6.043L154.5723,69.34c5.4814-3.1806,14.1728-3.2041,19.3769-.0556,2.4785,1.5,3.8321,3.5185,3.8125,5.6855-.0215,2.294-1.5537,4.4405-4.3154,6.043L158.54,89.665A20.0724,20.0724,0,0,1,148.6807,92.0664Zm15.7509-24.69a19.6021,19.6021,0,0,0-9.6367,2.3486L139.8877,78.377c-2.62,1.52-4.0732,3.5312-4.0928,5.6621-.0185,2.0039,1.26,3.8867,3.5987,5.3007,5.0791,3.0752,13.5673,3.0469,18.9238-.0595l14.9062-8.6524h0c2.62-1.52,4.0743-3.5312,4.0938-5.6621.0185-2.0039-1.26-3.8867-3.5986-5.3008A18.308,18.308,0,0,0,164.4316,67.376Z"/><path class="cls-3" d="M198.9112,158.2556l4.4578,2.5735a5.6693,5.6693,0,0,1,2.8348,4.91V178.93l10.97-9.681,2-11.1909a5.6694,5.6694,0,0,0-2.8349-4.91l-4.4578-2.5735Z"/><path class="cls-4" d="M206.2041,179.18a.2327.2327,0,0,1-.1025-.0225.2485.2485,0,0,1-.1475-.2275v-13.19a5.4339,5.4339,0,0,0-2.71-4.6934l-4.458-2.5732a.2526.2526,0,0,1-.125-.2159.2464.2464,0,0,1,.1231-.2158l12.97-7.6816a.2478.2478,0,0,1,.252-.002l4.458,2.5742a5.936,5.936,0,0,1,2.959,5.126l-2.004,11.2354a.2447.2447,0,0,1-.081.1435l-10.9688,9.6807A.2483.2483,0,0,1,206.2041,179.18Zm-6.7978-20.9268,4.0878,2.3594a5.9363,5.9363,0,0,1,2.96,5.127V178.376l10.4883-9.2569,1.9844-11.1054a5.4285,5.4285,0,0,0-2.7129-4.6485l-4.3311-2.5009Z"/><polygon class="cls-3" points="209.042 154.737 212.005 153.027 222.757 158.64 220.012 160.225 209.042 154.737"/><path class="cls-5" d="M220.0117,160.4756a.2554.2554,0,0,1-.1123-.0264l-10.97-5.4883a.25.25,0,0,1-.0127-.44l2.9629-1.71a.2528.2528,0,0,1,.24-.0048l10.752,5.6132a.25.25,0,0,1,.01.4385l-2.7451,1.585A.25.25,0,0,1,220.0117,160.4756Zm-10.4424-5.7539,10.4336,5.22,2.2344-1.29-10.2266-5.3389Z"/><polygon class="cls-3" points="209.042 154.737 209.042 167.436 220.012 172.924 220.012 160.225 209.042 154.737"/><path class="cls-5" d="M220.0117,173.1738a.2567.2567,0,0,1-.1123-.0263l-10.97-5.4883a.25.25,0,0,1-.1377-.2237V154.7373a.2511.2511,0,0,1,.1182-.2129.2551.2551,0,0,1,.2441-.0107l10.97,5.4883a.25.25,0,0,1,.1377.2236v12.6982a.2512.2512,0,0,1-.1181.2129A.2571.2571,0,0,1,220.0117,173.1738Zm-10.72-5.8925,10.47,5.2382V160.38l-10.47-5.2383Z"/><polygon class="cls-3" points="220.012 172.924 222.757 171.339 222.757 158.64 220.012 160.225 220.012 172.924"/><path class="cls-5" d="M220.0117,173.1738a.2493.2493,0,0,1-.25-.25V160.2256a.2518.2518,0,0,1,.125-.2168l2.7451-1.585a.2488.2488,0,0,1,.25,0,.2518.2518,0,0,1,.125.2168v12.6983a.2518.2518,0,0,1-.125.2168l-2.7451,1.5849A.2491.2491,0,0,1,220.0117,173.1738Zm.25-12.8037v12.1211l2.2451-1.2969V159.0732Z"/><polygon class="cls-3" points="202.949 158.201 205.912 156.49 216.664 162.104 213.919 163.689 202.949 158.201"/><path class="cls-5" d="M213.9189,163.9385a.2561.2561,0,0,1-.1123-.0264l-10.97-5.4873a.25.25,0,0,1-.0127-.44l2.9629-1.711a.25.25,0,0,1,.24-.0048l10.752,5.6132a.25.25,0,0,1,.01.4385l-2.7452,1.585A.25.25,0,0,1,213.9189,163.9385Zm-10.4423-5.753,10.4336,5.2188,2.2343-1.29-10.2265-5.3389Z"/><polygon class="cls-3" points="202.949 158.201 202.949 170.899 213.919 176.387 213.919 163.689 202.949 158.201"/><path class="cls-5" d="M213.9189,176.6377a.2561.2561,0,0,1-.1123-.0264l-10.97-5.4883a.25.25,0,0,1-.1377-.2236V158.2012a.2511.2511,0,0,1,.1182-.2129.2552.2552,0,0,1,.2441-.0108l10.97,5.4873a.2506.2506,0,0,1,.1376.2237v12.6992a.2512.2512,0,0,1-.1181.2129A.2568.2568,0,0,1,213.9189,176.6377Zm-10.72-5.8926,10.47,5.2383V163.8428l-10.47-5.2373Z"/><polygon class="cls-3" points="213.919 176.387 216.664 174.802 216.664 162.104 213.919 163.689 213.919 176.387"/><path class="cls-5" d="M213.9189,176.6377a.2493.2493,0,0,1-.25-.25V163.6885a.2518.2518,0,0,1,.125-.2168l2.7452-1.585a.2488.2488,0,0,1,.25,0,.2518.2518,0,0,1,.125.2168v12.6992a.2518.2518,0,0,1-.125.2168l-2.7452,1.585A.2491.2491,0,0,1,213.9189,176.6377Zm.25-12.8047v12.1221l2.2452-1.2969V162.5361Z"/><path class="cls-3" d="M198.9112,158.2556l4.4578,2.5735a5.6693,5.6693,0,0,1,2.8348,4.91V178.93l-7.2926-3.2778Z"/><path class="cls-4" d="M206.2041,179.18a.25.25,0,0,1-.1025-.0215l-7.293-3.2773a.2513.2513,0,0,1-.1475-.2286V158.2559a.2518.2518,0,0,1,.125-.2168.2484.2484,0,0,1,.25,0l4.458,2.5732a5.9363,5.9363,0,0,1,2.96,5.127v13.19a.25.25,0,0,1-.25.25Zm-7.043-3.69,6.793,3.0528V165.7393a5.4339,5.4339,0,0,0-2.71-4.6934l-4.083-2.3574Z"/><g id="_1" data-name="1"><path class="cls-3" d="M196.9333,168.3358l-14.9478,8.63,21.605,12.4736a1.6335,1.6335,0,0,0,1.6335,0l12.9059-7.4512a.8168.8168,0,0,0,0-1.4147Z"/><path class="cls-4" d="M204.4072,189.9082a1.88,1.88,0,0,1-.9414-.2519L181.86,177.1826a.2505.2505,0,0,1,0-.4336l14.9482-8.63a.2488.2488,0,0,1,.25,0l21.1963,12.2373a1.0668,1.0668,0,0,1,0,1.8487l-12.9063,7.4512A1.88,1.88,0,0,1,204.4072,189.9082Zm-21.9218-12.9424,21.23,12.2569a1.378,1.378,0,0,0,1.3828,0l12.9063-7.4512a.5658.5658,0,0,0,0-.9815l-21.0713-12.165Z"/><path class="cls-4" d="M212.001,193.8662a2.2158,2.2158,0,0,1-1.6905-.7949,4.4853,4.4853,0,0,1-.8613-3.48c.2871-2.3281,1.877-4.2217,3.5449-4.2217a2.22,2.22,0,0,1,1.6924.7949,4.4907,4.4907,0,0,1,.8594,3.48h0C215.2588,191.9727,213.6689,193.8662,212.001,193.8662Zm.9931-8.0644c-1.457,0-2.8545,1.7236-3.1152,3.8427a4.06,4.06,0,0,0,.7549,3.1407,1.7988,1.7988,0,0,0,1.3672.6494c1.457,0,2.8545-1.7237,3.1152-3.8428a4.0519,4.0519,0,0,0-.7539-3.14A1.7957,1.7957,0,0,0,212.9941,185.8018Zm2.337,3.8164h0Z"/><path class="cls-4" d="M223.4551,200.5254a2.2175,2.2175,0,0,1-1.6914-.7949,4.4867,4.4867,0,0,1-.8594-3.48c.2871-2.3281,1.877-4.2217,3.5449-4.2217a2.2175,2.2175,0,0,1,1.6914.7949,4.4867,4.4867,0,0,1,.8594,3.48C226.7129,198.6318,225.123,200.5254,223.4551,200.5254Zm.9941-8.0645c-1.457,0-2.8545,1.7237-3.1152,3.8428a4.0561,4.0561,0,0,0,.7539,3.1406,1.7989,1.7989,0,0,0,1.3672.6495c1.457,0,2.8545-1.7237,3.1152-3.8428a4.056,4.056,0,0,0-.7539-3.1406A1.7986,1.7986,0,0,0,224.4492,192.4609Z"/><ellipse class="cls-4" cx="202.516" cy="183.5639" rx="0.2893" ry="0.6572" transform="translate(-40.6887 308.3031) rotate(-69.3429)"/><ellipse class="cls-4" cx="208.1226" cy="180.384" rx="0.2893" ry="0.6572" transform="translate(-34.0846 311.4912) rotate(-69.3429)"/><path class="cls-3" d="M218.5185,181.7644,205.224,189.44a1.6335,1.6335,0,0,1-1.6335,0l-21.605-12.4736v8.4583l21.6024,12.6376a1.6334,1.6334,0,0,0,1.6415.0048l12.8707-7.43a.8168.8168,0,0,0,.4084-.7063Z"/><path class="cls-4" d="M204.4131,198.5352a1.8791,1.8791,0,0,1-.9512-.2579L181.8594,185.64a.249.249,0,0,1-.124-.2158v-8.458a.2517.2517,0,0,1,.125-.2168.2488.2488,0,0,1,.25,0l21.6054,12.4737a1.378,1.378,0,0,0,1.3828,0l13.295-7.6748a.2484.2484,0,0,1,.25,0,.2518.2518,0,0,1,.125.2167l-.01,8.1651a1.0727,1.0727,0,0,1-.5342.9238l-12.87,7.43A1.8819,1.8819,0,0,1,204.4131,198.5352ZM182.2354,185.28l21.4785,12.5654a1.3829,1.3829,0,0,0,1.3906.0039l12.87-7.43a.57.57,0,0,0,.2842-.4912l.0088-7.73-12.919,7.4581a1.8849,1.8849,0,0,1-1.8828,0l-21.23-12.2579Z"/><path class="cls-3" d="M213.8147,185.7669l11.8616,6.9129a1.9468,1.9468,0,0,0-1.2275-.4347c-1.5647,0-3.0556,1.8053-3.33,4.0323-.2238,1.8164.4309,3.3523,1.5289,3.8569l-11.7736-6.8436a3.8758,3.8758,0,0,1-1.21-3.6728c.2744-2.227,1.7653-4.0323,3.33-4.0323A1.9175,1.9175,0,0,1,213.8147,185.7669Z"/><path class="cls-4" d="M222.5576,200.33a2.2187,2.2187,0,0,1-.3672-.2119l-11.4248-6.6407a4.107,4.107,0,0,1-1.3164-3.8857c.2871-2.3281,1.877-4.2217,3.5449-4.2217a2.15,2.15,0,0,1,.9122.2l.0166.01,11.3359,6.6064a2.2121,2.2121,0,0,1,.5517.3242l-.2431.3555-.5039-.2939a1.7286,1.7286,0,0,0-.6143-.1114c-1.457,0-2.8545,1.7237-3.1152,3.8428a3.7155,3.7155,0,0,0,1.1,3.4561l.3223.1875Zm-9.5635-14.5283c-1.457,0-2.8545,1.7236-3.1152,3.8427a3.6865,3.6865,0,0,0,1.1191,3.47l10.3467,6.0127a4.9185,4.9185,0,0,1-.44-2.876c.27-2.1944,1.6982-4.002,3.2578-4.2031l-10.4473-6.09A1.7145,1.7145,0,0,0,212.9941,185.8018Z"/><path class="cls-4" d="M223.6074,199.3242a1.6354,1.6354,0,0,1-1.249-.5859,3.2106,3.2106,0,0,1-.62-2.4912c.208-1.6914,1.332-3.0166,2.5586-3.0166h0a1.6371,1.6371,0,0,1,1.248.5849,3.2142,3.2142,0,0,1,.62,2.4922h0C225.958,197.999,224.834,199.3242,223.6074,199.3242Zm.6895-5.5937c-.9619,0-1.8877,1.1562-2.0625,2.5771a2.7135,2.7135,0,0,0,.499,2.1,1.1509,1.1509,0,0,0,.874.417c.9619,0,1.8867-1.1562,2.0615-2.5771h0a2.7119,2.7119,0,0,0-.499-2.1A1.1487,1.1487,0,0,0,224.2969,193.7305Z"/></g><path class="cls-5" d="M131.13,78.8642l-3.6717,2.1227-8.97-5.0364,3.4418-1.99,1.7308.9718-1.8623,1.0767,1.8241,1.0242L125.22,76.11l1.6662.9355-1.5972.9234,1.9822,1.1129,2.0922-1.21Z"/><path class="cls-5" d="M135.75,76.0268a2.5524,2.5524,0,0,1-1.024.9631,5.8791,5.8791,0,0,1-3.41.6209,10.455,10.455,0,0,1-4.3472-1.4233q-2.3414-1.3146-2.6386-2.489a1.5573,1.5573,0,0,1,.8813-1.8559,5.9483,5.9483,0,0,1,1.9564-.6209l1.8816,1.0565a9.9978,9.9978,0,0,0-1.2508.2212,2.4441,2.4441,0,0,0-.4481.2018.8257.8257,0,0,0-.4642.9885q.16.6274,1.7046,1.4944a6.974,6.974,0,0,0,2.6938.992,2.996,2.996,0,0,0,1.7557-.3071,1.3251,1.3251,0,0,0,.6626-.9914Z"/><path class="cls-5" d="M127.3359,70.8356l1.5912-.92,3.4257,1.9234,1.491-.862-3.4256-1.9235,1.5912-.92,8.97,5.0364-1.5912.92-3.7919-2.1291-1.4793.8553,3.7919,2.129-1.603.9268Z"/><path class="cls-5" d="M145.4211,70.6021l-3.6717,2.1227-8.97-5.0363,3.4418-1.99,1.7308.9718L136.09,67.7471l1.8241,1.0242,1.5971-.9233,1.6662.9355-1.5972.9233,1.9822,1.1129,2.0922-1.2095Z"/><path class="cls-5" d="M149.3786,68.3141l-3.4419,1.99-8.97-5.0364,1.5794-.9131,7.2032,4.0444,1.8624-1.0767Z"/><path class="cls-5" d="M145.0277,65.6653a8.959,8.959,0,0,1-2.4362-1.7507,1.7783,1.7783,0,0,1-.4788-1.2864,1.5752,1.5752,0,0,1,.9172-1.0868,3.75,3.75,0,0,1,1.4152-.495,7.3,7.3,0,0,1,1.6245.0021,7.8594,7.8594,0,0,1,1.8822.4423,15.7938,15.7938,0,0,1,2.2931,1.0927q2.7075,1.52,2.9984,2.5264t-.8818,1.6843a4.8272,4.8272,0,0,1-2.976.5052A11.95,11.95,0,0,1,145.0277,65.6653Zm1.1338-1.2776.5746.3226a19.8432,19.8432,0,0,0,1.94,1.0021,2.8071,2.8071,0,0,0,1.0345.2081,1.6857,1.6857,0,0,0,.8567-.2007.4612.4612,0,0,0,.2673-.441.984.984,0,0,0-.4348-.62,14.2663,14.2663,0,0,0-1.7334-1.0808,17.3636,17.3636,0,0,0-1.7565-.8955,3.5875,3.5875,0,0,0-1.1292-.2679,1.58,1.58,0,0,0-.8981.1673q-.5068.293-.1958.7229A4.943,4.943,0,0,0,146.1615,64.3877Z"/><path class="cls-5" d="M160.5605,61.8494l-1.68.9711-7.5333-2.094-.0236.0137,5.6592,3.1774-1.5441.8927-8.9843-5.0444,1.7386-1.0051,7.4176,2.0626.03-.0171-5.573-3.1291,1.5088-.8722Z"/><path class="cls-5" d="M170.326,90.05q1.7267.9862.1014,1.92a3.3079,3.3079,0,0,1-3.5014.0447l-5.2682-3.0092.9663-.555,4.8785,2.7865a4.6267,4.6267,0,0,0,1.2282.5388,1.2992,1.2992,0,0,0,.92-.1845c.3184-.1828.4123-.3571.28-.524a3.962,3.962,0,0,0-1.0036-.71l-4.8243-2.7556.9664-.555Z"/><path class="cls-5" d="M170.2791,87.1331a1.2366,1.2366,0,0,1,.4189-.4106,2.5985,2.5985,0,0,1,1.4382-.3285,4.8976,4.8976,0,0,1,2.0533.7509q1.2913.7375,1.3905,1.263.1008.5265-.769,1.0259a2.8224,2.8224,0,0,1-1.722.38,5.3233,5.3233,0,0,1-2.0579-.7483,9.4207,9.4207,0,0,1-1.157-.7546,4.6938,4.6938,0,0,1-.751-.7546,8.04,8.04,0,0,1-.6547-.986l-.635-1.1363,1.09-.6262.8062,1.4672Zm1.8031,1.3411a5.206,5.206,0,0,0,1.2069.5461,1.0384,1.0384,0,0,0,.7948-.093q.5849-.3358-.5483-.9839l-.098-.0429-.1137-.0649-.2226-.14-.1083-.0618a2.6491,2.6491,0,0,0-1.0629-.4092,1.1181,1.1181,0,0,0-.6017.116q-.358.2057-.2454.4238a1.9311,1.9311,0,0,0,.7106.5582l.1088.0491Z"/><path class="cls-5" d="M172.0216,82.9047a2.9229,2.9229,0,0,1,1.9922-.2907,10.6952,10.6952,0,0,1,3.19,1.3559,11.4835,11.4835,0,0,1,2.11,1.4069,1.152,1.152,0,0,1,.4219.8531q-.03.393-.6155.7293a2.706,2.706,0,0,1-1.3857.3455,4.5038,4.5038,0,0,1-1.5969-.3209,19.5833,19.5833,0,0,1-2.41-1.2231,10.3289,10.3289,0,0,1-1.857-1.2457,1.2514,1.2514,0,0,1-.4518-.8544q.0007-.41.592-.7494Zm3.5672,1.3278-.2436-.1392q-.8025-.4582-1.12-.5982a2.7775,2.7775,0,0,0-.7281-.1971,1.0178,1.0178,0,0,0-.6581.0864c-.2422.1391-.2553.3191-.04.5375a7.15,7.15,0,0,0,1.3607.92l.222.1268.2442.1265.2437.1392.5744.3411.1679.0959a10.9028,10.9028,0,0,0,1.6993.8339,1.1642,1.1642,0,0,0,.98-.02c.1706-.0979.2342-.2113.1919-.34a1.0985,1.0985,0,0,0-.4388-.4525q-.375-.259-1.8867-1.1232l-.2881-.1646Z"/><path class="cls-5" d="M172.7343,92.5639l-.7065.4046,1.7241.964.6317-.3618.6219.3477-.6317.3618,2.496,1.3956-.41.2347-5.4639-3.0549,1.1164-.6394Z"/><path class="cls-5" d="M174.3908,91.6151l-.47.2693,4.8421,2.7073-.4147.2375-4.8421-2.7072-.4678.2679-.6219-.3477,1.3527-.7748Z"/><path class="cls-5" d="M174.8605,90.6423l.5979-.3425a1.7627,1.7627,0,0,1,1.2374-.0655,9.8629,9.8629,0,0,1,2.3828,1.0552A8.1352,8.1352,0,0,1,181,92.6066q.4073.4707-.15.79l-.5257.3011Zm.9765.0766,4.3489,2.4315q.26-.1491.2239-.3224t-.4377-.4726a13.33,13.33,0,0,0-1.3361-.8221,11.2743,11.2743,0,0,0-1.7883-.8593,1.1715,1.1715,0,0,0-.9552.0131Z"/><path class="cls-5" d="M176.7183,89.5783l.4148-.2376,5.4639,3.055-.4147.2375Z"/><path class="cls-5" d="M184.4577,91.33l-.3255.1864-4.5335-1.6478-.0082.0063,3.7484,2.0958-.3713.2127-5.464-3.055.33-.1892,4.5359,1.6464.0125-.0039L178.63,88.4836l.3641-.2085Z"/><path class="cls-1" d="M7.8794,144.91l14.0007-8.084a1.2664,1.2664,0,0,1,1.9,1.0968v10.526a1.2663,1.2663,0,0,1-.6333,1.0968L7.8794,158.3611V171.552L58.06,142.5376V94.6157L7.8794,123.5876Zm23.3882-12.772a1.2666,1.2666,0,0,1,.6332-1.0968l16.3728-9.4535a1.2664,1.2664,0,0,1,1.9,1.0968v10.526a1.2661,1.2661,0,0,1-.6332,1.0968l-16.3727,9.4535a1.2664,1.2664,0,0,1-1.9-1.0966Z"/><path class="cls-6" d="M7.8789,211.1045a.5.5,0,0,1-.25-.9326l68.1729-39.3594L57.8994,143.209l-49.77,28.7754a.5.5,0,0,1-.5-.8653l50.1816-29.0136a.5013.5013,0,0,1,.67.16L76.9277,170.71a.5.5,0,0,1-.17.705L8.1289,211.0371A.4958.4958,0,0,1,7.8789,211.1045Z"/><path class="cls-6" d="M7.8789,115.2607a.3751.3751,0,0,1-.1875-.7l45.458-26.2441L7.6914,62.0713a.3754.3754,0,0,1,.375-.65l46.0205,26.57a.3758.3758,0,0,1,0,.65l-46.02,26.5693A.3824.3824,0,0,1,7.8789,115.2607Z"/><path class="cls-6" d="M7.8789,124.0879a.5.5,0,0,1-.25-.9326L57.3506,94.4482l-3.6094-5.4638L8.1289,115.3184a.5.5,0,0,1-.5-.8653L53.6494,87.8838a.4979.4979,0,0,1,.667.1572l4.1611,6.3a.4993.4993,0,0,1-.167.708L8.1289,124.0205A.4958.4958,0,0,1,7.8789,124.0879Z"/><path class="cls-6" d="M58.0605,143.0381a.5.5,0,0,1-.5-.5V94.6162a.5.5,0,0,1,1,0v47.9219A.5.5,0,0,1,58.0605,143.0381Z"/><path class="cls-6" d="M33.7744,149.4805a1.6079,1.6079,0,0,1-1.6015-1.6035V137.0508a1.6039,1.6039,0,0,1,.8007-1.3867l16.8389-9.7227a1.6011,1.6011,0,0,1,2.4014,1.3867v10.8262a1.6041,1.6041,0,0,1-.8008,1.3867l-16.8379,9.7227A1.6,1.6,0,0,1,33.7744,149.4805Zm16.8379-23.1573a.999.999,0,0,0-.501.1358l-16.8388,9.7226a1.0066,1.0066,0,0,0-.502.8692V147.877a1.0035,1.0035,0,0,0,1.5059.8691l16.8379-9.7227a1.0065,1.0065,0,0,0,.5019-.8691V127.3281a1.0069,1.0069,0,0,0-1.0039-1.0049Z"/><path class="cls-6" d="M47.4824,136.9463a.59.59,0,0,1-.2978-.08l-3.3184-1.916a.5977.5977,0,0,1,.5977-1.0352l3.3183,1.9161a.5976.5976,0,0,1-.3,1.1152Z"/><path class="cls-6" d="M39.8525,141.49a.5916.5916,0,0,1-.2978-.08l-3.4395-1.9854a.5977.5977,0,0,1,.5977-1.0352l3.4394,1.9854a.5976.5976,0,0,1-.3,1.1152Z"/><path class="cls-6" d="M33.9912,147.7852a.334.334,0,0,1-.0693-.0079.2987.2987,0,0,1-.23-.291v-9.9912a.2982.2982,0,0,1,.1445-.2558l16.34-9.8418a.2989.2989,0,0,1,.4531.2558v9.9912a.2993.2993,0,0,1-.5166.2051l-.3018-.3213a14.3281,14.3281,0,0,1-2.831,2.4834,9.8086,9.8086,0,0,1-4.4532,1.22,15.7607,15.7607,0,0,1-3.97,3.8536,11.645,11.645,0,0,1-3.6767,1.3056l-.6231,1.2305A.2988.2988,0,0,1,33.9912,147.7852Zm.2988-10.1211v8.5713l.128-.252a.3.3,0,0,1,.23-.1621,11.0593,11.0593,0,0,0,3.6152-1.2559,15.9529,15.9529,0,0,0,3.8662-3.8017.3.3,0,0,1,.2393-.125,9.5788,9.5788,0,0,0,4.29-1.1309,14.1622,14.1622,0,0,0,2.91-2.6152.3054.3054,0,0,1,.2216-.11.34.34,0,0,1,.2286.0938l.0136.0146v-8.709Z"/><path class="cls-6" d="M10.4424,162.7891a1.6069,1.6069,0,0,1-1.6016-1.6036V150.3594a1.6064,1.6064,0,0,1,.8-1.3867L26.48,139.25a1.6011,1.6011,0,0,1,2.4023,1.3867v10.8262a1.6075,1.6075,0,0,1-.8007,1.3867l-16.8389,9.7227A1.5992,1.5992,0,0,1,10.4424,162.7891ZM27.28,139.6318a1.0023,1.0023,0,0,0-.502.1358L9.94,149.49a1.0077,1.0077,0,0,0-.501.8692v10.8261a1.0034,1.0034,0,0,0,1.5049.8692l16.8388-9.7227a1.0063,1.0063,0,0,0,.502-.8691V140.6367a1.0057,1.0057,0,0,0-1.0039-1.0049Z"/><path class="cls-6" d="M24.15,150.2539a.5911.5911,0,0,1-.2979-.08l-3.3183-1.916a.5976.5976,0,1,1,.5976-1.0351l3.3184,1.916a.5976.5976,0,0,1-.3,1.1152Z"/><path class="cls-6" d="M16.5205,154.7988a.5914.5914,0,0,1-.2978-.08l-3.4395-1.9854a.5977.5977,0,0,1,.5977-1.0352l3.4394,1.9854a.5976.5976,0,0,1-.3,1.1152Z"/><path class="cls-6" d="M10.6592,161.0938a.3349.3349,0,0,1-.0694-.0079.2987.2987,0,0,1-.2294-.291v-9.9912a.298.298,0,0,1,.1445-.2558l16.3389-9.8418a.2988.2988,0,0,1,.4531.2558v9.9912a.2982.2982,0,0,1-.5166.2041l-.3008-.32a14.3563,14.3563,0,0,1-2.8311,2.4834,9.8112,9.8112,0,0,1-4.4541,1.22,15.7389,15.7389,0,0,1-3.9687,3.8526,11.6213,11.6213,0,0,1-3.6768,1.3066l-.623,1.2305A.2991.2991,0,0,1,10.6592,161.0938Zm.2988-10.1211v8.5712l.1279-.2519a.3.3,0,0,1,.2295-.1621,11.0479,11.0479,0,0,0,3.6153-1.2569,15.9376,15.9376,0,0,0,3.8662-3.8007.2993.2993,0,0,1,.2392-.125,9.583,9.583,0,0,0,4.29-1.1309,14.15,14.15,0,0,0,2.91-2.6162.3026.3026,0,0,1,.2217-.11.3355.3355,0,0,1,.2285.0948l.0127.0127V141.49Z"/><path class="cls-1" d="M11.4318,219.05a3.4361,3.4361,0,0,0,.1872.417A3.4585,3.4585,0,0,1,11.4318,219.05Z"/><path class="cls-1" d="M11.1786,217.7365c.0082.16.0214.3168.0438.4686C11.2,218.0536,11.1868,217.8965,11.1786,217.7365Z"/><path class="cls-1" d="M12.0849,220.1125a2.1807,2.1807,0,0,0,.2869.2491A2.1669,2.1669,0,0,1,12.0849,220.1125Z"/><path class="cls-1" d="M11.9905,220.022a2.7441,2.7441,0,0,1-.3153-.44A2.729,2.729,0,0,0,11.9905,220.022Z"/><path class="cls-1" d="M15.2285,213.0773l-.1135-.0673c-.05-.0216-.1007-.0422-.1528-.0592A1.8356,1.8356,0,0,1,15.2285,213.0773Z"/><path class="cls-1" d="M14.8829,212.9294a1.8132,1.8132,0,0,0-.4875-.0725A1.8126,1.8126,0,0,1,14.8829,212.9294Z"/><path class="cls-1" d="M11.2634,218.437a4.2134,4.2134,0,0,0,.1043.4107A4.2349,4.2349,0,0,1,11.2634,218.437Z"/><path class="cls-1" d="M11.1671,217.5159a5.6,5.6,0,0,1,.0375-.73A5.5987,5.5987,0,0,0,11.1671,217.5159Z"/><polygon class="cls-4" points="15.341 213.375 15.353 213.343 15.336 213.372 15.271 213.327 15.489 212.972 15.559 213.019 15.341 213.375"/><path class="cls-4" d="M13.4434,220.9248a2.0179,2.0179,0,0,1-1.03-.293,1.6212,1.6212,0,0,1-.1641-.1015,2.344,2.344,0,0,1-.3125-.2715,1.1831,1.1831,0,0,1-.1025-.0986,3.0474,3.0474,0,0,1-.34-.4727c-.0156-.0273-.0283-.0557-.041-.083a4.3174,4.3174,0,0,1-.2168-.4824c-.0175-.0489-.0332-.0967-.0478-.1455l-.0205-.0655c-.043-.1406-.0791-.2841-.1094-.4336-.0156-.0791-.03-.1591-.043-.2421-.0234-.1573-.0371-.3213-.0459-.4893l-.0039-.0684c-.0039-.0527-.0068-.1054-.0078-.1591a5.7441,5.7441,0,0,1,.04-.7588c.2745-2.2666,1.7989-4.1123,3.3975-4.1123a1.9914,1.9914,0,0,1,.544.081.9018.9018,0,0,1,.0908.0254,1.4968,1.4968,0,0,1,.2363.1074l.3516.2051a4,4,0,0,1,1.2226,3.7451C16.5664,219.0791,15.042,220.9248,13.4434,220.9248Zm.9521-7.8594c-1.3945,0-2.7334,1.6807-2.9834,3.7461a5.3679,5.3679,0,0,0-.0361.7022c0,.0459.0039.0908.0068.1357l.0049.0762a4.4189,4.4189,0,0,0,.042.4492c.0107.0752.0234.1475.0381.22.0273.1368.0615.2666.1.3926l.0205.0674c.0127.042.0254.084.04.125a3.2894,3.2894,0,0,0,.1758.39l.03.0635a2.5542,2.5542,0,0,0,.3135.4522l.0849.08a1.9876,1.9876,0,0,0,.26.2256c.0351.0254.0693.045.1035.0655a1.6557,1.6557,0,0,0,.8477.2509c1.3945,0,2.7334-1.6806,2.9834-3.7461a3.6549,3.6549,0,0,0-1.0479-3.3525l-.3076-.1777a1.1259,1.1259,0,0,0-.1738-.0811l-.0674-.0176A1.6031,1.6031,0,0,0,14.3955,213.0654Zm-.8242,6.8037a1.5989,1.5989,0,0,1-1.2178-.5732,3.2751,3.2751,0,0,1-.6269-2.5352c.2041-1.6855,1.3437-3.0576,2.541-3.0576a1.5993,1.5993,0,0,1,1.2178.5733,3.2748,3.2748,0,0,1,.6269,2.5351C15.9082,218.4971,14.7686,219.8691,13.5713,219.8691Zm.6963-5.748c-.9932,0-1.9473,1.207-2.127,2.69a2.863,2.863,0,0,0,.5254,2.208,1.1951,1.1951,0,0,0,.9053.4317c.9932,0,1.9473-1.2071,2.1269-2.69h0a2.8628,2.8628,0,0,0-.5253-2.208A1.1953,1.1953,0,0,0,14.2676,214.1211Z"/><path class="cls-4" d="M12.38,220.6162l-.0264-.0156a.79.79,0,0,1-.0762-.0459l.2266-.3506.09.0537Z"/><path class="cls-3" d="M7.3055,217.3739l5.0923,3.01c-.0093-.0065-.0168-.0161-.026-.0227a2.1807,2.1807,0,0,1-.2869-.2491c-.0309-.0314-.0648-.0571-.0944-.0905a2.729,2.729,0,0,1-.3153-.44c-.0209-.036-.0365-.0778-.0562-.1151a3.4361,3.4361,0,0,1-.1872-.417c-.024-.0653-.0432-.1338-.0641-.2019a4.2134,4.2134,0,0,1-.1043-.4107c-.0153-.0765-.0294-.1528-.041-.2319-.0224-.1518-.0356-.3084-.0438-.4686-.0039-.0739-.0109-.1452-.0115-.2206a5.5987,5.5987,0,0,1,.0375-.73c.2629-2.17,1.6915-3.9295,3.1908-3.9295a1.8132,1.8132,0,0,1,.4875.0725c.0265.0074.0533.013.0793.0214.0521.017.1026.0376.1528.0592l-7.8095-4.6287"/><path class="cls-4" d="M12.291,220.5635l-5.0918-3.01a.2089.2089,0,0,1,.2129-.3594l4.0254,2.38a4.1356,4.1356,0,0,1-.2012-.4521c-.0185-.0518-.0351-.1026-.0508-.1543l-.0175-.0576c-.043-.14-.0791-.2832-.1094-.4327-.0156-.0791-.03-.1591-.043-.2421-.0234-.1573-.0371-.3213-.0459-.4893l-.0039-.0684c-.0039-.0527-.0068-.1054-.0078-.1591a5.7441,5.7441,0,0,1,.04-.7588c.2588-2.1377,1.63-3.9014,3.126-4.0948l-6.9248-4.1035a.2085.2085,0,0,1-.0732-.2861.2108.2108,0,0,1,.2861-.0733l7.81,4.628-.1875.372c-.0449-.0185-.0889-.0371-.1348-.0517l-.0693-.0186a1.6031,1.6031,0,0,0-.4346-.0664c-1.3945,0-2.7334,1.6807-2.9834,3.7461a5.2064,5.2064,0,0,0-.0361.7022c0,.0459.0039.0908.0068.1357l.0049.0762a4.4189,4.4189,0,0,0,.042.4492c.0107.0752.0234.1475.0381.22.0273.1368.0615.2666.1.3926l.0176.0586c.0136.0449.0273.09.0429.1338a3.2894,3.2894,0,0,0,.1758.39l.03.0635a2.5429,2.5429,0,0,0,.3135.4522c.01.0107.0234.0224.0371.0351l.0478.0449a2.0117,2.0117,0,0,0,.2608.2266l-.003.0049.0137.0078Z"/><path class="cls-3" d="M15.38,213.1492a1.8791,1.8791,0,0,0-.2648-.1392l.1135.0673C15.2783,213.103,15.3322,213.119,15.38,213.1492Z"/><path class="cls-4" d="M15.2686,213.3262l-.001-.001a.6218.6218,0,0,0-.0615-.0293.6824.6824,0,0,1-.0723-.0332l-.125-.0732.19-.3711a2.3735,2.3735,0,0,1,.292.1543h0Z"/><path class="cls-3" d="M12.67,220.5449c-.0532-.0249-.1-.0632-.1512-.0931-.01-.006-.0216-.0089-.0316-.015Z"/><path class="cls-4" d="M12.584,220.7354a.7866.7866,0,0,1-.1113-.0645l-.0928-.0547.206-.3633a1.09,1.09,0,0,1,.1075.0635l.0009.001.0821.0478Z"/><path class="cls-3" d="M15.5716,213.2806c-.0372-.03-.078-.0528-.1167-.08.014.01.0255.0239.0393.034Z"/><path class="cls-4" d="M15.4648,213.46l-.1347-.0918.247-.3379c.0684.0459.0967.0654.1231.0859Z"/><path class="cls-3" d="M12.3978,220.3843l.089.0525c.01.0061.0215.009.0316.015-.05-.0289-.0993-.0565-.1466-.09C12.381,220.3682,12.3885,220.3778,12.3978,220.3843Z"/><path class="cls-4" d="M12.4189,220.6357l-.1816-.1142.2578-.3291c.0322.0234.0664.043.1006.0635Z"/><path class="cls-3" d="M14.9622,212.9508c-.026-.0084-.0528-.014-.0793-.0214C14.9093,212.9368,14.9363,212.9424,14.9622,212.9508Z"/><path class="cls-4" d="M14.8936,213.1484l-.04-.0107.082-.41a.9484.9484,0,0,1,.0948.0264Z"/><path class="cls-3" d="M11.2224,218.2051c.0116.0791.0257.1554.041.2319C11.2482,218.3607,11.234,218.2839,11.2224,218.2051Z"/><path class="cls-4" d="M11.06,218.4785c-.0166-.08-.0313-.16-.044-.2431l.4141-.0606c.0107.0752.0234.1475.0381.22Z"/><path class="cls-3" d="M15.4942,213.2347c-.0138-.01-.0253-.0243-.0393-.034-.025-.0175-.05-.0354-.0751-.0515-.0476-.03-.1015-.0462-.1513-.0719Z"/><path class="cls-4" d="M15.3877,213.4141l-.2656-.1573.2011-.3652a1.13,1.13,0,0,1,.168.0811l.0518.0341a.6767.6767,0,0,1,.0761.06Z"/><path class="cls-3" d="M11.3677,218.8477c.0209.0681.04.1366.0641.2019C11.4079,218.9845,11.3885,218.9155,11.3677,218.8477Z"/><path class="cls-4" d="M11.2354,219.12l-.001-.0019c-.0176-.0489-.0332-.1-.0489-.15l-.0175-.0576.3984-.126.0215.07c.0127.042.0254.084.04.125Z"/><path class="cls-3" d="M12.0849,220.1125c-.0309-.0313-.0649-.0571-.0944-.0905C12.02,220.0554,12.054,220.0811,12.0849,220.1125Z"/><path class="cls-4" d="M11.9375,220.26l-.03-.0284a.7121.7121,0,0,1-.0732-.0712l.3105-.2784.003.003.0849.08Z"/><path class="cls-3" d="M11.619,219.4666c.02.0373.0353.0791.0562.1151C11.6544,219.5457,11.6386,219.5039,11.619,219.4666Z"/><path class="cls-4" d="M11.4932,219.6855c-.0147-.0253-.0274-.0537-.04-.081l.3506-.2354.03.0635Z"/><path class="cls-3" d="M11.1786,217.7365c-.0038-.0737-.0109-.1454-.0115-.2206C11.1677,217.5913,11.1747,217.6626,11.1786,217.7365Z"/><path class="cls-4" d="M10.97,217.7471l-.0039-.0694c-.0039-.0527-.0068-.1054-.0078-.1591l.418-.0059c0,.0469.0039.0918.0068.1367l.0049.0762Z"/><path class="cls-4" d="M13.5713,219.91a1.6392,1.6392,0,0,1-1.2481-.587,3.3163,3.3163,0,0,1-.6377-2.5673c.21-1.7344,1.3448-3.0938,2.5821-3.0938a1.6389,1.6389,0,0,1,1.248.5869,3.3179,3.3179,0,0,1,.6377,2.5674C15.9434,218.5508,14.8086,219.91,13.5713,219.91Zm.6963-5.7481c-.9727,0-1.9082,1.19-2.086,2.6543a2.8175,2.8175,0,0,0,.5157,2.1758,1.1535,1.1535,0,0,0,.874.418c.9726,0,1.9082-1.1905,2.0859-2.6543a2.817,2.817,0,0,0-.5156-2.1758A1.1531,1.1531,0,0,0,14.2676,214.1621Z"/><path class="cls-3" d="M35.6743,232.9046c7.0175,4.261,16.8116,2.8154,27.8636-3.5655s28.9356-17.0135,38.909-22.7716,15.8365-4.8836,24.0148-.1619,39.2715,22.4144,51.3162,30.2032,31.5711,13.8229,40.8009,9.2536c13.1192-7.2227,29.5776-16.9968,35.99-21.51,4.4443-3.1279,2.5671-11.0638-5.1692-16.0476-4.9751-3.205-24.6916-14.6438-24.6916-14.6438l-2.1047,5.1214s14.9429,8.2926,20.0839,11.2241,9.2161,9.471,2.4252,13.3918l-25.9392,14.976c-12.97,7.488-33.1112-2.7774-39.471-7.2368s-43.1379-25.4815-51.3162-30.2033-16.2462-5.5962-26.22.162L63.5379,223.3984c-11.052,6.3808-18.9216,8.296-25.9392,4.0349L14.6581,213.97l-1.5636,5.5992Z"/><path class="cls-4" d="M208.3037,241.2676c-11.5654.001-24.1621-6.7119-28.7451-9.9248-5.4971-3.8555-34.3047-20.419-46.6065-27.4922-1.9833-1.14-3.5947-2.0664-4.6914-2.6992-8.8828-5.128-16.8916-5.08-25.97.1621L63.6631,223.6152c-11.9551,6.9014-19.544,8.0694-26.1943,4.0323l-22.9375-13.462a.25.25,0,1,1,.2539-.4316l22.94,13.4639c6.4717,3.9287,13.914,2.7617,25.6875-4.0362L102.041,200.88c9.25-5.3418,17.4151-5.39,26.47-.1621,1.0967.6338,2.7081,1.5595,4.69,2.7,13.35,7.6748,41.1289,23.6465,46.6445,27.5146,6.06,4.2481,26.2656,14.6953,39.2022,7.2246,4.9472-2.8554,8.8632-5.082,12.3173-7.0459,5.5069-3.1308,9.4854-5.3925,13.6162-7.9258,2.7413-1.6816,4.1163-3.5156,4.085-5.4521-.0547-3.4619-4.5664-6.4053-6.5029-7.51-5.0821-2.8974-19.89-11.2461-20.0391-11.33a.25.25,0,0,1,.2461-.4356c.1484.084,14.957,8.4336,20.041,11.332,2.4981,1.4248,6.6973,4.35,6.7549,7.9356.0342,2.125-1.4209,4.1055-4.3232,5.8857-4.1387,2.5381-8.12,4.8018-13.6309,7.9346-3.4541,1.9639-7.3682,4.19-12.3144,7.0449A21.735,21.735,0,0,1,208.3037,241.2676Z"/><path class="cls-4" d="M210.4688,247.666c-9.9131,0-23.3614-4.7265-32.8262-10.8476-9.9522-6.4346-32.8877-19.61-45.209-26.6885-2.5752-1.4785-4.6807-2.6885-6.0967-3.5078-8.6533-5.0117-13.5459-5.7383-23.7646.1621-4.8643,2.8076-11.503,6.7129-18.5313,10.8467-7.2353,4.2548-14.7168,8.6562-20.3779,11.9248-11.3985,6.5791-21.1231,7.8115-28.1192,3.5625l-22.5761-13.334a.25.25,0,1,1,.2539-.43L35.8008,232.69c6.8359,4.1494,16.3828,2.915,27.6123-3.5674,5.6592-3.2676,13.1406-7.667,20.375-11.9229,7.0283-4.1338,13.668-8.039,18.5342-10.8486,9.6494-5.5693,14.8652-5.6016,24.2646-.1621,1.416.82,3.5205,2.0293,6.0957,3.5078,12.3252,7.081,35.2686,20.26,45.2315,26.7021,12.4,8.0186,31.6552,13.6446,40.5537,9.24,11.94-6.5742,27.9453-15.8672,34.8447-20.7227a6.7253,6.7253,0,0,0,2.6113-5.8125c-.081-3.9961-2.5713-7.9541-6.66-10.5889-4.9131-3.165-24.4014-14.6074-24.5977-14.7226a.25.25,0,1,1,.2539-.4316c.1963.1152,19.6924,11.5625,24.6153,14.7343,4.2285,2.7246,6.8037,6.836,6.8886,10.9981a7.2134,7.2134,0,0,1-2.8242,6.2314c-6.9141,4.8672-22.9385,14.1719-34.9,20.7569A18.73,18.73,0,0,1,210.4688,247.666Z"/></g><path class="cls-4" d="M533.4141,284.4648H6.17A6.1763,6.1763,0,0,1,0,278.2959V6.17A6.1766,6.1766,0,0,1,6.17,0H533.4141a6.1764,6.1764,0,0,1,6.1689,6.17v272.126A6.1761,6.1761,0,0,1,533.4141,284.4648ZM6.17,1A5.1759,5.1759,0,0,0,1,6.17v272.126a5.175,5.175,0,0,0,5.17,5.1689H533.4141a5.1742,5.1742,0,0,0,5.1689-5.1689V6.17A5.1751,5.1751,0,0,0,533.4141,1Z"/></g></g></g></svg>