<svg xmlns="http://www.w3.org/2000/svg" xmlns:xlink="http://www.w3.org/1999/xlink" width="190.3529mm" height="100.3529mm" viewBox="0 0 539.583 284.4648"><defs><style>.cls-1{fill:#808285;}.cls-2{fill:#d1d3d4;}.cls-3{fill:#00aeef;}.cls-4{fill:#fff;}</style></defs><title>9. Passerelle Echelon</title><g id="Layer_2" data-name="Layer 2"><g id="_9._Passerelle_Echelon" data-name="9. Passerelle Echelon"><g id="Expanded"><path class="cls-1" d="M533.4131,284.4648H6.1689A6.1763,6.1763,0,0,1,0,278.2949V6.1689A6.1762,6.1762,0,0,1,6.1689,0H533.4131a6.1764,6.1764,0,0,1,6.17,6.1689v272.126A6.1766,6.1766,0,0,1,533.4131,284.4648ZM6.1689,1A5.1745,5.1745,0,0,0,1,6.1689v272.126a5.1753,5.1753,0,0,0,5.1689,5.17H533.4131a5.1759,5.1759,0,0,0,5.17-5.17V6.1689A5.1751,5.1751,0,0,0,533.4131,1Z"/><g id="La_Box_3_4" data-name="La Box 3/4"><path class="cls-2" d="M152.292,176.1064a.3771.3771,0,0,1-.1875-.05L39.0659,110.7939a.3757.3757,0,0,1,0-.65L203.6421,15.125a2.8166,2.8166,0,0,1,2.8032,0L318.27,79.6875a.3758.3758,0,0,1,0,.65L152.48,176.0566A.3771.3771,0,0,1,152.292,176.1064ZM40.0034,110.4688l112.2886,64.83,165.04-95.2861L206.07,15.7754a2.0511,2.0511,0,0,0-2.0532,0Z"/><path class="cls-2" d="M156.2368,182.7637a.607.607,0,0,1-.518-.29l-3.9444-6.4248a.6067.6067,0,0,1,.2139-.8427l165.79-95.7188a.6056.6056,0,0,1,.8106.19l4.16,6.2989a.6113.6113,0,0,1,.084.4746.6036.6036,0,0,1-.2871.3857L156.54,182.6816A.601.601,0,0,1,156.2368,182.7637Zm-3.1011-6.8184,3.3086,5.39L321.38,86.1084l-3.4893-5.2842Z"/><path class="cls-2" d="M174.9,258.8975a.4908.4908,0,0,1-.25-.0674l-60.2871-34.8067a.4984.4984,0,0,1-.25-.4326v-8.4131L62.3613,185.2988v7.836a.5.5,0,0,1-.75.4326L12.5825,165.2607a.5.5,0,0,1,.0874-.9052l18.5479-6.3838V114.8193a.4985.4985,0,0,1,.25-.4326l7.5356-4.3506a.4977.4977,0,0,1,.5,0L152.542,175.2988a.4969.4969,0,0,1,.1763.1709l3.9443,6.4248a.5.5,0,0,1,.0737.2618v47.9121l18.5806,28.0527a.5.5,0,0,1-.417.7764Zm-59.7871-35.5957L173.31,256.9023l-17.49-26.4072a.5.5,0,0,1-.083-.2763V182.2979l-3.8042-6.1973L39.2534,111.0459l-7.0356,4.0625v43.22a.4991.4991,0,0,1-.3374.4727l-17.8477,6.1426,47.3286,27.3252v-7.836a.5.5,0,0,1,.75-.4326l52.7515,30.4561a.4984.4984,0,0,1,.25.4326Z"/><path class="cls-2" d="M248.7671,170.9951a1.6076,1.6076,0,0,1-1.6011-1.6045V158.5654a1.6062,1.6062,0,0,1,.8008-1.3867l16.8389-9.7226a1.6011,1.6011,0,0,1,2.4018,1.3867v10.8261a1.6082,1.6082,0,0,1-.8,1.3868l-16.8393,9.7216A1.6,1.6,0,0,1,248.7671,170.9951Zm16.8393-23.1572a1.0008,1.0008,0,0,0-.5019.1357l-16.8389,9.7227a1.0065,1.0065,0,0,0-.5019.8691v10.8252a1.0028,1.0028,0,0,0,1.5053.8692l16.8389-9.7217a1.0064,1.0064,0,0,0,.502-.8692V148.8428a1.0061,1.0061,0,0,0-1.0035-1.0049Z"/><path class="cls-2" d="M262.4766,158.46a.5916.5916,0,0,1-.2984-.08l-3.3188-1.916a.5977.5977,0,1,1,.5976-1.0352l3.3189,1.916a.5977.5977,0,0,1-.2993,1.1153Z"/><path class="cls-2" d="M254.8462,163.0049a.5909.5909,0,0,1-.2983-.08l-3.439-1.9863a.5977.5977,0,0,1,.5976-1.0352l3.439,1.9863a.5977.5977,0,0,1-.2993,1.1153Z"/><path class="cls-2" d="M248.9844,169.3a.3348.3348,0,0,1-.0694-.0078.2989.2989,0,0,1-.23-.291V159.01a.2982.2982,0,0,1,.1446-.2559l16.34-9.8418a.2991.2991,0,0,1,.4531.2559v9.9912a.2972.2972,0,0,1-.1889.2773.2939.2939,0,0,1-.3277-.0732l-.3012-.32a14.3392,14.3392,0,0,1-2.8316,2.4834,9.8085,9.8085,0,0,1-4.4531,1.22,15.7325,15.7325,0,0,1-3.9692,3.8525,11.6341,11.6341,0,0,1-3.6763,1.3067l-.624,1.23A.2983.2983,0,0,1,248.9844,169.3Zm.2988-10.1211v8.5723l.1284-.253a.3.3,0,0,1,.23-.1621,11.0425,11.0425,0,0,0,3.6152-1.2568,15.9272,15.9272,0,0,0,3.8667-3.8008.2987.2987,0,0,1,.2393-.125,9.5806,9.5806,0,0,0,4.2891-1.1308,14.1577,14.1577,0,0,0,2.9111-2.6162.2992.2992,0,0,1,.2212-.11.3025.3025,0,0,1,.2285.0947l.0132.0137v-8.708Z"/><path class="cls-2" d="M274.1328,156.3506a1.6067,1.6067,0,0,1-1.6015-1.6035V143.9219a1.6079,1.6079,0,0,1,.8007-1.3877l16.8389-9.7217a1.6,1.6,0,0,1,2.4014,1.3867v10.8252a1.6064,1.6064,0,0,1-.8,1.3867l-16.8389,9.7227A1.6,1.6,0,0,1,274.1328,156.3506Zm16.8389-23.1572a1.0037,1.0037,0,0,0-.502.1367l-16.8388,9.7217a1.008,1.008,0,0,0-.502.87v10.8252a1.004,1.004,0,0,0,1.5059.8691l16.8388-9.7226a1.0078,1.0078,0,0,0,.501-.8692V134.1992a.9943.9943,0,0,0-.5019-.87A1.0092,1.0092,0,0,0,290.9717,133.1934Z"/><path class="cls-2" d="M287.8408,143.8164a.59.59,0,0,1-.2978-.08l-3.3184-1.916a.5976.5976,0,0,1,.5977-1.0351l3.3183,1.916a.5976.5976,0,0,1-.3,1.1152Z"/><path class="cls-2" d="M280.2109,148.36a.5908.5908,0,0,1-.2978-.08l-3.4385-1.9854a.5976.5976,0,0,1,.5977-1.0351l3.4384,1.9853a.5977.5977,0,0,1-.3,1.1153Z"/><path class="cls-2" d="M274.35,154.6553a.3407.3407,0,0,1-.0693-.0078.2989.2989,0,0,1-.23-.2911v-9.9912a.2982.2982,0,0,1,.1445-.2558l16.34-9.8408a.2988.2988,0,0,1,.4531.2558v9.99a.2992.2992,0,0,1-.1885.2774.2956.2956,0,0,1-.3281-.0732l-.3008-.3194a14.3133,14.3133,0,0,1-2.832,2.4824,9.8264,9.8264,0,0,1-4.4532,1.2207,15.7454,15.7454,0,0,1-3.97,3.8526,11.65,11.65,0,0,1-3.6758,1.3056l-.624,1.23A.2986.2986,0,0,1,274.35,154.6553Zm.2988-10.1211v8.5732l.1289-.2539a.3.3,0,0,1,.2295-.1621,11.0544,11.0544,0,0,0,3.6143-1.2559,15.9153,15.9153,0,0,0,3.8662-3.8007.3.3,0,0,1,.2393-.125,9.5884,9.5884,0,0,0,4.29-1.1319,14.1215,14.1215,0,0,0,2.9111-2.6152.3026.3026,0,0,1,.2217-.11.3214.3214,0,0,1,.2285.0948l.0127.0127v-8.7071Z"/><path class="cls-2" d="M299.4854,141.6992a1.6081,1.6081,0,0,1-1.6016-1.6045V129.27a1.6039,1.6039,0,0,1,.8008-1.3867l16.8388-9.7226a1.6006,1.6006,0,0,1,2.4014,1.3867V130.373a1.61,1.61,0,0,1-.7988,1.3868l-16.84,9.7216A1.6,1.6,0,0,1,299.4854,141.6992Zm16.8388-23.1572a.9994.9994,0,0,0-.5019.1357L298.9834,128.4a1.0063,1.0063,0,0,0-.502.8691v10.8252a1.0032,1.0032,0,0,0,1.5059.8692l16.8389-9.7217a1.0087,1.0087,0,0,0,.5009-.8692V119.5469a1.0053,1.0053,0,0,0-1.0029-1.0049Z"/><path class="cls-2" d="M313.1934,129.1641a.5911.5911,0,0,1-.2979-.08l-3.3184-1.916a.5977.5977,0,0,1,.5977-1.0352l3.3184,1.916a.5977.5977,0,0,1-.3,1.1153Z"/><path class="cls-2" d="M305.5635,133.709a.5911.5911,0,0,1-.2979-.08l-3.4385-1.9863a.5977.5977,0,0,1,.5977-1.0352l3.4385,1.9864a.5976.5976,0,0,1-.3,1.1152Z"/><path class="cls-2" d="M299.7021,140.0039a.3346.3346,0,0,1-.0693-.0078.2987.2987,0,0,1-.2295-.291v-9.9912a.2982.2982,0,0,1,.1446-.2559l16.34-9.8418a.2989.2989,0,0,1,.4531.2559v9.9912a.2982.2982,0,0,1-.5166.2041l-.3008-.32a14.3472,14.3472,0,0,1-2.832,2.4834,9.8085,9.8085,0,0,1-4.4531,1.22,15.7454,15.7454,0,0,1-3.97,3.8525,11.6286,11.6286,0,0,1-3.6758,1.3067l-.624,1.23A.2989.2989,0,0,1,299.7021,140.0039Zm.2989-10.1211v8.5733l.1289-.254a.3.3,0,0,1,.2295-.1621,11.0411,11.0411,0,0,0,3.6142-1.2568,15.9132,15.9132,0,0,0,3.8662-3.8008.3.3,0,0,1,.2393-.125,9.579,9.579,0,0,0,4.29-1.1308A14.1441,14.1441,0,0,0,315.28,129.11a.3017.3017,0,0,1,.2217-.11.3237.3237,0,0,1,.2285.0947l.0127.0127V120.4Z"/><path class="cls-2" d="M202.4321,197.5713a1.5539,1.5539,0,0,1-1.5468-1.55V173.0869a2.8,2.8,0,0,1,1.4077-2.4277c2.7558-1.57,10.3979-6.0576,18.4878-10.8076,8.5551-5.0225,17.4013-10.2168,20.9521-12.2442a1.541,1.541,0,0,1,2.3027,1.3438v22.6875c0,1.3847-.2045,1.9922-.7807,2.3222l-40.0528,23.4034A1.5548,1.5548,0,0,1,202.4321,197.5713Zm40.0635-49.57a.9361.9361,0,0,0-.4668.126c-3.5469,2.0253-12.3916,7.2177-20.9453,12.24-8.0918,4.751-15.7354,9.2383-18.4946,10.8115a2.1994,2.1994,0,0,0-1.106,1.9082v22.9346a.95.95,0,0,0,1.42.8252l40.0523-23.4033c.2456-.1407.4824-.3936.4824-1.8047V148.9512a.9494.9494,0,0,0-.9424-.95Z"/><path class="cls-3" d="M203.3789,181.24a.2987.2987,0,0,1-.2988-.2988v-7.82a.297.297,0,0,1,.15-.2588c.7588-.4355,15.5005-8.9492,15.5005-8.9492a.2988.2988,0,0,1,.4482.2588v7.82a.3.3,0,0,1-.1494.2588L203.5283,181.2A.3015.3015,0,0,1,203.3789,181.24Zm.2988-7.9463v7.13l14.9034-8.6045v-7.13C216.2144,166.0557,205.2212,172.4043,203.6777,173.2939Z"/><path class="cls-3" d="M217.4839,168.6705c-1.7743,1.025-11.8051,6.82-12.89,7.4422a.1715.1715,0,0,0-.087.1523v2.4463a.1786.1786,0,0,0,.2689.1536l12.8857-7.44a.18.18,0,0,0,.09-.1553v-2.4436A.1786.1786,0,0,0,217.4839,168.6705Z"/><path class="cls-2" d="M226.38,168.1738a.2989.2989,0,0,1-.2989-.2988v-7.82a.2972.2972,0,0,1,.15-.2588c.7588-.4355,15.5-8.9492,15.5-8.9492a.2989.2989,0,0,1,.4483.2588v7.82a.3.3,0,0,1-.1494.2588L226.53,168.1338A.3017.3017,0,0,1,226.38,168.1738Zm.2988-7.9463v7.13l14.9028-8.6045v-7.13C239.2158,152.9893,228.2227,159.3379,226.6792,160.2275Z"/><path class="cls-2" d="M240.4852,155.604c-1.7743,1.025-11.8051,6.82-12.89,7.4422a.1713.1713,0,0,0-.087.1523c0,.2355,0,2.1712,0,2.4463a.1786.1786,0,0,0,.269.1536l12.8856-7.44a.1792.1792,0,0,0,.09-.1552V155.76A.1786.1786,0,0,0,240.4852,155.604Z"/><path class="cls-2" d="M206.6538,193.4043a1.7617,1.7617,0,0,1-1.7568-1.7539l-.0235-7.5215a3.2024,3.2024,0,0,1,1.6714-2.8291c6.4077-3.4893,27.791-15.9355,32.0127-18.3945a1.7509,1.7509,0,0,1,2.6367,1.51v7.8291a3.2155,3.2155,0,0,1-1.6308,2.792l-32.042,18.1358A1.7451,1.7451,0,0,1,206.6538,193.4043Zm32.79-30.1436a1.1631,1.1631,0,0,0-.585.16c-4.2227,2.4609-25.6128,14.9111-32.0278,18.4043a2.605,2.605,0,0,0-1.3594,2.3018l.0234,7.5214h0a1.1587,1.1587,0,0,0,1.732,1.0039l32.0424-18.1357a2.6182,2.6182,0,0,0,1.3277-2.2725V164.415a1.1583,1.1583,0,0,0-1.1533-1.1543Z"/><path class="cls-2" d="M216.9175,186.0439a1.07,1.07,0,0,1-.3931-.0712.9732.9732,0,0,1-.5723-.6387l-1.0258-3.3067c-.4092-1.3173.6743-3.4072,2.229-4.3007L229.71,170.51h0a1.6007,1.6007,0,0,1,2.5293,1.872l-1.0254,4.4776a3.415,3.415,0,0,1-1.5362,2.0771L217.78,185.7842A1.7585,1.7585,0,0,1,216.9175,186.0439Zm13.09-15.0166-12.5547,7.2168c-1.2929.7432-2.28,2.5625-1.9565,3.6055l1.0259,3.3067a.3748.3748,0,0,0,.22.26.9193.9193,0,0,0,.74-.1494l11.8975-6.8477a2.8276,2.8276,0,0,0,1.2514-1.6923l1.0259-4.4776c.1465-.6406.0513-1.1406-.2612-1.372s-.8184-.1768-1.3882.15Z"/><path class="cls-2" d="M211.3467,186.624a.8845.8845,0,0,1-.4473-.1142.9487.9487,0,0,1-.4355-.8711,2.82,2.82,0,0,1,1.37-2.19,1.1916,1.1916,0,0,1,1.19-.1093.9485.9485,0,0,1,.4356.8711,2.8224,2.8224,0,0,1-1.37,2.19A1.5131,1.5131,0,0,1,211.3467,186.624Zm1.23-2.8857a1.0168,1.0168,0,0,0-.4859.1553,2.332,2.332,0,0,0-1.1118,1.7451.4866.4866,0,0,0,.1782.4258.7322.7322,0,0,0,.6768-.1094,2.3339,2.3339,0,0,0,1.1118-1.7451.4853.4853,0,0,0-.1782-.4258A.3807.3807,0,0,0,212.5762,183.7383Z"/><path class="cls-2" d="M234.3359,173.3926a.8844.8844,0,0,1-.4477-.1133.9514.9514,0,0,1-.4356-.8721,2.8224,2.8224,0,0,1,1.37-2.19,1.1947,1.1947,0,0,1,1.1909-.1084.9487.9487,0,0,1,.4355.8711,2.8226,2.8226,0,0,1-1.37,2.19A1.5086,1.5086,0,0,1,234.3359,173.3926Zm1.2281-2.8848a1.0233,1.0233,0,0,0-.4854.1543,2.3346,2.3346,0,0,0-1.1113,1.7451.4863.4863,0,0,0,.1787.4268.7338.7338,0,0,0,.6763-.1094,2.3354,2.3354,0,0,0,1.1118-1.7451.4866.4866,0,0,0-.1782-.4258A.3743.3743,0,0,0,235.564,170.5078Z"/><ellipse class="cls-2" cx="217.7129" cy="180.0984" rx="0.9618" ry="0.5466" transform="translate(-56.5539 248.0106) rotate(-53.506)"/><ellipse class="cls-2" cx="220.6852" cy="178.3878" rx="0.9618" ry="0.5466" transform="translate(-53.9742 249.7068) rotate(-53.506)"/><ellipse class="cls-2" cx="223.6575" cy="176.6771" rx="0.9618" ry="0.5466" transform="translate(-51.3944 251.403) rotate(-53.506)"/><ellipse class="cls-2" cx="226.6298" cy="174.9665" rx="0.9618" ry="0.5466" transform="translate(-48.8146 253.0992) rotate(-53.506)"/><ellipse class="cls-2" cx="229.602" cy="173.2559" rx="0.9618" ry="0.5466" transform="translate(-46.2349 254.7954) rotate(-53.506)"/><ellipse class="cls-2" cx="219.1216" cy="182.4813" rx="0.9618" ry="0.5466" transform="translate(-57.8987 250.1087) rotate(-53.506)"/><ellipse class="cls-2" cx="222.0938" cy="180.7706" rx="0.9618" ry="0.5466" transform="translate(-55.3189 251.8049) rotate(-53.506)"/><ellipse class="cls-2" cx="225.0661" cy="179.06" rx="0.9618" ry="0.5466" transform="translate(-52.7391 253.5011) rotate(-53.506)"/><ellipse class="cls-2" cx="228.0384" cy="177.3494" rx="0.9618" ry="0.5466" transform="translate(-50.1594 255.1973) rotate(-53.506)"/><path class="cls-2" d="M164.228,208.499a.24.24,0,0,1-.24-.24V194.7363a.24.24,0,0,1,.1206-.208l14.6548-8.4121a.24.24,0,0,1,.36.208v13.5225a.24.24,0,0,1-.1206.208l-14.6547,8.4121A.24.24,0,0,1,164.228,208.499Zm.24-13.624v12.9688l14.1743-8.1358V186.7393Z"/><path class="cls-2" d="M169.7544,204.4063a.24.24,0,0,1-.24-.24v-.6035l-.9229.5293a.24.24,0,0,1-.36-.208v-1.2822l-2.206,1.2656a.24.24,0,0,1-.36-.208v-7.5821a.24.24,0,0,1,.1206-.208l11.3-6.4853a.2366.2366,0,0,1,.24,0,.24.24,0,0,1,.12.208v7.5811a.24.24,0,0,1-.1206.208l-2.4453,1.4033v1.56a.24.24,0,0,1-.1206.208l-1.1626.667v.88a.24.24,0,0,1-.1206.208l-3.6021,2.0674A.239.239,0,0,1,169.7544,204.4063Zm0-1.4991a.24.24,0,0,1,.24.24v.6035l3.1216-1.791v-.88a.24.24,0,0,1,.1206-.208l1.1626-.667v-1.56a.24.24,0,0,1,.1206-.208l2.4453-1.4033v-7.0274l-10.8193,6.209v7.0283l2.2061-1.2656a.24.24,0,0,1,.36.208v1.2823l.9229-.5293A.239.239,0,0,1,169.7544,202.9072Zm3.602-.8086h0Z"/><path class="cls-2" d="M181.2759,198.7139a.2406.2406,0,0,1-.24-.24V184.9512a.24.24,0,0,1,.1207-.208l14.6552-8.4112a.24.24,0,0,1,.36.208v13.5225a.24.24,0,0,1-.1206.208l-14.6553,8.4111A.239.239,0,0,1,181.2759,198.7139Zm.24-13.6241v12.9688l14.1748-8.1348V176.9551Z"/><path class="cls-2" d="M186.8022,194.6211a.24.24,0,0,1-.24-.24v-.6036l-.9228.5293a.24.24,0,0,1-.36-.208v-1.2822l-2.2061,1.2656a.24.24,0,0,1-.36-.208v-7.582a.24.24,0,0,1,.1206-.208l11.3-6.4854a.24.24,0,0,1,.36.208v7.5821a.24.24,0,0,1-.1207.208L191.9277,189v1.5586a.24.24,0,0,1-.1206.208l-1.1626.667v.88a.24.24,0,0,1-.1206.208l-3.602,2.0674A.239.239,0,0,1,186.8022,194.6211Zm0-1.499a.24.24,0,0,1,.24.24v.6035l3.1216-1.791v-.88a.24.24,0,0,1,.1206-.208l1.1626-.667v-1.5586a.24.24,0,0,1,.1206-.208l2.4453-1.4033v-7.0283l-10.8194,6.209v7.0283l2.2061-1.2656a.24.24,0,0,1,.36.208v1.2822l.9228-.5293A.2389.2389,0,0,1,186.8022,193.1221Zm3.6021-.8086h0Z"/><path class="cls-2" d="M163.1851,210.5869a.7761.7761,0,0,1-.3955-.1015.8187.8187,0,0,1-.3824-.75V194.5947a2.27,2.27,0,0,1,1.106-1.7627l32.8354-18.8466a1.025,1.025,0,0,1,1.021-.085.8212.8212,0,0,1,.3824.751V189.792a2.2705,2.2705,0,0,1-1.1055,1.7627l-32.836,18.8467A1.276,1.276,0,0,1,163.1851,210.5869Zm33.7871-36.19a.6909.6909,0,0,0-.3262.1064L163.8105,193.35a1.6743,1.6743,0,0,0-.8056,1.2451v15.1407c0,.0556.0083.1894.0845.2334.062.0351.2109.0361.4238-.085l32.8354-18.8467h0a1.6752,1.6752,0,0,0,.8052-1.2451V174.6514c0-.0557-.0083-.1895-.084-.2334A.2.2,0,0,0,196.9722,174.3965Z"/><path class="cls-2" d="M174.9,258.8975a.5006.5006,0,0,1-.4175-.2237l-18.6636-28.1787a.5.5,0,0,1,.1665-.709l165.7564-95.84V87.1777L156.4863,182.5889l-.5-.8653L321.9922,85.8789a.5.5,0,0,1,.75.4326v47.7744l18.3672,28.32a.5.5,0,0,1-.17.705L175.15,258.83A.4927.4927,0,0,1,174.9,258.8975Zm-17.9536-28.5118,18.11,27.3438,164.9263-95.2207-17.9023-27.6035Z"/><rect class="cls-2" x="11.3847" y="159.1119" width="21.7809" height="0.5809" transform="translate(-76.3631 32.2183) rotate(-29.8405)"/><path class="cls-2" d="M210.2764,44.0732l-.23-.5332c1.62-.6953,2.5483-1.6738,2.5483-2.6855h.5811C213.1763,42.1094,212.1191,43.2822,210.2764,44.0732Z"/><path class="cls-2" d="M205.0435,45.0459a13.5942,13.5942,0,0,1-5.2334-.9727l.23-.5332a13.9845,13.9845,0,0,0,10.0073,0l.23.5332A13.576,13.576,0,0,1,205.0435,45.0459Z"/><path class="cls-2" d="M199.81,44.0732c-1.8428-.7919-2.9-1.9648-2.9-3.2187h.5811c0,1.0107.9287,1.9893,2.5479,2.6855Z"/><path class="cls-2" d="M205.0435,35.3711c-3.4634,0-6.1763-1.4131-6.1763-3.2178s2.7129-3.2187,6.1763-3.2187,6.1762,1.4131,6.1762,3.2187S208.5068,35.3711,205.0435,35.3711Zm0-5.8565c-3.0328,0-5.5953,1.209-5.5953,2.6387s2.5625,2.6377,5.5953,2.6377,5.5952-1.208,5.5952-2.6377S208.0762,29.5146,205.0435,29.5146Z"/><polygon class="cls-2" points="200.215 43.81 199.634 43.81 200.215 43.807 200.215 43.81"/><path class="cls-2" d="M197.4917,40.8545h-.5811c0-2.8076,1.02-8.82,2.4737-10.001l.3662.4512C198.5859,32.251,197.4917,37.9521,197.4917,40.8545Z"/><polygon class="cls-2" points="210.452 43.81 209.871 43.81 210.452 43.807 210.452 43.81"/><path class="cls-2" d="M213.1763,40.8545h-.5811c0-3.4248-.936-8.19-2.1889-9.4434l.4111-.41C212.3564,32.54,213.1763,37.7119,213.1763,40.8545Z"/><path class="cls-2" d="M205.0435,32.7344c-.5079,0-.876-.2442-.876-.5811s.3681-.582.876-.582.8764.2441.8764.582S205.5513,32.7344,205.0435,32.7344Zm-.0425-.5821a.6014.6014,0,0,0,.0849,0Z"/><path class="cls-2" d="M180.1323,61.9258l-.2295-.5332c1.62-.6953,2.5489-1.6738,2.5489-2.6856h.581C183.0327,59.9619,181.9756,61.1348,180.1323,61.9258Z"/><path class="cls-2" d="M174.9,62.8994a13.6131,13.6131,0,0,1-5.2339-.9736l.23-.5332a13.9718,13.9718,0,0,0,10.0073,0l.2295.5332A13.5871,13.5871,0,0,1,174.9,62.8994Z"/><path class="cls-2" d="M169.666,61.9258c-1.8423-.792-2.8989-1.9649-2.8989-3.2188h.581c0,1.0108.9288,1.9893,2.5474,2.6856Z"/><path class="cls-2" d="M174.9,53.2236c-3.4634,0-6.1763-1.4131-6.1763-3.2177s2.7129-3.2188,6.1763-3.2188,6.1763,1.4131,6.1763,3.2188S178.3633,53.2236,174.9,53.2236Zm0-5.8564c-3.0327,0-5.5952,1.209-5.5952,2.6387s2.5625,2.6377,5.5952,2.6377,5.5952-1.2081,5.5952-2.6377S177.9326,47.3672,174.9,47.3672Z"/><polygon class="cls-2" points="170.071 61.663 169.49 61.663 170.071 61.659 170.071 61.663"/><path class="cls-2" d="M167.3481,58.707h-.581c0-2.8076,1.02-8.8213,2.4736-10.0009l.3662.4511C168.4424,50.1025,167.3481,55.8047,167.3481,58.707Z"/><polygon class="cls-2" points="180.308 61.662 179.727 61.662 180.308 61.659 180.308 61.662"/><path class="cls-2" d="M183.0327,58.707h-.581c0-3.4248-.9361-8.19-2.189-9.4433l.4111-.41C182.2129,50.3926,183.0327,55.5645,183.0327,58.707Z"/><path class="cls-2" d="M174.9,50.5869c-.5078,0-.8765-.2441-.8765-.581s.3687-.5821.8765-.5821.876.2442.876.5821S175.4077,50.5869,174.9,50.5869Zm-.0425-.581h.085A.6028.6028,0,0,0,174.8574,50.0059Z"/><image width="1754" height="1240" transform="matrix(0.0506, -0.0289, 0.0565, 0.033, 109.7742, 104.6631)" xlink:href="../Materials/wattsense-logo-print-page-001.jpg"/><path class="cls-3" d="M187.0244,135.2334l5.711,3.333c2.1611,1.2617,3.3818,1.6162,3.791,1.3731.4531-.2686-.2012-.9922-2.333-2.2374l-5.711-3.333.3994-.2373,5.625,3.2832c2.9629,1.7286,3.6836,2.7325,3.0215,3.125-.6269.3721-2.23-.0078-5.2207-1.7529l-5.6826-3.3164Z"/><path class="cls-3" d="M197.64,138.5039a2.2575,2.2575,0,0,0,1.3389-.0527c.4043-.2393-.0332-.7725-1.0058-1.34a5.022,5.022,0,0,0-2.4942-.7773,7.2538,7.2538,0,0,1-3.542-1.1162c-1.5029-.877-2.2236-1.7627-1.6289-2.1153a1.8,1.8,0,0,1,1.1485-.1259l.9072.6572a1.8214,1.8214,0,0,0-1.0391.0781c-.4179.2481.21.8008.8682,1.1856a4.83,4.83,0,0,0,2.4707.7246,7.5592,7.5592,0,0,1,3.6152,1.1914c1.4883.8681,2.4258,1.8271,1.7041,2.2558a2.2658,2.2658,0,0,1-1.3974.1036Z"/><path class="cls-3" d="M191.9316,132.4756a1.1838,1.1838,0,0,1,.5225-.5449,1.9381,1.9381,0,0,1,1.541-.0889,7.3636,7.3636,0,0,1,1.957.8428c.9317.5429,1.5508,1.1347,1.6006,1.5429l.0284.0176a6.1349,6.1349,0,0,1,3.0507,1.0371,6.6429,6.6429,0,0,1,1.6739,1.2813c.4.4853.3418.8574-.1573,1.1543a2.6826,2.6826,0,0,1-.7275.2959Zm4.3448,2.0713.3593-.2129c.418-.2481-.0234-.794-.9541-1.3369-1.1308-.66-1.8466-.7578-2.2461-.52-.1816.1075-.2431.1934-.2646.2569Zm4.623,2.6982a1.1914,1.1914,0,0,0,.3887-.164c.4092-.2422.3144-.74-1.09-1.56-1.3164-.7686-2.2187-.8731-2.65-.6172l-.3262.1934Z"/><path class="cls-3" d="M197.4688,130.8262l-.0088.0058.3593.8135-1.0361-.5137-.4424-1.0175.34-.2022,9.3027,5.43-.3857.2285Z"/><path class="cls-2" d="M205.1987,125.0146l5.711,3.3331c2.1611,1.2617,3.3818,1.6162,3.791,1.373.4531-.2686-.2012-.9922-2.333-2.2373l-5.711-3.333.3995-.2373,5.625,3.2832c2.9628,1.7285,3.6835,2.7324,3.0214,3.125-.6269.3721-2.23-.0078-5.2207-1.7529l-5.6826-3.3164Z"/><path class="cls-2" d="M215.814,128.2852a2.2563,2.2563,0,0,0,1.3388-.0528c.4043-.2392-.0332-.7724-1.0058-1.34a5.0222,5.0222,0,0,0-2.4942-.7774,7.2528,7.2528,0,0,1-3.542-1.1162c-1.5029-.8769-2.2236-1.7627-1.6289-2.1152a1.8008,1.8008,0,0,1,1.1485-.126l.9072.6572a1.8206,1.8206,0,0,0-1.0391.0782c-.4179.248.21.8007.8682,1.1855a4.83,4.83,0,0,0,2.4707.7246,7.5614,7.5614,0,0,1,3.6152,1.1914c1.4883.8682,2.4258,1.8272,1.7041,2.2559a2.2659,2.2659,0,0,1-1.3974.1035Z"/><path class="cls-2" d="M210.106,122.2568a1.1844,1.1844,0,0,1,.5224-.5449,1.9381,1.9381,0,0,1,1.541-.0889,7.3673,7.3673,0,0,1,1.9571.8428c.9316.543,1.5507,1.1348,1.6006,1.543l.0283.0176a6.1333,6.1333,0,0,1,3.0508,1.0371,6.6441,6.6441,0,0,1,1.6738,1.2812c.4.4854.3418.8574-.1572,1.1543a2.681,2.681,0,0,1-.7276.2959Zm4.3447,2.0713.3594-.2129c.4179-.248-.0235-.7939-.9541-1.3369-1.1309-.66-1.8467-.7578-2.2461-.52-.1817.1074-.2432.1933-.2647.2568Zm4.623,2.6983a1.19,1.19,0,0,0,.3887-.1641c.4092-.2422.3145-.74-1.09-1.56-1.3164-.7685-2.2188-.873-2.65-.6172l-.3262.1934Z"/><path class="cls-2" d="M222.9048,125.8662l-.7725-.4512-.6455-.7461a14.1692,14.1692,0,0,0-3.7685-3.4912c-.9444-.5517-1.9629-.9746-2.4034-.7129-.2675.1592-.06.5411.1612.8311l-1.0137-.4424c-.34-.4385-.45-.8447-.1094-1.0469.6358-.3769,2.2774.2657,3.6094,1.043a14.6079,14.6079,0,0,1,3.9775,3.5176l.45.542.0284.0156,1.3261-.7861,1.045.61Z"/></g><g id="Echelon_2" data-name="Echelon 2"><path class="cls-4" d="M444.3614,178.2423v-20.45a1.2978,1.2978,0,0,0-.649-1.124l-11.6144-6.7054a1.4129,1.4129,0,0,1-.7064-1.2235V130.5979a1.7225,1.7225,0,0,0-.8612-1.4917l-11.3714-6.5652a1.4742,1.4742,0,0,1-.737-1.2766l0-19.101q-25.5817-22.6362-51.1641-29.7562a.5662.5662,0,0,0-.7143.547V92.1634l-12.644-7.3a.2171.2171,0,0,0-.3256.188l0,19.576L341.03,97.3848a.2833.2833,0,0,0-.425.2454l0,28.8909a11.3385,11.3385,0,0,0,5.6693,9.8195l85.3316,49.2663A8.504,8.504,0,0,0,444.3614,178.2423Z"/><path class="cls-1" d="M435.8574,187.1348a8.8657,8.8657,0,0,1-4.4394-1.2032L346.0859,136.666a11.7477,11.7477,0,0,1-5.8564-10.1445V97.63a.6584.6584,0,0,1,.9883-.5694l11.9814,6.917V85.0518a.5922.5922,0,0,1,.8867-.5137l12.083,6.9756v-18.56a.9367.9367,0,0,1,.3731-.751.9254.9254,0,0,1,.8164-.1572c17.0322,4.74,34.2959,14.7793,51.3115,29.8359a.3743.3743,0,0,1,.127.2813v19.1015a1.1047,1.1047,0,0,0,.55.9522l11.3711,6.5645a2.1045,2.1045,0,0,1,1.0488,1.8164V148.74a1.0379,1.0379,0,0,0,.5186.8975L443.9,156.3438a1.6772,1.6772,0,0,1,.8359,1.4492v20.4492a8.9112,8.9112,0,0,1-8.8789,8.8926ZM340.98,97.7891v28.7324a10.9937,10.9937,0,0,0,5.4814,9.4941l85.3321,49.2657a8.1281,8.1281,0,0,0,12.1933-7.0391V157.793a.9233.9233,0,0,0-.4609-.7989l-11.6152-6.706a1.793,1.793,0,0,1-.8936-1.5479V130.5977a1.3487,1.3487,0,0,0-.6738-1.1661l-11.3711-6.5654a1.8561,1.8561,0,0,1-.9248-1.6016V102.332c-16.8887-14.9189-34.01-24.8652-50.89-29.5634a.1805.1805,0,0,0-.1611.0322.1916.1916,0,0,0-.0772.1533v19.209a.375.375,0,0,1-.5625.3252l-12.4072-7.1631V104.627a.375.375,0,0,1-.5625.3251Z"/><rect class="cls-1" x="414.4093" y="86.9372" width="59.904" height="0.5005" transform="translate(15.8543 233.6129) rotate(-29.9667)"/><path class="cls-1" d="M353.7451,85.2207a.3751.3751,0,0,1-.1924-.6973l12.7989-7.6582a.3753.3753,0,0,1,.3847.6446L353.9375,85.168A.3839.3839,0,0,1,353.7451,85.2207Z"/><path class="cls-1" d="M340.7256,97.78a.375.375,0,0,1-.1934-.6963L353.3809,89.33a.375.375,0,0,1,.3867.6426l-12.8487,7.7539A.3757.3757,0,0,1,340.7256,97.78Z"/><rect class="cls-1" x="414.4091" y="106.8889" width="59.9045" height="0.5005" transform="translate(5.8885 236.2801) rotate(-29.9667)"/><rect class="cls-1" x="427.3788" y="134.3293" width="59.9045" height="0.5005" transform="translate(-6.0841 246.4268) rotate(-29.9667)"/><rect class="cls-1" x="427.3788" y="114.3772" width="59.9045" height="0.5005" transform="translate(3.882 243.7595) rotate(-29.9667)"/><rect class="cls-1" x="440.3488" y="141.8171" width="59.904" height="0.5005" transform="translate(-8.0903 253.9061) rotate(-29.9667)"/><path class="cls-1" d="M440.8018,185.5313a.3751.3751,0,0,1-.1875-.7l51.5263-29.7081a8.0815,8.0815,0,0,0,3.7246-6.833V128.2363a1.6117,1.6117,0,0,0-.8047-1.3925l-11.0546-6.3819a2.23,2.23,0,0,1-1.11-1.9238V100.7188a1.4751,1.4751,0,0,0-.7373-1.2754L470.999,93.001a2.1578,2.1578,0,0,1-1.0732-1.8614V73.2051a1.8241,1.8241,0,0,0-.6221-1.3711c-16.5586-14.5059-33.3447-24.2334-49.8916-28.9121a2.3224,2.3224,0,0,0-1.7851.23l-50.7217,29.58a.375.375,0,0,1-.377-.6484l50.7227-29.58a3.0771,3.0771,0,0,1,2.3642-.3037c16.6553,4.711,33.5391,14.4912,50.1827,29.07a2.5757,2.5757,0,0,1,.8779,1.9356V91.14a1.4054,1.4054,0,0,0,.6982,1.212l11.1592,6.4414a2.2294,2.2294,0,0,1,1.1123,1.9258v17.8193a1.4783,1.4783,0,0,0,.7354,1.2744l11.0546,6.3809a2.3657,2.3657,0,0,1,1.18,2.0429V148.29a8.8364,8.8364,0,0,1-4.0849,7.4737l-51.541,29.7177A.375.375,0,0,1,440.8018,185.5313Z"/><path class="cls-1" d="M410.8154,78.5254a9.425,9.425,0,0,1-4.9463-1.3467l-.6953-.4443a3.7674,3.7674,0,0,1-2.0283-3.0713,2.9366,2.9366,0,0,1,1.6572-2.4326l17.5879-10.1543c2.2647-1.3057,6.1153-1.083,8.585.4961l.6943.4433a3.7722,3.7722,0,0,1,2.0293,3.0723,2.9387,2.9387,0,0,1-1.6582,2.4326L414.4541,77.6738A7.3869,7.3869,0,0,1,410.8154,78.5254Zm15.2159-17.8076a6.8785,6.8785,0,0,0-3.3907.792L405.0527,71.6641a2.4574,2.4574,0,0,0-1.4072,2.01,3.2909,3.2909,0,0,0,1.7979,2.6387l.6953.4443c2.33,1.49,5.9482,1.708,8.0654.4834L431.791,67.0869h0a2.4618,2.4618,0,0,0,1.4082-2.0107A3.297,3.297,0,0,0,431.4,62.4375l-.6943-.4434A8.9079,8.9079,0,0,0,426.0313,60.7178Z"/><path class="cls-1" d="M412.7773,83.6445a18.7645,18.7645,0,0,1-9.5175-2.3457c-2.4776-1.5-3.8321-3.5195-3.8116-5.6865.0206-2.2939,1.5528-4.44,4.3145-6.043L418.67,60.917c5.4805-3.1787,14.1739-3.2041,19.377-.0557,2.4775,1.5,3.831,3.52,3.8115,5.6856-.0215,2.2949-1.5537,4.44-4.3145,6.0439h0l-14.9072,8.6514A20.0594,20.0594,0,0,1,412.7773,83.6445Zm15.752-24.6914a19.6119,19.6119,0,0,0-9.6367,2.3487l-14.9072,8.6523c-2.62,1.52-4.0733,3.5313-4.0928,5.6621-.0186,2.0039,1.2588,3.8867,3.5976,5.3018,5.0791,3.0752,13.5694,3.0488,18.9239-.0606l14.9072-8.6513c2.62-1.5206,4.0732-3.5323,4.0928-5.6631.0185-2.003-1.2588-3.8858-3.5977-5.3008A18.3069,18.3069,0,0,0,428.5293,58.9531Z"/><path class="cls-4" d="M463.0082,149.8332l4.4578,2.5735a5.6693,5.6693,0,0,1,2.8349,4.91v13.1909l10.9694-9.6811,2-11.1909a5.6694,5.6694,0,0,0-2.8348-4.91l-4.4579-2.5735Z"/><path class="cls-1" d="M470.3008,170.7578a.2348.2348,0,0,1-.1026-.0224.2488.2488,0,0,1-.1474-.2276V157.3164a5.434,5.434,0,0,0-2.71-4.6934l-4.458-2.5732a.2523.2523,0,0,1-.125-.2158.2461.2461,0,0,1,.1231-.2158l12.97-7.6807a.2453.2453,0,0,1,.2519-.002l4.458,2.5733a5.9362,5.9362,0,0,1,2.96,5.1269L481.5166,160.87a.2454.2454,0,0,1-.0811.1436l-10.97,9.6816A.2483.2483,0,0,1,470.3008,170.7578ZM463.5029,149.83l4.0879,2.3594a5.936,5.936,0,0,1,2.96,5.1269v12.6377l10.4892-9.2578,1.9844-11.1045a5.4288,5.4288,0,0,0-2.7139-4.6494l-4.331-2.5Z"/><polygon class="cls-4" points="473.139 146.315 476.102 144.605 486.854 150.218 484.109 151.803 473.139 146.315"/><path class="cls-1" d="M484.1084,152.0527a.2567.2567,0,0,1-.1123-.0263l-10.9688-5.4883a.25.25,0,0,1-.0127-.44l2.962-1.71a.2525.2525,0,0,1,.24-.0049l10.752,5.6133a.25.25,0,0,1,.01.4385l-2.7451,1.5849A.2494.2494,0,0,1,484.1084,152.0527Zm-10.4414-5.7539,10.4326,5.22,2.2344-1.29L476.1074,144.89Z"/><polygon class="cls-4" points="473.139 146.315 473.139 159.014 484.109 164.501 484.109 151.803 473.139 146.315"/><path class="cls-1" d="M484.1094,164.751a.2554.2554,0,0,1-.1123-.0264l-10.97-5.4873a.2506.2506,0,0,1-.1377-.2236V146.3145a.2512.2512,0,0,1,.1182-.2129.2553.2553,0,0,1,.2442-.0108l10.9687,5.4883a.25.25,0,0,1,.1377.2236l.001,12.6983a.2511.2511,0,0,1-.1182.2129A.2565.2565,0,0,1,484.1094,164.751Zm-10.72-5.8916,10.47,5.2373-.001-12.14L473.39,146.7188Z"/><polygon class="cls-4" points="484.109 164.501 486.854 162.917 486.854 150.218 484.109 151.803 484.109 164.501"/><path class="cls-1" d="M484.1094,164.751a.2493.2493,0,0,1-.25-.25l-.001-12.6983a.2521.2521,0,0,1,.125-.2168l2.7451-1.5849a.2488.2488,0,0,1,.25,0,.2516.2516,0,0,1,.125.2168V162.917a.2516.2516,0,0,1-.125.2168l-2.7441,1.584A.2507.2507,0,0,1,484.1094,164.751Zm.249-12.8037.001,12.1211,2.2441-1.2959V150.65Z"/><polygon class="cls-4" points="467.046 149.778 470.009 148.068 480.761 153.681 478.016 155.266 467.046 149.778"/><path class="cls-1" d="M478.0156,155.5166a.2558.2558,0,0,1-.1123-.0264l-10.97-5.4882a.25.25,0,0,1-.0127-.4405l2.9629-1.71a.25.25,0,0,1,.24-.0049l10.752,5.6133a.25.25,0,0,1,.01.4384l-2.7451,1.585A.2491.2491,0,0,1,478.0156,155.5166Zm-10.4424-5.7539,10.4336,5.22,2.2344-1.29-10.2266-5.3389Z"/><polygon class="cls-4" points="467.046 149.778 467.046 162.477 478.016 167.965 478.016 155.266 467.046 149.778"/><path class="cls-1" d="M478.0156,168.2148a.2556.2556,0,0,1-.1123-.0263l-10.97-5.4883a.25.25,0,0,1-.1377-.2236V149.7783a.2511.2511,0,0,1,.1182-.2129.255.255,0,0,1,.2441-.0107l10.97,5.4883a.25.25,0,0,1,.1377.2236v12.6982a.2511.2511,0,0,1-.1181.2129A.2571.2571,0,0,1,478.0156,168.2148Zm-10.72-5.8925,10.47,5.2382v-12.14l-10.47-5.2383Z"/><polygon class="cls-4" points="478.016 167.965 480.761 166.38 480.761 153.681 478.016 155.266 478.016 167.965"/><path class="cls-1" d="M478.0156,168.2148a.2493.2493,0,0,1-.25-.25V155.2666a.2518.2518,0,0,1,.125-.2168l2.7451-1.585a.2488.2488,0,0,1,.25,0,.2518.2518,0,0,1,.125.2168V166.38a.2516.2516,0,0,1-.125.2168l-2.7451,1.5849A.2491.2491,0,0,1,478.0156,168.2148Zm.25-12.8037v12.1211l2.2451-1.2968V154.1143Z"/><path class="cls-4" d="M463.0082,149.8332l4.4578,2.5735a5.6693,5.6693,0,0,1,2.8349,4.91v13.1909l-7.2927-3.2778Z"/><path class="cls-1" d="M470.3008,170.7578a.2376.2376,0,0,1-.1026-.0224l-7.2929-3.2784a.2485.2485,0,0,1-.1475-.2275V149.833a.2518.2518,0,0,1,.125-.2168.2488.2488,0,0,1,.25,0l4.458,2.5733a5.936,5.936,0,0,1,2.96,5.1269v13.1914a.25.25,0,0,1-.25.25Zm-7.043-3.69,6.793,3.0537V157.3164a5.434,5.434,0,0,0-2.71-4.6934l-4.083-2.3574Z"/><path class="cls-3" d="M395.2273,70.4417l-3.6717,2.1227-8.97-5.0363,3.4418-1.99,1.7308.9718-1.8623,1.0767,1.8241,1.0242,1.5972-.9233,1.6661.9355-1.5972.9233,1.9822,1.1129,2.0922-1.21Z"/><path class="cls-3" d="M399.8471,67.6044a2.5523,2.5523,0,0,1-1.024.963,5.879,5.879,0,0,1-3.41.621,10.4552,10.4552,0,0,1-4.3472-1.4234q-2.3412-1.3145-2.6386-2.4889a1.5572,1.5572,0,0,1,.8813-1.8559,5.9459,5.9459,0,0,1,1.9564-.6209l1.8816,1.0565a10.0057,10.0057,0,0,0-1.2508.2211,2.4509,2.4509,0,0,0-.4481.2018.8258.8258,0,0,0-.4642.9886q.1605.6274,1.7046,1.4944a6.9756,6.9756,0,0,0,2.6938.992,2.996,2.996,0,0,0,1.7557-.3071,1.3253,1.3253,0,0,0,.6626-.9914Z"/><path class="cls-3" d="M391.4329,62.4132l1.5912-.92,3.4257,1.9235,1.491-.8621-3.4256-1.9234,1.5912-.92,8.97,5.0364-1.5912.92-3.7919-2.1291-1.4793.8552,3.7919,2.1291-1.603.9268Z"/><path class="cls-3" d="M409.5181,62.18l-3.6717,2.1227-8.97-5.0364,3.4418-1.99,1.7308.9718-1.8623,1.0767,1.8241,1.0242,1.5972-.9234,1.6661.9355-1.5971.9234,1.9821,1.1129,2.0922-1.21Z"/><path class="cls-3" d="M413.4756,59.8917l-3.4418,1.99-8.97-5.0363,1.5794-.9132,7.2032,4.0444L411.7089,58.9Z"/><path class="cls-3" d="M409.1247,57.2428a8.959,8.959,0,0,1-2.4362-1.7507,1.7784,1.7784,0,0,1-.4788-1.2864,1.5754,1.5754,0,0,1,.9172-1.0868,3.75,3.75,0,0,1,1.4153-.4949,7.2989,7.2989,0,0,1,1.6244.002,7.8583,7.8583,0,0,1,1.8822.4423,15.7957,15.7957,0,0,1,2.2931,1.0928q2.7075,1.52,2.9984,2.5264t-.8818,1.6843a4.8265,4.8265,0,0,1-2.976.5051A11.9464,11.9464,0,0,1,409.1247,57.2428Zm1.1338-1.2775.5746.3226a19.8784,19.8784,0,0,0,1.94,1.0021,2.8069,2.8069,0,0,0,1.0345.208,1.6847,1.6847,0,0,0,.8567-.2006.4614.4614,0,0,0,.2673-.441.984.984,0,0,0-.4348-.62,14.2826,14.2826,0,0,0-1.7334-1.0807,17.3207,17.3207,0,0,0-1.7565-.8955,3.5906,3.5906,0,0,0-1.1291-.268,1.58,1.58,0,0,0-.8982.1674q-.5068.2929-.1958.7229A4.943,4.943,0,0,0,410.2585,55.9653Z"/><path class="cls-3" d="M424.6575,53.427l-1.68.9711-7.5333-2.094-.0236.0136,5.6592,3.1775-1.5441.8927-8.9843-5.0444,1.7386-1.0052,7.4177,2.0626.0294-.017-5.5729-3.1291,1.5087-.8723Z"/><path class="cls-3" d="M434.423,81.6273q1.7266.9862.1014,1.92a3.3079,3.3079,0,0,1-3.5013.0448l-5.2683-3.0092.9663-.555L431.6,82.8146a4.629,4.629,0,0,0,1.2283.5388,1.2987,1.2987,0,0,0,.92-.1846c.3184-.1828.4123-.357.28-.524a3.9646,3.9646,0,0,0-1.0036-.71l-4.8243-2.7555.9664-.555Z"/><path class="cls-3" d="M434.3761,78.7106a1.2348,1.2348,0,0,1,.419-.41,2.5982,2.5982,0,0,1,1.4381-.3285,4.8986,4.8986,0,0,1,2.0533.7508q1.2915.7377,1.3905,1.2631.1008.5263-.769,1.0259a2.8224,2.8224,0,0,1-1.722.38,5.3233,5.3233,0,0,1-2.0579-.7483,9.4246,9.4246,0,0,1-1.157-.7546,4.6932,4.6932,0,0,1-.751-.7545,8.0419,8.0419,0,0,1-.6547-.9861l-.635-1.1362,1.09-.6262.8061,1.4672Zm1.8031,1.3412a5.21,5.21,0,0,0,1.2069.5461,1.0393,1.0393,0,0,0,.7948-.093q.5849-.336-.5483-.9839l-.098-.0429-.1137-.065-.2226-.14-.1082-.0619a2.653,2.653,0,0,0-1.063-.4092,1.119,1.119,0,0,0-.6017.1161q-.3581.2056-.2453.4237a1.9284,1.9284,0,0,0,.7105.5583l.1088.0491Z"/><path class="cls-3" d="M436.1186,74.4823a2.9223,2.9223,0,0,1,1.9922-.2907,10.6943,10.6943,0,0,1,3.19,1.3558,11.4769,11.4769,0,0,1,2.11,1.407,1.152,1.152,0,0,1,.4219.853q-.03.3932-.6155.7294a2.706,2.706,0,0,1-1.3857.3455,4.5072,4.5072,0,0,1-1.5968-.3209,19.5757,19.5757,0,0,1-2.4105-1.2231,10.3289,10.3289,0,0,1-1.857-1.2457,1.2518,1.2518,0,0,1-.4518-.8545q.0009-.41.592-.7493Zm3.5672,1.3278-.2436-.1392q-.8025-.4584-1.12-.5983a2.7853,2.7853,0,0,0-.7281-.1971,1.0184,1.0184,0,0,0-.6581.0865c-.2421.1391-.2553.3191-.04.5374a7.1487,7.1487,0,0,0,1.3607.9205l.222.1268.2442.1264.2437.1392.5744.3412.1679.0958a10.8935,10.8935,0,0,0,1.6993.8339,1.1642,1.1642,0,0,0,.98-.02c.1706-.098.2342-.2114.192-.34a1.1,1.1,0,0,0-.4389-.4525q-.375-.2592-1.8867-1.1233l-.288-.1645Z"/><path class="cls-3" d="M436.8313,84.1414l-.7065.4047,1.7241.9639.6317-.3618.6219.3477-.6317.3618,2.4961,1.3956-.41.2348-5.4639-3.055,1.1164-.6394Z"/><path class="cls-3" d="M438.4878,83.1927l-.47.2693,4.8421,2.7073-.4147.2375L437.6029,83.7l-.4678.2679-.6219-.3477,1.3528-.7747Z"/><path class="cls-3" d="M438.9575,82.22l.598-.3425a1.7615,1.7615,0,0,1,1.2374-.0655,9.8644,9.8644,0,0,1,2.3827,1.0552,8.1321,8.1321,0,0,1,1.9212,1.3171q.4073.4706-.15.79l-.5257.301Zm.9765.0766,4.3489,2.4315q.26-.1491.2239-.3224t-.4377-.4726a13.2988,13.2988,0,0,0-1.3361-.8221,11.2652,11.2652,0,0,0-1.7883-.8593,1.1711,1.1711,0,0,0-.9552.0131Z"/><path class="cls-3" d="M440.8154,81.1558l.4147-.2375,5.4639,3.055-.4147.2375Z"/><path class="cls-3" d="M448.5548,82.9076l-.3256.1864-4.5335-1.6477-.0082.0063,3.7484,2.0958-.3713.2127-5.464-3.055.33-.1892,4.5359,1.6464.0125-.0039-3.7527-2.0982.3641-.2086Z"/></g><g id="USB_2_Full" data-name="USB 2 Full"><polygon class="cls-4" points="233.398 194.076 233.398 198.716 223.034 192.773 223.034 188.132 233.398 194.076"/><path class="cls-1" d="M233.3984,198.8721a.1567.1567,0,0,1-.0771-.02l-10.3643-5.9444a.1567.1567,0,0,1-.0776-.1347l-.0005-4.64a.1534.1534,0,0,1,.0772-.1338.1563.1563,0,0,1,.1547-.001l10.3648,5.9434a.1567.1567,0,0,1,.0776.1348v4.6406a.1535.1535,0,0,1-.0771.1338A.1487.1487,0,0,1,233.3984,198.8721Zm-10.2094-6.1895,10.0547,5.7666V194.166L223.1885,188.4Z"/><polygon class="cls-4" points="223.034 188.132 235.796 180.764 245.974 186.609 233.398 194.076 223.034 188.132"/><path class="cls-1" d="M233.3984,194.2314a.1557.1557,0,0,1-.0771-.02l-10.3648-5.9433a.1567.1567,0,0,1-.0776-.1348.1534.1534,0,0,1,.0772-.1338l12.7622-7.3691a.1516.1516,0,0,1,.1547-.001l10.1788,5.8457a.1561.1561,0,0,1,.0776.1338.1532.1532,0,0,1-.0757.1338l-12.5762,7.4668A.1543.1543,0,0,1,233.3984,194.2314Zm-10.0542-6.0986,10.0528,5.7637,12.27-7.2852-9.8716-5.6689Z"/><polygon class="cls-4" points="245.974 186.609 233.398 194.076 233.398 198.716 245.974 191.573 245.974 186.609"/><path class="cls-1" d="M233.3984,198.8721a.1605.1605,0,0,1-.0781-.0215.1551.1551,0,0,1-.0766-.1338v-4.6406a.1537.1537,0,0,1,.0756-.1328l12.5762-7.4668a.1533.1533,0,0,1,.1558-.002.155.155,0,0,1,.0781.1348v4.9638a.1549.1549,0,0,1-.0781.1348l-12.5762,7.1436A.155.155,0,0,1,233.3984,198.8721Zm.1548-4.708V198.45l12.2666-6.9668v-4.6016Z"/><polygon class="cls-4" points="235.529 185.545 237.704 184.289 239.31 185.201 237.129 186.468 235.529 185.545"/><path class="cls-1" d="M237.1289,186.623a.15.15,0,0,1-.0776-.0214l-1.6-.9229a.1545.1545,0,0,1,0-.2676l2.1748-1.2558a.1554.1554,0,0,1,.1543-.001l1.6054.9121a.1549.1549,0,0,1,.001.2686l-2.1807,1.2666A.1579.1579,0,0,1,237.1289,186.623Zm-1.2895-1.0781,1.289.7442,1.87-1.086-1.2939-.7353Z"/><polygon class="cls-4" points="229.691 188.929 231.866 187.674 233.489 188.609 231.291 189.853 229.691 188.929"/><path class="cls-1" d="M231.2905,190.0078a.1474.1474,0,0,1-.0776-.0215l-1.6-.9228a.1545.1545,0,0,1,0-.2676l2.1753-1.2559a.1473.1473,0,0,1,.1548,0l1.623.9346a.1545.1545,0,0,1-.001.2686l-2.1987,1.2441A.1508.1508,0,0,1,231.2905,190.0078Zm-1.29-1.0781,1.2905.7441,1.8853-1.0664-1.3106-.7549Z"/><path class="cls-4" d="M245.7666,184.2888l-14.3232,8.2661,18.6953,10.7065,6.3015-.5715,5.2274,2.5132a1.5428,1.5428,0,0,0,1.5652,0l4.8969-3.146a.8026.8026,0,0,0,0-1.3785l-4.4019-2.6547.89-2.8515Z"/><path class="cls-1" d="M262.4473,205.665a1.7868,1.7868,0,0,1-.9063-.2461l-5.1465-2.4746-6.2334.5664a.2543.2543,0,0,1-.1465-.0322l-18.6953-10.707a.25.25,0,0,1-.0009-.4336l14.3232-8.2656a.2484.2484,0,0,1,.25,0l18.8511,10.8838a.2506.2506,0,0,1,.1137.291l-.8315,2.664,4.2339,2.5537a1.0539,1.0539,0,0,1-.002,1.8086l-4.8886,3.14A1.8174,1.8174,0,0,1,262.4473,205.665ZM256.44,202.44a.2592.2592,0,0,1,.1084.0244l5.2271,2.5136a1.3046,1.3046,0,0,0,1.3305.01l4.8882-3.14a.5491.5491,0,0,0,.2764-.48.5424.5424,0,0,0-.2681-.4737l-4.4038-2.6572a.25.25,0,0,1-.11-.2881l.83-2.66-18.5527-10.711-13.8218,7.9756,18.25,10.4522,6.2237-.5655Z"/><path class="cls-4" d="M268.4881,201.75l.0187,8.154a.7986.7986,0,0,1-.3914.6883l-4.8632,3.1253a1.5427,1.5427,0,0,1-1.5729-.0046l-5.2451-2.5689-6.3112.5592-18.6653-10.7984v-8.2424m0,0,18.6952,10.7065,6.3016-.5715,5.2274,2.5132a1.5423,1.5423,0,0,0,1.5652,0l4.8969-3.1459a.7818.7818,0,0,0,.3441-.4148"/><path class="cls-1" d="M262.4673,214.18a1.7855,1.7855,0,0,1-.916-.252l-5.1646-2.5283-6.2417.5527a.2237.2237,0,0,1-.147-.0322l-18.6655-10.7978a.251.251,0,0,1-.125-.2168V192.668a.246.246,0,0,1,.0093-.0723.2387.2387,0,0,1,.0361-.0762.2525.2525,0,0,1,.1792-.1054.2414.2414,0,0,1,.0918.0078.227.227,0,0,1,.0615.0263l18.6231,10.6651,6.2236-.5645a.2615.2615,0,0,1,.1309.0235l5.227,2.5127a1.3,1.3,0,0,0,1.33.01l4.8887-3.14a.5476.5476,0,0,0,.2427-.2852.2171.2171,0,0,1,.0195-.0439.25.25,0,0,1,.0728-.08.255.255,0,0,1,.1005-.042.2111.2111,0,0,1,.086,0,.2423.2423,0,0,1,.083.0293.2619.2619,0,0,1,.0781.0713h0a.253.253,0,0,1,.043.1025.26.26,0,0,1,.0039.0479l.0185,8.1484a1.0533,1.0533,0,0,1-.5146.9053l-4.8545,3.1191A1.8069,1.8069,0,0,1,262.4673,214.18Zm-6.0332-3.2852a.2512.2512,0,0,1,.11.0254l5.2452,2.5684a1.3033,1.3033,0,0,0,1.3369.0137l4.854-3.1192a.5554.5554,0,0,0,.2768-.4785L268.24,202.4l-4.8574,3.12a1.7967,1.7967,0,0,1-1.8276.0059l-5.146-2.4737-6.2334.5655a.244.244,0,0,1-.1465-.0323l-18.3213-10.4912v7.666L250.18,211.4473l6.2324-.5518Z"/><ellipse class="cls-1" cx="255.8327" cy="199.6798" rx="0.2813" ry="0.631" transform="translate(-22.6622 366.3021) rotate(-68.8643)"/><ellipse class="cls-1" cx="259.4333" cy="197.2118" rx="0.2813" ry="0.631" transform="translate(-18.058 368.0824) rotate(-68.8643)"/><path class="cls-1" d="M265.5186,211.94a2.1109,2.1109,0,0,1-1.6065-.7568,4.4032,4.4032,0,0,1-.84-3.4063c.2754-2.2675,1.8-4.1132,3.3984-4.1132a2.11,2.11,0,0,1,1.6074.7578,4.3982,4.3982,0,0,1,.8379,3.4062h0C268.6416,210.0957,267.1177,211.94,265.5186,211.94Zm.9521-7.8584c-1.3945,0-2.7334,1.6807-2.9834,3.7461a3.9838,3.9838,0,0,0,.7373,3.0782,1.704,1.704,0,0,0,1.294.6162c1.395,0,2.7329-1.68,2.9834-3.7452h0a3.985,3.985,0,0,0-.7369-3.0791A1.7042,1.7042,0,0,0,266.4707,204.082Z"/><path class="cls-1" d="M276.4941,218.4307a2.1108,2.1108,0,0,1-1.6064-.7569,4.4025,4.4025,0,0,1-.84-3.4072c.2753-2.2676,1.8-4.1133,3.3984-4.1133a2.1083,2.1083,0,0,1,1.6064.7578,4.3951,4.3951,0,0,1,.8389,3.4063C279.6172,216.585,278.0928,218.4307,276.4941,218.4307Zm.9522-7.8594c-1.3945,0-2.7334,1.6807-2.9844,3.7461a3.9871,3.9871,0,0,0,.7383,3.0791,1.7047,1.7047,0,0,0,1.2939.6162c1.3946,0,2.7334-1.6807,2.9834-3.7461h0a3.9829,3.9829,0,0,0-.7373-3.0791A1.7047,1.7047,0,0,0,277.4463,210.5713Z"/><path class="cls-4" d="M267.2566,204.05l11.3657,6.7365a1.8459,1.8459,0,0,0-1.1761-.4236c-1.4994,0-2.9279,1.7592-3.1908,3.9294-.2145,1.77.4128,3.2667,1.465,3.7584l-11.2815-6.6689a3.8132,3.8132,0,0,1-1.159-3.5791c.2628-2.17,1.6914-3.9294,3.1908-3.9294A1.8135,1.8135,0,0,1,267.2566,204.05Z"/><path class="cls-1" d="M275.6318,218.24a2.2528,2.2528,0,0,1-.35-.206l-10.95-6.4727a4.0356,4.0356,0,0,1-1.26-3.7842c.2754-2.2675,1.8-4.1132,3.3984-4.1132a2.0147,2.0147,0,0,1,.876.1972l.0161.0088,10.8647,6.4395a2.16,2.16,0,0,1,.5254.3134l-.2373.3428-.48-.2851a1.6164,1.6164,0,0,0-.5889-.1094c-1.3945,0-2.7334,1.6807-2.9844,3.7461A3.6676,3.6676,0,0,0,275.52,217.69l.3076.1816Zm-9.1611-14.1582c-1.3945,0-2.7334,1.6807-2.9834,3.7461a3.6268,3.6268,0,0,0,1.0732,3.3838l9.9122,5.8584a4.8553,4.8553,0,0,1-.4248-2.8037c.26-2.1387,1.6308-3.9023,3.1269-4.0957l-10.0166-5.9365A1.5924,1.5924,0,0,0,266.4707,204.082Z"/><path class="cls-1" d="M264.6113,198.7119h-.0005a.1556.1556,0,0,1-.1543-.1553l.0064-3.3837a.1549.1549,0,0,1,.1548-.1553h0a.1556.1556,0,0,1,.1543.1553l-.0064,3.3837A.1549.1549,0,0,1,264.6113,198.7119Z"/><path class="cls-1" d="M276.6221,217.416a1.6391,1.6391,0,0,1-1.2481-.5869,3.3186,3.3186,0,0,1-.6377-2.5674c.21-1.7344,1.3448-3.0937,2.5821-3.0937a1.6389,1.6389,0,0,1,1.248.5869,3.3182,3.3182,0,0,1,.6377,2.5674C278.9941,216.0566,277.8594,217.416,276.6221,217.416Zm.6963-5.748c-.9727,0-1.9082,1.19-2.086,2.6543a2.8175,2.8175,0,0,0,.5156,2.1757,1.1533,1.1533,0,0,0,.8741.418c.9726,0,1.9082-1.19,2.0859-2.6543a2.8171,2.8171,0,0,0-.5156-2.1758A1.1533,1.1533,0,0,0,277.3184,211.668Z"/></g><g id="_1" data-name="1"><path class="cls-4" d="M461.03,159.9134l-14.9479,8.63,21.605,12.4736a1.6335,1.6335,0,0,0,1.6335,0l12.9059-7.4512a.8168.8168,0,0,0,0-1.4147Z"/><path class="cls-1" d="M468.5039,181.4844a1.8884,1.8884,0,0,1-.9414-.251L445.957,168.7607a.2505.2505,0,0,1,0-.4336l14.9483-8.6308a.2488.2488,0,0,1,.25,0l21.1963,12.2383a1.066,1.066,0,0,1,0,1.8476l-12.9053,7.4512A1.8893,1.8893,0,0,1,468.5039,181.4844Zm-21.9219-12.94L467.8125,180.8a1.3891,1.3891,0,0,0,1.3838,0l12.9053-7.4512a.565.565,0,0,0,0-.98L461.03,160.2021Z"/><path class="cls-1" d="M476.0977,185.4434a2.2176,2.2176,0,0,1-1.6914-.795,4.4861,4.4861,0,0,1-.8594-3.48c.2871-2.3281,1.8769-4.2216,3.5449-4.2216a2.2176,2.2176,0,0,1,1.6914.7949,4.4867,4.4867,0,0,1,.8594,3.48C479.3555,183.55,477.7656,185.4434,476.0977,185.4434Zm.9941-8.0645c-1.457,0-2.8545,1.7236-3.1152,3.8428a4.0551,4.0551,0,0,0,.7539,3.1406,1.7973,1.7973,0,0,0,1.3672.6494c1.457,0,2.8544-1.7236,3.1152-3.8428h0a4.0566,4.0566,0,0,0-.7539-3.1406A1.7988,1.7988,0,0,0,477.0918,177.3789Z"/><path class="cls-1" d="M487.5518,192.1035a2.219,2.219,0,0,1-1.6914-.7949,4.4876,4.4876,0,0,1-.8594-3.4805c.2871-2.3281,1.8769-4.2217,3.5449-4.2217a2.2177,2.2177,0,0,1,1.6914.795,4.4865,4.4865,0,0,1,.8594,3.48C490.81,190.209,489.22,192.1035,487.5518,192.1035Zm.9941-8.0654c-1.457,0-2.8545,1.7236-3.1152,3.8428a4.0576,4.0576,0,0,0,.7539,3.1416,1.7986,1.7986,0,0,0,1.3672.6494c1.457,0,2.8545-1.7246,3.1152-3.8438h0a4.0566,4.0566,0,0,0-.7539-3.1406A1.7988,1.7988,0,0,0,488.5459,184.0381Z"/><ellipse class="cls-1" cx="466.613" cy="175.1414" rx="0.2893" ry="0.6572" transform="matrix(0.3528, -0.9357, 0.9357, 0.3528, 138.1226, 549.9697)"/><ellipse class="cls-1" cx="472.2196" cy="171.9616" rx="0.2893" ry="0.6572" transform="translate(144.7267 553.1577) rotate(-69.3429)"/><path class="cls-4" d="M482.6155,173.3419l-13.2945,7.6752a1.6335,1.6335,0,0,1-1.6335,0l-21.605-12.4736v8.4582l21.6024,12.6377a1.6332,1.6332,0,0,0,1.6415.0047l12.8707-7.43a.8169.8169,0,0,0,.4084-.7064Z"/><path class="cls-1" d="M468.51,190.1123a1.8879,1.8879,0,0,1-.9512-.2568l-21.6025-12.6377a.2493.2493,0,0,1-.1241-.2158v-8.4581a.2521.2521,0,0,1,.125-.2168.2488.2488,0,0,1,.25,0L467.8125,180.8a1.3891,1.3891,0,0,0,1.3838,0L482.49,173.125a.2488.2488,0,0,1,.25,0,.2516.2516,0,0,1,.125.2168l-.01,8.166a1.07,1.07,0,0,1-.5332.9229l-12.8711,7.4306A1.8887,1.8887,0,0,1,468.51,190.1123ZM446.332,176.8584l21.4785,12.5654a1.3877,1.3877,0,0,0,1.3907.0039l12.8711-7.4306a.5661.5661,0,0,0,.2832-.4893l.0088-7.7324-12.918,7.458a1.901,1.901,0,0,1-1.8838,0L446.332,168.9766Z"/><path class="cls-4" d="M477.9117,177.3444l11.8616,6.913a1.9463,1.9463,0,0,0-1.2275-.4348c-1.5647,0-3.0556,1.8053-3.33,4.0323-.2238,1.8164.4309,3.3524,1.5289,3.8569l-11.7735-6.8436a3.8755,3.8755,0,0,1-1.21-3.6728c.2744-2.2269,1.7653-4.0323,3.33-4.0323A1.919,1.919,0,0,1,477.9117,177.3444Z"/><path class="cls-1" d="M486.6553,191.9082a2.2728,2.2728,0,0,1-.3662-.2109l-11.4268-6.6426a4.1045,4.1045,0,0,1-1.3154-3.8858c.2871-2.3281,1.8769-4.2216,3.5449-4.2216a2.1221,2.1221,0,0,1,.9121.2021l.0166.0088,11.3359,6.6064a2.2475,2.2475,0,0,1,.5518.3243l-.2432.3554-.5048-.2939a1.71,1.71,0,0,0-.6143-.1123c-1.457,0-2.8545,1.7236-3.1152,3.8428a3.7169,3.7169,0,0,0,1.1025,3.458l.32.1865Zm-9.5635-14.5293c-1.457,0-2.8545,1.7236-3.1152,3.8428a3.6828,3.6828,0,0,0,1.1181,3.47l10.3487,6.0137a4.9129,4.9129,0,0,1-.4424-2.877c.2705-2.1933,1.6982-4.0019,3.2568-4.2031l-10.4463-6.0889A1.6994,1.6994,0,0,0,477.0918,177.3789Z"/><path class="cls-1" d="M487.7041,190.9023a1.6371,1.6371,0,0,1-1.248-.5849,3.2155,3.2155,0,0,1-.62-2.4932c.2041-1.6631,1.3516-3.0166,2.5577-3.0166a1.6355,1.6355,0,0,1,1.249.586,3.2109,3.2109,0,0,1,.62,2.4912C490.0547,189.5771,488.9307,190.9023,487.7041,190.9023Zm.69-5.5947c-.9629,0-1.8868,1.1563-2.0616,2.5772a2.711,2.711,0,0,0,.4991,2.1006,1.15,1.15,0,0,0,.873.4169c.9619,0,1.8867-1.1562,2.0625-2.5781a2.7136,2.7136,0,0,0-.499-2.1A1.1509,1.1509,0,0,0,488.3936,185.3076Z"/></g><path class="cls-4" d="M486.8313,190.4041s14.9133,8.3672,20.0543,11.2987,8.2542,8.1467,2.4252,13.3918c-5.3844,4.8451-17.7171,11.2254-30.6867,18.7134s-33.1112-2.7773-39.471-7.2368-39.5379-23.41-47.7162-28.1313-16.2463-5.5962-26.22.1619l-38.6285,22.3021c-11.052,6.3809-18.9217,8.296-25.9393,4.035s-22.7858-13.404-22.7858-13.404l-1.9244,5.4712s15.7682,9.143,22.7858,13.4041,16.8117,2.8154,27.8637-3.5655,28.9356-17.0135,38.909-22.7716,15.8365-4.8837,24.0148-.1619,35.6715,20.3425,47.7162,28.1313S468.8,245.8654,478.03,241.296c13.1193-7.2226,34.078-20.5578,40.1212-25.5345,4.1952-3.4548,3.1835-10.7766-4.5528-15.76-4.975-3.205-24.6856-14.8445-24.6856-14.8445Z"/><path class="cls-1" d="M467.7539,236.7021c-11.5664,0-24.1621-6.7128-28.7441-9.9257-5.4825-3.8448-30.8741-18.4444-43.0762-25.46-1.92-1.1035-3.5039-2.0146-4.6221-2.66-8.8818-5.129-16.8906-5.0792-25.97.1621l-38.6279,22.3027c-11.9561,6.9023-19.543,8.0693-26.1944,4.0312-6.9355-4.2109-22.624-13.3095-22.7812-13.4013a.2494.2494,0,0,1,.25-.4317c.1582.0909,15.8515,9.1924,22.791,13.4053,6.4717,3.9307,13.9121,2.7588,25.6846-4.0371l38.6279-22.3027c9.251-5.3379,17.4141-5.39,26.47-.1621,1.1172.6455,2.7022,1.5566,4.6211,2.66,12.209,7.0195,37.6143,21.627,43.1143,25.4834,6.0586,4.2481,26.2666,14.6963,39.2021,7.2246,3.0283-1.748,6.0127-3.4336,8.8994-5.0635,9.4668-5.3466,17.6426-9.9638,21.7461-13.6191,2.8057-2.5,4.0723-4.6455,3.87-6.5576-.2226-2.1113-2.15-4.0938-6.2529-6.4307-5.1426-2.9287-20.124-11.4482-20.124-11.4482l.248-.4356s14.9815,8.5215,20.1241,11.45c4.2558,2.4239,6.2617,4.5244,6.5019,6.8116.2237,2.1132-1.0586,4.332-4.0351,6.9834-4.1426,3.69-12.34,8.32-21.8321,13.6816-2.8857,1.6289-5.8691,3.3144-8.8955,5.0615A21.7505,21.7505,0,0,1,467.7539,236.7021Z"/><path class="cls-1" d="M468.1309,242.7314c-9.3477,0-20.1534-3.5908-31.0362-10.4775-11.0127-6.97-34.8447-20.71-45.0215-26.5771l-2.6855-1.5489c-7.7891-4.499-13.6035-5.705-23.7647.1621-4.8642,2.8086-11.5029,6.7129-18.5312,10.8467-7.2354,4.2559-14.7168,8.6563-20.3779,11.9248-11.3975,6.5791-21.1211,7.8106-28.1192,3.5625-6.9355-4.2109-22.623-13.31-22.78-13.4023a.2494.2494,0,1,1,.25-.4317c.1582.0909,15.8505,9.1934,22.79,13.4063,6.832,4.1484,16.3789,2.917,27.6094-3.5684,5.6591-3.2675,13.1406-7.667,20.375-11.9228,7.0283-4.1338,13.6679-8.0391,18.5341-10.8487,10.3721-5.9892,16.3077-4.7539,24.2647-.1621l2.6855,1.55c10.18,5.8682,34.0176,19.6123,45.0391,26.5879,15.1846,9.6075,30.19,12.7559,41.1738,8.6348,16.4493-9.0586,32.3907-18.1445,37.3828-23.1367a10.7832,10.7832,0,0,0,3.2813-8.7354c-.2461-2.2959-1.44-5.6152-5.7383-8.3838-4.9131-3.166-24.48-14.7226-24.6767-14.84a.2486.2486,0,0,1-.0879-.3418.2452.2452,0,0,1,.3418-.0879c.1972.1162,19.7724,11.6787,24.6943,14.85,4.4629,2.875,5.7061,6.3457,5.9639,8.751a11.2822,11.2822,0,0,1-3.4248,9.1416c-5.0371,5.0371-21.0137,14.1445-37.5284,23.2363A30.0841,30.0841,0,0,1,468.1309,242.7314Z"/><polygon class="cls-3" points="227.144 183.679 233.259 187.084 234.511 186.326 228.396 182.921 227.144 183.679"/><polygon class="cls-3" points="234.758 187.918 240.873 191.323 242.124 190.565 236.01 187.16 234.758 187.918"/><polygon class="cls-3" points="219.532 179.44 225.646 182.846 226.898 182.088 220.783 178.682 219.532 179.44"/><polygon class="cls-3" points="243.621 191.399 242.37 192.157 245.909 194.128 247.16 193.37 243.621 191.399"/><polygon class="cls-3" points="219.94 175.98 218.582 175.223 214.434 175.876 213.486 178.31 214.845 179.066 215.559 177.23 218.033 178.607 219.284 177.849 216.81 176.472 219.94 175.98"/></g></g></g></svg>