<svg xmlns="http://www.w3.org/2000/svg" width="70.3678mm" height="80.3679mm" viewBox="0 0 199.4678 227.8145"><defs><style>.cls-1{fill:#808285;}.cls-2{fill:#fff;}.cls-3{fill:#00aeef;}</style></defs><title>11. Echelon U60 FT DIN</title><g id="Layer_2" data-name="Layer 2"><g id="_11._Echelon_U60_FT_DIN" data-name="11. Echelon U60 FT DIN"><g id="Expanded"><path class="cls-1" d="M193.0371,227.8145H6.4307A6.438,6.438,0,0,1,0,221.3838V6.4307A6.438,6.438,0,0,1,6.4307,0H193.0371a6.438,6.438,0,0,1,6.4307,6.4307V221.3838A6.438,6.438,0,0,1,193.0371,227.8145ZM6.4307,1.043A5.3939,5.3939,0,0,0,1.043,6.4307V221.3838a5.3939,5.3939,0,0,0,5.3877,5.3877H193.0371a5.3939,5.3939,0,0,0,5.3877-5.3877V6.4307a5.3939,5.3939,0,0,0-5.3877-5.3877Z"/><g id="Echelon_1" data-name="Echelon 1"><path class="cls-2" d="M114.5556,155.7287v-20.45a1.2978,1.2978,0,0,0-.649-1.124L102.2923,127.45a1.4126,1.4126,0,0,1-.7064-1.2234v-18.142a1.7225,1.7225,0,0,0-.8612-1.4916l-11.3713-6.5653a1.474,1.474,0,0,1-.7371-1.2765l0-19.101Q63.0348,57.0136,37.4525,49.8936a.5663.5663,0,0,0-.7144.547V69.65l-12.644-7.3a.2171.2171,0,0,0-.3256.188l0,19.576L11.2239,74.8712a.2833.2833,0,0,0-.425.2454l0,28.8909a11.3387,11.3387,0,0,0,5.6693,9.82L101.8,163.0932A8.5039,8.5039,0,0,0,114.5556,155.7287Z"/><path class="cls-1" d="M106.0518,164.6211a8.8669,8.8669,0,0,1-4.4395-1.2031L16.28,114.1523a11.7478,11.7478,0,0,1-5.8565-10.1445V75.1162a.6583.6583,0,0,1,.9883-.5693l11.9815,6.9179V62.5381a.5922.5922,0,0,1,.8867-.5137L36.3633,69V50.44a.9409.9409,0,0,1,1.1894-.9082C54.585,54.2734,71.85,64.3115,88.8643,79.3682a.3744.3744,0,0,1,.1269.2812V98.751a1.1047,1.1047,0,0,0,.55.9521l11.3711,6.5645a2.1045,2.1045,0,0,1,1.0488,1.8164v18.1426a1.0379,1.0379,0,0,0,.5186.8974l11.6152,6.7061a1.6771,1.6771,0,0,1,.836,1.4492v20.4492a8.9111,8.9111,0,0,1-8.8789,8.8926ZM11.1738,75.2754v28.7324a10.9939,10.9939,0,0,0,5.4815,9.4942l85.332,49.2656a8.1281,8.1281,0,0,0,12.1934-7.0391V135.2793a.9232.9232,0,0,0-.461-.7988l-11.6152-6.7061a1.7929,1.7929,0,0,1-.8936-1.5478V108.084a1.3484,1.3484,0,0,0-.6738-1.166L89.166,100.3525a1.8559,1.8559,0,0,1-.9248-1.6015V79.8184c-16.8887-14.919-34.01-24.8653-50.89-29.5635a.1767.1767,0,0,0-.1612.0322.1916.1916,0,0,0-.0771.1533v19.209a.375.375,0,0,1-.5625.3252L24.1436,62.8115V82.1143a.375.375,0,0,1-.5625.3252Z"/><rect class="cls-1" x="84.6036" y="64.4236" width="59.904" height="0.5005" transform="translate(-16.9901 65.8661) rotate(-29.9667)"/><path class="cls-1" d="M23.94,62.707a.375.375,0,0,1-.1924-.6972l12.7988-7.6582a.3753.3753,0,0,1,.3848.6445L24.1318,62.6543A.3825.3825,0,0,1,23.94,62.707Z"/><path class="cls-1" d="M10.92,75.2666a.375.375,0,0,1-.1933-.6963l12.8486-7.7539a.375.375,0,0,1,.3867.6426L11.1133,75.2129A.3763.3763,0,0,1,10.92,75.2666Z"/><rect class="cls-1" x="84.6034" y="84.3752" width="59.9045" height="0.5005" transform="translate(-26.9559 68.5334) rotate(-29.9667)"/><rect class="cls-1" x="97.5731" y="111.8157" width="59.9037" height="0.5005" transform="translate(-38.9285 78.6798) rotate(-29.9667)"/><rect class="cls-1" x="97.5731" y="91.8635" width="59.9037" height="0.5005" transform="translate(-28.9625 76.0125) rotate(-29.9667)"/><rect class="cls-1" x="110.5431" y="119.3035" width="59.904" height="0.5005" transform="translate(-40.9347 86.1594) rotate(-29.9667)"/><path class="cls-1" d="M110.9961,163.0186a.3751.3751,0,0,1-.1875-.7l51.5264-29.709a8.08,8.08,0,0,0,3.7236-6.833l.001-20.0537a1.6158,1.6158,0,0,0-.8047-1.3936L154.2,97.9482a2.2294,2.2294,0,0,1-1.1113-1.9238V78.2051a1.4753,1.4753,0,0,0-.7364-1.2754l-11.1591-6.4424A2.1579,2.1579,0,0,1,140.12,68.626V50.6914a1.8237,1.8237,0,0,0-.6221-1.3711c-16.5595-14.5058-33.3457-24.2334-49.8916-28.9111a2.3074,2.3074,0,0,0-1.7851.2285L37.1,50.2178a.375.375,0,1,1-.3769-.6485l50.7226-29.58a3.0571,3.0571,0,0,1,2.3652-.3018c16.6543,4.709,33.5381,14.4883,50.1817,29.0684a2.5753,2.5753,0,0,1,.8779,1.9355V68.626a1.4053,1.4053,0,0,0,.6983,1.2119l11.1591,6.4414a2.2293,2.2293,0,0,1,1.1114,1.9258V96.0244a1.4771,1.4771,0,0,0,.7363,1.2744L165.63,103.68a2.3684,2.3684,0,0,1,1.18,2.043l-.001,20.0537a8.8311,8.8311,0,0,1-4.084,7.4736l-51.541,29.7188A.3852.3852,0,0,1,110.9961,163.0186Z"/><path class="cls-1" d="M81.0088,56.0117a9.419,9.419,0,0,1-4.9453-1.3467l-.6953-.4443A3.7717,3.7717,0,0,1,73.34,51.15a2.9359,2.9359,0,0,1,1.6573-2.4336L92.584,38.5625c2.2637-1.3057,6.1162-1.083,8.5859.4961l.6944.4443a3.77,3.77,0,0,1,2.0293,3.07,2.9393,2.9393,0,0,1-1.6582,2.4336L84.6484,55.16A7.3915,7.3915,0,0,1,81.0088,56.0117ZM96.2256,38.2041a6.89,6.89,0,0,0-3.3916.792L75.2471,49.15A2.4588,2.4588,0,0,0,73.84,51.1611a3.2951,3.2951,0,0,0,1.7979,2.6377l.6953.4444c2.3281,1.49,5.9473,1.707,8.0654.4834l17.587-10.1534h0a2.4579,2.4579,0,0,0,1.4082-2.0107,3.2945,3.2945,0,0,0-1.7989-2.6377l-.6943-.4443A8.9068,8.9068,0,0,0,96.2256,38.2041Z"/><path class="cls-1" d="M82.9717,61.1309a18.7659,18.7659,0,0,1-9.5176-2.3457c-2.4775-1.5-3.832-3.52-3.8115-5.6866.02-2.2939,1.5527-4.44,4.3144-6.0429l14.9063-8.6514c5.4805-3.1807,14.1719-3.2061,19.3769-.0566,2.4786,1.5,3.8321,3.5195,3.8125,5.6865-.0214,2.2939-1.5537,4.4394-4.3144,6.0429h0L92.8311,58.7285A20.06,20.06,0,0,1,82.9717,61.1309ZM98.7246,36.44a19.6093,19.6093,0,0,0-9.6387,2.35L74.18,47.44c-2.62,1.5205-4.0733,3.5313-4.0928,5.6621-.0185,2.0039,1.2588,3.8868,3.5977,5.3018,5.0791,3.0752,13.5693,3.0478,18.9238-.06l14.9072-8.6514c2.62-1.52,4.0733-3.5322,4.0928-5.6631.0186-2.0029-1.26-3.8857-3.5986-5.3008A18.302,18.302,0,0,0,98.7246,36.44Z"/><path class="cls-2" d="M133.2024,127.32l4.4578,2.5735a5.6693,5.6693,0,0,1,2.8349,4.91v13.1909l10.9694-9.681,2-11.1909a5.6692,5.6692,0,0,0-2.8348-4.91l-4.4579-2.5735Z"/><path class="cls-1" d="M140.4951,148.2441a.2343.2343,0,0,1-.1025-.0224.2486.2486,0,0,1-.1475-.2276V134.8027a5.4322,5.4322,0,0,0-2.71-4.6923l-4.4581-2.5743a.2523.2523,0,0,1-.125-.2158.2482.2482,0,0,1,.1231-.2158l12.97-7.6807a.2478.2478,0,0,1,.252-.0019l4.458,2.5732a5.9362,5.9362,0,0,1,2.96,5.127l-2.0039,11.2343a.2447.2447,0,0,1-.081.1436l-10.97,9.6816A.2481.2481,0,0,1,140.4951,148.2441Zm-6.7978-20.9277,4.0879,2.36a5.9358,5.9358,0,0,1,2.96,5.1259V147.44l10.4893-9.2578,1.9844-11.1045a5.4291,5.4291,0,0,0-2.7139-4.6494l-4.3311-2.5Z"/><polygon class="cls-2" points="143.333 123.801 146.296 122.091 157.048 127.704 154.303 129.289 143.333 123.801"/><path class="cls-1" d="M154.3027,129.5391a.2558.2558,0,0,1-.1123-.0264l-10.97-5.4873a.25.25,0,0,1-.0127-.44l2.9629-1.711a.25.25,0,0,1,.24-.0049l10.752,5.6133a.25.25,0,0,1,.01.4385l-2.7452,1.585A.25.25,0,0,1,154.3027,129.5391Zm-10.4423-5.753,10.4335,5.2188,2.2344-1.29-10.2265-5.3388Z"/><polygon class="cls-2" points="143.333 123.801 143.333 136.5 154.303 141.988 154.303 129.289 143.333 123.801"/><path class="cls-1" d="M154.3027,142.2383a.2558.2558,0,0,1-.1123-.0264l-10.97-5.4883a.25.25,0,0,1-.1377-.2236V123.8018a.251.251,0,0,1,.1182-.2129.2547.2547,0,0,1,.2441-.0108l10.97,5.4873a.25.25,0,0,1,.1377.2237v12.6992a.2512.2512,0,0,1-.1181.2129A.2568.2568,0,0,1,154.3027,142.2383Zm-10.72-5.8926,10.47,5.2383V129.4434l-10.47-5.2373Z"/><polygon class="cls-2" points="154.303 141.988 157.048 140.403 157.048 127.704 154.303 129.289 154.303 141.988"/><path class="cls-1" d="M154.3027,142.2383a.2493.2493,0,0,1-.25-.25V129.2891a.2518.2518,0,0,1,.125-.2168l2.7452-1.585a.2488.2488,0,0,1,.25,0,.2518.2518,0,0,1,.125.2168v12.6992a.2518.2518,0,0,1-.125.2168l-2.7452,1.585A.25.25,0,0,1,154.3027,142.2383Zm.25-12.8047v12.1221l2.2452-1.2969V128.1367Z"/><polygon class="cls-2" points="137.241 127.265 140.203 125.554 150.955 131.168 148.21 132.753 137.241 127.265"/><path class="cls-1" d="M148.21,133.0029a.2567.2567,0,0,1-.1123-.0263l-10.97-5.4883a.25.25,0,0,1-.0127-.44l2.9629-1.71a.25.25,0,0,1,.24-.0049l10.7519,5.6133a.25.25,0,0,1,.01.4385L148.335,132.97A.25.25,0,0,1,148.21,133.0029Zm-10.4424-5.7539,10.4336,5.22,2.2343-1.29L140.209,125.84Z"/><polygon class="cls-2" points="137.241 127.265 137.241 139.963 148.21 145.451 148.21 132.753 137.241 127.265"/><path class="cls-1" d="M148.21,145.7012a.2554.2554,0,0,1-.1123-.0264l-10.97-5.4883a.25.25,0,0,1-.1377-.2236V127.2646a.2512.2512,0,0,1,.1182-.2128.2546.2546,0,0,1,.2441-.0108l10.97,5.4883a.25.25,0,0,1,.1377.2236v12.6983a.2513.2513,0,0,1-.1182.2129A.2565.2565,0,0,1,148.21,145.7012Zm-10.72-5.8926,10.47,5.2383v-12.14l-10.47-5.2383Z"/><polygon class="cls-2" points="148.21 145.451 150.955 143.866 150.955 131.168 148.21 132.753 148.21 145.451"/><path class="cls-1" d="M148.21,145.7012a.2493.2493,0,0,1-.25-.25V132.7529a.2518.2518,0,0,1,.125-.2168l2.7451-1.5849a.2488.2488,0,0,1,.25,0,.2518.2518,0,0,1,.125.2168v12.6982a.2518.2518,0,0,1-.125.2168l-2.7451,1.585A.2507.2507,0,0,1,148.21,145.7012Zm.25-12.8037v12.1211l2.2451-1.2969V131.6006Z"/><path class="cls-2" d="M133.2024,127.32l4.4578,2.5735a5.6693,5.6693,0,0,1,2.8349,4.91v13.1909l-7.2927-3.2777Z"/><path class="cls-1" d="M140.4951,148.2441a.2374.2374,0,0,1-.1025-.0224l-7.293-3.2783a.2488.2488,0,0,1-.1475-.2276V127.3193a.2521.2521,0,0,1,.125-.2168.2488.2488,0,0,1,.25,0l4.4581,2.5743a5.9358,5.9358,0,0,1,2.96,5.1259v13.1914a.25.25,0,0,1-.25.25Zm-7.043-3.69,6.793,3.0537V134.8027a5.4322,5.4322,0,0,0-2.71-4.6923l-4.0831-2.3584Z"/><g id="_1" data-name="1"><path class="cls-2" d="M131.2246,137.4l-14.9479,8.63,21.605,12.4736a1.6335,1.6335,0,0,0,1.6335,0l12.9059-7.4513a.8167.8167,0,0,0,0-1.4146Z"/><path class="cls-1" d="M138.6982,158.9717a1.8887,1.8887,0,0,1-.9414-.251l-21.6054-12.4736a.2505.2505,0,0,1,0-.4336L131.1,137.1826a.2488.2488,0,0,1,.25,0l21.1963,12.2383a1.066,1.066,0,0,1,0,1.8477l-12.9053,7.4521A1.8948,1.8948,0,0,1,138.6982,158.9717ZM116.7764,146.03l21.23,12.2568a1.3891,1.3891,0,0,0,1.3838,0l12.9053-7.4521a.5649.5649,0,0,0,0-.9805l-21.0713-12.166Z"/><path class="cls-1" d="M146.292,162.93a2.2175,2.2175,0,0,1-1.6914-.7949,4.4867,4.4867,0,0,1-.8594-3.48c.2871-2.3282,1.877-4.2217,3.5449-4.2217a2.2175,2.2175,0,0,1,1.6914.7949,4.4867,4.4867,0,0,1,.8594,3.48C149.55,161.0361,147.96,162.93,146.292,162.93Zm.9941-8.0645c-1.457,0-2.8545,1.7237-3.1152,3.8428a4.0555,4.0555,0,0,0,.7539,3.1406,1.7973,1.7973,0,0,0,1.3672.6494c1.457,0,2.8545-1.7236,3.1152-3.8427h0a4.0564,4.0564,0,0,0-.7539-3.1407A1.7988,1.7988,0,0,0,147.2861,154.8652Z"/><path class="cls-1" d="M157.7461,169.59a2.219,2.219,0,0,1-1.6914-.7949,4.4878,4.4878,0,0,1-.8594-3.48c.2871-2.3282,1.877-4.2217,3.5449-4.2217a2.2175,2.2175,0,0,1,1.6914.7949,4.4867,4.4867,0,0,1,.8594,3.48C161.0039,167.6953,159.4141,169.59,157.7461,169.59Zm.9941-8.0654c-1.457,0-2.8545,1.7236-3.1152,3.8428a4.058,4.058,0,0,0,.7539,3.1416,1.7988,1.7988,0,0,0,1.3672.6494c1.457,0,2.8545-1.7246,3.1152-3.8437h0a4.0564,4.0564,0,0,0-.7539-3.1407A1.7988,1.7988,0,0,0,158.74,161.5244Z"/><ellipse class="cls-1" cx="136.8072" cy="152.6278" rx="0.2893" ry="0.6572" transform="translate(-54.27 226.7963) rotate(-69.3429)"/><ellipse class="cls-1" cx="142.4138" cy="149.4479" rx="0.2893" ry="0.6572" transform="translate(-47.6658 229.9843) rotate(-69.3429)"/><path class="cls-2" d="M152.81,150.8283l-13.2946,7.6752a1.6335,1.6335,0,0,1-1.6335,0L116.2767,146.03v8.4582l21.6024,12.6377a1.6337,1.6337,0,0,0,1.6415.0047l12.8707-7.43a.8168.8168,0,0,0,.4084-.7064Z"/><path class="cls-1" d="M138.7041,167.5986a1.8879,1.8879,0,0,1-.9512-.2568L116.15,154.7041a.2492.2492,0,0,1-.124-.2158V146.03a.2516.2516,0,0,1,.125-.2168.2488.2488,0,0,1,.25,0l21.6054,12.4736a1.3891,1.3891,0,0,0,1.3838,0l13.294-7.6758a.2488.2488,0,0,1,.25,0,.2521.2521,0,0,1,.125.2168l-.01,8.166a1.07,1.07,0,0,1-.5332.9229l-12.8711,7.4307A1.8893,1.8893,0,0,1,138.7041,167.5986Zm-22.1777-13.2539L138.0049,166.91a1.388,1.388,0,0,0,1.3906.0039l12.8711-7.4307a.5661.5661,0,0,0,.2832-.4893l.0088-7.7324-12.918,7.459a1.8961,1.8961,0,0,1-1.8838,0l-21.23-12.2578Z"/><path class="cls-2" d="M148.1059,154.8308l11.8616,6.913a1.9463,1.9463,0,0,0-1.2275-.4348c-1.5647,0-3.0556,1.8053-3.33,4.0323-.2237,1.8164.4309,3.3523,1.529,3.8569l-11.7736-6.8436a3.8752,3.8752,0,0,1-1.21-3.6728c.2743-2.227,1.7652-4.0323,3.33-4.0323A1.9185,1.9185,0,0,1,148.1059,154.8308Z"/><path class="cls-1" d="M156.85,169.3945a2.2728,2.2728,0,0,1-.3662-.2109l-11.4268-6.6426a4.1029,4.1029,0,0,1-1.3154-3.8857c.2871-2.3282,1.877-4.2217,3.5449-4.2217a2.1164,2.1164,0,0,1,.9112.2021l.0166.0088,11.3369,6.6065a2.2466,2.2466,0,0,1,.5517.3242l-.2431.3555-.5049-.294a1.7092,1.7092,0,0,0-.6143-.1123c-1.457,0-2.8545,1.7236-3.1152,3.8428a3.7193,3.7193,0,0,0,1.1025,3.458l.32.1865Zm-9.5635-14.5293c-1.457,0-2.8545,1.7237-3.1152,3.8428a3.6819,3.6819,0,0,0,1.1182,3.47l10.3486,6.0137a4.9133,4.9133,0,0,1-.4424-2.8769c.27-2.1934,1.6983-4.002,3.2568-4.2032l-10.4472-6.0888A1.6889,1.6889,0,0,0,147.2861,154.8652Z"/><path class="cls-1" d="M157.8984,168.2891a1.5407,1.5407,0,0,1-1.1728-.5518,3.1169,3.1169,0,0,1-.5967-2.415c.1992-1.6143,1.3018-2.9287,2.459-2.9287a1.5406,1.5406,0,0,1,1.1738.5527,3.108,3.108,0,0,1,.5957,2.4131h0C160.1582,166.9746,159.0557,168.2891,157.8984,168.2891Zm.6895-5.5948c-1.0108,0-1.98,1.1953-2.1621,2.6651a2.8233,2.8233,0,0,0,.5244,2.18,1.2491,1.2491,0,0,0,.9482.4492c1.0108,0,1.98-1.1953,2.1621-2.666h0a2.8114,2.8114,0,0,0-.5234-2.1778A1.2473,1.2473,0,0,0,158.5879,162.6943Z"/></g><path class="cls-3" d="M65.4215,47.9281,61.75,50.0508l-8.97-5.0363,3.4418-1.99,1.7307.9718L56.09,45.0731l1.8241,1.0242,1.5972-.9234,1.6661.9355-1.5971.9234,1.9821,1.1129,2.0922-1.21Z"/><path class="cls-3" d="M70.0414,45.0908a2.5526,2.5526,0,0,1-1.0241.963,5.8779,5.8779,0,0,1-3.41.6209A10.4535,10.4535,0,0,1,61.26,45.2514q-2.3412-1.3146-2.6386-2.489a1.5572,1.5572,0,0,1,.8814-1.8558,5.9451,5.9451,0,0,1,1.9564-.6209l1.8816,1.0564a10.021,10.021,0,0,0-1.2509.2212,2.4539,2.4539,0,0,0-.4481.2018.826.826,0,0,0-.4642.9886q.16.6274,1.7046,1.4944a6.9756,6.9756,0,0,0,2.6938.992,2.9959,2.9959,0,0,0,1.7557-.3071,1.3252,1.3252,0,0,0,.6626-.9914Z"/><path class="cls-3" d="M61.6271,39.9l1.5913-.92L66.644,40.903l1.4911-.862-3.4257-1.9234,1.5913-.92,8.97,5.0364-1.5913.92-3.7919-2.1291-1.4793.8552L72.2,44.0092l-1.603.9268Z"/><path class="cls-3" d="M79.7123,39.6661l-3.6717,2.1227-8.97-5.0364,3.4418-1.99,1.7308.9718L70.381,36.811l1.8241,1.0243,1.5972-.9234,1.6661.9355-1.5971.9234,1.9821,1.1129,2.0922-1.21Z"/><path class="cls-3" d="M83.67,37.3781l-3.4418,1.99-8.97-5.0364,1.5795-.9131,7.2032,4.0444,1.8623-1.0767Z"/><path class="cls-3" d="M79.3189,34.7292a8.9606,8.9606,0,0,1-2.4362-1.7507,1.7788,1.7788,0,0,1-.4788-1.2864,1.5755,1.5755,0,0,1,.9173-1.0868,3.7491,3.7491,0,0,1,1.4152-.4949,7.2929,7.2929,0,0,1,1.6244.002,7.86,7.86,0,0,1,1.8823.4423,15.8143,15.8143,0,0,1,2.2931,1.0927q2.7074,1.52,2.9984,2.5265t-.8819,1.6843a4.8265,4.8265,0,0,1-2.976.5051A11.9464,11.9464,0,0,1,79.3189,34.7292Zm1.1339-1.2775.5745.3225a19.8314,19.8314,0,0,0,1.94,1.0021,2.8055,2.8055,0,0,0,1.0345.2081,1.6838,1.6838,0,0,0,.8568-.2007.461.461,0,0,0,.2672-.4409.9837.9837,0,0,0-.4348-.62,14.2529,14.2529,0,0,0-1.7334-1.0807,17.3482,17.3482,0,0,0-1.7565-.8956,3.5931,3.5931,0,0,0-1.1291-.2679,1.58,1.58,0,0,0-.8982.1673q-.5069.2931-.1957.7229A4.94,4.94,0,0,0,80.4528,33.4517Z"/><path class="cls-3" d="M94.8518,30.9134l-1.68.971-7.5333-2.0939-.0235.0136,5.6591,3.1775-1.5441.8927L80.7461,28.83l1.7385-1.0051,7.4177,2.0626.0294-.017-5.5729-3.1291,1.5087-.8723Z"/><path class="cls-3" d="M104.6172,59.1136q1.7267.9862.1014,1.92a3.3077,3.3077,0,0,1-3.5013.0447L95.949,58.07l.9664-.555,4.8784,2.7865a4.626,4.626,0,0,0,1.2283.5387,1.2989,1.2989,0,0,0,.92-.1845c.3183-.1828.4122-.3571.28-.524a3.962,3.962,0,0,0-1.0036-.71l-4.8243-2.7555.9663-.555Z"/><path class="cls-3" d="M104.57,56.197a1.2369,1.2369,0,0,1,.419-.4106,2.6,2.6,0,0,1,1.4381-.3285,4.8993,4.8993,0,0,1,2.0534.7509q1.2914.7377,1.3905,1.2631t-.769,1.0259a2.8227,2.8227,0,0,1-1.7221.38,5.3239,5.3239,0,0,1-2.0579-.7483,9.4246,9.4246,0,0,1-1.157-.7546,4.69,4.69,0,0,1-.751-.7546,8.0326,8.0326,0,0,1-.6546-.986l-.635-1.1363,1.09-.6261.8061,1.4671Zm1.8031,1.3412a5.21,5.21,0,0,0,1.2069.5461,1.0391,1.0391,0,0,0,.7948-.093q.585-.336-.5483-.9839l-.098-.043-.1137-.0649-.2225-.14-.1083-.0619a2.6514,2.6514,0,0,0-1.063-.4092,1.1169,1.1169,0,0,0-.6016.1161q-.3582.2056-.2454.4237a1.9285,1.9285,0,0,0,.71.5582l.1089.0492Z"/><path class="cls-3" d="M106.3128,51.9687a2.9229,2.9229,0,0,1,1.9922-.2908,10.6968,10.6968,0,0,1,3.19,1.3559,11.4855,11.4855,0,0,1,2.11,1.4069,1.152,1.152,0,0,1,.4218.8531q-.03.3932-.6155.7293a2.7046,2.7046,0,0,1-1.3856.3455,4.5049,4.5049,0,0,1-1.5969-.3208,19.569,19.569,0,0,1-2.41-1.2231,10.3324,10.3324,0,0,1-1.8571-1.2457,1.2512,1.2512,0,0,1-.4517-.8545q.0007-.41.5919-.7493Zm3.5673,1.3278-.2437-.1392q-.8023-.4584-1.12-.5983a2.7861,2.7861,0,0,0-.7282-.1971,1.0185,1.0185,0,0,0-.6581.0865c-.2421.139-.2553.319-.0394.5374a7.1418,7.1418,0,0,0,1.3607.9205l.2219.1268.2442.1264.2437.1392.5745.3411.1678.0959a10.9071,10.9071,0,0,0,1.6993.8339,1.1645,1.1645,0,0,0,.98-.02c.17-.098.2341-.2114.1919-.34a1.099,1.099,0,0,0-.4389-.4526q-.375-.2591-1.8867-1.1232l-.288-.1645Z"/><path class="cls-3" d="M107.0255,61.6278l-.7065.4046,1.7241.964.6318-.3618.6218.3477-.6317.3618,2.4961,1.3956-.41.2348-5.464-3.055,1.1164-.6394Z"/><path class="cls-3" d="M108.6821,60.6791l-.47.2693,4.842,2.7072-.4147.2376-4.8421-2.7073-.4678.2679-.6218-.3477,1.3527-.7747Z"/><path class="cls-3" d="M109.1517,59.7062l.598-.3424a1.7615,1.7615,0,0,1,1.2374-.0655,9.86,9.86,0,0,1,2.3827,1.0552,8.1321,8.1321,0,0,1,1.9212,1.3171q.4073.4705-.15.79l-.5257.301Zm.9766.0766,4.3488,2.4316q.26-.1492.2239-.3224t-.4377-.4726a13.2988,13.2988,0,0,0-1.3361-.8221,11.2562,11.2562,0,0,0-1.7882-.8593,1.171,1.171,0,0,0-.9553.0131Z"/><path class="cls-3" d="M111.01,58.6422l.4147-.2375,5.464,3.055-.4148.2375Z"/><path class="cls-3" d="M118.749,60.394l-.3255.1864L113.89,58.9326l-.0082.0064,3.7484,2.0958-.3713.2126-5.4639-3.0549.33-.1892,4.5359,1.6464.0125-.004-3.7527-2.0982.3641-.2085Z"/></g><g id="USB_2_Full" data-name="USB 2 Full"><polygon class="cls-2" points="18.157 152.405 18.157 157.045 7.793 151.102 7.793 146.461 18.157 152.405"/><path class="cls-1" d="M18.1572,157.2a.1571.1571,0,0,1-.0771-.02L7.7158,151.2363a.1571.1571,0,0,1-.0781-.1347v-4.6407a.1555.1555,0,0,1,.2324-.1347L18.2344,152.27a.1573.1573,0,0,1,.0781.1348v4.6406a.1562.1562,0,0,1-.1553.1553Zm-10.209-6.1885,10.0538,5.7656v-4.2832L7.9482,146.7285Z"/><polygon class="cls-2" points="7.793 146.461 20.555 139.093 30.733 144.938 18.157 152.405 7.793 146.461"/><path class="cls-1" d="M18.1572,152.56a.1582.1582,0,0,1-.0771-.02L7.7158,146.5957a.1572.1572,0,0,1-.0781-.1348.1546.1546,0,0,1,.0781-.1338l12.7617-7.3681a.1508.1508,0,0,1,.1543-.001l10.1787,5.8447a.1578.1578,0,0,1,.0782.1338.1557.1557,0,0,1-.0762.1338l-12.5762,7.4668A.1535.1535,0,0,1,18.1572,152.56ZM8.1035,146.4609l10.0528,5.7637L30.4258,144.94l-9.8711-5.668Z"/><polygon class="cls-2" points="30.733 144.938 18.157 152.405 18.157 157.045 30.733 149.902 30.733 144.938"/><path class="cls-1" d="M18.1572,157.2a.1591.1591,0,0,1-.0781-.0215.1546.1546,0,0,1-.0771-.1338v-4.6406a.1542.1542,0,0,1,.0761-.1328l12.5762-7.4668a.1527.1527,0,0,1,.1553-.002.1549.1549,0,0,1,.0791.1348v4.9639a.1548.1548,0,0,1-.0791.1347L18.2334,157.18A.1508.1508,0,0,1,18.1572,157.2Zm.1553-4.708v4.2861l12.2656-6.9668V145.21Z"/><polygon class="cls-2" points="20.288 143.873 22.463 142.618 24.069 143.53 21.888 144.797 20.288 143.873"/><path class="cls-1" d="M21.8877,144.9521a.1469.1469,0,0,1-.0772-.0214l-1.6-.9239a.1536.1536,0,0,1,0-.2675l2.1748-1.2559a.1492.1492,0,0,1,.1534-.001l1.6054.9131a.1545.1545,0,0,1,.002.2686l-2.1807,1.2666A.16.16,0,0,1,21.8877,144.9521Zm-1.29-1.0791,1.29.7452,1.87-1.0869-1.2939-.7354Z"/><polygon class="cls-2" points="14.45 147.258 16.625 146.002 18.248 146.937 16.05 148.182 14.45 147.258"/><path class="cls-1" d="M16.05,148.3369a.1455.1455,0,0,1-.0771-.0215l-1.6-.9238a.1537.1537,0,0,1,0-.2676l2.1749-1.2549a.1462.1462,0,0,1,.1542,0l1.6231.9346a.154.154,0,0,1-.001.2686l-2.1982,1.2441A.151.151,0,0,1,16.05,148.3369Zm-1.29-1.0791,1.291.7451,1.8847-1.0664-1.3105-.7549Z"/><path class="cls-2" d="M29.1084,143.4355l-12.906,7.4482L34.8977,161.59l5.5223-.5008a2.8338,2.8338,0,0,1,1.4843.2683l4.5223,2.1742a1.5423,1.5423,0,0,0,1.5652,0l4.8969-3.1459a.8027.8027,0,0,0,0-1.3786l-2.4974-1.5061a2.8347,2.8347,0,0,1-1.2421-3.2717h0a.9536.9536,0,0,0-.4335-1.11l-16.7731-9.6839A2.8346,2.8346,0,0,0,29.1084,143.4355Z"/><path class="cls-1" d="M47.207,163.9941a1.789,1.789,0,0,1-.9072-.2461l-4.5039-2.165a2.6166,2.6166,0,0,0-1.3535-.2451l-5.5225.501a.2459.2459,0,0,1-.1465-.0323l-18.6953-10.706a.2485.2485,0,0,1-.126-.2168.2518.2518,0,0,1,.125-.2168l12.9063-7.4482h0a3.0938,3.0938,0,0,1,3.084,0l16.7734,9.6845a1.1965,1.1965,0,0,1,.5469,1.4,2.5788,2.5788,0,0,0,1.1328,2.9834l2.4971,1.5068a1.0525,1.0525,0,0,1-.003,1.8077l-4.8876,3.1406A1.8129,1.8129,0,0,1,47.207,163.9941Zm-6.5332-3.167a3.095,3.095,0,0,1,1.3389.3047l4.5225,2.1748a1.3037,1.3037,0,0,0,1.33.01l4.8887-3.1406a.548.548,0,0,0,.2754-.48.5415.5415,0,0,0-.2666-.4727l-2.5-1.5088a3.0766,3.0766,0,0,1-1.3516-3.5595.699.699,0,0,0-.32-.8184l-16.7734-9.6846a2.5873,2.5873,0,0,0-2.584,0l-12.5293,7.2305,18.249,10.4512,5.4444-.4942C40.4893,160.832,40.582,160.8271,40.6738,160.8271Z"/><path class="cls-2" d="M53.2471,160.079l.0187,8.154a.7986.7986,0,0,1-.3914.6883l-4.8632,3.1253a1.5425,1.5425,0,0,1-1.5729-.0046l-4.5353-2.2213a2.8344,2.8344,0,0,0-1.4971-.2778l-4.6305.41a2.8346,2.8346,0,0,1-1.67-.37l-17.889-10.3493v-8.2424m-.0143-.1078,17.92,10.2626a2.8349,2.8349,0,0,0,1.6647.3632l4.6328-.42a2.8338,2.8338,0,0,1,1.4843.2683l4.5223,2.1742a1.5423,1.5423,0,0,0,1.5652,0l4.8969-3.1459a.7818.7818,0,0,0,.3441-.4148"/><path class="cls-1" d="M47.2266,172.5088a1.7887,1.7887,0,0,1-.9161-.252l-4.5175-2.2119a2.5936,2.5936,0,0,0-1.3643-.2529l-4.6308.41a3.04,3.04,0,0,1-1.8174-.4023L16.0918,159.4512a.2517.2517,0,0,1-.125-.2168v-8.2432l.001-.02a.251.251,0,0,1,.0176-.2109.2473.2473,0,0,1,.3408-.0928l17.92,10.2627a2.5779,2.5779,0,0,0,1.5185.331l4.6329-.4209a3.1057,3.1057,0,0,1,1.6152.292l4.5225,2.1748a1.3037,1.3037,0,0,0,1.33.01l4.8887-3.1406a.5475.5475,0,0,0,.2432-.2881.2508.2508,0,0,1,.3183-.1523.2478.2478,0,0,1,.166.2568.252.252,0,0,1,.0157.0859l.0185,8.1543a1.048,1.048,0,0,1-.5156.9043l-4.8535,3.12A1.815,1.815,0,0,1,47.2266,172.5088Zm-6.57-3.2266a3.0964,3.0964,0,0,1,1.3564.3135l4.5361,2.2217a1.304,1.304,0,0,0,1.336.0137l4.8545-3.12a.5533.5533,0,0,0,.2763-.4775l-.0176-7.6211-4.871,3.13a1.8006,1.8006,0,0,1-1.8272.0058l-4.5039-2.165a2.6166,2.6166,0,0,0-1.3535-.2451l-4.6328.4209a3.064,3.064,0,0,1-1.8116-.3955l-17.5312-10.04V159.09l17.7637,10.2764a2.5838,2.5838,0,0,0,1.5224.3379l4.6309-.41Q40.52,169.2822,40.6563,169.2822Z"/><ellipse class="cls-1" cx="40.5917" cy="158.0086" rx="0.2813" ry="0.631" transform="translate(-121.424 138.8952) rotate(-68.8643)"/><ellipse class="cls-1" cx="44.1922" cy="155.5407" rx="0.2813" ry="0.631" transform="translate(-116.8198 140.6754) rotate(-68.8643)"/><path class="cls-1" d="M50.2773,170.27a2.1107,2.1107,0,0,1-1.6064-.7568,4.4042,4.4042,0,0,1-.8389-3.4072c.2744-2.2676,1.7989-4.1123,3.3975-4.1123a2.1141,2.1141,0,0,1,1.6074.7568,4.403,4.403,0,0,1,.8389,3.4063h0C53.4,168.4238,51.876,170.27,50.2773,170.27Zm.9522-7.8584c-1.3945,0-2.7334,1.68-2.9834,3.7452a3.989,3.989,0,0,0,.7373,3.0791,1.7047,1.7047,0,0,0,1.2939.6162c1.3946,0,2.7334-1.6807,2.9844-3.7461h0a3.9889,3.9889,0,0,0-.7373-3.0782A1.7066,1.7066,0,0,0,51.23,162.4111Zm2.2393,3.72h0Z"/><path class="cls-1" d="M61.2529,176.7588a2.1119,2.1119,0,0,1-1.6074-.7578,4.3968,4.3968,0,0,1-.8379-3.4053c.2744-2.2676,1.7988-4.1133,3.3975-4.1133a2.11,2.11,0,0,1,1.6064.7569,4.4,4.4,0,0,1,.84,3.4072h0C64.376,174.9141,62.8516,176.7588,61.2529,176.7588Zm.9522-7.8584c-1.3946,0-2.7334,1.6807-2.9834,3.7461a3.9844,3.9844,0,0,0,.7363,3.0781,1.7067,1.7067,0,0,0,1.2949.6162c1.3946,0,2.7334-1.68,2.9844-3.7451a3.9871,3.9871,0,0,0-.7383-3.0791A1.7047,1.7047,0,0,0,62.2051,168.9Z"/><path class="cls-2" d="M52.0155,162.3785l11.3658,6.7365a1.8459,1.8459,0,0,0-1.1761-.4236c-1.4994,0-2.9279,1.7592-3.1908,3.9294-.2145,1.77.4128,3.2668,1.465,3.7585L49.1979,169.71a3.8134,3.8134,0,0,1-1.1591-3.5791c.2629-2.17,1.6915-3.9294,3.1909-3.9294A1.8127,1.8127,0,0,1,52.0155,162.3785Z"/><path class="cls-1" d="M60.374,176.6055a2.18,2.18,0,0,1-.3574-.21l-10.9453-6.4707a4.07,4.07,0,0,1-1.28-3.8242c.2764-2.2871,1.8194-4.1485,3.4385-4.1485a2.051,2.051,0,0,1,.8935.2012l.0206.0108L63.001,168.6a2.1814,2.1814,0,0,1,.5371.3213l-.2852.4092-.4795-.2842a1.5655,1.5655,0,0,0-.5683-.1045c-1.375,0-2.6944,1.6641-2.9424,3.71a3.6235,3.6235,0,0,0,1.0352,3.33l.3085.1827ZM51.23,162.4521c-1.375,0-2.6943,1.6641-2.9424,3.709a3.586,3.586,0,0,0,1.0567,3.3457l9.788,5.7852a4.974,4.974,0,0,1-.3652-2.7012c.2539-2.1025,1.5781-3.8457,3.0479-4.1133L51.8984,162.6A1.5674,1.5674,0,0,0,51.23,162.4521Z"/><path class="cls-1" d="M61.3809,175.7451a1.6391,1.6391,0,0,1-1.2481-.5869,3.3186,3.3186,0,0,1-.6377-2.5674c.21-1.7344,1.3447-3.0937,2.582-3.0937a1.6389,1.6389,0,0,1,1.2481.5869,3.3161,3.3161,0,0,1,.6377,2.5674h0C63.7529,174.3857,62.6182,175.7451,61.3809,175.7451Zm.6962-5.748c-.9726,0-1.9082,1.19-2.0859,2.6543a2.8171,2.8171,0,0,0,.5156,2.1757,1.1533,1.1533,0,0,0,.8741.418c.9726,0,1.9082-1.19,2.0859-2.6543a2.8175,2.8175,0,0,0-.5156-2.1758A1.1534,1.1534,0,0,0,62.0771,169.9971Z"/></g><path class="cls-2" d="M60.8382,175.3876c8.1783,4.7217,39.2715,22.4144,51.3162,30.2032s31.571,13.8229,40.8008,9.2535c13.1193-7.2226,29.5777-16.9967,35.99-21.51,4.4443-3.128,2.5671-11.0639-5.1692-16.0476-4.9751-3.205-24.6916-14.6438-24.6916-14.6438l-2.1047,5.1213s14.9429,8.2926,20.0839,11.2241S186.28,188.46,179.489,192.38L153.55,207.3563c-12.97,7.488-33.1112-2.7773-39.471-7.2368S70.9409,174.638,62.7626,169.9163"/><path class="cls-1" d="M174.2676,202.8008a.2507.2507,0,0,1-.1768-.0733,4.6306,4.6306,0,0,0-3.1133-1.6806,6.0036,6.0036,0,0,1-3.43-1.8477.25.25,0,0,1,.0517-.3935c3.3067-1.9082,5.1943-2.9541,6.86-3.877,1.45-.8037,2.82-1.5625,4.9043-2.7656,2.2929-1.3233,3.4531-3.0068,3.4472-5.0039-.0078-3.1865-2.9551-6.291-5.872-7.9541-5.08-2.8975-19.9317-11.1387-20.0811-11.2217a.25.25,0,1,1,.2422-.4375c.1494.083,15.0039,8.3262,20.0869,11.2256,3.042,1.7344,6.1152,5,6.124,8.3867.0059,2.1582-1.2724,4.0391-3.6972,5.4385-2.0879,1.2051-3.459,1.9648-4.9122,2.7695-1.6142.8945-3.4394,1.9053-6.5654,3.707a5.3913,5.3913,0,0,0,2.9385,1.4834,5.5174,5.5174,0,0,1,3.2578,1.6641c7.0859-4.2119,11.2861-6.8516,14.4688-9.0908a5.4753,5.4753,0,0,0,2.2558-4.7686c-.0781-3.8047-2.92-7.9677-7.417-10.8642-4.9131-3.1651-24.4843-14.5235-24.6806-14.6387a.2494.2494,0,1,1,.25-.4316c.1972.1142,19.7783,11.4785,24.7021,14.65,4.6348,2.9854,7.5645,7.3057,7.6455,11.2735a5.96,5.96,0,0,1-2.4687,5.1875c-3.2217,2.2685-7.48,4.9414-14.6934,9.2275A.252.252,0,0,1,174.2676,202.8008Z"/><path class="cls-1" d="M144.8447,216.6484c-9.9121,0-23.36-4.7265-32.8261-10.8476-10.2334-6.6182-34.542-20.57-46.2237-27.2754-2.1142-1.2139-3.8554-2.2129-5.082-2.9209a.25.25,0,1,1,.25-.4336c1.2256.708,2.9668,1.707,5.081,2.9209,11.6856,6.707,36.001,20.6641,46.2461,27.2891,12.4,8.0185,31.6534,13.6455,40.5538,9.24,1.1484-.6328,2.165-1.19,3.0947-1.6992,3.9668-2.1758,6.3906-3.5039,11.3525-6.4483a5.678,5.678,0,0,0-2.8808-1.4492,6.3123,6.3123,0,0,1-3.2823-1.7109c-1.3115.7558-2.0859,1.1943-2.9179,1.665-1.0371.5869-2.1641,1.2256-4.5352,2.5947-13.166,7.5987-33.6143-2.9541-39.7393-7.249-5.4033-3.789-32.8251-19.5371-46.0029-27.1045-2.2959-1.3183-4.15-2.3838-5.3691-3.0869a.25.25,0,1,1,.25-.4336c1.2178.7031,3.0722,1.7686,5.3681,3.0869,13.1836,7.5713,40.6192,23.3272,46.0411,27.128,6.0586,4.249,26.2627,14.6982,39.2021,7.2255,2.3731-1.37,3.501-2.0087,4.5391-2.5957.8652-.49,1.6679-.9443,3.0781-1.7587a.25.25,0,0,1,.3018.04,5.8969,5.8969,0,0,0,3.1835,1.7129,6.1283,6.1283,0,0,1,3.3506,1.8057.25.25,0,0,1-.0488.3916c-5.1621,3.0673-7.6045,4.4062-11.65,6.624-.9287.51-1.9463,1.0674-3.1035,1.7041A18.73,18.73,0,0,1,144.8447,216.6484Z"/><path class="cls-1" d="M172.4678,207.9932a.197.197,0,0,1-.1905-.1485,6.4652,6.4652,0,0,0-5.0459-5.0449,7.0115,7.0115,0,0,1-5.4453-5.4463.1973.1973,0,0,1,.3828-.0957,6.6211,6.6211,0,0,0,5.1582,5.1592,6.854,6.854,0,0,1,5.3321,5.33.197.197,0,0,1-.1426.2392A.1726.1726,0,0,1,172.4678,207.9932Z"/></g></g></g></svg>