<?xml version="1.0" encoding="utf-8"?>
<!-- Generator: Adobe Illustrator 23.1.1, SVG Export Plug-In . SVG Version: 6.00 Build 0)  -->
<svg version="1.1" id="Calque_1" xmlns="http://www.w3.org/2000/svg" xmlns:xlink="http://www.w3.org/1999/xlink" x="0px" y="0px"
	 viewBox="0 0 539.3 427.1" style="enable-background:new 0 0 539.3 427.1;" xml:space="preserve">
<style type="text/css">
	.st0{fill:#808285;}
	.st1{fill:#FFFFFF;}
	.st2{fill:none;}
	.st3{fill:#00AEEF;}
	.st4{fill:#F3797E;}
	.st5{fill:#6D6E71;}
	.st6{fill:#973E54;}
</style>
<title>21. serveur IP réseau LON</title>
<g id="Layer_2">
	<g id="_21._serveur_IP_réseau_LON">
		<g id="Expanded">
			<path class="st0" d="M533.4,427.1H6c-3.3,0-6-2.7-6-6V6c0-3.3,2.7-6,6-6h527.4c3.3,0,6,2.7,6,6v415.2
				C539.3,424.4,536.7,427.1,533.4,427.1z M6,0.7C3.1,0.8,0.8,3.1,0.8,6v415.2c0,2.9,2.3,5.2,5.2,5.2h527.4c2.9,0,5.2-2.3,5.2-5.2V6
				c0-2.9-2.3-5.2-5.2-5.2H6V0.7z"/>
			<path class="st0" d="M207.2,300.6c-0.1,0-0.1,0-0.2,0l-61.4-35.5c-0.1-0.1-0.2-0.2-0.2-0.3l0.3-11.3l-20.2-11.6
				c-0.1-0.1-0.2-0.2-0.2-0.3v-11.9l-19.9-11.5l-0.2,11.6c0,0.1-0.1,0.3-0.2,0.3c-0.1,0.1-0.3,0.1-0.4,0L85,218.4l-0.1,11
				c0,0.2-0.2,0.4-0.4,0.4c-0.1,0-0.1,0-0.2,0l-50.2-29c-0.1-0.1-0.2-0.2-0.2-0.3v-23.7c0-0.2,0.2-0.4,0.4-0.4c0.1,0,0.1,0,0.2,0.1
				l3.4,1.9v-54.2c0-2.7,2.2-4.9,4.9-4.9c0.8,0,1.6,0.2,2.4,0.6L79,138.8v-29c0-0.8,0.7-1.5,1.5-1.5c0.2,0,0.5,0.1,0.7,0.2
				c19.6,10.2,59.3,33.9,78.3,45.3c1.5,0.9,2.4,2.5,2.4,4.2v27l29.7,17.1c7,4.1,11.4,11.6,11.4,19.8v51.8l4.5,2.6
				c0.1,0.1,0.2,0.2,0.2,0.3l-0.1,23.6C207.6,300.4,207.4,300.6,207.2,300.6L207.2,300.6z M146.2,264.6l60.7,35l0.1-22.8l-4.5-2.6
				c-0.1-0.1-0.2-0.2-0.2-0.3v-52c0-7.9-4.2-15.2-11-19.1l-29.9-17.2c-0.1-0.1-0.2-0.2-0.2-0.3V158c0-1.4-0.8-2.8-2-3.5
				c-19.1-11.4-58.7-35-78.3-45.3c-0.2-0.1-0.5-0.1-0.7,0s-0.4,0.4-0.4,0.6v29.7c0,0.2-0.2,0.4-0.4,0.4c-0.1,0-0.1,0-0.2,0
				l-34.4-19.2c-2-1.1-4.5-0.4-5.6,1.6c-0.3,0.6-0.5,1.3-0.5,2V179c0,0.2-0.2,0.4-0.4,0.4c-0.1,0-0.1,0-0.2-0.1l-3.4-1.9v22.8
				l49.4,28.6l0.1-11c0-0.2,0.2-0.4,0.4-0.4c0.1,0,0.1,0,0.2,0.1l19.6,11.7l0.2-11.6c0-0.2,0.2-0.4,0.4-0.4c0.1,0,0.1,0,0.2,0
				l20.6,11.9c0.1,0.1,0.2,0.2,0.2,0.3v11.9l20.2,11.6c0.1,0.1,0.2,0.2,0.2,0.3L146.2,264.6z"/>
			<path class="st0" d="M371.5,205.6L371.5,205.6c-0.1,0-0.3-0.1-0.2-0.3l0,0l0.1-23.5l-4.5-2.6c-0.1,0-0.1-0.1-0.1-0.2v-52
				c0-7.9-4.2-15.2-11.1-19.2l-29.9-17.2c-0.1,0-0.1-0.1-0.1-0.2V63.1c0-1.5-0.8-2.9-2.1-3.6c-19.1-11.4-58.7-35-78.3-45.3
				c-0.5-0.2-0.8,0-1.4,0.3c-0.1,0.1-0.3,0.2-0.4,0.3c-0.1,0.1-0.3,0-0.3-0.1s0-0.3,0.1-0.3c0.1-0.1,0.3-0.2,0.4-0.2
				c0.6-0.4,1.2-0.7,1.9-0.4C265.1,24,304.8,47.6,323.8,59c1.4,0.9,2.3,2.4,2.3,4.1v27.2l29.7,17.2c7,4.1,11.3,11.5,11.3,19.7v51.9
				l4.5,2.6c0.1,0,0.1,0.1,0.1,0.2L371.5,205.6C371.7,205.5,371.6,205.6,371.5,205.6z"/>
			<path class="st0" d="M216.9,29.8h-0.1l-7.5-4.2c-1.2-0.7-2.7-0.7-3.9-0.1c-0.1,0.1-0.3,0-0.3-0.1c-0.1-0.1,0-0.3,0.1-0.3
				c1.4-0.7,3-0.7,4.4,0.1l7.5,4.2c0.1,0.1,0.2,0.2,0.1,0.3C217,29.8,217,29.8,216.9,29.8L216.9,29.8z"/>
			
				<rect x="104" y="226.3" transform="matrix(0.8616 -0.5076 0.5076 0.8616 -99.8188 87.314)" class="st0" width="12.4" height="0.8"/>
			<polygon class="st0" points="84.8,229.8 84.5,229.1 95,223.8 95.4,224.4 			"/>
			<polygon class="st1" points="212,292.2 357.2,208.4 357.2,184.7 207.3,271.2 207.3,294.9 			"/>
			<path class="st0" d="M207.3,295.2c-0.1,0-0.2-0.1-0.2-0.2l0,0v-23.7c0-0.1,0-0.2,0.1-0.2l149.9-86.5c0.1,0,0.2,0,0.2,0
				c0.1,0,0.1,0.1,0.1,0.2v23.7c0,0.1,0,0.2-0.1,0.2l-149.9,86.5C207.4,295.2,207.4,295.2,207.3,295.2z M207.6,271.3v23.2L357,208.2
				v-23.1L207.6,271.3z"/>
			<path class="st1" d="M202.7,226.5v47.4L367,179v-47.4c0,0,1.2-8.9-2.8-15.4s-10.7-9.9-14.2-12c-4.3,2.9-158.4,92.9-163.1,95.5
				c2.7,1.5,8.9,4.5,11.9,9.4S202.7,216,202.7,226.5z"/>
			<path class="st0" d="M202.7,274.1c-0.1,0-0.2-0.1-0.2-0.2l0,0v-47.4c0-10.4-0.9-12.2-3.9-17.2c-2.6-4.3-7.6-7-10.6-8.7
				c-0.4-0.2-0.9-0.5-1.2-0.7c-0.1-0.1-0.2-0.2-0.1-0.3l0.1-0.1c1.2-0.7,158.4-92.4,163.1-95.5c0.1-0.1,0.2-0.1,0.3,0
				c0.3,0.2,0.6,0.3,0.9,0.5c3.6,2.1,9.7,5.5,13.4,11.6c4,6.5,2.8,15.4,2.8,15.5V179c0,0.1,0,0.2-0.1,0.2L202.9,274
				C202.8,274.1,202.7,274.1,202.7,274.1z M187.4,199.8c0.2,0.1,0.5,0.3,0.8,0.4c3,1.7,8.1,4.5,10.8,8.8c3.1,5,4,6.9,4,17.4v47
				l163.8-94.6v-47.3c0-0.1,1.2-8.9-2.7-15.2c-3.6-5.9-9.7-9.3-13.2-11.4c-0.3-0.1-0.5-0.3-0.8-0.4
				C343.2,108.9,195.9,194.8,187.4,199.8z"/>
			<polygon class="st1" points="202.7,273.9 207.3,271.2 212,273.9 207.3,276.6 			"/>
			<path class="st0" d="M207.3,276.8h-0.1l-4.7-2.7c-0.1-0.1-0.2-0.2-0.1-0.3l0.1-0.1l4.7-2.7c0.1,0,0.2,0,0.3,0l4.7,2.7
				c0.1,0,0.1,0.1,0.1,0.2s0,0.2-0.1,0.2l-4.7,2.7C207.4,276.8,207.4,276.8,207.3,276.8z M203.2,273.9l4.2,2.4l4.2-2.4l-4.2-2.4
				L203.2,273.9z"/>
			<polygon class="st1" points="212,273.9 212,297.6 207.2,300.2 207.3,276.6 			"/>
			<path class="st0" d="M207.2,300.5h-0.1c-0.1,0-0.1-0.1-0.1-0.2l0.1-23.6c0-0.1,0-0.2,0.1-0.2l4.7-2.7c0.1,0,0.2,0,0.2,0
				c0.1,0,0.1,0.1,0.1,0.2v23.7c0,0.1,0,0.2-0.1,0.2L207.2,300.5C207.3,300.5,207.3,300.5,207.2,300.5z M207.6,276.7l-0.1,23.1
				l4.3-2.3v-23.1L207.6,276.7z"/>
			<path class="st1" d="M367,179c0,0.3,4.7,2.7,4.7,2.7l-9.5,5.1l-4.9-2.2L367,179z"/>
			<path class="st0" d="M362.1,187.1H362l-4.9-2.2c-0.1-0.1-0.2-0.2-0.1-0.3l0.1-0.1l9.7-5.6c0.1-0.1,0.3,0,0.3,0.1l0,0
				c1.5,0.9,3,1.8,4.5,2.6c0.1,0.1,0.2,0.2,0.1,0.3l-0.1,0.1L362.1,187.1C362.2,187.1,362.1,187.1,362.1,187.1z M357.8,184.6
				l4.3,1.9l9-4.8c-1.4-0.7-2.8-1.5-4.2-2.4L357.8,184.6z M367.2,179L367.2,179z"/>
			<polygon class="st1" points="362.1,186.8 362.1,211.3 371.5,205.4 371.6,181.7 			"/>
			<path class="st0" d="M362.1,211.6H362c-0.1,0-0.1-0.1-0.1-0.2v-24.5c0-0.1,0.1-0.2,0.1-0.2l9.5-5.1c0.1-0.1,0.3,0,0.3,0.1v0.1
				l-0.1,23.6c0,0.1,0,0.2-0.1,0.2L362.1,211.6C362.2,211.5,362.1,211.6,362.1,211.6z M362.3,187v23.9l8.9-5.6l0.1-23.1L362.3,187z"
				/>
			<polygon class="st1" points="362.1,211.3 357.2,208.4 357.2,184.7 362.1,186.8 			"/>
			<path class="st0" d="M362.1,211.6H362l-4.9-2.9c-0.1,0-0.1-0.1-0.1-0.2v-23.7c0-0.1,0-0.2,0.1-0.2s0.2-0.1,0.2,0l4.9,2.2
				c0.1,0,0.1,0.1,0.1,0.2v24.5c0,0.1,0,0.2-0.1,0.2C362.2,211.5,362.1,211.6,362.1,211.6z M357.5,208.2l4.4,2.6V187l-4.4-1.9V208.2
				z"/>
			<polygon class="st1" points="350,104.3 325.9,90.3 161.6,185.2 186.8,199.8 			"/>
			<path class="st0" d="M186.8,200h-0.1l-25.2-14.6c-0.1-0.1-0.2-0.2-0.1-0.3l0.1-0.1l164.3-94.8c0.1,0,0.2,0,0.2,0l24.1,13.9
				c0.1,0.1,0.2,0.2,0.1,0.3l-0.1,0.1L187,200C186.9,200,186.9,200,186.8,200z M162.1,185.2l24.7,14.3l162.6-95.2l-23.6-13.6
				L162.1,185.2z"/>
			<path class="st1" d="M325.9,90.3V63c0-0.8-0.2-1.5-0.6-2.2c-2.5,1.6-161.6,93.3-164.1,94.8c0.4,0.7,0.6,1.5,0.5,2.3
				c0,1.1,0,27.3,0,27.3L325.9,90.3z"/>
			<path class="st0" d="M161.6,185.4c-0.1,0-0.2-0.1-0.2-0.2l0,0v-27.3c0.1-0.7-0.1-1.5-0.5-2.1c0-0.1,0-0.1,0-0.2
				c0-0.1,0.1-0.1,0.1-0.2c0.8-0.4,15.5-9,35.9-20.7c47.3-27.3,126.5-72.9,128.2-74c0.1-0.1,0.2,0,0.3,0c0.5,0.7,0.7,1.5,0.7,2.3
				v27.3c0,0.1,0,0.2-0.1,0.2l-164.3,94.8C161.7,185.4,161.7,185.4,161.6,185.4z M161.5,155.7c0.3,0.7,0.5,1.4,0.4,2.2v26.9
				l163.8-94.6V63c0-0.6-0.1-1.3-0.5-1.8c-4.6,2.8-81.6,47.2-128,73.9C177.8,146.3,163.5,154.5,161.5,155.7L161.5,155.7z
				 M325.9,90.4L325.9,90.4z"/>
			<line class="st2" x1="40.7" y1="120.2" x2="204.7" y2="25.6"/>
			<path class="st0" d="M40.7,120.5c-0.1,0-0.3-0.1-0.3-0.2s0-0.2,0.1-0.2l164-94.7c0.1-0.1,0.3,0,0.3,0.1c0.1,0.1,0,0.3-0.1,0.3
				L40.7,120.5C40.8,120.5,40.8,120.5,40.7,120.5z"/>
			<line class="st2" x1="243.4" y1="14.5" x2="79.9" y2="108.9"/>
			<path class="st0" d="M79.9,109.1c-0.1,0-0.3-0.1-0.3-0.2s0-0.2,0.1-0.2l163.4-94.3c0.1-0.1,0.3,0,0.3,0.1s0,0.3-0.1,0.3
				L80.1,109.1C80,109.1,80,109.1,79.9,109.1z"/>
			<polygon class="st1" points="244.2,16.9 320.8,60.5 161.6,151.6 86.8,107.9 			"/>
			<path class="st0" d="M161.6,151.7L161.6,151.7L86.7,108l-0.1-0.1c0,0,0-0.1,0.1-0.1l157.5-91h0.1l76.6,43.5l0.1,0.1
				c0,0,0,0.1-0.1,0.1L161.6,151.7C161.7,151.7,161.7,151.7,161.6,151.7z M87,107.9l74.6,43.6l158.9-91l-76.4-43.4L87,107.9z"/>
			<line class="st2" x1="107.9" y1="114.8" x2="258" y2="28.4"/>
			<path class="st0" d="M107.9,114.9C107.8,114.9,107.8,114.8,107.9,114.9c-0.1-0.1-0.1-0.2,0-0.2L258,28.3c0.1,0,0.1,0,0.2,0l0,0
				c0,0.1,0,0.1,0,0.2L107.9,114.9L107.9,114.9z"/>
			<path class="st0" d="M245.2,246c-0.9,0-1.7-0.8-1.7-1.7v-14.1c0-0.6,0.3-1.2,0.8-1.5l27.4-15.8c0.8-0.5,1.8-0.2,2.3,0.6
				c0.1,0.3,0.2,0.5,0.2,0.8v14.1c0,0.6-0.3,1.2-0.8,1.5L246,245.7C245.8,246,245.5,246,245.2,246z M272.6,213.2
				c-0.2,0-0.4,0.1-0.6,0.2l-27.4,15.8c-0.4,0.2-0.6,0.6-0.6,1.1v14.1c0,0.7,0.6,1.3,1.3,1.3c0.2,0,0.4-0.1,0.6-0.2l27.4-15.8
				c0.4-0.2,0.6-0.6,0.6-1.1v-14.1c0-0.5-0.2-0.9-0.6-1.1C273.1,213.2,272.8,213.2,272.6,213.2z"/>
			<path class="st0" d="M260.8,229.8L260.8,229.8l-3.9-2.2c-0.1,0-0.1-0.2-0.1-0.3s0.2-0.1,0.3-0.1l0,0l3.8,2.2
				c0.1,0.1,0.1,0.2,0.1,0.3C261,229.8,260.9,229.8,260.8,229.8L260.8,229.8z"/>
			<path class="st0" d="M267.9,225.2C267.9,225.2,267.8,225.2,267.9,225.2L264,223c-0.1,0-0.1-0.2-0.1-0.2c0-0.1,0.2-0.1,0.2-0.1
				l0,0l3.8,2.2c0.1,0.1,0.1,0.2,0.1,0.3C268,225.2,268,225.2,267.9,225.2L267.9,225.2z"/>
			<path class="st0" d="M252.1,235L252.1,235l-4-2.3c-0.1-0.1-0.1-0.2-0.1-0.3c0.1-0.1,0.2-0.1,0.2-0.1l3.9,2.3
				c0.1,0.1,0.1,0.2,0.1,0.3C252.3,235,252.2,235,252.1,235L252.1,235z"/>
			<path class="st0" d="M245.5,244.1C245.5,244.1,245.4,244.1,245.5,244.1c-0.1,0-0.2-0.1-0.2-0.2v-13c0-0.1,0-0.1,0.1-0.2
				l27.1-16.1c0.1,0,0.1,0,0.2,0s0.1,0.1,0.1,0.2v13.1c0,0.1-0.1,0.2-0.2,0.2c0,0-0.1,0-0.1-0.1l-0.7-0.7c-1.1,1.2-2.2,2.2-3.6,3.1
				c-1.2,0.6-2.5,1-3.8,1.2c-1.3,1.3-2.7,2.5-4.2,3.6c-1.6,0.9-3.3,1.3-5.1,1.4c-1.2,1.7-2.8,3.2-4.5,4.4c-1.3,0.7-2.7,1.2-4.2,1.5
				l-0.7,1.5C245.6,244,245.5,244.1,245.5,244.1z M245.7,231v12.1l0.4-0.9c0-0.1,0.1-0.1,0.1-0.1c1.5-0.2,2.9-0.7,4.2-1.4
				c1.7-1.2,3.2-2.7,4.4-4.4l0.1-0.1c1.7,0,3.4-0.5,5-1.3c1.5-1.1,2.9-2.2,4.2-3.6c0,0,0.1,0,0.1-0.1c1.3-0.2,2.6-0.6,3.8-1.2
				c1.3-0.9,2.5-2,3.6-3.2l0.1-0.1c0.1,0,0.1,0,0.1,0.1l0.6,0.5V215L245.7,231z"/>
			<path class="st0" d="M327.5,198.4c-0.9,0-1.7-0.8-1.7-1.7v-13.9c0-0.6,0.3-1.1,0.8-1.4l27-15.6c0.8-0.5,1.8-0.2,2.3,0.6
				c0.1,0.3,0.2,0.5,0.2,0.8v13.9c0,0.6-0.3,1.1-0.8,1.4l-27,15.6C328.1,198.3,327.8,198.4,327.5,198.4z M354.5,166
				c-0.2,0-0.4,0.1-0.6,0.2l-27,15.6c-0.4,0.2-0.6,0.6-0.6,1.1v13.9c0,0.7,0.6,1.2,1.2,1.2c0.2,0,0.4-0.1,0.6-0.2l27-15.6
				c0.4-0.2,0.6-0.6,0.6-1.1v-13.9C355.7,166.6,355.2,166,354.5,166z"/>
			<path class="st0" d="M342.9,182.4C342.8,182.4,342.8,182.4,342.9,182.4l-3.8-2.2c-0.1,0-0.1-0.2-0.1-0.2c0-0.1,0.2-0.1,0.2-0.1
				l0,0l3.7,2.1c0.1,0.1,0.1,0.2,0.1,0.2C343,182.4,342.9,182.4,342.9,182.4L342.9,182.4z"/>
			<path class="st0" d="M349.8,177.8L349.8,177.8l-3.8-2.2c-0.1-0.1-0.1-0.2-0.1-0.2c0.1-0.1,0.2-0.1,0.2-0.1l0,0l3.7,2.1
				c0.1,0.1,0.1,0.2,0.1,0.2C349.9,177.8,349.9,177.8,349.8,177.8L349.8,177.8z"/>
			<path class="st0" d="M334.3,187.5C334.3,187.5,334.2,187.5,334.3,187.5l-3.9-2.2c-0.1-0.1-0.1-0.2-0.1-0.2
				c0.1-0.1,0.2-0.1,0.2-0.1l0,0l3.9,2.2c0.1,0.1,0.1,0.2,0.1,0.2C334.4,187.4,334.4,187.5,334.3,187.5z"/>
			<path class="st0" d="M327.7,196.4L327.7,196.4c-0.1,0-0.2-0.1-0.2-0.2v-12.8c0-0.1,0-0.1,0.1-0.2l26.7-15.8c0.1,0,0.1,0,0.2,0
				s0.1,0.1,0.1,0.2v12.9c0,0.1,0,0.1-0.1,0.2c-0.1,0-0.1,0-0.2,0l-0.7-0.7c-1,1.2-2.2,2.2-3.5,3.1c-1.2,0.6-2.5,1-3.8,1.2
				c-1.3,1.3-2.6,2.5-4.1,3.5c-1.5,0.8-3.2,1.3-5,1.3c-1.2,1.7-2.7,3.2-4.4,4.3c-1.3,0.7-2.7,1.2-4.1,1.5l-0.7,1.4
				C327.9,196.4,327.8,196.4,327.7,196.4z M327.9,183.6v11.9l0.4-0.9c0-0.1,0.1-0.1,0.1-0.1c1.4-0.2,2.8-0.7,4.1-1.4
				c1.7-1.2,3.2-2.6,4.4-4.3l0.1-0.1c1.7,0,3.4-0.5,4.9-1.3c1.5-1,2.8-2.2,4.1-3.5c0,0,0.1,0,0.1-0.1c1.3-0.2,2.5-0.6,3.7-1.2
				c1.3-0.9,2.5-1.9,3.5-3.1l0.1-0.1c0,0,0.1,0,0.1,0.1l0.5,0.5v-12L327.9,183.6z"/>
			<path class="st0" d="M277,227.6c-0.2,0-0.3-0.1-0.3-0.3v-26.2c0-0.1,0.1-0.2,0.1-0.3l28.4-16.3c0.1-0.1,0.3,0,0.4,0.1v0.1v26.2
				c0,0.1-0.1,0.2-0.1,0.3l-28.4,16.3C277.1,227.6,277,227.6,277,227.6z M277.3,201.4v25.5l27.8-15.9v-25.5L277.3,201.4z"/>
			<path class="st3" d="M287.7,219.7c-0.2,0-0.3-0.1-0.3-0.3V218l-2,1.2c-0.1,0.1-0.3,0-0.4-0.1V219v-2.8l-4.5,2.6
				c-0.1,0.1-0.3,0-0.4-0.1v-0.1v-14.7c0-0.1,0.1-0.2,0.1-0.3L302,191c0.1-0.1,0.3,0,0.4,0.1v0.1v14.7c0,0.1-0.1,0.2-0.1,0.3
				l-4.8,2.8v3.1c0,0.1-0.1,0.2-0.1,0.3l-2.3,1.3v1.8c0,0.1-0.1,0.2-0.1,0.3l-7,4C287.8,219.7,287.7,219.7,287.7,219.7z
				 M287.7,217.2c0.2,0,0.3,0.1,0.3,0.3v1.5l6.4-3.7v-1.8c0-0.1,0.1-0.2,0.1-0.3l2.3-1.3v-3.1c0-0.1,0.1-0.2,0.1-0.3l4.8-2.8v-14
				L280.5,204v14l4.5-2.6c0.1-0.1,0.3,0,0.4,0.1v0.1v2.8l2-1.2C287.6,217.2,287.6,217.2,287.7,217.2L287.7,217.2z M294.7,215.4
				L294.7,215.4z"/>
			<polygon class="st1" points="346.2,206.4 328.4,196.1 328.4,162.4 345.1,172.1 346.3,194.1 			"/>
			<path class="st4" d="M346.2,206.7h-0.1l-17.8-10.3c-0.1,0-0.1-0.1-0.1-0.2v-33.7c0-0.1,0.1-0.2,0.3-0.2h0.1l16.7,9.7
				c0.1,0,0.1,0.1,0.1,0.2l1.2,22v12.3C346.5,206.6,346.4,206.7,346.2,206.7L346.2,206.7L346.2,206.7z M328.7,196l17.3,10v-11.9
				l-1.2-21.8l-16.2-9.4L328.7,196z"/>
			<polygon class="st1" points="345.1,172.1 371.9,156.5 373.1,178.6 373.1,191.1 346.2,206.4 346.3,194.1 			"/>
			<path class="st4" d="M346.2,206.7h-0.1c-0.1,0-0.1-0.1-0.1-0.2v-12.3l-1.2-22c0-0.1,0-0.2,0.1-0.2l26.8-15.7
				c0.1-0.1,0.3,0,0.3,0.1v0.1l1.3,22.1v12.5c0,0.1,0,0.2-0.1,0.2L346.2,206.7C346.3,206.7,346.3,206.7,346.2,206.7z M345.3,172.3
				l1.2,21.8V206l26.4-15.1v-12.3l-1.2-21.7L345.3,172.3z"/>
			<polygon class="st1" points="328.4,162.4 345.1,172.1 371.9,156.5 355.4,146.8 			"/>
			<path class="st4" d="M345.1,172.4H345l-16.7-9.7c-0.1-0.1-0.2-0.2-0.1-0.3l0.1-0.1l27-15.6c0.1,0,0.2,0,0.3,0l16.4,9.7
				c0.1,0.1,0.2,0.2,0.1,0.3l-0.1,0.1L345.1,172.4C345.2,172.4,345.1,172.4,345.1,172.4z M328.9,162.4l16.2,9.4l26.3-15.4l-15.9-9.4
				L328.9,162.4z"/>
			<path class="st4" d="M349.2,203h-0.1c-0.1,0-0.1-0.1-0.1-0.2v-8.3c0-0.1,0-0.2,0.1-0.2l5.9-3.4c0.1,0,0.2,0,0.2,0
				c0.1,0,0.1,0.1,0.1,0.2v8.3c0,0.1,0,0.2-0.1,0.2l-5.9,3.4C349.3,203,349.3,203,349.2,203z M349.5,194.6v7.7l5.4-3.1v-7.7
				L349.5,194.6z"/>
			<path class="st4" d="M357.4,198.3h-0.1c-0.1,0-0.1-0.1-0.1-0.2v-8.3c0-0.1,0-0.2,0.1-0.2l5.9-3.4c0.1,0,0.2,0,0.2,0
				c0.1,0,0.1,0.1,0.1,0.2v8.3c0,0.1,0,0.2-0.1,0.2l-5.9,3.4H357.4z M357.6,189.9v7.7l5.4-3.1v-7.7L357.6,189.9z"/>
			<path class="st4" d="M357.4,196.3c-0.1,0-0.3-0.1-0.3-0.2c0-0.1,0-0.2,0.1-0.2l4-2.3v-5.9c0-0.1,0.1-0.2,0.2-0.2s0.2,0.1,0.2,0.2
				v6.1c0,0.1,0,0.2-0.1,0.2l-4.1,2.4C357.5,196.2,357.4,196.3,357.4,196.3z"/>
			<path class="st4" d="M349.2,200.9c-0.1,0-0.3-0.1-0.3-0.2c0-0.1,0-0.2,0.1-0.2l3.9-2.2v-6c0-0.1,0.1-0.2,0.2-0.2s0.2,0.1,0.2,0.2
				v6.1c0,0.1,0,0.2-0.1,0.2L349.2,200.9C349.3,200.9,349.3,200.9,349.2,200.9z"/>
			<path class="st4" d="M363.3,194.9h-0.1l-1.8-1c-0.1-0.1-0.2-0.2-0.1-0.3s0.2-0.2,0.3-0.1l0,0l1.8,1c0.1,0.1,0.2,0.2,0.1,0.3
				C363.5,194.8,363.4,194.9,363.3,194.9z"/>
			<path class="st4" d="M365.3,193.6c-0.1,0-0.2-0.1-0.2-0.2l0,0v-8.3c0-0.1,0-0.2,0.1-0.2l5.9-3.4c0.1,0,0.2,0,0.2,0
				c0.1,0,0.1,0.1,0.1,0.2v8.3c0,0.1,0,0.2-0.1,0.2l-5.9,3.4H365.3z M365.5,185.2v7.7l5.4-3.1v-7.7L365.5,185.2z"/>
			<path class="st4" d="M365.3,191.6c-0.1,0-0.3-0.1-0.3-0.2c0-0.1,0-0.2,0.1-0.2l4-2.3V183c0-0.1,0.1-0.2,0.2-0.2s0.2,0.1,0.2,0.2
				v6.1c0,0.1,0,0.2-0.1,0.2L365.3,191.6C365.4,191.6,365.3,191.6,365.3,191.6z"/>
			<path class="st4" d="M371.2,190.2h-0.1l-1.8-1c-0.1-0.1-0.2-0.2-0.1-0.3s0.2-0.1,0.3-0.1l1.8,1c0.1,0.1,0.2,0.2,0.1,0.3
				C371.4,190.2,371.3,190.2,371.2,190.2L371.2,190.2z"/>
			<path class="st4" d="M355.1,199.6H355l-1.9-1.1c-0.1-0.1-0.2-0.2-0.1-0.3s0.2-0.2,0.3-0.1l1.9,1.1c0.1,0.1,0.2,0.2,0.1,0.3
				C355.3,199.6,355.2,199.6,355.1,199.6z"/>
			<polygon class="st4" points="354.7,164.2 358.3,162.1 357.2,161.4 353.6,163.6 			"/>
			<polygon class="st4" points="347.1,169 350.7,166.8 349.6,166.2 346,168.3 			"/>
			<path class="st4" d="M350.1,161.3c-0.9,0-1.9-0.2-2.7-0.7l0,0c-0.7-0.3-1.1-1-1.2-1.7c0.1-0.8,0.5-1.5,1.2-1.8
				c1.7-0.9,3.8-0.9,5.5,0c0.7,0.3,1.1,1,1.2,1.7c-0.1,0.8-0.5,1.5-1.2,1.8C352,161.1,351,161.3,350.1,161.3z M347.6,160.2
				c1.6,0.8,3.4,0.8,5,0c0.6-0.3,0.9-0.8,1-1.4c-0.1-0.6-0.4-1.1-0.9-1.3c-1.6-0.8-3.4-0.8-5,0c-0.6,0.3-0.9,0.8-1,1.4
				C346.8,159.5,347.1,160,347.6,160.2L347.6,160.2z"/>
			<path class="st4" d="M341.8,166.4c-1,0-2.1-0.2-3-0.7c-0.7-0.4-1.2-1.1-1.3-1.9c0.1-0.9,0.6-1.6,1.4-2c1.9-1,4.2-1,6,0
				c0.7,0.4,1.2,1.1,1.3,1.9c-0.1,0.9-0.6,1.6-1.4,2C343.9,166.2,342.9,166.4,341.8,166.4z M342,161.5c-1,0-2,0.2-2.8,0.7
				c-0.6,0.3-1,0.9-1.1,1.6c0.1,0.6,0.5,1.2,1,1.5l0,0c1.7,0.9,3.8,0.9,5.5,0c0.6-0.3,1-0.9,1.1-1.6c-0.1-0.6-0.5-1.2-1-1.5
				C343.9,161.7,342.9,161.5,342,161.5L342,161.5z"/>
			<rect x="346.5" y="158.6" class="st4" width="7.4" height="0.5"/>
			<polygon class="st4" points="362.6,159.4 366.2,157.3 365.1,156.6 361.5,158.8 			"/>
			<path class="st4" d="M358,156.6c-0.9,0-1.9-0.2-2.7-0.7c-0.7-0.3-1.1-1-1.2-1.7c0.1-0.8,0.5-1.5,1.2-1.8c1.7-0.9,3.8-0.9,5.5,0
				c0.7,0.3,1.1,1,1.2,1.7c-0.1,0.8-0.5,1.5-1.2,1.8C359.9,156.4,359,156.6,358,156.6z M358.2,152.2c-0.9,0-1.8,0.2-2.5,0.6
				c-0.6,0.3-0.9,0.8-1,1.4c0.1,0.6,0.4,1.1,0.9,1.3c1.6,0.8,3.4,0.8,5,0c0.6-0.3,0.9-0.8,1-1.4c-0.1-0.6-0.4-1.1-0.9-1.3
				C359.9,152.3,359,152.1,358.2,152.2L358.2,152.2z"/>
			
				<rect x="357.8" y="151.9" transform="matrix(0.9524 -0.3048 0.3048 0.9524 -29.949 116.4699)" class="st4" width="0.5" height="4.5"/>
			<polygon class="st4" points="345.4,165.1 338.3,162.8 338.4,162.3 345.5,164.7 			"/>
			<polygon class="st4" points="346.6,194 346.3,193.5 372.9,178.4 373.1,178.8 			"/>
			<path class="st5" d="M502.8,281.5C502.7,281.5,502.7,281.5,502.8,281.5c-4.7-1.5-8.2-9.7-11.6-17.7c-2.5-5.9-5.1-12-8-14.9
				c-9.3-9.2-20.7-19.8-35.2-28.2c-14.2-8.2-38.8-17.8-50.6-19.8c-11.6-1.9-27.5-9.4-30.9-11.6c-0.1-0.1-0.2-0.2-0.1-0.3
				s0.2-0.2,0.3-0.1l0,0c3.4,2.2,19.2,9.6,30.7,11.5c11.9,2,36.6,11.6,50.8,19.8c14.5,8.4,26,19,35.3,28.3c3,3,5.5,8.9,8.1,15.1
				c3.4,7.9,6.8,16,11.2,17.4c0.1,0,0.2,0.2,0.2,0.3C503,281.5,502.9,281.5,502.8,281.5L502.8,281.5z"/>
			<path class="st5" d="M501.7,283.3C501.6,283.3,501.6,283.3,501.7,283.3c-5.4-1.9-7.5-9.5-9.6-17.6c-1.8-6.8-3.7-13.9-7.7-17.9
				c-2.2-2.2-7.5-5.2-13.5-8.6c-8.3-4.7-17.7-10-21.7-14.8c-6.8-8.1-20.2-16.2-32.7-19.5c-6.8-1.8-14.5-1.6-21.2-1.4
				c-5.1,0.2-10,0.3-13.6-0.5c-8.5-1.9-16.3-6.4-23.2-10.4c-0.1-0.1-0.2-0.2-0.1-0.3s0.2-0.2,0.3-0.1c6.9,4,14.6,8.5,23,10.4
				c3.6,0.8,8.4,0.6,13.5,0.5c6.8-0.2,14.5-0.5,21.4,1.4c12.6,3.4,26.1,11.4,33,19.6c4,4.8,13.3,10.1,21.6,14.7
				c6.1,3.4,11.4,6.4,13.6,8.7c4.1,4.1,6,11.2,7.8,18.2c2.1,8,4.1,15.5,9.2,17.2c0.1,0,0.2,0.2,0.2,0.3
				C501.9,283.2,501.8,283.3,501.7,283.3L501.7,283.3z"/>
			<path class="st0" d="M503.1,285.4c-0.1,0-0.2-0.1-0.2-0.2s0-0.1,0.1-0.2c0.1,0,0.1,0,0.2-0.1c0.4-0.1,0.7-0.4,0.9-0.7
				c0.2-0.4,0.4-0.8,0.4-1.2v-0.2c0-0.5,0.1-1,0.4-1.4c0.2-0.4,0.6-0.7,1-0.8c0.1,0,0.1,0,0.2-0.1c0.1,0,0.2,0,0.2,0.1
				s0,0.2-0.1,0.2l0,0c-0.1,0-0.1,0-0.2,0.1c-0.3,0.1-0.6,0.4-0.9,0.7c-0.2,0.4-0.4,0.8-0.3,1.2v0.2c0,0.5-0.1,1-0.4,1.4
				c-0.2,0.4-0.6,0.7-1,0.8L503.1,285.4C503.2,285.4,503.2,285.4,503.1,285.4z"/>
			<polygon class="st1" points="300.4,223.5 319.8,234.6 339,223.5 319.8,212.3 			"/>
			<path class="st0" d="M319.8,234.8h-0.1l-19.3-11.1c-0.1-0.1-0.2-0.2-0.1-0.3l0.1-0.1l19.3-11.2c0.1,0,0.2,0,0.2,0l19.3,11.2
				c0.1,0,0.1,0.1,0.1,0.2c0,0.1,0,0.2-0.1,0.2l-19.3,11.1C319.9,234.8,319.8,234.8,319.8,234.8z M300.9,223.5l18.9,10.9l18.8-10.9
				l-18.8-10.9L300.9,223.5z"/>
			<polygon class="st1" points="339.1,219.8 348.8,225.4 329.4,236.6 319.8,231.1 			"/>
			<path class="st0" d="M329.4,236.9h-0.1l-9.7-5.6c-0.1-0.1-0.2-0.2-0.1-0.3l0.1-0.1l19.4-11.3c0.1,0,0.2,0,0.2,0l9.7,5.6
				c0.1,0.1,0.2,0.2,0.1,0.3l-0.1,0.1l-19.4,11.3C329.5,236.9,329.5,236.9,329.4,236.9z M320.2,231.1l9.2,5.3l18.9-11l-9.2-5.3
				L320.2,231.1z"/>
			<polygon class="st1" points="319.8,231.1 329.4,236.6 329.4,255.4 319.8,249.8 			"/>
			<path class="st0" d="M329.4,255.6h-0.1l-9.7-5.6c-0.1,0-0.1-0.1-0.1-0.2v-18.7c0-0.1,0-0.2,0.1-0.2s0.2,0,0.2,0l9.7,5.6
				c0.1,0,0.1,0.1,0.1,0.2v18.7C329.7,255.5,329.6,255.6,329.4,255.6L329.4,255.6L329.4,255.6z M320,249.7l9.2,5.3v-18.2l-9.2-5.3
				V249.7z"/>
			<polygon class="st1" points="348.8,225.4 358.5,230.6 339.1,241.8 329.4,236.6 			"/>
			<path class="st0" d="M339.1,242.1H339l-9.7-5.2c-0.1,0-0.1-0.1-0.1-0.2c0-0.1,0-0.2,0.1-0.2l19.4-11.3c0.1,0,0.2,0,0.2,0l9.7,5.2
				c0.1,0,0.1,0.1,0.1,0.2c0,0.1,0,0.2-0.1,0.2L339.2,242C339.2,242.1,339.1,242.1,339.1,242.1z M329.9,236.6l9.2,4.9l18.9-11
				l-9.2-4.9L329.9,236.6z"/>
			<polygon class="st1" points="329.4,236.6 339.1,241.8 339.1,260.5 329.4,255.4 			"/>
			<path class="st0" d="M339.1,260.8H339l-9.7-5.1c-0.1,0-0.1-0.1-0.1-0.2v-18.7c0-0.1,0-0.2,0.1-0.2s0.2,0,0.2,0l9.7,5.2
				c0.1,0,0.1,0.1,0.1,0.2v18.7C339.3,260.7,339.2,260.8,339.1,260.8L339.1,260.8L339.1,260.8z M329.7,255.3l9.2,4.9V242l-9.2-4.9
				V255.3z"/>
			<polygon class="st1" points="358.5,230.6 339.1,241.8 362.1,253.6 374.1,246.9 			"/>
			<path class="st0" d="M362.1,253.9H362L339,242c-0.1-0.1-0.2-0.2-0.1-0.3l0.1-0.1l19.4-11.3c0.1-0.1,0.2,0,0.3,0l15.7,16.4
				c0.1,0.1,0.1,0.1,0.1,0.2c0,0.1-0.1,0.1-0.1,0.2l-12.1,6.7C362.1,253.9,362.1,253.9,362.1,253.9z M339.6,241.8l22.5,11.5
				l11.7-6.5l-15.3-16L339.6,241.8z"/>
			<polygon class="st1" points="339.1,241.8 339.1,260.5 362.2,267.4 362.1,253.6 			"/>
			<path class="st0" d="M362.2,267.6L362.2,267.6l-23.2-6.9c-0.1,0-0.2-0.1-0.2-0.2v-18.7c0-0.1,0-0.2,0.1-0.2s0.2,0,0.2,0
				l22.9,11.8c0.1,0,0.1,0.1,0.1,0.2l0.2,13.8C362.5,267.5,362.4,267.6,362.2,267.6L362.2,267.6L362.2,267.6z M339.3,260.4l22.6,6.7
				l-0.2-13.3l-22.5-11.6v18.2H339.3z"/>
			<path class="st1" d="M374.6,259.5v-11.8c0-0.5-0.4-0.8-0.8-0.8c-0.1,0-0.3,0-0.4,0.1l-10.5,6.1c-0.7,0.4-1.1,1.1-1.1,1.8v11.8
				c0,0.5,0.4,0.8,0.8,0.8c0.1,0,0.3,0,0.4-0.1l10.5-6.1C374.2,260.9,374.6,260.2,374.6,259.5z"/>
			<path class="st0" d="M362.6,267.7c-0.2,0-0.4-0.1-0.5-0.1c-0.3-0.2-0.5-0.5-0.5-0.9v-11.8c0-0.8,0.4-1.6,1.2-2l10.5-6.1
				c0.5-0.3,1.2-0.1,1.5,0.4c0.1,0.2,0.1,0.4,0.1,0.5v11.8c0,0.8-0.4,1.6-1.2,2l-10.5,6.1C363,267.7,362.8,267.7,362.6,267.7z
				 M373.7,247.1c-0.1,0-0.2,0-0.3,0.1l-10.5,6.1c-0.6,0.3-0.9,1-0.9,1.6v11.8c0,0.3,0.3,0.6,0.6,0.6c0.1,0,0.2,0,0.3-0.1l10.5-6.1
				c0.6-0.3,0.9-1,0.9-1.6v-11.8c0-0.2-0.1-0.4-0.3-0.5C373.9,247.1,373.8,247.1,373.7,247.1z"/>
			<polygon class="st1" points="338.4,223 342,225.1 329,232.8 325.4,230.6 			"/>
			<path class="st0" d="M329,232.9C329,232.9,328.9,232.9,329,232.9l-3.7-2.2c-0.1,0-0.1-0.1,0-0.2l0,0l13.1-7.6h0.1l3.6,2.2
				c0.1,0,0.1,0.1,0,0.2l0,0L329,232.9L329,232.9z M325.6,230.6l3.4,2l12.8-7.5l-3.4-2L325.6,230.6z"/>
			<polygon class="st1" points="300.4,223.5 300.4,236.6 301.7,237.5 301.7,239.3 319.8,249.8 319.8,234.6 			"/>
			<path class="st0" d="M319.8,250h-0.1l-18.1-10.5c-0.1,0-0.1-0.1-0.1-0.2v-1.7l-1.2-0.8c-0.1,0-0.1-0.1-0.1-0.2v-13.2
				c0-0.1,0.1-0.2,0.2-0.2h0.1l19.3,11.1c0.1,0,0.1,0.1,0.1,0.2v15.2C319.9,249.8,319.9,249.9,319.8,250L319.8,250z M301.9,239.2
				l17.6,10.2v-14.6l-18.9-10.9v12.6l1.2,0.8c0.1,0,0.1,0.1,0.1,0.2L301.9,239.2z"/>
			<line class="st2" x1="303.4" y1="221.7" x2="309.4" y2="225.2"/>
			<path class="st0" d="M309.4,225.5h-0.1l-6-3.5c-0.1-0.1-0.2-0.2-0.1-0.4s0.2-0.2,0.4-0.1l0,0l6,3.5c0.1,0.1,0.2,0.2,0.1,0.4
				C309.6,225.4,309.5,225.5,309.4,225.5L309.4,225.5z"/>
			<line class="st2" x1="305.8" y1="220.4" x2="311.8" y2="223.8"/>
			<path class="st0" d="M311.8,224.1h-0.1l-6-3.5c-0.1-0.1-0.2-0.2-0.1-0.4c0.1-0.1,0.2-0.2,0.4-0.1l0,0l6,3.5
				c0.1,0.1,0.2,0.2,0.1,0.4C312,224,311.9,224.1,311.8,224.1L311.8,224.1z"/>
			<line class="st2" x1="308.2" y1="219" x2="314.2" y2="222.4"/>
			<path class="st0" d="M314.2,222.7h-0.1l-6-3.5c-0.1-0.1-0.2-0.2-0.1-0.4c0.1-0.1,0.2-0.2,0.4-0.1l6,3.5c0.1,0.1,0.2,0.2,0.1,0.4
				C314.4,222.6,314.3,222.7,314.2,222.7L314.2,222.7z"/>
			<line class="st2" x1="310.6" y1="217.6" x2="316.6" y2="221.1"/>
			<path class="st0" d="M316.6,221.3h-0.1l-6-3.5c-0.1-0.1-0.2-0.2-0.1-0.4l0,0c0.1-0.1,0.2-0.2,0.4-0.1l0,0l6,3.5
				c0.1,0.1,0.2,0.2,0.1,0.4C316.8,221.3,316.7,221.3,316.6,221.3L316.6,221.3z"/>
			<line class="st2" x1="313" y1="216.2" x2="319" y2="219.7"/>
			<path class="st0" d="M319,219.9h-0.1l-6-3.5c-0.1-0.1-0.2-0.2-0.1-0.4s0.2-0.2,0.4-0.1l0,0l6,3.5c0.1,0.1,0.2,0.2,0.1,0.4
				C319.1,219.9,319.1,219.9,319,219.9L319,219.9z"/>
			<line class="st2" x1="315.3" y1="214.8" x2="321.3" y2="218.3"/>
			<path class="st0" d="M321.3,218.6h-0.1l-6-3.5c-0.1-0.1-0.2-0.2-0.1-0.4s0.2-0.2,0.4-0.1l0,0l6,3.5c0.1,0.1,0.2,0.2,0.1,0.4
				C321.5,218.5,321.4,218.6,321.3,218.6L321.3,218.6z"/>
			<line class="st2" x1="317.7" y1="213.5" x2="323.7" y2="216.9"/>
			<path class="st0" d="M323.7,217.2h-0.1l-6-3.5c-0.1-0.1-0.2-0.2-0.1-0.4c0.1-0.1,0.2-0.2,0.4-0.1l6,3.5c0.1,0.1,0.2,0.2,0.1,0.4
				C323.9,217.1,323.8,217.2,323.7,217.2L323.7,217.2z"/>
			<path class="st0" d="M368.8,262.3c-2.2,0-3.9-2.1-3.9-4.7s1.8-4.7,3.9-4.7s3.9,2.1,3.9,4.7C372.7,260.2,370.9,262.3,368.8,262.3z
				 M368.8,253.4c-1.9,0-3.5,1.9-3.5,4.2s1.6,4.2,3.5,4.2s3.5-1.9,3.5-4.2S370.7,253.4,368.8,253.4L368.8,253.4z"/>
			<path class="st1" d="M403.8,273.4c-10.5-6.4-34-20-34-20l-2.9,8.2c0,0,23.5,13.6,34,20S414.3,279.7,403.8,273.4z"/>
			<path class="st0" d="M390.1,376.4L390.1,376.4c-0.1,0-0.2-0.1-0.2-0.1c-0.4-0.7-1-1.4-1.7-1.8c-1.1-0.7-2.4-1.1-3.6-1.1h-0.5
				c-1.4,0-2.8-0.4-4-1.2c-0.3-0.2-0.6-0.4-0.8-0.7c-0.1-0.1-0.1-0.3,0-0.4c0,0,0,0,0.1,0l69.7-40.6c0.1-0.1,8.7-4.3,8.7-9.2
				c0-4.9-8.6-10.8-19.1-17.5c-10.1-6.5-37.5-21.9-37.8-22.1c-10.4-6.3-33.8-19.9-34-20c-0.1-0.1-0.2-0.2-0.1-0.3
				c0.1-0.1,0.2-0.2,0.3-0.1c0.2,0.1,23.6,13.7,34,20c0.3,0.2,27.7,15.6,37.8,22.1c10.6,6.8,19.3,12.8,19.3,17.9
				c0,5.2-8.6,9.5-9,9.6l-69.4,40.5c0.2,0.1,0.3,0.3,0.5,0.4c1.1,0.7,2.4,1.1,3.7,1.1h0.5c1.4,0,2.8,0.4,3.9,1.2
				c0.7,0.4,1.3,1.1,1.7,1.8c16.3-9.4,54.2-31.3,58.8-33.9c0.6-0.4,1.3-0.7,2-1.1c7.3-4.1,18.4-10.2,18.4-19.5
				c0-10.2-20.2-21.3-20.4-21.4l-45.3-26.4c-10.4-6.3-33.8-19.9-34-20c-0.1-0.1-0.2-0.2-0.1-0.3s0.2-0.2,0.3-0.1
				c0.2,0.1,23.6,13.7,34,20l45.3,26.3c0.8,0.5,20.7,11.4,20.7,21.8c0,9.6-11.2,15.8-18.7,19.9c-0.7,0.4-1.4,0.8-2,1.1
				c-4.6,2.6-42.8,24.7-59,34C390.2,376.4,390.2,376.4,390.1,376.4z"/>
			<path class="st0" d="M342.7,261.6c-0.3,0-0.5-0.2-0.5-0.5v-17.7l8.2-4.7c0.2-0.1,0.5,0,0.6,0.2s0.1,0.5-0.2,0.6l-7.7,4.5v17.1
				C343.2,261.4,343,261.6,342.7,261.6z"/>
			<path class="st0" d="M352.6,264.3c-0.3,0-0.5-0.2-0.5-0.5v-15.3l6.1-3.7c0.2-0.1,0.5-0.1,0.6,0.2c0.1,0.2,0.1,0.5-0.2,0.6
				L353,249v14.8C353.1,264.1,352.9,264.3,352.6,264.3L352.6,264.3z"/>
			<path class="st0" d="M354.4,237.4c-0.3,0-0.5-0.2-0.5-0.5c0-0.2,0.1-0.3,0.2-0.4l6.1-3.5c0.2-0.1,0.5-0.1,0.6,0.2
				s0.1,0.5-0.2,0.6l0,0l-6.1,3.5C354.5,237.4,354.4,237.4,354.4,237.4z"/>
			<path class="st0" d="M348,253.4c-0.3,0-0.5-0.2-0.5-0.5v-6.7l0.2-0.1l16.4-8.9c0.2-0.1,0.5,0,0.6,0.2s0,0.5-0.2,0.6l0,0
				l-16.2,8.8v6.2C348.5,253.2,348.3,253.4,348,253.4z"/>
			<path class="st0" d="M348,263.2c-0.3,0-0.5-0.2-0.5-0.5v-6.4c0-0.3,0.2-0.5,0.5-0.5s0.5,0.2,0.5,0.5v6.4
				C348.5,263,348.3,263.2,348,263.2z"/>
			<path class="st0" d="M357.5,256.8c-0.3,0-0.5-0.2-0.5-0.5v-5.1c0-0.2,0.1-0.3,0.2-0.4l12.8-7.3c0.2-0.1,0.5,0,0.6,0.2
				s0,0.5-0.2,0.6l-12.6,7.2v4.9C357.9,256.6,357.7,256.8,357.5,256.8z"/>
			<path class="st0" d="M357.5,266.1c-0.3,0-0.5-0.2-0.5-0.5v-5.7c0-0.3,0.2-0.5,0.5-0.5s0.5,0.2,0.5,0.5v5.7
				C358,265.9,357.7,266.1,357.5,266.1z"/>
			<path class="st0" d="M361.7,243.9c-0.3,0-0.5-0.2-0.5-0.5c0-0.2,0.1-0.3,0.2-0.4l5.4-3c0.2-0.1,0.5,0,0.6,0.2s0,0.5-0.2,0.6l0,0
				l-5.4,3C361.9,243.9,361.8,243.9,361.7,243.9z"/>
			<path class="st0" d="M388.4,380.8c-0.1,0-0.2-0.1-0.2-0.1c-0.1-0.2-0.1-0.3-0.2-0.5c-0.4-1.1-1.1-2-2.1-2.6
				c-1.1-0.7-2.4-1.1-3.7-1.1h-0.5c-1.4,0-2.8-0.4-4-1.2c-1.1-0.7-1.9-1.7-2.3-2.9c-0.1-0.2-0.1-0.3-0.2-0.5c-0.1-0.1,0-0.3,0.1-0.3
				c0.1-0.1,0.3,0,0.3,0.1c0.1,0.2,0.1,0.3,0.2,0.5c0.4,1.1,1.1,2.1,2.1,2.7c1.1,0.7,2.4,1.1,3.7,1.1h0.5c1.4,0,2.7,0.4,3.9,1.2
				c1,0.7,1.8,1.7,2.2,2.8c0.1,0.2,0.1,0.3,0.2,0.5C388.7,380.6,388.7,380.7,388.4,380.8C388.5,380.8,388.5,380.8,388.4,380.8z"/>
			<polygon class="st3" points="313.2,217.9 325.1,224.5 327.5,223 315.6,216.4 			"/>
			<polygon class="st3" points="328,226.1 339.8,232.7 342.2,231.2 330.4,224.6 			"/>
			<polygon class="st3" points="298.5,209.7 310.3,216.3 312.8,214.8 300.9,208.2 			"/>
			<polygon class="st3" points="345.1,232.8 342.7,234.3 349.5,238.1 351.9,236.6 			"/>
			<polygon class="st3" points="299.3,203 296.7,201.5 288.6,202.8 286.8,207.5 289.4,209 290.8,205.4 295.6,208.1 298,206.6 
				293.2,203.9 			"/>
			<g>
				<path class="st6" d="M105.1,112.5l-10.4-5.4l1.6-0.9l9.1,4.8l6.1-3.5l1.2,0.6L105.1,112.5z"/>
				<path class="st6" d="M109.2,104.5c-1.7-0.9-2.5-1.9-2.4-3.1s1.1-2.2,2.8-3.2c1.1-0.7,2.4-1.1,3.8-1.4s2.7-0.4,4-0.2
					c1.3,0.1,2.5,0.5,3.5,1s1.7,1.2,2.1,1.9s0.2,1.5-0.3,2.2c-0.5,0.8-1.3,1.4-2.4,2.1c-1.2,0.7-2.4,1.2-3.8,1.4s-2.7,0.3-4,0.2
					C111.2,105.3,110.1,105,109.2,104.5z M110.9,103.6c1.2,0.7,2.6,0.9,4.2,0.8c1.5-0.1,2.9-0.5,4.1-1.2s1.9-1.5,2-2.3
					s-0.6-1.6-1.9-2.3c-0.8-0.4-1.7-0.7-2.7-0.9c-1-0.1-2-0.1-3,0.1s-1.9,0.5-2.7,1c-1.2,0.7-1.8,1.4-2,2.2S109.4,102.8,110.9,103.6
					z"/>
				<path class="st6" d="M128.2,99.1l-10.4-5.4l1.7-1l14.6,0.5L126,89l1.6-0.9l10.4,5.4l-1.7,1L121.6,94l8.1,4.3L128.2,99.1z"/>
				<path class="st6" d="M136.8,90.7l-1.3-0.7l4.7-2.7l1.3,0.7L136.8,90.7z"/>
				<path class="st6" d="M146.7,88.4L136.4,83l1.6-0.9l10.4,5.4L146.7,88.4z"/>
				<path class="st6" d="M151.3,85.8l-10.4-5.4l4.7-2.7c0.8-0.5,1.5-0.8,2-1c0.7-0.3,1.4-0.5,2-0.6s1.3-0.1,2-0.1
					c0.7,0.1,1.3,0.3,1.8,0.5c0.9,0.5,1.3,1,1.2,1.7s-1,1.6-2.7,2.6l-3.2,1.8l4.2,2.2L151.3,85.8z M147.5,82l3.2-1.8
					c1.1-0.6,1.6-1.1,1.8-1.6c0.1-0.4-0.1-0.8-0.7-1.1c-0.4-0.2-0.9-0.3-1.5-0.4s-1.1,0.1-1.6,0.3c-0.3,0.1-0.9,0.4-1.6,0.8
					l-3.2,1.8L147.5,82z"/>
			</g>
		</g>
	</g>
</g>
</svg>
