<?xml version="1.0" encoding="utf-8"?>
<!-- Generator: Adobe Illustrator 23.1.1, SVG Export Plug-In . SVG Version: 6.00 Build 0)  -->
<svg version="1.1" id="Calque_1" xmlns="http://www.w3.org/2000/svg" xmlns:xlink="http://www.w3.org/1999/xlink" x="0px" y="0px"
	 viewBox="0 0 539.6 719.1" style="enable-background:new 0 0 539.6 719.1;" xml:space="preserve">
<style type="text/css">
	.st0{fill:#808285;}
	.st1{fill:#FFFFFF;}
	.st2{fill:#D1D3D4;}
	.st3{fill:#BCBEC0;}
	.st4{fill:#3D723A;}
	.st5{fill:none;}
	.st6{fill:#00AEEF;}
	.st7{clip-path:url(#SVGID_2_);}
	.st8{fill:#F1F2F2;}
	.st9{fill:#7E94CB;}
</style>
<title>18. bus LPB à connecteur X-Bus</title>
<g id="Layer_2">
	<g id="_18._bus_LPB_à_connecteur_X-Bus">
		<g id="Expanded">
			<path class="st0" d="M531.8,719.1H7.8c-4.3,0-7.8-3.5-7.8-7.8V7.8C0,3.5,3.5,0,7.8,0h524c4.3,0,7.8,3.5,7.8,7.8v703.6
				C539.6,715.6,536.1,719.1,531.8,719.1z M7.8,1C4,1,1,4,1,7.8v703.6c0,3.7,3,6.8,6.8,6.8h524c3.7,0,6.8-3,6.8-6.8V7.8
				c0-3.7-3-6.8-6.8-6.8H7.8z"/>
			<g id="WattSense_box">
				<path class="st1" d="M61.9,384.5h420.9c1.6,0,2.8,1.3,2.8,2.8V666c0,1.6-1.3,2.8-2.8,2.8H61.9c-1.6,0-2.8-1.3-2.8-2.8V387.3
					C59.1,385.8,60.4,384.5,61.9,384.5z"/>
				<path class="st2" d="M482.9,669.8H61.9c-2.1,0-3.7-1.7-3.7-3.7l0-278.7c0-2.1,1.7-3.7,3.7-3.7h420.9c2.1,0,3.7,1.7,3.7,3.7V666
					C486.6,668.1,484.9,669.8,482.9,669.8z M59.1,387.3H60L60,666c0,1.1,0.9,2,2,2h420.9c1.1,0,2-0.9,2-2V387.3c0-1.1-0.9-2-2-2
					H61.9c-1.1,0-2,0.9-2,2H59.1z"/>
				<rect x="427.5" y="669.9" class="st1" width="37.1" height="22.3"/>
				<path class="st2" d="M464.6,692.6h-37.1c-0.2,0-0.5-0.2-0.5-0.5v-22.3c0-0.2,0.2-0.5,0.5-0.5h37.1c0.2,0,0.5,0.2,0.5,0.5v22.3
					C465.1,692.4,464.9,692.6,464.6,692.6z M428,691.7h36.2v-21.4H428V691.7z"/>
				<rect x="434.2" y="688.1" class="st2" width="6.1" height="1.2"/>
				<rect x="451.8" y="688.1" class="st2" width="6.1" height="1.2"/>
				<path class="st2" d="M437.3,685c-3.2,0-5.9-2.6-5.9-5.9c0-3.2,2.6-5.9,5.9-5.9c3.2,0,5.9,2.6,5.9,5.9c0,0,0,0,0,0
					C443.2,682.3,440.6,685,437.3,685z M437.3,674.1c-2.8,0-5,2.2-5,5c0,2.8,2.2,5,5,5c2.8,0,5-2.2,5-5c0,0,0,0,0,0
					C442.3,676.3,440.1,674.1,437.3,674.1L437.3,674.1z"/>
				<path class="st2" d="M454.8,685c-3.2,0-5.9-2.6-5.9-5.9c0-3.2,2.6-5.9,5.9-5.9c3.2,0,5.9,2.6,5.9,5.9c0,0,0,0,0,0
					C460.7,682.3,458.1,685,454.8,685z M454.8,674.1c-2.8,0-5,2.2-5,5c0,2.8,2.2,5,5,5c2.8,0,5-2.2,5-5c0,0,0,0,0,0
					C459.8,676.3,457.6,674.1,454.8,674.1L454.8,674.1z"/>
				<polygon class="st2" points="433.8,683.2 433.2,682.6 440.8,674.9 441.4,675.5 				"/>
				
					<rect x="449.4" y="678.7" transform="matrix(0.2747 -0.9615 0.9615 0.2747 -323.1169 929.8317)" class="st2" width="10.9" height="0.9"/>
				<rect x="370.9" y="669.9" class="st1" width="37.1" height="22.3"/>
				<path class="st2" d="M408.1,692.6H371c-0.2,0-0.5-0.2-0.5-0.5v-22.3c0-0.2,0.2-0.5,0.5-0.5h37.1c0.2,0,0.5,0.2,0.5,0.5v22.3
					C408.5,692.4,408.3,692.6,408.1,692.6z M371.4,691.7h36.2v-21.4h-36.2V691.7z"/>
				<rect x="377.6" y="688.1" class="st2" width="6.1" height="1.2"/>
				<rect x="395.2" y="688.1" class="st2" width="6.1" height="1.2"/>
				<path class="st2" d="M380.8,685c-3.2,0-5.9-2.6-5.9-5.9s2.6-5.9,5.9-5.9c3.2,0,5.9,2.6,5.9,5.9C386.6,682.3,384,685,380.8,685z
					 M380.8,674.1c-2.8,0-5,2.2-5,5s2.2,5,5,5c2.8,0,5-2.2,5-5c0,0,0,0,0,0C385.8,676.3,383.5,674.1,380.8,674.1L380.8,674.1z"/>
				<path class="st2" d="M398.3,685c-3.2,0-5.9-2.6-5.9-5.9s2.6-5.9,5.9-5.9c3.2,0,5.9,2.6,5.9,5.9C404.1,682.3,401.5,685,398.3,685
					z M398.3,674.1c-2.8,0-5,2.2-5,5s2.2,5,5,5c2.8,0,5-2.2,5-5c0,0,0,0,0,0C403.3,676.3,401,674.1,398.3,674.1L398.3,674.1z"/>
				<polygon class="st2" points="377.2,683.2 376.6,682.6 384.2,674.9 384.8,675.5 				"/>
				
					<rect x="392.8" y="678.7" transform="matrix(0.2747 -0.9615 0.9615 0.2747 -364.1462 875.438)" class="st2" width="10.9" height="0.9"/>
				<rect x="354.1" y="361.2" class="st1" width="37.1" height="22.3"/>
				<path class="st2" d="M391.2,383.9h-37.1c-0.2,0-0.4-0.2-0.4-0.4c0,0,0,0,0,0v-22.3c0-0.2,0.2-0.4,0.4-0.4c0,0,0,0,0,0h37.1
					c0.2,0,0.4,0.2,0.4,0.4c0,0,0,0,0,0v22.3C391.6,383.7,391.4,383.9,391.2,383.9C391.2,383.9,391.2,383.9,391.2,383.9z M354.5,383
					h36.2v-21.4h-36.2V383z"/>
				<rect x="378.4" y="364.3" class="st2" width="6.1" height="0.9"/>
				<rect x="360.9" y="364.3" class="st3" width="6.1" height="0.9"/>
				<path class="st2" d="M381.4,380.1c-3.3,0-5.9-2.6-5.9-5.9s2.6-5.9,5.9-5.9s5.9,2.6,5.9,5.9c0,0,0,0,0,0
					C387.3,377.5,384.6,380.1,381.4,380.1z M381.4,369.3c-2.8,0-5,2.2-5,5c0,2.8,2.2,5,5,5c2.8,0,5-2.2,5-5c0,0,0,0,0,0
					C386.4,371.5,384.1,369.3,381.4,369.3L381.4,369.3z"/>
				<path class="st3" d="M363.9,380.1c-3.3,0-5.9-2.6-5.9-5.9s2.6-5.9,5.9-5.9s5.9,2.6,5.9,5.9c0,0,0,0,0,0
					C369.8,377.5,367.1,380.1,363.9,380.1z M363.9,369.3c-2.8,0-5,2.2-5,5c0,2.8,2.2,5,5,5c2.8,0,5-2.2,5-5c0,0,0,0,0,0
					C368.9,371.5,366.6,369.3,363.9,369.3L363.9,369.3z"/>
				
					<rect x="376" y="373.9" transform="matrix(0.7005 -0.7136 0.7136 0.7005 -152.8833 384.3134)" class="st2" width="10.9" height="0.9"/>
				
					<rect x="358.5" y="373.8" transform="matrix(0.2739 -0.9618 0.9618 0.2739 -95.6993 621.7794)" class="st3" width="10.9" height="0.9"/>
				<rect x="298.1" y="361.2" class="st1" width="37.1" height="22.3"/>
				<path class="st4" d="M335.2,383.9h-37.1c-0.2,0-0.4-0.2-0.4-0.4c0,0,0,0,0,0v-22.3c0-0.2,0.2-0.4,0.4-0.4c0,0,0,0,0,0h37.1
					c0.2,0,0.4,0.2,0.4,0.4c0,0,0,0,0,0l0,22.3C335.7,383.7,335.5,383.9,335.2,383.9C335.2,383.9,335.2,383.9,335.2,383.9z
					 M298.6,383h36.2l0-21.4h-36.2L298.6,383z"/>
				<rect x="322.5" y="364.3" class="st4" width="6.1" height="0.9"/>
				<rect x="304.9" y="364.3" class="st4" width="6.1" height="0.9"/>
				<path class="st4" d="M325.4,380.1c-3.3,0-5.9-2.6-5.9-5.9s2.6-5.9,5.9-5.9s5.9,2.6,5.9,5.9c0,0,0,0,0,0
					C331.3,377.5,328.7,380.1,325.4,380.1z M325.4,369.3c-2.8,0-5,2.2-5,5c0,2.8,2.2,5,5,5c2.8,0,5-2.2,5-5c0,0,0,0,0,0
					C330.4,371.5,328.2,369.3,325.4,369.3L325.4,369.3z"/>
				<path class="st4" d="M307.9,380.1c-3.3,0-5.9-2.6-5.9-5.9s2.6-5.9,5.9-5.9s5.9,2.6,5.9,5.9c0,0,0,0,0,0
					C313.8,377.5,311.2,380.1,307.9,380.1z M307.9,369.3c-2.8,0-5,2.2-5,5s2.2,5,5,5c2.8,0,5-2.2,5-5c0,0,0,0,0,0
					C312.9,371.5,310.7,369.3,307.9,369.3L307.9,369.3z"/>
				
					<rect x="320" y="373.9" transform="matrix(0.7005 -0.7136 0.7136 0.7005 -169.6441 344.3745)" class="st4" width="10.9" height="0.9"/>
				
					<rect x="302.5" y="373.8" transform="matrix(0.2739 -0.9618 0.9618 0.2739 -136.338 567.9539)" class="st4" width="10.9" height="0.9"/>
				<rect x="95.5" y="360.3" class="st1" width="55.8" height="22.3"/>
				<path class="st2" d="M151.3,383H95.5c-0.2,0-0.4-0.2-0.4-0.4c0,0,0,0,0,0l0-22.3c0-0.2,0.2-0.4,0.4-0.4c0,0,0,0,0,0h55.8
					c0.2,0,0.4,0.2,0.4,0.4c0,0,0,0,0,0v22.3C151.8,382.8,151.6,383,151.3,383C151.3,383,151.3,383,151.3,383z M95.9,382.1h54.9
					v-21.4H95.9L95.9,382.1z"/>
				<rect x="120.4" y="363.4" class="st2" width="6.1" height="0.9"/>
				<rect x="102.3" y="363.4" class="st2" width="6.1" height="0.9"/>
				<path class="st2" d="M123.4,379.3c-3.3,0-5.9-2.6-5.9-5.9s2.6-5.9,5.9-5.9s5.9,2.6,5.9,5.9c0,0,0,0,0,0
					C129.3,376.6,126.7,379.3,123.4,379.3z M123.4,368.4c-2.8,0-5,2.2-5,5c0,2.8,2.2,5,5,5c2.8,0,5-2.2,5-5c0,0,0,0,0,0
					C128.4,370.6,126.2,368.4,123.4,368.4L123.4,368.4z"/>
				<path class="st2" d="M105.3,379.3c-3.3,0-5.9-2.6-5.9-5.9c0-3.3,2.6-5.9,5.9-5.9c3.3,0,5.9,2.6,5.9,5.9
					C111.2,376.6,108.5,379.3,105.3,379.3z M105.3,368.4c-2.8,0-5,2.2-5,5c0,2.8,2.2,5,5,5c2.8,0,5-2.2,5-5
					C110.3,370.6,108.1,368.4,105.3,368.4L105.3,368.4z"/>
				<polygon class="st2" points="120,377.6 119.3,377 126.9,369.2 127.6,369.9 				"/>
				
					<rect x="99.9" y="372.9" transform="matrix(0.2739 -0.9618 0.9618 0.2739 -282.6383 372.4399)" class="st2" width="10.9" height="0.9"/>
				<rect x="139" y="363.4" class="st2" width="6.1" height="0.9"/>
				<path class="st2" d="M142.1,379.3c-3.3,0-5.9-2.6-5.9-5.9s2.6-5.9,5.9-5.9s5.9,2.6,5.9,5.9c0,0,0,0,0,0
					C147.9,376.6,145.3,379.3,142.1,379.3z M142.1,368.4c-2.8,0-5,2.2-5,5c0,2.8,2.2,5,5,5s5-2.2,5-5c0,0,0,0,0,0
					C147.1,370.6,144.8,368.4,142.1,368.4L142.1,368.4z"/>
				<polygon class="st2" points="144.7,378.2 138.6,369.1 139.4,368.6 145.5,377.7 				"/>
				<rect x="187.7" y="361.2" class="st1" width="55.8" height="22.3"/>
				<path class="st2" d="M243.5,383.9h-55.8c-0.2,0-0.4-0.2-0.4-0.4c0,0,0,0,0,0v-22.3c0-0.2,0.2-0.4,0.4-0.4c0,0,0,0,0,0h55.8
					c0.2,0,0.4,0.2,0.4,0.4c0,0,0,0,0,0v22.3C244,383.7,243.8,383.9,243.5,383.9C243.5,383.9,243.5,383.9,243.5,383.9z M188.2,383
					h54.9v-21.4h-54.9L188.2,383z"/>
				<rect x="212.7" y="364.3" class="st2" width="6.1" height="0.9"/>
				<rect x="194.5" y="364.3" class="st2" width="6.1" height="0.9"/>
				<path class="st2" d="M215.6,380.1c-3.3,0-5.9-2.6-5.9-5.9c0-3.3,2.6-5.9,5.9-5.9c3.3,0,5.9,2.6,5.9,5.9
					C221.5,377.5,218.9,380.1,215.6,380.1z M215.6,369.3c-2.8,0-5,2.2-5,5c0,2.8,2.2,5,5,5c2.8,0,5-2.2,5-5c0,0,0,0,0,0
					C220.6,371.5,218.4,369.3,215.6,369.3L215.6,369.3z"/>
				<path class="st2" d="M197.5,380.1c-3.3,0-5.9-2.6-5.9-5.9c0-3.3,2.6-5.9,5.9-5.9s5.9,2.6,5.9,5.9c0,0,0,0,0,0
					C203.4,377.5,200.8,380.1,197.5,380.1z M197.5,369.3c-2.8,0-5,2.2-5,5c0,2.8,2.2,5,5,5s5-2.2,5-5c0,0,0,0,0,0
					C202.5,371.5,200.3,369.3,197.5,369.3L197.5,369.3z"/>
				
					<rect x="210.2" y="373.9" transform="matrix(0.7011 -0.7131 0.7131 0.7011 -202.4449 265.6956)" class="st2" width="10.9" height="0.9"/>
				
					<rect x="192.1" y="373.8" transform="matrix(0.2739 -0.9618 0.9618 0.2739 -216.512 461.7646)" class="st2" width="10.9" height="0.9"/>
				<rect x="231.2" y="364.3" class="st2" width="6.1" height="0.9"/>
				<path class="st2" d="M234.3,380.1c-3.3,0-5.9-2.6-5.9-5.9s2.6-5.9,5.9-5.9c3.2,0,5.9,2.6,5.9,5.9
					C240.2,377.5,237.5,380.1,234.3,380.1z M234.3,369.3c-2.8,0-5,2.2-5,5c0,2.8,2.2,5,5,5s5-2.2,5-5l0,0
					C239.3,371.5,237,369.3,234.3,369.3L234.3,369.3z"/>
				<polygon class="st2" points="236.9,379 230.8,370 231.6,369.5 237.7,378.5 				"/>
				<rect x="315.8" y="669.9" class="st1" width="37.1" height="22.3"/>
				<path class="st2" d="M352.9,692.6h-37.1c-0.2,0-0.5-0.2-0.5-0.5v-22.3c0-0.2,0.2-0.5,0.5-0.5h37.1c0.2,0,0.5,0.2,0.5,0.5v22.3
					C353.3,692.4,353.1,692.6,352.9,692.6z M316.2,691.7h36.2v-21.4h-36.2V691.7z"/>
				<rect x="322.5" y="688.1" class="st2" width="6.1" height="1.2"/>
				<rect x="340" y="688.1" class="st2" width="6.1" height="1.2"/>
				<path class="st2" d="M325.6,685c-3.2,0-5.9-2.6-5.9-5.9s2.6-5.9,5.9-5.9c3.2,0,5.9,2.6,5.9,5.9C331.4,682.3,328.8,685,325.6,685
					z M325.6,674.1c-2.8,0-5,2.2-5,5c0,2.8,2.2,5,5,5c2.8,0,5-2.2,5-5l0,0C330.6,676.3,328.4,674.1,325.6,674.1L325.6,674.1z"/>
				<path class="st2" d="M343.1,685c-3.2,0-5.9-2.6-5.9-5.9s2.6-5.9,5.9-5.9c3.2,0,5.9,2.6,5.9,5.9C348.9,682.3,346.3,685,343.1,685
					z M343.1,674.1c-2.8,0-5,2.2-5,5c0,2.8,2.2,5,5,5c2.8,0,5-2.2,5-5l0,0C348.1,676.3,345.9,674.1,343.1,674.1L343.1,674.1z"/>
				<polygon class="st2" points="322,683.2 321.4,682.6 329,674.9 329.6,675.5 				"/>
				
					<rect x="337.6" y="678.7" transform="matrix(0.2747 -0.9615 0.9615 0.2747 -404.159 822.3918)" class="st2" width="10.9" height="0.9"/>
				<path class="st2" d="M477.2,662.2H67.6c-1,0-1.9-0.8-1.9-1.9l0-267.3c0-1,0.8-1.9,1.9-1.9h409.6c1,0,1.9,0.8,1.9,1.9v267.3
					C479.1,661.4,478.2,662.2,477.2,662.2z M66.2,393h0.4l0,267.3c0,0.5,0.4,1,1,1h409.6c0.5,0,1-0.4,1-1V393c0-0.5-0.4-1-1-1H67.6
					c-0.5,0-1,0.4-1,1H66.2z"/>
				<path class="st1" d="M343.6,375h24.5c3,0,5.4,2.4,5.4,5.4v0v55.7c0,3-2.4,5.4-5.4,5.4h-24.5c-3,0-5.4-2.4-5.4-5.4v-55.7
					C338.2,377.4,340.7,375,343.6,375z"/>
				<path class="st2" d="M368.1,442.2h-24.5c-3.4,0-6.1-2.7-6.1-6.1v-55.7c0-3.4,2.7-6.1,6.1-6.1h24.5c3.4,0,6.1,2.7,6.1,6.1v55.7
					C374.2,439.4,371.5,442.2,368.1,442.2z M343.6,375.6c-2.6,0-4.7,2.1-4.8,4.8v55.7c0,2.6,2.1,4.7,4.8,4.8h24.5
					c2.6,0,4.7-2.1,4.8-4.8v-55.7c0-2.6-2.1-4.7-4.8-4.8H343.6z"/>
				<path class="st1" d="M370.5,280.1c-6.8,0-10.2,2.1-13.5,4.1c-3.4,2-6.6,4-13.2,4c-1.8,0-3.7-0.2-5.5-0.6v83.3
					c0,2.3,1.8,4.1,4.1,4.1h27.1c2.3,0,4.1-1.8,4.1-4.1c0,0,0,0,0,0v-90.6C372.5,280.2,371.5,280.1,370.5,280.1z"/>
				<path class="st2" d="M369.4,375.6h-27.1c-2.6,0-4.7-2.1-4.7-4.7v-83.3c0-0.2,0.1-0.4,0.2-0.5c0.2-0.1,0.4-0.2,0.6-0.1
					c1.8,0.4,3.6,0.6,5.4,0.6c6.4,0,9.6-1.9,12.9-3.9c3.4-2,6.9-4.2,13.9-4.2c1,0,2.1,0.1,3.1,0.2c0.3,0,0.6,0.3,0.6,0.7v90.6
					C374.2,373.5,372.1,375.6,369.4,375.6z M338.9,288.4v82.5c0,1.9,1.5,3.4,3.4,3.4h27.1c1.9,0,3.4-1.5,3.4-3.4v-90
					c-0.8-0.1-1.6-0.1-2.4-0.1c-6.6,0-9.9,2-13.2,4c-3.5,2.1-6.8,4.1-13.6,4.1C342.1,288.8,340.5,288.7,338.9,288.4L338.9,288.4z"/>
				<g id="GSM">
					<path class="st1" d="M459.5,339.8v29.7c0,3-2.4,5.4-5.4,5.4h-23.4c-3,0-5.4-2.4-5.4-5.4v-29.4"/>
					<path class="st2" d="M454.1,375.6h-23.4c-3.4,0-6.1-2.7-6.1-6.1v-29.4c0-0.4,0.3-0.7,0.7-0.7c0.4,0,0.7,0.3,0.7,0.7v29.4
						c0,2.6,2.1,4.8,4.8,4.8h23.4c2.6,0,4.8-2.1,4.8-4.8v-29.7c0-0.4,0.3-0.7,0.7-0.7c0.4,0,0.7,0.3,0.7,0.7v29.7
						C460.2,372.9,457.4,375.6,454.1,375.6z"/>
					<path class="st1" d="M459.5,436.3l0-55.9c0-3-2.4-5.4-5.4-5.4c0,0,0,0,0,0h-23.4c-3,0-5.4,2.4-5.4,5.4v55.7
						c0,3,2.4,5.4,5.4,5.4l23.4,0.2C457,441.7,459.5,439.3,459.5,436.3C459.5,436.3,459.5,436.3,459.5,436.3z"/>
					<path class="st2" d="M454.1,442.4L454.1,442.4l-23.4-0.2c-3.3,0-6-2.8-6.1-6.1v-55.7c0-3.4,2.7-6.1,6.1-6.1h23.4
						c3.4,0,6.1,2.7,6.1,6.1l0,55.9C460.2,439.6,457.4,442.4,454.1,442.4C454.1,442.4,454.1,442.4,454.1,442.4z M430.7,375.6
						c-2.6,0-4.8,2.1-4.8,4.8v55.7c0,2.6,2.1,4.7,4.7,4.8L454,441h0c2.6,0,4.8-2.1,4.8-4.8l0,0l0-55.9c0-2.6-2.1-4.8-4.8-4.8H430.7z
						"/>
					<path class="st1" d="M441.9,284.2c-3.4,2-6.6,4-13.2,4c-3.1,0.1-6.1-0.5-8.9-1.7v43.2c2.1,3.7,3.8,7.2,5.5,10.4
						c4.1,7.6,8.2,13,16.9,13c9,0,13.1-5,17.4-13.2c1.6-3,3.2-6.4,5.1-10.1v-47.9c-2.9-1.2-6-1.8-9.2-1.7
						C450.6,280.1,445.9,281.5,441.9,284.2z"/>
					<path class="st2" d="M442.1,353.7c-9.5,0-13.7-6.3-17.5-13.3c-0.7-1.3-1.4-2.6-2.1-4c-1.1-2.1-2.2-4.2-3.4-6.4
						c-0.1-0.1-0.1-0.2-0.1-0.3v-43.2c0-0.4,0.3-0.7,0.7-0.7c0.1,0,0.2,0,0.3,0.1c2.7,1.1,5.7,1.7,8.6,1.6c6.4,0,9.6-1.9,12.9-3.9
						l0,0c4.1-2.8,8.9-4.2,13.9-4.2c3.2-0.1,6.5,0.5,9.5,1.8c0.2,0.1,0.4,0.3,0.4,0.6v47.9c0,0.1,0,0.2-0.1,0.3
						c-0.8,1.6-1.6,3.2-2.3,4.7c-1,1.9-1.9,3.7-2.7,5.4C455.5,349,451.2,353.7,442.1,353.7z M420.4,329.5c1.2,2.2,2.3,4.2,3.3,6.3
						c0.7,1.4,1.4,2.7,2.1,4c4.5,8.2,8.4,12.6,16.3,12.6c8.5,0,12.3-4.3,16.8-12.9c0.9-1.7,1.8-3.5,2.7-5.4c0.7-1.5,1.5-3,2.3-4.6
						v-47.3c-2.7-1.1-5.6-1.6-8.5-1.5c-4.7-0.1-9.3,1.3-13.2,4l-0.3-0.6l0.3,0.6c-3.5,2.1-6.8,4.1-13.6,4.1
						c-2.8,0.1-5.6-0.4-8.2-1.3L420.4,329.5z"/>
					<line class="st5" x1="442.1" y1="324.9" x2="442.3" y2="284"/>
					<path class="st2" d="M442.1,324.9l-0.6-41c0-0.4,0.3-0.7,0.7-0.7c0.4,0,0.7,0.3,0.7,0.7v0L442.1,324.9z"/>
				</g>
				<path class="st6" d="M308.6,421.6l-1-1.6c-0.4-0.6-0.6-1-0.9-1.5h0c-0.2,0.4-0.4,0.8-0.8,1.5l-0.9,1.6H304l2.3-3.8l-2.2-3.7h1.1
					l1,1.8c0.3,0.5,0.5,0.9,0.7,1.3h0c0.2-0.4,0.4-0.8,0.7-1.3l1-1.8h1.1l-2.3,3.6l2.3,3.8L308.6,421.6z"/>
				<path class="st6" d="M312.8,418.2v0.7h-2.7v-0.7H312.8z"/>
				<path class="st6" d="M314,414.2c0.6-0.1,1.2-0.2,1.8-0.2c0.7-0.1,1.5,0.1,2,0.5c0.4,0.3,0.6,0.8,0.6,1.3c0,0.8-0.5,1.4-1.3,1.6
					v0c0.9,0.2,1.5,1,1.5,1.9c0,0.6-0.2,1.1-0.6,1.5c-0.7,0.5-1.7,0.8-2.6,0.7c-0.5,0-1,0-1.5-0.1L314,414.2z M315,417.2h0.9
					c1,0,1.6-0.5,1.6-1.3c0-0.9-0.7-1.2-1.6-1.2c-0.3,0-0.6,0-0.9,0.1L315,417.2z M315,420.8c0.3,0,0.5,0.1,0.8,0
					c1,0,1.9-0.4,1.9-1.5c0-1-0.9-1.4-1.9-1.4H315L315,420.8z"/>
				<path class="st6" d="M324.5,420.1c0,0.6,0,1,0,1.5h-0.9l-0.1-0.9h0c-0.4,0.6-1,1-1.8,1c-0.8,0-1.9-0.5-1.9-2.3v-3.1h1v3
					c0,1,0.3,1.7,1.2,1.7c0.8,0,1.4-0.6,1.4-1.4c0,0,0,0,0,0v-3.3h1L324.5,420.1z"/>
				<path class="st6" d="M326,420.6c0.4,0.2,0.8,0.4,1.3,0.4c0.7,0,1-0.4,1-0.8c0-0.5-0.3-0.7-1-1c-1-0.3-1.4-0.9-1.4-1.5
					c0-0.9,0.8-1.6,1.7-1.6c0,0,0.1,0,0.1,0c0.5,0,0.9,0.1,1.3,0.3l-0.2,0.7c-0.3-0.2-0.7-0.3-1.1-0.3c-0.6,0-0.9,0.3-0.9,0.7
					c0,0.4,0.3,0.6,1,0.9c0.9,0.4,1.4,0.8,1.4,1.6c0,0.9-0.7,1.6-2,1.6c-0.5,0-1-0.1-1.5-0.4L326,420.6z"/>
				<path class="st6" d="M308.4,401.4v3.7h3.6v1h-3.6v3.8h-1v-3.8h-3.6v-1h3.6v-3.7H308.4z"/>
				<path class="st6" d="M329,405.3v1h-7v-1H329z"/>
			</g>
			<g>
				<defs>
					<path id="SVGID_1_" d="M290.3,265.1c15.4,17.5,35.2,30.6,57.3,38c4.7,1.6,7.6,6.2,7,11.1l-25.7,59.3l58.3-55.5
						c2.8-5,7.8-8.2,13.5-8.7c31.2-2.7,60.5-16.4,82.5-38.6c46.9-47.1,51.8-123.1,11.4-175.8c-44.2-58-127-69.2-185-25.1
						c-2.8,2.1-5.6,4.4-8.2,6.8C244.9,127.2,232.7,200.7,290.3,265.1z"/>
				</defs>
				<clipPath id="SVGID_2_">
					<use xlink:href="#SVGID_1_"  style="overflow:visible;"/>
				</clipPath>
				<g class="st7">
					<path class="st1" d="M290.3,265.1c15.4,17.5,35.2,30.6,57.3,38c4.7,1.6,7.6,6.2,7,11.1l-25.7,59.3l58.3-55.5
						c2.8-5,7.8-8.2,13.5-8.7c31.2-2.7,60.5-16.4,82.5-38.6c46.9-47.1,51.8-123.1,11.4-175.8c-44.2-58-127-69.2-185-25.1
						c-2.8,2.1-5.6,4.4-8.2,6.8C244.9,127.2,232.7,200.7,290.3,265.1z"/>
					<rect x="337.5" y="90.7" class="st1" width="106.1" height="63.7"/>
					<path class="st4" d="M443.6,155.7H337.5c-0.7,0-1.3-0.6-1.3-1.3c0,0,0,0,0,0V90.7c0-0.7,0.6-1.3,1.3-1.3c0,0,0,0,0,0h106.1
						c0.7,0,1.3,0.6,1.3,1.3c0,0,0,0,0,0v63.7C444.9,155.2,444.3,155.7,443.6,155.7C443.6,155.7,443.6,155.7,443.6,155.7z
						 M338.8,153.2h103.6V92H338.8V153.2z"/>
					<rect x="355.3" y="99.6" class="st4" width="17.4" height="2.5"/>
					<path class="st4" d="M363.8,145c-9.3,0-16.8-7.5-16.8-16.8c0-9.3,7.5-16.8,16.8-16.8c9.3,0,16.8,7.5,16.8,16.8l0,0
						C380.6,137.5,373.1,145,363.8,145z M363.8,113.9c-7.9,0-14.3,6.4-14.3,14.3c0,7.9,6.4,14.3,14.3,14.3c7.9,0,14.3-6.4,14.3-14.3
						v0C378.1,120.3,371.7,113.9,363.8,113.9z"/>
					
						<rect x="348.4" y="127" transform="matrix(0.7006 -0.7136 0.7136 0.7006 17.4022 298.1082)" class="st4" width="31.1" height="2.5"/>
					<rect x="408.5" y="99.6" class="st4" width="17.4" height="2.5"/>
					<path class="st4" d="M417.1,145c-9.3,0-16.8-7.5-16.8-16.8c0-9.3,7.5-16.8,16.8-16.8c9.3,0,16.8,7.5,16.8,16.8l0,0
						C434,137.5,426.4,145,417.1,145z M417.1,113.9c-7.9,0-14.3,6.4-14.3,14.3c0,7.9,6.4,14.3,14.3,14.3c7.9,0,14.3-6.4,14.3-14.3
						c0,0,0,0,0,0C431.4,120.3,425,113.9,417.1,113.9z"/>
					
						<rect x="415.8" y="112.7" transform="matrix(0.8285 -0.56 0.56 0.8285 -0.2721 255.5728)" class="st4" width="2.5" height="31.1"/>
					<path class="st6" d="M364.5,245.3l-3-5.2c-1.2-2-2-3.3-2.7-4.6h-0.1c-0.7,1.3-1.3,2.6-2.5,4.6l-2.8,5.1h-3.5l7.1-11.8
						l-6.8-11.5h3.5l3.1,5.5c0.9,1.5,1.5,2.7,2.1,3.9h0.1c0.7-1.4,1.2-2.5,2.1-3.9l3.2-5.5h3.5l-7.1,11.3l7.3,12L364.5,245.3z"/>
					<path class="st6" d="M377.7,234.8v2.2h-8.5v-2.2H377.7z"/>
					<path class="st6" d="M381.3,222.3c1.8-0.3,3.7-0.5,5.5-0.5c3,0,4.9,0.5,6.4,1.7c1.3,1,2,2.5,1.9,4.1c-0.1,2.4-1.7,4.4-3.9,5.1
						v0.1c2.8,0.6,4.8,3,4.8,5.8c0,1.8-0.7,3.5-2,4.7c-1.6,1.5-4.3,2.2-8.1,2.2c-1.6,0-3.1-0.1-4.7-0.3L381.3,222.3z M384.4,231.8
						h2.7c3.2,0,5.1-1.7,5.1-3.9c0-2.7-2.1-3.8-5.1-3.8c-0.9,0-1.8,0-2.7,0.2L384.4,231.8z M384.4,243c0.8,0.1,1.7,0.2,2.5,0.1
						c3.1,0,6-1.1,6-4.5c0-3.2-2.7-4.5-6-4.5h-2.5L384.4,243z"/>
					<path class="st6" d="M414,240.7c0,1.7,0,3.3,0.1,4.6h-2.7l-0.2-2.7h-0.1c-1.1,2-3.3,3.1-5.5,3.1c-2.6,0-5.8-1.5-5.8-7.3v-9.8h3
						v9.3c0,3.2,1,5.3,3.7,5.3c1.8,0,3.4-1.1,4-2.8c0.2-0.5,0.3-1,0.3-1.6v-10.3h3L414,240.7z"/>
					<path class="st6" d="M418.6,242.2c1.2,0.8,2.6,1.2,4,1.2c2.2,0,3.3-1.1,3.3-2.5c0-1.5-0.9-2.2-3.1-3.1c-3-1.1-4.4-2.7-4.4-4.7
						c0-2.7,2.2-4.9,5.8-4.9c1.4,0,2.9,0.3,4.1,1l-0.8,2.2c-1-0.6-2.2-1-3.4-1c-1.8,0-2.8,1-2.8,2.3c0,1.4,1,2,3.2,2.8
						c2.9,1.1,4.4,2.6,4.4,5.1c0,2.9-2.3,5-6.3,5c-1.6,0-3.3-0.4-4.7-1.1L418.6,242.2z"/>
					<path class="st6" d="M363.9,186.8v8.9h8.6v2.3h-8.6v9h-2.4v-9h-8.6v-2.3h8.6v-8.9H363.9z"/>
					<path class="st6" d="M424.8,196.2v2.3h-16.7v-2.3H424.8z"/>
					<path class="st3" d="M513.6,158.9H262.2c-0.6,0-1-0.4-1-1s0.4-1,1-1h251.3c0.6,0,1,0.4,1,1S514.1,158.9,513.6,158.9z"/>
					<path class="st3" d="M506.1,166.1H270.6c-0.3,0-0.5-0.2-0.5-0.5s0.2-0.5,0.5-0.5h235.5c0.3,0,0.5,0.2,0.5,0.5
						S506.4,166.1,506.1,166.1z"/>
				</g>
			</g>
			<path class="st0" d="M328.9,374c-0.3,0-0.5-0.2-0.5-0.5c0-0.1,0-0.1,0-0.2l2.2-5.2c0.1-0.2,0.4-0.3,0.6-0.2s0.3,0.4,0.2,0.6l0,0
				l-1.3,3.1l2.4-2.3c0.2-0.2,0.5-0.2,0.7,0c0.2,0.2,0.2,0.5,0,0.6l-4.1,3.9C329.2,374,329,374,328.9,374z"/>
			<path class="st0" d="M335.7,367.5c-0.3,0-0.5-0.2-0.5-0.5c0-0.1,0.1-0.3,0.1-0.3l8.2-7.8c0.2-0.2,0.5-0.2,0.7,0
				c0.2,0.2,0.2,0.5,0,0.6l-8.2,7.8C336,367.5,335.9,367.5,335.7,367.5z M332.7,365.3c-0.3,0-0.5-0.2-0.5-0.5c0-0.1,0-0.1,0-0.2
				l4.5-10.3c0.1-0.2,0.4-0.3,0.6-0.2c0.2,0.1,0.3,0.4,0.2,0.6l-4.5,10.3C333.1,365.2,332.9,365.3,332.7,365.3L332.7,365.3z
				 M346.6,357.2c-0.3,0-0.5-0.2-0.5-0.5c0-0.1,0.1-0.3,0.1-0.3l8.2-7.8c0.2-0.2,0.5-0.2,0.7,0c0.2,0.2,0.2,0.5,0,0.6l-8.2,7.8
				C346.9,357.1,346.7,357.2,346.6,357.2L346.6,357.2z M338.7,351.5c-0.3,0-0.5-0.2-0.5-0.5c0-0.1,0-0.1,0-0.2l4.5-10.3
				c0.1-0.2,0.4-0.4,0.6-0.2c0.2,0.1,0.4,0.4,0.2,0.6c0,0,0,0,0,0l-4.5,10.3C339.1,351.4,338.9,351.5,338.7,351.5L338.7,351.5z
				 M357.5,346.8c-0.3,0-0.5-0.2-0.5-0.5c0-0.1,0.1-0.3,0.1-0.3l8.2-7.8c0.2-0.2,0.5-0.2,0.7,0c0.2,0.2,0.2,0.5,0,0.7c0,0,0,0,0,0
				l-8.2,7.8C357.7,346.8,357.6,346.8,357.5,346.8L357.5,346.8z M344.7,337.7c-0.3,0-0.5-0.2-0.5-0.5c0-0.1,0-0.1,0-0.2l4.5-10.3
				c0.1-0.2,0.4-0.4,0.6-0.2c0.2,0.1,0.4,0.4,0.2,0.6c0,0,0,0,0,0l-4.5,10.3C345,337.6,344.9,337.7,344.7,337.7L344.7,337.7z
				 M368.4,336.4c-0.3,0-0.5-0.2-0.5-0.5c0-0.1,0.1-0.3,0.1-0.3l8.2-7.8c0.2-0.2,0.5-0.2,0.7,0c0.2,0.2,0.2,0.5,0,0.7c0,0,0,0,0,0
				l-8.2,7.8C368.6,336.4,368.5,336.4,368.4,336.4L368.4,336.4z M379.3,326.1c-0.3,0-0.5-0.2-0.5-0.5c0-0.1,0.1-0.3,0.1-0.3l7.9-7.5
				l0.1-0.2c0.1-0.2,0.4-0.3,0.6-0.2c0.2,0.1,0.3,0.4,0.2,0.6c0,0,0,0,0,0l-0.2,0.3c0,0-0.1,0.1-0.1,0.1l-7.9,7.5
				C379.5,326,379.4,326.1,379.3,326.1L379.3,326.1z M350.6,323.9c-0.3,0-0.5-0.2-0.5-0.5c0-0.1,0-0.1,0-0.2l4-9.1
				c0-0.4,0.1-0.7,0.1-1.1c0-0.2,0.2-0.5,0.4-0.5c0,0,0,0,0,0c0.3,0,0.5,0.2,0.5,0.5c0,0,0,0,0,0c0,0.4,0,0.9-0.1,1.3
				c0,0,0,0.1,0,0.1l-4,9.2C351,323.8,350.8,323.9,350.6,323.9L350.6,323.9z M389.6,315.2c-0.1,0-0.2,0-0.3-0.1
				c-0.2-0.2-0.2-0.5,0-0.7c0,0,0,0,0,0c2.7-2.8,6.2-4.7,10-5.4c0.3,0,0.5,0.1,0.5,0.4c0,0.3-0.1,0.5-0.4,0.5c0,0,0,0,0,0
				c-3.6,0.6-7,2.4-9.5,5.1C389.8,315.2,389.7,315.2,389.6,315.2L389.6,315.2z M354.1,309.8c-0.2,0-0.4-0.1-0.4-0.3
				c-1-2.8-3.3-5-6.1-5.9c-0.7-0.2-1.3-0.4-2-0.7c-0.2-0.1-0.4-0.4-0.3-0.6c0.1-0.2,0.4-0.4,0.6-0.3c0.6,0.2,1.3,0.4,1.9,0.7
				c3.1,1,5.6,3.4,6.7,6.5c0.1,0.2,0,0.5-0.3,0.6c0,0,0,0,0,0C354.2,309.8,354.1,309.8,354.1,309.8L354.1,309.8z M403.1,309.6
				c-0.3,0-0.5-0.2-0.5-0.5c0-0.2,0.2-0.4,0.4-0.5c3.7-0.4,7.4-0.9,11.1-1.6c0.3,0,0.5,0.1,0.5,0.4c0,0.3-0.1,0.5-0.4,0.5
				C410.6,308.7,406.9,309.2,403.1,309.6C403.1,309.6,403.1,309.6,403.1,309.6L403.1,309.6z M417.9,307.2c-0.3,0-0.5-0.2-0.5-0.5
				c0-0.2,0.2-0.4,0.4-0.5c3.6-0.8,7.3-1.8,10.8-2.9c0.3-0.1,0.5,0.1,0.6,0.3c0.1,0.2-0.1,0.5-0.3,0.6c-3.6,1.1-7.3,2.1-10.9,2.9
				C418,307.2,417.9,307.2,417.9,307.2L417.9,307.2z M432.4,303.2c-0.3,0-0.5-0.2-0.5-0.5c0-0.2,0.1-0.4,0.3-0.4
				c3.5-1.2,7-2.6,10.5-4.1c0.2-0.1,0.5,0,0.6,0.2s0,0.5-0.2,0.6c-3.4,1.5-7,2.9-10.5,4.1C432.5,303.2,432.4,303.2,432.4,303.2
				L432.4,303.2z M342.2,301.6c-0.1,0-0.1,0-0.2,0c-3.5-1.3-7-2.9-10.4-4.5c-0.2-0.1-0.3-0.4-0.2-0.6s0.4-0.3,0.6-0.2
				c3.4,1.6,6.8,3.1,10.3,4.5c0.2,0.1,0.4,0.4,0.3,0.6C342.6,301.5,342.4,301.6,342.2,301.6L342.2,301.6z M446.2,297.5
				c-0.3,0-0.5-0.2-0.5-0.5c0-0.2,0.1-0.3,0.3-0.4c3.4-1.6,6.7-3.4,9.9-5.3c0.2-0.1,0.5-0.1,0.6,0.2c0.1,0.2,0.1,0.5-0.2,0.6
				c0,0,0,0,0,0c-3.2,1.9-6.6,3.7-10,5.3C446.4,297.5,446.3,297.5,446.2,297.5L446.2,297.5z M328.5,295.5c-0.1,0-0.2,0-0.2-0.1
				c-3.3-1.7-6.6-3.6-9.8-5.6c-0.2-0.1-0.3-0.4-0.1-0.6c0.1-0.2,0.4-0.3,0.6-0.1c3.2,2,6.4,3.9,9.7,5.6c0.2,0.1,0.3,0.4,0.2,0.6
				C328.8,295.4,328.7,295.5,328.5,295.5L328.5,295.5z M459.4,290.3c-0.3,0-0.5-0.2-0.5-0.5c0-0.2,0.1-0.3,0.2-0.4
				c3.2-2,6.3-4.1,9.2-6.4c0.2-0.2,0.5-0.1,0.7,0.1c0.2,0.2,0.1,0.5-0.1,0.7c-3,2.3-6.1,4.4-9.3,6.4
				C459.6,290.2,459.5,290.3,459.4,290.3z M315.6,287.8c-0.1,0-0.2,0-0.3-0.1c-3.1-2.1-6.2-4.4-9.1-6.7c-0.2-0.2-0.2-0.5-0.1-0.7
				c0.2-0.2,0.5-0.2,0.7-0.1c2.9,2.3,5.9,4.6,9,6.7c0.2,0.1,0.3,0.4,0.1,0.7C315.9,287.7,315.7,287.8,315.6,287.8L315.6,287.8z
				 M471.6,281.6c-0.3,0-0.5-0.2-0.5-0.5c0-0.1,0.1-0.3,0.2-0.4c2.9-2.3,5.8-4.8,8.5-7.4c0.2-0.2,0.5-0.2,0.7,0
				c0.2,0.2,0.2,0.5,0,0.7l0,0c-2.7,2.6-5.6,5.1-8.5,7.4C471.9,281.5,471.8,281.6,471.6,281.6z M303.6,278.7c-0.1,0-0.2,0-0.3-0.1
				c-2.9-2.4-5.6-5-8.3-7.7c-0.2-0.2-0.2-0.5,0-0.7s0.5-0.2,0.7,0l0,0c2.6,2.7,5.4,5.2,8.2,7.7c0.2,0.2,0.2,0.5,0.1,0.7
				C303.9,278.6,303.8,278.7,303.6,278.7L303.6,278.7z M482.8,271.6c-0.3,0-0.5-0.2-0.5-0.5c0-0.1,0.1-0.2,0.1-0.3l0.4-0.4
				c2.5-2.5,5-5.2,7.2-7.9c0.2-0.2,0.5-0.2,0.7-0.1c0.2,0.2,0.2,0.5,0.1,0.7c-2.3,2.7-4.8,5.4-7.3,7.9l-0.4,0.4
				C483.1,271.5,483,271.6,482.8,271.6L482.8,271.6z M292.8,268.3c-0.1,0-0.3-0.1-0.3-0.1c-0.8-0.9-1.6-1.8-2.5-2.7
				c-1.7-1.9-3.4-3.9-5-5.8c-0.2-0.2-0.1-0.5,0.1-0.7s0.5-0.1,0.7,0.1l0,0c1.6,1.9,3.3,3.9,5,5.8c0.8,0.9,1.6,1.8,2.4,2.7
				c0.2,0.2,0.2,0.5,0,0.7C293,268.3,292.9,268.3,292.8,268.3L292.8,268.3z M492.9,260.4c-0.3,0-0.5-0.2-0.5-0.5
				c0-0.1,0-0.2,0.1-0.3c2.3-2.9,4.6-6,6.6-9.1c0.1-0.2,0.4-0.3,0.7-0.1s0.3,0.4,0.1,0.7c0,0,0,0,0,0c-2.1,3.1-4.3,6.2-6.7,9.1
				C493.2,260.3,493,260.4,492.9,260.4z M283,256.9c-0.1,0-0.3-0.1-0.4-0.2c-2.4-3-4.6-6-6.7-9.1c-0.1-0.2-0.1-0.5,0.1-0.7
				c0.2-0.1,0.5-0.1,0.7,0.1c2.1,3,4.3,6.1,6.7,9c0.2,0.2,0.1,0.5-0.1,0.7C283.2,256.9,283.1,256.9,283,256.9L283,256.9z
				 M501.6,248.1c-0.3,0-0.5-0.2-0.5-0.5c0-0.1,0-0.2,0.1-0.2c2-3.2,3.8-6.4,5.5-9.8c0.1-0.2,0.4-0.3,0.6-0.2s0.3,0.4,0.2,0.6l0,0
				c-1.7,3.3-3.6,6.7-5.6,9.8C501.9,248,501.7,248.1,501.6,248.1L501.6,248.1z M274.2,244.7c-0.2,0-0.3-0.1-0.4-0.2
				c-2.1-3.2-4-6.4-5.8-9.7c-0.1-0.2,0-0.5,0.2-0.6c0.2-0.1,0.5,0,0.6,0.2c1.8,3.2,3.7,6.5,5.8,9.6c0.1,0.2,0.1,0.5-0.1,0.7
				C274.4,244.7,274.3,244.7,274.2,244.7L274.2,244.7z M508.8,235c-0.3,0-0.5-0.2-0.5-0.5c0-0.1,0-0.1,0-0.2
				c1.6-3.4,3.1-6.8,4.4-10.3c0.1-0.2,0.4-0.4,0.6-0.3c0.2,0.1,0.4,0.4,0.3,0.6c0,0,0,0,0,0c-1.3,3.5-2.8,7-4.4,10.4
				C509.1,234.9,509,235,508.8,235L508.8,235z M266.7,231.7c-0.2,0-0.3-0.1-0.4-0.3c-1.7-3.4-3.3-6.8-4.8-10.2
				c-0.1-0.2,0-0.5,0.2-0.6c0.2-0.1,0.5,0,0.6,0.2c0,0,0,0,0,0c1.4,3.4,3,6.8,4.7,10.2c0.1,0.2,0,0.5-0.2,0.6
				C266.8,231.7,266.7,231.7,266.7,231.7z M514.5,221.1c-0.1,0-0.1,0-0.2,0c-0.2-0.1-0.4-0.4-0.3-0.6c0,0,0,0,0,0
				c1.2-3.5,2.3-7.1,3.2-10.8c0.1-0.3,0.3-0.4,0.6-0.3c0,0,0,0,0,0c0.3,0.1,0.4,0.3,0.3,0.6c-0.9,3.6-2,7.3-3.2,10.8
				C514.9,220.9,514.7,221.1,514.5,221.1L514.5,221.1z M260.5,218c-0.2,0-0.4-0.1-0.4-0.3c-1.4-3.5-2.5-7.2-3.6-10.7
				c-0.1-0.3,0.1-0.5,0.3-0.6c0.3-0.1,0.5,0.1,0.6,0.3c1,3.6,2.2,7.1,3.5,10.7c0.1,0.2,0,0.5-0.3,0.6C260.6,218,260.6,218,260.5,218
				L260.5,218z M518.6,206.6c-0.3,0-0.5-0.2-0.5-0.5c0,0,0-0.1,0-0.1c0.8-3.6,1.5-7.4,2-11c0-0.3,0.3-0.4,0.5-0.4s0.4,0.3,0.4,0.5
				c0,0,0,0,0,0c-0.5,3.7-1.2,7.5-2,11.1C519,206.5,518.8,206.6,518.6,206.6L518.6,206.6z M256,203.7c-0.2,0-0.4-0.1-0.5-0.4
				c-0.9-3.7-1.6-7.4-2.2-11.1c0-0.3,0.1-0.5,0.4-0.5c0.3,0,0.5,0.1,0.5,0.4l0,0c0.5,3.7,1.3,7.4,2.2,11c0.1,0.3-0.1,0.5-0.3,0.6
				C256.1,203.7,256.1,203.7,256,203.7z M521.1,191.8C521.1,191.8,521,191.8,521.1,191.8c-0.3,0-0.5-0.3-0.5-0.5c0,0,0,0,0,0
				c0.4-3.7,0.7-7.5,0.8-11.2c0-0.3,0.2-0.5,0.5-0.5h0c0.3,0,0.5,0.2,0.5,0.5c0,0,0,0,0,0c-0.1,3.7-0.4,7.5-0.8,11.3
				C521.5,191.6,521.3,191.8,521.1,191.8z M253.4,188.9c-0.2,0-0.4-0.2-0.5-0.4c-0.4-3.7-0.7-7.5-0.7-11.3c0-0.3,0.2-0.5,0.5-0.5
				c0,0,0,0,0,0h0c0.3,0,0.5,0.2,0.5,0.5c0.1,3.7,0.3,7.5,0.7,11.2C253.9,188.7,253.7,188.9,253.4,188.9
				C253.4,188.9,253.4,188.9,253.4,188.9C253.4,188.9,253.4,188.9,253.4,188.9z M521.9,176.8c-0.3,0-0.5-0.2-0.5-0.5v-0.2
				c0-3.7-0.2-7.4-0.4-11c0-0.3,0.2-0.5,0.4-0.5c0.3,0,0.5,0.2,0.5,0.4c0.3,3.7,0.5,7.4,0.5,11.1v0.2
				C522.4,176.6,522.2,176.8,521.9,176.8L521.9,176.8z M252.7,173.9L252.7,173.9c-0.3,0-0.5-0.2-0.5-0.5c0,0,0,0,0,0
				c0.1-3.7,0.3-7.5,0.8-11.3c0-0.3,0.3-0.4,0.5-0.4s0.4,0.3,0.4,0.5l0,0c-0.4,3.7-0.7,7.5-0.8,11.2
				C253.1,173.7,252.9,173.9,252.7,173.9L252.7,173.9z M521.1,161.8c-0.2,0-0.4-0.2-0.5-0.4c-0.4-3.7-1-7.4-1.7-11.1
				c0-0.3,0.1-0.5,0.4-0.6c0.3,0,0.5,0.1,0.6,0.4l0,0c0.7,3.7,1.3,7.4,1.7,11.2C521.6,161.5,521.4,161.8,521.1,161.8
				C521.2,161.8,521.2,161.8,521.1,161.8C521.2,161.8,521.1,161.8,521.1,161.8L521.1,161.8z M254,159C253.9,159,253.9,159,254,159
				c-0.3,0-0.5-0.3-0.5-0.5c0.6-3.7,1.3-7.4,2.3-11.1c0.1-0.3,0.3-0.4,0.6-0.3c0.3,0.1,0.4,0.3,0.3,0.6c0,0,0,0,0,0
				c-0.9,3.6-1.7,7.3-2.2,11C254.4,158.8,254.2,159,254,159L254,159z M518.7,147c-0.2,0-0.4-0.2-0.5-0.4c-0.8-3.6-1.8-7.3-2.9-10.8
				c-0.1-0.2,0.1-0.5,0.3-0.6c0.2-0.1,0.5,0.1,0.6,0.3c1.1,3.6,2.1,7.3,2.9,10.9C519.2,146.7,519,146.9,518.7,147
				C518.7,147,518.7,147,518.7,147L518.7,147z M257.2,144.3c0,0-0.1,0-0.1,0c-0.2-0.1-0.4-0.3-0.3-0.6c1-3.6,2.3-7.2,3.6-10.7
				c0.1-0.2,0.4-0.4,0.6-0.3c0.2,0.1,0.4,0.4,0.3,0.6c-1.4,3.5-2.6,7.1-3.6,10.6C257.6,144.2,257.4,144.3,257.2,144.3L257.2,144.3z
				 M514.6,132.6c-0.2,0-0.4-0.1-0.4-0.3c-1.2-3.5-2.6-7-4.1-10.4c-0.1-0.2,0-0.5,0.2-0.6c0.2-0.1,0.5,0,0.6,0.2c0,0,0,0,0,0
				c1.5,3.4,2.9,7,4.1,10.5c0.1,0.2,0,0.5-0.3,0.6C514.7,132.5,514.6,132.6,514.6,132.6L514.6,132.6z M262.2,130.2
				c-0.1,0-0.1,0-0.2,0c-0.2-0.1-0.3-0.4-0.2-0.6c1.5-3.4,3.1-6.9,4.9-10.2c0.1-0.2,0.4-0.3,0.6-0.2c0.2,0.1,0.3,0.4,0.2,0.6
				c-1.8,3.3-3.4,6.7-4.9,10.1C262.6,130.1,262.4,130.2,262.2,130.2L262.2,130.2z M508.9,118.7c-0.2,0-0.3-0.1-0.4-0.3
				c-1.6-3.4-3.4-6.7-5.3-9.9c-0.1-0.2-0.1-0.5,0.2-0.6c0.2-0.1,0.5-0.1,0.6,0.2c0,0,0,0,0,0c1.9,3.2,3.7,6.6,5.3,10
				c0.1,0.2,0,0.5-0.2,0.6C509,118.6,508.9,118.7,508.9,118.7L508.9,118.7z M268.9,116.7c-0.3,0-0.5-0.2-0.5-0.5
				c0-0.1,0-0.2,0.1-0.2c1.8-3.2,3.9-6.5,6-9.6c0.1-0.2,0.4-0.3,0.7-0.1s0.3,0.4,0.1,0.7l0,0c-2.1,3.1-4.1,6.3-5.9,9.5
				C269.3,116.6,269.1,116.7,268.9,116.7z M501.6,105.5c-0.2,0-0.3-0.1-0.4-0.2c-2-3.2-4.1-6.3-6.4-9.2c-0.2-0.2-0.1-0.5,0.1-0.7
				c0.2-0.2,0.5-0.1,0.7,0.1l0,0c2.3,3,4.4,6.1,6.4,9.3c0.1,0.2,0.1,0.5-0.1,0.7C501.8,105.5,501.7,105.5,501.6,105.5L501.6,105.5z
				 M277,104.1c-0.3,0-0.5-0.2-0.5-0.5c0-0.1,0-0.2,0.1-0.3c2.2-3,4.5-6,6.9-8.9c0.2-0.2,0.5-0.2,0.7-0.1c0.2,0.2,0.2,0.5,0.1,0.7
				l0,0c-2.4,2.9-4.7,5.9-6.9,8.9C277.3,104,277.2,104.1,277,104.1z M492.9,93.3c-0.1,0-0.3-0.1-0.4-0.2c-2.3-2.9-4.8-5.8-7.4-8.5
				c-0.2-0.2-0.2-0.5,0-0.7c0.2-0.2,0.5-0.2,0.7,0c2.6,2.7,5.1,5.6,7.4,8.5c0.2,0.2,0.1,0.5-0.1,0.7C493.1,93.2,493,93.3,492.9,93.3
				z M286.4,92.3c-0.3,0-0.5-0.2-0.5-0.5c0-0.1,0-0.2,0.1-0.3c2.4-2.8,5-5.6,7.7-8.3c0.2-0.2,0.5-0.2,0.7,0c0.2,0.2,0.2,0.5,0,0.7
				l0,0c-2.7,2.7-5.3,5.4-7.7,8.2C286.6,92.3,286.5,92.3,286.4,92.3z M482.9,82.1c-0.1,0-0.2,0-0.3-0.1c-2.6-2.6-5.4-5.2-8.3-7.6
				c-0.2-0.2-0.2-0.5-0.1-0.7c0.2-0.2,0.5-0.2,0.7-0.1c2.9,2.4,5.7,5,8.3,7.7c0.2,0.2,0.2,0.5,0,0.7C483.2,82,483,82.1,482.9,82.1
				L482.9,82.1z M296.8,81.5c-0.3,0-0.5-0.2-0.5-0.5c0-0.1,0.1-0.3,0.1-0.3c1.5-1.4,3.1-2.9,4.7-4.3c1.2-1.1,2.5-2.2,3.7-3.2
				c0.2-0.2,0.5-0.1,0.7,0.1s0.1,0.5-0.1,0.7c0,0,0,0,0,0c-1.3,1-2.5,2.1-3.7,3.2c-1.6,1.4-3.2,2.9-4.7,4.3
				C297,81.4,296.9,81.5,296.8,81.5z M471.7,72.1c-0.1,0-0.2,0-0.3-0.1c-2.9-2.3-6-4.6-9.1-6.6c-0.2-0.1-0.3-0.4-0.1-0.7
				s0.4-0.3,0.7-0.1c3.1,2.1,6.2,4.3,9.1,6.7c0.2,0.2,0.2,0.5,0.1,0.7C472,72,471.9,72.1,471.7,72.1z M308,71.6
				c-0.3,0-0.5-0.2-0.5-0.5c0-0.1,0.1-0.3,0.2-0.4c3-2.3,6-4.5,9.2-6.6c0.2-0.1,0.5-0.1,0.7,0.1c0.1,0.2,0.1,0.5-0.1,0.7
				c-3.1,2-6.2,4.2-9.1,6.6C308.3,71.5,308.2,71.6,308,71.6z M459.4,63.4c-0.1,0-0.2,0-0.2-0.1c-3.2-2-6.4-3.8-9.8-5.5
				c-0.2-0.1-0.3-0.4-0.2-0.6c0.1-0.2,0.4-0.3,0.6-0.2l0,0c3.3,1.7,6.7,3.6,9.8,5.6c0.2,0.1,0.3,0.4,0.1,0.6
				C459.8,63.3,459.6,63.4,459.4,63.4L459.4,63.4z M320.4,63c-0.3,0-0.5-0.2-0.5-0.5c0-0.2,0.1-0.3,0.2-0.4c3.2-2,6.5-3.8,9.9-5.5
				c0.2-0.1,0.5,0,0.6,0.2c0.1,0.2,0,0.5-0.2,0.6c-3.3,1.7-6.6,3.5-9.8,5.5C320.5,62.9,320.4,63,320.4,63L320.4,63z M446.3,56.2
				c-0.1,0-0.1,0-0.2,0c-3.4-1.6-6.8-3.1-10.3-4.4c-0.2-0.1-0.4-0.4-0.3-0.6c0.1-0.2,0.4-0.4,0.6-0.3c3.5,1.3,7,2.8,10.4,4.4
				c0.2,0.1,0.3,0.4,0.2,0.6C446.6,56.1,446.4,56.2,446.3,56.2L446.3,56.2z M333.6,55.8c-0.3,0-0.5-0.2-0.5-0.5
				c0-0.2,0.1-0.3,0.3-0.4c3.4-1.6,6.9-3.1,10.4-4.4c0.2-0.1,0.5,0,0.6,0.3c0.1,0.2,0,0.5-0.3,0.6c-3.5,1.3-7,2.7-10.4,4.3
				C333.7,55.8,333.6,55.8,333.6,55.8z M432.4,50.5c-0.1,0-0.1,0-0.2,0c-3.5-1.2-7.2-2.3-10.8-3.2c-0.3-0.1-0.4-0.3-0.3-0.6
				c0.1-0.3,0.3-0.4,0.6-0.3c3.6,0.9,7.3,2,10.8,3.2c0.2,0.1,0.4,0.4,0.3,0.6C432.7,50.4,432.6,50.5,432.4,50.5L432.4,50.5z
				 M347.5,50.2c-0.3,0-0.5-0.2-0.5-0.5c0-0.2,0.1-0.4,0.3-0.4c3.6-1.2,7.2-2.3,10.9-3.1c0.3-0.1,0.5,0.1,0.6,0.3s-0.1,0.5-0.3,0.6
				c-3.6,0.9-7.3,1.9-10.8,3.1C347.6,50.2,347.5,50.2,347.5,50.2L347.5,50.2z M417.9,46.4c0,0-0.1,0-0.1,0
				c-3.6-0.8-7.4-1.4-11.1-1.9c-0.3,0-0.4-0.3-0.4-0.5s0.3-0.4,0.5-0.4c3.7,0.5,7.5,1.1,11.1,1.9c0.3,0.1,0.4,0.3,0.4,0.6
				C418.3,46.3,418.1,46.4,417.9,46.4L417.9,46.4z M362,46.3c-0.3,0-0.5-0.2-0.5-0.5c0-0.2,0.2-0.4,0.4-0.5
				c3.7-0.8,7.4-1.4,11.1-1.9c0.3,0,0.5,0.2,0.5,0.4c0,0.3-0.2,0.5-0.4,0.5C369.4,44.9,365.7,45.5,362,46.3
				C362,46.3,362,46.3,362,46.3L362,46.3z M403.1,44.1C403,44.1,403,44.1,403.1,44.1c-3.8-0.4-7.5-0.6-11.3-0.7
				c-0.3,0-0.5-0.2-0.5-0.5c0-0.3,0.2-0.5,0.5-0.5l0,0h0c3.7,0.1,7.5,0.3,11.3,0.7c0.3,0,0.4,0.3,0.4,0.5
				C403.5,43.9,403.3,44.1,403.1,44.1L403.1,44.1z M376.8,44c-0.3,0-0.5-0.2-0.5-0.5c0-0.2,0.2-0.4,0.4-0.5
				c3.7-0.4,7.5-0.6,11.3-0.6h0c0.3,0,0.5,0.2,0.5,0.5c0,0.3-0.2,0.5-0.5,0.5C384.3,43.4,380.6,43.6,376.8,44
				C376.8,44,376.8,44,376.8,44L376.8,44z"/>
			<path class="st8" d="M59.9,226.7c0,0,1.8,4.3,3.5,8.2c0.7,1.6,2.3,2.7,4.1,2.7h164.1c2.1,0,3.8-1.4,4.4-3.4
				c0.9-3.5,1.4-5.4,1.9-7.4"/>
			<path class="st2" d="M231.6,238.2H67.5c-2,0-3.9-1.2-4.7-3.1c-1.7-3.9-3.5-8.2-3.5-8.2c-0.1-0.3,0-0.7,0.3-0.8
				c0.3-0.1,0.7,0,0.8,0.3l0,0c0,0,1.8,4.3,3.5,8.2c0.6,1.4,2,2.3,3.5,2.3h164.1c1.8,0,3.3-1.2,3.7-2.9c0.5-2,0.9-3.4,1.2-4.7
				c0.3-1,0.5-1.9,0.7-2.7c0.1-0.3,0.4-0.5,0.8-0.5c0.3,0.1,0.5,0.4,0.5,0.8c-0.2,0.9-0.4,1.8-0.7,2.8c-0.3,1.2-0.7,2.7-1.2,4.7
				C236,236.6,234,238.2,231.6,238.2z"/>
			<path class="st1" d="M62,49.2h173.9c1.6,0,2.8,1.3,2.8,2.8v173.9c0,1.6-1.3,2.8-2.8,2.8H62c-1.6,0-2.8-1.3-2.8-2.8V52
				C59.2,50.4,60.4,49.2,62,49.2z"/>
			<path class="st2" d="M235.9,229.3H62c-1.9,0-3.5-1.6-3.5-3.5V52c0-1.9,1.6-3.5,3.5-3.5h173.9c1.9,0,3.5,1.6,3.5,3.5v173.9
				C239.3,227.8,237.8,229.3,235.9,229.3z M62,49.8c-1.2,0-2.2,1-2.2,2.2v173.9c0,1.2,1,2.2,2.2,2.2h173.9c1.2,0,2.2-1,2.2-2.2V52
				c0-1.2-1-2.2-2.2-2.2H62z"/>
			<path class="st3" d="M222.9,224.9L222.9,224.9l-53.9-0.1c-0.3,0-0.6-0.3-0.6-0.6c0,0,0,0,0,0l0.3-35.8c0-0.3,0.3-0.6,0.6-0.6
				h53.5c0.3,0,0.6,0.3,0.6,0.6v35.9C223.5,224.6,223.2,224.9,222.9,224.9C222.9,224.9,222.9,224.9,222.9,224.9z M169.6,223.7
				l52.7,0.1V189h-52.4L169.6,223.7z"/>
			<path class="st6" d="M182.7,171.5h1.7v11.4h5.5v1.4h-7.1L182.7,171.5z"/>
			<path class="st6" d="M191.7,171.7c1-0.2,2.1-0.3,3.2-0.2c1.3-0.1,2.6,0.3,3.6,1.1c0.8,0.7,1.2,1.7,1.1,2.7c0,1-0.3,2-1,2.7
				c-1.1,1-2.5,1.5-3.9,1.4c-0.4,0-0.9,0-1.3-0.1v5.1h-1.7L191.7,171.7z M193.3,177.8c0.4,0.1,0.9,0.1,1.4,0.1c2,0,3.2-1,3.2-2.7
				c0-1.7-1.2-2.5-3-2.5c-0.5,0-1,0-1.6,0.1L193.3,177.8z"/>
			<path class="st6" d="M201.8,171.7c1-0.2,2-0.3,3-0.3c1.2-0.1,2.5,0.2,3.5,0.9c0.7,0.5,1.1,1.4,1.1,2.3c0,1.3-0.9,2.4-2.2,2.8v0
				c1.5,0.3,2.6,1.7,2.6,3.2c0,1-0.4,1.9-1.1,2.6c-0.9,0.8-2.3,1.2-4.4,1.2c-0.9,0-1.7,0-2.6-0.2L201.8,171.7z M203.4,176.9h1.5
				c1.7,0,2.8-0.9,2.8-2.1c0-1.5-1.1-2.1-2.8-2.1c-0.5,0-1,0-1.5,0.1V176.9z M203.4,183.1c0.5,0.1,0.9,0.1,1.4,0.1
				c1.7,0,3.3-0.6,3.3-2.5c0-1.7-1.5-2.5-3.3-2.5h-1.4V183.1z"/>
			<g>
				<path class="st6" d="M209,215.9c-0.1-1.5-0.2-3.3-0.2-4.6h0c-0.4,1.3-0.8,2.6-1.3,4.1l-1.9,5.2h-1l-1.7-5.1
					c-0.5-1.5-0.9-2.9-1.2-4.1h0c0,1.3-0.1,3.1-0.2,4.7l-0.3,4.6h-1.3l0.7-10.7h1.8l1.8,5.2c0.4,1.3,0.8,2.5,1.1,3.6h0
					c0.3-1.1,0.6-2.2,1.1-3.6l1.9-5.2h1.8l0.7,10.7h-1.3L209,215.9z"/>
				<path class="st6" d="M212.8,210c0.8-0.2,1.7-0.2,2.5-0.2c1-0.1,2.1,0.2,2.9,0.8c0.6,0.4,0.9,1.1,0.9,1.9c0,1.1-0.8,2-1.8,2.3v0
					c1.3,0.3,2.2,1.4,2.2,2.7c0,0.8-0.3,1.6-0.9,2.1c-1.1,0.8-2.4,1.1-3.7,1c-0.7,0-1.4,0-2.1-0.1L212.8,210z M214.2,214.4h1.3
					c1.5,0,2.3-0.8,2.3-1.8c0-1.3-0.9-1.7-2.3-1.7c-0.4,0-0.8,0-1.2,0.1V214.4z M214.2,219.5c0.4,0.1,0.8,0.1,1.2,0.1
					c1.4,0,2.7-0.5,2.7-2.1c0-1.5-1.3-2.1-2.8-2.1h-1.1L214.2,219.5z"/>
			</g>
			<g>
				<path class="st6" d="M174.1,210c1-0.1,1.9-0.2,2.9-0.2c1.6-0.1,3.1,0.4,4.3,1.3c1,1,1.6,2.4,1.5,3.8c0.1,1.5-0.5,3-1.5,4.1
					c-1.3,1.1-3,1.7-4.7,1.5c-0.8,0-1.7,0-2.5-0.1L174.1,210z M175.4,219.5c0.5,0.1,0.9,0.1,1.4,0.1c2.9,0,4.5-1.6,4.5-4.5
					c0-2.5-1.4-4.1-4.3-4.1c-0.5,0-1.1,0-1.6,0.1V219.5z"/>
				<path class="st6" d="M184.6,210c0.8-0.2,1.7-0.2,2.5-0.2c1-0.1,2.1,0.2,2.9,0.8c0.6,0.4,0.9,1.1,0.9,1.9c0,1.1-0.8,2-1.8,2.3v0
					c1.3,0.3,2.2,1.4,2.2,2.7c0,0.8-0.3,1.6-0.9,2.1c-1.1,0.8-2.4,1.1-3.7,1c-0.7,0-1.4,0-2.1-0.1L184.6,210z M186,214.4h1.3
					c1.5,0,2.3-0.8,2.3-1.8c0-1.3-0.9-1.7-2.3-1.7c-0.4,0-0.8,0-1.2,0.1L186,214.4z M186,219.5c0.4,0.1,0.8,0.1,1.2,0.1
					c1.4,0,2.7-0.5,2.7-2.1c0-1.5-1.3-2.1-2.8-2.1H186L186,219.5z"/>
			</g>
			<path class="st3" d="M195.9,224.8c-0.3,0-0.5-0.2-0.5-0.5v-17.9c0-0.3,0.2-0.5,0.5-0.5s0.5,0.2,0.5,0.5v17.9
				C196.4,224.6,196.2,224.8,195.9,224.8z"/>
			<g id="Exp">
				<path class="st9" d="M308.7,360.5l-3.2,0c0.8-15.1,1.1-31.2-4.5-45.9c-6.2-16.3-15.2-24.5-26.7-24.5c-9.5,0-19.9,5.7-26.5,11
					c-5.5,4.5-16.9,12-30.8,12c-11.1,0-22-6.2-27-12.3c-7.7-9.4-8.2-23.5-8.6-34.8l-0.1-1.8c-0.5-12.5-0.9-25.3-0.3-39h3.2
					c-0.6,13.7-0.1,25.9,0.3,38.9l0.1,1.8c0.4,10.9,0.8,24.4,7.9,32.9c4.6,5.5,14.5,11.1,24.6,11.1c12.9,0,23.6-7.1,28.8-11.3
					c9.1-7.4,19.7-11.7,28.5-11.7c13,0,23,8.9,29.7,26.6C309.8,328.7,309.5,345,308.7,360.5z"/>
				<path class="st0" d="M326.8,360.5l-3.2,0c1-20.3-1-35.9-6.1-47.8c-2.9-6.8-14.3-29-38.8-29c-9-0.2-17.8,2.3-25.4,7.1
					c-1.1,0.7-2.1,1.4-3.2,2.1c-6.4,4.2-13,8.6-23,8.6c-8.9,0-19.6-6.5-19.6-37.2c0-4.1,0-8.2-0.1-12.1c-0.1-9.1-0.2-17.5,0.2-26.8
					l3.2,0c-0.4,9.2-0.3,17.7-0.2,26.8c0,4,0.1,8,0.1,12.2c0,15.5,2.9,34.1,16.4,34.1c9,0,14.9-3.9,21.2-8.1
					c1.1-0.7,2.1-1.4,3.2-2.1c8.1-5.1,17.5-7.8,27.1-7.6c26.3,0,38.6,23.6,41.7,30.9C325.7,323.7,327.8,339.7,326.8,360.5z"/>
			</g>
		</g>
	</g>
</g>
</svg>
