<svg xmlns="http://www.w3.org/2000/svg" xmlns:xlink="http://www.w3.org/1999/xlink" width="180.2694mm" height="141.7157mm" viewBox="0 0 511 401.7139"><defs><style>.cls-1{fill:none;}.cls-2{fill:#808285;}.cls-3{fill:#fff;}.cls-4{fill:#ef4136;}.cls-5{fill:#3d723a;}.cls-6{fill:#27aae1;}.cls-7{fill:#00aeef;}</style></defs><title>3. Materiel fourni</title><g id="Слой_2" data-name="Слой 2"><g id="_3._Materiel_fourni" data-name="3. Materiel fourni"><g id="Expanded"><rect class="cls-1" x="0.4998" y="0.4998" width="510" height="400.7143" rx="6.0714" ry="6.0714"/><path class="cls-1" d="M504.4287,401.7139H6.5713A6.5792,6.5792,0,0,1,0,395.1426V6.5713A6.5792,6.5792,0,0,1,6.5713,0H504.4287A6.5792,6.5792,0,0,1,511,6.5713V395.1426A6.5792,6.5792,0,0,1,504.4287,401.7139ZM6.5713,1A5.5773,5.5773,0,0,0,1,6.5713V395.1426a5.5773,5.5773,0,0,0,5.5713,5.5713H504.4287A5.5773,5.5773,0,0,0,510,395.1426V6.5713A5.5773,5.5773,0,0,0,504.4287,1Z"/><path class="cls-2" d="M248.3369,350.81a.4984.4984,0,0,1-.25-.0674l-62.9951-36.37a.4994.4994,0,0,1,0-.8653l78.7441-45.4629a.4977.4977,0,0,1,.5,0l62.9952,36.37a.4993.4993,0,0,1,0,.8652l-78.7442,45.4629A.4979.4979,0,0,1,248.3369,350.81Zm-61.9951-36.87,61.9951,35.7929,77.7442-44.8857-61.9952-35.793Z"/><path class="cls-2" d="M248.3369,387.18a.501.501,0,0,1-.5-.5V350.31a.5.5,0,0,1,.9014-.2979l18.9053,25.4307.0253.0332,4.4874,6.0361,77.4326-45.2138-22.91-31.1553a.4994.4994,0,1,1,.8047-.5918l23.24,31.6025a.5.5,0,0,1-.15.7276l-78.3,45.72a.5.5,0,0,1-.6533-.1338l-4.5-6.0527-18.5332,10.6982A.4979.4979,0,0,1,248.3369,387.18Zm.5-35.3594v33.9932l17.6826-10.208Z"/><path class="cls-2" d="M216.8389,332.499a.3751.3751,0,0,1-.1875-.7L263.7109,304.63V268.4766a.375.375,0,0,1,.75,0v36.37a.3761.3761,0,0,1-.1875.3252l-47.247,27.2773A.3827.3827,0,0,1,216.8389,332.499Z"/><path class="cls-2" d="M248.3369,387.18a.4961.4961,0,0,1-.25-.0674l-62.9951-36.37a.5.5,0,0,1-.25-.4326V314.5361l-23.5088,4.169a.5.5,0,0,1-.335-.9268l79.2168-45.19a.5075.5075,0,0,1,.1534-.0566l23.623-4.5459a.5.5,0,0,1,.19.9824l-23.542,4.53L164.002,317.2158l21.2529-3.7685a.51.51,0,0,1,.4082.1093.5.5,0,0,1,.1787.3829v36.081l62.7451,36.2266a.5.5,0,0,1-.25.9326Z"/><path class="cls-2" d="M295.583,323.4072a.38.38,0,0,1-.1875-.05l-31.4971-18.1855a.3754.3754,0,0,1-.1377-.5127.3793.3793,0,0,1,.5127-.1377l31.4971,18.1855a.3751.3751,0,0,1-.1875.7Z"/><path class="cls-3" d="M490.2583,302.8848H285.9517a18.2144,18.2144,0,0,0-13.3908,5.8673l-19.0883,20.702-18.6509-20.5848a18.2143,18.2143,0,0,0-13.4979-5.9845H16.6869a6.0714,6.0714,0,0,1-6.0715-6.0714V17.5277a6.0714,6.0714,0,0,1,6.0715-6.0714H490.2583a6.0713,6.0713,0,0,1,6.0714,6.0714V296.8134A6.0713,6.0713,0,0,1,490.2583,302.8848Z"/><path class="cls-2" d="M253.4727,329.9541a.4752.4752,0,0,1-.37-.1641l-18.6513-20.5849a17.745,17.745,0,0,0-13.127-5.82H16.6865a6.5793,6.5793,0,0,1-6.5713-6.5713V17.5273a6.5792,6.5792,0,0,1,6.5713-6.5712H490.2588a6.5792,6.5792,0,0,1,6.5713,6.5712V296.8135a6.5793,6.5793,0,0,1-6.5713,6.5713H285.9512a17.77,17.77,0,0,0-13.0235,5.706L253.84,329.793A.5.5,0,0,1,253.4727,329.9541ZM16.6865,11.9561a5.5773,5.5773,0,0,0-5.5713,5.5712V296.8135a5.5774,5.5774,0,0,0,5.5713,5.5713H221.3242a18.7453,18.7453,0,0,1,13.8672,6.1484l18.2842,20.18,18.7178-20.3a18.7674,18.7674,0,0,1,13.7578-6.0283H490.2588a5.5773,5.5773,0,0,0,5.5713-5.5713V17.5273a5.5772,5.5772,0,0,0-5.5713-5.5712Z"/><g id="La_Box_3_4" data-name="La Box 3/4"><path class="cls-2" d="M171.0566,190.085a.4984.4984,0,0,1-.25-.0674L57.7676,124.7549a.4994.4994,0,0,1,0-.8653L222.3438,28.8711a2.9463,2.9463,0,0,1,2.9287-.001L337.0967,93.4336a.4993.4993,0,0,1,0,.8652l-165.79,95.7188A.4979.4979,0,0,1,171.0566,190.085ZM59.0176,124.3223l112.039,64.6855,164.79-95.1416-111.0742-64.13a1.942,1.942,0,0,0-1.9287,0Z"/><path class="cls-2" d="M175,196.51a.4986.4986,0,0,1-.4258-.2383l-3.9433-6.4248a.5.5,0,0,1,.1757-.6944l165.79-95.7187a.497.497,0,0,1,.667.1572l4.16,6.2988a.4994.4994,0,0,1-.167.7081L175.25,196.4424A.4958.4958,0,0,1,175,196.51Zm-3.249-6.7491,3.4209,5.5723,165.125-95.3359-3.6084-5.4629Z"/><path class="cls-2" d="M193.6641,272.751a.4905.4905,0,0,1-.25-.0674L133.127,237.877a.5.5,0,0,1-.25-.4327v-8.413l-51.751-29.879v7.836a.5.5,0,0,1-.75.4326L31.3467,179.1143a.4995.4995,0,0,1,.0869-.9053l18.5488-6.3838V128.6729a.5.5,0,0,1,.25-.4327l7.5352-4.3506a.4977.4977,0,0,1,.5,0l113.039,65.2627a.4914.4914,0,0,1,.1758.1709l3.9434,6.4248a.4965.4965,0,0,1,.0742.2618v47.9121l18.5811,28.0527a.5.5,0,0,1-.417.7764ZM133.877,237.1553l58.1972,33.6006L174.583,244.3486a.5041.5041,0,0,1-.083-.2763V196.1514l-3.8027-6.1963-112.68-65.0557-7.0352,4.0625v43.22a.5.5,0,0,1-.3369.4727l-17.8486,6.1426L80.126,206.1221v-7.836a.5.5,0,0,1,.75-.4326L133.627,228.31a.5.5,0,0,1,.25.4326Z"/><path class="cls-2" d="M193.6641,272.751a.5.5,0,0,1-.417-.2237L174.583,244.3486a.5009.5009,0,0,1,.167-.709L340.5068,147.8V101.0313L175.25,196.4424l-.5-.8653L340.7568,99.7324a.5.5,0,0,1,.75.4326V147.94l18.3672,28.32a.5.5,0,0,1-.17.705l-165.79,95.7188A.4937.4937,0,0,1,193.6641,272.751ZM175.71,244.2393l18.1113,27.3437L358.748,176.3623l-17.9023-27.6035Z"/><rect class="cls-2" x="30.1489" y="172.9654" width="21.7814" height="0.5809" transform="translate(-80.7685 43.392) rotate(-29.8405)"/><path class="cls-2" d="M229.04,57.9268l-.2285-.5332c1.6192-.6954,2.5489-1.6739,2.5489-2.6856h.58C231.94,55.9629,230.8838,57.1357,229.04,57.9268Z"/><path class="cls-2" d="M223.8076,58.8994a13.6,13.6,0,0,1-5.2334-.9726l.2285-.5332a13.9872,13.9872,0,0,0,10.0078,0l.2305.5332A13.5786,13.5786,0,0,1,223.8076,58.8994Z"/><path class="cls-2" d="M218.5732,57.9268c-1.8418-.792-2.8974-1.9649-2.8974-3.2188h.58c0,1.0108.9287,1.9893,2.5468,2.6856Z"/><path class="cls-2" d="M223.8076,49.2246c-3.4629,0-6.1758-1.4131-6.1758-3.2178s2.7129-3.2187,6.1758-3.2187,6.1758,1.4131,6.1758,3.2187S227.2705,49.2246,223.8076,49.2246Zm0-5.8564c-3.0332,0-5.5957,1.2089-5.5957,2.6386s2.5625,2.6377,5.5957,2.6377,5.5957-1.208,5.5957-2.6377S226.8408,43.3682,223.8076,43.3682Z"/><polygon class="cls-2" points="218.979 57.663 218.398 57.663 218.979 57.66 218.979 57.663"/><path class="cls-2" d="M216.2559,54.708h-.58c0-2.8076,1.0195-8.8213,2.4726-10.001l.3662.4512C217.3506,46.1035,216.2559,51.8057,216.2559,54.708Z"/><polygon class="cls-2" points="229.216 57.662 228.636 57.662 229.216 57.66 229.216 57.662"/><path class="cls-2" d="M231.94,54.708h-.58c0-3.4238-.9366-8.19-2.19-9.4434l.41-.41C231.1211,46.3936,231.94,51.5664,231.94,54.708Z"/><path class="cls-4" d="M223.8078,46.2978c.3235,0,.5858-.13.5858-.2914s-.2623-.2914-.5858-.2914-.5858.13-.5858.2914S223.4842,46.2978,223.8078,46.2978Z"/><path class="cls-2" d="M223.8076,46.5879c-.5078,0-.876-.2441-.876-.5811s.3682-.582.876-.582.876.2441.876.582S224.3154,46.5879,223.8076,46.5879Zm-.043-.5811h.086A.65.65,0,0,0,223.7646,46.0068Z"/><path class="cls-2" d="M198.8965,75.7793l-.2285-.5332c1.6191-.6953,2.5478-1.6738,2.5478-2.6856h.58C201.7959,73.8154,200.7393,74.9883,198.8965,75.7793Z"/><path class="cls-2" d="M193.6641,76.7529a13.6069,13.6069,0,0,1-5.2334-.9736l.2285-.5332a13.9717,13.9717,0,0,0,10.0078,0l.2305.5332A13.593,13.593,0,0,1,193.6641,76.7529Z"/><path class="cls-2" d="M188.4307,75.7793c-1.8428-.792-2.8994-1.9648-2.8994-3.2188h.58c0,1.0108.9287,1.9893,2.5479,2.6856Z"/><path class="cls-2" d="M193.6641,67.0771c-3.4629,0-6.1758-1.413-6.1758-3.2177s2.7129-3.2188,6.1758-3.2188,6.1757,1.4131,6.1757,3.2188S197.127,67.0771,193.6641,67.0771Zm0-5.8564c-3.0332,0-5.5957,1.209-5.5957,2.6387s2.5625,2.6377,5.5957,2.6377,5.5957-1.208,5.5957-2.6377S196.6973,61.2207,193.6641,61.2207Z"/><polygon class="cls-2" points="188.835 75.517 188.255 75.517 188.835 75.513 188.835 75.517"/><path class="cls-2" d="M186.1113,72.5605h-.58c0-2.8066,1.02-8.82,2.4726-10.0009l.3672.4511C187.2061,63.957,186.1113,69.6582,186.1113,72.5605Z"/><polygon class="cls-2" points="199.072 75.516 198.492 75.516 199.072 75.513 199.072 75.516"/><path class="cls-2" d="M201.7959,72.5605h-.58c0-3.4248-.9365-8.19-2.1885-9.4433l.41-.41C200.9766,64.2451,201.7959,69.418,201.7959,72.5605Z"/><path class="cls-4" d="M193.664,64.15c.3235,0,.5857-.13.5857-.2914s-.2622-.2915-.5857-.2915-.5858.13-.5858.2915S193.34,64.15,193.664,64.15Z"/><path class="cls-2" d="M193.6641,64.44c-.5078,0-.876-.2441-.876-.581s.3682-.5821.876-.5821.8759.2442.8759.5821S194.1719,64.44,193.6641,64.44Zm-.043-.581h.0859A.6157.6157,0,0,0,193.6211,63.8594Z"/><image width="1754" height="1240" transform="matrix(0.0506, -0.0289, 0.0565, 0.033, 128.5384, 118.5166)" xlink:href="../Materials/wattsense-logo-print-page-001.jpg"/><path class="cls-2" d="M267.0967,187.375a1.64,1.64,0,0,1-1.6328-1.6348V174.7061a1.6359,1.6359,0,0,1,.8164-1.4131l17.1621-9.9092a1.6323,1.6323,0,0,1,2.4482,1.4131v11.0342a1.6359,1.6359,0,0,1-.8164,1.413l-17.1621,9.9092A1.63,1.63,0,0,1,267.0967,187.375Zm17.1611-23.6025a1.0176,1.0176,0,0,0-.5107.1386L266.585,173.82a1.0265,1.0265,0,0,0-.5118.8858V185.74a1.023,1.023,0,0,0,1.5342.8858l17.1621-9.9092a1.0264,1.0264,0,0,0,.5118-.8857V164.7969a1.0142,1.0142,0,0,0-.5118-.8858A1.0277,1.0277,0,0,0,284.2578,163.7725Z"/><path class="cls-2" d="M281.0674,174.6a.6048.6048,0,0,1-.3037-.082l-3.3819-1.9531a.609.609,0,0,1,.6094-1.0547l3.3818,1.9531a.6093.6093,0,0,1-.3056,1.1367Z"/><path class="cls-2" d="M273.291,179.2305a.6042.6042,0,0,1-.3037-.0821l-3.5049-2.0234a.609.609,0,0,1,.6094-1.0547l3.5049,2.0235a.6093.6093,0,0,1-.3057,1.1367Z"/><path class="cls-2" d="M267.3174,185.6465a.2863.2863,0,0,1-.07-.0088.3039.3039,0,0,1-.2344-.2959V175.1592a.3037.3037,0,0,1,.1475-.2608l16.6533-10.0312a.3052.3052,0,0,1,.4619.2607v10.1836a.3042.3042,0,0,1-.5264.208l-.3076-.3271a14.5628,14.5628,0,0,1-2.8857,2.5312,9.9986,9.9986,0,0,1-4.5381,1.2442,16.0336,16.0336,0,0,1-4.0459,3.9258,11.8931,11.8931,0,0,1-3.7471,1.332l-.6357,1.2539A.3043.3043,0,0,1,267.3174,185.6465Zm.3047-10.3154v8.7363l.1308-.2578a.3045.3045,0,0,1,.2334-.1641,11.2909,11.2909,0,0,0,3.6846-1.2812,16.2219,16.2219,0,0,0,3.9414-3.8741.3036.3036,0,0,1,.2432-.1269,9.7612,9.7612,0,0,0,4.372-1.1533,14.4076,14.4076,0,0,0,2.9668-2.6651.3068.3068,0,0,1,.2256-.1133.3174.3174,0,0,1,.2324.0967l.0137.0137v-8.875Z"/><path class="cls-2" d="M292.9482,172.4492a1.6374,1.6374,0,0,1-1.6318-1.6347V159.7813a1.6346,1.6346,0,0,1,.8154-1.4131l17.1631-9.91a1.6324,1.6324,0,0,1,2.4483,1.4141v11.0332a1.6361,1.6361,0,0,1-.8164,1.4131l-17.1622,9.9091A1.6312,1.6312,0,0,1,292.9482,172.4492ZM310.11,148.8467a1.0171,1.0171,0,0,0-.5108.1387l-17.1631,9.91a1.0232,1.0232,0,0,0-.5107.8858v11.0332a1.0221,1.0221,0,0,0,1.5342.8857l17.1621-9.9092a1.0265,1.0265,0,0,0,.5117-.8857V149.8721a1.0143,1.0143,0,0,0-.5117-.8867A1.0284,1.0284,0,0,0,310.11,148.8467Z"/><path class="cls-2" d="M306.92,159.6738a.604.604,0,0,1-.3037-.082l-3.3818-1.9522a.609.609,0,1,1,.6094-1.0546l3.3818,1.9521a.6093.6093,0,0,1-.3057,1.1367Z"/><path class="cls-2" d="M299.1436,164.3057a.6043.6043,0,0,1-.3038-.0821L295.335,162.2a.609.609,0,1,1,.6093-1.0547l3.5049,2.0234a.6093.6093,0,0,1-.3056,1.1368Z"/><path class="cls-2" d="M293.17,170.7217a.2869.2869,0,0,1-.07-.0088.3039.3039,0,0,1-.2344-.2959V160.2344a.3037.3037,0,0,1,.1475-.2608l16.6533-10.0312a.3072.3072,0,0,1,.3067-.0039.3042.3042,0,0,1,.1552.2646v10.1826a.3047.3047,0,0,1-.5263.209l-.3077-.3271a14.5953,14.5953,0,0,1-2.8857,2.5312,10.0059,10.0059,0,0,1-4.5381,1.2432,16.0511,16.0511,0,0,1-4.0459,3.9268,11.9192,11.9192,0,0,1-3.7471,1.332l-.6357,1.2539A.3042.3042,0,0,1,293.17,170.7217Zm.3047-10.3154v8.7363l.1309-.2578a.3045.3045,0,0,1,.2334-.1641,11.316,11.316,0,0,0,3.6845-1.2812,16.2175,16.2175,0,0,0,3.9414-3.875.3034.3034,0,0,1,.2432-.127,9.769,9.769,0,0,0,4.3721-1.1523,14.4107,14.4107,0,0,0,2.9668-2.6651.3047.3047,0,0,1,.2246-.1133.2933.2933,0,0,1,.2334.0957l.0137.0147v-8.875Z"/><path class="cls-2" d="M318.7881,157.5156a1.6374,1.6374,0,0,1-1.6328-1.6347V144.8477a1.6371,1.6371,0,0,1,.8164-1.4131l17.1621-9.9092a1.6314,1.6314,0,0,1,2.4482,1.4131v11.0332a1.6387,1.6387,0,0,1-.8154,1.414l-17.1621,9.9092A1.63,1.63,0,0,1,318.7881,157.5156ZM335.95,133.9141a1.0185,1.0185,0,0,0-.5117.1386l-17.1621,9.9092a1.0277,1.0277,0,0,0-.5118.8858v11.0332a1.0235,1.0235,0,0,0,1.5352.8867l17.1621-9.9092a1.0273,1.0273,0,0,0,.5108-.8867V134.9385a1.0249,1.0249,0,0,0-1.0225-1.0244Z"/><path class="cls-2" d="M332.76,144.7412a.6048.6048,0,0,1-.3037-.082l-3.3829-1.9531a.609.609,0,0,1,.6094-1.0547l3.3828,1.9531a.6093.6093,0,0,1-.3056,1.1367Z"/><path class="cls-2" d="M324.9834,149.3721a.6042.6042,0,0,1-.3037-.0821l-3.5049-2.0234a.609.609,0,1,1,.6094-1.0547l3.5049,2.0235a.6093.6093,0,0,1-.3057,1.1367Z"/><path class="cls-2" d="M319.0088,155.7881a.2869.2869,0,0,1-.07-.0088.3039.3039,0,0,1-.2344-.2959V145.3008a.3037.3037,0,0,1,.1475-.2608l16.6533-10.0312a.3052.3052,0,0,1,.4619.2607v10.1836a.3047.3047,0,0,1-.5273.208l-.3057-.3261a14.64,14.64,0,0,1-2.8867,2.53,9.9986,9.9986,0,0,1-4.5381,1.2442,16.0336,16.0336,0,0,1-4.0459,3.9258,11.8508,11.8508,0,0,1-3.7471,1.332l-.6357,1.2539A.3043.3043,0,0,1,319.0088,155.7881Zm.3047-10.3154v8.7363l.1308-.2578a.3062.3062,0,0,1,.2334-.1641,11.2832,11.2832,0,0,0,3.6846-1.2812,16.22,16.22,0,0,0,3.9414-3.8741.3036.3036,0,0,1,.2432-.1269,9.7612,9.7612,0,0,0,4.372-1.1533,14.4274,14.4274,0,0,0,2.9678-2.6651.3086.3086,0,0,1,.2256-.1133.2707.2707,0,0,1,.2334.0967l.0117.0127v-8.874Z"/><path class="cls-2" d="M219.87,214.4609a1.5808,1.5808,0,0,1-1.5762-1.5791v-23.375a2.8543,2.8543,0,0,1,1.4346-2.4746c2.8125-1.6025,10.6113-6.1816,18.8682-11.0293,8.709-5.1133,17.7138-10.4,21.3291-12.4648a1.57,1.57,0,0,1,2.3476,1.3691v23.1241c0,1.3935-.2158,2.0351-.7968,2.3662L220.6553,214.25A1.58,1.58,0,0,1,219.87,214.4609Zm40.834-50.5214a.95.95,0,0,0-.4756.1279c-3.6123,2.0625-12.6162,7.3486-21.3232,12.4609-8.2588,4.8487-16.06,9.4287-18.875,11.0332a2.2432,2.2432,0,0,0-1.127,1.9453v23.375a.9675.9675,0,0,0,1.4473.8409L261.1729,189.87c.25-.1426.4912-.4.4912-1.8388V164.9072a.9635.9635,0,0,0-.96-.9677Z"/><path class="cls-2" d="M220.8359,197.8174a.3027.3027,0,0,1-.1523-.041.3063.3063,0,0,1-.1523-.2637V189.542a.3027.3027,0,0,1,.1533-.2637c.7734-.4443,15.7978-9.122,15.7978-9.122a.3048.3048,0,0,1,.4571.2636v7.9717a.3064.3064,0,0,1-.1524.2637l-15.7988,9.1211A.3028.3028,0,0,1,220.8359,197.8174Zm.3047-8.1v7.2676l15.1895-8.77v-7.2685C233.918,182.3408,222.7139,188.8115,221.1406,189.7178Z"/><path class="cls-2" d="M235.2117,185.0055c-1.8084,1.0447-12.0318,6.9506-13.1371,7.5852a.1746.1746,0,0,0-.0887.1552v2.4933a.1819.1819,0,0,0,.274.1565l13.1332-7.5824a.1829.1829,0,0,0,.0913-.1583v-2.49A.1821.1821,0,0,0,235.2117,185.0055Z"/><path class="cls-2" d="M244.2793,184.5a.3025.3025,0,0,1-.1523-.041.3064.3064,0,0,1-.1524-.2637v-7.9717a.3057.3057,0,0,1,.1533-.2646c.7735-.4434,15.7969-9.12,15.7969-9.12a.3047.3047,0,0,1,.457.2636v7.9717a.3065.3065,0,0,1-.1523.2637l-15.7979,9.1211A.3025.3025,0,0,1,244.2793,184.5Zm.3047-8.1006v7.2686l15.1885-8.77V167.63C257.3613,169.0234,246.1582,175.4932,244.584,176.3994Z"/><path class="cls-2" d="M258.6548,171.6881c-1.8084,1.0447-12.0319,6.9505-13.1372,7.5851a.1747.1747,0,0,0-.0887.1552v2.4933a.182.182,0,0,0,.2741.1565l13.1331-7.5824a.1826.1826,0,0,0,.0914-.1582v-2.49A.182.182,0,0,0,258.6548,171.6881Z"/><path class="cls-2" d="M224.1729,210.2139a1.7961,1.7961,0,0,1-1.79-1.7871h0l-.0234-7.6661a3.2671,3.2671,0,0,1,1.7031-2.8837c6.4639-3.52,28.3135-16.2344,32.6279-18.7471a1.7846,1.7846,0,0,1,2.6875,1.5381v7.4189a3.2746,3.2746,0,0,1-1.6621,2.8447l-32.6543,19.044A1.79,1.79,0,0,1,224.1729,210.2139Zm-1.1807-1.7891a1.1819,1.1819,0,0,0,1.7656,1.0234l32.6543-19.0439a2.67,2.67,0,0,0,1.3565-2.3174V180.668a1.1764,1.1764,0,0,0-1.7715-1.0127c-4.3155,2.5146-26.1719,15.2334-32.6436,18.7568a2.6568,2.6568,0,0,0-1.3847,2.3467Z"/><path class="cls-2" d="M234.6338,202.7129a1.0881,1.0881,0,0,1-.4014-.0733.9913.9913,0,0,1-.582-.6513l-1.0459-3.37c-.417-1.3409.6875-3.4717,2.2725-4.3819l12.7959-7.3564h0a1.6321,1.6321,0,0,1,2.5781,1.9092l-1.0449,4.5634a3.494,3.494,0,0,1-1.5655,2.1163l-12.126,6.9785A1.7944,1.7944,0,0,1,234.6338,202.7129Zm13.3418-15.3057L235.18,194.7637c-1.3174.7578-2.3233,2.6123-1.9932,3.6738l1.0459,3.3711a.3843.3843,0,0,0,.2227.2646.9471.9471,0,0,0,.7549-.1533l12.1259-6.9785a2.89,2.89,0,0,0,1.2764-1.7256l1.0449-4.5635c.1494-.6523.0528-1.1621-.2666-1.3984a1.332,1.332,0,0,0-1.415.1533Z"/><path class="cls-2" d="M228.957,203.3037a.9078.9078,0,0,1-.456-.1162.9685.9685,0,0,1-.4434-.8887,2.876,2.876,0,0,1,1.3955-2.2324,1.2218,1.2218,0,0,1,1.2139-.1113.9687.9687,0,0,1,.4434.8887,2.88,2.88,0,0,1-1.3956,2.2333A1.5435,1.5435,0,0,1,228.957,203.3037Zm1.253-2.9414a1.037,1.037,0,0,0-.4952.1592,2.3764,2.3764,0,0,0-1.1337,1.7773.4974.4974,0,0,0,.1826.4346.7448.7448,0,0,0,.6894-.1113,2.38,2.38,0,0,0,1.1338-1.7783.4974.4974,0,0,0-.1826-.4346A.3837.3837,0,0,0,230.21,200.3623Z"/><path class="cls-2" d="M252.3867,189.8193a.9068.9068,0,0,1-.456-.1162.9684.9684,0,0,1-.4434-.8886,2.88,2.88,0,0,1,1.3955-2.2334,1.2239,1.2239,0,0,1,1.2139-.11.967.967,0,0,1,.4433.8877,2.8773,2.8773,0,0,1-1.3955,2.2334A1.5483,1.5483,0,0,1,252.3867,189.8193Zm1.252-2.9414a1.034,1.034,0,0,0-.4942.1582,2.38,2.38,0,0,0-1.1338,1.7784.4974.4974,0,0,0,.1827.4345.7393.7393,0,0,0,.6894-.1123,2.3763,2.3763,0,0,0,1.1338-1.7783.4947.4947,0,0,0-.1826-.4336A.386.386,0,0,0,253.6387,186.8779Z"/><ellipse class="cls-2" cx="235.4451" cy="196.6529" rx="0.9803" ry="0.5571" transform="translate(-62.6762 268.9748) rotate(-53.506)"/><ellipse class="cls-2" cx="238.4745" cy="194.9094" rx="0.9803" ry="0.5571" transform="translate(-60.0469 270.7035) rotate(-53.506)"/><ellipse class="cls-2" cx="241.5039" cy="193.1659" rx="0.9803" ry="0.5571" transform="translate(-57.4176 272.4323) rotate(-53.506)"/><ellipse class="cls-2" cx="244.5332" cy="191.4224" rx="0.9803" ry="0.5571" transform="translate(-54.7883 274.1611) rotate(-53.506)"/><ellipse class="cls-2" cx="247.5626" cy="189.6789" rx="0.9803" ry="0.5571" transform="translate(-52.159 275.8899) rotate(-53.506)"/><ellipse class="cls-2" cx="236.8808" cy="199.0816" rx="0.9803" ry="0.5571" transform="translate(-64.0468 271.1132) rotate(-53.506)"/><ellipse class="cls-2" cx="239.9102" cy="197.3381" rx="0.9803" ry="0.5571" transform="translate(-61.4175 272.842) rotate(-53.506)"/><ellipse class="cls-2" cx="242.9396" cy="195.5946" rx="0.9803" ry="0.5571" transform="translate(-58.7882 274.5707) rotate(-53.506)"/><ellipse class="cls-2" cx="245.9689" cy="193.8511" rx="0.9803" ry="0.5571" transform="translate(-56.1589 276.2995) rotate(-53.506)"/><path class="cls-2" d="M180.9541,225.3887a.2523.2523,0,0,1-.123-.0332.2465.2465,0,0,1-.1221-.2119V211.3613a.243.243,0,0,1,.123-.2119l14.9366-8.5723a.2446.2446,0,0,1,.3671.212v13.7822a.2428.2428,0,0,1-.123.2119l-14.9365,8.5723A.24.24,0,0,1,180.9541,225.3887Zm.2451-13.8858v13.2178l14.4463-8.291V203.2119Z"/><path class="cls-2" d="M186.5869,221.2178a.2525.2525,0,0,1-.123-.0332.2465.2465,0,0,1-.1221-.2119v-.6153l-.94.54a.2447.2447,0,0,1-.3672-.212v-1.3076l-2.2481,1.29a.2447.2447,0,0,1-.3672-.2119v-7.7276a.2429.2429,0,0,1,.1231-.2119l11.5166-6.6094a.2447.2447,0,0,1,.3672.2119v7.7266a.2429.2429,0,0,1-.1231.2119l-2.4922,1.4307v1.5888a.243.243,0,0,1-.123.212l-1.1846.68v.8964a.2427.2427,0,0,1-.123.2119l-3.6709,2.1075A.24.24,0,0,1,186.5869,221.2178Zm0-1.5283a.2529.2529,0,0,1,.1231.0332.2463.2463,0,0,1,.122.2119v.6152l3.1807-1.8262v-.8965a.2432.2432,0,0,1,.123-.2119l1.1846-.68v-1.5888a.2428.2428,0,0,1,.1231-.2119l2.4921-1.4307V206.542L182.9092,212.87v7.1631l2.248-1.29a.2447.2447,0,0,1,.3672.2119v1.3076l.94-.54A.239.239,0,0,1,186.5869,219.69Zm3.6709-.8243h0Z"/><path class="cls-2" d="M198.3291,215.416a.2523.2523,0,0,1-.123-.0332.2464.2464,0,0,1-.1221-.2119V201.3887a.2429.2429,0,0,1,.123-.2119l14.9366-8.5723a.2446.2446,0,0,1,.3671.2119v13.7822a.2427.2427,0,0,1-.123.2119l-14.9365,8.5723A.239.239,0,0,1,198.3291,215.416Zm.2451-13.8857V214.748l14.4463-8.291V193.2393Z"/><path class="cls-2" d="M203.9619,211.2451a.2525.2525,0,0,1-.123-.0332.2464.2464,0,0,1-.1221-.2119v-.6152l-.94.54a.2447.2447,0,0,1-.3672-.2119v-1.3076l-2.2481,1.29a.2447.2447,0,0,1-.3672-.2119v-7.7275a.2431.2431,0,0,1,.1231-.212l11.5166-6.6093a.2447.2447,0,0,1,.3672.2119v7.7265a.2431.2431,0,0,1-.1231.212l-2.4922,1.4306v1.5889a.2428.2428,0,0,1-.123.2119l-1.1846.68v.8965a.2428.2428,0,0,1-.123.2119l-3.6709,2.1074A.239.239,0,0,1,203.9619,211.2451Zm0-1.5283a.2529.2529,0,0,1,.1231.0332.2463.2463,0,0,1,.122.2119v.6152l3.1807-1.8261v-.8965a.2429.2429,0,0,1,.123-.2119l1.1846-.68V205.374a.2429.2429,0,0,1,.1231-.2119l2.4921-1.4307v-7.1621l-11.0263,6.3282v7.163l2.248-1.29a.2447.2447,0,0,1,.3672.2119V210.29l.94-.54A.239.239,0,0,1,203.9619,209.7168Zm3.6709-.8242h0Z"/><path class="cls-2" d="M179.8691,227.7275a.7871.7871,0,0,1-.4013-.1035.834.834,0,0,1-.3907-.7646V211.4277a2.3164,2.3164,0,0,1,1.127-1.7978l33.4668-19.207a1.0338,1.0338,0,0,1,1.0391-.087.8347.8347,0,0,1,.3906.7657v15.4306a2.3131,2.3131,0,0,1-1.127,1.7969l-33.4668,19.208A1.296,1.296,0,0,1,179.8691,227.7275Zm34.4366-36.8857a.6925.6925,0,0,0-.3311.1084l-33.4678,19.208a1.7083,1.7083,0,0,0-.82,1.2695v15.4317c0,.0566.0078.1924.086.2373.0634.0381.2148.0371.4306-.0869l33.4678-19.208v-.001a1.7051,1.7051,0,0,0,.82-1.2686V191.1016c0-.0567-.0078-.1934-.0859-.2383A.204.204,0,0,0,214.3057,190.8418Z"/><g id="Connecteur"><polygon class="cls-3" points="331.482 163.441 319.627 156.596 319.536 133.968 331.549 140.814 331.482 163.441"/><path class="cls-5" d="M331.4824,163.7451a.3027.3027,0,0,1-.1523-.041l-11.8555-6.8447a.3036.3036,0,0,1-.1523-.2627l-.0909-22.6279a.3056.3056,0,0,1,.1514-.2637.3016.3016,0,0,1,.3037-.002l12.0127,6.8467a.3061.3061,0,0,1,.1543.2656l-.0664,22.626a.3051.3051,0,0,1-.3047.3037Zm-11.5517-7.3262,11.249,6.4952.0635-21.9229-11.4-6.498Z"/><polygon class="cls-3" points="331.549 140.814 347.289 131.5 347.289 154.335 331.482 163.441 331.549 140.814"/><path class="cls-5" d="M331.4824,163.7451a.3091.3091,0,0,1-.1533-.041.306.306,0,0,1-.1514-.2646l.0664-22.626a.3036.3036,0,0,1,.1495-.2617l15.74-9.3145a.3051.3051,0,0,1,.46.2627v22.835a.3039.3039,0,0,1-.1524.2636l-15.8066,9.1055A.3028.3028,0,0,1,331.4824,163.7451Zm.37-22.7568-.0634,21.9238,15.1953-8.7529v-22.125Z"/><polygon class="cls-3" points="319.536 133.968 331.549 140.814 347.289 131.5 335.434 124.655 319.536 133.968"/><path class="cls-5" d="M331.5488,141.1191a.304.304,0,0,1-.15-.04l-12.0127-6.8467a.3043.3043,0,0,1-.0039-.5273l15.8975-9.3125a.3045.3045,0,0,1,.3066-.001l11.8555,6.8447a.3049.3049,0,0,1,.0029.5264l-15.74,9.3144A.3135.3135,0,0,1,331.5488,141.1191Zm-11.4033-7.1552,11.4,6.498,15.14-8.959-11.2509-6.4951Z"/><path class="cls-5" d="M333.4834,161.1553a.1525.1525,0,0,1-.1523-.1524V155.459a.1528.1528,0,0,1,.0761-.1319l3.9512-2.2763a.1524.1524,0,0,1,.2285.1318v5.543a.1524.1524,0,0,1-.0762.1318l-3.9511,2.2774A.1521.1521,0,0,1,333.4834,161.1553Zm.1523-5.6084v5.1924l3.6465-2.1016v-5.1914Z"/><path class="cls-5" d="M341.5234,156.19a.1508.1508,0,0,1-.0761-.0206.1524.1524,0,0,1-.0762-.1318v-5.5439a.1527.1527,0,0,1,.0762-.1319l3.9521-2.2763a.1523.1523,0,0,1,.2285.1318l-.0009,5.543a.1524.1524,0,0,1-.0762.1318L341.6,156.1689A.1509.1509,0,0,1,341.5234,156.19Zm.1524-5.6084v5.1923l3.6465-2.1015.0009-5.1914Z"/><path class="cls-5" d="M341.5234,154.8428a.1522.1522,0,0,1-.0771-.2832l2.6758-1.5752v-4.0752a.1524.1524,0,1,1,.3047,0v4.1621a.1513.1513,0,0,1-.0752.1308l-2.751,1.6192A.1493.1493,0,0,1,341.5234,154.8428Z"/><path class="cls-5" d="M333.4834,159.708a.1524.1524,0,0,1-.0762-.2842l2.6211-1.51v-4.0088a.1524.1524,0,1,1,.3047,0v4.0967a.1527.1527,0,0,1-.0762.1318l-2.6972,1.5537A.1535.1535,0,0,1,333.4834,159.708Z"/><path class="cls-5" d="M345.4746,153.9121a.1566.1566,0,0,1-.0762-.02l-1.2-.6885a.1522.1522,0,1,1,.1524-.2636l1.2.6884a.1524.1524,0,0,1-.0762.2842Z"/><path class="cls-5" d="M337.4346,158.8779a.1535.1535,0,0,1-.0762-.02l-1.2539-.7236a.1523.1523,0,0,1,.1523-.2637l1.2539.7237a.1523.1523,0,0,1-.0761.2841Z"/><polygon class="cls-5" points="340.616 133.898 343.009 132.453 342.274 132.017 339.881 133.462 340.616 133.898"/><polygon class="cls-5" points="333.284 138.326 335.677 136.881 334.942 136.445 332.549 137.89 333.284 138.326"/><path class="cls-5" d="M336.6719,132.2021a4.7972,4.7972,0,0,1-2.4278-.6h0a1.84,1.84,0,0,1-1.03-1.5341,1.9343,1.9343,0,0,1,1.1015-1.5967,5.2879,5.2879,0,0,1,4.9356-.0215,1.8409,1.8409,0,0,1,1.03,1.5352,1.9374,1.9374,0,0,1-1.1016,1.5957A5.015,5.015,0,0,1,336.6719,132.2021Zm.1513-4.0332a4.68,4.68,0,0,0-2.3418.58,1.6347,1.6347,0,0,0-.9443,1.32,1.5345,1.5345,0,0,0,.874,1.2559h.001a4.93,4.93,0,0,0,4.6016-.0215,1.6365,1.6365,0,0,0,.9443-1.3193,1.5379,1.5379,0,0,0-.874-1.2569A4.4644,4.4644,0,0,0,336.8232,128.1689Z"/><path class="cls-5" d="M328.8887,136.8271a4.7946,4.7946,0,0,1-2.4278-.6h0a1.84,1.84,0,0,1-1.0312-1.5351,1.9363,1.9363,0,0,1,1.1025-1.5957,5.2888,5.2888,0,0,1,4.9346-.0215,1.84,1.84,0,0,1,1.0312,1.5352,1.9363,1.9363,0,0,1-1.1025,1.5957A5.0086,5.0086,0,0,1,328.8887,136.8271Zm.1513-4.0332a4.6773,4.6773,0,0,0-2.3418.58,1.6361,1.6361,0,0,0-.9453,1.3194,1.5366,1.5366,0,0,0,.8741,1.2568h0a4.9348,4.9348,0,0,0,4.6025-.0215,1.6358,1.6358,0,0,0,.9453-1.3193,1.5367,1.5367,0,0,0-.874-1.2569A4.467,4.467,0,0,0,329.04,132.7939Z"/><rect class="cls-5" x="333.3789" y="129.8389" width="6.7402" height="0.3242"/><rect class="cls-5" x="328.8116" y="131.5644" width="0.323" height="6.1563" transform="matrix(0.3141, -0.9494, 0.9494, 0.3141, 97.8185, 404.6787)"/><line class="cls-3" x1="331.5155" y1="154.7699" x2="347.2554" y2="145.4553"/><path class="cls-5" d="M331.5156,155.02a.25.25,0,0,1-.1269-.4648l15.74-9.3145a.25.25,0,0,1,.2539.43l-15.74,9.3145A.24.24,0,0,1,331.5156,155.02Z"/></g><g id="Connecteur-2" data-name="Connecteur"><polygon class="cls-3" points="305.585 178.458 293.73 171.613 293.639 148.984 305.652 155.831 305.585 178.458"/><path class="cls-5" d="M305.585,178.7627a.3028.3028,0,0,1-.1524-.041l-11.8555-6.8447a.3037.3037,0,0,1-.1523-.2627l-.0908-22.6289a.3054.3054,0,0,1,.1514-.2637.3016.3016,0,0,1,.3037-.002l12.0127,6.8467a.3061.3061,0,0,1,.1543.2656l-.0665,22.627a.3051.3051,0,0,1-.3046.3037Zm-11.5518-7.3262,11.249,6.4951.0635-21.9238-11.4-6.498Z"/><polygon class="cls-3" points="305.652 155.831 321.392 146.516 321.392 169.351 305.585 178.458 305.652 155.831"/><path class="cls-5" d="M305.585,178.7627a.3092.3092,0,0,1-.1534-.041.3059.3059,0,0,1-.1513-.2647l.0664-22.6269a.3035.3035,0,0,1,.1494-.2617l15.74-9.3145a.305.305,0,0,1,.46.2627v22.835a.3039.3039,0,0,1-.1524.2636l-15.8066,9.1065A.3027.3027,0,0,1,305.585,178.7627Zm.37-22.7578-.0635,21.9248,15.1953-8.7539v-22.125Z"/><polygon class="cls-3" points="293.639 148.984 305.652 155.831 321.392 146.516 309.537 139.672 293.639 148.984"/><path class="cls-5" d="M305.6514,156.1357a.3037.3037,0,0,1-.15-.04l-12.0127-6.8467a.3043.3043,0,0,1-.0039-.5273l15.8974-9.3125a.3047.3047,0,0,1,.3067-.001l11.8554,6.8447a.305.305,0,0,1,.003.5264l-15.74,9.3145A.314.314,0,0,1,305.6514,156.1357Zm-11.4034-7.1552,11.4,6.498,15.14-8.959-11.251-6.4951Z"/><path class="cls-5" d="M307.5859,176.1719a.1526.1526,0,0,1-.1523-.1524v-5.5429a.1527.1527,0,0,1,.0762-.1319l3.9521-2.2773a.1523.1523,0,0,1,.2285.1318v5.544a.1525.1525,0,0,1-.0761.1318l-3.9522,2.2764A.1518.1518,0,0,1,307.5859,176.1719Zm.1524-5.6074v5.1914l3.6474-2.1006v-5.1924Z"/><path class="cls-5" d="M315.626,171.2061a.1509.1509,0,0,1-.0762-.0206.1524.1524,0,0,1-.0762-.1318v-5.543a.1527.1527,0,0,1,.0762-.1318l3.9522-2.2773a.1524.1524,0,0,1,.2285.1318v5.5439a.1527.1527,0,0,1-.0762.1319l-3.9522,2.2763A.1508.1508,0,0,1,315.626,171.2061Zm.1523-5.6075V170.79l3.6475-2.1v-5.1924Z"/><path class="cls-5" d="M315.626,169.8594a.1522.1522,0,0,1-.0772-.2832l2.6758-1.5742v-3.96a.1524.1524,0,1,1,.3047,0v4.0469a.1511.1511,0,0,1-.0752.1308l-2.751,1.6182A.1492.1492,0,0,1,315.626,169.8594Z"/><path class="cls-5" d="M307.5859,174.7256a.1523.1523,0,0,1-.0761-.2842l2.6211-1.5107v-4.0088a.1523.1523,0,1,1,.3046,0v4.0967a.1526.1526,0,0,1-.0761.1318l-2.6973,1.5547A.1535.1535,0,0,1,307.5859,174.7256Z"/><path class="cls-5" d="M319.5781,168.93a.1559.1559,0,0,1-.0761-.02l-1.2012-.6885a.1523.1523,0,0,1,.1523-.2637l1.2012.6885a.1527.1527,0,0,1,.0557.208A.151.151,0,0,1,319.5781,168.93Z"/><path class="cls-5" d="M311.5381,173.8955a.1535.1535,0,0,1-.0762-.02l-1.2549-.7246a.1523.1523,0,0,1,.1524-.2637l1.2549.7246a.1524.1524,0,0,1-.0762.2842Z"/><polygon class="cls-5" points="314.719 148.915 317.112 147.47 316.377 147.034 313.984 148.479 314.719 148.915"/><polygon class="cls-5" points="307.387 153.343 309.78 151.898 309.045 151.461 306.651 152.907 307.387 153.343"/><path class="cls-5" d="M310.7734,147.22a4.7968,4.7968,0,0,1-2.4257-.6h0a1.8423,1.8423,0,0,1-1.0313-1.5351,1.9371,1.9371,0,0,1,1.1016-1.5967,5.2877,5.2877,0,0,1,4.9355-.0215,1.8433,1.8433,0,0,1,1.03,1.5352,1.9366,1.9366,0,0,1-1.1016,1.5957A5.0162,5.0162,0,0,1,310.7734,147.22Zm-2.26-.8769a4.9381,4.9381,0,0,0,4.6025-.0225,1.6344,1.6344,0,0,0,.9443-1.3193,1.5349,1.5349,0,0,0-.874-1.2569,4.9323,4.9323,0,0,0-4.6025.0215,1.6362,1.6362,0,0,0-.9444,1.32,1.5392,1.5392,0,0,0,.8741,1.2569Z"/><path class="cls-5" d="M302.99,151.8447a4.8032,4.8032,0,0,1-2.4267-.6h-.001a1.8432,1.8432,0,0,1-1.03-1.5351,1.9366,1.9366,0,0,1,1.1026-1.5957,5.28,5.28,0,0,1,4.9345-.0225,1.8425,1.8425,0,0,1,1.0313,1.5352,1.9366,1.9366,0,0,1-1.1026,1.5957A5.0124,5.0124,0,0,1,302.99,151.8447Zm-2.2607-.8769a4.938,4.938,0,0,0,4.6025-.0225,1.6363,1.6363,0,0,0,.9453-1.3193,1.5384,1.5384,0,0,0-.875-1.2569,4.93,4.93,0,0,0-4.6015.0225,1.6365,1.6365,0,0,0-.9453,1.3193,1.5389,1.5389,0,0,0,.874,1.2569Z"/><polygon class="cls-5" points="314.222 145.184 307.481 145.177 307.481 144.853 314.222 144.859 314.222 145.184"/><rect class="cls-5" x="302.9142" y="146.5817" width="0.323" height="6.156" transform="translate(65.8342 390.4279) rotate(-71.703)"/><line class="cls-3" x1="305.6182" y1="169.7075" x2="321.3581" y2="160.393"/><path class="cls-5" d="M305.6182,169.957a.25.25,0,0,1-.127-.4648l15.74-9.3145a.25.25,0,0,1,.254.43l-15.74,9.3145A.24.24,0,0,1,305.6182,169.957Z"/></g><g id="Connecteur-3" data-name="Connecteur"><polygon class="cls-3" points="279.733 193.255 267.878 186.411 267.787 163.782 279.8 170.629 279.733 193.255"/><path class="cls-5" d="M279.7334,193.56a.3025.3025,0,0,1-.1523-.041l-11.8555-6.8438a.3035.3035,0,0,1-.1524-.2627l-.0908-22.6289a.3054.3054,0,0,1,.1514-.2637.3018.3018,0,0,1,.3037-.0019l12.0127,6.8467a.3059.3059,0,0,1,.1543.2656l-.0664,22.626a.3052.3052,0,0,1-.3047.3037Zm-11.5518-7.3252,11.2491,6.4941.0634-21.9228-11.4-6.4981Z"/><polygon class="cls-3" points="279.8 170.629 295.54 161.314 295.54 184.149 279.733 193.255 279.8 170.629"/><path class="cls-5" d="M279.7334,193.56a.3038.3038,0,0,1-.3047-.3057l.0664-22.626a.3039.3039,0,0,1,.1494-.2617l15.74-9.3144a.3116.3116,0,0,1,.3066-.002.3045.3045,0,0,1,.1533.2647v22.8349a.304.304,0,0,1-.1523.2637l-15.8067,9.1055A.3025.3025,0,0,1,279.7334,193.56Zm.37-22.7569-.0635,21.9239,15.1954-8.753v-22.125Z"/><polygon class="cls-3" points="267.787 163.782 279.8 170.629 295.54 161.314 283.685 154.47 267.787 163.782"/><path class="cls-5" d="M279.8,170.9336a.3048.3048,0,0,1-.15-.04l-12.0127-6.8467a.3044.3044,0,0,1-.0039-.5274L283.53,154.207a.3048.3048,0,0,1,.3066-.0009l11.8555,6.8447a.305.305,0,0,1,.0029.5263l-15.74,9.3145A.3148.3148,0,0,1,279.8,170.9336Zm-11.4033-7.1553,11.4,6.4981,15.14-8.959-11.251-6.4951Z"/><path class="cls-5" d="M281.7344,190.97a.1508.1508,0,0,1-.0762-.02.1524.1524,0,0,1-.0762-.1318v-5.544a.1525.1525,0,0,1,.0762-.1318l3.9522-2.2764a.1524.1524,0,0,1,.2285.1319V188.54a.1527.1527,0,0,1-.0762.1319l-3.9522,2.2773A.1507.1507,0,0,1,281.7344,190.97Zm.1523-5.6084v5.1924l3.6475-2.1016v-5.1914Z"/><path class="cls-5" d="M289.7744,186.0039a.1525.1525,0,0,1-.1523-.1523v-5.544a.1525.1525,0,0,1,.0761-.1318l3.9522-2.2764a.1524.1524,0,0,1,.2285.1319v5.5429a.1527.1527,0,0,1-.0762.1319l-3.9521,2.2773A.151.151,0,0,1,289.7744,186.0039Zm.1524-5.6084v5.1924l3.6474-2.1016v-5.1914Z"/><path class="cls-5" d="M289.7744,184.6572a.1522.1522,0,0,1-.0771-.2832l2.6757-1.5752v-3.9756a.1524.1524,0,0,1,.3047,0v4.0625a.1511.1511,0,0,1-.0752.1309l-2.7509,1.6191A.1486.1486,0,0,1,289.7744,184.6572Z"/><path class="cls-5" d="M281.7344,189.5225a.1523.1523,0,0,1-.0762-.2842l2.6211-1.51V183.72a.1524.1524,0,0,1,.3047,0v4.0967a.1524.1524,0,0,1-.0762.1318l-2.6973,1.5538A.1545.1545,0,0,1,281.7344,189.5225Z"/><path class="cls-5" d="M293.7266,183.7266a.1574.1574,0,0,1-.0762-.02l-1.2012-.6885a.1523.1523,0,0,1,.1524-.2637l1.2011.6885a.1526.1526,0,0,1,.0557.208A.1509.1509,0,0,1,293.7266,183.7266Z"/><path class="cls-5" d="M285.6865,188.6924a.1545.1545,0,0,1-.0761-.02l-1.2549-.7237a.1522.1522,0,1,1,.1523-.2636l1.2549.7236a.1523.1523,0,0,1-.0762.2842Z"/><polygon class="cls-5" points="288.867 163.713 291.261 162.268 290.525 161.832 288.132 163.277 288.867 163.713"/><polygon class="cls-5" points="281.535 168.14 283.929 166.695 283.193 166.259 280.8 167.704 281.535 168.14"/><path class="cls-5" d="M284.9229,162.0166a4.7972,4.7972,0,0,1-2.4278-.6,1.8408,1.8408,0,0,1-1.03-1.5342,1.9346,1.9346,0,0,1,1.1016-1.5967,5.2882,5.2882,0,0,1,4.9356-.0215,1.84,1.84,0,0,1,1.03,1.5342,1.9345,1.9345,0,0,1-1.1015,1.5967A5.014,5.014,0,0,1,284.9229,162.0166Zm.1513-4.0332a4.68,4.68,0,0,0-2.3418.58,1.6346,1.6346,0,0,0-.9443,1.32,1.5364,1.5364,0,0,0,.874,1.2558h.001a4.93,4.93,0,0,0,4.6015-.0214,1.6347,1.6347,0,0,0,.9444-1.32,1.5345,1.5345,0,0,0-.874-1.2559A4.461,4.461,0,0,0,285.0742,157.9834Z"/><path class="cls-5" d="M277.14,166.6416a4.7945,4.7945,0,0,1-2.4277-.6h0a1.84,1.84,0,0,1-1.0312-1.5352,1.9363,1.9363,0,0,1,1.1025-1.5957,5.2888,5.2888,0,0,1,4.9346-.0215,1.8423,1.8423,0,0,1,1.0312,1.5352,1.9363,1.9363,0,0,1-1.1025,1.5957A5.0077,5.0077,0,0,1,277.14,166.6416Zm.1514-4.0332a4.677,4.677,0,0,0-2.3418.58,1.636,1.636,0,0,0-.9453,1.3193,1.5365,1.5365,0,0,0,.874,1.2568h0a4.935,4.935,0,0,0,4.6026-.0214,1.6369,1.6369,0,0,0,.9453-1.3194,1.5383,1.5383,0,0,0-.875-1.2568A4.46,4.46,0,0,0,277.291,162.6084Z"/><rect class="cls-5" x="281.6299" y="159.6533" width="6.7402" height="0.3242"/><rect class="cls-5" x="277.0626" y="161.3789" width="0.323" height="6.1563" transform="matrix(0.3141, -0.9494, 0.9494, 0.3141, 34.0174, 375.9986)"/><line class="cls-3" x1="279.7666" y1="184.5498" x2="295.5066" y2="175.2353"/><path class="cls-5" d="M279.7666,184.8a.25.25,0,0,1-.127-.4648l15.74-9.3145a.25.25,0,0,1,.2539.43l-15.74,9.3144A.24.24,0,0,1,279.7666,184.8Z"/></g></g><g id="GSM_side" data-name="GSM side"><path class="cls-2" d="M374.5225,250.9707a12.0458,12.0458,0,0,1-6.02-1.4062h-.001c-7.3194-4.18-3.3623-11.1221-2.0615-13.4034.1777-.3125.3164-.5507.3789-.7021l.0654-.1572.1484-.085,92.19-52.6943c5.082-2.9034,14.0049-2.5411,19.8955.8066,3.1924,1.8145,5.0244,4.2637,5.0283,6.7188.002,2.0429-1.2617,3.8916-3.5586,5.205L388.3076,247.998l-.1035.0118a19.5878,19.5878,0,0,0-2.67.7392C382.6445,249.66,378.49,250.9707,374.5225,250.9707Zm-5.5254-2.2754c4.7685,2.7178,11.9463.4522,16.2363-.8994a21.6045,21.6045,0,0,1,2.7539-.7666l92.1035-52.6445c1.9717-1.127,3.0567-2.667,3.0547-4.336-.0029-2.0859-1.6514-4.2187-4.5225-5.8506-5.6162-3.1914-14.0966-3.5556-18.9052-.8066L367.665,236.0068c-.0839.167-.207.3858-.3564.6495-2.2178,3.89-4.03,8.7744,1.6885,12.039Z"/><path class="cls-3" d="M368.749,242.0162c6.4223,3.6574,17.0029,3.3963,19.4,3.1352l92.1894-52.6942c4.9311-2.8186,4.27-7.7936-1.4686-11.0555s-14.4691-3.6247-19.4-.8061L367.28,233.29C366.7286,234.6149,360.9005,237.5352,368.749,242.0162Z"/><path class="cls-2" d="M384.8584,245.7871c-4.373,0-11.5029-.5713-16.3564-3.3359h-.001c-2.6641-1.5215-4.0674-3.02-4.2881-4.583-.2461-1.7334,1.0527-3.0723,1.9131-3.9571a4.3035,4.3035,0,0,0,.6924-.8134.51.51,0,0,1,.2138-.2422l92.19-52.6944c5.08-2.9033,14.0049-2.5429,19.8955.8057,3.1924,1.8154,5.0254,4.2646,5.0283,6.72.002,2.043-1.2617,3.8916-3.5586,5.2051l-92.1894,52.6943a.5222.5222,0,0,1-.1944.0625C387.5605,245.7188,386.375,245.7871,384.8584,245.7871Zm-15.8623-4.2051c6.2187,3.542,16.3887,3.3418,18.9971,3.083l92.0976-52.6425c1.9717-1.126,3.0567-2.6661,3.0547-4.335-.0029-2.0859-1.6514-4.2187-4.5225-5.8516-5.6162-3.1894-14.0966-3.5537-18.9052-.8056l-92.06,52.62a5.6692,5.6692,0,0,1-.8144.957c-.8106.834-1.8184,1.8721-1.6417,3.1211.1729,1.2178,1.4493,2.5147,3.794,3.8535Z"/><path class="cls-2" d="M379.5359,238.53c7.3867-4.5515,14.879-8.9183,22.3626-13.3l11.2954-6.4506,11.34-6.3724,45.3453-25.5157.05.0869-44.9981,26.1234-11.2458,6.5373-11.29,6.4593c-7.5738,4.2243-15.1387,8.4641-22.8092,12.519Z"/><path class="cls-2" d="M360.6484,262.083a6.0652,6.0652,0,0,1-2.2158-.44c-4.0478-1.5908-7.2178-7.0733-7.2178-12.4815,0-3.0732,1.044-5.6093,2.8633-6.959a5.1627,5.1627,0,0,1,4.6826-.7275c4.2618,1.294,7.73,6.9727,7.73,12.6592,0,3.1943-1.1,5.7754-3.0166,7.082A4.9589,4.9589,0,0,1,360.6484,262.083Zm-3.5849-19.87a3.95,3.95,0,0,0-2.3906.793c-1.5616,1.1582-2.4581,3.4013-2.4581,6.1552,0,4.9424,2.9532,10.1241,6.5831,11.55a4.2623,4.2623,0,0,0,4.1123-.3213c1.64-1.1171,2.58-3.3974,2.58-6.2558,0-5.1885-3.2148-10.5469-7.0205-11.7022A4.8291,4.8291,0,0,0,357.0635,242.2129Z"/><path class="cls-2" d="M342.0605,272.8135a6.06,6.06,0,0,1-2.2148-.4395c-4.0478-1.5908-7.2178-7.0732-7.2178-12.4814,0-3.0742,1.044-5.6113,2.8633-6.96a5.1585,5.1585,0,0,1,4.6826-.7265c4.2617,1.2939,7.7285,6.9726,7.7285,12.6591,0,3.1944-1.1,5.7754-3.0156,7.0811A4.96,4.96,0,0,1,342.0605,272.8135Zm-3.5849-19.8692a3.9436,3.9436,0,0,0-2.3887.792c-1.5625,1.1582-2.459,3.4024-2.459,6.1563,0,4.9424,2.9532,10.124,6.583,11.55a4.256,4.256,0,0,0,4.1123-.3223c1.6387-1.1172,2.5791-3.3965,2.5791-6.2549,0-5.1884-3.2148-10.5468-7.02-11.7021A4.8274,4.8274,0,0,0,338.4756,252.9443Z"/><path class="cls-3" d="M336.5043,252.9023l2.0619-1.9142,13.6256-7.9091,2.43-.6411a4.6412,4.6412,0,0,1,3.9944-.4848c4.011,1.2178,7.3741,6.69,7.3741,12.18,0,3.1318-1.0941,5.4953-2.7786,6.6555v-.0017l-1.2485,1.3868-14.1316,8.1317-2.6881.7818a8.327,8.327,0,0,0,2.21-6.1941c0-5.4906-3.3631-10.9627-7.3741-12.1806A4.7269,4.7269,0,0,0,336.5043,252.9023Z"/><path class="cls-2" d="M345.1426,271.5879a.5.5,0,0,1-.3408-.8662,7.8388,7.8388,0,0,0,2.0507-5.8281c0-5.1885-3.2148-10.5469-7.0195-11.7022a4.2061,4.2061,0,0,0-3.1142.1621.5.5,0,0,1-.5547-.8174l2.0625-1.914a.486.486,0,0,1,.0888-.0664l13.625-7.9092a.5175.5175,0,0,1,.1231-.0508l2.3545-.6221a5.1505,5.1505,0,0,1,4.3427-.499c4.2618,1.294,7.73,6.9727,7.73,12.6592,0,3.1523-1.0732,5.7109-2.9463,7.0322l-1.21,1.3428a.4953.4953,0,0,1-.1221.0986L348.08,270.7393a.5438.5438,0,0,1-.1094.0468l-2.6885.7823A.5289.5289,0,0,1,345.1426,271.5879Zm-6.7139-19.6143a5.8352,5.8352,0,0,1,1.6953.2608c4.2617,1.2939,7.7285,6.9726,7.7285,12.6592a9.9815,9.9815,0,0,1-1.3164,5.2675l1.0977-.3183,14.0107-8.0625,1.1944-1.3282a.56.56,0,0,1,.0888-.0771c1.6289-1.1191,2.5625-3.3945,2.5625-6.2412,0-5.1885-3.2148-10.5469-7.0205-11.7022a4.1591,4.1591,0,0,0-3.5761.4248.5062.5062,0,0,1-.1446.0645l-2.3652.624-13.5186,7.8477-.63.5849C338.3,251.9756,338.3643,251.9736,338.4287,251.9736Z"/><path class="cls-3" d="M336.32,271.2634c0,5.4906-3.3631,8.62-7.3741,7.0434-3.8668-1.52-6.9008-6.8775-6.9008-12.0157s3.034-8.3823,6.9008-7.2082C332.957,260.3007,336.32,265.7728,336.32,271.2634Z"/><path class="cls-2" d="M330.9785,279.2119a6.0623,6.0623,0,0,1-2.2148-.4394c-4.0479-1.5909-7.2188-7.0733-7.2188-12.4815,0-3.0732,1.043-5.6094,2.8623-6.959a5.1653,5.1653,0,0,1,4.6846-.7275c4.2617,1.2939,7.7285,6.9726,7.7285,12.6592,0,3.1943-1.1,5.7754-3.0166,7.081A4.9516,4.9516,0,0,1,330.9785,279.2119Zm-3.584-19.8691a3.951,3.951,0,0,0-2.3916.7929c-1.5615,1.1582-2.458,3.4024-2.458,6.1553,0,4.9424,2.9541,10.124,6.584,11.55a4.2555,4.2555,0,0,0,4.1123-.3222c1.6387-1.1172,2.5791-3.3965,2.5791-6.2549,0-5.1885-3.2148-10.5469-7.0195-11.7022A4.8269,4.8269,0,0,0,327.3945,259.3428Z"/><path class="cls-3" d="M325.26,259.38l1.5349-1.77,7.4237-4.2519,2.0855-.3557a4.6846,4.6846,0,0,1,3.7248-.3181c4.011,1.2178,7.3741,6.69,7.3741,12.18,0,3.2539-1.1811,5.6785-2.9783,6.7857l-1,1.5028-6.92,3.9658-2.5956.52c1.4746-1.2376,2.4114-3.4777,2.4114-6.3757,0-5.4906-3.3631-10.9627-7.3741-12.18A4.69,4.69,0,0,0,325.26,259.38Z"/><path class="cls-2" d="M333.9092,278.1387a.5.5,0,0,1-.3213-.8828c1.4189-1.1914,2.2324-3.375,2.2324-5.9922,0-5.1885-3.2148-10.5469-7.0195-11.7022a4.2315,4.2315,0,0,0-3.3028.2578.5.5,0,0,1-.6162-.7675l1.5352-1.77a.4984.4984,0,0,1,.13-.1054l7.4238-4.252a.4951.4951,0,0,1,.1641-.06l2.0029-.3418a5.1993,5.1993,0,0,1,4.0361-.3173c4.2617,1.2939,7.7285,6.9726,7.7285,12.6591,0,3.2715-1.1357,5.8692-3.12,7.1514l-.9414,1.4141a.5009.5009,0,0,1-.167.1562l-6.9209,3.9658a.4912.4912,0,0,1-.15.0567l-2.5947.5195A.492.492,0,0,1,333.9092,278.1387Zm-6.5147-19.7949a5.8325,5.8325,0,0,1,1.6973.2607c4.2617,1.2939,7.7285,6.9726,7.7285,12.6592a9.8081,9.8081,0,0,1-1.5322,5.5888l1.0381-.208,6.748-3.8662.9346-1.4053a.506.506,0,0,1,.1533-.1484c1.7158-1.0576,2.74-3.4346,2.74-6.3594,0-5.1884-3.2148-10.5468-7.02-11.7021a4.202,4.202,0,0,0-3.3369.2764.5.5,0,0,1-.1582.0556l-1.9971.3408-7.2734,4.1661-.3272.3769A5.1873,5.1873,0,0,1,327.3945,258.3438Z"/><path class="cls-3" d="M327.5544,276.29c0,5.4906-3.3631,8.62-7.3741,7.0433-3.8668-1.52-6.9008-6.8775-6.9008-12.0156s3.034-8.3823,6.9008-7.2083C324.1913,265.3269,327.5544,270.799,327.5544,276.29Z"/><path class="cls-2" d="M322.2129,284.2383a6.0613,6.0613,0,0,1-2.2149-.4395c-4.0478-1.5908-7.2187-7.0732-7.2187-12.4814,0-3.0742,1.0439-5.61,2.8633-6.96a5.1625,5.1625,0,0,1,4.6836-.7265c4.2617,1.2939,7.7285,6.9726,7.7285,12.6591,0,3.1944-1.1,5.7754-3.0166,7.0811A4.9524,4.9524,0,0,1,322.2129,284.2383Zm-3.585-19.8692a3.9441,3.9441,0,0,0-2.39.792c-1.5625,1.1582-2.459,3.4024-2.459,6.1563,0,4.9424,2.9541,10.124,6.584,11.55a4.2584,4.2584,0,0,0,4.1123-.3223c1.6387-1.1172,2.5791-3.3965,2.5791-6.2549,0-5.1884-3.2149-10.5468-7.02-11.7021A4.8336,4.8336,0,0,0,318.6279,264.3691Z"/><path class="cls-3" d="M316.4941,264.406l1.5349-1.77,1.9145-1.0521,3.176-.97a4.6846,4.6846,0,0,1,3.7248-.3181c4.011,1.2178,7.3741,6.69,7.3741,12.1805,0,3.2539-1.1811,5.6785-2.9783,6.7857l-1.6448,1.858-1.8567,1.0248-2.5955.52c1.4745-1.2377,2.4113-3.4778,2.4113-6.3757,0-5.4906-3.3631-10.9627-7.3741-12.1806A4.6909,4.6909,0,0,0,316.4941,264.406Z"/><path class="cls-2" d="M325.1426,283.165a.5.5,0,0,1-.3213-.8828c1.4189-1.1914,2.2334-3.375,2.2334-5.9922,0-5.1884-3.2149-10.5468-7.02-11.7021a4.2038,4.2038,0,0,0-3.3028.2578.5.5,0,0,1-.6162-.7666l1.5352-1.77a.4982.4982,0,0,1,.1367-.1113l1.914-1.0518a.5691.5691,0,0,1,.0948-.04l3.1269-.9541a5.1946,5.1946,0,0,1,4.0664-.334c4.2618,1.2939,7.7286,6.9726,7.7286,12.6592,0,3.289-1.1475,5.8964-3.1524,7.1718l-1.5967,1.8028a.4693.4693,0,0,1-.1328.1064L327.98,282.583a.46.46,0,0,1-.1436.0527l-2.5957.52A.4751.4751,0,0,1,325.1426,283.165ZM318.63,263.3691a5.8287,5.8287,0,0,1,1.6963.2618c4.2617,1.2939,7.7285,6.9726,7.7285,12.6591a9.8159,9.8159,0,0,1-1.5322,5.5889l1.042-.209,1.7138-.9463,1.5879-1.792a.49.49,0,0,1,.1113-.0947c1.7168-1.0576,2.7413-3.4355,2.7413-6.36,0-5.1885-3.2149-10.5469-7.02-11.7022a4.2127,4.2127,0,0,0-3.3379.2774.556.556,0,0,1-.0957.041l-3.1269.9541-1.79.9844-.3242.373A5.19,5.19,0,0,1,318.63,263.3691Z"/><path class="cls-3" d="M364.0478,260.0619l24.1014-12.5488v-2.3617l-23.4082,3.098a14.9484,14.9484,0,0,1,1.2488,5.8842A8.6267,8.6267,0,0,1,364.0478,260.0619Z"/><path class="cls-2" d="M364.0479,260.5615a.5.5,0,0,1-.3663-.84,8.1726,8.1726,0,0,0,1.8086-5.5879,14.4512,14.4512,0,0,0-1.208-5.6865.5.5,0,0,1,.3936-.6944l23.4082-3.0976a.5012.5012,0,0,1,.5654.4961v2.3613a.4989.4989,0,0,1-.2695.4434l-24.1016,12.5488A.4986.4986,0,0,1,364.0479,260.5615Zm1.4013-11.9013a15.3579,15.3579,0,0,1,1.041,5.4736,10.59,10.59,0,0,1-.9453,4.584l22.1045-11.5088v-1.4873Z"/><rect class="cls-2" x="353.6891" y="238.2102" width="13.1276" height="1.0005" transform="translate(-71.9101 238.7538) rotate(-33.535)"/><path class="cls-2" d="M364.2773,260.499l-.4609-.8867,23.833-12.4033v-1.4873l-22.8437,3.0234-.1309-.9922,23.4092-3.0976a.5012.5012,0,0,1,.5654.4961v2.3613a.4989.4989,0,0,1-.2695.4434Z"/><path class="cls-3" d="M354.7781,242.3359c-1.2777,1.2777-1.2078,2.07,0,2.95a19.1747,19.1747,0,0,0,9.9629,2.9632l23.4082-3.098c-2.3973.2611-12.9779.5222-19.4-3.1352-5.3-3.0262-4.3631-5.3406-3.0259-6.9325l-10.945,7.2522"/><path class="cls-2" d="M364.79,248.7451a19.6513,19.6513,0,0,1-10.3066-3.0547,2.397,2.397,0,0,1-1.1328-1.63,2.7746,2.7746,0,0,1,1.0742-2.0781l.0772-.0635,13.8291-9.163-2.2256,2.6494a2.9177,2.9177,0,0,0-.8907,2.3994c.2129,1.1953,1.4864,2.4668,3.7823,3.7773,6.3027,3.5909,16.6679,3.336,19.0986,3.0723l.1191.9932-23.4082,3.0976Zm-9.6933-6.02c-.5215.5283-.7735.9512-.749,1.2578.0205.2647.2578.56.7246.8994a18.8157,18.8157,0,0,0,9.6689,2.8672l16.0195-2.123c-4.0009-.3145-8.73-1.166-12.2587-3.1748-2.6026-1.4864-4-2.9483-4.2715-4.4707a3.1087,3.1087,0,0,1,.0547-1.3448Z"/></g><g id="LoRa_front" data-name="LoRa front"><path class="cls-3" d="M442.4769,166.47c0-1.81-1.1088-3.614-2.431-4.0154a1.5352,1.5352,0,0,0-1.2854.1394l0-.0005L407.61,180.7779a1.5365,1.5365,0,0,1,1.285-.1382c1.3224.4016,2.431,2.2055,2.431,4.0156a2.3853,2.3853,0,0,1-.9323,2.2019l30.9038-18.0525-.0032-.0076A2.37,2.37,0,0,0,442.4769,166.47Z"/><path class="cls-2" d="M410.3936,187.3574a.5.5,0,0,1-.2549-.9306,2.018,2.018,0,0,0,.6865-1.7715c0-1.5762-.95-3.1953-2.0762-3.5371a1.0479,1.0479,0,0,0-.832.0595l-.0557.0323a.5.5,0,0,1-.5136-.8575c.0253-.0156.0517-.0312.0771-.0459l31.083-18.1455a2.0276,2.0276,0,0,1,1.6826-.1855c1.5362.4658,2.7862,2.4824,2.7862,4.4941a2.883,2.883,0,0,1-1.3926,2.7442c-.0117.0078-.0225.0156-.0352.0224l-30.9033,18.0528A.4923.4923,0,0,1,410.3936,187.3574Zm-.9834-7.0517a4.9785,4.9785,0,0,1,2.415,4.35,4.8835,4.8835,0,0,1-.0654.8252l29.2109-17.0645a.4965.4965,0,0,1,.127-.0791,1.9266,1.9266,0,0,0,.8789-1.8672c0-1.5761-.95-3.1953-2.0762-3.5371a1.0354,1.0354,0,0,0-.8779.0869Z"/><path class="cls-2" d="M377.7354,212.9209a6.0605,6.0605,0,0,1-2.2149-.4395c-4.0478-1.5908-7.2178-7.0732-7.2178-12.4814,0-3.0732,1.044-5.6094,2.8633-6.959a5.16,5.16,0,0,1,4.6826-.7275c4.2618,1.2939,7.73,6.9726,7.73,12.6592,0,3.1933-1.1,5.7744-3.0166,7.081A4.96,4.96,0,0,1,377.7354,212.9209Zm-3.584-19.8691a3.9505,3.9505,0,0,0-2.3907.7929c-1.5615,1.1582-2.458,3.4014-2.458,6.1553,0,4.9424,2.9532,10.124,6.583,11.55a4.26,4.26,0,0,0,4.1133-.3223c1.6387-1.1171,2.5791-3.3974,2.5791-6.2548,0-5.1885-3.2148-10.5469-7.0205-11.7022A4.8257,4.8257,0,0,0,374.1514,193.0518Z"/><path class="cls-3" d="M411.3256,184.6553c0-1.81-1.1086-3.614-2.431-4.0156a1.5276,1.5276,0,0,0-1.3168.165l-.0012-.0023L374.4821,191.07l-2.0383,1.8952a4.6655,4.6655,0,0,1,3.4352-.1864c3.9674,1.2076,7.2958,6.6313,7.2958,12.0722a8.2462,8.2462,0,0,1-2.1873,6.1346l2.66-.7708,27.0127-23.55-.0134-.0254A2.7914,2.7914,0,0,0,411.3256,184.6553Z"/><path class="cls-2" d="M380.9873,211.4863a.5.5,0,0,1-.3408-.8652,7.7685,7.7685,0,0,0,2.0283-5.77c0-5.14-3.1787-10.4493-6.9414-11.5938a4.1482,4.1482,0,0,0-3.0752.1592.5.5,0,0,1-.5557-.8174l2.0391-1.8955a.5144.5144,0,0,1,.1924-.1113l33.043-10.252a2.03,2.03,0,0,1,1.663-.18c1.5352.4659,2.7852,2.4825,2.7852,4.4942a3.3837,3.3837,0,0,1-.7178,2.2226.4494.4494,0,0,1-.1191.1641l-27.0127,23.55a.5037.5037,0,0,1-.1885.1035l-2.66.7715A.5354.5354,0,0,1,380.9873,211.4863Zm-6.6426-19.4443a5.7579,5.7579,0,0,1,1.68.2588c4.2188,1.2832,7.65,6.914,7.65,12.5508a9.904,9.904,0,0,1-1.2978,5.2109l1.0253-.2969,26.8165-23.3789a.4367.4367,0,0,1,.0712-.0967,2.3212,2.3212,0,0,0,.5352-1.6347c0-1.5762-.95-3.1953-2.0762-3.5371a1.0329,1.0329,0,0,0-.8984.1054.502.502,0,0,1-.1729.0713l-32.9384,10.2188-.5713.5312C374.2266,192.043,374.2861,192.042,374.3447,192.042Z"/><path class="cls-2" d="M377.7363,212.9785a6.0652,6.0652,0,0,1-2.2158-.44c-4.0478-1.5908-7.2178-7.0733-7.2178-12.4815,0-3.0732,1.044-5.6093,2.8633-6.9589a5.1576,5.1576,0,0,1,4.6826-.7276c4.2618,1.294,7.73,6.9727,7.73,12.6592,0,3.1943-1.1,5.7754-3.0166,7.082A4.9589,4.9589,0,0,1,377.7363,212.9785Zm-3.5849-19.87a3.95,3.95,0,0,0-2.3907.793c-1.5615,1.1582-2.458,3.4013-2.458,6.1552,0,4.9424,2.9532,10.1241,6.583,11.55a4.2623,4.2623,0,0,0,4.1123-.3212c1.64-1.1172,2.58-3.3975,2.58-6.2559,0-5.1885-3.2148-10.5469-7.0205-11.7022A4.8291,4.8291,0,0,0,374.1514,193.1084Z"/><path class="cls-2" d="M283.3193,267.8018a6.0453,6.0453,0,0,1-2.2148-.4414c-4.0479-1.59-7.2178-7.0723-7.2178-12.4805,0-3.0733,1.044-5.6094,2.8633-6.959a5.1636,5.1636,0,0,1,4.6826-.7275c4.2617,1.2939,7.7285,6.9726,7.7285,12.6591,0,3.1944-1.1,5.7764-3.0166,7.0821A4.96,4.96,0,0,1,283.3193,267.8018Zm-3.5839-19.87a3.95,3.95,0,0,0-2.3907.793c-1.5615,1.1582-2.458,3.4014-2.458,6.1553,0,4.9424,2.9531,10.124,6.583,11.55a4.2589,4.2589,0,0,0,4.1114-.3213c1.64-1.1172,2.58-3.3975,2.58-6.2559,0-5.1884-3.2148-10.5468-7.0195-11.7021A4.826,4.826,0,0,0,279.7354,247.9316Z"/><path class="cls-3" d="M277.7628,247.89l2.0619-1.9143L369.28,193.9745l2.4294-.6411a4.6412,4.6412,0,0,1,3.9944-.4848c4.011,1.2178,7.3741,6.69,7.3741,12.18,0,3.1318-1.0941,5.4953-2.7785,6.6555v-.0017l-1.2485,1.3869L289.09,265.2934l-2.6881.7819a8.3272,8.3272,0,0,0,2.21-6.1941c0-5.4907-3.3631-10.9628-7.3741-12.1806A4.727,4.727,0,0,0,277.7628,247.89Z"/><path class="cls-2" d="M286.4014,266.5752a.5.5,0,0,1-.3409-.8662,7.8384,7.8384,0,0,0,2.0508-5.8281c0-5.1885-3.2148-10.5469-7.02-11.7022a4.2061,4.2061,0,0,0-3.1143.1621.5.5,0,0,1-.5546-.8174l2.0625-1.914a.4541.4541,0,0,1,.0888-.0664l89.4541-52.001a.501.501,0,0,1,.1231-.0508l2.3545-.6221a5.1429,5.1429,0,0,1,4.3427-.499c4.2618,1.294,7.73,6.9727,7.73,12.6592,0,3.1523-1.0732,5.7109-2.9463,7.0322l-1.21,1.3428a.5077.5077,0,0,1-.12.0977l-89.961,52.2236a.5079.5079,0,0,1-.1113.0478l-2.6885.7823A.5289.5289,0,0,1,286.4014,266.5752Zm-6.7139-19.6143a5.8386,5.8386,0,0,1,1.6953.2608c4.2617,1.2939,7.7285,6.9726,7.7285,12.6592a9.9815,9.9815,0,0,1-1.3164,5.2675l1.0967-.3183,89.84-52.1533,1.1954-1.3291a.556.556,0,0,1,.0888-.0772c1.6289-1.1191,2.5625-3.3945,2.5625-6.2412,0-5.1885-3.2148-10.5469-7.0205-11.7022a4.1526,4.1526,0,0,0-3.5762.4249.5041.5041,0,0,1-.1445.0644l-2.3642.624L280.124,246.38l-.63.5849C279.5586,246.9629,279.623,246.9609,279.6875,246.9609Z"/><path class="cls-3" d="M267.7683,271.7041c0,5.4906-3.3631,8.62-7.3741,7.0433-3.8668-1.52-6.9008-6.8775-6.9008-12.0157s3.034-8.3822,6.9008-7.2082C264.4052,260.7414,267.7683,266.2135,267.7683,271.7041Z"/><path class="cls-2" d="M262.4268,279.6533a6.0454,6.0454,0,0,1-2.2149-.4414c-4.0478-1.59-7.2187-7.0723-7.2187-12.4805,0-3.0732,1.0429-5.6093,2.8623-6.9589a5.1631,5.1631,0,0,1,4.6845-.7276c4.2618,1.294,7.7286,6.9727,7.7286,12.6592,0,3.1943-1.1,5.7764-3.0166,7.082A4.9592,4.9592,0,0,1,262.4268,279.6533Zm-3.584-19.87a3.95,3.95,0,0,0-2.3916.793c-1.5616,1.1582-2.458,3.4023-2.458,6.1552,0,4.9424,2.9541,10.1241,6.5839,11.55a4.2592,4.2592,0,0,0,4.1114-.3213c1.64-1.1172,2.58-3.3975,2.58-6.2559,0-5.1885-3.2149-10.5469-7.02-11.7021A4.826,4.826,0,0,0,258.8428,259.7832Z"/><path class="cls-3" d="M256.708,259.82l1.5348-1.77,17.2342-9.7051,2.0854-.3556a4.6846,4.6846,0,0,1,3.7248-.3182c4.011,1.2179,7.3741,6.69,7.3741,12.1806,0,3.2539-1.1811,5.6784-2.9783,6.7857l-1,1.5028L267.9525,277.56l-2.5956.52c1.4745-1.2376,2.4114-3.4777,2.4114-6.3756,0-5.4906-3.3631-10.9627-7.3741-12.1806A4.69,4.69,0,0,0,256.708,259.82Z"/><path class="cls-2" d="M265.3564,278.58a.5.5,0,0,1-.3212-.8828c1.4189-1.1924,2.2334-3.377,2.2334-5.9932,0-5.1885-3.2149-10.5469-7.02-11.7021a4.2315,4.2315,0,0,0-3.3027.2578.5.5,0,0,1-.6162-.7676l1.5351-1.77a.5236.5236,0,0,1,.1328-.1075l17.2334-9.705a.4971.4971,0,0,1,.1612-.0577l2.0039-.3408a5.1942,5.1942,0,0,1,4.0361-.3183c4.2617,1.2939,7.7285,6.9726,7.7285,12.6591,0,3.2725-1.1357,5.8711-3.1211,7.1514l-.9414,1.4141a.4824.4824,0,0,1-.1709.1582l-16.73,9.4189a.4994.4994,0,0,1-.1465.0547l-2.5957.52A.4922.4922,0,0,1,265.3564,278.58Zm-6.5136-19.7959a5.8324,5.8324,0,0,1,1.6972.2607c4.2618,1.294,7.7286,6.9727,7.7286,12.6592a9.8128,9.8128,0,0,1-1.5323,5.59l1.04-.2089,16.5566-9.3213.9336-1.4033a.5086.5086,0,0,1,.1543-.1485c1.7158-1.0556,2.74-3.4336,2.74-6.3594,0-5.1884-3.2148-10.5468-7.0195-11.7021a4.1959,4.1959,0,0,0-3.3359.2773.5153.5153,0,0,1-.1592.0557l-2,.3408-17.082,9.62-.3262.375A5.1847,5.1847,0,0,1,258.8428,258.7842Z"/><path class="cls-3" d="M259.0026,276.73c0,5.4907-3.3631,8.62-7.3741,7.0434-3.8668-1.52-6.9008-6.8775-6.9008-12.0157s3.034-8.3823,6.9008-7.2082C255.64,265.7675,259.0026,271.24,259.0026,276.73Z"/><path class="cls-2" d="M253.6611,284.6787a6.0623,6.0623,0,0,1-2.2148-.4394c-4.0479-1.5909-7.2188-7.0733-7.2188-12.4815,0-3.0732,1.043-5.6094,2.8623-6.959a5.1663,5.1663,0,0,1,4.6846-.7275c4.2617,1.2939,7.7285,6.9726,7.7285,12.6592,0,3.1943-1.1,5.7754-3.0166,7.081A4.9514,4.9514,0,0,1,253.6611,284.6787Zm-3.584-19.8691a3.9512,3.9512,0,0,0-2.3916.7929c-1.5615,1.1582-2.458,3.4024-2.458,6.1553,0,4.9424,2.9541,10.124,6.584,11.55a4.2583,4.2583,0,0,0,4.1123-.3222c1.6387-1.1172,2.5791-3.3965,2.5791-6.2549,0-5.1885-3.2148-10.5469-7.02-11.7022A4.8259,4.8259,0,0,0,250.0771,264.81Z"/><path class="cls-3" d="M247.9423,264.8467l1.5349-1.77,1.9145-1.0521,3.176-.97a4.6842,4.6842,0,0,1,3.7248-.3182c4.011,1.2179,7.3741,6.69,7.3741,12.1806,0,3.2539-1.1811,5.6784-2.9783,6.7857l-1.6448,1.858-1.8567,1.0247-2.5956.52c1.4746-1.2376,2.4114-3.4777,2.4114-6.3757,0-5.4906-3.3631-10.9627-7.3741-12.1805A4.69,4.69,0,0,0,247.9423,264.8467Z"/><path class="cls-2" d="M256.5908,283.6055a.5.5,0,0,1-.3213-.8828c1.419-1.1914,2.2334-3.375,2.2334-5.9922,0-5.1885-3.2148-10.5469-7.02-11.7022a4.2226,4.2226,0,0,0-3.3027.2578.5.5,0,0,1-.6162-.7675l1.5351-1.77a.5372.5372,0,0,1,.1367-.11l1.9141-1.0528a.5717.5717,0,0,1,.0947-.04l3.127-.9541a5.1945,5.1945,0,0,1,4.0664-.333c4.2617,1.2939,7.7285,6.9726,7.7285,12.6592,0,3.2881-1.1475,5.8955-3.1524,7.1709l-1.5966,1.8037a.4707.4707,0,0,1-.1328.1064l-1.8575,1.0244a.47.47,0,0,1-.1435.0528l-2.5957.52A.4762.4762,0,0,1,256.5908,283.6055Zm-6.5137-19.795a5.8327,5.8327,0,0,1,1.6973.2608c4.2617,1.2939,7.7285,6.9726,7.7285,12.6592a9.815,9.815,0,0,1-1.5322,5.5888l1.042-.2089,1.7139-.9454,1.5879-1.7929a.517.517,0,0,1,.1113-.0948c1.7168-1.0576,2.7412-3.4345,2.7412-6.3593,0-5.1885-3.2149-10.5469-7.0195-11.7022a4.2044,4.2044,0,0,0-3.3379.2764.5516.5516,0,0,1-.0957.041l-3.127.9541-1.79.9854-.3242.373A5.1843,5.1843,0,0,1,250.0771,263.8105Z"/><path class="cls-3" d="M450.6545,160.0812a2.5619,2.5619,0,0,0-.5314-.9653c-1.6927-1.6927-11.3806,3.4874-11.3806,3.4874a1.5378,1.5378,0,0,1,1.2851-.1382c1.3223.4016,2.431,2.2056,2.431,4.0156a2.3853,2.3853,0,0,1-.9324,2.2019S452.584,163.7991,450.6545,160.0812Z"/><path class="cls-2" d="M441.5264,169.1826a.5.5,0,0,1-.2549-.9306,2.0174,2.0174,0,0,0,.6875-1.7715c0-1.5752-.9512-3.1944-2.0772-3.5371a1.0706,1.0706,0,0,0-.7607.0244c-.0479.0254-.0957.0508-.1436.0771a.5.5,0,0,1-.4961-.8681,1.9118,1.9118,0,0,1,.2012-.1075c2.54-1.3476,10.0205-5.0791,11.794-3.3066a3.2123,3.2123,0,0,1,.6464,1.1367,2.5643,2.5643,0,0,1,.086,2.0518c-1.2354,3.5127-9.1445,7.04-9.4805,7.1884A.4948.4948,0,0,1,441.5264,169.1826Zm-.875-6.9961a5.0325,5.0325,0,0,1,2.3076,4.294,4.6577,4.6577,0,0,1-.1016,1.0107c2.6446-1.3467,6.669-3.77,7.4082-5.8721a1.5779,1.5779,0,0,0-.0547-1.3076.4994.4994,0,0,1-.042-.1094,2.0984,2.0984,0,0,0-.4238-.7587C448.99,158.6875,444.7266,160.1816,440.6514,162.1865Z"/></g><path class="cls-6" d="M100.0293,239.0859a7.4619,7.4619,0,1,1,7.4609-7.4619A7.4706,7.4706,0,0,1,100.0293,239.0859Zm0-14.1738a6.7119,6.7119,0,1,0,6.7109,6.7119A6.7193,6.7193,0,0,0,100.0293,224.9121Z"/><path class="cls-7" d="M99.3457,229.6719a1.8591,1.8591,0,0,1-.5977.1211c-.081,0-.121-.043-.121-.1328v-.1563a.2221.2221,0,0,1,.0351-.1348.4649.4649,0,0,1,.1758-.1,2.6217,2.6217,0,0,0,.5117-.3164,3.2542,3.2542,0,0,0,.6328-.6367,2.4365,2.4365,0,0,1,.2813-.334.3284.3284,0,0,1,.1484-.0254h.3242v5.6524c0,.0586.044.1094.1328.1523a.2813.2813,0,0,1,.1387.1153,1.1507,1.1507,0,0,1,.0254.3183c0,.0684-.0459.1016-.1367.1016H99.1074c-.0761,0-.122-.0117-.1386-.0352a.3442.3442,0,0,1-.0254-.1719.7812.7812,0,0,1,.0214-.2421c.0137-.0313.0684-.0606.1622-.09.1455-.043.2187-.1074.2187-.1914Z"/><path class="cls-6" d="M294.0039,281.707a7.4614,7.4614,0,1,1,7.4619-7.4619A7.47,7.47,0,0,1,294.0039,281.707Zm0-14.1728a6.7114,6.7114,0,1,0,6.7119,6.7109A6.7188,6.7188,0,0,0,294.0039,267.5342Z"/><path class="cls-7" d="M294.3613,273.5322a1.6066,1.6066,0,0,1,1.3985,1.6407,1.7529,1.7529,0,0,1-.2578.9531,1.7255,1.7255,0,0,1-.709.6347,2.1255,2.1255,0,0,1-.959.2247,1.4665,1.4665,0,0,1-1.0957-.42,1.356,1.356,0,0,1-.4121-.9785.8007.8007,0,0,1,.1445-.4805.53.53,0,0,1,.8086-.0234.6724.6724,0,0,1,.1406.4336,2.3393,2.3393,0,0,1-.0429.3555.9575.9575,0,0,0-.0235.1992.4171.4171,0,0,0,.1055.2871.372.372,0,0,0,.293.1191.3938.3938,0,0,0,.3652-.205,1.362,1.362,0,0,0,.1191-.6582c0-.0782-.0019-.1563-.0078-.2344l-.0469-.9649a.8092.8092,0,0,0-.1914-.4179.5455.5455,0,0,0-.2793-.1621,2.6294,2.6294,0,0,0-.4668-.0293l-.1132.0039a.11.11,0,0,1-.125-.1133l-.0079-.1719a.5273.5273,0,0,1-.0039-.0547.1554.1554,0,0,1,.1758-.1758,1.9064,1.9064,0,0,0,.6387-.0761.4362.4362,0,0,0,.26-.2324,2.1484,2.1484,0,0,0,.0664-.6836,3.9506,3.9506,0,0,0-.0782-.9922.3124.3124,0,0,0-.32-.2461.3806.3806,0,0,0-.26.0976.3181.3181,0,0,0-.1114.25,1.7694,1.7694,0,0,0,.0352.293,2.3732,2.3732,0,0,1,.0508.4063.4522.4522,0,0,1-.1524.3593.5325.5325,0,0,1-.3633.1328.4735.4735,0,0,1-.4082-.207.87.87,0,0,1-.1464-.5156,1.28,1.28,0,0,1,.4179-.9453,1.7931,1.7931,0,0,1,2.3789.0937,1.6481,1.6481,0,0,1,.43,1.1016,1.32,1.32,0,0,1-.289.8379,1.59,1.59,0,0,1-.84.5293Z"/><path class="cls-6" d="M362.6338,281.707a7.4614,7.4614,0,1,1,7.4609-7.4619A7.4706,7.4706,0,0,1,362.6338,281.707Zm0-14.1728a6.7114,6.7114,0,1,0,6.7109,6.7109A6.719,6.719,0,0,0,362.6338,267.5342Z"/><path class="cls-7" d="M361.624,275.7471h1.9571a.2481.2481,0,0,0,.2089-.1.9669.9669,0,0,0,.1309-.3731.2456.2456,0,0,1,.0742-.15.4132.4132,0,0,1,.2149-.0371c.1621,0,.2421.0352.2421.1055a.3445.3445,0,0,1-.0117.082q-.019.1054-.082.5039-.07.4337-.1387.7559a1.1992,1.1992,0,0,1-.1015.3535.3161.3161,0,0,1-.1817.0312h-3.082v-.914q0-.1919.3281-.4844a10.6017,10.6017,0,0,0,.76-.8945,4.8713,4.8713,0,0,0,.7715-1.2188,3.7057,3.7057,0,0,0,.1757-1.2617,1.7847,1.7847,0,0,0-.1269-.85.4127.4127,0,0,0-.3652-.19.3835.3835,0,0,0-.2813.1016.36.36,0,0,0-.1016.2656,1.65,1.65,0,0,0,.02.2266,2.5764,2.5764,0,0,1,.0234.34.8364.8364,0,0,1-.1621.5508.5119.5119,0,0,1-.4121.1953.4987.4987,0,0,1-.4219-.2109.8329.8329,0,0,1-.1562-.5078,1.3867,1.3867,0,0,1,.4609-1.0488,1.7322,1.7322,0,0,1,1.2344-.4317,1.7654,1.7654,0,0,1,1.291.4961,1.7185,1.7185,0,0,1,.5059,1.2852,2.0171,2.0171,0,0,1-.18.8379,2.3608,2.3608,0,0,1-.49.7109,10.51,10.51,0,0,1-.9082.7793A9.779,9.779,0,0,0,361.624,275.7471Z"/></g></g></g></svg>